<?xml version="1.0" encoding="UTF-8" standalone="no"?>
<!DOCTYPE svg PUBLIC "-//W3C//DTD SVG 1.1//EN" "http://www.w3.org/Graphics/SVG/1.1/DTD/svg11.dtd">
<!-- Generated by Microsoft Visio, SVG Export slow-disk-io-issues.svg Slow I/O -->
<svg xmlns="http://www.w3.org/2000/svg" xmlns:xlink="http://www.w3.org/1999/xlink" xmlns:ev="http://www.w3.org/2001/xml-events"
		xmlns:v="http://schemas.microsoft.com/visio/2003/SVGExtensions/" width="8.1875in" height="10.6875in"
		viewBox="0 0 589.5 769.5" xml:space="preserve" color-interpolation-filters="sRGB" class="st28">
	<title>SlowQueryExecution.vsd</title>
	<v:documentProperties v:langID="1033" v:viewMarkup="false">
		<v:userDefs>
			<v:ud v:nameU="msvConvertTheme"/>
		</v:userDefs>
	</v:documentProperties>

	<style type="text/css">
	<![CDATA[
		.st1 {fill:#facca7;stroke:#000000;stroke-linecap:round;stroke-linejoin:round;stroke-width:0.24}
		.st2 {fill:#000000;font-family:Times New Roman;font-size:0.666664em}
		.st3 {font-size:1em}
		.st4 {fill:#92d050;stroke:#000000;stroke-linecap:round;stroke-linejoin:round;stroke-width:0.24}
		.st5 {fill:#000000;font-family:Calibri;font-size:0.666664em}
		.st6 {font-size:1em;font-weight:bold}
		.st7 {fill:#cadaa9;stroke:#000000;stroke-linecap:round;stroke-linejoin:round;stroke-width:0.24}
		.st8 {fill:#000000;font-family:Symbol;font-size:1.00001em}
		.st9 {font-family:Calibri;font-size:0.666659em;font-weight:bold}
		.st10 {font-family:Calibri;font-size:0.666659em}
		.st11 {font-family:Calibri;font-size:0.666659em;font-style:italic}
		.st12 {marker-end:url(#mrkr4-70);stroke:#000000;stroke-linecap:round;stroke-linejoin:round;stroke-width:0.239976}
		.st13 {fill:#000000;fill-opacity:1;stroke:#000000;stroke-opacity:1;stroke-width:0.086948582161584}
		.st14 {fill:#ffffff;stroke:none;stroke-linecap:butt;stroke-width:7.2}
		.st15 {fill:#000000;font-family:Arial;font-size:0.666664em}
		.st16 {fill:#000000;font-family:Calibri;font-size:0.666664em;font-weight:bold}
		.st17 {font-size:1em;font-weight:normal}
		.st18 {fill:#d7e3bf;stroke:#000000;stroke-linecap:round;stroke-linejoin:round;stroke-width:0.24}
		.st19 {font-family:Symbol;font-size:1em}
		.st20 {fill:#92cddc;stroke:#000000;stroke-linecap:round;stroke-linejoin:round;stroke-width:0.24}
		.st21 {fill:#548bd4;font-size:1em;text-decoration:underline}
		.st22 {fill:#548bd4;font-family:Arial;font-size:0.666664em}
		.st23 {font-size:1em;text-decoration:underline}
		.st24 {fill:#000000;font-size:1em}
		.st25 {fill:#ffffff;stroke:#000000;stroke-linecap:round;stroke-linejoin:round;stroke-width:1}
		.st26 {fill:none;stroke:none;stroke-linecap:round;stroke-linejoin:round;stroke-width:0.72}
		.st27 {fill:#000000;font-family:Arial;font-size:0.666664em;font-weight:bold}
		.st28 {fill:none;fill-rule:evenodd;font-size:12px;overflow:visible;stroke-linecap:square;stroke-miterlimit:3}
	]]>
	</style>

	<defs id="Markers">
		<g id="lend4">
			<path d="M 2 1 L 0 0 L 2 -1 L 2 1 " style="stroke:none"/>
		</g>
		<marker id="mrkr4-70" class="st13" v:arrowType="4" v:arrowSize="2" v:setback="23.0021" refX="-23.002100210021"
				orient="auto" markerUnits="strokeWidth" overflow="visible">
			<use xlink:href="#lend4" transform="scale(-11.501050105011,-11.501050105011) "/>
		</marker>
	</defs>
	<g v:mID="17" v:index="1" v:groupContext="foregroundPage">
		<title>Slow IO</title>
		<v:pageProperties v:drawingScale="1" v:pageScale="1" v:drawingUnits="0" v:shadowOffsetX="9" v:shadowOffsetY="-9"/>
		<v:layer v:name="Flowchart" v:index="0"/>
		<v:layer v:name="Connector" v:index="1"/>
		<g id="shape1-1" v:mID="1" v:groupContext="shape" v:layerMember="0" transform="translate(17.5,-474.87)">
			<title>Decision</title>
			<desc>Do Perfmon counters indicate slow I/O (latency)?</desc>
			<v:custProps>
				<v:cp v:nameU="Cost" v:lbl="Cost" v:type="7" v:format="@" v:langID="1033"/>
				<v:cp v:nameU="Duration" v:lbl="Duration" v:type="2" v:langID="1033"/>
				<v:cp v:nameU="Resources" v:lbl="Resources" v:langID="1033"/>
			</v:custProps>
			<v:userDefs>
				<v:ud v:nameU="visVersion" v:val="VT0(12):26"/>
			</v:userDefs>
			<v:textBlock v:margins="rect(2,2,2,2)"/>
			<v:textRect cx="51.75" cy="735.75" width="86.25" height="50.625"/>
			<path d="M0 735.75 L51.75 702 L103.5 735.75 L51.75 769.5 L0 735.75 Z" class="st1"/>
			<text x="17.53" y="728.49" class="st2" v:langID="1033"><v:paragraph v:spBefore="5" v:spAfter="5" v:horizAlign="1"
						v:bulletSize="0.166667"/><v:tabList/>Do Perfmon counters <tspan x="24.2" dy="1.2em" class="st3">indicate slow I/O </tspan><tspan
						x="35.76" dy="1.212em" class="st3">(latency)?</tspan></text>		</g>
		<g id="shape3-6" v:mID="3" v:groupContext="shape" v:layerMember="0" transform="translate(22,-338.464)">
			<title>Decision.5</title>
			<desc>Is the I/O subsystem overwhelmed?</desc>
			<v:custProps>
				<v:cp v:nameU="Cost" v:lbl="Cost" v:type="7" v:format="@" v:langID="1033"/>
				<v:cp v:nameU="Duration" v:lbl="Duration" v:type="2" v:langID="1033"/>
				<v:cp v:nameU="Resources" v:lbl="Resources" v:langID="1033"/>
			</v:custProps>
			<v:userDefs>
				<v:ud v:nameU="visVersion" v:val="VT0(12):26"/>
			</v:userDefs>
			<v:textBlock v:margins="rect(2,2,2,2)"/>
			<v:textRect cx="47.25" cy="734.063" width="78.75" height="53.1562"/>
			<path d="M0 734.06 L47.25 698.62 L94.5 734.06 L47.25 769.5 L0 734.06 Z" class="st1"/>
			<text x="14.47" y="731.66" class="st2" v:langID="1033"><v:paragraph v:spBefore="5" v:spAfter="5" v:horizAlign="1"
						v:bulletSize="0.166667"/><v:tabList/>Is the I/O subsystem <tspan x="23.7" dy="1.2em" class="st3">overwhelmed?</tspan></text>		</g>
		<g id="shape4-10" v:mID="4" v:groupContext="shape" transform="translate(73.75,-378.12)">
			<title>Cloud</title>
			<desc>Check if Disk Bytes/Sec is close to/beyond subsystem capacity...</desc>
			<v:userDefs>
				<v:ud v:nameU="visVersion" v:val="VT0(12):26"/>
			</v:userDefs>
			<v:textBlock v:margins="rect(1,1,1,1)"/>
			<v:textRect cx="114.75" cy="734.063" width="229.5" height="70.875"/>
			<path d="M4.97 734.14 A9.50896 4.37739 0 0 1 8.22 726.09 A12.9242 5.94957 0 0 1 20.45 717.07 A14.8403 6.83162 0 0 1 41.44
						 709.34 A10.1278 4.66228 0 0 1 59.72 705.33 A11.1213 5.11962 0 0 1 79.26 702.66 A21.9729 10.1151 0 0 1 109.81
						 700.98 A6.56469 3.02201 0 0 1 122.65 701.07 A7.00914 2.92402 3.45 0 1 136.26 700.96 A6.62797 2.04518 2.35
						 0 1 147.98 702.66 A12.2997 3.83204 3.3 0 1 171.84 705.35 A6.79633 2.52328 169.81 0 1 180.33 707.95 A12.6156
						 5.80752 0 0 1 200.54 714.23 A13.8277 4.29249 2.96 0 1 208.69 719.62 A17.8243 5.44858 179.27 0 1 220.75 728.61
						 A10.3081 3.14791 0 0 1 222.27 734.14 A5.14481 2.36838 0 1 1 221.43 738.25 A11.0697 5.09588 0 0 1 214.18
						 746.7 A7.3026 2.66689 179.65 1 1 206.79 751.21 A14.8403 6.83162 0 0 1 185.81 758.94 A11.6039 3.54362 0 0
						 1 167.53 762.95 A9.22559 4.24694 0 0 1 149.84 765.24 A9.60348 3.39344 1.31 0 1 131.48 766.87 A9.09809 2.77839
						 0 0 1 113.62 767.32 A11.6368 3.55365 0 0 1 91.46 766.62 A10.4822 3.27292 3.44 0 1 72.88 763.17 A9.11665
						 2.43694 3.28 1 1 56.51 760.65 A10.8818 5.00936 0 0 1 41.19 754.88 A14.8523 6.83717 0 0 1 23.08 754.88 A25.9735
						 7.99975 2.13 0 1 13.06 746.7 A10.2739 4.72954 0 0 1 3.66 738.53 A9.99499 3.11668 3.37 0 1 4.97 734.14 Z"
					class="st4"/>
			<text x="23.39" y="726.86" class="st5" v:langID="1033"><v:paragraph v:horizAlign="1" v:bulletSize="0.166667"/><v:tabList/>Check if <tspan
						class="st6">Disk Bytes/Sec </tspan>is close to/beyond subsystem capacity:<v:lf/><tspan x="13.17" dy="1.2em"
						class="st3">-</tspan> For SANs - <tspan class="st6">Avg Disk Bytes/sec </tspan>&#62; 150 - 300 MB /sec   (approx.)<v:newlineChar/><tspan
						x="13.97" dy="1.2em" class="st3">-</tspan>For single disk - <tspan class="st6">Avg Disk Bytes/Sec</tspan> &#62; 50-70 MB/sec (approx.)</text>		</g>
		<g id="shape6-18" v:mID="6" v:groupContext="shape" v:layerMember="0" transform="translate(125.5,-265.339)">
			<title>Decision.10</title>
			<desc>Is Sql Server driving the I/O Activity?</desc>
			<v:custProps>
				<v:cp v:nameU="Cost" v:lbl="Cost" v:type="7" v:format="@" v:langID="1033"/>
				<v:cp v:nameU="Duration" v:lbl="Duration" v:type="2" v:langID="1033"/>
				<v:cp v:nameU="Resources" v:lbl="Resources" v:langID="1033"/>
			</v:custProps>
			<v:userDefs>
				<v:ud v:nameU="visVersion" v:val="VT0(12):26"/>
			</v:userDefs>
			<v:textBlock v:margins="rect(2,2,2,2)"/>
			<v:textRect cx="51.75" cy="735.75" width="86.25" height="50.625"/>
			<path d="M0 735.75 L51.75 702 L103.5 735.75 L51.75 769.5 L0 735.75 Z" class="st1"/>
			<text x="12.64" y="733.35" class="st2" v:langID="1033"><v:paragraph v:spBefore="5" v:spAfter="5" v:horizAlign="1"
						v:bulletSize="0.166667"/><v:tabList/>Is Sql Server driving the <tspan x="30.53" dy="1.2em" class="st3">I/O Activity?</tspan></text>		</g>
		<g id="shape7-22" v:mID="7" v:groupContext="shape" transform="translate(181.75,-310.339)">
			<title>Cloud.11</title>
			<desc>Check - Process : IO Data Bytes/sec - Buffer Manager: Page Re...</desc>
			<v:userDefs>
				<v:ud v:nameU="visVersion" v:val="VT0(12):26"/>
			</v:userDefs>
			<v:textBlock v:margins="rect(1,1,1,1)"/>
			<v:textRect cx="93.375" cy="742.359" width="186.75" height="54.2812"/>
			<path d="M4.05 742.42 A7.73768 3.35253 0 0 1 6.69 736.25 A10.5167 4.55662 0 0 1 16.64 729.34 A12.0759 5.23216 0 0 1 33.72
						 723.42 A8.24127 3.57072 0 0 1 48.59 720.35 A9.04969 3.92098 0 0 1 64.5 718.31 A17.8799 7.74688 0 0 1 89.36
						 717.02 A5.34185 2.31448 0 0 1 99.8 717.09 A5.70236 2.23988 3.18 0 1 110.88 717.01 A5.39283 1.5665 2.19 0
						 1 120.42 718.31 A10.0067 2.93541 3.07 0 1 139.83 720.37 A5.52063 1.93591 170.57 0 1 146.74 722.36 A10.2656
						 4.44782 0 0 1 163.19 727.17 A11.2502 3.288 2.75 0 1 169.82 731.3 A14.5039 4.17295 179.32 0 1 179.63 738.18
						 A8.388 2.4109 0 0 1 180.87 742.42 A4.18646 1.81388 0 1 1 180.19 745.57 A9.00771 3.90279 0 0 1 174.29 752.04
						 A5.9423 2.0425 179.68 1 1 168.27 755.49 A12.0759 5.23216 0 0 1 151.2 761.41 A9.4424 2.71396 0 0 1 136.32
						 764.48 A7.5071 3.25262 0 0 1 121.93 766.24 A7.81437 2.59902 1.22 0 1 106.99 767.48 A7.40335 2.12789 0 0
						 1 92.46 767.83 A9.46913 2.72164 0 0 1 74.43 767.29 A8.52794 2.50715 3.2 0 1 59.3 764.65 A7.41708 1.86674
						 3.06 1 1 45.99 762.72 A8.85479 3.83654 0 0 1 33.52 758.3 A12.0857 5.23641 0 0 1 18.78 758.3 A21.1336 6.12728
						 1.98 0 1 10.63 752.04 A8.36016 3.62223 0 0 1 2.98 745.78 A8.13159 2.38745 3.13 0 1 4.05 742.42 Z"
					class="st4"/>
			<text x="83.64" y="730.36" class="st5" v:langID="1033"><v:paragraph v:horizAlign="1" v:bulletSize="0.166667"/><v:tabList/>Check <v:newlineChar/><tspan
						x="46.18" dy="1.2em" class="st3">-</tspan><tspan class="st6"> </tspan><tspan class="st6">Process : IO Data Bytes/sec<v:newlineChar/></tspan><tspan
						x="38.75" dy="1.2em" class="st3">-</tspan> <tspan class="st6">Buffer Manager: Page Read/sec <v:newlineChar/></tspan><tspan
						x="36.11" dy="1.2em" class="st3">-</tspan> <tspan class="st6">Buffer Manager: Page Writes/sec</tspan></text>		</g>
		<g id="shape8-32" v:mID="8" v:groupContext="shape" v:layerMember="0" transform="translate(223.375,-108.613)">
			<title>Process</title>
			<desc>Tune Queries : Use DMVs and SQL Trace and look at queries by ...</desc>
			<v:custProps>
				<v:cp v:nameU="Cost" v:lbl="Cost" v:type="7" v:format="@" v:langID="1033"/>
				<v:cp v:nameU="Duration" v:lbl="Duration" v:type="2" v:langID="1033"/>
				<v:cp v:nameU="Resources" v:lbl="Resources" v:langID="1033"/>
			</v:custProps>
			<v:userDefs>
				<v:ud v:nameU="visVersion" v:val="VT0(12):26"/>
			</v:userDefs>
			<v:textBlock v:margins="rect(2,2,2,2)"/>
			<v:textRect cx="158.312" cy="707.931" width="316.63" height="123.137"/>
			<rect x="0" y="646.363" width="316.625" height="123.137" class="st7"/>
			<text x="2" y="665.81" class="st8" v:langID="1033"><v:paragraph v:indentFirst="-18" v:indentLeft="18" v:bullet="1"
						v:bulletSize="0.166667"/><v:tabList/><tspan class="st3" v:isBullet="true">·</tspan> <tspan class="st9">Tune Queries </tspan><tspan
						class="st10">: Use DMVs and SQL Trace and look at queries by reads/writes (to   confirm </tspan><tspan
						x="20" dy="1.35em" class="st10">that SQL queries are causing this use </tspan><tspan class="st11">Sql Server Buffer Manager: Page Reads/sec</tspan><tspan
						class="st10">, </tspan><tspan class="st11">Page </tspan><tspan x="20" dy="1.2em" class="st11">Writes/Sec</tspan><tspan
						class="st10">). Create appropriate indexes, update statistics, re</tspan><tspan class="st10">-</tspan><tspan
						class="st10">write queries<v:newlineChar/></tspan><tspan x="2" dy="1.1em" class="st3" v:isBullet="true">·</tspan> <tspan
						class="st9">Increase Memory for SQL Server: </tspan><tspan class="st10">max server memory or add more RAM to reduce </tspan><tspan
						x="20" dy="1.35em" class="st10">physical reads<v:newlineChar/></tspan><tspan x="2" dy="1.1em" class="st3"
						v:isBullet="true">·</tspan> <tspan class="st9">Stagger backups/change Backup volume</tspan><tspan
						class="st10">: if backups are causing the heavy I/O <v:newlineChar/></tspan><tspan x="2" dy="1.2em"
						class="st3" v:isBullet="true">·</tspan> <tspan class="st9">Auto grow/Checkpoint</tspan><tspan class="st10">: check if these are overloading the system: for Checkpoint use </tspan><tspan
						class="st11">SQL </tspan><tspan x="20" dy="1.35em" class="st11">Server: Buffer Manager </tspan><tspan
						class="st11">-</tspan><tspan class="st11"> </tspan><tspan class="st11">Checkpoint Pages/sec</tspan><tspan
						class="st10"> </tspan><tspan class="st10">and for Log or Data file growth use </tspan><tspan class="st11">SQL </tspan><tspan
						x="20" dy="1.223em" class="st11">Server: Databases Data File(s) Size (KB), SQL Server: Databases Log File(s) Size (KB)</tspan></text>		</g>
		<g id="shape9-65" v:mID="9" v:groupContext="shape" v:layerMember="1" transform="translate(177.25,-265.339)">
			<title>Dynamic connector.13</title>
			<desc>Yes</desc>
			<v:textBlock v:margins="rect(4,4,4,4)"/>
			<v:textRect cx="0" cy="840.141" width="40" height="17.6036"/>
			<path d="M0 769.5 L0 864.66 L40.61 864.66" class="st12"/>
			<rect v:rectContext="textBkgnd" x="-6.89249" y="835.341" width="13.7851" height="9.59985" class="st14"/>
			<text x="-6.89" y="842.54" class="st15" v:langID="1033"><v:paragraph v:horizAlign="1"/><v:tabList/>Yes</text>		</g>
		<g id="shape11-73" v:mID="11" v:groupContext="shape" v:layerMember="1" transform="translate(116.5,-373.901)">
			<title>Dynamic connector.15</title>
			<desc>Yes</desc>
			<v:textBlock v:margins="rect(4,4,4,4)"/>
			<v:textRect cx="50.9062" cy="769.5" width="40" height="17.6036"/>
			<path d="M0 769.5 L60.75 769.5 L60.75 805.04" class="st12"/>
			<rect v:rectContext="textBkgnd" x="44.0138" y="764.7" width="13.7851" height="9.59985" class="st14"/>
			<text x="44.01" y="771.9" class="st15" v:langID="1033"><v:paragraph v:horizAlign="1"/><v:tabList/>Yes</text>		</g>
		<g id="shape12-80" v:mID="12" v:groupContext="shape" v:layerMember="1" transform="translate(60.25,-474.87)">
			<title>Dynamic connector.12</title>
			<desc>Yes</desc>
			<v:textBlock v:margins="rect(4,4,4,4)"/>
			<v:textRect cx="9" cy="802.266" width="40" height="17.6036"/>
			<path d="M9 769.5 L9 829.51" class="st12"/>
			<rect v:rectContext="textBkgnd" x="2.10751" y="797.466" width="13.7851" height="9.59985" class="st14"/>
			<text x="2.11" y="804.67" class="st15" v:langID="1033"><v:paragraph v:horizAlign="1"/><v:tabList/>Yes</text>		</g>
		<g id="shape15-87" v:mID="15" v:groupContext="shape" v:layerMember="0" transform="translate(109.75,-13.5)">
			<title>Process.19</title>
			<desc>I/O Path Problems: OS/Hardware: Work with system admin/hardwa...</desc>
			<v:custProps>
				<v:cp v:nameU="Cost" v:lbl="Cost" v:type="7" v:format="@" v:langID="1033"/>
				<v:cp v:nameU="Duration" v:lbl="Duration" v:type="2" v:langID="1033"/>
				<v:cp v:nameU="Resources" v:lbl="Resources" v:langID="1033"/>
			</v:custProps>
			<v:userDefs>
				<v:ud v:nameU="visVersion" v:val="VT0(12):26"/>
			</v:userDefs>
			<v:textBlock v:margins="rect(2,2,2,2)"/>
			<v:textRect cx="157.5" cy="730.628" width="315" height="77.745"/>
			<rect x="0" y="691.755" width="315" height="77.745" class="st7"/>
			<text x="3.81" y="708.9" class="st16" v:langID="1033"><v:paragraph v:bulletSize="0.166667"/><v:tabList/>I/O Path Problems<tspan
						class="st17">: <v:newlineChar/></tspan><tspan x="2" dy="1.2em" class="st3">OS/Hardware:</tspan><tspan
						class="st17"> </tspan><tspan class="st17">Work with system admin/hardware vendor to: <v:newlineChar/></tspan><tspan
						x="2" dy="1.2em" class="st17"> </tspan><tspan class="st17">-</tspan><tspan class="st17"> </tspan><tspan
						class="st17">fix mis</tspan><tspan class="st17">-</tspan><tspan class="st17">configuration of SAN/NAS system<v:newlineChar/></tspan><tspan
						x="2" dy="1.2em" class="st17"> </tspan><tspan class="st17">-</tspan><tspan class="st17"> </tspan><tspan
						class="st17">update old/faulty drivers, controllers, firmware<v:newlineChar/></tspan><tspan x="2"
						dy="1.2em" class="st17"> </tspan><tspan class="st17">-</tspan><tspan class="st17"> </tspan><tspan
						class="st17">collect Storport trace<v:newlineChar/></tspan><tspan x="2" dy="1.223em" class="st17"> </tspan><tspan
						class="st17">-</tspan><tspan class="st17"> </tspan><tspan class="st17">Repair cables, switches, disks.</tspan></text>		</g>
		<g id="shape16-112" v:mID="16" v:groupContext="shape" v:layerMember="1" transform="translate(69.25,-338.464)">
			<title>Dynamic connector.16</title>
			<desc>No</desc>
			<v:textBlock v:margins="rect(4,4,4,4)"/>
			<v:textRect cx="0" cy="932.796" width="40" height="17.6036"/>
			<path d="M0 769.5 L0 1055.59 L34.98 1055.59" class="st12"/>
			<rect v:rectContext="textBkgnd" x="-5.11325" y="927.996" width="10.2266" height="9.59985" class="st14"/>
			<text x="-5.11" y="935.2" class="st15" v:langID="1033"><v:paragraph v:horizAlign="1"/><v:tabList/>No</text>		</g>
		<g id="shape19-119" v:mID="19" v:groupContext="shape" transform="translate(339.25,-274.62)">
			<title>Sheet.19</title>
			<desc>Determine which application is driving the IO and focus on th...</desc>
			<v:textBlock v:margins="rect(2,2,2,2)"/>
			<v:textRect cx="104.875" cy="751.5" width="209.75" height="36"/>
			<rect x="0" y="733.5" width="209.75" height="36" class="st18"/>
			<text x="2" y="748.98" class="st5" v:langID="1033"><v:paragraph/><v:tabList/>Determine which application is driving the IO and focus on that <v:newlineChar/><tspan
						x="2" dy="1.223em" class="st3">(</tspan><tspan class="st6">Process: IO Data Bytes/Sec</tspan><tspan
						class="st6">-</tspan><tspan class="st6">&#62;* instances</tspan>)</text>		</g>
		<g id="shape20-126" v:mID="20" v:groupContext="shape" v:layerMember="1" transform="translate(229,-290.089)">
			<title>Dynamic connector.7</title>
			<desc>No</desc>
			<v:textBlock v:margins="rect(4,4,4,4)"/>
			<v:textRect cx="55.125" cy="760.5" width="40" height="17.6036"/>
			<path d="M0 760.5 L104.73 760.5" class="st12"/>
			<rect v:rectContext="textBkgnd" x="50.0117" y="755.7" width="10.2266" height="9.59985" class="st14"/>
			<text x="50.01" y="762.9" class="st15" v:langID="1033"><v:paragraph v:horizAlign="1"/><v:tabList/>No</text>		</g>
		<g id="shape21-133" v:mID="21" v:groupContext="shape" transform="translate(73.75,-528.87)">
			<title>Cloud.8</title>
			<desc>- Check if Physical/Logical DIsk: Avg. Disk sec/Transfer &#62; 15...</desc>
			<v:userDefs>
				<v:ud v:nameU="visVersion" v:val="VT0(12):26"/>
			</v:userDefs>
			<v:textBlock v:margins="rect(1,1,1,1)"/>
			<v:textRect cx="76.5" cy="747" width="153" height="45"/>
			<path d="M3.31 747.05 A6.33931 2.7793 0 0 1 5.48 741.94 A8.61613 3.77751 0 0 1 13.64 736.21 A9.89351 4.33754 0 0 1 27.63
						 731.3 A6.75189 2.96018 0 0 1 39.81 728.76 A7.4142 3.25055 0 0 1 52.84 727.06 A14.6486 6.42228 0 0 1 73.21
						 725.99 A4.37646 1.91874 0 0 1 81.76 726.05 A4.67198 1.85683 3.23 0 1 90.84 725.98 A4.4183 1.29863 2.22 0
						 1 98.65 727.06 A8.19858 2.43342 3.11 0 1 114.56 728.77 A4.52439 1.60438 170.43 0 1 120.22 730.42 A8.41041
						 3.68731 0 0 1 133.7 734.41 A9.21731 2.72572 2.79 0 1 139.13 737.83 A11.8828 3.45944 179.31 0 1 147.17 743.54
						 A6.8721 1.99867 0 0 1 148.18 747.05 A3.42987 1.50373 0 1 1 147.62 749.66 A7.37981 3.23548 0 0 1 142.79 755.02
						 A4.86839 1.69327 179.67 1 1 137.86 757.89 A9.89351 4.33754 0 0 1 123.87 762.79 A7.73594 2.24991 0 0 1 111.69
						 765.34 A6.15039 2.69647 0 0 1 99.89 766.8 A6.40217 2.15462 1.24 0 1 87.66 767.83 A6.0654 1.76405 0 0 1 75.75
						 768.11 A7.75784 2.25628 0 0 1 60.97 767.67 A6.987 2.07839 3.25 0 1 48.59 765.48 A6.07685 1.5475 3.1 1 1
						 37.68 763.88 A7.25452 3.18055 0 0 1 27.46 760.21 A9.90155 4.34106 0 0 1 15.39 760.21 A17.3146 5.07953 2.01
						 0 1 8.71 755.02 A6.84929 3.00288 0 0 1 2.44 749.84 A6.66226 1.97916 3.18 0 1 3.31 747.05 Z" class="st4"/>
			<text x="61.59" y="739.8" class="st5" v:langID="1033"><v:paragraph v:horizAlign="1" v:bulletSize="0.166667"/><v:tabList/>- Check if<v:newlineChar/><tspan
						x="3.1" dy="1.2em" class="st6">Physical/Logical DIsk: Avg. Disk sec/Transfer<v:newlineChar/></tspan><tspan
						x="38.25" dy="1.2em" class="st3">&#62; 15</tspan>-20 ms consistently</text>		</g>
		<g id="shape31-138" v:mID="31" v:groupContext="shape" transform="translate(249.75,-458.809)">
			<title>Sheet.31</title>
			<desc>Examine File System Filter Drivers: Work with system admin/fi...</desc>
			<v:textBlock v:margins="rect(2,2,2,2)" v:verticalAlign="0"/>
			<v:textRect cx="158.312" cy="740.059" width="316.63" height="58.883"/>
			<rect x="0" y="710.617" width="316.625" height="58.883" class="st18"/>
			<text x="2" y="719.82" class="st5" v:langID="1033"><v:paragraph/><v:tabList/>Examine <tspan class="st6">File System Filter Drivers</tspan>: <v:newlineChar/><v:paragraph
						v:indentFirst="-18" v:indentLeft="18" v:bullet="1"/><tspan x="2" dy="1.211em" class="st19"
						v:isBullet="true">·</tspan><tspan class="st19"> </tspan>Work with system admin/filter driver vendor to resolve.<v:newlineChar/><tspan
						x="2" dy="1.215em" class="st19" v:isBullet="true">·</tspan><tspan class="st19"> </tspan>Exclude data/log/backup folders from being examined by filter drivers as those can slow I/<tspan
						x="20" dy="1.204em" class="st3">O. (e.g. Anti</tspan>-virus, intrusion detection, etc.)<v:newlineChar/><tspan
						x="2" dy="1.211em" class="st19" v:isBullet="true">·</tspan><tspan class="st19"> </tspan>Use WPR.exe to collect short-period(&#60;10 sec) data on Minifilter I/O activity and check for <tspan
						x="20" dy="1.227em" class="st3">delays</tspan></text>		</g>
		<g id="shape32-150" v:mID="32" v:groupContext="shape" v:layerMember="1" transform="translate(121,-499.62)">
			<title>Dynamic connector</title>
			<desc>No</desc>
			<v:textBlock v:margins="rect(4,4,4,4)"/>
			<v:textRect cx="64.375" cy="760.5" width="40" height="17.6036"/>
			<path d="M0 760.5 L123.23 760.5" class="st12"/>
			<rect v:rectContext="textBkgnd" x="59.2617" y="755.7" width="10.2266" height="9.59985" class="st14"/>
			<text x="59.26" y="762.9" class="st15" v:langID="1033"><v:paragraph v:horizAlign="1"/><v:tabList/>No</text>		</g>
		<g id="shape33-157" v:mID="33" v:groupContext="shape" transform="translate(217.75,-549.12)">
			<title>Sheet.33</title>
			<desc>Perfmon</desc>
			<v:textBlock v:margins="rect(2,2,2,2)"/>
			<v:textRect cx="29.25" cy="756" width="58.5" height="27"/>
			<ellipse cx="29.25" cy="756" rx="29.25" ry="13.5" class="st20"/>
			<text x="14.13" y="758.4" class="st15" v:langID="1033"><v:paragraph v:horizAlign="1"/><v:tabList/>Perfmon</text>		</g>
		<g id="shape34-160" v:mID="34" v:groupContext="shape" transform="translate(301,-400.62)">
			<title>Sheet.34</title>
			<desc>Perfmon</desc>
			<v:textBlock v:margins="rect(2,2,2,2)"/>
			<v:textRect cx="29.25" cy="756" width="58.5" height="27"/>
			<ellipse cx="29.25" cy="756" rx="29.25" ry="13.5" class="st20"/>
			<text x="14.13" y="758.4" class="st15" v:langID="1033"><v:paragraph v:horizAlign="1"/><v:tabList/>Perfmon</text>		</g>
		<g id="shape35-163" v:mID="35" v:groupContext="shape" transform="translate(350.5,-337.62)">
			<title>Sheet.35</title>
			<desc>Perfmon</desc>
			<v:textBlock v:margins="rect(2,2,2,2)"/>
			<v:textRect cx="29.25" cy="756" width="58.5" height="27"/>
			<ellipse cx="29.25" cy="756" rx="29.25" ry="13.5" class="st20"/>
			<text x="14.13" y="758.4" class="st15" v:langID="1033"><v:paragraph v:horizAlign="1"/><v:tabList/>Perfmon</text>		</g>
		<g id="shape36-166" v:mID="36" v:groupContext="shape" transform="translate(259.375,-243.12)">
			<title>Sheet.36</title>
			<desc>Perfmon, DMVs, Xevents, SQL Trace, DTA, Errorlogs</desc>
			<v:textBlock v:margins="rect(2,2,2,2)"/>
			<v:textRect cx="39.375" cy="751.327" width="78.75" height="36.3462"/>
			<ellipse cx="39.375" cy="751.327" rx="39.375" ry="18.1731" class="st20"/>
			<text x="10.04" y="744.13" class="st15" v:langID="1033"><v:paragraph v:horizAlign="1"/><v:tabList/>Perfmon, DMVs, <tspan
						x="2.25" dy="1.2em" class="st3">Xevents, SQL Trace, </tspan><tspan x="12.93" dy="1.2em" class="st3">DTA, Errorlogs</tspan></text>		</g>
		<g id="shape37-171" v:mID="37" v:groupContext="shape" transform="translate(100.75,-96.5887)">
			<title>Sheet.37</title>
			<desc>WPR, Perfmon,SQLIO, Event Logs, Storport trace</desc>
			<v:textBlock v:margins="rect(2,2,2,2)"/>
			<v:textRect cx="47.25" cy="747.692" width="94.5" height="43.6154"/>
			<ellipse cx="47.25" cy="747.692" rx="47.25" ry="21.8077" class="st20"/>
			<text x="6.13" y="740.49" class="st15" v:langID="1033"><v:paragraph v:horizAlign="1"/><v:tabList/>WPR, Perfmon,SQLIO, <tspan
						x="10.79" dy="1.2em" class="st3">Event Logs, Storport </tspan><tspan x="38.36" dy="1.2em" class="st3">trace</tspan></text>		</g>
		<g id="shape38-176" v:mID="38" v:groupContext="shape" transform="translate(460.75,-315.12)">
			<title>Sheet.38</title>
			<desc>Perfmon</desc>
			<v:textBlock v:margins="rect(2,2,2,2)"/>
			<v:textRect cx="29.25" cy="756" width="58.5" height="27"/>
			<ellipse cx="29.25" cy="756" rx="29.25" ry="13.5" class="st20"/>
			<text x="14.13" y="758.4" class="st15" v:langID="1033"><v:paragraph v:horizAlign="1"/><v:tabList/>Perfmon</text>		</g>
		<g id="shape39-179" v:mID="39" v:groupContext="shape" v:layerMember="0" transform="translate(17.5,-612)">
			<title>Decision.39</title>
			<desc>Is SQL Server reporting slow I/O?</desc>
			<v:custProps>
				<v:cp v:nameU="Cost" v:lbl="Cost" v:type="7" v:format="@" v:langID="1033"/>
				<v:cp v:nameU="Duration" v:lbl="Duration" v:type="2" v:langID="1033"/>
				<v:cp v:nameU="Resources" v:lbl="Resources" v:langID="1033"/>
			</v:custProps>
			<v:userDefs>
				<v:ud v:nameU="visVersion" v:val="VT0(12):26"/>
			</v:userDefs>
			<v:textBlock v:margins="rect(2,2,2,2)"/>
			<v:textRect cx="51.75" cy="735.75" width="86.25" height="50.625"/>
			<path d="M0 735.75 L51.75 702 L103.5 735.75 L51.75 769.5 L0 735.75 Z" class="st1"/>
			<text x="13.2" y="733.35" class="st2" v:langID="1033"><v:paragraph v:spBefore="5" v:spAfter="5" v:horizAlign="1"
						v:bulletSize="0.166667"/><v:tabList/>Is SQL Server reporting <tspan x="36.09" dy="1.2em" class="st3">slow I/O?</tspan></text>		</g>
		<a xlink:href="https://docs.microsoft.com/sql/relational-databases/errors-events/mssqlserver-833-database-engine-error">
			<g id="shape40-183" v:mID="40" v:groupContext="shape" transform="translate(43.375,-661.38)">
				<title>Cloud.40</title>
				<desc>- Check for wait_types: PAGEIOLATCH_*, WRITELOG, ASYNC_IO_COM...</desc>
				<v:userDefs>
					<v:ud v:nameU="visVersion" v:val="VT0(12):26"/>
				</v:userDefs>
				<v:textBlock v:margins="rect(1,1,1,1)"/>
				<v:textRect cx="138.375" cy="740.059" width="276.75" height="58.883"/>
				<path d="M5.99 740.12 A11.4667 3.63674 0 0 1 9.91 733.44 A15.5851 4.94291 0 0 1 24.67 725.94 A17.8956 5.67572 0 0
							 1 49.97 719.52 A12.213 3.87343 0 0 1 72.01 716.19 A13.411 4.25338 0 0 1 95.58 713.97 A26.4968 8.40363
							 0 0 1 132.42 712.57 A7.91624 2.51069 0 0 1 147.9 712.65 A8.44493 2.43137 2.14 0 1 164.31 712.56 A7.98919
							 1.69985 1.54 0 1 178.45 713.97 A14.8198 3.18629 2.15 0 1 207.22 716.2 A8.13313 2.11244 173.49 0 1 217.45
							 718.36 A15.2129 4.82489 0 0 1 241.83 723.58 A16.6635 3.56857 1.93 0 1 251.66 728.06 A21.4931 4.52686
							 179.53 0 1 266.2 735.53 A12.4304 2.61529 0 0 1 268.04 740.12 A6.20403 1.96765 0 1 1 267.02 743.54 A13.3488
							 4.23366 0 0 1 258.28 750.56 A8.806 2.21567 179.78 1 1 249.36 754.3 A17.8956 5.67572 0 0 1 224.06 760.72
							 A13.993 2.94404 0 0 1 202.02 764.06 A11.125 3.52836 0 0 1 180.69 765.96 A11.5792 2.81963 0.84 0 1 158.55
							 767.31 A10.9712 2.30828 0 0 1 137.02 767.69 A14.0326 2.95237 0 0 1 110.29 767.11 A12.629 2.72158 2.24
							 0 1 87.88 764.24 A10.9845 2.02629 2.17 1 1 68.15 762.15 A13.1222 4.16178 0 0 1 49.67 757.35 A17.9102
							 5.68033 0 0 1 27.83 757.35 A31.3102 6.64849 1.39 0 1 15.75 750.56 A12.3892 3.9293 0 0 1 4.41 743.77
							 A12.0424 2.59156 2.2 0 1 5.99 740.12 Z" class="st4"/>
				<text x="101.98" y="723.26" class="st5" v:langID="1033"><v:paragraph v:horizAlign="1" v:bulletSize="0.166667"/><v:tabList/>- Check for wait_types:<v:newlineChar/><tspan
							x="12.27" dy="1.2em" class="st6">PAGEIOLATCH_*,  WRITELOG, ASYNC_IO_COMPLETION, IO_COMPLETION</tspan> or<v:newlineChar/><tspan
							x="12.88" dy="1.2em" class="st6">SQL Server:Wait Statistics </tspan><tspan class="st6">-</tspan><tspan
							class="st6"> </tspan><tspan class="st6">Page IO Latch waits</tspan> perfmon counter &#62; 15-20 ms <tspan
							x="118.93" dy="1.2em" class="st3">consistently<v:newlineChar/></tspan><tspan x="76.9" dy="1.2em"
							class="st3"> </tspan>- check for <tspan class="st21">stalled I/O error </tspan>messages</text>			</g>
		</a>
		<a
				xlink:href="https://docs.microsoft.com/sql/relational-databases/system-dynamic-management-views/sys-dm-exec-requests-transact-sql">
			<g id="shape41-194" v:mID="41" v:groupContext="shape" transform="translate(318.88,-670.38)">
				<title>Sheet.41</title>
				<desc>DMVs, Perfmon</desc>
				<v:textBlock v:margins="rect(2,2,2,2)"/>
				<v:textRect cx="29.25" cy="756" width="58.5" height="27"/>
				<ellipse cx="29.25" cy="756" rx="29.25" ry="13.5" class="st20"/>
				<text x="17.25" y="753.6" class="st22" v:langID="1033"><v:paragraph v:horizAlign="1"/><v:tabList/><tspan
							class="st23">DMVs, </tspan><tspan x="14.13" dy="1.2em" class="st24">Perfmon</tspan></text>			</g>
		</a>
		<g id="shape43-199" v:mID="43" v:groupContext="shape" transform="translate(382.5,-631.125)">
			<title>Sheet.43</title>
			<desc>No Slow I/O issue for SQL Server</desc>
			<v:textBlock v:margins="rect(2,2,2,2)"/>
			<v:textRect cx="33.75" cy="754.875" width="67.5" height="29.25"/>
			<rect x="0" y="740.25" width="67.5" height="29.25" class="st18"/>
			<text x="12.41" y="747.68" class="st15" v:langID="1033"><v:paragraph v:horizAlign="1"/><v:tabList/>No Slow I/O <tspan
						x="9.52" dy="1.2em" class="st3">issue for SQL </tspan><tspan x="21.97" dy="1.2em" class="st3">Server</tspan></text>		</g>
		<g id="shape44-204" v:mID="44" v:groupContext="shape" v:layerMember="1" transform="translate(121,-636.75)">
			<title>Dynamic connector.44</title>
			<desc>No</desc>
			<v:textBlock v:margins="rect(4,4,4,4)"/>
			<v:textRect cx="130.75" cy="760.5" width="40" height="17.6036"/>
			<path d="M0 760.5 L255.98 760.5" class="st12"/>
			<rect v:rectContext="textBkgnd" x="125.637" y="755.7" width="10.2266" height="9.59985" class="st14"/>
			<text x="125.64" y="762.9" class="st15" v:langID="1033"><v:paragraph v:horizAlign="1"/><v:tabList/>No</text>		</g>
		<g id="shape45-211" v:mID="45" v:groupContext="shape" v:layerMember="1" transform="translate(60.25,-612)">
			<title>Dynamic connector.45</title>
			<desc>Yes</desc>
			<v:textBlock v:margins="rect(4,4,4,4)"/>
			<v:textRect cx="9" cy="804.315" width="40" height="17.6036"/>
			<path d="M9 769.5 L9 833.61" class="st12"/>
			<rect v:rectContext="textBkgnd" x="2.10751" y="799.515" width="13.7851" height="9.59985" class="st14"/>
			<text x="2.11" y="806.72" class="st15" v:langID="1033"><v:paragraph v:horizAlign="1"/><v:tabList/>Yes</text>		</g>
		<g id="shape47-218" v:mID="47" v:groupContext="shape" transform="translate(312.75,-527.786)">
			<title>Sheet.47</title>
			<desc>Windows Performance Recorder (WPR) Fltmc command</desc>
			<v:textBlock v:margins="rect(2,2,2,2)"/>
			<v:textRect cx="58.5" cy="752.786" width="117" height="33.4286"/>
			<ellipse cx="58.5" cy="752.786" rx="58.5" ry="16.7143" class="st20"/>
			<text x="18.26" y="745.59" class="st15" v:langID="1033"><v:paragraph v:horizAlign="1"/><v:tabList/>Windows Performance <tspan
						x="28.94" dy="1.2em" class="st3">Recorder (WPR)<v:newlineChar/></tspan><tspan x="30.05" dy="1.2em"
						class="st3">Fltmc command</tspan></text>		</g>
		<g id="group52-223" transform="translate(396,-699.75)" v:mID="52" v:groupContext="group">
			<title>Sheet.52</title>
			<g id="group22-224" v:mID="22" v:groupContext="group">
				<title>Sheet.22</title>
				<g id="shape23-225" v:mID="23" v:groupContext="shape" v:layerMember="0">
					<title>Process.103</title>
					<v:custProps>
						<v:cp v:nameU="Cost" v:lbl="Cost" v:prompt="" v:type="7" v:format="@" v:sortKey="" v:invis="false"
								v:ask="false" v:langID="1033" v:cal="0"/>
						<v:cp v:nameU="ProcessNumber" v:lbl="Process Number" v:prompt="" v:type="2" v:format="" v:sortKey=""
								v:invis="false" v:ask="false" v:langID="1033" v:cal="0"/>
						<v:cp v:nameU="Owner" v:lbl="Owner" v:prompt="" v:type="0" v:format="" v:sortKey="" v:invis="false"
								v:ask="false" v:langID="1033" v:cal="0"/>
						<v:cp v:nameU="Function" v:lbl="Function" v:prompt="" v:type="0" v:format="" v:sortKey="" v:invis="false"
								v:ask="false" v:langID="1033" v:cal="0" v:val="VT4()"/>
						<v:cp v:nameU="StartDate" v:lbl="Start Date" v:prompt="" v:type="5" v:format="" v:sortKey=""
								v:invis="false" v:ask="false" v:langID="1033" v:cal="0"/>
						<v:cp v:nameU="EndDate" v:lbl="End Date" v:prompt="" v:type="5" v:format="" v:sortKey="" v:invis="false"
								v:ask="false" v:langID="1033" v:cal="0"/>
						<v:cp v:nameU="Status" v:lbl="Status" v:prompt="" v:type="4"
								v:format=";Not Started;In Progress;Completed;Deferred;Waiting on Input" v:sortKey=""
								v:invis="false" v:ask="false" v:langID="1033" v:cal="0" v:val="VT4()"/>
					</v:custProps>
					<v:userDefs>
						<v:ud v:nameU="visVersion" v:prompt="" v:val="VT0(14):26"/>
						<v:ud v:nameU="DefaultWidth" v:prompt="" v:val="VT0(1):0"/>
						<v:ud v:nameU="DefaultHeight" v:prompt="" v:val="VT0(0.75):0"/>
						<v:ud v:nameU="ResizeTxtHeight" v:prompt="" v:val="VT0(0.75):0"/>
					</v:userDefs>
					<rect x="0" y="714.15" width="184.5" height="55.35" rx="18" ry="18" class="st25"/>
				</g>
				<g id="shape24-227" v:mID="24" v:groupContext="shape" transform="translate(109.99,-23.7214)">
					<title>Sheet.24</title>
					<desc>Decision Point</desc>
					<v:textBlock v:margins="rect(2,2,2,2)"/>
					<v:textRect cx="24.1269" cy="761.593" width="48.26" height="15.8143"/>
					<rect x="0" y="753.686" width="48.2538" height="15.8143" class="st26"/>
					<text x="2" y="759.19" class="st27" v:langID="1033"><v:paragraph/><v:tabList/>Decision <tspan x="2" dy="1.2em"
								class="st3">Point</tspan></text>				</g>
				<g id="shape25-231" v:mID="25" v:groupContext="shape" transform="translate(31.7836,-23.7214)">
					<title>Sheet.25</title>
					<desc>Next Step</desc>
					<v:textBlock v:margins="rect(2,2,2,2)"/>
					<v:textRect cx="22.7077" cy="761.593" width="45.42" height="15.8143"/>
					<rect x="0" y="753.686" width="45.4154" height="15.8143" class="st26"/>
					<text x="2" y="763.99" class="st27" v:langID="1033"><v:paragraph/><v:tabList/>Next Step</text>				</g>
				<g id="shape26-234" v:mID="26" v:groupContext="shape" transform="translate(70.11,-39.5357)">
					<title>Sheet.26</title>
					<desc>Legend</desc>
					<v:textBlock v:margins="rect(2,2,2,2)"/>
					<v:textRect cx="16.8841" cy="761.593" width="33.77" height="15.8143"/>
					<rect x="0" y="753.686" width="33.7682" height="15.8143" class="st26"/>
					<text x="2" y="763.99" class="st27" v:langID="1033"><v:paragraph/><v:tabList/><tspan class="st23">Legend</tspan></text>				</g>
				<g id="shape27-238" v:mID="27" v:groupContext="shape" v:layerMember="0" transform="translate(92.25,-25.1825)">
					<title>Decision.26</title>
					<v:custProps>
						<v:cp v:nameU="Cost" v:lbl="Cost" v:type="7" v:format="@" v:langID="1033"/>
						<v:cp v:nameU="Duration" v:lbl="Duration" v:type="2" v:langID="1033"/>
						<v:cp v:nameU="Resources" v:lbl="Resources" v:langID="1033"/>
					</v:custProps>
					<v:userDefs>
						<v:ud v:nameU="visVersion" v:val="VT0(12):26"/>
					</v:userDefs>
					<path d="M0 763.05 L7.75 756.61 L15.5 763.05 L7.75 769.5 L0 763.05 Z" class="st1"/>
				</g>
				<g id="shape28-240" v:mID="28" v:groupContext="shape" transform="translate(8.02174,-27.675)">
					<title>Sheet.28</title>
					<rect x="0" y="760.275" width="16.0435" height="9.225" class="st18"/>
				</g>
				<g id="shape29-242" v:mID="29" v:groupContext="shape" transform="translate(8.02174,-8.76375)">
					<title>Sheet.29</title>
					<ellipse cx="8.02174" cy="763.734" rx="8.02174" ry="5.76562" class="st20"/>
				</g>
				<g id="shape30-244" v:mID="30" v:groupContext="shape" transform="translate(33.21,-6.32571)">
					<title>Sheet.30</title>
					<desc>Tools</desc>
					<v:textBlock v:margins="rect(2,2,2,2)"/>
					<v:textRect cx="13.1847" cy="761.593" width="26.37" height="15.8143"/>
					<rect x="0" y="753.686" width="26.3693" height="15.8143" class="st26"/>
					<text x="2" y="763.99" class="st27" v:langID="1033"><v:paragraph/><v:tabList/>Tools</text>				</g>
			</g>
			<g id="shape48-247" v:mID="48" v:groupContext="shape" transform="translate(87.63,-7.94732)">
				<title>Cloud.49</title>
				<v:userDefs>
					<v:ud v:nameU="visVersion" v:val="VT0(12):26"/>
				</v:userDefs>
				<path d="M0.49 763.81 a0.932251 0.70379 0 0 1 0.318044 -1.29384 a1.26708 0.956564 0 0 1 1.19995 -1.45081 A1.45493
							 1.09838 0 0 1 4.06 759.83 a0.992925 0.749595 0 0 1 1.79194 -0.644603 a1.09032 0.823126 0 0 1 1.91642
							 -0.429118 A2.15421 1.62629 0 0 1 10.77 758.48 a0.643597 0.485875 0 0 1 1.25813 0.0151463 a0.690408 0.467915
							 8.69 0 1 1.33457 -0.0184271 a0.650925 0.328254 4.68 0 1 1.1493 0.273755 a1.20997 0.614017 6.58 0 1 2.33891
							 0.432467 a0.689152 0.392241 158.55 0 1 0.832344 0.417505 a1.23682 0.933724 0 0 1 1.98192 1.01012 a1.35936
							 0.688258 5.89 0 1 0.798904 0.866876 a1.74777 0.87587 178.56 0 1 1.18255 1.44488 a1.0106 0.506117 0 0
							 1 0.148958 0.889018 a0.504393 0.380785 0 1 1 -0.0822565 0.661679 a1.08527 0.819308 0 0 1 -0.710822 1.35819
							 a0.715972 0.42876 179.22 1 1 -0.724916 0.724778 A1.45493 1.09838 0 0 1 18.22 767.8 a1.13764 0.569737
							 0 0 1 -1.79194 0.644603 a0.90447 0.682817 0 0 1 -1.73422 0.369459 a0.942068 0.545273 2.84 0 1 -1.7995
							 0.260831 a0.89197 0.446705 0 0 1 -1.75119 0.0725833 a1.14086 0.57135 0 0 1 -2.17253 -0.112132 a1.03148
							 0.524272 6.87 0 1 -1.82199 -0.554696 a0.896622 0.39057 6.16 1 1 -1.60441 -0.404991 a1.06684 0.805398
							 0 0 1 -1.50244 -0.928665 A1.45611 1.09927 0 0 1 2.26 767.15 A2.55004 1.28436 4.24 0 1 1.28 765.83 a1.00725
							 0.760409 0 0 1 -0.922021 -1.31354 a0.983379 0.499323 6.72 0 1 0.128943 -0.706322 Z" class="st4"/>
			</g>
			<g id="shape49-249" v:mID="49" v:groupContext="shape" transform="translate(110.13,-3.52821)">
				<title>Sheet.49</title>
				<desc>Decision Point Action</desc>
				<v:textBlock v:margins="rect(2,2,2,2)"/>
				<v:textRect cx="33.75" cy="761.593" width="67.51" height="15.8143"/>
				<rect x="0" y="753.686" width="67.5" height="15.8143" class="st26"/>
				<text x="2" y="759.19" class="st27" v:langID="1033"><v:paragraph/><v:tabList/>Decision Point <tspan x="2"
							dy="1.2em" class="st3">Action</tspan></text>			</g>
		</g>
	</g>
</svg>
