<svg width="450" height="210" viewBox="0 0 450 210" fill="none" xmlns="http://www.w3.org/2000/svg">
<rect width="450" height="210" fill="url(#paint0_linear_117_7)"/>
<g clip-path="url(#clip0_117_7)">
<rect width="439" height="205" transform="translate(5)" fill="white"/>
<rect x="5" y="155" width="439" height="60" fill="#F7F3F7"/>
<path d="M21.1016 71V62.5977H23.4219C26.3828 62.5977 27.8633 63.9629 27.8633 66.6934C27.8633 67.9902 27.4512 69.0332 26.627 69.8223C25.8066 70.6074 24.707 71 23.3281 71H21.1016ZM22.0859 63.4883V70.1094H23.3398C24.4414 70.1094 25.2988 69.8145 25.9121 69.2246C26.5254 68.6348 26.832 67.7988 26.832 66.7168C26.832 64.5645 25.6875 63.4883 23.3984 63.4883H22.0859Z" fill="black"/>
<path d="M31.8945 71.1406C31.0078 71.1406 30.2988 70.8613 29.7676 70.3027C29.2402 69.7402 28.9766 68.9961 28.9766 68.0703C28.9766 67.0625 29.252 66.2754 29.8027 65.709C30.3535 65.1426 31.0977 64.8594 32.0352 64.8594C32.9297 64.8594 33.627 65.1348 34.127 65.6855C34.6309 66.2363 34.8828 67 34.8828 67.9766C34.8828 68.9336 34.6113 69.7012 34.0684 70.2793C33.5293 70.8535 32.8047 71.1406 31.8945 71.1406ZM31.9648 65.668C31.3477 65.668 30.8594 65.8789 30.5 66.3008C30.1406 66.7188 29.9609 67.2969 29.9609 68.0352C29.9609 68.7461 30.1426 69.3066 30.5059 69.7168C30.8691 70.127 31.3555 70.332 31.9648 70.332C32.5859 70.332 33.0625 70.1309 33.3945 69.7285C33.7305 69.3262 33.8984 68.7539 33.8984 68.0117C33.8984 67.2617 33.7305 66.6836 33.3945 66.2773C33.0625 65.8711 32.5859 65.668 31.9648 65.668Z" fill="black"/>
<path d="M44.4863 65L41.7266 71.9609C41.2344 73.2031 40.543 73.8242 39.6523 73.8242C39.4023 73.8242 39.1934 73.7988 39.0254 73.748V72.8867C39.2324 72.957 39.4219 72.9922 39.5938 72.9922C40.0781 72.9922 40.4414 72.7031 40.6836 72.125L41.1641 70.9883L38.8203 65H39.8867L41.5098 69.6172C41.5293 69.6758 41.5703 69.8281 41.6328 70.0742H41.668C41.6875 69.9805 41.7266 69.832 41.7852 69.6289L43.4902 65H44.4863Z" fill="black"/>
<path d="M48.0312 71.1406C47.1445 71.1406 46.4355 70.8613 45.9043 70.3027C45.377 69.7402 45.1133 68.9961 45.1133 68.0703C45.1133 67.0625 45.3887 66.2754 45.9395 65.709C46.4902 65.1426 47.2344 64.8594 48.1719 64.8594C49.0664 64.8594 49.7637 65.1348 50.2637 65.6855C50.7676 66.2363 51.0195 67 51.0195 67.9766C51.0195 68.9336 50.748 69.7012 50.2051 70.2793C49.666 70.8535 48.9414 71.1406 48.0312 71.1406ZM48.1016 65.668C47.4844 65.668 46.9961 65.8789 46.6367 66.3008C46.2773 66.7188 46.0977 67.2969 46.0977 68.0352C46.0977 68.7461 46.2793 69.3066 46.6426 69.7168C47.0059 70.127 47.4922 70.332 48.1016 70.332C48.7227 70.332 49.1992 70.1309 49.5312 69.7285C49.8672 69.3262 50.0352 68.7539 50.0352 68.0117C50.0352 67.2617 49.8672 66.6836 49.5312 66.2773C49.1992 65.8711 48.7227 65.668 48.1016 65.668Z" fill="black"/>
<path d="M57.4062 71H56.4453V70.0508H56.4219C56.0234 70.7773 55.4062 71.1406 54.5703 71.1406C53.1406 71.1406 52.4258 70.2891 52.4258 68.5859V65H53.3809V68.4336C53.3809 69.6992 53.8652 70.332 54.834 70.332C55.3027 70.332 55.6875 70.1602 55.9883 69.8164C56.293 69.4688 56.4453 69.0156 56.4453 68.457V65H57.4062V71Z" fill="black"/>
<path d="M70.2031 65L68.4043 71H67.4082L66.1719 66.7051C66.125 66.541 66.0938 66.3555 66.0781 66.1484H66.0547C66.043 66.2891 66.002 66.4707 65.9316 66.6934L64.5898 71H63.6289L61.8125 65H62.8203L64.0625 69.5117C64.1016 69.6484 64.1289 69.8281 64.1445 70.0508H64.1914C64.2031 69.8789 64.2383 69.6953 64.2969 69.5L65.6797 65H66.5586L67.8008 69.5234C67.8398 69.668 67.8691 69.8477 67.8887 70.0625H67.9355C67.9434 69.9102 67.9766 69.7305 68.0352 69.5234L69.2539 65H70.2031Z" fill="black"/>
<path d="M75.6113 71H74.6504V70.0625H74.627C74.209 70.7812 73.5938 71.1406 72.7812 71.1406C72.1836 71.1406 71.7148 70.9824 71.375 70.666C71.0391 70.3496 70.8711 69.9297 70.8711 69.4062C70.8711 68.2852 71.5312 67.6328 72.8516 67.4492L74.6504 67.1973C74.6504 66.1777 74.2383 65.668 73.4141 65.668C72.6914 65.668 72.0391 65.9141 71.457 66.4062V65.4219C72.0469 65.0469 72.7266 64.8594 73.4961 64.8594C74.9062 64.8594 75.6113 65.6055 75.6113 67.0977V71ZM74.6504 67.9648L73.2031 68.1641C72.7578 68.2266 72.4219 68.3379 72.1953 68.498C71.9688 68.6543 71.8555 68.9336 71.8555 69.3359C71.8555 69.6289 71.959 69.8691 72.166 70.0566C72.377 70.2402 72.6562 70.332 73.0039 70.332C73.4805 70.332 73.873 70.166 74.1816 69.834C74.4941 69.498 74.6504 69.0742 74.6504 68.5625V67.9648Z" fill="black"/>
<path d="M82.4023 71H81.4414V67.5781C81.4414 66.3047 80.9766 65.668 80.0469 65.668C79.5664 65.668 79.168 65.8496 78.8516 66.2129C78.5391 66.5723 78.3828 67.0273 78.3828 67.5781V71H77.4219V65H78.3828V65.9961H78.4062C78.8594 65.2383 79.5156 64.8594 80.375 64.8594C81.0312 64.8594 81.5332 65.0723 81.8809 65.498C82.2285 65.9199 82.4023 66.5312 82.4023 67.332V71Z" fill="black"/>
<path d="M87.002 70.9414C86.7754 71.0664 86.4766 71.1289 86.1055 71.1289C85.0547 71.1289 84.5293 70.543 84.5293 69.3711V65.8203H83.498V65H84.5293V63.5352L85.4902 63.2246V65H87.002V65.8203H85.4902V69.2012C85.4902 69.6035 85.5586 69.8906 85.6953 70.0625C85.832 70.2344 86.0586 70.3203 86.375 70.3203C86.6172 70.3203 86.8262 70.2539 87.002 70.1211V70.9414Z" fill="black"/>
<path d="M94.3613 70.9414C94.1348 71.0664 93.8359 71.1289 93.4648 71.1289C92.4141 71.1289 91.8887 70.543 91.8887 69.3711V65.8203H90.8574V65H91.8887V63.5352L92.8496 63.2246V65H94.3613V65.8203H92.8496V69.2012C92.8496 69.6035 92.918 69.8906 93.0547 70.0625C93.1914 70.2344 93.418 70.3203 93.7344 70.3203C93.9766 70.3203 94.1855 70.2539 94.3613 70.1211V70.9414Z" fill="black"/>
<path d="M98.1523 71.1406C97.2656 71.1406 96.5566 70.8613 96.0254 70.3027C95.498 69.7402 95.2344 68.9961 95.2344 68.0703C95.2344 67.0625 95.5098 66.2754 96.0605 65.709C96.6113 65.1426 97.3555 64.8594 98.293 64.8594C99.1875 64.8594 99.8848 65.1348 100.385 65.6855C100.889 66.2363 101.141 67 101.141 67.9766C101.141 68.9336 100.869 69.7012 100.326 70.2793C99.7871 70.8535 99.0625 71.1406 98.1523 71.1406ZM98.2227 65.668C97.6055 65.668 97.1172 65.8789 96.7578 66.3008C96.3984 66.7188 96.2188 67.2969 96.2188 68.0352C96.2188 68.7461 96.4004 69.3066 96.7637 69.7168C97.127 70.127 97.6133 70.332 98.2227 70.332C98.8438 70.332 99.3203 70.1309 99.6523 69.7285C99.9883 69.3262 100.156 68.7539 100.156 68.0117C100.156 67.2617 99.9883 66.6836 99.6523 66.2773C99.3203 65.8711 98.8438 65.668 98.2227 65.668Z" fill="black"/>
<path d="M106.461 63.4766C106.289 63.4766 106.143 63.418 106.021 63.3008C105.9 63.1836 105.84 63.0352 105.84 62.8555C105.84 62.6758 105.9 62.5273 106.021 62.4102C106.143 62.2891 106.289 62.2285 106.461 62.2285C106.637 62.2285 106.785 62.2891 106.906 62.4102C107.031 62.5273 107.094 62.6758 107.094 62.8555C107.094 63.0273 107.031 63.1738 106.906 63.2949C106.785 63.416 106.637 63.4766 106.461 63.4766ZM106.93 71H105.969V65H106.93V71Z" fill="black"/>
<path d="M113.855 71H112.895V67.5781C112.895 66.3047 112.43 65.668 111.5 65.668C111.02 65.668 110.621 65.8496 110.305 66.2129C109.992 66.5723 109.836 67.0273 109.836 67.5781V71H108.875V65H109.836V65.9961H109.859C110.312 65.2383 110.969 64.8594 111.828 64.8594C112.484 64.8594 112.986 65.0723 113.334 65.498C113.682 65.9199 113.855 66.5312 113.855 67.332V71Z" fill="black"/>
<path d="M115.309 70.7832V69.752C115.832 70.1387 116.408 70.332 117.037 70.332C117.881 70.332 118.303 70.0508 118.303 69.4883C118.303 69.3281 118.266 69.1934 118.191 69.084C118.121 68.9707 118.023 68.8711 117.898 68.7852C117.777 68.6992 117.633 68.623 117.465 68.5566C117.301 68.4863 117.123 68.4141 116.932 68.3398C116.666 68.2344 116.432 68.1289 116.229 68.0234C116.029 67.9141 115.861 67.793 115.725 67.6602C115.592 67.5234 115.49 67.3691 115.42 67.1973C115.354 67.0254 115.32 66.8242 115.32 66.5938C115.32 66.3125 115.385 66.0645 115.514 65.8496C115.643 65.6309 115.814 65.4492 116.029 65.3047C116.244 65.1562 116.488 65.0449 116.762 64.9707C117.039 64.8965 117.324 64.8594 117.617 64.8594C118.137 64.8594 118.602 64.9492 119.012 65.1289V66.1016C118.57 65.8125 118.062 65.668 117.488 65.668C117.309 65.668 117.146 65.6895 117.002 65.7324C116.857 65.7715 116.732 65.8281 116.627 65.9023C116.525 65.9766 116.445 66.0664 116.387 66.1719C116.332 66.2734 116.305 66.3867 116.305 66.5117C116.305 66.668 116.332 66.7988 116.387 66.9043C116.445 67.0098 116.529 67.1035 116.639 67.1855C116.748 67.2676 116.881 67.3418 117.037 67.4082C117.193 67.4746 117.371 67.5469 117.57 67.625C117.836 67.7266 118.074 67.832 118.285 67.9414C118.496 68.0469 118.676 68.168 118.824 68.3047C118.973 68.4375 119.086 68.5918 119.164 68.7676C119.246 68.9434 119.287 69.1523 119.287 69.3945C119.287 69.6914 119.221 69.9492 119.088 70.168C118.959 70.3867 118.785 70.5684 118.566 70.7129C118.348 70.8574 118.096 70.9648 117.811 71.0352C117.525 71.1055 117.227 71.1406 116.914 71.1406C116.297 71.1406 115.762 71.0215 115.309 70.7832Z" fill="black"/>
<path d="M123.553 70.9414C123.326 71.0664 123.027 71.1289 122.656 71.1289C121.605 71.1289 121.08 70.543 121.08 69.3711V65.8203H120.049V65H121.08V63.5352L122.041 63.2246V65H123.553V65.8203H122.041V69.2012C122.041 69.6035 122.109 69.8906 122.246 70.0625C122.383 70.2344 122.609 70.3203 122.926 70.3203C123.168 70.3203 123.377 70.2539 123.553 70.1211V70.9414Z" fill="black"/>
<path d="M129.131 71H128.17V70.0625H128.146C127.729 70.7812 127.113 71.1406 126.301 71.1406C125.703 71.1406 125.234 70.9824 124.895 70.666C124.559 70.3496 124.391 69.9297 124.391 69.4062C124.391 68.2852 125.051 67.6328 126.371 67.4492L128.17 67.1973C128.17 66.1777 127.758 65.668 126.934 65.668C126.211 65.668 125.559 65.9141 124.977 66.4062V65.4219C125.566 65.0469 126.246 64.8594 127.016 64.8594C128.426 64.8594 129.131 65.6055 129.131 67.0977V71ZM128.17 67.9648L126.723 68.1641C126.277 68.2266 125.941 68.3379 125.715 68.498C125.488 68.6543 125.375 68.9336 125.375 69.3359C125.375 69.6289 125.479 69.8691 125.686 70.0566C125.896 70.2402 126.176 70.332 126.523 70.332C127 70.332 127.393 70.166 127.701 69.834C128.014 69.498 128.17 69.0742 128.17 68.5625V67.9648Z" fill="black"/>
<path d="M131.902 71H130.941V62.1172H131.902V71Z" fill="black"/>
<path d="M134.809 71H133.848V62.1172H134.809V71Z" fill="black"/>
<path d="M142.83 70.9414C142.604 71.0664 142.305 71.1289 141.934 71.1289C140.883 71.1289 140.357 70.543 140.357 69.3711V65.8203H139.326V65H140.357V63.5352L141.318 63.2246V65H142.83V65.8203H141.318V69.2012C141.318 69.6035 141.387 69.8906 141.523 70.0625C141.66 70.2344 141.887 70.3203 142.203 70.3203C142.445 70.3203 142.654 70.2539 142.83 70.1211V70.9414Z" fill="black"/>
<path d="M149.094 71H148.133V67.543C148.133 66.293 147.668 65.668 146.738 65.668C146.27 65.668 145.875 65.8496 145.555 66.2129C145.234 66.5723 145.074 67.0352 145.074 67.6016V71H144.113V62.1172H145.074V65.9961H145.098C145.559 65.2383 146.215 64.8594 147.066 64.8594C148.418 64.8594 149.094 65.6738 149.094 67.3027V71Z" fill="black"/>
<path d="M155.732 68.2402H151.496C151.512 68.9082 151.691 69.4238 152.035 69.7871C152.379 70.1504 152.852 70.332 153.453 70.332C154.129 70.332 154.75 70.1094 155.316 69.6641V70.5664C154.789 70.9492 154.092 71.1406 153.225 71.1406C152.377 71.1406 151.711 70.8691 151.227 70.3262C150.742 69.7793 150.5 69.0117 150.5 68.0234C150.5 67.0898 150.764 66.3301 151.291 65.7441C151.822 65.1543 152.48 64.8594 153.266 64.8594C154.051 64.8594 154.658 65.1133 155.088 65.6211C155.518 66.1289 155.732 66.834 155.732 67.7363V68.2402ZM154.748 67.4258C154.744 66.8711 154.609 66.4395 154.344 66.1309C154.082 65.8223 153.717 65.668 153.248 65.668C152.795 65.668 152.41 65.8301 152.094 66.1543C151.777 66.4785 151.582 66.9023 151.508 67.4258H154.748Z" fill="black"/>
<path d="M163.449 62.9609C163.262 62.8555 163.049 62.8027 162.811 62.8027C162.139 62.8027 161.803 63.2266 161.803 64.0742V65H163.209V65.8203H161.803V71H160.848V65.8203H159.822V65H160.848V64.0273C160.848 63.3984 161.029 62.9023 161.393 62.5391C161.756 62.1719 162.209 61.9883 162.752 61.9883C163.045 61.9883 163.277 62.0234 163.449 62.0938V62.9609Z" fill="black"/>
<path d="M166.754 71.1406C165.867 71.1406 165.158 70.8613 164.627 70.3027C164.1 69.7402 163.836 68.9961 163.836 68.0703C163.836 67.0625 164.111 66.2754 164.662 65.709C165.213 65.1426 165.957 64.8594 166.895 64.8594C167.789 64.8594 168.486 65.1348 168.986 65.6855C169.49 66.2363 169.742 67 169.742 67.9766C169.742 68.9336 169.471 69.7012 168.928 70.2793C168.389 70.8535 167.664 71.1406 166.754 71.1406ZM166.824 65.668C166.207 65.668 165.719 65.8789 165.359 66.3008C165 66.7188 164.82 67.2969 164.82 68.0352C164.82 68.7461 165.002 69.3066 165.365 69.7168C165.729 70.127 166.215 70.332 166.824 70.332C167.445 70.332 167.922 70.1309 168.254 69.7285C168.59 69.3262 168.758 68.7539 168.758 68.0117C168.758 67.2617 168.59 66.6836 168.254 66.2773C167.922 65.8711 167.445 65.668 166.824 65.668Z" fill="black"/>
<path d="M172.238 71H171.277V62.1172H172.238V71Z" fill="black"/>
<path d="M175.145 71H174.184V62.1172H175.145V71Z" fill="black"/>
<path d="M179.598 71.1406C178.711 71.1406 178.002 70.8613 177.471 70.3027C176.943 69.7402 176.68 68.9961 176.68 68.0703C176.68 67.0625 176.955 66.2754 177.506 65.709C178.057 65.1426 178.801 64.8594 179.738 64.8594C180.633 64.8594 181.33 65.1348 181.83 65.6855C182.334 66.2363 182.586 67 182.586 67.9766C182.586 68.9336 182.314 69.7012 181.771 70.2793C181.232 70.8535 180.508 71.1406 179.598 71.1406ZM179.668 65.668C179.051 65.668 178.562 65.8789 178.203 66.3008C177.844 66.7188 177.664 67.2969 177.664 68.0352C177.664 68.7461 177.846 69.3066 178.209 69.7168C178.572 70.127 179.059 70.332 179.668 70.332C180.289 70.332 180.766 70.1309 181.098 69.7285C181.434 69.3262 181.602 68.7539 181.602 68.0117C181.602 67.2617 181.434 66.6836 181.098 66.2773C180.766 65.8711 180.289 65.668 179.668 65.668Z" fill="black"/>
<path d="M191.68 65L189.881 71H188.885L187.648 66.7051C187.602 66.541 187.57 66.3555 187.555 66.1484H187.531C187.52 66.2891 187.479 66.4707 187.408 66.6934L186.066 71H185.105L183.289 65H184.297L185.539 69.5117C185.578 69.6484 185.605 69.8281 185.621 70.0508H185.668C185.68 69.8789 185.715 69.6953 185.773 69.5L187.156 65H188.035L189.277 69.5234C189.316 69.668 189.346 69.8477 189.365 70.0625H189.412C189.42 69.9102 189.453 69.7305 189.512 69.5234L190.73 65H191.68Z" fill="black"/>
<path d="M193.285 63.4766C193.113 63.4766 192.967 63.418 192.846 63.3008C192.725 63.1836 192.664 63.0352 192.664 62.8555C192.664 62.6758 192.725 62.5273 192.846 62.4102C192.967 62.2891 193.113 62.2285 193.285 62.2285C193.461 62.2285 193.609 62.2891 193.73 62.4102C193.855 62.5273 193.918 62.6758 193.918 62.8555C193.918 63.0273 193.855 63.1738 193.73 63.2949C193.609 63.416 193.461 63.4766 193.285 63.4766ZM193.754 71H192.793V65H193.754V71Z" fill="black"/>
<path d="M200.68 71H199.719V67.5781C199.719 66.3047 199.254 65.668 198.324 65.668C197.844 65.668 197.445 65.8496 197.129 66.2129C196.816 66.5723 196.66 67.0273 196.66 67.5781V71H195.699V65H196.66V65.9961H196.684C197.137 65.2383 197.793 64.8594 198.652 64.8594C199.309 64.8594 199.811 65.0723 200.158 65.498C200.506 65.9199 200.68 66.5312 200.68 67.332V71Z" fill="black"/>
<path d="M207.617 70.5195C207.617 72.7227 206.562 73.8242 204.453 73.8242C203.711 73.8242 203.062 73.6836 202.508 73.4023V72.4414C203.184 72.8164 203.828 73.0039 204.441 73.0039C205.918 73.0039 206.656 72.2188 206.656 70.6484V69.9922H206.633C206.176 70.7578 205.488 71.1406 204.57 71.1406C203.824 71.1406 203.223 70.875 202.766 70.3438C202.312 69.8086 202.086 69.0918 202.086 68.1934C202.086 67.1738 202.33 66.3633 202.818 65.7617C203.311 65.1602 203.982 64.8594 204.834 64.8594C205.643 64.8594 206.242 65.1836 206.633 65.832H206.656V65H207.617V70.5195ZM206.656 68.2871V67.4023C206.656 66.9258 206.494 66.5176 206.17 66.1777C205.85 65.8379 205.449 65.668 204.969 65.668C204.375 65.668 203.91 65.8848 203.574 66.3184C203.238 66.748 203.07 67.3516 203.07 68.1289C203.07 68.7969 203.23 69.332 203.551 69.7344C203.875 70.1328 204.303 70.332 204.834 70.332C205.373 70.332 205.811 70.1406 206.146 69.7578C206.486 69.375 206.656 68.8848 206.656 68.2871Z" fill="black"/>
<path d="M222.945 62.5977L220.572 71H219.418L217.689 64.8594C217.615 64.5977 217.57 64.3125 217.555 64.0039H217.531C217.508 64.293 217.457 64.5742 217.379 64.8477L215.639 71H214.496L212.035 62.5977H213.119L214.906 69.043C214.98 69.3125 215.027 69.5938 215.047 69.8867H215.076C215.096 69.6797 215.156 69.3984 215.258 69.043L217.115 62.5977H218.059L219.84 69.0898C219.902 69.3125 219.949 69.5742 219.98 69.875H220.004C220.02 69.6719 220.072 69.4023 220.162 69.0664L221.879 62.5977H222.945Z" fill="black"/>
<path d="M224.562 63.4766C224.391 63.4766 224.244 63.418 224.123 63.3008C224.002 63.1836 223.941 63.0352 223.941 62.8555C223.941 62.6758 224.002 62.5273 224.123 62.4102C224.244 62.2891 224.391 62.2285 224.562 62.2285C224.738 62.2285 224.887 62.2891 225.008 62.4102C225.133 62.5273 225.195 62.6758 225.195 62.8555C225.195 63.0273 225.133 63.1738 225.008 63.2949C224.887 63.416 224.738 63.4766 224.562 63.4766ZM225.031 71H224.07V65H225.031V71Z" fill="black"/>
<path d="M231.957 71H230.996V67.5781C230.996 66.3047 230.531 65.668 229.602 65.668C229.121 65.668 228.723 65.8496 228.406 66.2129C228.094 66.5723 227.938 67.0273 227.938 67.5781V71H226.977V65H227.938V65.9961H227.961C228.414 65.2383 229.07 64.8594 229.93 64.8594C230.586 64.8594 231.088 65.0723 231.436 65.498C231.783 65.9199 231.957 66.5312 231.957 67.332V71Z" fill="black"/>
<path d="M238.895 71H237.934V69.9805H237.91C237.465 70.7539 236.777 71.1406 235.848 71.1406C235.094 71.1406 234.49 70.873 234.037 70.3379C233.588 69.7988 233.363 69.0664 233.363 68.1406C233.363 67.1484 233.613 66.3535 234.113 65.7559C234.613 65.1582 235.279 64.8594 236.111 64.8594C236.936 64.8594 237.535 65.1836 237.91 65.832H237.934V62.1172H238.895V71ZM237.934 68.2871V67.4023C237.934 66.918 237.773 66.5078 237.453 66.1719C237.133 65.8359 236.727 65.668 236.234 65.668C235.648 65.668 235.188 65.8828 234.852 66.3125C234.516 66.7422 234.348 67.3359 234.348 68.0938C234.348 68.7852 234.508 69.332 234.828 69.7344C235.152 70.1328 235.586 70.332 236.129 70.332C236.664 70.332 237.098 70.1387 237.43 69.752C237.766 69.3652 237.934 68.877 237.934 68.2871Z" fill="black"/>
<path d="M243.348 71.1406C242.461 71.1406 241.752 70.8613 241.221 70.3027C240.693 69.7402 240.43 68.9961 240.43 68.0703C240.43 67.0625 240.705 66.2754 241.256 65.709C241.807 65.1426 242.551 64.8594 243.488 64.8594C244.383 64.8594 245.08 65.1348 245.58 65.6855C246.084 66.2363 246.336 67 246.336 67.9766C246.336 68.9336 246.064 69.7012 245.521 70.2793C244.982 70.8535 244.258 71.1406 243.348 71.1406ZM243.418 65.668C242.801 65.668 242.312 65.8789 241.953 66.3008C241.594 66.7188 241.414 67.2969 241.414 68.0352C241.414 68.7461 241.596 69.3066 241.959 69.7168C242.322 70.127 242.809 70.332 243.418 70.332C244.039 70.332 244.516 70.1309 244.848 69.7285C245.184 69.3262 245.352 68.7539 245.352 68.0117C245.352 67.2617 245.184 66.6836 244.848 66.2773C244.516 65.8711 244.039 65.668 243.418 65.668Z" fill="black"/>
<path d="M255.43 65L253.631 71H252.635L251.398 66.7051C251.352 66.541 251.32 66.3555 251.305 66.1484H251.281C251.27 66.2891 251.229 66.4707 251.158 66.6934L249.816 71H248.855L247.039 65H248.047L249.289 69.5117C249.328 69.6484 249.355 69.8281 249.371 70.0508H249.418C249.43 69.8789 249.465 69.6953 249.523 69.5L250.906 65H251.785L253.027 69.5234C253.066 69.668 253.096 69.8477 253.115 70.0625H253.162C253.17 69.9102 253.203 69.7305 253.262 69.5234L254.48 65H255.43Z" fill="black"/>
<path d="M256.18 70.7832V69.752C256.703 70.1387 257.279 70.332 257.908 70.332C258.752 70.332 259.174 70.0508 259.174 69.4883C259.174 69.3281 259.137 69.1934 259.062 69.084C258.992 68.9707 258.895 68.8711 258.77 68.7852C258.648 68.6992 258.504 68.623 258.336 68.5566C258.172 68.4863 257.994 68.4141 257.803 68.3398C257.537 68.2344 257.303 68.1289 257.1 68.0234C256.9 67.9141 256.732 67.793 256.596 67.6602C256.463 67.5234 256.361 67.3691 256.291 67.1973C256.225 67.0254 256.191 66.8242 256.191 66.5938C256.191 66.3125 256.256 66.0645 256.385 65.8496C256.514 65.6309 256.686 65.4492 256.9 65.3047C257.115 65.1562 257.359 65.0449 257.633 64.9707C257.91 64.8965 258.195 64.8594 258.488 64.8594C259.008 64.8594 259.473 64.9492 259.883 65.1289V66.1016C259.441 65.8125 258.934 65.668 258.359 65.668C258.18 65.668 258.018 65.6895 257.873 65.7324C257.729 65.7715 257.604 65.8281 257.498 65.9023C257.396 65.9766 257.316 66.0664 257.258 66.1719C257.203 66.2734 257.176 66.3867 257.176 66.5117C257.176 66.668 257.203 66.7988 257.258 66.9043C257.316 67.0098 257.4 67.1035 257.51 67.1855C257.619 67.2676 257.752 67.3418 257.908 67.4082C258.064 67.4746 258.242 67.5469 258.441 67.625C258.707 67.7266 258.945 67.832 259.156 67.9414C259.367 68.0469 259.547 68.168 259.695 68.3047C259.844 68.4375 259.957 68.5918 260.035 68.7676C260.117 68.9434 260.158 69.1523 260.158 69.3945C260.158 69.6914 260.092 69.9492 259.959 70.168C259.83 70.3867 259.656 70.5684 259.438 70.7129C259.219 70.8574 258.967 70.9648 258.682 71.0352C258.396 71.1055 258.098 71.1406 257.785 71.1406C257.168 71.1406 256.633 71.0215 256.18 70.7832Z" fill="black"/>
<path d="M264.57 70.7832V69.752C265.094 70.1387 265.67 70.332 266.299 70.332C267.143 70.332 267.564 70.0508 267.564 69.4883C267.564 69.3281 267.527 69.1934 267.453 69.084C267.383 68.9707 267.285 68.8711 267.16 68.7852C267.039 68.6992 266.895 68.623 266.727 68.5566C266.562 68.4863 266.385 68.4141 266.193 68.3398C265.928 68.2344 265.693 68.1289 265.49 68.0234C265.291 67.9141 265.123 67.793 264.986 67.6602C264.854 67.5234 264.752 67.3691 264.682 67.1973C264.615 67.0254 264.582 66.8242 264.582 66.5938C264.582 66.3125 264.646 66.0645 264.775 65.8496C264.904 65.6309 265.076 65.4492 265.291 65.3047C265.506 65.1562 265.75 65.0449 266.023 64.9707C266.301 64.8965 266.586 64.8594 266.879 64.8594C267.398 64.8594 267.863 64.9492 268.273 65.1289V66.1016C267.832 65.8125 267.324 65.668 266.75 65.668C266.57 65.668 266.408 65.6895 266.264 65.7324C266.119 65.7715 265.994 65.8281 265.889 65.9023C265.787 65.9766 265.707 66.0664 265.648 66.1719C265.594 66.2734 265.566 66.3867 265.566 66.5117C265.566 66.668 265.594 66.7988 265.648 66.9043C265.707 67.0098 265.791 67.1035 265.9 67.1855C266.01 67.2676 266.143 67.3418 266.299 67.4082C266.455 67.4746 266.633 67.5469 266.832 67.625C267.098 67.7266 267.336 67.832 267.547 67.9414C267.758 68.0469 267.938 68.168 268.086 68.3047C268.234 68.4375 268.348 68.5918 268.426 68.7676C268.508 68.9434 268.549 69.1523 268.549 69.3945C268.549 69.6914 268.482 69.9492 268.35 70.168C268.221 70.3867 268.047 70.5684 267.828 70.7129C267.609 70.8574 267.357 70.9648 267.072 71.0352C266.787 71.1055 266.488 71.1406 266.176 71.1406C265.559 71.1406 265.023 71.0215 264.57 70.7832Z" fill="black"/>
<path d="M272.539 71.1406C271.652 71.1406 270.943 70.8613 270.412 70.3027C269.885 69.7402 269.621 68.9961 269.621 68.0703C269.621 67.0625 269.896 66.2754 270.447 65.709C270.998 65.1426 271.742 64.8594 272.68 64.8594C273.574 64.8594 274.271 65.1348 274.771 65.6855C275.275 66.2363 275.527 67 275.527 67.9766C275.527 68.9336 275.256 69.7012 274.713 70.2793C274.174 70.8535 273.449 71.1406 272.539 71.1406ZM272.609 65.668C271.992 65.668 271.504 65.8789 271.145 66.3008C270.785 66.7188 270.605 67.2969 270.605 68.0352C270.605 68.7461 270.787 69.3066 271.15 69.7168C271.514 70.127 272 70.332 272.609 70.332C273.23 70.332 273.707 70.1309 274.039 69.7285C274.375 69.3262 274.543 68.7539 274.543 68.0117C274.543 67.2617 274.375 66.6836 274.039 66.2773C273.707 65.8711 273.23 65.668 272.609 65.668Z" fill="black"/>
<path d="M280.027 62.9609C279.84 62.8555 279.627 62.8027 279.389 62.8027C278.717 62.8027 278.381 63.2266 278.381 64.0742V65H279.787V65.8203H278.381V71H277.426V65.8203H276.4V65H277.426V64.0273C277.426 63.3984 277.607 62.9023 277.971 62.5391C278.334 62.1719 278.787 61.9883 279.33 61.9883C279.623 61.9883 279.855 62.0234 280.027 62.0938V62.9609Z" fill="black"/>
<path d="M283.607 70.9414C283.381 71.0664 283.082 71.1289 282.711 71.1289C281.66 71.1289 281.135 70.543 281.135 69.3711V65.8203H280.104V65H281.135V63.5352L282.096 63.2246V65H283.607V65.8203H282.096V69.2012C282.096 69.6035 282.164 69.8906 282.301 70.0625C282.438 70.2344 282.664 70.3203 282.98 70.3203C283.223 70.3203 283.432 70.2539 283.607 70.1211V70.9414Z" fill="black"/>
<path d="M292.449 65L290.65 71H289.654L288.418 66.7051C288.371 66.541 288.34 66.3555 288.324 66.1484H288.301C288.289 66.2891 288.248 66.4707 288.178 66.6934L286.836 71H285.875L284.059 65H285.066L286.309 69.5117C286.348 69.6484 286.375 69.8281 286.391 70.0508H286.438C286.449 69.8789 286.484 69.6953 286.543 69.5L287.926 65H288.805L290.047 69.5234C290.086 69.668 290.115 69.8477 290.135 70.0625H290.182C290.189 69.9102 290.223 69.7305 290.281 69.5234L291.5 65H292.449Z" fill="black"/>
<path d="M297.857 71H296.896V70.0625H296.873C296.455 70.7812 295.84 71.1406 295.027 71.1406C294.43 71.1406 293.961 70.9824 293.621 70.666C293.285 70.3496 293.117 69.9297 293.117 69.4062C293.117 68.2852 293.777 67.6328 295.098 67.4492L296.896 67.1973C296.896 66.1777 296.484 65.668 295.66 65.668C294.938 65.668 294.285 65.9141 293.703 66.4062V65.4219C294.293 65.0469 294.973 64.8594 295.742 64.8594C297.152 64.8594 297.857 65.6055 297.857 67.0977V71ZM296.896 67.9648L295.449 68.1641C295.004 68.2266 294.668 68.3379 294.441 68.498C294.215 68.6543 294.102 68.9336 294.102 69.3359C294.102 69.6289 294.205 69.8691 294.412 70.0566C294.623 70.2402 294.902 70.332 295.25 70.332C295.727 70.332 296.119 70.166 296.428 69.834C296.74 69.498 296.896 69.0742 296.896 68.5625V67.9648Z" fill="black"/>
<path d="M302.797 65.9727C302.629 65.8438 302.387 65.7793 302.07 65.7793C301.66 65.7793 301.316 65.9727 301.039 66.3594C300.766 66.7461 300.629 67.2734 300.629 67.9414V71H299.668V65H300.629V66.2363H300.652C300.789 65.8145 300.998 65.4863 301.279 65.252C301.561 65.0137 301.875 64.8945 302.223 64.8945C302.473 64.8945 302.664 64.9219 302.797 64.9766V65.9727Z" fill="black"/>
<path d="M308.662 68.2402H304.426C304.441 68.9082 304.621 69.4238 304.965 69.7871C305.309 70.1504 305.781 70.332 306.383 70.332C307.059 70.332 307.68 70.1094 308.246 69.6641V70.5664C307.719 70.9492 307.021 71.1406 306.154 71.1406C305.307 71.1406 304.641 70.8691 304.156 70.3262C303.672 69.7793 303.43 69.0117 303.43 68.0234C303.43 67.0898 303.693 66.3301 304.221 65.7441C304.752 65.1543 305.41 64.8594 306.195 64.8594C306.98 64.8594 307.588 65.1133 308.018 65.6211C308.447 66.1289 308.662 66.834 308.662 67.7363V68.2402ZM307.678 67.4258C307.674 66.8711 307.539 66.4395 307.273 66.1309C307.012 65.8223 306.646 65.668 306.178 65.668C305.725 65.668 305.34 65.8301 305.023 66.1543C304.707 66.4785 304.512 66.9023 304.438 67.4258H307.678Z" fill="black"/>
<path d="M318.266 71H317.305V70.0508H317.281C316.883 70.7773 316.266 71.1406 315.43 71.1406C314 71.1406 313.285 70.2891 313.285 68.5859V65H314.24V68.4336C314.24 69.6992 314.725 70.332 315.693 70.332C316.162 70.332 316.547 70.1602 316.848 69.8164C317.152 69.4688 317.305 69.0156 317.305 68.457V65H318.266V71Z" fill="black"/>
<path d="M321.195 70.1328H321.172V73.7598H320.211V65H321.172V66.0547H321.195C321.668 65.2578 322.359 64.8594 323.27 64.8594C324.043 64.8594 324.646 65.1289 325.08 65.668C325.514 66.2031 325.73 66.9219 325.73 67.8242C325.73 68.8281 325.486 69.6328 324.998 70.2383C324.51 70.8398 323.842 71.1406 322.994 71.1406C322.217 71.1406 321.617 70.8047 321.195 70.1328ZM321.172 67.7129V68.5508C321.172 69.0469 321.332 69.4688 321.652 69.8164C321.977 70.1602 322.387 70.332 322.883 70.332C323.465 70.332 323.92 70.1094 324.248 69.6641C324.58 69.2188 324.746 68.5996 324.746 67.8066C324.746 67.1387 324.592 66.6152 324.283 66.2363C323.975 65.8574 323.557 65.668 323.029 65.668C322.471 65.668 322.021 65.8633 321.682 66.2539C321.342 66.6406 321.172 67.127 321.172 67.7129Z" fill="black"/>
<path d="M332.387 71H331.426V69.9805H331.402C330.957 70.7539 330.27 71.1406 329.34 71.1406C328.586 71.1406 327.982 70.873 327.529 70.3379C327.08 69.7988 326.855 69.0664 326.855 68.1406C326.855 67.1484 327.105 66.3535 327.605 65.7559C328.105 65.1582 328.771 64.8594 329.604 64.8594C330.428 64.8594 331.027 65.1836 331.402 65.832H331.426V62.1172H332.387V71ZM331.426 68.2871V67.4023C331.426 66.918 331.266 66.5078 330.945 66.1719C330.625 65.8359 330.219 65.668 329.727 65.668C329.141 65.668 328.68 65.8828 328.344 66.3125C328.008 66.7422 327.84 67.3359 327.84 68.0938C327.84 68.7852 328 69.332 328.32 69.7344C328.645 70.1328 329.078 70.332 329.621 70.332C330.156 70.332 330.59 70.1387 330.922 69.752C331.258 69.3652 331.426 68.877 331.426 68.2871Z" fill="black"/>
<path d="M338.627 71H337.666V70.0625H337.643C337.225 70.7812 336.609 71.1406 335.797 71.1406C335.199 71.1406 334.73 70.9824 334.391 70.666C334.055 70.3496 333.887 69.9297 333.887 69.4062C333.887 68.2852 334.547 67.6328 335.867 67.4492L337.666 67.1973C337.666 66.1777 337.254 65.668 336.43 65.668C335.707 65.668 335.055 65.9141 334.473 66.4062V65.4219C335.062 65.0469 335.742 64.8594 336.512 64.8594C337.922 64.8594 338.627 65.6055 338.627 67.0977V71ZM337.666 67.9648L336.219 68.1641C335.773 68.2266 335.438 68.3379 335.211 68.498C334.984 68.6543 334.871 68.9336 334.871 69.3359C334.871 69.6289 334.975 69.8691 335.182 70.0566C335.393 70.2402 335.672 70.332 336.02 70.332C336.496 70.332 336.889 70.166 337.197 69.834C337.51 69.498 337.666 69.0742 337.666 68.5625V67.9648Z" fill="black"/>
<path d="M343.221 70.9414C342.994 71.0664 342.695 71.1289 342.324 71.1289C341.273 71.1289 340.748 70.543 340.748 69.3711V65.8203H339.717V65H340.748V63.5352L341.709 63.2246V65H343.221V65.8203H341.709V69.2012C341.709 69.6035 341.777 69.8906 341.914 70.0625C342.051 70.2344 342.277 70.3203 342.594 70.3203C342.836 70.3203 343.045 70.2539 343.221 70.1211V70.9414Z" fill="black"/>
<path d="M349.326 68.2402H345.09C345.105 68.9082 345.285 69.4238 345.629 69.7871C345.973 70.1504 346.445 70.332 347.047 70.332C347.723 70.332 348.344 70.1094 348.91 69.6641V70.5664C348.383 70.9492 347.686 71.1406 346.818 71.1406C345.971 71.1406 345.305 70.8691 344.82 70.3262C344.336 69.7793 344.094 69.0117 344.094 68.0234C344.094 67.0898 344.357 66.3301 344.885 65.7441C345.416 65.1543 346.074 64.8594 346.859 64.8594C347.645 64.8594 348.252 65.1133 348.682 65.6211C349.111 66.1289 349.326 66.834 349.326 67.7363V68.2402ZM348.342 67.4258C348.338 66.8711 348.203 66.4395 347.938 66.1309C347.676 65.8223 347.311 65.668 346.842 65.668C346.389 65.668 346.004 65.8301 345.688 66.1543C345.371 66.4785 345.176 66.9023 345.102 67.4258H348.342Z" fill="black"/>
<path d="M351.775 68.668C351.74 68.5664 351.709 68.4355 351.682 68.2754C351.654 68.1113 351.641 67.9492 351.641 67.7891C351.641 67.5391 351.689 67.3145 351.787 67.1152C351.889 66.9121 352.014 66.7227 352.162 66.5469C352.311 66.3711 352.473 66.2031 352.648 66.043C352.824 65.8789 352.986 65.7148 353.135 65.5508C353.283 65.3828 353.406 65.209 353.504 65.0293C353.605 64.8457 353.656 64.6445 353.656 64.4258C353.656 64.2383 353.619 64.0723 353.545 63.9277C353.475 63.7832 353.377 63.6621 353.252 63.5645C353.127 63.4668 352.982 63.3945 352.818 63.3477C352.654 63.2969 352.48 63.2715 352.297 63.2715C351.637 63.2715 351.064 63.5312 350.58 64.0508V63.0195C351.178 62.6445 351.797 62.457 352.438 62.457C352.734 62.457 353.014 62.4961 353.275 62.5742C353.537 62.6523 353.766 62.7695 353.961 62.9258C354.16 63.0781 354.316 63.2695 354.43 63.5C354.543 63.7305 354.6 63.998 354.6 64.3027C354.6 64.5918 354.549 64.8496 354.447 65.0762C354.346 65.3027 354.217 65.5117 354.061 65.7031C353.908 65.8906 353.742 66.0664 353.562 66.2305C353.383 66.3945 353.215 66.5586 353.059 66.7227C352.906 66.8828 352.779 67.0508 352.678 67.2266C352.576 67.4023 352.525 67.5957 352.525 67.8066C352.525 67.9863 352.547 68.1504 352.59 68.2988C352.633 68.4434 352.676 68.5664 352.719 68.668H351.775ZM352.303 71.1055C352.131 71.1055 351.979 71.043 351.846 70.918C351.717 70.793 351.652 70.6406 351.652 70.4609C351.652 70.2773 351.717 70.125 351.846 70.0039C351.975 69.875 352.127 69.8105 352.303 69.8105C352.479 69.8105 352.631 69.875 352.76 70.0039C352.889 70.125 352.953 70.2773 352.953 70.4609C352.953 70.6406 352.889 70.793 352.76 70.918C352.627 71.043 352.475 71.1055 352.303 71.1055Z" fill="black"/>
<path d="M38.418 104H37.4336V100.168H33.0859V104H32.1016V95.5977H33.0859V99.2832H37.4336V95.5977H38.418V104Z" fill="black"/>
<path d="M43 104.141C42.1133 104.141 41.4043 103.861 40.873 103.303C40.3457 102.74 40.082 101.996 40.082 101.07C40.082 100.062 40.3574 99.2754 40.9082 98.709C41.459 98.1426 42.2031 97.8594 43.1406 97.8594C44.0352 97.8594 44.7324 98.1348 45.2324 98.6855C45.7363 99.2363 45.9883 100 45.9883 100.977C45.9883 101.934 45.7168 102.701 45.1738 103.279C44.6348 103.854 43.9102 104.141 43 104.141ZM43.0703 98.668C42.4531 98.668 41.9648 98.8789 41.6055 99.3008C41.2461 99.7188 41.0664 100.297 41.0664 101.035C41.0664 101.746 41.248 102.307 41.6113 102.717C41.9746 103.127 42.4609 103.332 43.0703 103.332C43.6914 103.332 44.168 103.131 44.5 102.729C44.8359 102.326 45.0039 101.754 45.0039 101.012C45.0039 100.262 44.8359 99.6836 44.5 99.2773C44.168 98.8711 43.6914 98.668 43.0703 98.668Z" fill="black"/>
<path d="M50.3066 103.941C50.0801 104.066 49.7812 104.129 49.4102 104.129C48.3594 104.129 47.834 103.543 47.834 102.371V98.8203H46.8027V98H47.834V96.5352L48.7949 96.2246V98H50.3066V98.8203H48.7949V102.201C48.7949 102.604 48.8633 102.891 49 103.062C49.1367 103.234 49.3633 103.32 49.6797 103.32C49.9219 103.32 50.1309 103.254 50.3066 103.121V103.941Z" fill="black"/>
<path d="M54.5547 95.9609C54.3672 95.8555 54.1543 95.8027 53.916 95.8027C53.2441 95.8027 52.9082 96.2266 52.9082 97.0742V98H54.3145V98.8203H52.9082V104H51.9531V98.8203H50.9277V98H51.9531V97.0273C51.9531 96.3984 52.1348 95.9023 52.498 95.5391C52.8613 95.1719 53.3145 94.9883 53.8574 94.9883C54.1504 94.9883 54.3828 95.0234 54.5547 95.0938V95.9609Z" fill="black"/>
<path d="M55.8438 96.4766C55.6719 96.4766 55.5254 96.418 55.4043 96.3008C55.2832 96.1836 55.2227 96.0352 55.2227 95.8555C55.2227 95.6758 55.2832 95.5273 55.4043 95.4102C55.5254 95.2891 55.6719 95.2285 55.8438 95.2285C56.0195 95.2285 56.168 95.2891 56.2891 95.4102C56.4141 95.5273 56.4766 95.6758 56.4766 95.8555C56.4766 96.0273 56.4141 96.1738 56.2891 96.2949C56.168 96.416 56.0195 96.4766 55.8438 96.4766ZM56.3125 104H55.3516V98H56.3125V104Z" fill="black"/>
<path d="M62.6406 98L60.625 101.035L62.6055 104H61.4863L60.3086 102.055C60.2344 101.934 60.1465 101.781 60.0449 101.598H60.0215C60.002 101.633 59.9102 101.785 59.7461 102.055L58.5449 104H57.4375L59.4824 101.059L57.5254 98H58.6445L59.8047 100.051C59.8906 100.203 59.9746 100.359 60.0566 100.52H60.0801L61.5801 98H62.6406Z" fill="black"/>
<path d="M70.0234 95.9609C69.8359 95.8555 69.623 95.8027 69.3848 95.8027C68.7129 95.8027 68.377 96.2266 68.377 97.0742V98H69.7832V98.8203H68.377V104H67.4219V98.8203H66.3965V98H67.4219V97.0273C67.4219 96.3984 67.6035 95.9023 67.9668 95.5391C68.3301 95.1719 68.7832 94.9883 69.3262 94.9883C69.6191 94.9883 69.8516 95.0234 70.0234 95.0938V95.9609Z" fill="black"/>
<path d="M73.3281 104.141C72.4414 104.141 71.7324 103.861 71.2012 103.303C70.6738 102.74 70.4102 101.996 70.4102 101.07C70.4102 100.062 70.6855 99.2754 71.2363 98.709C71.7871 98.1426 72.5312 97.8594 73.4688 97.8594C74.3633 97.8594 75.0605 98.1348 75.5605 98.6855C76.0645 99.2363 76.3164 100 76.3164 100.977C76.3164 101.934 76.0449 102.701 75.502 103.279C74.9629 103.854 74.2383 104.141 73.3281 104.141ZM73.3984 98.668C72.7812 98.668 72.293 98.8789 71.9336 99.3008C71.5742 99.7188 71.3945 100.297 71.3945 101.035C71.3945 101.746 71.5762 102.307 71.9395 102.717C72.3027 103.127 72.7891 103.332 73.3984 103.332C74.0195 103.332 74.4961 103.131 74.8281 102.729C75.1641 102.326 75.332 101.754 75.332 101.012C75.332 100.262 75.1641 99.6836 74.8281 99.2773C74.4961 98.8711 74.0195 98.668 73.3984 98.668Z" fill="black"/>
<path d="M80.9805 98.9727C80.8125 98.8438 80.5703 98.7793 80.2539 98.7793C79.8438 98.7793 79.5 98.9727 79.2227 99.3594C78.9492 99.7461 78.8125 100.273 78.8125 100.941V104H77.8516V98H78.8125V99.2363H78.8359C78.9727 98.8145 79.1816 98.4863 79.4629 98.252C79.7441 98.0137 80.0586 97.8945 80.4062 97.8945C80.6562 97.8945 80.8477 97.9219 80.9805 97.9766V98.9727Z" fill="black"/>
<path d="M95.4062 95.5977L93.0332 104H91.8789L90.1504 97.8594C90.0762 97.5977 90.0312 97.3125 90.0156 97.0039H89.9922C89.9688 97.293 89.918 97.5742 89.8398 97.8477L88.0996 104H86.957L84.4961 95.5977H85.5801L87.3672 102.043C87.4414 102.312 87.4883 102.594 87.5078 102.887H87.5371C87.5566 102.68 87.6172 102.398 87.7188 102.043L89.5762 95.5977H90.5195L92.3008 102.09C92.3633 102.312 92.4102 102.574 92.4414 102.875H92.4648C92.4805 102.672 92.5332 102.402 92.623 102.066L94.3398 95.5977H95.4062Z" fill="black"/>
<path d="M97.0234 96.4766C96.8516 96.4766 96.7051 96.418 96.584 96.3008C96.4629 96.1836 96.4023 96.0352 96.4023 95.8555C96.4023 95.6758 96.4629 95.5273 96.584 95.4102C96.7051 95.2891 96.8516 95.2285 97.0234 95.2285C97.1992 95.2285 97.3477 95.2891 97.4688 95.4102C97.5938 95.5273 97.6562 95.6758 97.6562 95.8555C97.6562 96.0273 97.5938 96.1738 97.4688 96.2949C97.3477 96.416 97.1992 96.4766 97.0234 96.4766ZM97.4922 104H96.5312V98H97.4922V104Z" fill="black"/>
<path d="M104.418 104H103.457V100.578C103.457 99.3047 102.992 98.668 102.062 98.668C101.582 98.668 101.184 98.8496 100.867 99.2129C100.555 99.5723 100.398 100.027 100.398 100.578V104H99.4375V98H100.398V98.9961H100.422C100.875 98.2383 101.531 97.8594 102.391 97.8594C103.047 97.8594 103.549 98.0723 103.896 98.498C104.244 98.9199 104.418 99.5312 104.418 100.332V104Z" fill="black"/>
<path d="M111.355 104H110.395V102.98H110.371C109.926 103.754 109.238 104.141 108.309 104.141C107.555 104.141 106.951 103.873 106.498 103.338C106.049 102.799 105.824 102.066 105.824 101.141C105.824 100.148 106.074 99.3535 106.574 98.7559C107.074 98.1582 107.74 97.8594 108.572 97.8594C109.396 97.8594 109.996 98.1836 110.371 98.832H110.395V95.1172H111.355V104ZM110.395 101.287V100.402C110.395 99.918 110.234 99.5078 109.914 99.1719C109.594 98.8359 109.188 98.668 108.695 98.668C108.109 98.668 107.648 98.8828 107.312 99.3125C106.977 99.7422 106.809 100.336 106.809 101.094C106.809 101.785 106.969 102.332 107.289 102.734C107.613 103.133 108.047 103.332 108.59 103.332C109.125 103.332 109.559 103.139 109.891 102.752C110.227 102.365 110.395 101.877 110.395 101.287Z" fill="black"/>
<path d="M115.809 104.141C114.922 104.141 114.213 103.861 113.682 103.303C113.154 102.74 112.891 101.996 112.891 101.07C112.891 100.062 113.166 99.2754 113.717 98.709C114.268 98.1426 115.012 97.8594 115.949 97.8594C116.844 97.8594 117.541 98.1348 118.041 98.6855C118.545 99.2363 118.797 100 118.797 100.977C118.797 101.934 118.525 102.701 117.982 103.279C117.443 103.854 116.719 104.141 115.809 104.141ZM115.879 98.668C115.262 98.668 114.773 98.8789 114.414 99.3008C114.055 99.7188 113.875 100.297 113.875 101.035C113.875 101.746 114.057 102.307 114.42 102.717C114.783 103.127 115.27 103.332 115.879 103.332C116.5 103.332 116.977 103.131 117.309 102.729C117.645 102.326 117.812 101.754 117.812 101.012C117.812 100.262 117.645 99.6836 117.309 99.2773C116.977 98.8711 116.5 98.668 115.879 98.668Z" fill="black"/>
<path d="M127.891 98L126.092 104H125.096L123.859 99.7051C123.812 99.541 123.781 99.3555 123.766 99.1484H123.742C123.73 99.2891 123.689 99.4707 123.619 99.6934L122.277 104H121.316L119.5 98H120.508L121.75 102.512C121.789 102.648 121.816 102.828 121.832 103.051H121.879C121.891 102.879 121.926 102.695 121.984 102.5L123.367 98H124.246L125.488 102.523C125.527 102.668 125.557 102.848 125.576 103.062H125.623C125.631 102.91 125.664 102.73 125.723 102.523L126.941 98H127.891Z" fill="black"/>
<path d="M128.641 103.783V102.752C129.164 103.139 129.74 103.332 130.369 103.332C131.213 103.332 131.635 103.051 131.635 102.488C131.635 102.328 131.598 102.193 131.523 102.084C131.453 101.971 131.355 101.871 131.23 101.785C131.109 101.699 130.965 101.623 130.797 101.557C130.633 101.486 130.455 101.414 130.264 101.34C129.998 101.234 129.764 101.129 129.561 101.023C129.361 100.914 129.193 100.793 129.057 100.66C128.924 100.523 128.822 100.369 128.752 100.197C128.686 100.025 128.652 99.8242 128.652 99.5938C128.652 99.3125 128.717 99.0645 128.846 98.8496C128.975 98.6309 129.146 98.4492 129.361 98.3047C129.576 98.1562 129.82 98.0449 130.094 97.9707C130.371 97.8965 130.656 97.8594 130.949 97.8594C131.469 97.8594 131.934 97.9492 132.344 98.1289V99.1016C131.902 98.8125 131.395 98.668 130.82 98.668C130.641 98.668 130.479 98.6895 130.334 98.7324C130.189 98.7715 130.064 98.8281 129.959 98.9023C129.857 98.9766 129.777 99.0664 129.719 99.1719C129.664 99.2734 129.637 99.3867 129.637 99.5117C129.637 99.668 129.664 99.7988 129.719 99.9043C129.777 100.01 129.861 100.104 129.971 100.186C130.08 100.268 130.213 100.342 130.369 100.408C130.525 100.475 130.703 100.547 130.902 100.625C131.168 100.727 131.406 100.832 131.617 100.941C131.828 101.047 132.008 101.168 132.156 101.305C132.305 101.438 132.418 101.592 132.496 101.768C132.578 101.943 132.619 102.152 132.619 102.395C132.619 102.691 132.553 102.949 132.42 103.168C132.291 103.387 132.117 103.568 131.898 103.713C131.68 103.857 131.428 103.965 131.143 104.035C130.857 104.105 130.559 104.141 130.246 104.141C129.629 104.141 129.094 104.021 128.641 103.783Z" fill="black"/>
<path d="M139.914 105.91H139.059C137.848 104.527 137.242 102.822 137.242 100.795C137.242 98.7598 137.848 97.0273 139.059 95.5977H139.926C138.699 97.082 138.086 98.8105 138.086 100.783C138.086 102.74 138.695 104.449 139.914 105.91Z" fill="black"/>
<path d="M146.992 104H145.621L142.375 100.156C142.254 100.012 142.18 99.9141 142.152 99.8633H142.129V104H141.145V95.5977H142.129V99.5469H142.152C142.207 99.4609 142.281 99.3652 142.375 99.2598L145.516 95.5977H146.74L143.137 99.6289L146.992 104Z" fill="black"/>
<path d="M148.105 104V95.5977H150.496C151.223 95.5977 151.799 95.7754 152.225 96.1309C152.65 96.4863 152.863 96.9492 152.863 97.5195C152.863 97.9961 152.734 98.4102 152.477 98.7617C152.219 99.1133 151.863 99.3633 151.41 99.5117V99.5352C151.977 99.6016 152.43 99.8164 152.77 100.18C153.109 100.539 153.279 101.008 153.279 101.586C153.279 102.305 153.021 102.887 152.506 103.332C151.99 103.777 151.34 104 150.555 104H148.105ZM149.09 96.4883V99.2012H150.098C150.637 99.2012 151.061 99.0723 151.369 98.8145C151.678 98.5527 151.832 98.1855 151.832 97.7129C151.832 96.8965 151.295 96.4883 150.221 96.4883H149.09ZM149.09 100.086V103.109H150.426C151.004 103.109 151.451 102.973 151.768 102.699C152.088 102.426 152.248 102.051 152.248 101.574C152.248 100.582 151.572 100.086 150.221 100.086H149.09Z" fill="black"/>
<path d="M159.766 99.2949C159.766 100.064 159.689 100.75 159.537 101.352C159.385 101.949 159.162 102.457 158.869 102.875C158.576 103.289 158.219 103.605 157.797 103.824C157.375 104.039 156.895 104.146 156.355 104.146C155.801 104.146 155.312 104.049 154.891 103.854V102.934C155.355 103.195 155.852 103.326 156.379 103.326C156.758 103.326 157.096 103.248 157.393 103.092C157.693 102.936 157.947 102.709 158.154 102.412C158.361 102.111 158.52 101.742 158.629 101.305C158.738 100.867 158.793 100.365 158.793 99.7988H158.77C158.41 100.521 157.785 100.883 156.895 100.883C156.535 100.883 156.205 100.82 155.904 100.695C155.604 100.566 155.344 100.387 155.125 100.156C154.906 99.9219 154.736 99.6445 154.615 99.3242C154.494 99.0039 154.434 98.6504 154.434 98.2637C154.434 97.8496 154.5 97.4707 154.633 97.127C154.77 96.7832 154.957 96.4883 155.195 96.2422C155.438 95.9922 155.723 95.7988 156.051 95.6621C156.383 95.5254 156.744 95.457 157.135 95.457C157.557 95.457 157.93 95.543 158.254 95.7148C158.582 95.8828 158.857 96.1309 159.08 96.459C159.303 96.7832 159.473 97.1836 159.59 97.6602C159.707 98.1367 159.766 98.6816 159.766 99.2949ZM158.729 98.4336C158.729 98.1094 158.686 97.8145 158.6 97.5488C158.518 97.2832 158.402 97.0566 158.254 96.8691C158.105 96.6777 157.928 96.5312 157.721 96.4297C157.518 96.3242 157.295 96.2715 157.053 96.2715C156.822 96.2715 156.607 96.3184 156.408 96.4121C156.209 96.502 156.035 96.6309 155.887 96.7988C155.742 96.9629 155.627 97.1602 155.541 97.3906C155.459 97.6172 155.418 97.8652 155.418 98.1348C155.418 98.4316 155.457 98.6973 155.535 98.9316C155.617 99.166 155.732 99.3652 155.881 99.5293C156.029 99.6895 156.207 99.8125 156.414 99.8984C156.625 99.9844 156.857 100.027 157.111 100.027C157.334 100.027 157.543 99.9863 157.738 99.9043C157.938 99.8184 158.109 99.7051 158.254 99.5645C158.402 99.4199 158.518 99.252 158.6 99.0605C158.686 98.8652 158.729 98.6562 158.729 98.4336Z" fill="black"/>
<path d="M165.332 95.5977V101.146H166.41V102.025H165.332V104H164.383V102.025H160.434V101.193C160.801 100.779 161.172 100.338 161.547 99.8691C161.922 99.3965 162.279 98.918 162.619 98.4336C162.963 97.9492 163.279 97.4668 163.568 96.9863C163.861 96.502 164.107 96.0391 164.307 95.5977H165.332ZM161.518 101.146H164.383V97.0332C164.09 97.5449 163.812 98.002 163.551 98.4043C163.289 98.8066 163.039 99.1719 162.801 99.5C162.566 99.8281 162.342 100.125 162.127 100.391C161.912 100.656 161.709 100.908 161.518 101.146Z" fill="black"/>
<path d="M172.738 96.1543C172.609 96.377 172.453 96.6543 172.27 96.9863C172.09 97.3184 171.898 97.6914 171.695 98.1055C171.492 98.5195 171.285 98.9648 171.074 99.4414C170.863 99.918 170.666 100.41 170.482 100.918C170.299 101.426 170.137 101.941 169.996 102.465C169.859 102.984 169.76 103.496 169.697 104H168.666C168.736 103.5 168.844 102.99 168.988 102.471C169.137 101.947 169.303 101.436 169.486 100.936C169.674 100.432 169.871 99.9473 170.078 99.4824C170.285 99.0176 170.486 98.5898 170.682 98.1992C170.877 97.8086 171.055 97.4648 171.215 97.168C171.379 96.8672 171.51 96.6328 171.607 96.4648H167.395V95.5977H172.738V96.1543Z" fill="black"/>
<path d="M173.816 101.656C173.816 101.434 173.852 101.211 173.922 100.988C173.992 100.762 174.092 100.551 174.221 100.355C174.354 100.16 174.516 99.9824 174.707 99.8223C174.902 99.6621 175.123 99.5352 175.369 99.4414C175.006 99.2383 174.717 98.9785 174.502 98.6621C174.287 98.3418 174.18 97.9883 174.18 97.6016C174.18 97.293 174.238 97.0078 174.355 96.7461C174.477 96.4844 174.643 96.2578 174.854 96.0664C175.064 95.875 175.314 95.7266 175.604 95.6211C175.893 95.5117 176.205 95.457 176.541 95.457C176.881 95.457 177.195 95.5117 177.484 95.6211C177.773 95.7305 178.023 95.8809 178.234 96.0723C178.445 96.2637 178.609 96.4902 178.727 96.752C178.844 97.0137 178.902 97.2969 178.902 97.6016C178.902 97.9883 178.795 98.3418 178.58 98.6621C178.365 98.9785 178.08 99.2383 177.725 99.4414C177.967 99.5352 178.184 99.6621 178.375 99.8223C178.566 99.9824 178.727 100.16 178.855 100.355C178.988 100.551 179.09 100.762 179.16 100.988C179.23 101.211 179.266 101.434 179.266 101.656C179.266 102.023 179.199 102.359 179.066 102.664C178.934 102.969 178.746 103.23 178.504 103.449C178.266 103.664 177.979 103.832 177.643 103.953C177.311 104.074 176.943 104.135 176.541 104.135C176.143 104.135 175.777 104.074 175.445 103.953C175.113 103.832 174.826 103.664 174.584 103.449C174.342 103.23 174.152 102.969 174.016 102.664C173.883 102.359 173.816 102.023 173.816 101.656ZM174.859 101.574C174.859 101.836 174.898 102.072 174.977 102.283C175.059 102.494 175.172 102.674 175.316 102.822C175.465 102.971 175.643 103.086 175.85 103.168C176.061 103.246 176.293 103.285 176.547 103.285C176.793 103.285 177.02 103.244 177.227 103.162C177.434 103.08 177.611 102.965 177.76 102.816C177.912 102.668 178.029 102.488 178.111 102.277C178.197 102.066 178.24 101.832 178.24 101.574C178.24 101.34 178.199 101.121 178.117 100.918C178.039 100.711 177.926 100.529 177.777 100.373C177.629 100.217 177.451 100.094 177.244 100.004C177.037 99.9141 176.805 99.8691 176.547 99.8691C176.305 99.8691 176.08 99.9121 175.873 99.998C175.67 100.08 175.492 100.197 175.34 100.35C175.191 100.498 175.074 100.678 174.988 100.889C174.902 101.096 174.859 101.324 174.859 101.574ZM175.158 97.6777C175.158 97.877 175.193 98.0625 175.264 98.2344C175.338 98.4023 175.438 98.5508 175.562 98.6797C175.691 98.8047 175.84 98.9043 176.008 98.9785C176.176 99.0488 176.355 99.084 176.547 99.084C176.738 99.084 176.918 99.0469 177.086 98.9727C177.258 98.8984 177.406 98.7988 177.531 98.6738C177.656 98.5449 177.756 98.3965 177.83 98.2285C177.904 98.0566 177.941 97.873 177.941 97.6777C177.941 97.4746 177.904 97.2871 177.83 97.1152C177.76 96.9434 177.662 96.7949 177.537 96.6699C177.412 96.5449 177.264 96.4473 177.092 96.377C176.924 96.3027 176.742 96.2656 176.547 96.2656C176.34 96.2656 176.15 96.3027 175.979 96.377C175.811 96.4512 175.664 96.5527 175.539 96.6816C175.418 96.8066 175.324 96.9551 175.258 97.127C175.191 97.2988 175.158 97.4824 175.158 97.6777Z" fill="black"/>
<path d="M184.281 97.8008C184.281 97.543 184.24 97.3184 184.158 97.127C184.08 96.9355 183.971 96.7773 183.83 96.6523C183.693 96.5234 183.531 96.4277 183.344 96.3652C183.156 96.3027 182.953 96.2715 182.734 96.2715C182.547 96.2715 182.363 96.2969 182.184 96.3477C182.004 96.3984 181.828 96.4688 181.656 96.5586C181.488 96.6484 181.324 96.7559 181.164 96.8809C181.008 97.0059 180.861 97.1445 180.725 97.2969V96.2656C180.994 96.0039 181.295 95.8047 181.627 95.668C181.963 95.5273 182.371 95.457 182.852 95.457C183.195 95.457 183.514 95.5078 183.807 95.6094C184.1 95.707 184.354 95.8516 184.568 96.043C184.783 96.2344 184.951 96.4707 185.072 96.752C185.197 97.0332 185.26 97.3555 185.26 97.7188C185.26 98.0508 185.221 98.3516 185.143 98.6211C185.068 98.8906 184.953 99.1445 184.797 99.3828C184.645 99.6211 184.451 99.8496 184.217 100.068C183.982 100.287 183.707 100.51 183.391 100.736C182.996 101.018 182.67 101.258 182.412 101.457C182.158 101.656 181.955 101.844 181.803 102.02C181.654 102.191 181.549 102.365 181.486 102.541C181.428 102.713 181.398 102.912 181.398 103.139H185.582V104H180.396V103.584C180.396 103.225 180.436 102.908 180.514 102.635C180.592 102.361 180.721 102.102 180.9 101.855C181.08 101.609 181.314 101.363 181.604 101.117C181.896 100.871 182.254 100.594 182.676 100.285C182.98 100.066 183.234 99.8574 183.438 99.6582C183.645 99.459 183.811 99.2598 183.936 99.0605C184.061 98.8613 184.148 98.6602 184.199 98.457C184.254 98.25 184.281 98.0312 184.281 97.8008Z" fill="black"/>
<path d="M190.469 104H189.508V96.7402C189.434 96.8145 189.324 96.9004 189.18 96.998C189.039 97.0918 188.879 97.1855 188.699 97.2793C188.523 97.373 188.336 97.4609 188.137 97.543C187.941 97.625 187.75 97.6895 187.562 97.7363V96.7637C187.773 96.7051 187.996 96.627 188.23 96.5293C188.469 96.4277 188.701 96.3164 188.928 96.1953C189.158 96.0703 189.375 95.9414 189.578 95.8086C189.781 95.6719 189.957 95.5391 190.105 95.4102H190.469V104Z" fill="black"/>
<path d="M193.691 105.91H192.836C194.055 104.449 194.664 102.74 194.664 100.783C194.664 98.8105 194.051 97.082 192.824 95.5977H193.691C194.91 97.0273 195.52 98.7598 195.52 100.795C195.52 102.822 194.91 104.527 193.691 105.91Z" fill="black"/>
<rect x="266" y="169" width="80" height="24" rx="2" fill="url(#paint1_linear_117_7)"/>
<rect x="266" y="169" width="80" height="24" rx="2" stroke="#397DB5" stroke-opacity="0.75" stroke-width="2"/>
<rect x="266" y="169" width="80" height="24" rx="2" stroke="#42D7FF" stroke-opacity="0.6" stroke-width="2"/>
<path d="M300.957 182.953V186H299.568V182.988L296.844 177.598H298.426L300.312 181.5H300.324L302.269 177.598H303.746L300.957 182.953Z" fill="#5A5F5A"/>
<path d="M305.556 183.398C305.584 183.945 305.75 184.361 306.055 184.646C306.359 184.932 306.795 185.074 307.361 185.074C307.701 185.074 308.027 185.021 308.34 184.916C308.652 184.807 308.926 184.668 309.16 184.5V185.643C308.933 185.791 308.629 185.912 308.246 186.006C307.863 186.1 307.459 186.146 307.033 186.146C306.123 186.146 305.418 185.875 304.918 185.332C304.418 184.785 304.168 184.027 304.168 183.059C304.168 182.418 304.291 181.857 304.537 181.377C304.787 180.896 305.131 180.523 305.568 180.258C306.01 179.988 306.494 179.854 307.021 179.854C307.849 179.854 308.492 180.107 308.949 180.615C309.41 181.123 309.64 181.826 309.64 182.725V183.398H305.556ZM308.293 182.379C308.293 181.902 308.181 181.539 307.959 181.289C307.736 181.039 307.424 180.914 307.021 180.914C306.654 180.914 306.336 181.051 306.066 181.324C305.797 181.594 305.627 181.945 305.556 182.379H308.293Z" fill="#5A5F5A"/>
<path d="M314.457 184.283C314.457 184.842 314.242 185.293 313.812 185.637C313.383 185.977 312.801 186.146 312.066 186.146C311.828 186.146 311.556 186.115 311.252 186.053C310.951 185.99 310.699 185.912 310.496 185.818V184.523C310.746 184.703 311.019 184.842 311.316 184.939C311.613 185.037 311.881 185.086 312.119 185.086C312.767 185.086 313.092 184.871 313.092 184.441C313.092 184.289 313.058 184.168 312.992 184.078C312.93 183.984 312.818 183.893 312.658 183.803C312.502 183.709 312.258 183.594 311.926 183.457C311.535 183.289 311.244 183.127 311.053 182.971C310.865 182.814 310.724 182.631 310.631 182.42C310.541 182.209 310.496 181.963 310.496 181.682C310.496 181.143 310.709 180.703 311.135 180.363C311.56 180.023 312.111 179.854 312.787 179.854C312.994 179.854 313.228 179.879 313.49 179.93C313.756 179.977 313.971 180.035 314.135 180.105V181.33C313.951 181.205 313.734 181.105 313.484 181.031C313.234 180.953 312.986 180.914 312.74 180.914C312.471 180.914 312.258 180.975 312.101 181.096C311.945 181.217 311.867 181.371 311.867 181.559C311.867 181.77 311.928 181.936 312.049 182.057C312.174 182.174 312.465 182.324 312.922 182.508C313.484 182.734 313.881 182.986 314.111 183.264C314.342 183.541 314.457 183.881 314.457 184.283Z" fill="#5A5F5A"/>
<rect x="355.5" y="169.5" width="79" height="23" rx="1.5" fill="url(#paint2_linear_117_7)" stroke="#949494"/>
<path d="M393.209 186L389.137 179.426H389.096V186H387.724V177.598H389.488L393.484 184.148H393.508V177.598H394.879V186H393.209Z" fill="#5A5F5A"/>
<path d="M402.543 182.941C402.543 183.914 402.262 184.691 401.699 185.273C401.137 185.855 400.373 186.146 399.408 186.146C398.482 186.146 397.744 185.871 397.193 185.32C396.646 184.766 396.373 184.016 396.373 183.07C396.373 182.074 396.654 181.289 397.217 180.715C397.779 180.141 398.558 179.854 399.555 179.854C400.492 179.854 401.224 180.129 401.752 180.68C402.279 181.227 402.543 181.98 402.543 182.941ZM401.137 182.988C401.137 182.324 400.988 181.82 400.691 181.477C400.398 181.133 399.994 180.961 399.478 180.961C398.947 180.961 398.531 181.141 398.23 181.5C397.93 181.859 397.779 182.367 397.779 183.023C397.779 183.66 397.93 184.156 398.23 184.512C398.531 184.863 398.951 185.039 399.49 185.039C400.033 185.039 400.443 184.865 400.721 184.518C400.998 184.17 401.137 183.66 401.137 182.988Z" fill="#5A5F5A"/>
</g>
<rect width="450" height="27" fill="url(#paint3_linear_117_7)"/>
<path d="M20.4609 9.59766L18.1582 18H16.582L14.9824 12.123C14.916 11.873 14.875 11.5996 14.8594 11.3027H14.8359C14.8164 11.5801 14.7695 11.8496 14.6953 12.1113L13.0898 18H11.4785L9.12891 9.59766H10.6582L12.1816 15.75C12.2441 16.0078 12.2832 16.2773 12.2988 16.5586H12.3281C12.3438 16.3594 12.3984 16.0898 12.4922 15.75L14.2148 9.59766H15.6504L17.2441 15.7969C17.2988 16.0078 17.3398 16.2578 17.3672 16.5469H17.3906C17.4023 16.3516 17.4473 16.0938 17.5254 15.7734L19.0195 9.59766H20.4609Z" fill="black"/>
<path d="M22.1602 10.7402C21.9375 10.7402 21.7461 10.668 21.5859 10.5234C21.4297 10.3789 21.3516 10.1953 21.3516 9.97266C21.3516 9.75 21.4297 9.56445 21.5859 9.41602C21.7461 9.26758 21.9375 9.19336 22.1602 9.19336C22.3906 9.19336 22.5859 9.26758 22.7461 9.41602C22.9062 9.56445 22.9863 9.75 22.9863 9.97266C22.9863 10.1836 22.9062 10.3652 22.7461 10.5176C22.5859 10.666 22.3906 10.7402 22.1602 10.7402ZM22.834 18H21.4746V12H22.834V18Z" fill="black"/>
<path d="M29.959 18H28.5996V14.6191C28.5996 13.498 28.2031 12.9375 27.4102 12.9375C26.9961 12.9375 26.6543 13.0938 26.3848 13.4062C26.1152 13.7148 25.9805 14.1055 25.9805 14.5781V18H24.6152V12H25.9805V12.9961H26.0039C26.4531 12.2383 27.1016 11.8594 27.9492 11.8594C28.6016 11.8594 29.0996 12.0723 29.4434 12.498C29.7871 12.9199 29.959 13.5312 29.959 14.332V18Z" fill="black"/>
<path d="M37.0781 18H35.7188V16.9805H35.6953C35.2578 17.7539 34.584 18.1406 33.6738 18.1406C32.9355 18.1406 32.3438 17.873 31.8984 17.3379C31.457 16.7988 31.2363 16.0664 31.2363 15.1406C31.2363 14.1484 31.4805 13.3535 31.9688 12.7559C32.4609 12.1582 33.1152 11.8594 33.9316 11.8594C34.7402 11.8594 35.3281 12.1836 35.6953 12.832H35.7188V9.11719H37.0781V18ZM35.7363 15.2578V14.4727C35.7363 14.0469 35.5977 13.6855 35.3203 13.3887C35.043 13.0918 34.6895 12.9434 34.2598 12.9434C33.752 12.9434 33.3516 13.1328 33.0586 13.5117C32.7695 13.8906 32.625 14.416 32.625 15.0879C32.625 15.6973 32.7637 16.1797 33.041 16.5352C33.3223 16.8867 33.6992 17.0625 34.1719 17.0625C34.6367 17.0625 35.0137 16.8926 35.3027 16.5527C35.5918 16.209 35.7363 15.7773 35.7363 15.2578Z" fill="black"/>
<path d="M41.5137 18.1406C40.5879 18.1406 39.8477 17.8613 39.293 17.3027C38.7422 16.7402 38.4668 15.9961 38.4668 15.0703C38.4668 14.0625 38.7539 13.2754 39.3281 12.709C39.9062 12.1426 40.6836 11.8594 41.6602 11.8594C42.5977 11.8594 43.3281 12.1348 43.8516 12.6855C44.375 13.2363 44.6367 14 44.6367 14.9766C44.6367 15.9336 44.3535 16.7012 43.7871 17.2793C43.2246 17.8535 42.4668 18.1406 41.5137 18.1406ZM41.5781 12.9434C41.0469 12.9434 40.627 13.1289 40.3184 13.5C40.0098 13.8711 39.8555 14.3828 39.8555 15.0352C39.8555 15.6641 40.0117 16.1602 40.3242 16.5234C40.6367 16.8828 41.0547 17.0625 41.5781 17.0625C42.1133 17.0625 42.5234 16.8848 42.8086 16.5293C43.0977 16.1738 43.2422 15.668 43.2422 15.0117C43.2422 14.3516 43.0977 13.8418 42.8086 13.4824C42.5234 13.123 42.1133 12.9434 41.5781 12.9434Z" fill="black"/>
<path d="M54.0938 12L52.3242 18H50.9004L49.8105 13.9336C49.7676 13.7773 49.7402 13.6016 49.7285 13.4062H49.7051C49.6973 13.5391 49.6621 13.7109 49.5996 13.9219L48.416 18H47.0215L45.2578 12H46.6641L47.7539 16.3242C47.7891 16.4531 47.8125 16.625 47.8242 16.8398H47.8652C47.877 16.6758 47.9082 16.5 47.959 16.3125L49.1719 12H50.4492L51.5273 16.3418C51.5625 16.4785 51.5879 16.6504 51.6035 16.8574H51.6445C51.6523 16.7129 51.6816 16.541 51.7324 16.3418L52.7988 12H54.0938Z" fill="black"/>
<path d="M54.7324 17.8125V16.5527C55.2402 16.9395 55.8008 17.1328 56.4141 17.1328C57.2344 17.1328 57.6445 16.8906 57.6445 16.4062C57.6445 16.2695 57.6094 16.1543 57.5391 16.0605C57.4688 15.9629 57.373 15.877 57.252 15.8027C57.1348 15.7285 56.9941 15.6621 56.8301 15.6035C56.6699 15.5449 56.4902 15.4785 56.291 15.4043C56.0449 15.3066 55.8223 15.2031 55.623 15.0938C55.4277 14.9844 55.2637 14.8613 55.1309 14.7246C55.002 14.584 54.9043 14.4258 54.8379 14.25C54.7715 14.0742 54.7383 13.8691 54.7383 13.6348C54.7383 13.3457 54.8066 13.0918 54.9434 12.873C55.0801 12.6504 55.2637 12.4648 55.4941 12.3164C55.7246 12.1641 55.9863 12.0508 56.2793 11.9766C56.5723 11.8984 56.875 11.8594 57.1875 11.8594C57.7422 11.8594 58.2383 11.9434 58.6758 12.1113V13.3008C58.2539 13.0117 57.7695 12.8672 57.2227 12.8672C57.0508 12.8672 56.8945 12.8848 56.7539 12.9199C56.6172 12.9551 56.5 13.0039 56.4023 13.0664C56.3047 13.1289 56.2285 13.2051 56.1738 13.2949C56.1191 13.3809 56.0918 13.4766 56.0918 13.582C56.0918 13.7109 56.1191 13.8203 56.1738 13.9102C56.2285 14 56.3086 14.0801 56.4141 14.1504C56.5234 14.2168 56.6523 14.2793 56.8008 14.3379C56.9531 14.3926 57.127 14.4531 57.3223 14.5195C57.5801 14.625 57.8105 14.7324 58.0137 14.8418C58.2207 14.9512 58.3965 15.0762 58.541 15.2168C58.6855 15.3535 58.7969 15.5137 58.875 15.6973C58.9531 15.877 58.9922 16.0918 58.9922 16.3418C58.9922 16.6465 58.9219 16.9121 58.7812 17.1387C58.6406 17.3652 58.4531 17.5527 58.2188 17.7012C57.9844 17.8496 57.7129 17.959 57.4043 18.0293C57.0996 18.1035 56.7773 18.1406 56.4375 18.1406C55.7812 18.1406 55.2129 18.0312 54.7324 17.8125Z" fill="black"/>
<path d="M70.207 14.6016C70.207 16.9609 69.0898 18.1406 66.8555 18.1406C64.7148 18.1406 63.6445 17.0059 63.6445 14.7363V9.59766H65.0391V14.4492C65.0391 16.0977 65.6797 16.9219 66.9609 16.9219C68.1953 16.9219 68.8125 16.127 68.8125 14.5371V9.59766H70.207V14.6016Z" fill="black"/>
<path d="M73.4121 17.1152H73.3887V20.7598H72.0293V12H73.3887V13.0547H73.4121C73.877 12.2578 74.5566 11.8594 75.4512 11.8594C76.2129 11.8594 76.8066 12.127 77.2324 12.6621C77.6582 13.1973 77.8711 13.916 77.8711 14.8184C77.8711 15.8184 77.6309 16.6191 77.1504 17.2207C76.6699 17.8223 76.0137 18.123 75.1816 18.123C74.416 18.123 73.8262 17.7871 73.4121 17.1152ZM73.377 14.748V15.4922C73.377 15.9297 73.5156 16.3008 73.793 16.6055C74.0742 16.9102 74.4297 17.0625 74.8594 17.0625C75.3633 17.0625 75.7578 16.8672 76.043 16.4766C76.332 16.082 76.4766 15.5332 76.4766 14.8301C76.4766 14.2402 76.3418 13.7793 76.0723 13.4473C75.8066 13.1113 75.4453 12.9434 74.9883 12.9434C74.5039 12.9434 74.1133 13.1152 73.8164 13.459C73.5234 13.8027 73.377 14.2324 73.377 14.748Z" fill="black"/>
<path d="M84.7148 18H83.3555V16.9805H83.332C82.8945 17.7539 82.2207 18.1406 81.3105 18.1406C80.5723 18.1406 79.9805 17.873 79.5352 17.3379C79.0938 16.7988 78.873 16.0664 78.873 15.1406C78.873 14.1484 79.1172 13.3535 79.6055 12.7559C80.0977 12.1582 80.752 11.8594 81.5684 11.8594C82.377 11.8594 82.9648 12.1836 83.332 12.832H83.3555V9.11719H84.7148V18ZM83.373 15.2578V14.4727C83.373 14.0469 83.2344 13.6855 82.957 13.3887C82.6797 13.0918 82.3262 12.9434 81.8965 12.9434C81.3887 12.9434 80.9883 13.1328 80.6953 13.5117C80.4062 13.8906 80.2617 14.416 80.2617 15.0879C80.2617 15.6973 80.4004 16.1797 80.6777 16.5352C80.959 16.8867 81.3359 17.0625 81.8086 17.0625C82.2734 17.0625 82.6504 16.8926 82.9395 16.5527C83.2285 16.209 83.373 15.7773 83.373 15.2578Z" fill="black"/>
<path d="M91.0957 18H89.7773V17.0625H89.7539C89.3398 17.7812 88.7324 18.1406 87.9316 18.1406C87.3418 18.1406 86.8789 17.9805 86.543 17.6602C86.2109 17.3398 86.0449 16.916 86.0449 16.3887C86.0449 15.2559 86.6973 14.5957 88.002 14.4082L89.7832 14.1562C89.7832 13.3008 89.377 12.873 88.5645 12.873C87.8496 12.873 87.2051 13.1191 86.6309 13.6113V12.4219C87.2637 12.0469 87.9941 11.8594 88.8223 11.8594C90.3379 11.8594 91.0957 12.6055 91.0957 14.0977V18ZM89.7832 15.0527L88.5234 15.2285C88.1328 15.2793 87.8379 15.375 87.6387 15.5156C87.4434 15.6523 87.3457 15.8945 87.3457 16.2422C87.3457 16.4961 87.4355 16.7051 87.6152 16.8691C87.7988 17.0293 88.043 17.1094 88.3477 17.1094C88.7617 17.1094 89.1035 16.9648 89.373 16.6758C89.6465 16.3828 89.7832 16.0156 89.7832 15.5742V15.0527Z" fill="black"/>
<path d="M95.9238 17.9355C95.6582 18.0684 95.3086 18.1348 94.875 18.1348C93.7109 18.1348 93.1289 17.5762 93.1289 16.459V13.0664H92.127V12H93.1289V10.6113L94.4883 10.2246V12H95.9238V13.0664H94.4883V16.0664C94.4883 16.4219 94.5527 16.6758 94.6816 16.8281C94.8105 16.9805 95.0254 17.0566 95.3262 17.0566C95.5566 17.0566 95.7559 16.9902 95.9238 16.8574V17.9355Z" fill="black"/>
<path d="M102.105 15.3691H98.0156C98.0312 15.9238 98.2012 16.3516 98.5254 16.6523C98.8535 16.9531 99.3027 17.1035 99.873 17.1035C100.514 17.1035 101.102 16.9121 101.637 16.5293V17.625C101.09 17.9688 100.367 18.1406 99.4688 18.1406C98.5859 18.1406 97.8926 17.8691 97.3887 17.3262C96.8887 16.7793 96.6387 16.0117 96.6387 15.0234C96.6387 14.0898 96.9141 13.3301 97.4648 12.7441C98.0195 12.1543 98.707 11.8594 99.5273 11.8594C100.348 11.8594 100.982 12.123 101.432 12.6504C101.881 13.1777 102.105 13.9102 102.105 14.8477V15.3691ZM100.793 14.4082C100.789 13.9199 100.674 13.541 100.447 13.2715C100.221 12.998 99.9082 12.8613 99.5098 12.8613C99.1191 12.8613 98.7871 13.0039 98.5137 13.2891C98.2441 13.5742 98.0781 13.9473 98.0156 14.4082H100.793Z" fill="black"/>
<path d="M106.471 17.666V16.2305C106.6 16.3477 106.752 16.4531 106.928 16.5469C107.107 16.6406 107.297 16.7207 107.496 16.7871C107.695 16.8496 107.895 16.8984 108.094 16.9336C108.293 16.9688 108.477 16.9863 108.645 16.9863C109.23 16.9863 109.666 16.8887 109.951 16.6934C110.24 16.498 110.385 16.2148 110.385 15.8438C110.385 15.6445 110.336 15.4727 110.238 15.3281C110.145 15.1797 110.012 15.0449 109.84 14.9238C109.668 14.8027 109.465 14.6875 109.23 14.5781C109 14.4648 108.752 14.3477 108.486 14.2266C108.201 14.0742 107.936 13.9199 107.689 13.7637C107.443 13.6074 107.229 13.4355 107.045 13.248C106.865 13.0566 106.723 12.8418 106.617 12.6035C106.516 12.3652 106.465 12.0859 106.465 11.7656C106.465 11.3711 106.553 11.0293 106.729 10.7402C106.908 10.4473 107.143 10.207 107.432 10.0195C107.725 9.82812 108.057 9.6875 108.428 9.59766C108.799 9.50391 109.178 9.45703 109.564 9.45703C110.443 9.45703 111.084 9.55664 111.486 9.75586V11.1328C111.01 10.7891 110.396 10.6172 109.646 10.6172C109.439 10.6172 109.232 10.6367 109.025 10.6758C108.822 10.7148 108.639 10.7793 108.475 10.8691C108.314 10.959 108.184 11.0742 108.082 11.2148C107.98 11.3555 107.93 11.5254 107.93 11.7246C107.93 11.9121 107.969 12.0742 108.047 12.2109C108.125 12.3477 108.238 12.4727 108.387 12.5859C108.539 12.6992 108.723 12.8105 108.938 12.9199C109.156 13.0254 109.408 13.1406 109.693 13.2656C109.986 13.418 110.262 13.5781 110.52 13.7461C110.781 13.9141 111.01 14.0996 111.205 14.3027C111.404 14.5059 111.561 14.7324 111.674 14.9824C111.791 15.2285 111.85 15.5098 111.85 15.8262C111.85 16.252 111.764 16.6113 111.592 16.9043C111.42 17.1973 111.188 17.4355 110.895 17.6191C110.605 17.8027 110.271 17.9355 109.893 18.0176C109.514 18.0996 109.113 18.1406 108.691 18.1406C108.551 18.1406 108.377 18.1289 108.17 18.1055C107.967 18.0859 107.758 18.0547 107.543 18.0117C107.328 17.9727 107.125 17.9238 106.934 17.8652C106.742 17.8066 106.588 17.7402 106.471 17.666Z" fill="black"/>
<path d="M116.057 17.9355C115.791 18.0684 115.441 18.1348 115.008 18.1348C113.844 18.1348 113.262 17.5762 113.262 16.459V13.0664H112.26V12H113.262V10.6113L114.621 10.2246V12H116.057V13.0664H114.621V16.0664C114.621 16.4219 114.686 16.6758 114.814 16.8281C114.943 16.9805 115.158 17.0566 115.459 17.0566C115.689 17.0566 115.889 16.9902 116.057 16.8574V17.9355Z" fill="black"/>
<path d="M121.834 18H120.516V17.0625H120.492C120.078 17.7812 119.471 18.1406 118.67 18.1406C118.08 18.1406 117.617 17.9805 117.281 17.6602C116.949 17.3398 116.783 16.916 116.783 16.3887C116.783 15.2559 117.436 14.5957 118.74 14.4082L120.521 14.1562C120.521 13.3008 120.115 12.873 119.303 12.873C118.588 12.873 117.943 13.1191 117.369 13.6113V12.4219C118.002 12.0469 118.732 11.8594 119.561 11.8594C121.076 11.8594 121.834 12.6055 121.834 14.0977V18ZM120.521 15.0527L119.262 15.2285C118.871 15.2793 118.576 15.375 118.377 15.5156C118.182 15.6523 118.084 15.8945 118.084 16.2422C118.084 16.4961 118.174 16.7051 118.354 16.8691C118.537 17.0293 118.781 17.1094 119.086 17.1094C119.5 17.1094 119.842 16.9648 120.111 16.6758C120.385 16.3828 120.521 16.0156 120.521 15.5742V15.0527Z" fill="black"/>
<path d="M128.842 18H127.482V14.6191C127.482 13.498 127.086 12.9375 126.293 12.9375C125.879 12.9375 125.537 13.0938 125.268 13.4062C124.998 13.7148 124.863 14.1055 124.863 14.5781V18H123.498V12H124.863V12.9961H124.887C125.336 12.2383 125.984 11.8594 126.832 11.8594C127.484 11.8594 127.982 12.0723 128.326 12.498C128.67 12.9199 128.842 13.5312 128.842 14.332V18Z" fill="black"/>
<path d="M135.961 18H134.602V16.9805H134.578C134.141 17.7539 133.467 18.1406 132.557 18.1406C131.818 18.1406 131.227 17.873 130.781 17.3379C130.34 16.7988 130.119 16.0664 130.119 15.1406C130.119 14.1484 130.363 13.3535 130.852 12.7559C131.344 12.1582 131.998 11.8594 132.814 11.8594C133.623 11.8594 134.211 12.1836 134.578 12.832H134.602V9.11719H135.961V18ZM134.619 15.2578V14.4727C134.619 14.0469 134.48 13.6855 134.203 13.3887C133.926 13.0918 133.572 12.9434 133.143 12.9434C132.635 12.9434 132.234 13.1328 131.941 13.5117C131.652 13.8906 131.508 14.416 131.508 15.0879C131.508 15.6973 131.646 16.1797 131.924 16.5352C132.205 16.8867 132.582 17.0625 133.055 17.0625C133.52 17.0625 133.896 16.8926 134.186 16.5527C134.475 16.209 134.619 15.7773 134.619 15.2578Z" fill="black"/>
<path d="M142.342 18H141.023V17.0625H141C140.586 17.7812 139.979 18.1406 139.178 18.1406C138.588 18.1406 138.125 17.9805 137.789 17.6602C137.457 17.3398 137.291 16.916 137.291 16.3887C137.291 15.2559 137.943 14.5957 139.248 14.4082L141.029 14.1562C141.029 13.3008 140.623 12.873 139.811 12.873C139.096 12.873 138.451 13.1191 137.877 13.6113V12.4219C138.51 12.0469 139.24 11.8594 140.068 11.8594C141.584 11.8594 142.342 12.6055 142.342 14.0977V18ZM141.029 15.0527L139.77 15.2285C139.379 15.2793 139.084 15.375 138.885 15.5156C138.689 15.6523 138.592 15.8945 138.592 16.2422C138.592 16.4961 138.682 16.7051 138.861 16.8691C139.045 17.0293 139.289 17.1094 139.594 17.1094C140.008 17.1094 140.35 16.9648 140.619 16.6758C140.893 16.3828 141.029 16.0156 141.029 15.5742V15.0527Z" fill="black"/>
<path d="M145.371 18H144.006V9.11719H145.371V18Z" fill="black"/>
<path d="M149.807 18.1406C148.881 18.1406 148.141 17.8613 147.586 17.3027C147.035 16.7402 146.76 15.9961 146.76 15.0703C146.76 14.0625 147.047 13.2754 147.621 12.709C148.199 12.1426 148.977 11.8594 149.953 11.8594C150.891 11.8594 151.621 12.1348 152.145 12.6855C152.668 13.2363 152.93 14 152.93 14.9766C152.93 15.9336 152.646 16.7012 152.08 17.2793C151.518 17.8535 150.76 18.1406 149.807 18.1406ZM149.871 12.9434C149.34 12.9434 148.92 13.1289 148.611 13.5C148.303 13.8711 148.148 14.3828 148.148 15.0352C148.148 15.6641 148.305 16.1602 148.617 16.5234C148.93 16.8828 149.348 17.0625 149.871 17.0625C150.406 17.0625 150.816 16.8848 151.102 16.5293C151.391 16.1738 151.535 15.668 151.535 15.0117C151.535 14.3516 151.391 13.8418 151.102 13.4824C150.816 13.123 150.406 12.9434 149.871 12.9434Z" fill="black"/>
<path d="M159.662 18H158.303V14.6191C158.303 13.498 157.906 12.9375 157.113 12.9375C156.699 12.9375 156.357 13.0938 156.088 13.4062C155.818 13.7148 155.684 14.1055 155.684 14.5781V18H154.318V12H155.684V12.9961H155.707C156.156 12.2383 156.805 11.8594 157.652 11.8594C158.305 11.8594 158.803 12.0723 159.146 12.498C159.49 12.9199 159.662 13.5312 159.662 14.332V18Z" fill="black"/>
<path d="M166.406 15.3691H162.316C162.332 15.9238 162.502 16.3516 162.826 16.6523C163.154 16.9531 163.604 17.1035 164.174 17.1035C164.814 17.1035 165.402 16.9121 165.938 16.5293V17.625C165.391 17.9688 164.668 18.1406 163.77 18.1406C162.887 18.1406 162.193 17.8691 161.689 17.3262C161.189 16.7793 160.939 16.0117 160.939 15.0234C160.939 14.0898 161.215 13.3301 161.766 12.7441C162.32 12.1543 163.008 11.8594 163.828 11.8594C164.648 11.8594 165.283 12.123 165.732 12.6504C166.182 13.1777 166.406 13.9102 166.406 14.8477V15.3691ZM165.094 14.4082C165.09 13.9199 164.975 13.541 164.748 13.2715C164.521 12.998 164.209 12.8613 163.811 12.8613C163.42 12.8613 163.088 13.0039 162.814 13.2891C162.545 13.5742 162.379 13.9473 162.316 14.4082H165.094Z" fill="black"/>
<path d="M172.588 18H171.152V9.59766H172.588V18Z" fill="black"/>
<path d="M179.854 18H178.494V14.6191C178.494 13.498 178.098 12.9375 177.305 12.9375C176.891 12.9375 176.549 13.0938 176.279 13.4062C176.01 13.7148 175.875 14.1055 175.875 14.5781V18H174.51V12H175.875V12.9961H175.898C176.348 12.2383 176.996 11.8594 177.844 11.8594C178.496 11.8594 178.994 12.0723 179.338 12.498C179.682 12.9199 179.854 13.5312 179.854 14.332V18Z" fill="black"/>
<path d="M181.143 17.8125V16.5527C181.65 16.9395 182.211 17.1328 182.824 17.1328C183.645 17.1328 184.055 16.8906 184.055 16.4062C184.055 16.2695 184.02 16.1543 183.949 16.0605C183.879 15.9629 183.783 15.877 183.662 15.8027C183.545 15.7285 183.404 15.6621 183.24 15.6035C183.08 15.5449 182.9 15.4785 182.701 15.4043C182.455 15.3066 182.232 15.2031 182.033 15.0938C181.838 14.9844 181.674 14.8613 181.541 14.7246C181.412 14.584 181.314 14.4258 181.248 14.25C181.182 14.0742 181.148 13.8691 181.148 13.6348C181.148 13.3457 181.217 13.0918 181.354 12.873C181.49 12.6504 181.674 12.4648 181.904 12.3164C182.135 12.1641 182.396 12.0508 182.689 11.9766C182.982 11.8984 183.285 11.8594 183.598 11.8594C184.152 11.8594 184.648 11.9434 185.086 12.1113V13.3008C184.664 13.0117 184.18 12.8672 183.633 12.8672C183.461 12.8672 183.305 12.8848 183.164 12.9199C183.027 12.9551 182.91 13.0039 182.812 13.0664C182.715 13.1289 182.639 13.2051 182.584 13.2949C182.529 13.3809 182.502 13.4766 182.502 13.582C182.502 13.7109 182.529 13.8203 182.584 13.9102C182.639 14 182.719 14.0801 182.824 14.1504C182.934 14.2168 183.062 14.2793 183.211 14.3379C183.363 14.3926 183.537 14.4531 183.732 14.5195C183.99 14.625 184.221 14.7324 184.424 14.8418C184.631 14.9512 184.807 15.0762 184.951 15.2168C185.096 15.3535 185.207 15.5137 185.285 15.6973C185.363 15.877 185.402 16.0918 185.402 16.3418C185.402 16.6465 185.332 16.9121 185.191 17.1387C185.051 17.3652 184.863 17.5527 184.629 17.7012C184.395 17.8496 184.123 17.959 183.814 18.0293C183.51 18.1035 183.188 18.1406 182.848 18.1406C182.191 18.1406 181.623 18.0312 181.143 17.8125Z" fill="black"/>
<path d="M189.861 17.9355C189.596 18.0684 189.246 18.1348 188.812 18.1348C187.648 18.1348 187.066 17.5762 187.066 16.459V13.0664H186.064V12H187.066V10.6113L188.426 10.2246V12H189.861V13.0664H188.426V16.0664C188.426 16.4219 188.49 16.6758 188.619 16.8281C188.748 16.9805 188.963 17.0566 189.264 17.0566C189.494 17.0566 189.693 16.9902 189.861 16.8574V17.9355Z" fill="black"/>
<path d="M195.639 18H194.32V17.0625H194.297C193.883 17.7812 193.275 18.1406 192.475 18.1406C191.885 18.1406 191.422 17.9805 191.086 17.6602C190.754 17.3398 190.588 16.916 190.588 16.3887C190.588 15.2559 191.24 14.5957 192.545 14.4082L194.326 14.1562C194.326 13.3008 193.92 12.873 193.107 12.873C192.393 12.873 191.748 13.1191 191.174 13.6113V12.4219C191.807 12.0469 192.537 11.8594 193.365 11.8594C194.881 11.8594 195.639 12.6055 195.639 14.0977V18ZM194.326 15.0527L193.066 15.2285C192.676 15.2793 192.381 15.375 192.182 15.5156C191.986 15.6523 191.889 15.8945 191.889 16.2422C191.889 16.4961 191.979 16.7051 192.158 16.8691C192.342 17.0293 192.586 17.1094 192.891 17.1094C193.305 17.1094 193.646 16.9648 193.916 16.6758C194.189 16.3828 194.326 16.0156 194.326 15.5742V15.0527Z" fill="black"/>
<path d="M198.668 18H197.303V9.11719H198.668V18Z" fill="black"/>
<path d="M201.809 18H200.443V9.11719H201.809V18Z" fill="black"/>
<path d="M208.664 15.3691H204.574C204.59 15.9238 204.76 16.3516 205.084 16.6523C205.412 16.9531 205.861 17.1035 206.432 17.1035C207.072 17.1035 207.66 16.9121 208.195 16.5293V17.625C207.648 17.9688 206.926 18.1406 206.027 18.1406C205.145 18.1406 204.451 17.8691 203.947 17.3262C203.447 16.7793 203.197 16.0117 203.197 15.0234C203.197 14.0898 203.473 13.3301 204.023 12.7441C204.578 12.1543 205.266 11.8594 206.086 11.8594C206.906 11.8594 207.541 12.123 207.99 12.6504C208.439 13.1777 208.664 13.9102 208.664 14.8477V15.3691ZM207.352 14.4082C207.348 13.9199 207.232 13.541 207.006 13.2715C206.779 12.998 206.467 12.8613 206.068 12.8613C205.678 12.8613 205.346 13.0039 205.072 13.2891C204.803 13.5742 204.637 13.9473 204.574 14.4082H207.352Z" fill="black"/>
<path d="M213.439 13.2949C213.275 13.166 213.039 13.1016 212.73 13.1016C212.328 13.1016 211.992 13.2832 211.723 13.6465C211.453 14.0098 211.318 14.5039 211.318 15.1289V18H209.959V12H211.318V13.2363H211.342C211.475 12.8145 211.678 12.4863 211.951 12.252C212.229 12.0137 212.537 11.8945 212.877 11.8945C213.123 11.8945 213.311 11.9316 213.439 12.0059V13.2949Z" fill="black"/>
<rect x="417.5" y="8.5" width="23" height="13" rx="1.5" fill="url(#paint4_linear_117_7)"/>
<path d="M432 18.5H433.138L432.368 17.6617L429.9 14.9751L432.325 12.3385L433.097 11.5H431.957H430.79H430.565L430.416 11.6683L428.591 13.727L426.86 11.6774L426.71 11.5H426.478H425.219H424.094L424.848 12.3351L427.229 14.9718L424.64 17.6527L423.822 18.5H425H426.241H426.463L426.612 18.335L428.528 16.2122L430.377 18.3289L430.526 18.5H430.753H432Z" fill="white" stroke="#8C96AD"/>
<rect x="417.5" y="8.5" width="23" height="13" rx="1.5" stroke="#94AAC6"/>
<defs>
<linearGradient id="paint0_linear_117_7" x1="225" y1="0" x2="225" y2="210" gradientUnits="userSpaceOnUse">
<stop offset="0.0948993" stop-color="#B9CFE6"/>
<stop offset="0.563636" stop-color="#D6E3F7"/>
<stop offset="0.704545" stop-color="#DEEBF7"/>
<stop offset="1" stop-color="#BDD3EF"/>
</linearGradient>
<linearGradient id="paint1_linear_117_7" x1="306" y1="169" x2="306" y2="193" gradientUnits="userSpaceOnUse">
<stop offset="0.0260417" stop-color="#F6F6F6"/>
<stop offset="0.484375" stop-color="#E6E6E6"/>
<stop offset="0.822917" stop-color="#D0D0D0"/>
</linearGradient>
<linearGradient id="paint2_linear_117_7" x1="395" y1="169" x2="395" y2="193" gradientUnits="userSpaceOnUse">
<stop offset="0.0260417" stop-color="#F6F6F6"/>
<stop offset="0.484375" stop-color="#E6E6E6"/>
<stop offset="0.822917" stop-color="#D0D0D0"/>
</linearGradient>
<linearGradient id="paint3_linear_117_7" x1="225" y1="0" x2="225" y2="27" gradientUnits="userSpaceOnUse">
<stop stop-color="#98B4D0"/>
<stop offset="0.5" stop-color="#B1C8E0"/>
<stop offset="1" stop-color="#BCD2E9"/>
</linearGradient>
<linearGradient id="paint4_linear_117_7" x1="429" y1="8" x2="429" y2="22" gradientUnits="userSpaceOnUse">
<stop offset="0.365738" stop-color="#CEDFF7"/>
<stop offset="0.646993" stop-color="#B5CBE7"/>
<stop offset="1" stop-color="#C6DBF7"/>
</linearGradient>
<clipPath id="clip0_117_7">
<rect width="439" height="205" fill="white" transform="translate(5)"/>
</clipPath>
</defs>
</svg>
