<svg width="1280" height="720" style="background-color: white" xmlns="http://www.w3.org/2000/svg" xmlns:xlink="http://www.w3.org/1999/xlink" overflow="hidden"><defs><clipPath id="clip0"><rect x="0" y="0" width="1280" height="720"/></clipPath><clipPath id="clip1"><rect x="120" y="180" width="72" height="72"/></clipPath><clipPath id="clip2"><rect x="120" y="180" width="72" height="72"/></clipPath><clipPath id="clip3"><rect x="120" y="180" width="72" height="72"/></clipPath><linearGradient x1="156" y1="243.32" x2="156" y2="203.16" gradientUnits="userSpaceOnUse" spreadMethod="pad" id="fill4"><stop offset="0" stop-color="#32BEDD"/><stop offset="0.18" stop-color="#32CAEA"/><stop offset="0.41" stop-color="#32D2F2"/><stop offset="0.78" stop-color="#32D4F5"/><stop offset="1" stop-color="#32D4F5"/></linearGradient><clipPath id="clip5"><rect x="279" y="180" width="72" height="72"/></clipPath><clipPath id="clip6"><rect x="279" y="180" width="72" height="72"/></clipPath><clipPath id="clip7"><rect x="279" y="180" width="72" height="72"/></clipPath><linearGradient x1="315" y1="259.4" x2="315" y2="175.92" gradientUnits="userSpaceOnUse" spreadMethod="pad" id="fill8"><stop offset="0" stop-color="#5E9624"/><stop offset="0.02" stop-color="#5F9724"/><stop offset="1" stop-color="#76BC2D"/></linearGradient><clipPath id="clip9"><rect x="439" y="180" width="72" height="72"/></clipPath><clipPath id="clip10"><rect x="439" y="180" width="72" height="72"/></clipPath><clipPath id="clip11"><rect x="439" y="180" width="72" height="72"/></clipPath><linearGradient x1="471.024" y1="187.468" x2="471.024" y2="230.78" gradientUnits="userSpaceOnUse" spreadMethod="pad" id="fill12"><stop offset="0" stop-color="#5EA0EF"/><stop offset="1" stop-color="#0078D4"/></linearGradient><linearGradient x1="495.476" y1="215.604" x2="495.476" y2="247.492" gradientUnits="userSpaceOnUse" spreadMethod="pad" id="fill13"><stop offset="0" stop-color="#FAA21D"/><stop offset="0.4" stop-color="#F79415"/><stop offset="1" stop-color="#EF7100"/></linearGradient><clipPath id="clip14"><rect x="120" y="591" width="72" height="72"/></clipPath><clipPath id="clip15"><rect x="120" y="591" width="72" height="72"/></clipPath><clipPath id="clip16"><rect x="120" y="591" width="72" height="72"/></clipPath><linearGradient x1="156" y1="654.32" x2="156" y2="614.16" gradientUnits="userSpaceOnUse" spreadMethod="pad" id="fill17"><stop offset="0" stop-color="#32BEDD"/><stop offset="0.18" stop-color="#32CAEA"/><stop offset="0.41" stop-color="#32D2F2"/><stop offset="0.78" stop-color="#32D4F5"/><stop offset="1" stop-color="#32D4F5"/></linearGradient><clipPath id="clip18"><rect x="279" y="591" width="72" height="72"/></clipPath><clipPath id="clip19"><rect x="279" y="591" width="72" height="72"/></clipPath><clipPath id="clip20"><rect x="279" y="591" width="72" height="72"/></clipPath><linearGradient x1="315" y1="670.4" x2="315" y2="586.92" gradientUnits="userSpaceOnUse" spreadMethod="pad" id="fill21"><stop offset="0" stop-color="#5E9624"/><stop offset="0.02" stop-color="#5F9724"/><stop offset="1" stop-color="#76BC2D"/></linearGradient><clipPath id="clip22"><rect x="439" y="591" width="72" height="72"/></clipPath><clipPath id="clip23"><rect x="439" y="591" width="72" height="72"/></clipPath><clipPath id="clip24"><rect x="439" y="591" width="72" height="72"/></clipPath><linearGradient x1="471.024" y1="598.468" x2="471.024" y2="641.78" gradientUnits="userSpaceOnUse" spreadMethod="pad" id="fill25"><stop offset="0" stop-color="#5EA0EF"/><stop offset="1" stop-color="#0078D4"/></linearGradient><linearGradient x1="495.476" y1="626.604" x2="495.476" y2="658.492" gradientUnits="userSpaceOnUse" spreadMethod="pad" id="fill26"><stop offset="0" stop-color="#FAA21D"/><stop offset="0.4" stop-color="#F79415"/><stop offset="1" stop-color="#EF7100"/></linearGradient><clipPath id="clip27"><rect x="725" y="180" width="72" height="72"/></clipPath><clipPath id="clip28"><rect x="725" y="180" width="72" height="72"/></clipPath><clipPath id="clip29"><rect x="725" y="180" width="72" height="72"/></clipPath><linearGradient x1="761" y1="243.32" x2="761" y2="203.16" gradientUnits="userSpaceOnUse" spreadMethod="pad" id="fill30"><stop offset="0" stop-color="#32BEDD"/><stop offset="0.18" stop-color="#32CAEA"/><stop offset="0.41" stop-color="#32D2F2"/><stop offset="0.78" stop-color="#32D4F5"/><stop offset="1" stop-color="#32D4F5"/></linearGradient><clipPath id="clip31"><rect x="884" y="180" width="72" height="72"/></clipPath><clipPath id="clip32"><rect x="884" y="180" width="72" height="72"/></clipPath><clipPath id="clip33"><rect x="884" y="180" width="72" height="72"/></clipPath><linearGradient x1="920" y1="259.4" x2="920" y2="175.92" gradientUnits="userSpaceOnUse" spreadMethod="pad" id="fill34"><stop offset="0" stop-color="#5E9624"/><stop offset="0.02" stop-color="#5F9724"/><stop offset="1" stop-color="#76BC2D"/></linearGradient><clipPath id="clip35"><rect x="1044" y="180" width="72" height="72"/></clipPath><clipPath id="clip36"><rect x="1044" y="180" width="72" height="72"/></clipPath><clipPath id="clip37"><rect x="1044" y="180" width="72" height="72"/></clipPath><linearGradient x1="1076.02" y1="187.468" x2="1076.02" y2="230.78" gradientUnits="userSpaceOnUse" spreadMethod="pad" id="fill38"><stop offset="0" stop-color="#5EA0EF"/><stop offset="1" stop-color="#0078D4"/></linearGradient><linearGradient x1="1100.48" y1="215.604" x2="1100.48" y2="247.492" gradientUnits="userSpaceOnUse" spreadMethod="pad" id="fill39"><stop offset="0" stop-color="#FAA21D"/><stop offset="0.4" stop-color="#F79415"/><stop offset="1" stop-color="#EF7100"/></linearGradient><clipPath id="clip40"><rect x="725" y="591" width="72" height="72"/></clipPath><clipPath id="clip41"><rect x="725" y="591" width="72" height="72"/></clipPath><clipPath id="clip42"><rect x="725" y="591" width="72" height="72"/></clipPath><linearGradient x1="761" y1="654.32" x2="761" y2="614.16" gradientUnits="userSpaceOnUse" spreadMethod="pad" id="fill43"><stop offset="0" stop-color="#32BEDD"/><stop offset="0.18" stop-color="#32CAEA"/><stop offset="0.41" stop-color="#32D2F2"/><stop offset="0.78" stop-color="#32D4F5"/><stop offset="1" stop-color="#32D4F5"/></linearGradient><clipPath id="clip44"><rect x="884" y="591" width="72" height="72"/></clipPath><clipPath id="clip45"><rect x="884" y="591" width="72" height="72"/></clipPath><clipPath id="clip46"><rect x="884" y="591" width="72" height="72"/></clipPath><linearGradient x1="920" y1="670.4" x2="920" y2="586.92" gradientUnits="userSpaceOnUse" spreadMethod="pad" id="fill47"><stop offset="0" stop-color="#5E9624"/><stop offset="0.02" stop-color="#5F9724"/><stop offset="1" stop-color="#76BC2D"/></linearGradient><clipPath id="clip48"><rect x="1044" y="591" width="72" height="72"/></clipPath><clipPath id="clip49"><rect x="1044" y="591" width="72" height="72"/></clipPath><clipPath id="clip50"><rect x="1044" y="591" width="72" height="72"/></clipPath><linearGradient x1="1076.02" y1="598.468" x2="1076.02" y2="641.78" gradientUnits="userSpaceOnUse" spreadMethod="pad" id="fill51"><stop offset="0" stop-color="#5EA0EF"/><stop offset="1" stop-color="#0078D4"/></linearGradient><linearGradient x1="1100.48" y1="626.604" x2="1100.48" y2="658.492" gradientUnits="userSpaceOnUse" spreadMethod="pad" id="fill52"><stop offset="0" stop-color="#FAA21D"/><stop offset="0.4" stop-color="#F79415"/><stop offset="1" stop-color="#EF7100"/></linearGradient></defs><g clip-path="url(#clip0)"><rect x="0" y="0" width="1280" height="720" fill="#FFFFFF"/><path d="M192.5 216.167 267.409 216.167 267.409 216.833 192.5 216.833ZM266.076 209.833 279.409 216.5 266.076 223.167Z"/><path d="M351.5 216.167 427.394 216.167 427.394 216.833 351.5 216.833ZM426.061 209.833 439.394 216.5 426.061 223.167Z"/><g clip-path="url(#clip1)"><g clip-path="url(#clip2)"><g clip-path="url(#clip3)"><path d="M122 203.16 190 203.16 190 203.16 190 241.08C190 242.339 188.979 243.36 187.72 243.36L124.28 243.36C123.021 243.36 122 242.339 122 241.08L122 203.16 122 203.16Z" fill="url(#fill4)"/><path d="M124.28 188.68 187.72 188.68C188.979 188.68 190 189.701 190 190.96L190 203.16 190 203.16 122 203.16 122 203.16 122 190.92C122.022 189.676 123.036 188.68 124.28 188.68Z" fill="#767676"/><path d="M176.8 220.76C176.8 223.809 174.329 226.28 171.28 226.28 168.231 226.28 165.76 223.809 165.76 220.76 165.76 217.711 168.231 215.24 171.28 215.24 174.329 215.24 176.8 217.711 176.8 220.76Z" fill="#F2F2F2"/><path d="M161.76 220.76C161.76 223.809 159.289 226.28 156.24 226.28 153.191 226.28 150.72 223.809 150.72 220.76 150.72 217.711 153.191 215.24 156.24 215.24 159.289 215.24 161.76 217.711 161.76 220.76Z" fill="#F2F2F2"/><path d="M146.24 220.76C146.24 223.809 143.769 226.28 140.72 226.28 137.671 226.28 135.2 223.809 135.2 220.76 135.2 217.711 137.671 215.24 140.72 215.24 143.769 215.24 146.24 217.711 146.24 220.76Z" fill="#F2F2F2"/><path d="M179.76 193C180.379 193 180.88 193.501 180.88 194.12L180.88 197.72C180.88 198.339 180.379 198.84 179.76 198.84L132.28 198.84C131.661 198.84 131.16 198.339 131.16 197.72L131.16 194.12C131.16 193.501 131.661 193 132.28 193Z" fill="#F2F2F2"/></g></g></g><text font-family="Calibri,Calibri_MSFontService,sans-serif" font-weight="400" font-size="16" transform="translate(98.88 152)">Production</text><text font-family="Calibri,Calibri_MSFontService,sans-serif" font-weight="400" font-size="16" transform="translate(173.953 152)">p</text><text font-family="Calibri,Calibri_MSFontService,sans-serif" font-weight="400" font-size="16" transform="translate(182.287 152)">ubli</text><text font-family="Calibri,Calibri_MSFontService,sans-serif" font-weight="400" font-size="16" transform="translate(206.287 152)">c</text><text font-family="Calibri,Calibri_MSFontService,sans-serif" font-weight="400" font-size="16" transform="translate(122.853 171)">IP</text><text font-family="Calibri,Calibri_MSFontService,sans-serif" font-weight="400" font-size="16" transform="translate(138.853 171)">addres</text><text font-family="Calibri,Calibri_MSFontService,sans-serif" font-weight="400" font-size="16" transform="translate(182.807 171)">s</text><g clip-path="url(#clip5)"><g clip-path="url(#clip6)"><g clip-path="url(#clip7)"><path d="M279.72 214.28 313.28 180.72C314.204 179.77 315.724 179.749 316.674 180.674 316.689 180.689 316.705 180.704 316.72 180.72L350.28 214.28C351.23 215.204 351.251 216.724 350.326 217.674 350.311 217.689 350.296 217.705 350.28 217.72L316.68 251.32C315.747 252.235 314.253 252.235 313.32 251.32L279.72 217.72C278.77 216.796 278.749 215.276 279.674 214.326 279.689 214.311 279.704 214.295 279.72 214.28Z" fill="url(#fill8)"/><path d="M323.8 196 315.32 187.56C315.138 187.397 314.862 187.397 314.68 187.56L306.2 196C306.017 196.123 305.968 196.372 306.091 196.555 306.185 196.695 306.357 196.761 306.52 196.72L311.48 196.72C311.723 196.72 311.92 196.917 311.92 197.16L311.92 205.16C311.92 205.403 312.117 205.6 312.36 205.6L317.64 205.6C317.883 205.6 318.08 205.403 318.08 205.16L318.08 197.16C318.08 196.917 318.277 196.72 318.52 196.72L323.48 196.72C323.694 196.773 323.911 196.643 323.965 196.429 324.005 196.265 323.94 196.094 323.8 196Z" fill="#B4EC36"/><path d="M295 206.44 286.6 214.96C286.443 215.129 286.443 215.391 286.6 215.56L295 224C295.167 224.177 295.445 224.185 295.622 224.019 295.715 223.931 295.765 223.808 295.76 223.68L295.76 218.76C295.76 218.517 295.957 218.32 296.2 218.32L304.2 218.32C304.421 218.321 304.601 218.143 304.602 217.922 304.602 217.908 304.601 217.894 304.6 217.88L304.6 212.6C304.713 212.41 304.651 212.165 304.462 212.051 304.418 212.026 304.37 212.008 304.32 212L296.32 212C296.1 212.022 295.904 211.862 295.882 211.642 295.881 211.628 295.88 211.614 295.88 211.6L295.88 206.76C295.968 206.517 295.843 206.248 295.6 206.16 295.357 206.072 295.088 206.197 295 206.44Z" fill="#B4EC36"/><path d="M335.32 224 343.84 215.52C343.997 215.351 343.997 215.089 343.84 214.92L335.32 206.44C335.133 206.285 334.855 206.311 334.701 206.499 334.639 206.573 334.604 206.664 334.6 206.76L334.6 211.76C334.601 211.981 334.423 212.161 334.202 212.162 334.188 212.162 334.174 212.161 334.16 212.16L326.16 212.16C325.939 212.159 325.759 212.337 325.758 212.558 325.758 212.572 325.759 212.586 325.76 212.6L325.76 217.88C325.738 218.1 325.898 218.296 326.118 218.318 326.132 218.319 326.146 218.32 326.16 218.32L334.16 218.32C334.403 218.32 334.6 218.517 334.6 218.76L334.6 223.72C334.631 223.961 334.852 224.131 335.093 224.1 335.177 224.089 335.255 224.054 335.32 224Z" fill="#B4EC36"/><path d="M326.16 216C326.198 209.837 321.233 204.809 315.069 204.771 308.906 204.733 303.879 209.698 303.84 215.862 303.809 220.895 307.152 225.327 312 226.68L312 230.48C308.644 232.214 307.329 236.341 309.063 239.697 310.797 243.053 314.924 244.368 318.28 242.633 321.636 240.899 322.951 236.773 321.217 233.417 320.566 232.157 319.54 231.131 318.28 230.48L318.28 226.48C322.914 225.083 326.104 220.839 326.16 216Z" fill="#FFFFFF"/><path d="M321.52 215.96C321.52 219.539 318.619 222.44 315.04 222.44 311.461 222.44 308.56 219.539 308.56 215.96 308.56 212.381 311.461 209.48 315.04 209.48 318.619 209.48 321.52 212.381 321.52 215.96Z" fill="#5EA0EF"/></g></g></g><text font-family="Calibri,Calibri_MSFontService,sans-serif" font-weight="400" font-size="16" transform="translate(287.662 152)">Old load</text><text font-family="Calibri,Calibri_MSFontService,sans-serif" font-weight="400" font-size="16" transform="translate(286.909 171)">balancer</text><g clip-path="url(#clip9)"><g clip-path="url(#clip10)"><g clip-path="url(#clip11)"><path d="M477.548 231.128C477.559 221.231 485.579 213.211 495.476 213.2L495.476 213.2C498.095 213.212 500.678 213.805 503.04 214.936 501.856 208.82 496.942 204.116 490.78 203.2 490.507 193.097 482.124 185.113 472.02 185.332 464.035 185.251 456.87 190.223 454.152 197.732 445.519 198.86 439.047 206.193 439 214.9 439.27 224.638 447.378 232.316 457.116 232.056L477.644 232.056C477.628 231.74 477.548 231.448 477.548 231.128Z" fill="url(#fill12)"/><path d="M458.884 214.52C458.884 215.971 457.707 217.148 456.256 217.148 454.805 217.148 453.628 215.971 453.628 214.52 453.628 213.069 454.805 211.892 456.256 211.892 457.707 211.892 458.884 213.069 458.884 214.52Z" fill="#E3E3E3"/><path d="M465.508 215.52 465.508 213.412 465.212 213.412 462.952 212.672 462.36 211.228 463.508 208.8 462.028 207.32 461.732 207.32 459.624 208.4 458.2 207.82 457.272 205.268 455.144 205.268 455.144 205.564 454.404 207.82 452.848 208.4 450.448 207.252 448.968 208.732 448.968 209.028 450.04 211.136 449.448 212.58 446.856 213.504 446.856 215.8 447.152 215.8 449.412 216.54 450 218 448.852 220.444 450.332 221.924 450.628 221.924 452.74 220.848 454.18 221.44 455.108 224 457.216 224 457.216 223.704 457.956 221.444 459.4 220.852 461.844 222 463.324 220.52 463.324 220.224 462.248 218.116 462.84 216.672ZM456.256 218.592C454.029 218.572 452.24 216.751 452.26 214.524 452.28 212.297 454.101 210.508 456.328 210.528 458.555 210.548 460.344 212.369 460.324 214.596 460.304 216.795 458.527 218.572 456.328 218.592Z" fill="#FFFFFF"/><path d="M476.98 203.196C476.98 204.913 475.589 206.304 473.872 206.304 472.155 206.304 470.764 204.913 470.764 203.196 470.764 201.479 472.155 200.088 473.872 200.088 475.589 200.088 476.98 201.479 476.98 203.196Z" fill="#E3E3E3"/><path d="M484.976 204.4 484.976 201.864 484.64 201.864 481.904 201.012 481.272 199.124 482.644 196.164 480.868 194.4 480.532 194.4 477.98 195.696 476.276 194.992 475.168 191.92 472.54 191.92 472.54 192.288 471.652 194.992 469.912 195.696 467.024 194.324 465.248 196.1 465.432 196.436 466.468 199.172 465.876 201.024 462.768 202.024 462.768 204.724 463.14 204.724 465.84 205.6 466.468 207.268 465.1 210.228 466.952 212.116 467.32 211.932 469.836 210.636 471.576 211.336 472.688 214.408 475.204 214.408 475.204 214.04 476.092 211.336 477.832 210.636 480.756 212 482.532 210.224 482.348 209.892 481.272 207.224 481.976 205.488ZM473.872 208.08C471.175 208.08 468.988 205.893 468.988 203.196 468.988 200.499 471.175 198.312 473.872 198.312 476.569 198.312 478.756 200.499 478.756 203.196 478.756 203.197 478.756 203.199 478.756 203.2L478.756 203.2C478.776 205.873 476.629 208.058 473.956 208.084Z" fill="#FFFFFF"/><path d="M495.484 215.6 495.484 215.6C486.908 215.593 479.951 222.54 479.944 231.116 479.937 239.692 486.884 246.649 495.46 246.656 504.036 246.663 510.993 239.716 511 231.14 511 231.136 511 231.132 511 231.128 511 222.554 504.05 215.602 495.476 215.6Z" fill="url(#fill13)"/><path d="M503.4 222.46 494.248 222.516C493.95 222.502 493.697 222.732 493.684 223.03 493.676 223.185 493.736 223.336 493.848 223.444L497.14 226.672 491 232.828 487.776 229.54C487.565 229.326 487.221 229.323 487.007 229.533 486.904 229.634 486.845 229.772 486.844 229.916L486.788 239.068C486.788 239.472 487.116 239.8 487.52 239.8L496.672 239.744C496.97 239.744 497.212 239.502 497.212 239.204 497.212 239.203 497.212 239.201 497.212 239.2 497.215 239.051 497.157 238.906 497.052 238.8L493.76 235.572 499.916 229.416 503.144 232.704C503.36 232.916 503.707 232.913 503.919 232.697 504.016 232.599 504.072 232.467 504.076 232.328L504.132 223.176C504.123 222.778 503.798 222.46 503.4 222.46Z" fill="#FFFFFF"/></g></g></g><text font-family="Calibri,Calibri_MSFontService,sans-serif" font-weight="400" font-size="16" transform="translate(439.712 152)">Old</text><text font-family="Calibri,Calibri_MSFontService,sans-serif" font-weight="400" font-size="16" transform="translate(466.046 152)">cloud</text><text font-family="Calibri,Calibri_MSFontService,sans-serif" font-weight="400" font-size="16" transform="translate(422.519 171)">service version</text><text font-family="Calibri,Calibri_MSFontService,sans-serif" font-weight="700" font-size="24" transform="translate(174.763 112)">Production environment</text><rect x="157.5" y="271.5" width="290" height="80" stroke="#2F528F" stroke-width="1.33333" stroke-miterlimit="8" fill="none"/><text font-family="Calibri,Calibri_MSFontService,sans-serif" font-weight="700" font-size="15" transform="translate(166.5 290)">Public IP address:</text><text font-family="Calibri,Calibri_MSFontService,sans-serif" font-style="italic" font-weight="400" font-size="15" transform="translate(166.5 307)">xx</text><text font-family="Calibri,Calibri_MSFontService,sans-serif" font-weight="400" font-size="15" transform="translate(179.167 307)">.</text><text font-family="Calibri,Calibri_MSFontService,sans-serif" font-style="italic" font-weight="400" font-size="15" transform="translate(182.833 307)">xx</text><text font-family="Calibri,Calibri_MSFontService,sans-serif" font-weight="400" font-size="15" transform="translate(195.5 307)">.</text><text font-family="Calibri,Calibri_MSFontService,sans-serif" font-style="italic" font-weight="400" font-size="15" transform="translate(199.167 307)">xx</text><text font-family="Calibri,Calibri_MSFontService,sans-serif" font-weight="400" font-size="15" transform="translate(211.833 307)">.01</text><text font-family="Calibri,Calibri_MSFontService,sans-serif" font-weight="700" font-size="15" transform="translate(166.5 325)">Fully qualified domain name (FQDN):</text><text font-family="Calibri,Calibri_MSFontService,sans-serif" font-weight="400" font-size="15" transform="translate(166.5 343)">m</text><text font-family="Calibri,Calibri_MSFontService,sans-serif" font-weight="400" font-size="15" transform="translate(178.167 343)">yproddns</text><text font-family="Calibri,Calibri_MSFontService,sans-serif" font-weight="400" font-size="15" transform="translate(234 343)">.</text><text font-family="Calibri,Calibri_MSFontService,sans-serif" font-style="italic" font-weight="400" font-size="15" transform="translate(237.667 343)">&lt;region&gt;</text><text font-family="Calibri,Calibri_MSFontService,sans-serif" font-weight="400" font-size="15" transform="translate(290.167 343)">.cloudapp.azure.com</text><rect x="90.5001" y="87.5001" width="440" height="275" stroke="#000000" stroke-width="1.33333" stroke-miterlimit="8" fill="none"/><path d="M22.5001 210.5 111.5 210.5 111.5 204.5 123.5 216.5 111.5 228.5 111.5 222.5 22.5001 222.5Z" stroke="#2F528F" stroke-width="1.33333" stroke-miterlimit="8" fill="none" fill-rule="evenodd"/><path d="M176.5 244.5 176.5 268.833" stroke="#000000" stroke-width="0.666667" stroke-miterlimit="8" stroke-dasharray="2.66667 2" fill="none" fill-rule="evenodd"/><g clip-path="url(#clip14)"><g clip-path="url(#clip15)"><g clip-path="url(#clip16)"><path d="M122 614.16 190 614.16 190 614.16 190 652.08C190 653.339 188.979 654.36 187.72 654.36L124.28 654.36C123.021 654.36 122 653.339 122 652.08L122 614.16 122 614.16Z" fill="url(#fill17)"/><path d="M124.28 599.68 187.72 599.68C188.979 599.68 190 600.701 190 601.96L190 614.16 190 614.16 122 614.16 122 614.16 122 601.92C122.022 600.676 123.036 599.68 124.28 599.68Z" fill="#767676"/><path d="M176.8 631.76C176.8 634.809 174.329 637.28 171.28 637.28 168.231 637.28 165.76 634.809 165.76 631.76 165.76 628.711 168.231 626.24 171.28 626.24 174.329 626.24 176.8 628.711 176.8 631.76Z" fill="#F2F2F2"/><path d="M161.76 631.76C161.76 634.809 159.289 637.28 156.24 637.28 153.191 637.28 150.72 634.809 150.72 631.76 150.72 628.711 153.191 626.24 156.24 626.24 159.289 626.24 161.76 628.711 161.76 631.76Z" fill="#F2F2F2"/><path d="M146.24 631.76C146.24 634.809 143.769 637.28 140.72 637.28 137.671 637.28 135.2 634.809 135.2 631.76 135.2 628.711 137.671 626.24 140.72 626.24 143.769 626.24 146.24 628.711 146.24 631.76Z" fill="#F2F2F2"/><path d="M179.76 604C180.379 604 180.88 604.501 180.88 605.12L180.88 608.72C180.88 609.339 180.379 609.84 179.76 609.84L132.28 609.84C131.661 609.84 131.16 609.339 131.16 608.72L131.16 605.12C131.16 604.501 131.661 604 132.28 604Z" fill="#F2F2F2"/></g></g></g><text font-family="Calibri,Calibri_MSFontService,sans-serif" font-weight="400" font-size="16" transform="translate(103.013 678)">Staging</text><text font-family="Calibri,Calibri_MSFontService,sans-serif" font-weight="400" font-size="16" transform="translate(153.82 678)">p</text><text font-family="Calibri,Calibri_MSFontService,sans-serif" font-weight="400" font-size="16" transform="translate(162.153 678)">ubli</text><text font-family="Calibri,Calibri_MSFontService,sans-serif" font-weight="400" font-size="16" transform="translate(186.153 678)">c IP</text><text font-family="Calibri,Calibri_MSFontService,sans-serif" font-weight="400" font-size="16" transform="translate(130.853 697)">addres</text><text font-family="Calibri,Calibri_MSFontService,sans-serif" font-weight="400" font-size="16" transform="translate(174.807 697)">s</text><g clip-path="url(#clip18)"><g clip-path="url(#clip19)"><g clip-path="url(#clip20)"><path d="M279.72 625.28 313.28 591.72C314.204 590.77 315.724 590.749 316.674 591.674 316.689 591.689 316.705 591.704 316.72 591.72L350.28 625.28C351.23 626.204 351.251 627.724 350.326 628.674 350.311 628.689 350.296 628.705 350.28 628.72L316.68 662.32C315.747 663.235 314.253 663.235 313.32 662.32L279.72 628.72C278.77 627.796 278.749 626.276 279.674 625.326 279.689 625.311 279.704 625.295 279.72 625.28Z" fill="url(#fill21)"/><path d="M323.8 607 315.32 598.56C315.138 598.397 314.862 598.397 314.68 598.56L306.2 607C306.017 607.123 305.968 607.372 306.091 607.555 306.185 607.695 306.357 607.761 306.52 607.72L311.48 607.72C311.723 607.72 311.92 607.917 311.92 608.16L311.92 616.16C311.92 616.403 312.117 616.6 312.36 616.6L317.64 616.6C317.883 616.6 318.08 616.403 318.08 616.16L318.08 608.16C318.08 607.917 318.277 607.72 318.52 607.72L323.48 607.72C323.694 607.773 323.911 607.643 323.965 607.429 324.005 607.265 323.94 607.094 323.8 607Z" fill="#B4EC36"/><path d="M295 617.44 286.6 625.96C286.443 626.129 286.443 626.391 286.6 626.56L295 635C295.167 635.177 295.445 635.185 295.622 635.019 295.715 634.931 295.765 634.808 295.76 634.68L295.76 629.76C295.76 629.517 295.957 629.32 296.2 629.32L304.2 629.32C304.421 629.321 304.601 629.143 304.602 628.922 304.602 628.908 304.601 628.894 304.6 628.88L304.6 623.6C304.713 623.41 304.651 623.165 304.462 623.052 304.418 623.026 304.37 623.008 304.32 623L296.32 623C296.1 623.022 295.904 622.862 295.882 622.642 295.881 622.628 295.88 622.614 295.88 622.6L295.88 617.76C295.968 617.517 295.843 617.248 295.6 617.16 295.357 617.072 295.088 617.197 295 617.44Z" fill="#B4EC36"/><path d="M335.32 635 343.84 626.52C343.997 626.351 343.997 626.089 343.84 625.92L335.32 617.44C335.133 617.285 334.855 617.311 334.701 617.499 334.639 617.573 334.604 617.664 334.6 617.76L334.6 622.76C334.601 622.981 334.423 623.161 334.202 623.162 334.188 623.162 334.174 623.161 334.16 623.16L326.16 623.16C325.939 623.159 325.759 623.337 325.758 623.558 325.758 623.572 325.759 623.586 325.76 623.6L325.76 628.88C325.738 629.1 325.898 629.296 326.118 629.318 326.132 629.319 326.146 629.32 326.16 629.32L334.16 629.32C334.403 629.32 334.6 629.517 334.6 629.76L334.6 634.72C334.631 634.961 334.852 635.131 335.093 635.1 335.177 635.089 335.255 635.054 335.32 635Z" fill="#B4EC36"/><path d="M326.16 627C326.198 620.837 321.233 615.809 315.069 615.771 308.906 615.733 303.879 620.698 303.84 626.862 303.809 631.895 307.152 636.327 312 637.68L312 641.48C308.644 643.214 307.329 647.341 309.063 650.697 310.797 654.053 314.924 655.368 318.28 653.633 321.636 651.899 322.951 647.773 321.217 644.417 320.566 643.157 319.54 642.131 318.28 641.48L318.28 637.48C322.914 636.083 326.104 631.839 326.16 627Z" fill="#FFFFFF"/><path d="M321.52 626.96C321.52 630.539 318.619 633.44 315.04 633.44 311.461 633.44 308.56 630.539 308.56 626.96 308.56 623.381 311.461 620.48 315.04 620.48 318.619 620.48 321.52 623.381 321.52 626.96Z" fill="#5EA0EF"/></g></g></g><text font-family="Calibri,Calibri_MSFontService,sans-serif" font-weight="400" font-size="16" transform="translate(284.116 678)">New load</text><text font-family="Calibri,Calibri_MSFontService,sans-serif" font-weight="400" font-size="16" transform="translate(286.909 697)">balancer</text><g clip-path="url(#clip22)"><g clip-path="url(#clip23)"><g clip-path="url(#clip24)"><path d="M477.548 642.128C477.559 632.231 485.579 624.211 495.476 624.2L495.476 624.2C498.095 624.212 500.678 624.805 503.04 625.936 501.856 619.82 496.942 615.116 490.78 614.2 490.507 604.097 482.124 596.113 472.02 596.332 464.035 596.251 456.87 601.223 454.152 608.732 445.519 609.86 439.047 617.193 439 625.9 439.27 635.638 447.378 643.316 457.116 643.056L477.644 643.056C477.628 642.74 477.548 642.448 477.548 642.128Z" fill="url(#fill25)"/><path d="M458.884 625.52C458.884 626.971 457.707 628.148 456.256 628.148 454.805 628.148 453.628 626.971 453.628 625.52 453.628 624.069 454.805 622.892 456.256 622.892 457.707 622.892 458.884 624.069 458.884 625.52Z" fill="#E3E3E3"/><path d="M465.508 626.52 465.508 624.412 465.212 624.412 462.952 623.672 462.36 622.228 463.508 619.8 462.028 618.32 461.732 618.32 459.624 619.4 458.2 618.82 457.272 616.268 455.144 616.268 455.144 616.564 454.404 618.82 452.848 619.4 450.448 618.252 448.968 619.732 448.968 620.028 450.04 622.136 449.448 623.58 446.856 624.504 446.856 626.8 447.152 626.8 449.412 627.54 450 629 448.852 631.444 450.332 632.924 450.628 632.924 452.74 631.848 454.18 632.44 455.108 635 457.216 635 457.216 634.704 457.956 632.444 459.4 631.852 461.844 633 463.324 631.52 463.324 631.224 462.248 629.116 462.84 627.672ZM456.256 629.592C454.029 629.572 452.24 627.751 452.26 625.524 452.28 623.297 454.101 621.508 456.328 621.528 458.555 621.548 460.344 623.369 460.324 625.596 460.304 627.795 458.527 629.572 456.328 629.592Z" fill="#FFFFFF"/><path d="M476.98 614.196C476.98 615.912 475.589 617.304 473.872 617.304 472.155 617.304 470.764 615.912 470.764 614.196 470.764 612.479 472.155 611.088 473.872 611.088 475.589 611.088 476.98 612.479 476.98 614.196Z" fill="#E3E3E3"/><path d="M484.976 615.4 484.976 612.864 484.64 612.864 481.904 612.012 481.272 610.124 482.644 607.164 480.868 605.4 480.532 605.4 477.98 606.696 476.276 605.992 475.168 602.92 472.54 602.92 472.54 603.288 471.652 605.992 469.912 606.696 467.024 605.324 465.248 607.1 465.432 607.436 466.468 610.172 465.876 612.024 462.768 613.024 462.768 615.724 463.14 615.724 465.84 616.6 466.468 618.268 465.1 621.228 466.952 623.116 467.32 622.932 469.836 621.636 471.576 622.336 472.688 625.408 475.204 625.408 475.204 625.04 476.092 622.336 477.832 621.636 480.756 623 482.532 621.224 482.348 620.892 481.272 618.224 481.976 616.488ZM473.872 619.08C471.175 619.08 468.988 616.893 468.988 614.196 468.988 611.499 471.175 609.312 473.872 609.312 476.569 609.312 478.756 611.499 478.756 614.196 478.756 614.197 478.756 614.199 478.756 614.2L478.756 614.2C478.776 616.873 476.629 619.058 473.956 619.084Z" fill="#FFFFFF"/><path d="M495.484 626.6 495.484 626.6C486.908 626.593 479.951 633.54 479.944 642.116 479.937 650.692 486.884 657.649 495.46 657.656 504.036 657.663 510.993 650.716 511 642.14 511 642.136 511 642.132 511 642.128 511 633.554 504.05 626.602 495.476 626.6Z" fill="url(#fill26)"/><path d="M503.4 633.46 494.248 633.516C493.95 633.502 493.697 633.732 493.684 634.03 493.676 634.185 493.736 634.336 493.848 634.444L497.14 637.672 491 643.828 487.776 640.54C487.565 640.326 487.221 640.323 487.007 640.533 486.904 640.634 486.845 640.772 486.844 640.916L486.788 650.068C486.788 650.472 487.116 650.8 487.52 650.8L496.672 650.744C496.97 650.744 497.212 650.502 497.212 650.204 497.212 650.203 497.212 650.201 497.212 650.2 497.215 650.051 497.157 649.906 497.052 649.8L493.76 646.572 499.916 640.416 503.144 643.704C503.36 643.916 503.707 643.913 503.919 643.697 504.016 643.599 504.072 643.467 504.076 643.328L504.132 634.176C504.123 633.778 503.798 633.46 503.4 633.46Z" fill="#FFFFFF"/></g></g></g><text font-family="Calibri,Calibri_MSFontService,sans-serif" font-weight="400" font-size="16" transform="translate(436.166 678)">New cloud</text><text font-family="Calibri,Calibri_MSFontService,sans-serif" font-weight="400" font-size="16" transform="translate(422.519 697)">service version</text><path d="M192.5 627.167 267.409 627.167 267.409 627.833 192.5 627.833ZM266.076 620.833 279.409 627.5 266.076 634.167Z"/><path d="M351.5 627.167 427.394 627.167 427.394 627.833 351.5 627.833ZM426.061 620.833 439.394 627.5 426.061 634.167Z"/><text font-family="Calibri,Calibri_MSFontService,sans-serif" font-weight="700" font-size="24" transform="translate(193.149 466)">Staging environment</text><rect x="157.5" y="491.5" width="289" height="80" stroke="#2F528F" stroke-width="1.33333" stroke-miterlimit="8" fill="none"/><text font-family="Calibri,Calibri_MSFontService,sans-serif" font-weight="700" font-size="15" transform="translate(166.5 510)">Public IP address:</text><text font-family="Calibri,Calibri_MSFontService,sans-serif" font-style="italic" font-weight="400" font-size="15" transform="translate(166.5 527)">xx</text><text font-family="Calibri,Calibri_MSFontService,sans-serif" font-weight="400" font-size="15" transform="translate(179.167 527)">.</text><text font-family="Calibri,Calibri_MSFontService,sans-serif" font-style="italic" font-weight="400" font-size="15" transform="translate(182.833 527)">xx</text><text font-family="Calibri,Calibri_MSFontService,sans-serif" font-weight="400" font-size="15" transform="translate(195.5 527)">.</text><text font-family="Calibri,Calibri_MSFontService,sans-serif" font-style="italic" font-weight="400" font-size="15" transform="translate(199.167 527)">xx</text><text font-family="Calibri,Calibri_MSFontService,sans-serif" font-weight="400" font-size="15" transform="translate(211.833 527)">.02</text><text font-family="Calibri,Calibri_MSFontService,sans-serif" font-weight="700" font-size="15" transform="translate(166.5 545)">Fully qualified domain name (FQDN):</text><text font-family="Calibri,Calibri_MSFontService,sans-serif" font-weight="400" font-size="15" transform="translate(166.5 563)">m</text><text font-family="Calibri,Calibri_MSFontService,sans-serif" font-weight="400" font-size="15" transform="translate(178.167 563)">ystagingdns</text><text font-family="Calibri,Calibri_MSFontService,sans-serif" font-weight="400" font-size="15" transform="translate(248 563)">.</text><text font-family="Calibri,Calibri_MSFontService,sans-serif" font-style="italic" font-weight="400" font-size="15" transform="translate(251.667 563)">&lt;region&gt;</text><text font-family="Calibri,Calibri_MSFontService,sans-serif" font-weight="400" font-size="15" transform="translate(304.167 563)">.cloudapp.azure.com</text><rect x="90.5001" y="441.5" width="440" height="265" stroke="#000000" stroke-width="1.33333" stroke-miterlimit="8" fill="none"/><path d="M22.5001 622.25 112 622.25 112 616.5 123.5 628 112 639.5 112 633.75 22.5001 633.75Z" stroke="#2F528F" stroke-width="1.33333" stroke-miterlimit="8" fill="none" fill-rule="evenodd"/><path d="M176.5 576.5 176.5 600.833" stroke="#000000" stroke-width="0.666667" stroke-miterlimit="8" stroke-dasharray="2.66667 2" fill="none" fill-rule="evenodd"/><path d="M471 228.5 487.5 245 479.25 245 479.25 583 487.5 583 471 599.5 454.5 583 462.75 583 462.75 245 454.5 245Z" stroke="#2F528F" stroke-width="1.33333" stroke-miterlimit="8" fill="none" fill-rule="evenodd"/><text font-family="Calibri,Calibri_MSFontService,sans-serif" font-style="italic" font-weight="400" font-size="16" transform="translate(341.222 397)">Swappable cloud</text><text font-family="Calibri,Calibri_MSFontService,sans-serif" font-style="italic" font-weight="400" font-size="16" transform="translate(333.469 416)">service relationship</text><text font-family="Calibri,Calibri_MSFontService,sans-serif" font-weight="700" font-size="32" transform="translate(202.04 41)">Before V</text><text font-family="Calibri,Calibri_MSFontService,sans-serif" font-weight="700" font-size="32" transform="translate(316.127 41)">IP</text><text font-family="Calibri,Calibri_MSFontService,sans-serif" font-weight="700" font-size="32" transform="translate(348.793 41)">swap</text><path d="M797.5 216.167 872.409 216.167 872.409 216.833 797.5 216.833ZM871.076 209.833 884.409 216.5 871.076 223.167Z"/><path d="M956.5 216.167 1032.39 216.167 1032.39 216.833 956.5 216.833ZM1031.06 209.833 1044.39 216.5 1031.06 223.167Z"/><g clip-path="url(#clip27)"><g clip-path="url(#clip28)"><g clip-path="url(#clip29)"><path d="M727 203.16 795 203.16 795 203.16 795 241.08C795 242.339 793.979 243.36 792.72 243.36L729.28 243.36C728.021 243.36 727 242.339 727 241.08L727 203.16 727 203.16Z" fill="url(#fill30)"/><path d="M729.28 188.68 792.72 188.68C793.979 188.68 795 189.701 795 190.96L795 203.16 795 203.16 727 203.16 727 203.16 727 190.92C727.022 189.676 728.036 188.68 729.28 188.68Z" fill="#767676"/><path d="M781.8 220.76C781.8 223.809 779.329 226.28 776.28 226.28 773.231 226.28 770.76 223.809 770.76 220.76 770.76 217.711 773.231 215.24 776.28 215.24 779.329 215.24 781.8 217.711 781.8 220.76Z" fill="#F2F2F2"/><path d="M766.76 220.76C766.76 223.809 764.289 226.28 761.24 226.28 758.191 226.28 755.72 223.809 755.72 220.76 755.72 217.711 758.191 215.24 761.24 215.24 764.289 215.24 766.76 217.711 766.76 220.76Z" fill="#F2F2F2"/><path d="M751.24 220.76C751.24 223.809 748.769 226.28 745.72 226.28 742.671 226.28 740.2 223.809 740.2 220.76 740.2 217.711 742.671 215.24 745.72 215.24 748.769 215.24 751.24 217.711 751.24 220.76Z" fill="#F2F2F2"/><path d="M784.76 193C785.379 193 785.88 193.501 785.88 194.12L785.88 197.72C785.88 198.339 785.379 198.84 784.76 198.84L737.28 198.84C736.661 198.84 736.16 198.339 736.16 197.72L736.16 194.12C736.16 193.501 736.661 193 737.28 193Z" fill="#F2F2F2"/></g></g></g><text font-family="Calibri,Calibri_MSFontService,sans-serif" font-weight="400" font-size="16" transform="translate(708.104 152)">Staging</text><text font-family="Calibri,Calibri_MSFontService,sans-serif" font-weight="400" font-size="16" transform="translate(758.911 152)">p</text><text font-family="Calibri,Calibri_MSFontService,sans-serif" font-weight="400" font-size="16" transform="translate(767.244 152)">ubli</text><text font-family="Calibri,Calibri_MSFontService,sans-serif" font-weight="400" font-size="16" transform="translate(791.244 152)">c IP</text><text font-family="Calibri,Calibri_MSFontService,sans-serif" font-weight="400" font-size="16" transform="translate(735.944 171)">addres</text><text font-family="Calibri,Calibri_MSFontService,sans-serif" font-weight="400" font-size="16" transform="translate(779.898 171)">s</text><g clip-path="url(#clip31)"><g clip-path="url(#clip32)"><g clip-path="url(#clip33)"><path d="M884.72 214.28 918.28 180.72C919.204 179.77 920.724 179.749 921.674 180.674 921.689 180.689 921.705 180.704 921.72 180.72L955.28 214.28C956.23 215.204 956.251 216.724 955.326 217.674 955.311 217.689 955.296 217.705 955.28 217.72L921.68 251.32C920.747 252.235 919.253 252.235 918.32 251.32L884.72 217.72C883.77 216.796 883.749 215.276 884.674 214.326 884.689 214.311 884.704 214.295 884.72 214.28Z" fill="url(#fill34)"/><path d="M928.8 196 920.32 187.56C920.138 187.397 919.862 187.397 919.68 187.56L911.2 196C911.017 196.123 910.968 196.372 911.091 196.555 911.185 196.695 911.357 196.761 911.52 196.72L916.48 196.72C916.723 196.72 916.92 196.917 916.92 197.16L916.92 205.16C916.92 205.403 917.117 205.6 917.36 205.6L922.64 205.6C922.883 205.6 923.08 205.403 923.08 205.16L923.08 197.16C923.08 196.917 923.277 196.72 923.52 196.72L928.48 196.72C928.694 196.773 928.911 196.643 928.965 196.429 929.005 196.265 928.94 196.094 928.8 196Z" fill="#B4EC36"/><path d="M900 206.44 891.6 214.96C891.443 215.129 891.443 215.391 891.6 215.56L900 224C900.167 224.177 900.445 224.185 900.622 224.019 900.715 223.931 900.765 223.808 900.76 223.68L900.76 218.76C900.76 218.517 900.957 218.32 901.2 218.32L909.2 218.32C909.421 218.321 909.601 218.143 909.602 217.922 909.602 217.908 909.601 217.894 909.6 217.88L909.6 212.6C909.713 212.41 909.651 212.165 909.462 212.051 909.418 212.026 909.37 212.008 909.32 212L901.32 212C901.1 212.022 900.904 211.862 900.882 211.642 900.881 211.628 900.88 211.614 900.88 211.6L900.88 206.76C900.968 206.517 900.843 206.248 900.6 206.16 900.357 206.072 900.088 206.197 900 206.44Z" fill="#B4EC36"/><path d="M940.32 224 948.84 215.52C948.997 215.351 948.997 215.089 948.84 214.92L940.32 206.44C940.133 206.285 939.855 206.311 939.701 206.499 939.639 206.573 939.604 206.664 939.6 206.76L939.6 211.76C939.601 211.981 939.423 212.161 939.202 212.162 939.188 212.162 939.174 212.161 939.16 212.16L931.16 212.16C930.939 212.159 930.759 212.337 930.758 212.558 930.758 212.572 930.759 212.586 930.76 212.6L930.76 217.88C930.738 218.1 930.898 218.296 931.118 218.318 931.132 218.319 931.146 218.32 931.16 218.32L939.16 218.32C939.403 218.32 939.6 218.517 939.6 218.76L939.6 223.72C939.631 223.961 939.852 224.131 940.093 224.1 940.177 224.089 940.255 224.054 940.32 224Z" fill="#B4EC36"/><path d="M931.16 216C931.198 209.837 926.233 204.809 920.069 204.771 913.906 204.733 908.879 209.698 908.84 215.862 908.809 220.895 912.152 225.327 917 226.68L917 230.48C913.644 232.214 912.329 236.341 914.063 239.697 915.797 243.053 919.924 244.368 923.28 242.633 926.636 240.899 927.951 236.773 926.217 233.417 925.566 232.157 924.54 231.131 923.28 230.48L923.28 226.48C927.914 225.083 931.104 220.839 931.16 216Z" fill="#FFFFFF"/><path d="M926.52 215.96C926.52 219.539 923.619 222.44 920.04 222.44 916.461 222.44 913.56 219.539 913.56 215.96 913.56 212.381 916.461 209.48 920.04 209.48 923.619 209.48 926.52 212.381 926.52 215.96Z" fill="#5EA0EF"/></g></g></g><text font-family="Calibri,Calibri_MSFontService,sans-serif" font-weight="400" font-size="16" transform="translate(892.753 152)">Old load</text><text font-family="Calibri,Calibri_MSFontService,sans-serif" font-weight="400" font-size="16" transform="translate(892 171)">balancer</text><g clip-path="url(#clip35)"><g clip-path="url(#clip36)"><g clip-path="url(#clip37)"><path d="M1082.55 231.128C1082.56 221.231 1090.58 213.211 1100.48 213.2L1100.48 213.2C1103.09 213.212 1105.68 213.805 1108.04 214.936 1106.86 208.82 1101.94 204.116 1095.78 203.2 1095.51 193.097 1087.12 185.113 1077.02 185.332 1069.03 185.251 1061.87 190.223 1059.15 197.732 1050.52 198.86 1044.05 206.193 1044 214.9 1044.27 224.638 1052.38 232.316 1062.12 232.056L1082.64 232.056C1082.63 231.74 1082.55 231.448 1082.55 231.128Z" fill="url(#fill38)"/><path d="M1063.88 214.52C1063.88 215.971 1062.71 217.148 1061.26 217.148 1059.8 217.148 1058.63 215.971 1058.63 214.52 1058.63 213.069 1059.8 211.892 1061.26 211.892 1062.71 211.892 1063.88 213.069 1063.88 214.52Z" fill="#E3E3E3"/><path d="M1070.51 215.52 1070.51 213.412 1070.21 213.412 1067.95 212.672 1067.36 211.228 1068.51 208.8 1067.03 207.32 1066.73 207.32 1064.62 208.4 1063.2 207.82 1062.27 205.268 1060.14 205.268 1060.14 205.564 1059.4 207.82 1057.85 208.4 1055.45 207.252 1053.97 208.732 1053.97 209.028 1055.04 211.136 1054.45 212.58 1051.86 213.504 1051.86 215.8 1052.15 215.8 1054.41 216.54 1055 218 1053.85 220.444 1055.33 221.924 1055.63 221.924 1057.74 220.848 1059.18 221.44 1060.11 224 1062.22 224 1062.22 223.704 1062.96 221.444 1064.4 220.852 1066.84 222 1068.32 220.52 1068.32 220.224 1067.25 218.116 1067.84 216.672ZM1061.26 218.592C1059.03 218.572 1057.24 216.751 1057.26 214.524 1057.28 212.297 1059.1 210.508 1061.33 210.528 1063.55 210.548 1065.34 212.369 1065.32 214.596 1065.3 216.795 1063.53 218.572 1061.33 218.592Z" fill="#FFFFFF"/><path d="M1081.98 203.196C1081.98 204.913 1080.59 206.304 1078.87 206.304 1077.16 206.304 1075.76 204.913 1075.76 203.196 1075.76 201.479 1077.16 200.088 1078.87 200.088 1080.59 200.088 1081.98 201.479 1081.98 203.196Z" fill="#E3E3E3"/><path d="M1089.98 204.4 1089.98 201.864 1089.64 201.864 1086.9 201.012 1086.27 199.124 1087.64 196.164 1085.87 194.4 1085.53 194.4 1082.98 195.696 1081.28 194.992 1080.17 191.92 1077.54 191.92 1077.54 192.288 1076.65 194.992 1074.91 195.696 1072.02 194.324 1070.25 196.1 1070.43 196.436 1071.47 199.172 1070.88 201.024 1067.77 202.024 1067.77 204.724 1068.14 204.724 1070.84 205.6 1071.47 207.268 1070.1 210.228 1071.95 212.116 1072.32 211.932 1074.84 210.636 1076.58 211.336 1077.69 214.408 1080.2 214.408 1080.2 214.04 1081.09 211.336 1082.83 210.636 1085.76 212 1087.53 210.224 1087.35 209.892 1086.27 207.224 1086.98 205.488ZM1078.87 208.08C1076.17 208.08 1073.99 205.893 1073.99 203.196 1073.99 200.499 1076.17 198.312 1078.87 198.312 1081.57 198.312 1083.76 200.499 1083.76 203.196 1083.76 203.197 1083.76 203.199 1083.76 203.2L1083.76 203.2C1083.78 205.873 1081.63 208.058 1078.96 208.084Z" fill="#FFFFFF"/><path d="M1100.48 215.6 1100.48 215.6C1091.91 215.593 1084.95 222.54 1084.94 231.116 1084.94 239.692 1091.88 246.649 1100.46 246.656 1109.04 246.663 1115.99 239.716 1116 231.14 1116 231.136 1116 231.132 1116 231.128 1116 222.554 1109.05 215.602 1100.48 215.6Z" fill="url(#fill39)"/><path d="M1108.4 222.46 1099.25 222.516C1098.95 222.502 1098.7 222.732 1098.68 223.03 1098.68 223.185 1098.74 223.336 1098.85 223.444L1102.14 226.672 1096 232.828 1092.78 229.54C1092.57 229.326 1092.22 229.323 1092.01 229.533 1091.9 229.634 1091.85 229.772 1091.84 229.916L1091.79 239.068C1091.79 239.472 1092.12 239.8 1092.52 239.8L1101.67 239.744C1101.97 239.744 1102.21 239.502 1102.21 239.204 1102.21 239.203 1102.21 239.201 1102.21 239.2 1102.21 239.051 1102.16 238.906 1102.05 238.8L1098.76 235.572 1104.92 229.416 1108.14 232.704C1108.36 232.916 1108.71 232.913 1108.92 232.697 1109.02 232.599 1109.07 232.467 1109.08 232.328L1109.13 223.176C1109.12 222.778 1108.8 222.46 1108.4 222.46Z" fill="#FFFFFF"/></g></g></g><text font-family="Calibri,Calibri_MSFontService,sans-serif" font-weight="400" font-size="16" transform="translate(1044.8 152)">Old</text><text font-family="Calibri,Calibri_MSFontService,sans-serif" font-weight="400" font-size="16" transform="translate(1071.14 152)">cloud</text><text font-family="Calibri,Calibri_MSFontService,sans-serif" font-weight="400" font-size="16" transform="translate(1027.61 171)">service version</text><text font-family="Calibri,Calibri_MSFontService,sans-serif" font-weight="700" font-size="24" transform="translate(798.24 112)">Staging environment</text><rect x="762.5" y="271.5" width="290" height="80" stroke="#2F528F" stroke-width="1.33333" stroke-miterlimit="8" fill="none"/><text font-family="Calibri,Calibri_MSFontService,sans-serif" font-weight="700" font-size="15" transform="translate(771.591 290)">Public IP address:</text><text font-family="Calibri,Calibri_MSFontService,sans-serif" font-style="italic" font-weight="400" font-size="15" transform="translate(771.591 307)">xx</text><text font-family="Calibri,Calibri_MSFontService,sans-serif" font-weight="400" font-size="15" transform="translate(784.258 307)">.</text><text font-family="Calibri,Calibri_MSFontService,sans-serif" font-style="italic" font-weight="400" font-size="15" transform="translate(787.924 307)">xx</text><text font-family="Calibri,Calibri_MSFontService,sans-serif" font-weight="400" font-size="15" transform="translate(800.591 307)">.</text><text font-family="Calibri,Calibri_MSFontService,sans-serif" font-style="italic" font-weight="400" font-size="15" transform="translate(804.258 307)">xx</text><text font-family="Calibri,Calibri_MSFontService,sans-serif" font-weight="400" font-size="15" transform="translate(816.924 307)">.02</text><text font-family="Calibri,Calibri_MSFontService,sans-serif" font-weight="700" font-size="15" transform="translate(771.591 325)">Fully qualified domain name (FQDN):</text><text font-family="Calibri,Calibri_MSFontService,sans-serif" font-weight="400" font-size="15" transform="translate(771.591 343)">m</text><text font-family="Calibri,Calibri_MSFontService,sans-serif" font-weight="400" font-size="15" transform="translate(783.258 343)">ystagingdns</text><text font-family="Calibri,Calibri_MSFontService,sans-serif" font-weight="400" font-size="15" transform="translate(853.091 343)">.</text><text font-family="Calibri,Calibri_MSFontService,sans-serif" font-style="italic" font-weight="400" font-size="15" transform="translate(856.758 343)">&lt;region&gt;</text><text font-family="Calibri,Calibri_MSFontService,sans-serif" font-weight="400" font-size="15" transform="translate(909.258 343)">.cloudapp.azure.com</text><rect x="695.5" y="87.5001" width="440" height="275" stroke="#000000" stroke-width="1.33333" stroke-miterlimit="8" fill="none"/><path d="M627.5 210.5 716.5 210.5 716.5 204.5 728.5 216.5 716.5 228.5 716.5 222.5 627.5 222.5Z" stroke="#2F528F" stroke-width="1.33333" stroke-miterlimit="8" fill="none" fill-rule="evenodd"/><path d="M781.5 244.5 781.5 268.833" stroke="#000000" stroke-width="0.666667" stroke-miterlimit="8" stroke-dasharray="2.66667 2" fill="none" fill-rule="evenodd"/><g clip-path="url(#clip40)"><g clip-path="url(#clip41)"><g clip-path="url(#clip42)"><path d="M727 614.16 795 614.16 795 614.16 795 652.08C795 653.339 793.979 654.36 792.72 654.36L729.28 654.36C728.021 654.36 727 653.339 727 652.08L727 614.16 727 614.16Z" fill="url(#fill43)"/><path d="M729.28 599.68 792.72 599.68C793.979 599.68 795 600.701 795 601.96L795 614.16 795 614.16 727 614.16 727 614.16 727 601.92C727.022 600.676 728.036 599.68 729.28 599.68Z" fill="#767676"/><path d="M781.8 631.76C781.8 634.809 779.329 637.28 776.28 637.28 773.231 637.28 770.76 634.809 770.76 631.76 770.76 628.711 773.231 626.24 776.28 626.24 779.329 626.24 781.8 628.711 781.8 631.76Z" fill="#F2F2F2"/><path d="M766.76 631.76C766.76 634.809 764.289 637.28 761.24 637.28 758.191 637.28 755.72 634.809 755.72 631.76 755.72 628.711 758.191 626.24 761.24 626.24 764.289 626.24 766.76 628.711 766.76 631.76Z" fill="#F2F2F2"/><path d="M751.24 631.76C751.24 634.809 748.769 637.28 745.72 637.28 742.671 637.28 740.2 634.809 740.2 631.76 740.2 628.711 742.671 626.24 745.72 626.24 748.769 626.24 751.24 628.711 751.24 631.76Z" fill="#F2F2F2"/><path d="M784.76 604C785.379 604 785.88 604.501 785.88 605.12L785.88 608.72C785.88 609.339 785.379 609.84 784.76 609.84L737.28 609.84C736.661 609.84 736.16 609.339 736.16 608.72L736.16 605.12C736.16 604.501 736.661 604 737.28 604Z" fill="#F2F2F2"/></g></g></g><text font-family="Calibri,Calibri_MSFontService,sans-serif" font-weight="400" font-size="16" transform="translate(703.971 678)">Production</text><text font-family="Calibri,Calibri_MSFontService,sans-serif" font-weight="400" font-size="16" transform="translate(779.044 678)">p</text><text font-family="Calibri,Calibri_MSFontService,sans-serif" font-weight="400" font-size="16" transform="translate(787.378 678)">ubli</text><text font-family="Calibri,Calibri_MSFontService,sans-serif" font-weight="400" font-size="16" transform="translate(811.378 678)">c</text><text font-family="Calibri,Calibri_MSFontService,sans-serif" font-weight="400" font-size="16" transform="translate(727.944 697)">IP</text><text font-family="Calibri,Calibri_MSFontService,sans-serif" font-weight="400" font-size="16" transform="translate(743.944 697)">addres</text><text font-family="Calibri,Calibri_MSFontService,sans-serif" font-weight="400" font-size="16" transform="translate(787.898 697)">s</text><g clip-path="url(#clip44)"><g clip-path="url(#clip45)"><g clip-path="url(#clip46)"><path d="M884.72 625.28 918.28 591.72C919.204 590.77 920.724 590.749 921.674 591.674 921.689 591.689 921.705 591.704 921.72 591.72L955.28 625.28C956.23 626.204 956.251 627.724 955.326 628.674 955.311 628.689 955.296 628.705 955.28 628.72L921.68 662.32C920.747 663.235 919.253 663.235 918.32 662.32L884.72 628.72C883.77 627.796 883.749 626.276 884.674 625.326 884.689 625.311 884.704 625.295 884.72 625.28Z" fill="url(#fill47)"/><path d="M928.8 607 920.32 598.56C920.138 598.397 919.862 598.397 919.68 598.56L911.2 607C911.017 607.123 910.968 607.372 911.091 607.555 911.185 607.695 911.357 607.761 911.52 607.72L916.48 607.72C916.723 607.72 916.92 607.917 916.92 608.16L916.92 616.16C916.92 616.403 917.117 616.6 917.36 616.6L922.64 616.6C922.883 616.6 923.08 616.403 923.08 616.16L923.08 608.16C923.08 607.917 923.277 607.72 923.52 607.72L928.48 607.72C928.694 607.773 928.911 607.643 928.965 607.429 929.005 607.265 928.94 607.094 928.8 607Z" fill="#B4EC36"/><path d="M900 617.44 891.6 625.96C891.443 626.129 891.443 626.391 891.6 626.56L900 635C900.167 635.177 900.445 635.185 900.622 635.019 900.715 634.931 900.765 634.808 900.76 634.68L900.76 629.76C900.76 629.517 900.957 629.32 901.2 629.32L909.2 629.32C909.421 629.321 909.601 629.143 909.602 628.922 909.602 628.908 909.601 628.894 909.6 628.88L909.6 623.6C909.713 623.41 909.651 623.165 909.462 623.052 909.418 623.026 909.37 623.008 909.32 623L901.32 623C901.1 623.022 900.904 622.862 900.882 622.642 900.881 622.628 900.88 622.614 900.88 622.6L900.88 617.76C900.968 617.517 900.843 617.248 900.6 617.16 900.357 617.072 900.088 617.197 900 617.44Z" fill="#B4EC36"/><path d="M940.32 635 948.84 626.52C948.997 626.351 948.997 626.089 948.84 625.92L940.32 617.44C940.133 617.285 939.855 617.311 939.701 617.499 939.639 617.573 939.604 617.664 939.6 617.76L939.6 622.76C939.601 622.981 939.423 623.161 939.202 623.162 939.188 623.162 939.174 623.161 939.16 623.16L931.16 623.16C930.939 623.159 930.759 623.337 930.758 623.558 930.758 623.572 930.759 623.586 930.76 623.6L930.76 628.88C930.738 629.1 930.898 629.296 931.118 629.318 931.132 629.319 931.146 629.32 931.16 629.32L939.16 629.32C939.403 629.32 939.6 629.517 939.6 629.76L939.6 634.72C939.631 634.961 939.852 635.131 940.093 635.1 940.177 635.089 940.255 635.054 940.32 635Z" fill="#B4EC36"/><path d="M931.16 627C931.198 620.837 926.233 615.809 920.069 615.771 913.906 615.733 908.879 620.698 908.84 626.862 908.809 631.895 912.152 636.327 917 637.68L917 641.48C913.644 643.214 912.329 647.341 914.063 650.697 915.797 654.053 919.924 655.368 923.28 653.633 926.636 651.899 927.951 647.773 926.217 644.417 925.566 643.157 924.54 642.131 923.28 641.48L923.28 637.48C927.914 636.083 931.104 631.839 931.16 627Z" fill="#FFFFFF"/><path d="M926.52 626.96C926.52 630.539 923.619 633.44 920.04 633.44 916.461 633.44 913.56 630.539 913.56 626.96 913.56 623.381 916.461 620.48 920.04 620.48 923.619 620.48 926.52 623.381 926.52 626.96Z" fill="#5EA0EF"/></g></g></g><text font-family="Calibri,Calibri_MSFontService,sans-serif" font-weight="400" font-size="16" transform="translate(889.207 678)">New load</text><text font-family="Calibri,Calibri_MSFontService,sans-serif" font-weight="400" font-size="16" transform="translate(892 697)">balancer</text><g clip-path="url(#clip48)"><g clip-path="url(#clip49)"><g clip-path="url(#clip50)"><path d="M1082.55 642.128C1082.56 632.231 1090.58 624.211 1100.48 624.2L1100.48 624.2C1103.09 624.212 1105.68 624.805 1108.04 625.936 1106.86 619.82 1101.94 615.116 1095.78 614.2 1095.51 604.097 1087.12 596.113 1077.02 596.332 1069.03 596.251 1061.87 601.223 1059.15 608.732 1050.52 609.86 1044.05 617.193 1044 625.9 1044.27 635.638 1052.38 643.316 1062.12 643.056L1082.64 643.056C1082.63 642.74 1082.55 642.448 1082.55 642.128Z" fill="url(#fill51)"/><path d="M1063.88 625.52C1063.88 626.971 1062.71 628.148 1061.26 628.148 1059.8 628.148 1058.63 626.971 1058.63 625.52 1058.63 624.069 1059.8 622.892 1061.26 622.892 1062.71 622.892 1063.88 624.069 1063.88 625.52Z" fill="#E3E3E3"/><path d="M1070.51 626.52 1070.51 624.412 1070.21 624.412 1067.95 623.672 1067.36 622.228 1068.51 619.8 1067.03 618.32 1066.73 618.32 1064.62 619.4 1063.2 618.82 1062.27 616.268 1060.14 616.268 1060.14 616.564 1059.4 618.82 1057.85 619.4 1055.45 618.252 1053.97 619.732 1053.97 620.028 1055.04 622.136 1054.45 623.58 1051.86 624.504 1051.86 626.8 1052.15 626.8 1054.41 627.54 1055 629 1053.85 631.444 1055.33 632.924 1055.63 632.924 1057.74 631.848 1059.18 632.44 1060.11 635 1062.22 635 1062.22 634.704 1062.96 632.444 1064.4 631.852 1066.84 633 1068.32 631.52 1068.32 631.224 1067.25 629.116 1067.84 627.672ZM1061.26 629.592C1059.03 629.572 1057.24 627.751 1057.26 625.524 1057.28 623.297 1059.1 621.508 1061.33 621.528 1063.55 621.548 1065.34 623.369 1065.32 625.596 1065.3 627.795 1063.53 629.572 1061.33 629.592Z" fill="#FFFFFF"/><path d="M1081.98 614.196C1081.98 615.912 1080.59 617.304 1078.87 617.304 1077.16 617.304 1075.76 615.912 1075.76 614.196 1075.76 612.479 1077.16 611.088 1078.87 611.088 1080.59 611.088 1081.98 612.479 1081.98 614.196Z" fill="#E3E3E3"/><path d="M1089.98 615.4 1089.98 612.864 1089.64 612.864 1086.9 612.012 1086.27 610.124 1087.64 607.164 1085.87 605.4 1085.53 605.4 1082.98 606.696 1081.28 605.992 1080.17 602.92 1077.54 602.92 1077.54 603.288 1076.65 605.992 1074.91 606.696 1072.02 605.324 1070.25 607.1 1070.43 607.436 1071.47 610.172 1070.88 612.024 1067.77 613.024 1067.77 615.724 1068.14 615.724 1070.84 616.6 1071.47 618.268 1070.1 621.228 1071.95 623.116 1072.32 622.932 1074.84 621.636 1076.58 622.336 1077.69 625.408 1080.2 625.408 1080.2 625.04 1081.09 622.336 1082.83 621.636 1085.76 623 1087.53 621.224 1087.35 620.892 1086.27 618.224 1086.98 616.488ZM1078.87 619.08C1076.17 619.08 1073.99 616.893 1073.99 614.196 1073.99 611.499 1076.17 609.312 1078.87 609.312 1081.57 609.312 1083.76 611.499 1083.76 614.196 1083.76 614.197 1083.76 614.199 1083.76 614.2L1083.76 614.2C1083.78 616.873 1081.63 619.058 1078.96 619.084Z" fill="#FFFFFF"/><path d="M1100.48 626.6 1100.48 626.6C1091.91 626.593 1084.95 633.54 1084.94 642.116 1084.94 650.692 1091.88 657.649 1100.46 657.656 1109.04 657.663 1115.99 650.716 1116 642.14 1116 642.136 1116 642.132 1116 642.128 1116 633.554 1109.05 626.602 1100.48 626.6Z" fill="url(#fill52)"/><path d="M1108.4 633.46 1099.25 633.516C1098.95 633.502 1098.7 633.732 1098.68 634.03 1098.68 634.185 1098.74 634.336 1098.85 634.444L1102.14 637.672 1096 643.828 1092.78 640.54C1092.57 640.326 1092.22 640.323 1092.01 640.533 1091.9 640.634 1091.85 640.772 1091.84 640.916L1091.79 650.068C1091.79 650.472 1092.12 650.8 1092.52 650.8L1101.67 650.744C1101.97 650.744 1102.21 650.502 1102.21 650.204 1102.21 650.203 1102.21 650.201 1102.21 650.2 1102.21 650.051 1102.16 649.906 1102.05 649.8L1098.76 646.572 1104.92 640.416 1108.14 643.704C1108.36 643.916 1108.71 643.913 1108.92 643.697 1109.02 643.599 1109.07 643.467 1109.08 643.328L1109.13 634.176C1109.12 633.778 1108.8 633.46 1108.4 633.46Z" fill="#FFFFFF"/></g></g></g><text font-family="Calibri,Calibri_MSFontService,sans-serif" font-weight="400" font-size="16" transform="translate(1041.26 678)">New cloud</text><text font-family="Calibri,Calibri_MSFontService,sans-serif" font-weight="400" font-size="16" transform="translate(1027.61 697)">service version</text><path d="M797.5 627.167 872.409 627.167 872.409 627.833 797.5 627.833ZM871.076 620.833 884.409 627.5 871.076 634.167Z"/><path d="M956.5 627.167 1032.39 627.167 1032.39 627.833 956.5 627.833ZM1031.06 620.833 1044.39 627.5 1031.06 634.167Z"/><text font-family="Calibri,Calibri_MSFontService,sans-serif" font-weight="700" font-size="24" transform="translate(779.854 466)">Production environment</text><rect x="762.5" y="491.5" width="290" height="80" stroke="#2F528F" stroke-width="1.33333" stroke-miterlimit="8" fill="none"/><text font-family="Calibri,Calibri_MSFontService,sans-serif" font-weight="700" font-size="15" transform="translate(771.591 510)">Public IP address:</text><text font-family="Calibri,Calibri_MSFontService,sans-serif" font-style="italic" font-weight="400" font-size="15" transform="translate(771.591 527)">xx</text><text font-family="Calibri,Calibri_MSFontService,sans-serif" font-weight="400" font-size="15" transform="translate(784.258 527)">.</text><text font-family="Calibri,Calibri_MSFontService,sans-serif" font-style="italic" font-weight="400" font-size="15" transform="translate(787.924 527)">xx</text><text font-family="Calibri,Calibri_MSFontService,sans-serif" font-weight="400" font-size="15" transform="translate(800.591 527)">.</text><text font-family="Calibri,Calibri_MSFontService,sans-serif" font-style="italic" font-weight="400" font-size="15" transform="translate(804.258 527)">xx</text><text font-family="Calibri,Calibri_MSFontService,sans-serif" font-weight="400" font-size="15" transform="translate(816.924 527)">.01</text><text font-family="Calibri,Calibri_MSFontService,sans-serif" font-weight="700" font-size="15" transform="translate(771.591 545)">Fully qualified domain name (FQDN):</text><text font-family="Calibri,Calibri_MSFontService,sans-serif" font-weight="400" font-size="15" transform="translate(771.591 563)">m</text><text font-family="Calibri,Calibri_MSFontService,sans-serif" font-weight="400" font-size="15" transform="translate(783.258 563)">yproddns</text><text font-family="Calibri,Calibri_MSFontService,sans-serif" font-weight="400" font-size="15" transform="translate(839.091 563)">.</text><text font-family="Calibri,Calibri_MSFontService,sans-serif" font-style="italic" font-weight="400" font-size="15" transform="translate(842.758 563)">&lt;region&gt;</text><text font-family="Calibri,Calibri_MSFontService,sans-serif" font-weight="400" font-size="15" transform="translate(895.258 563)">.cloudapp.azure.com</text><rect x="695.5" y="441.5" width="440" height="265" stroke="#000000" stroke-width="1.33333" stroke-miterlimit="8" fill="none"/><path d="M627.5 622.25 717 622.25 717 616.5 728.5 628 717 639.5 717 633.75 627.5 633.75Z" stroke="#2F528F" stroke-width="1.33333" stroke-miterlimit="8" fill="none" fill-rule="evenodd"/><path d="M781.5 576.5 781.5 600.833" stroke="#000000" stroke-width="0.666667" stroke-miterlimit="8" stroke-dasharray="2.66667 2" fill="none" fill-rule="evenodd"/><path d="M1076 228.5 1092.5 245 1084.25 245 1084.25 583 1092.5 583 1076 599.5 1059.5 583 1067.75 583 1067.75 245 1059.5 245Z" stroke="#2F528F" stroke-width="1.33333" stroke-miterlimit="8" fill="none" fill-rule="evenodd"/><text font-family="Calibri,Calibri_MSFontService,sans-serif" font-style="italic" font-weight="400" font-size="16" transform="translate(946.313 397)">Swappable cloud</text><text font-family="Calibri,Calibri_MSFontService,sans-serif" font-style="italic" font-weight="400" font-size="16" transform="translate(938.56 416)">service relationship</text><text font-family="Calibri,Calibri_MSFontService,sans-serif" font-weight="700" font-size="32" transform="translate(817.204 41)">After VIP swap</text><path d="M741 244.5 757.5 261 749.25 261 749.25 583 757.5 583 741 599.5 724.5 583 732.75 583 732.75 261 724.5 261Z" stroke="#2F528F" stroke-width="1.33333" stroke-miterlimit="8" fill="none" fill-rule="evenodd"/><text font-family="Calibri,Calibri_MSFontService,sans-serif" font-style="italic" font-weight="400" font-size="16" transform="translate(752.749 397)">Swap public</text><text font-family="Calibri,Calibri_MSFontService,sans-serif" font-style="italic" font-weight="400" font-size="16" transform="translate(758.269 416)">IP address</text></g></svg>