<svg width="721" height="321" viewBox="0 0 721 321" fill="none" xmlns="http://www.w3.org/2000/svg">
<rect y="1" width="720" height="320" fill="black"/>
<rect x="1" y="4" width="719" height="43" fill="#EEEEEE"/>
<rect x="0.5" y="0.5" width="720" height="320" stroke="#C3C3C3"/>
<path d="M16.8262 72V60.7236H18.9092L21.3877 67.667H21.4053L23.8398 60.7236H26.0107V72H24.5957V62.3232H24.5781L22.0381 69.6182H20.5791L18.0479 62.5254H18.0303V72H16.8262Z" fill="white"/>
<path d="M31.8379 72V63.7559H28.3662V62.4551H33.5693V72H31.8379ZM31.6182 60.293V58.1221H33.7891V60.293H31.6182Z" fill="white"/>
<path d="M47.3857 71.6924C46.3604 72.0439 45.3379 72.2197 44.3184 72.2197C42.6543 72.2197 41.3711 71.7861 40.4688 70.9189C39.5723 70.0518 39.124 68.8213 39.124 67.2275C39.124 65.6631 39.5664 64.4414 40.4512 63.5625C41.3418 62.6836 42.5781 62.2441 44.1602 62.2441C45.168 62.2441 46.1846 62.3965 47.21 62.7012V64.1514C46.0791 63.7471 45.1152 63.5449 44.3184 63.5449C43.2754 63.5449 42.4551 63.873 41.8574 64.5293C41.2656 65.1855 40.9697 66.085 40.9697 67.2275C40.9697 68.3818 41.2861 69.2871 41.9189 69.9434C42.5576 70.5938 43.4365 70.9189 44.5557 70.9189C45.3936 70.9189 46.3369 70.7227 47.3857 70.3301V71.6924Z" fill="white"/>
<path d="M51.2441 72V62.4551H52.9756V64.248C53.8545 62.9121 55.0352 62.2441 56.5176 62.2441C57.0391 62.2441 57.6309 62.3174 58.293 62.4639V65.1709H56.9922V63.8438C56.7344 63.7852 56.5 63.7559 56.2891 63.7559C55.627 63.7559 55.0439 63.9111 54.54 64.2217C54.042 64.5264 53.5205 65.0479 52.9756 65.7861V72H51.2441Z" fill="white"/>
<path d="M64.8057 72.2197C63.4053 72.2197 62.3037 71.7773 61.501 70.8926C60.7041 70.002 60.3057 68.7803 60.3057 67.2275C60.3057 65.6807 60.707 64.4648 61.5098 63.5801C62.3125 62.6895 63.4111 62.2441 64.8057 62.2441C66.2061 62.2441 67.3047 62.6895 68.1016 63.5801C68.9043 64.4648 69.3057 65.6807 69.3057 67.2275C69.3057 68.7803 68.9043 70.002 68.1016 70.8926C67.3047 71.7773 66.2061 72.2197 64.8057 72.2197ZM64.8057 70.9189C65.6377 70.9189 66.2881 70.5938 66.7568 69.9434C67.2256 69.293 67.46 68.3877 67.46 67.2275C67.46 66.0732 67.2256 65.1709 66.7568 64.5205C66.2881 63.8701 65.6377 63.5449 64.8057 63.5449C63.9736 63.5449 63.3232 63.8701 62.8545 64.5205C62.3857 65.1709 62.1514 66.0732 62.1514 67.2275C62.1514 68.3877 62.3857 69.293 62.8545 69.9434C63.3232 70.5938 63.9736 70.9189 64.8057 70.9189Z" fill="white"/>
<path d="M71.8721 71.6133V70.0488C73.2139 70.6289 74.374 70.9189 75.3525 70.9189C76.0557 70.9189 76.6357 70.7783 77.0928 70.4971C77.5557 70.21 77.7871 69.8496 77.7871 69.416C77.7871 68.8594 77.2393 68.4053 76.1436 68.0537L74.2891 67.4473C72.8418 66.9785 72.1182 66.1523 72.1182 64.9688C72.1182 64.1016 72.4434 63.4307 73.0938 62.9561C73.75 62.4814 74.6758 62.2441 75.8711 62.2441C76.7676 62.2441 77.8076 62.3818 78.9912 62.6572V64.0635C77.8486 63.7178 76.8057 63.5449 75.8623 63.5449C75.2295 63.5449 74.7227 63.6592 74.3418 63.8877C73.9668 64.1162 73.7793 64.4238 73.7793 64.8105C73.7793 65.2852 74.21 65.6719 75.0713 65.9707L77.2598 66.7354C78.0566 67.0166 78.6279 67.3535 78.9736 67.7461C79.3252 68.1328 79.501 68.6367 79.501 69.2578C79.501 70.1602 79.1289 70.8809 78.3848 71.4199C77.6406 71.9531 76.6416 72.2197 75.3877 72.2197C74.292 72.2197 73.1201 72.0176 71.8721 71.6133Z" fill="white"/>
<path d="M86.4971 72.2197C85.0967 72.2197 83.9951 71.7773 83.1924 70.8926C82.3955 70.002 81.9971 68.7803 81.9971 67.2275C81.9971 65.6807 82.3984 64.4648 83.2012 63.5801C84.0039 62.6895 85.1025 62.2441 86.4971 62.2441C87.8975 62.2441 88.9961 62.6895 89.793 63.5801C90.5957 64.4648 90.9971 65.6807 90.9971 67.2275C90.9971 68.7803 90.5957 70.002 89.793 70.8926C88.9961 71.7773 87.8975 72.2197 86.4971 72.2197ZM86.4971 70.9189C87.3291 70.9189 87.9795 70.5938 88.4482 69.9434C88.917 69.293 89.1514 68.3877 89.1514 67.2275C89.1514 66.0732 88.917 65.1709 88.4482 64.5205C87.9795 63.8701 87.3291 63.5449 86.4971 63.5449C85.665 63.5449 85.0146 63.8701 84.5459 64.5205C84.0771 65.1709 83.8428 66.0732 83.8428 67.2275C83.8428 68.3877 84.0771 69.293 84.5459 69.9434C85.0146 70.5938 85.665 70.9189 86.4971 70.9189Z" fill="white"/>
<path d="M95.8223 72V63.9756H93.2207V62.6748H95.8223V61.6641C95.8223 60.3281 96.1328 59.3672 96.7539 58.7812C97.375 58.1953 98.3945 57.9023 99.8125 57.9023C100.75 57.9023 101.638 58.0283 102.476 58.2803V59.6514C101.62 59.3525 100.776 59.2031 99.9443 59.2031C99.0596 59.2031 98.4385 59.373 98.0811 59.7129C97.7295 60.0469 97.5537 60.6357 97.5537 61.4795V62.6748H102.115V63.9756H97.5537V72H95.8223Z" fill="white"/>
<path d="M112.451 71.9912C111.584 72.1436 110.746 72.2197 109.938 72.2197C108.525 72.2197 107.564 71.9678 107.055 71.4639C106.545 70.9541 106.29 69.9932 106.29 68.5811V63.9756H103.908V62.6748H106.29V60.6182H108.03V62.6748H112.258V63.9756H108.03V68.8623C108.03 69.4072 108.062 69.7822 108.127 69.9873C108.197 70.1924 108.344 70.3711 108.566 70.5234C108.965 70.7871 109.545 70.9189 110.307 70.9189C111.027 70.9189 111.742 70.8369 112.451 70.6729V71.9912Z" fill="white"/>
<path d="M126.276 72L124.598 60.7236H126.074L127.445 70.0928H127.472L129.098 63.1055H130.768L132.367 69.9873H132.385L133.835 60.7236H135.153L133.299 72H131.418L129.862 65.3818H129.845L128.28 72H126.276Z" fill="white"/>
<path d="M140.295 72V63.7559H136.823V62.4551H142.026V72H140.295ZM140.075 60.293V58.1221H142.246V60.293H140.075Z" fill="white"/>
<path d="M147.748 72V62.4551H149.479V64.248C150.276 62.9121 151.36 62.2441 152.731 62.2441C154.542 62.2441 155.447 63.3193 155.447 65.4697V72H153.716V65.9443C153.716 65.2002 153.599 64.6729 153.364 64.3623C153.136 64.0459 152.749 63.8877 152.204 63.8877C151.337 63.8877 150.429 64.5117 149.479 65.7598V72H147.748Z" fill="white"/>
<path d="M164.729 72V70.207C163.885 71.5488 162.842 72.2197 161.6 72.2197C160.521 72.2197 159.669 71.8008 159.042 70.9629C158.421 70.125 158.11 68.9854 158.11 67.5439C158.11 65.9619 158.479 64.6846 159.218 63.7119C159.956 62.7334 160.923 62.2441 162.118 62.2441C163.144 62.2441 164.014 62.6777 164.729 63.5449V58.1221H166.46V72H164.729ZM164.729 64.8457C163.92 63.9785 163.129 63.5449 162.355 63.5449C161.594 63.5449 161.002 63.8789 160.58 64.5469C160.164 65.2148 159.956 66.1553 159.956 67.3682C159.956 69.6123 160.627 70.7344 161.969 70.7344C162.947 70.7344 163.867 70.125 164.729 68.9062V64.8457Z" fill="white"/>
<path d="M173.263 72.2197C171.862 72.2197 170.761 71.7773 169.958 70.8926C169.161 70.002 168.763 68.7803 168.763 67.2275C168.763 65.6807 169.164 64.4648 169.967 63.5801C170.77 62.6895 171.868 62.2441 173.263 62.2441C174.663 62.2441 175.762 62.6895 176.559 63.5801C177.361 64.4648 177.763 65.6807 177.763 67.2275C177.763 68.7803 177.361 70.002 176.559 70.8926C175.762 71.7773 174.663 72.2197 173.263 72.2197ZM173.263 70.9189C174.095 70.9189 174.745 70.5938 175.214 69.9434C175.683 69.293 175.917 68.3877 175.917 67.2275C175.917 66.0732 175.683 65.1709 175.214 64.5205C174.745 63.8701 174.095 63.5449 173.263 63.5449C172.431 63.5449 171.78 63.8701 171.312 64.5205C170.843 65.1709 170.608 66.0732 170.608 67.2275C170.608 68.3877 170.843 69.293 171.312 69.9434C171.78 70.5938 172.431 70.9189 173.263 70.9189Z" fill="white"/>
<path d="M180.531 72L178.791 62.4551H180.391L181.656 69.9258H181.674L183.37 63.3252H185.049L186.657 70.1807H186.684L188.09 62.4551H189.417L187.51 72H185.805L184.126 64.8633H184.108L182.254 72H180.531Z" fill="white"/>
<path d="M191.175 71.6133V70.0488C192.517 70.6289 193.677 70.9189 194.655 70.9189C195.358 70.9189 195.938 70.7783 196.396 70.4971C196.858 70.21 197.09 69.8496 197.09 69.416C197.09 68.8594 196.542 68.4053 195.446 68.0537L193.592 67.4473C192.145 66.9785 191.421 66.1523 191.421 64.9688C191.421 64.1016 191.746 63.4307 192.396 62.9561C193.053 62.4814 193.979 62.2441 195.174 62.2441C196.07 62.2441 197.11 62.3818 198.294 62.6572V64.0635C197.151 63.7178 196.108 63.5449 195.165 63.5449C194.532 63.5449 194.025 63.6592 193.645 63.8877C193.27 64.1162 193.082 64.4238 193.082 64.8105C193.082 65.2852 193.513 65.6719 194.374 65.9707L196.562 66.7354C197.359 67.0166 197.931 67.3535 198.276 67.7461C198.628 68.1328 198.804 68.6367 198.804 69.2578C198.804 70.1602 198.432 70.8809 197.688 71.4199C196.943 71.9531 195.944 72.2197 194.69 72.2197C193.595 72.2197 192.423 72.0176 191.175 71.6133Z" fill="white"/>
<path d="M215.125 74.6016V58.1221H220.548V59.4229H216.646V73.3008H220.548V74.6016H215.125Z" fill="white"/>
<path d="M226.568 72L222.191 60.7236H224.02L227.623 69.6885L231.306 60.7236H232.782L228.309 72H226.568Z" fill="white"/>
<path d="M242.564 71.6221C241.363 72.0205 240.262 72.2197 239.26 72.2197C237.619 72.2197 236.356 71.7979 235.472 70.9541C234.593 70.1104 234.153 68.9033 234.153 67.333C234.153 65.8506 234.575 64.6318 235.419 63.6768C236.269 62.7217 237.347 62.2441 238.653 62.2441C239.972 62.2441 240.941 62.6396 241.562 63.4307C242.189 64.2217 242.503 65.4521 242.503 67.1221V67.6758H235.999C236.128 69.8379 237.294 70.9189 239.497 70.9189C240.429 70.9189 241.451 70.6963 242.564 70.251V71.6221ZM236.052 66.375H240.657V66.1289C240.657 64.4062 239.939 63.5449 238.504 63.5449C237.812 63.5449 237.25 63.7939 236.816 64.292C236.389 64.79 236.134 65.4844 236.052 66.375Z" fill="white"/>
<path d="M246.467 72V62.4551H248.198V64.248C249.077 62.9121 250.258 62.2441 251.74 62.2441C252.262 62.2441 252.854 62.3174 253.516 62.4639V65.1709H252.215V63.8438C251.957 63.7852 251.723 63.7559 251.512 63.7559C250.85 63.7559 250.267 63.9111 249.763 64.2217C249.265 64.5264 248.743 65.0479 248.198 65.7861V72H246.467Z" fill="white"/>
<path d="M256.249 71.6133V70.0488C257.591 70.6289 258.751 70.9189 259.729 70.9189C260.433 70.9189 261.013 70.7783 261.47 70.4971C261.933 70.21 262.164 69.8496 262.164 69.416C262.164 68.8594 261.616 68.4053 260.521 68.0537L258.666 67.4473C257.219 66.9785 256.495 66.1523 256.495 64.9688C256.495 64.1016 256.82 63.4307 257.471 62.9561C258.127 62.4814 259.053 62.2441 260.248 62.2441C261.145 62.2441 262.185 62.3818 263.368 62.6572V64.0635C262.226 63.7178 261.183 63.5449 260.239 63.5449C259.606 63.5449 259.1 63.6592 258.719 63.8877C258.344 64.1162 258.156 64.4238 258.156 64.8105C258.156 65.2852 258.587 65.6719 259.448 65.9707L261.637 66.7354C262.434 67.0166 263.005 67.3535 263.351 67.7461C263.702 68.1328 263.878 68.6367 263.878 69.2578C263.878 70.1602 263.506 70.8809 262.762 71.4199C262.018 71.9531 261.019 72.2197 259.765 72.2197C258.669 72.2197 257.497 72.0176 256.249 71.6133Z" fill="white"/>
<path d="M270.443 72V63.7559H266.972V62.4551H272.175V72H270.443ZM270.224 60.293V58.1221H272.395V60.293H270.224Z" fill="white"/>
<path d="M281.72 72.2197C280.319 72.2197 279.218 71.7773 278.415 70.8926C277.618 70.002 277.22 68.7803 277.22 67.2275C277.22 65.6807 277.621 64.4648 278.424 63.5801C279.227 62.6895 280.325 62.2441 281.72 62.2441C283.12 62.2441 284.219 62.6895 285.016 63.5801C285.818 64.4648 286.22 65.6807 286.22 67.2275C286.22 68.7803 285.818 70.002 285.016 70.8926C284.219 71.7773 283.12 72.2197 281.72 72.2197ZM281.72 70.9189C282.552 70.9189 283.202 70.5938 283.671 69.9434C284.14 69.293 284.374 68.3877 284.374 67.2275C284.374 66.0732 284.14 65.1709 283.671 64.5205C283.202 63.8701 282.552 63.5449 281.72 63.5449C280.888 63.5449 280.237 63.8701 279.769 64.5205C279.3 65.1709 279.065 66.0732 279.065 67.2275C279.065 68.3877 279.3 69.293 279.769 69.9434C280.237 70.5938 280.888 70.9189 281.72 70.9189Z" fill="white"/>
<path d="M288.742 72V62.4551H290.474V64.248C291.271 62.9121 292.354 62.2441 293.726 62.2441C295.536 62.2441 296.441 63.3193 296.441 65.4697V72H294.71V65.9443C294.71 65.2002 294.593 64.6729 294.358 64.3623C294.13 64.0459 293.743 63.8877 293.198 63.8877C292.331 63.8877 291.423 64.5117 290.474 65.7598V72H288.742Z" fill="white"/>
<path d="M310.46 72V70.6992H313.932V60.583L310.46 61.3652V60.293L315.663 58.667V70.6992H319.135V72H310.46Z" fill="white"/>
<path d="M325.103 72.3252C323.749 72.3252 322.668 71.707 321.859 70.4707C321.057 69.2344 320.655 67.5732 320.655 65.4873C320.655 63.4072 321.057 61.752 321.859 60.5215C322.668 59.2852 323.749 58.667 325.103 58.667C326.456 58.667 327.534 59.2852 328.337 60.5215C329.146 61.752 329.55 63.4072 329.55 65.4873C329.55 67.5732 329.146 69.2344 328.337 70.4707C327.534 71.707 326.456 72.3252 325.103 72.3252ZM325.103 71.0244C326.837 71.0244 327.704 69.1787 327.704 65.4873C327.704 61.8076 326.837 59.9678 325.103 59.9678C323.368 59.9678 322.501 61.8076 322.501 65.4873C322.501 69.1787 323.368 71.0244 325.103 71.0244Z" fill="white"/>
<path d="M334.647 72V69.3984H337.249V72H334.647Z" fill="white"/>
<path d="M346.794 72.3252C345.44 72.3252 344.359 71.707 343.551 70.4707C342.748 69.2344 342.347 67.5732 342.347 65.4873C342.347 63.4072 342.748 61.752 343.551 60.5215C344.359 59.2852 345.44 58.667 346.794 58.667C348.147 58.667 349.226 59.2852 350.028 60.5215C350.837 61.752 351.241 63.4072 351.241 65.4873C351.241 67.5732 350.837 69.2344 350.028 70.4707C349.226 71.707 348.147 72.3252 346.794 72.3252ZM346.794 71.0244C348.528 71.0244 349.396 69.1787 349.396 65.4873C349.396 61.8076 348.528 59.9678 346.794 59.9678C345.06 59.9678 344.192 61.8076 344.192 65.4873C344.192 69.1787 345.06 71.0244 346.794 71.0244Z" fill="white"/>
<path d="M356.339 72V69.3984H358.94V72H356.339Z" fill="white"/>
<path d="M364.688 72V70.6992H368.16V60.583L364.688 61.3652V60.293L369.892 58.667V70.6992H373.363V72H364.688Z" fill="white"/>
<path d="M380.307 72V68.5283H374.884V67.0693L380.307 58.9922H381.933V67.2275H383.664V68.5283H381.933V72H380.307ZM376.343 67.2275H380.307V61.3213L376.343 67.2275Z" fill="white"/>
<path d="M386.811 71.9385V70.4092C387.988 70.8193 388.894 71.0244 389.526 71.0244C390.312 71.0244 390.944 70.7842 391.425 70.3037C391.905 69.8174 392.146 69.1816 392.146 68.3965C392.146 67.5176 391.858 66.8408 391.284 66.3662C390.716 65.8916 389.904 65.6543 388.85 65.6543H388.006V64.4062H388.507C389.274 64.4062 389.834 64.3594 390.186 64.2656C390.543 64.166 390.868 63.9727 391.161 63.6855C391.624 63.2285 391.855 62.6396 391.855 61.9189C391.855 61.3154 391.671 60.8408 391.302 60.4951C390.933 60.1436 390.432 59.9678 389.799 59.9678C388.914 59.9678 387.979 60.2051 386.995 60.6797V59.1592C387.95 58.8252 388.917 58.6582 389.896 58.6582C391.056 58.6582 391.961 58.9219 392.611 59.4492C393.268 59.9707 393.596 60.6973 393.596 61.6289C393.596 63.082 392.813 64.1719 391.249 64.8984C393.077 65.5254 393.991 66.6914 393.991 68.3965C393.991 69.5977 393.584 70.5527 392.77 71.2617C391.961 71.9707 390.868 72.3252 389.491 72.3252C388.636 72.3252 387.742 72.1963 386.811 71.9385Z" fill="white"/>
<path d="M397.621 71.8682V70.3828C398.711 70.8105 399.543 71.0244 400.117 71.0244C401.201 71.0244 402.042 70.5557 402.64 69.6182C403.237 68.6748 403.536 67.3477 403.536 65.6367C402.769 66.75 401.775 67.3066 400.557 67.3066C399.537 67.3066 398.673 66.9141 397.964 66.1289C397.261 65.3379 396.909 64.377 396.909 63.2461C396.909 61.916 397.293 60.8203 398.061 59.959C398.828 59.0977 399.807 58.667 400.996 58.667C402.408 58.667 403.486 59.2295 404.23 60.3545C404.975 61.4736 405.347 63.0996 405.347 65.2324C405.347 67.3828 404.884 69.1025 403.958 70.3916C403.038 71.6807 401.813 72.3252 400.284 72.3252C399.599 72.3252 398.711 72.1729 397.621 71.8682ZM400.785 59.9678C400.141 59.9678 399.613 60.2402 399.203 60.7852C398.793 61.3301 398.588 62.0332 398.588 62.8945C398.588 63.8438 398.808 64.6084 399.247 65.1885C399.687 65.7686 400.261 66.0586 400.97 66.0586C401.679 66.0586 402.247 65.8037 402.675 65.2939C403.103 64.7842 403.316 64.1045 403.316 63.2549C403.316 62.2529 403.085 61.4561 402.622 60.8643C402.165 60.2666 401.553 59.9678 400.785 59.9678Z" fill="white"/>
<path d="M408.502 71.9385V70.4092C409.68 70.8193 410.585 71.0244 411.218 71.0244C412.003 71.0244 412.636 70.7842 413.116 70.3037C413.597 69.8174 413.837 69.1816 413.837 68.3965C413.837 67.5176 413.55 66.8408 412.976 66.3662C412.407 65.8916 411.596 65.6543 410.541 65.6543H409.697V64.4062H410.198C410.966 64.4062 411.525 64.3594 411.877 64.2656C412.234 64.166 412.56 63.9727 412.853 63.6855C413.315 63.2285 413.547 62.6396 413.547 61.9189C413.547 61.3154 413.362 60.8408 412.993 60.4951C412.624 60.1436 412.123 59.9678 411.49 59.9678C410.605 59.9678 409.671 60.2051 408.687 60.6797V59.1592C409.642 58.8252 410.608 58.6582 411.587 58.6582C412.747 58.6582 413.652 58.9219 414.303 59.4492C414.959 59.9707 415.287 60.6973 415.287 61.6289C415.287 63.082 414.505 64.1719 412.94 64.8984C414.769 65.5254 415.683 66.6914 415.683 68.3965C415.683 69.5977 415.275 70.5527 414.461 71.2617C413.652 71.9707 412.56 72.3252 411.183 72.3252C410.327 72.3252 409.434 72.1963 408.502 71.9385Z" fill="white"/>
<path d="M424.234 58.1221V74.6016H418.812V73.3008H422.714V59.4229H418.812V58.1221H424.234Z" fill="white"/>
<path d="M25.5361 96.6016C23.6318 96.3906 22.0703 95.5176 20.8516 93.9824C19.6387 92.4414 19.0322 90.5664 19.0322 88.3574C19.0322 86.1543 19.6387 84.2852 20.8516 82.75C22.0703 81.209 23.6318 80.333 25.5361 80.1221V81.3174C24.0068 81.6279 22.8291 82.3926 22.0029 83.6113C21.1768 84.8242 20.7637 86.4062 20.7637 88.3574C20.7637 90.3086 21.1768 91.8936 22.0029 93.1123C22.8291 94.3311 24.0068 95.0957 25.5361 95.4062V96.6016Z" fill="white"/>
<path d="M36.54 93.6924C35.5146 94.0439 34.4922 94.2197 33.4727 94.2197C31.8086 94.2197 30.5254 93.7861 29.623 92.9189C28.7266 92.0518 28.2783 90.8213 28.2783 89.2275C28.2783 87.6631 28.7207 86.4414 29.6055 85.5625C30.4961 84.6836 31.7324 84.2441 33.3145 84.2441C34.3223 84.2441 35.3389 84.3965 36.3643 84.7012V86.1514C35.2334 85.7471 34.2695 85.5449 33.4727 85.5449C32.4297 85.5449 31.6094 85.873 31.0117 86.5293C30.4199 87.1855 30.124 88.085 30.124 89.2275C30.124 90.3818 30.4404 91.2871 31.0732 91.9434C31.7119 92.5938 32.5908 92.9189 33.71 92.9189C34.5479 92.9189 35.4912 92.7227 36.54 92.3301V93.6924Z" fill="white"/>
<path d="M38.9922 80.1221C40.9023 80.333 42.4639 81.209 43.6768 82.75C44.8896 84.2852 45.4961 86.1572 45.4961 88.3662C45.4961 90.5693 44.8867 92.4414 43.668 93.9824C42.4551 95.5176 40.8965 96.3906 38.9922 96.6016V95.4062C40.5215 95.0957 41.6992 94.334 42.5254 93.1211C43.3516 91.9023 43.7646 90.3145 43.7646 88.3574C43.7646 86.4121 43.3516 84.8301 42.5254 83.6113C41.7051 82.3926 40.5273 81.6279 38.9922 81.3174V80.1221Z" fill="white"/>
<path d="M60.8594 94V92.4795C61.5742 91.0967 62.6406 89.7021 64.0586 88.2959L64.8408 87.5137C65.9189 86.4414 66.458 85.3604 66.458 84.2705C66.458 83.5732 66.25 83.0166 65.834 82.6006C65.4238 82.1787 64.873 81.9678 64.1816 81.9678C63.3438 81.9678 62.3447 82.2725 61.1846 82.8818V81.3525C62.2627 80.8955 63.3174 80.667 64.3486 80.667C65.5381 80.667 66.4932 80.9922 67.2139 81.6426C67.9404 82.2871 68.3037 83.1396 68.3037 84.2002C68.3037 84.8857 68.1367 85.5303 67.8027 86.1338C67.4688 86.7373 66.9033 87.4111 66.1064 88.1553L65.3682 88.8496C64.0088 90.1152 63.1914 91.3252 62.916 92.4795H68.2334V94H60.8594Z" fill="white"/>
<path d="M75.6514 94.3252C74.2979 94.3252 73.2168 93.707 72.4082 92.4707C71.6055 91.2344 71.2041 89.5732 71.2041 87.4873C71.2041 85.4072 71.6055 83.752 72.4082 82.5215C73.2168 81.2852 74.2979 80.667 75.6514 80.667C77.0049 80.667 78.083 81.2852 78.8857 82.5215C79.6943 83.752 80.0986 85.4072 80.0986 87.4873C80.0986 89.5732 79.6943 91.2344 78.8857 92.4707C78.083 93.707 77.0049 94.3252 75.6514 94.3252ZM75.6514 93.0244C77.3857 93.0244 78.2529 91.1787 78.2529 87.4873C78.2529 83.8076 77.3857 81.9678 75.6514 81.9678C73.917 81.9678 73.0498 83.8076 73.0498 87.4873C73.0498 91.1787 73.917 93.0244 75.6514 93.0244Z" fill="white"/>
<path d="M82.7002 94V92.6992H86.1719V82.583L82.7002 83.3652V82.293L87.9033 80.667V92.6992H91.375V94H82.7002Z" fill="white"/>
<path d="M101.078 81.1504V82.6357C100.041 82.1846 99.2148 81.959 98.5996 81.959C97.5039 81.959 96.6572 82.4277 96.0596 83.3652C95.4619 84.3027 95.1631 85.6299 95.1631 87.3467C95.9307 86.2334 96.9209 85.6768 98.1338 85.6768C99.1533 85.6768 100.018 86.0723 100.727 86.8633C101.436 87.6484 101.79 88.6094 101.79 89.7461C101.79 91.0762 101.406 92.1719 100.639 93.0332C99.8711 93.8945 98.8926 94.3252 97.7031 94.3252C96.291 94.3252 95.21 93.7627 94.46 92.6377C93.7158 91.5127 93.3438 89.8838 93.3438 87.751C93.3438 85.6006 93.8066 83.8809 94.7324 82.5918C95.6582 81.3027 96.8916 80.6582 98.4326 80.6582C99.1475 80.6582 100.029 80.8223 101.078 81.1504ZM97.9141 93.0244C98.5586 93.0244 99.083 92.752 99.4873 92.207C99.8975 91.6621 100.103 90.9561 100.103 90.0889C100.103 89.1455 99.8828 88.3838 99.4434 87.8037C99.0098 87.2178 98.4385 86.9248 97.7295 86.9248C97.0146 86.9248 96.4434 87.1797 96.0156 87.6895C95.5938 88.1992 95.3828 88.8789 95.3828 89.7285C95.3828 90.7363 95.6113 91.5391 96.0684 92.1367C96.5254 92.7285 97.1406 93.0244 97.9141 93.0244Z" fill="white"/>
<path d="M114.438 94V82.7236H116.521L118.999 89.667H119.017L121.451 82.7236H123.622V94H122.207V84.3232H122.189L119.649 91.6182H118.19L115.659 84.5254H115.642V94H114.438Z" fill="white"/>
<path d="M129.449 94V85.7559H125.978V84.4551H131.181V94H129.449ZM129.229 82.293V80.1221H131.4V82.293H129.229Z" fill="white"/>
<path d="M144.997 93.6924C143.972 94.0439 142.949 94.2197 141.93 94.2197C140.266 94.2197 138.982 93.7861 138.08 92.9189C137.184 92.0518 136.735 90.8213 136.735 89.2275C136.735 87.6631 137.178 86.4414 138.062 85.5625C138.953 84.6836 140.189 84.2441 141.771 84.2441C142.779 84.2441 143.796 84.3965 144.821 84.7012V86.1514C143.69 85.7471 142.727 85.5449 141.93 85.5449C140.887 85.5449 140.066 85.873 139.469 86.5293C138.877 87.1855 138.581 88.085 138.581 89.2275C138.581 90.3818 138.897 91.2871 139.53 91.9434C140.169 92.5938 141.048 92.9189 142.167 92.9189C143.005 92.9189 143.948 92.7227 144.997 92.3301V93.6924Z" fill="white"/>
<path d="M148.855 94V84.4551H150.587V86.248C151.466 84.9121 152.646 84.2441 154.129 84.2441C154.65 84.2441 155.242 84.3174 155.904 84.4639V87.1709H154.604V85.8438C154.346 85.7852 154.111 85.7559 153.9 85.7559C153.238 85.7559 152.655 85.9111 152.151 86.2217C151.653 86.5264 151.132 87.0479 150.587 87.7861V94H148.855Z" fill="white"/>
<path d="M162.417 94.2197C161.017 94.2197 159.915 93.7773 159.112 92.8926C158.315 92.002 157.917 90.7803 157.917 89.2275C157.917 87.6807 158.318 86.4648 159.121 85.5801C159.924 84.6895 161.022 84.2441 162.417 84.2441C163.817 84.2441 164.916 84.6895 165.713 85.5801C166.516 86.4648 166.917 87.6807 166.917 89.2275C166.917 90.7803 166.516 92.002 165.713 92.8926C164.916 93.7773 163.817 94.2197 162.417 94.2197ZM162.417 92.9189C163.249 92.9189 163.899 92.5938 164.368 91.9434C164.837 91.293 165.071 90.3877 165.071 89.2275C165.071 88.0732 164.837 87.1709 164.368 86.5205C163.899 85.8701 163.249 85.5449 162.417 85.5449C161.585 85.5449 160.935 85.8701 160.466 86.5205C159.997 87.1709 159.763 88.0732 159.763 89.2275C159.763 90.3877 159.997 91.293 160.466 91.9434C160.935 92.5938 161.585 92.9189 162.417 92.9189Z" fill="white"/>
<path d="M169.483 93.6133V92.0488C170.825 92.6289 171.985 92.9189 172.964 92.9189C173.667 92.9189 174.247 92.7783 174.704 92.4971C175.167 92.21 175.398 91.8496 175.398 91.416C175.398 90.8594 174.851 90.4053 173.755 90.0537L171.9 89.4473C170.453 88.9785 169.729 88.1523 169.729 86.9688C169.729 86.1016 170.055 85.4307 170.705 84.9561C171.361 84.4814 172.287 84.2441 173.482 84.2441C174.379 84.2441 175.419 84.3818 176.603 84.6572V86.0635C175.46 85.7178 174.417 85.5449 173.474 85.5449C172.841 85.5449 172.334 85.6592 171.953 85.8877C171.578 86.1162 171.391 86.4238 171.391 86.8105C171.391 87.2852 171.821 87.6719 172.683 87.9707L174.871 88.7354C175.668 89.0166 176.239 89.3535 176.585 89.7461C176.937 90.1328 177.112 90.6367 177.112 91.2578C177.112 92.1602 176.74 92.8809 175.996 93.4199C175.252 93.9531 174.253 94.2197 172.999 94.2197C171.903 94.2197 170.731 94.0176 169.483 93.6133Z" fill="white"/>
<path d="M184.108 94.2197C182.708 94.2197 181.606 93.7773 180.804 92.8926C180.007 92.002 179.608 90.7803 179.608 89.2275C179.608 87.6807 180.01 86.4648 180.812 85.5801C181.615 84.6895 182.714 84.2441 184.108 84.2441C185.509 84.2441 186.607 84.6895 187.404 85.5801C188.207 86.4648 188.608 87.6807 188.608 89.2275C188.608 90.7803 188.207 92.002 187.404 92.8926C186.607 93.7773 185.509 94.2197 184.108 94.2197ZM184.108 92.9189C184.94 92.9189 185.591 92.5938 186.06 91.9434C186.528 91.293 186.763 90.3877 186.763 89.2275C186.763 88.0732 186.528 87.1709 186.06 86.5205C185.591 85.8701 184.94 85.5449 184.108 85.5449C183.276 85.5449 182.626 85.8701 182.157 86.5205C181.688 87.1709 181.454 88.0732 181.454 89.2275C181.454 90.3877 181.688 91.293 182.157 91.9434C182.626 92.5938 183.276 92.9189 184.108 92.9189Z" fill="white"/>
<path d="M193.434 94V85.9756H190.832V84.6748H193.434V83.6641C193.434 82.3281 193.744 81.3672 194.365 80.7812C194.986 80.1953 196.006 79.9023 197.424 79.9023C198.361 79.9023 199.249 80.0283 200.087 80.2803V81.6514C199.231 81.3525 198.388 81.2031 197.556 81.2031C196.671 81.2031 196.05 81.373 195.692 81.7129C195.341 82.0469 195.165 82.6357 195.165 83.4795V84.6748H199.727V85.9756H195.165V94H193.434Z" fill="white"/>
<path d="M210.062 93.9912C209.195 94.1436 208.357 94.2197 207.549 94.2197C206.137 94.2197 205.176 93.9678 204.666 93.4639C204.156 92.9541 203.901 91.9932 203.901 90.5811V85.9756H201.52V84.6748H203.901V82.6182H205.642V84.6748H209.869V85.9756H205.642V90.8623C205.642 91.4072 205.674 91.7822 205.738 91.9873C205.809 92.1924 205.955 92.3711 206.178 92.5234C206.576 92.7871 207.156 92.9189 207.918 92.9189C208.639 92.9189 209.354 92.8369 210.062 92.6729V93.9912Z" fill="white"/>
<path d="M232.22 93.6484C231.06 94.0645 229.967 94.2725 228.941 94.2725C227.148 94.2725 225.704 93.7363 224.608 92.6641C223.513 91.5859 222.965 90.1709 222.965 88.4189C222.965 86.6436 223.51 85.2051 224.6 84.1035C225.689 83.002 227.113 82.4512 228.871 82.4512C229.867 82.4512 230.934 82.6211 232.07 82.9609V84.5518C230.91 84.0186 229.826 83.752 228.818 83.752C227.652 83.752 226.691 84.1797 225.936 85.0352C225.186 85.8906 224.811 86.9805 224.811 88.3047C224.811 89.6406 225.235 90.7334 226.085 91.583C226.935 92.4326 228.027 92.8574 229.363 92.8574C230.172 92.8574 231.124 92.6465 232.22 92.2246V93.6484Z" fill="white"/>
<path d="M238.337 94.2197C236.937 94.2197 235.835 93.7773 235.032 92.8926C234.235 92.002 233.837 90.7803 233.837 89.2275C233.837 87.6807 234.238 86.4648 235.041 85.5801C235.844 84.6895 236.942 84.2441 238.337 84.2441C239.737 84.2441 240.836 84.6895 241.633 85.5801C242.436 86.4648 242.837 87.6807 242.837 89.2275C242.837 90.7803 242.436 92.002 241.633 92.8926C240.836 93.7773 239.737 94.2197 238.337 94.2197ZM238.337 92.9189C239.169 92.9189 239.819 92.5938 240.288 91.9434C240.757 91.293 240.991 90.3877 240.991 89.2275C240.991 88.0732 240.757 87.1709 240.288 86.5205C239.819 85.8701 239.169 85.5449 238.337 85.5449C237.505 85.5449 236.854 85.8701 236.386 86.5205C235.917 87.1709 235.683 88.0732 235.683 89.2275C235.683 90.3877 235.917 91.293 236.386 91.9434C236.854 92.5938 237.505 92.9189 238.337 92.9189Z" fill="white"/>
<path d="M246.467 94V84.4551H248.198V86.248C249.077 84.9121 250.258 84.2441 251.74 84.2441C252.262 84.2441 252.854 84.3174 253.516 84.4639V87.1709H252.215V85.8438C251.957 85.7852 251.723 85.7559 251.512 85.7559C250.85 85.7559 250.267 85.9111 249.763 86.2217C249.265 86.5264 248.743 87.0479 248.198 87.7861V94H246.467Z" fill="white"/>
<path d="M256.179 97.4717V84.4551H257.91V86.248C258.748 84.9121 259.788 84.2441 261.03 84.2441C262.114 84.2441 262.967 84.6631 263.588 85.501C264.215 86.333 264.528 87.4697 264.528 88.9111C264.528 90.4932 264.159 91.7734 263.421 92.752C262.683 93.7305 261.716 94.2197 260.521 94.2197C259.495 94.2197 258.625 93.7861 257.91 92.9189V97.4717H256.179ZM257.91 91.6182C258.713 92.4854 259.504 92.9189 260.283 92.9189C261.045 92.9189 261.634 92.585 262.05 91.917C262.472 91.2432 262.683 90.3027 262.683 89.0957C262.683 86.8457 262.012 85.7207 260.67 85.7207C259.691 85.7207 258.771 86.3301 257.91 87.5488V91.6182Z" fill="white"/>
<path d="M270.874 94.2197C269.474 94.2197 268.372 93.7773 267.569 92.8926C266.772 92.002 266.374 90.7803 266.374 89.2275C266.374 87.6807 266.775 86.4648 267.578 85.5801C268.381 84.6895 269.479 84.2441 270.874 84.2441C272.274 84.2441 273.373 84.6895 274.17 85.5801C274.973 86.4648 275.374 87.6807 275.374 89.2275C275.374 90.7803 274.973 92.002 274.17 92.8926C273.373 93.7773 272.274 94.2197 270.874 94.2197ZM270.874 92.9189C271.706 92.9189 272.356 92.5938 272.825 91.9434C273.294 91.293 273.528 90.3877 273.528 89.2275C273.528 88.0732 273.294 87.1709 272.825 86.5205C272.356 85.8701 271.706 85.5449 270.874 85.5449C270.042 85.5449 269.392 85.8701 268.923 86.5205C268.454 87.1709 268.22 88.0732 268.22 89.2275C268.22 90.3877 268.454 91.293 268.923 91.9434C269.392 92.5938 270.042 92.9189 270.874 92.9189Z" fill="white"/>
<path d="M279.004 94V84.4551H280.735V86.248C281.614 84.9121 282.795 84.2441 284.277 84.2441C284.799 84.2441 285.391 84.3174 286.053 84.4639V87.1709H284.752V85.8438C284.494 85.7852 284.26 85.7559 284.049 85.7559C283.387 85.7559 282.804 85.9111 282.3 86.2217C281.802 86.5264 281.28 87.0479 280.735 87.7861V94H279.004Z" fill="white"/>
<path d="M294.481 92.8486C293.433 93.7275 292.387 94.167 291.344 94.167C290.471 94.167 289.75 93.918 289.182 93.4199C288.619 92.9219 288.338 92.292 288.338 91.5303C288.338 90.54 288.777 89.7432 289.656 89.1396C290.535 88.5361 291.695 88.2344 293.137 88.2344H294.209V87.417C294.209 86.7432 294.06 86.2627 293.761 85.9756C293.462 85.6885 292.967 85.5449 292.275 85.5449C291.273 85.5449 290.236 85.8262 289.164 86.3887V84.9033C290.395 84.4639 291.549 84.2441 292.627 84.2441C293.84 84.2441 294.695 84.4844 295.193 84.9648C295.697 85.4453 295.949 86.2744 295.949 87.4521V91.4512C295.949 92.0254 296.011 92.418 296.134 92.6289C296.257 92.834 296.488 92.9365 296.828 92.9365C296.939 92.9365 297.121 92.9072 297.373 92.8486L297.531 93.8857C296.951 94.0732 296.512 94.167 296.213 94.167C295.357 94.167 294.78 93.7275 294.481 92.8486ZM294.209 91.7236V89.3154H293.69C291.317 89.3154 290.131 89.957 290.131 91.2402C290.131 91.7031 290.283 92.0752 290.588 92.3564C290.893 92.6377 291.297 92.7783 291.801 92.7783C292.557 92.7783 293.359 92.4268 294.209 91.7236Z" fill="white"/>
<path d="M307.674 93.9912C306.807 94.1436 305.969 94.2197 305.16 94.2197C303.748 94.2197 302.787 93.9678 302.277 93.4639C301.768 92.9541 301.513 91.9932 301.513 90.5811V85.9756H299.131V84.6748H301.513V82.6182H303.253V84.6748H307.48V85.9756H303.253V90.8623C303.253 91.4072 303.285 91.7822 303.35 91.9873C303.42 92.1924 303.566 92.3711 303.789 92.5234C304.188 92.7871 304.768 92.9189 305.529 92.9189C306.25 92.9189 306.965 92.8369 307.674 92.6729V93.9912Z" fill="white"/>
<path d="M313.826 94V85.7559H310.354V84.4551H315.558V94H313.826ZM313.606 82.293V80.1221H315.777V82.293H313.606Z" fill="white"/>
<path d="M325.103 94.2197C323.702 94.2197 322.601 93.7773 321.798 92.8926C321.001 92.002 320.603 90.7803 320.603 89.2275C320.603 87.6807 321.004 86.4648 321.807 85.5801C322.609 84.6895 323.708 84.2441 325.103 84.2441C326.503 84.2441 327.602 84.6895 328.398 85.5801C329.201 86.4648 329.603 87.6807 329.603 89.2275C329.603 90.7803 329.201 92.002 328.398 92.8926C327.602 93.7773 326.503 94.2197 325.103 94.2197ZM325.103 92.9189C325.935 92.9189 326.585 92.5938 327.054 91.9434C327.522 91.293 327.757 90.3877 327.757 89.2275C327.757 88.0732 327.522 87.1709 327.054 86.5205C326.585 85.8701 325.935 85.5449 325.103 85.5449C324.271 85.5449 323.62 85.8701 323.151 86.5205C322.683 87.1709 322.448 88.0732 322.448 89.2275C322.448 90.3877 322.683 91.293 323.151 91.9434C323.62 92.5938 324.271 92.9189 325.103 92.9189Z" fill="white"/>
<path d="M332.125 94V84.4551H333.856V86.248C334.653 84.9121 335.737 84.2441 337.108 84.2441C338.919 84.2441 339.824 85.3193 339.824 87.4697V94H338.093V87.9443C338.093 87.2002 337.976 86.6729 337.741 86.3623C337.513 86.0459 337.126 85.8877 336.581 85.8877C335.714 85.8877 334.806 86.5117 333.856 87.7598V94H332.125Z" fill="white"/>
<path d="M345.493 94V91.3984H348.095V94H345.493Z" fill="white"/>
<path d="M363.168 94L367.615 82.7236H369.347L373.794 94H371.957L370.894 91.1787H365.743L364.662 94H363.168ZM366.262 89.8779H370.375L368.31 84.4902L366.262 89.8779Z" fill="white"/>
<path d="M379.111 94V81.4229H375.429V80.1221H380.852V94H379.111Z" fill="white"/>
<path d="M389.957 94V81.4229H386.274V80.1221H391.697V94H389.957Z" fill="white"/>
<path d="M409.152 94V84.4551H410.884V86.248C411.763 84.9121 412.943 84.2441 414.426 84.2441C414.947 84.2441 415.539 84.3174 416.201 84.4639V87.1709H414.9V85.8438C414.643 85.7852 414.408 85.7559 414.197 85.7559C413.535 85.7559 412.952 85.9111 412.448 86.2217C411.95 86.5264 411.429 87.0479 410.884 87.7861V94H409.152Z" fill="white"/>
<path d="M422.283 94V85.7559H418.812V84.4551H424.015V94H422.283ZM422.063 82.293V80.1221H424.234V82.293H422.063Z" fill="white"/>
<path d="M430 97.1904L430.185 95.7314C431.222 96.1709 432.186 96.3906 433.076 96.3906C434.928 96.3906 435.854 95.5088 435.854 93.7451L435.933 92.0225C435.206 93.3408 434.154 94 432.777 94C431.688 94 430.82 93.5869 430.176 92.7607C429.537 91.9287 429.218 90.8096 429.218 89.4033C429.218 87.874 429.59 86.6318 430.334 85.6768C431.078 84.7158 432.045 84.2354 433.234 84.2354C434.166 84.2354 435.083 84.6719 435.985 85.5449V84.4551H437.611V92.0928C437.611 93.3291 437.529 94.2578 437.365 94.8789C437.201 95.5059 436.894 96.0596 436.442 96.54C435.722 97.3076 434.594 97.6914 433.059 97.6914C432.156 97.6914 431.137 97.5244 430 97.1904ZM435.88 90.6162V86.8633C435.101 85.9844 434.295 85.5449 433.463 85.5449C432.707 85.5449 432.118 85.873 431.696 86.5293C431.274 87.1855 431.063 88.1055 431.063 89.2891C431.063 90.291 431.248 91.0762 431.617 91.6445C431.986 92.207 432.502 92.4883 433.164 92.4883C434.189 92.4883 435.095 91.8643 435.88 90.6162Z" fill="white"/>
<path d="M440.582 94V80.1221H442.313V86.248C443.11 84.9121 444.194 84.2441 445.565 84.2441C447.376 84.2441 448.281 85.3193 448.281 87.4697V94H446.55V87.9443C446.55 87.2002 446.433 86.6729 446.198 86.3623C445.97 86.0459 445.583 85.8877 445.038 85.8877C444.171 85.8877 443.263 86.5117 442.313 87.7598V94H440.582Z" fill="white"/>
<path d="M459.514 93.9912C458.646 94.1436 457.809 94.2197 457 94.2197C455.588 94.2197 454.627 93.9678 454.117 93.4639C453.607 92.9541 453.353 91.9932 453.353 90.5811V85.9756H450.971V84.6748H453.353V82.6182H455.093V84.6748H459.32V85.9756H455.093V90.8623C455.093 91.4072 455.125 91.7822 455.189 91.9873C455.26 92.1924 455.406 92.3711 455.629 92.5234C456.027 92.7871 456.607 92.9189 457.369 92.9189C458.09 92.9189 458.805 92.8369 459.514 92.6729V93.9912Z" fill="white"/>
<path d="M462.317 93.6133V92.0488C463.659 92.6289 464.819 92.9189 465.798 92.9189C466.501 92.9189 467.081 92.7783 467.538 92.4971C468.001 92.21 468.232 91.8496 468.232 91.416C468.232 90.8594 467.685 90.4053 466.589 90.0537L464.734 89.4473C463.287 88.9785 462.563 88.1523 462.563 86.9688C462.563 86.1016 462.889 85.4307 463.539 84.9561C464.195 84.4814 465.121 84.2441 466.316 84.2441C467.213 84.2441 468.253 84.3818 469.437 84.6572V86.0635C468.294 85.7178 467.251 85.5449 466.308 85.5449C465.675 85.5449 465.168 85.6592 464.787 85.8877C464.412 86.1162 464.225 86.4238 464.225 86.8105C464.225 87.2852 464.655 87.6719 465.517 87.9707L467.705 88.7354C468.502 89.0166 469.073 89.3535 469.419 89.7461C469.771 90.1328 469.946 90.6367 469.946 91.2578C469.946 92.1602 469.574 92.8809 468.83 93.4199C468.086 93.9531 467.087 94.2197 465.833 94.2197C464.737 94.2197 463.565 94.0176 462.317 93.6133Z" fill="white"/>
<path d="M485.072 94V84.4551H486.804V86.248C487.683 84.9121 488.863 84.2441 490.346 84.2441C490.867 84.2441 491.459 84.3174 492.121 84.4639V87.1709H490.82V85.8438C490.562 85.7852 490.328 85.7559 490.117 85.7559C489.455 85.7559 488.872 85.9111 488.368 86.2217C487.87 86.5264 487.349 87.0479 486.804 87.7861V94H485.072Z" fill="white"/>
<path d="M502.861 93.6221C501.66 94.0205 500.559 94.2197 499.557 94.2197C497.916 94.2197 496.653 93.7979 495.769 92.9541C494.89 92.1104 494.45 90.9033 494.45 89.333C494.45 87.8506 494.872 86.6318 495.716 85.6768C496.565 84.7217 497.644 84.2441 498.95 84.2441C500.269 84.2441 501.238 84.6396 501.859 85.4307C502.486 86.2217 502.8 87.4521 502.8 89.1221V89.6758H496.296C496.425 91.8379 497.591 92.9189 499.794 92.9189C500.726 92.9189 501.748 92.6963 502.861 92.251V93.6221ZM496.349 88.375H500.954V88.1289C500.954 86.4062 500.236 85.5449 498.801 85.5449C498.109 85.5449 497.547 85.7939 497.113 86.292C496.686 86.79 496.431 87.4844 496.349 88.375Z" fill="white"/>
<path d="M505.7 93.6133V92.0488C507.042 92.6289 508.202 92.9189 509.181 92.9189C509.884 92.9189 510.464 92.7783 510.921 92.4971C511.384 92.21 511.615 91.8496 511.615 91.416C511.615 90.8594 511.067 90.4053 509.972 90.0537L508.117 89.4473C506.67 88.9785 505.946 88.1523 505.946 86.9688C505.946 86.1016 506.271 85.4307 506.922 84.9561C507.578 84.4814 508.504 84.2441 509.699 84.2441C510.596 84.2441 511.636 84.3818 512.819 84.6572V86.0635C511.677 85.7178 510.634 85.5449 509.69 85.5449C509.058 85.5449 508.551 85.6592 508.17 85.8877C507.795 86.1162 507.607 86.4238 507.607 86.8105C507.607 87.2852 508.038 87.6719 508.899 87.9707L511.088 88.7354C511.885 89.0166 512.456 89.3535 512.802 89.7461C513.153 90.1328 513.329 90.6367 513.329 91.2578C513.329 92.1602 512.957 92.8809 512.213 93.4199C511.469 93.9531 510.47 94.2197 509.216 94.2197C508.12 94.2197 506.948 94.0176 505.7 93.6133Z" fill="white"/>
<path d="M524.553 93.6221C523.352 94.0205 522.25 94.2197 521.248 94.2197C519.607 94.2197 518.345 93.7979 517.46 92.9541C516.581 92.1104 516.142 90.9033 516.142 89.333C516.142 87.8506 516.563 86.6318 517.407 85.6768C518.257 84.7217 519.335 84.2441 520.642 84.2441C521.96 84.2441 522.93 84.6396 523.551 85.4307C524.178 86.2217 524.491 87.4521 524.491 89.1221V89.6758H517.987C518.116 91.8379 519.282 92.9189 521.485 92.9189C522.417 92.9189 523.439 92.6963 524.553 92.251V93.6221ZM518.04 88.375H522.646V88.1289C522.646 86.4062 521.928 85.5449 520.492 85.5449C519.801 85.5449 519.238 85.7939 518.805 86.292C518.377 86.79 518.122 87.4844 518.04 88.375Z" fill="white"/>
<path d="M528.455 94V84.4551H530.187V86.248C531.065 84.9121 532.246 84.2441 533.729 84.2441C534.25 84.2441 534.842 84.3174 535.504 84.4639V87.1709H534.203V85.8438C533.945 85.7852 533.711 85.7559 533.5 85.7559C532.838 85.7559 532.255 85.9111 531.751 86.2217C531.253 86.5264 530.731 87.0479 530.187 87.7861V94H528.455Z" fill="white"/>
<path d="M541.094 94L537.139 84.4551H538.914L542.087 92.1016L545.356 84.4551H546.895L542.834 94H541.094Z" fill="white"/>
<path d="M557.09 93.6221C555.889 94.0205 554.787 94.2197 553.785 94.2197C552.145 94.2197 550.882 93.7979 549.997 92.9541C549.118 92.1104 548.679 90.9033 548.679 89.333C548.679 87.8506 549.101 86.6318 549.944 85.6768C550.794 84.7217 551.872 84.2441 553.179 84.2441C554.497 84.2441 555.467 84.6396 556.088 85.4307C556.715 86.2217 557.028 87.4521 557.028 89.1221V89.6758H550.524C550.653 91.8379 551.819 92.9189 554.022 92.9189C554.954 92.9189 555.977 92.6963 557.09 92.251V93.6221ZM550.577 88.375H555.183V88.1289C555.183 86.4062 554.465 85.5449 553.029 85.5449C552.338 85.5449 551.775 85.7939 551.342 86.292C550.914 86.79 550.659 87.4844 550.577 88.375Z" fill="white"/>
<path d="M566.02 94V92.207C565.176 93.5488 564.133 94.2197 562.891 94.2197C561.812 94.2197 560.96 93.8008 560.333 92.9629C559.712 92.125 559.401 90.9854 559.401 89.5439C559.401 87.9619 559.771 86.6846 560.509 85.7119C561.247 84.7334 562.214 84.2441 563.409 84.2441C564.435 84.2441 565.305 84.6777 566.02 85.5449V80.1221H567.751V94H566.02ZM566.02 86.8457C565.211 85.9785 564.42 85.5449 563.646 85.5449C562.885 85.5449 562.293 85.8789 561.871 86.5469C561.455 87.2148 561.247 88.1553 561.247 89.3682C561.247 91.6123 561.918 92.7344 563.26 92.7344C564.238 92.7344 565.158 92.125 566.02 90.9062V86.8457Z" fill="white"/>
<path d="M573.253 94V91.3984H575.854V94H573.253Z" fill="white"/>
<path d="M26.1514 137.648C24.9912 138.064 23.8984 138.272 22.873 138.272C21.0801 138.272 19.6357 137.736 18.54 136.664C17.4443 135.586 16.8965 134.171 16.8965 132.419C16.8965 130.644 17.4414 129.205 18.5312 128.104C19.6211 127.002 21.0449 126.451 22.8027 126.451C23.7988 126.451 24.8652 126.621 26.002 126.961V128.552C24.8418 128.019 23.7578 127.752 22.75 127.752C21.584 127.752 20.623 128.18 19.8672 129.035C19.1172 129.891 18.7422 130.98 18.7422 132.305C18.7422 133.641 19.167 134.733 20.0166 135.583C20.8662 136.433 21.959 136.857 23.2949 136.857C24.1035 136.857 25.0557 136.646 26.1514 136.225V137.648Z" fill="white"/>
<path d="M30.9678 131.057V128.455H33.5693V131.057H30.9678ZM30.9678 138V135.398H33.5693V138H30.9678Z" fill="white"/>
<path d="M46.4277 140.602L38.3418 124.122H39.792L47.8779 140.602H46.4277Z" fill="white"/>
<path d="M50.3564 138L48.6777 126.724H50.1543L51.5254 136.093H51.5518L53.1777 129.105H54.8477L56.4473 135.987H56.4648L57.915 126.724H59.2334L57.3789 138H55.498L53.9424 131.382H53.9248L52.3604 138H50.3564Z" fill="white"/>
<path d="M64.375 138V129.756H60.9033V128.455H66.1064V138H64.375ZM64.1553 126.293V124.122H66.3262V126.293H64.1553Z" fill="white"/>
<path d="M71.8281 138V128.455H73.5596V130.248C74.3564 128.912 75.4404 128.244 76.8115 128.244C78.6221 128.244 79.5273 129.319 79.5273 131.47V138H77.7959V131.944C77.7959 131.2 77.6787 130.673 77.4443 130.362C77.2158 130.046 76.8291 129.888 76.2842 129.888C75.417 129.888 74.5088 130.512 73.5596 131.76V138H71.8281Z" fill="white"/>
<path d="M88.8086 138V136.207C87.9648 137.549 86.9219 138.22 85.6797 138.22C84.6016 138.22 83.749 137.801 83.1221 136.963C82.501 136.125 82.1904 134.985 82.1904 133.544C82.1904 131.962 82.5596 130.685 83.2979 129.712C84.0361 128.733 85.0029 128.244 86.1982 128.244C87.2236 128.244 88.0938 128.678 88.8086 129.545V124.122H90.54V138H88.8086ZM88.8086 130.846C88 129.979 87.209 129.545 86.4355 129.545C85.6738 129.545 85.082 129.879 84.6602 130.547C84.2441 131.215 84.0361 132.155 84.0361 133.368C84.0361 135.612 84.707 136.734 86.0488 136.734C87.0273 136.734 87.9473 136.125 88.8086 134.906V130.846Z" fill="white"/>
<path d="M97.3428 138.22C95.9424 138.22 94.8408 137.777 94.0381 136.893C93.2412 136.002 92.8428 134.78 92.8428 133.228C92.8428 131.681 93.2441 130.465 94.0469 129.58C94.8496 128.689 95.9482 128.244 97.3428 128.244C98.7432 128.244 99.8418 128.689 100.639 129.58C101.441 130.465 101.843 131.681 101.843 133.228C101.843 134.78 101.441 136.002 100.639 136.893C99.8418 137.777 98.7432 138.22 97.3428 138.22ZM97.3428 136.919C98.1748 136.919 98.8252 136.594 99.2939 135.943C99.7627 135.293 99.9971 134.388 99.9971 133.228C99.9971 132.073 99.7627 131.171 99.2939 130.521C98.8252 129.87 98.1748 129.545 97.3428 129.545C96.5107 129.545 95.8604 129.87 95.3916 130.521C94.9229 131.171 94.6885 132.073 94.6885 133.228C94.6885 134.388 94.9229 135.293 95.3916 135.943C95.8604 136.594 96.5107 136.919 97.3428 136.919Z" fill="white"/>
<path d="M104.611 138L102.871 128.455H104.471L105.736 135.926H105.754L107.45 129.325H109.129L110.737 136.181H110.764L112.17 128.455H113.497L111.59 138H109.885L108.206 130.863H108.188L106.334 138H104.611Z" fill="white"/>
<path d="M115.255 137.613V136.049C116.597 136.629 117.757 136.919 118.735 136.919C119.438 136.919 120.019 136.778 120.476 136.497C120.938 136.21 121.17 135.85 121.17 135.416C121.17 134.859 120.622 134.405 119.526 134.054L117.672 133.447C116.225 132.979 115.501 132.152 115.501 130.969C115.501 130.102 115.826 129.431 116.477 128.956C117.133 128.481 118.059 128.244 119.254 128.244C120.15 128.244 121.19 128.382 122.374 128.657V130.063C121.231 129.718 120.188 129.545 119.245 129.545C118.612 129.545 118.105 129.659 117.725 129.888C117.35 130.116 117.162 130.424 117.162 130.811C117.162 131.285 117.593 131.672 118.454 131.971L120.643 132.735C121.439 133.017 122.011 133.354 122.356 133.746C122.708 134.133 122.884 134.637 122.884 135.258C122.884 136.16 122.512 136.881 121.768 137.42C121.023 137.953 120.024 138.22 118.771 138.22C117.675 138.22 116.503 138.018 115.255 137.613Z" fill="white"/>
<path d="M133.193 140.602L125.107 124.122H126.558L134.644 140.602H133.193Z" fill="white"/>
<path d="M136.946 137.613V136.049C138.288 136.629 139.448 136.919 140.427 136.919C141.13 136.919 141.71 136.778 142.167 136.497C142.63 136.21 142.861 135.85 142.861 135.416C142.861 134.859 142.313 134.405 141.218 134.054L139.363 133.447C137.916 132.979 137.192 132.152 137.192 130.969C137.192 130.102 137.518 129.431 138.168 128.956C138.824 128.481 139.75 128.244 140.945 128.244C141.842 128.244 142.882 128.382 144.065 128.657V130.063C142.923 129.718 141.88 129.545 140.937 129.545C140.304 129.545 139.797 129.659 139.416 129.888C139.041 130.116 138.854 130.424 138.854 130.811C138.854 131.285 139.284 131.672 140.146 131.971L142.334 132.735C143.131 133.017 143.702 133.354 144.048 133.746C144.399 134.133 144.575 134.637 144.575 135.258C144.575 136.16 144.203 136.881 143.459 137.42C142.715 137.953 141.716 138.22 140.462 138.22C139.366 138.22 138.194 138.018 136.946 137.613Z" fill="white"/>
<path d="M147.396 141.472V140.171H148.1C148.756 140.171 149.233 140.065 149.532 139.854C149.831 139.644 150.145 139.189 150.473 138.492L150.903 137.578L146.896 128.455H148.688L151.809 135.601L154.955 128.455H156.511L151.703 139.222C151.328 140.06 150.88 140.643 150.358 140.971C149.837 141.305 149.096 141.472 148.135 141.472H147.396Z" fill="white"/>
<path d="M158.638 137.613V136.049C159.979 136.629 161.14 136.919 162.118 136.919C162.821 136.919 163.401 136.778 163.858 136.497C164.321 136.21 164.553 135.85 164.553 135.416C164.553 134.859 164.005 134.405 162.909 134.054L161.055 133.447C159.607 132.979 158.884 132.152 158.884 130.969C158.884 130.102 159.209 129.431 159.859 128.956C160.516 128.481 161.441 128.244 162.637 128.244C163.533 128.244 164.573 128.382 165.757 128.657V130.063C164.614 129.718 163.571 129.545 162.628 129.545C161.995 129.545 161.488 129.659 161.107 129.888C160.732 130.116 160.545 130.424 160.545 130.811C160.545 131.285 160.976 131.672 161.837 131.971L164.025 132.735C164.822 133.017 165.394 133.354 165.739 133.746C166.091 134.133 166.267 134.637 166.267 135.258C166.267 136.16 165.895 136.881 165.15 137.42C164.406 137.953 163.407 138.22 162.153 138.22C161.058 138.22 159.886 138.018 158.638 137.613Z" fill="white"/>
<path d="M177.525 137.991C176.658 138.144 175.82 138.22 175.012 138.22C173.6 138.22 172.639 137.968 172.129 137.464C171.619 136.954 171.364 135.993 171.364 134.581V129.976H168.982V128.675H171.364V126.618H173.104V128.675H177.332V129.976H173.104V134.862C173.104 135.407 173.137 135.782 173.201 135.987C173.271 136.192 173.418 136.371 173.641 136.523C174.039 136.787 174.619 136.919 175.381 136.919C176.102 136.919 176.816 136.837 177.525 136.673V137.991Z" fill="white"/>
<path d="M188.336 137.622C187.135 138.021 186.033 138.22 185.031 138.22C183.391 138.22 182.128 137.798 181.243 136.954C180.364 136.11 179.925 134.903 179.925 133.333C179.925 131.851 180.347 130.632 181.19 129.677C182.04 128.722 183.118 128.244 184.425 128.244C185.743 128.244 186.713 128.64 187.334 129.431C187.961 130.222 188.274 131.452 188.274 133.122V133.676H181.771C181.899 135.838 183.065 136.919 185.269 136.919C186.2 136.919 187.223 136.696 188.336 136.251V137.622ZM181.823 132.375H186.429V132.129C186.429 130.406 185.711 129.545 184.275 129.545C183.584 129.545 183.021 129.794 182.588 130.292C182.16 130.79 181.905 131.484 181.823 132.375Z" fill="white"/>
<path d="M190.349 138V128.455H191.869V130.248C192.613 128.912 193.322 128.244 193.996 128.244C194.857 128.244 195.411 128.912 195.657 130.248H195.719C196.328 128.912 197.043 128.244 197.863 128.244C198.461 128.244 198.895 128.464 199.164 128.903C199.434 129.337 199.568 130.04 199.568 131.013V138H198.048V131.083C198.048 130.562 198.01 130.207 197.934 130.02C197.857 129.832 197.714 129.738 197.503 129.738C196.952 129.738 196.357 130.438 195.719 131.839V138H194.198V131.399C194.198 130.743 194.16 130.307 194.084 130.09C194.008 129.867 193.855 129.756 193.627 129.756C193.381 129.756 193.088 129.958 192.748 130.362C192.414 130.761 192.121 131.259 191.869 131.856V138H190.349Z" fill="white"/>
<path d="M202.434 137.938V136.409C203.611 136.819 204.517 137.024 205.149 137.024C205.935 137.024 206.567 136.784 207.048 136.304C207.528 135.817 207.769 135.182 207.769 134.396C207.769 133.518 207.481 132.841 206.907 132.366C206.339 131.892 205.527 131.654 204.473 131.654H203.629V130.406H204.13C204.897 130.406 205.457 130.359 205.809 130.266C206.166 130.166 206.491 129.973 206.784 129.686C207.247 129.229 207.479 128.64 207.479 127.919C207.479 127.315 207.294 126.841 206.925 126.495C206.556 126.144 206.055 125.968 205.422 125.968C204.537 125.968 203.603 126.205 202.618 126.68V125.159C203.573 124.825 204.54 124.658 205.519 124.658C206.679 124.658 207.584 124.922 208.234 125.449C208.891 125.971 209.219 126.697 209.219 127.629C209.219 129.082 208.437 130.172 206.872 130.898C208.7 131.525 209.614 132.691 209.614 134.396C209.614 135.598 209.207 136.553 208.393 137.262C207.584 137.971 206.491 138.325 205.114 138.325C204.259 138.325 203.365 138.196 202.434 137.938Z" fill="white"/>
<path d="M212.699 138V136.479C213.414 135.097 214.48 133.702 215.898 132.296L216.681 131.514C217.759 130.441 218.298 129.36 218.298 128.271C218.298 127.573 218.09 127.017 217.674 126.601C217.264 126.179 216.713 125.968 216.021 125.968C215.184 125.968 214.185 126.272 213.024 126.882V125.353C214.103 124.896 215.157 124.667 216.188 124.667C217.378 124.667 218.333 124.992 219.054 125.643C219.78 126.287 220.144 127.14 220.144 128.2C220.144 128.886 219.977 129.53 219.643 130.134C219.309 130.737 218.743 131.411 217.946 132.155L217.208 132.85C215.849 134.115 215.031 135.325 214.756 136.479H220.073V138H212.699Z" fill="white"/>
<path d="M222.824 128.675L232.149 133.342L222.824 138V136.541L229.24 133.342L222.824 130.134V128.675Z" fill="white"/>
<path d="M146.988 32.0117V26H148.5V33.5H130.5V15.5H138V17.0117H131.988V32.0117H146.988ZM139.5 12.5H151.5V24.5H150V15.0664L137.027 28.0273L135.973 26.9727L148.934 14H139.5V12.5Z" fill="#2570B7"/>
<path d="M47.3662 34H45.749V21.1504H52.9297V22.5742H47.3662V27.127H52.5869V28.542H47.3662V34Z" fill="#2570B7"/>
<path d="M58.9854 34.1758C57.5381 34.1758 56.4014 33.7393 55.5752 32.8662C54.7549 31.9873 54.3447 30.7803 54.3447 29.2451C54.3447 27.6982 54.7285 26.4678 55.4961 25.5537C56.2637 24.6338 57.3008 24.1738 58.6074 24.1738C59.8203 24.1738 60.7871 24.5664 61.5078 25.3516C62.2285 26.1309 62.5889 27.1885 62.5889 28.5244V29.4824H55.9795C56.0088 30.5781 56.2871 31.4102 56.8145 31.9785C57.3418 32.5469 58.0889 32.8311 59.0557 32.8311C59.5713 32.8311 60.0605 32.7871 60.5234 32.6992C60.9863 32.6055 61.5283 32.4268 62.1494 32.1631V33.5518C61.6162 33.7803 61.1152 33.9414 60.6465 34.0352C60.1777 34.1289 59.624 34.1758 58.9854 34.1758ZM58.5898 25.4658C57.834 25.4658 57.2363 25.709 56.7969 26.1953C56.3574 26.6816 56.0967 27.3584 56.0146 28.2256H60.9277C60.916 27.3232 60.708 26.6377 60.3037 26.1689C59.8994 25.7002 59.3281 25.4658 58.5898 25.4658Z" fill="#2570B7"/>
<path d="M69.1455 34.1758C67.6982 34.1758 66.5615 33.7393 65.7354 32.8662C64.915 31.9873 64.5049 30.7803 64.5049 29.2451C64.5049 27.6982 64.8887 26.4678 65.6562 25.5537C66.4238 24.6338 67.4609 24.1738 68.7676 24.1738C69.9805 24.1738 70.9473 24.5664 71.668 25.3516C72.3887 26.1309 72.749 27.1885 72.749 28.5244V29.4824H66.1396C66.1689 30.5781 66.4473 31.4102 66.9746 31.9785C67.502 32.5469 68.249 32.8311 69.2158 32.8311C69.7314 32.8311 70.2207 32.7871 70.6836 32.6992C71.1465 32.6055 71.6885 32.4268 72.3096 32.1631V33.5518C71.7764 33.7803 71.2754 33.9414 70.8066 34.0352C70.3379 34.1289 69.7842 34.1758 69.1455 34.1758ZM68.75 25.4658C67.9941 25.4658 67.3965 25.709 66.957 26.1953C66.5176 26.6816 66.2568 27.3584 66.1748 28.2256H71.0879C71.0762 27.3232 70.8682 26.6377 70.4639 26.1689C70.0596 25.7002 69.4883 25.4658 68.75 25.4658Z" fill="#2570B7"/>
<path d="M78.6201 34.1758C77.3662 34.1758 76.3936 33.7422 75.7021 32.875C75.0107 32.0078 74.665 30.7803 74.665 29.1924C74.665 27.6162 75.0107 26.3857 75.7021 25.501C76.3994 24.6162 77.3779 24.1738 78.6377 24.1738C79.9326 24.1738 80.9287 24.6484 81.626 25.5977H81.7402C81.7227 25.4805 81.6992 25.2461 81.6699 24.8945C81.6406 24.5371 81.626 24.2969 81.626 24.1738V20.3242H83.208V34H81.9336L81.6963 32.708H81.626C80.9521 33.6865 79.9502 34.1758 78.6201 34.1758ZM78.875 32.8662C79.8359 32.8662 80.5361 32.6055 80.9756 32.084C81.4209 31.5566 81.6436 30.6953 81.6436 29.5V29.21C81.6436 27.8682 81.418 26.9131 80.9668 26.3447C80.5215 25.7705 79.8184 25.4834 78.8574 25.4834C78.043 25.4834 77.4131 25.8086 76.9678 26.459C76.5225 27.1035 76.2998 28.0264 76.2998 29.2275C76.2998 30.4229 76.5195 31.3281 76.959 31.9434C77.4043 32.5586 78.043 32.8662 78.875 32.8662Z" fill="#2570B7"/>
<path d="M90.8457 24.1914C92.1172 24.1914 93.0986 24.6309 93.79 25.5098C94.4814 26.3828 94.8271 27.6045 94.8271 29.1748C94.8271 30.7686 94.4756 32.002 93.7725 32.875C93.0693 33.7422 92.0938 34.1758 90.8457 34.1758C90.1953 34.1758 89.6152 34.0586 89.1055 33.8242C88.5957 33.5898 88.1797 33.2412 87.8574 32.7783H87.7344C87.5527 33.4814 87.4443 33.8887 87.4092 34H86.2754V20.3242H87.8574V23.6465C87.8574 24.3086 87.8281 24.9707 87.7695 25.6328H87.8574C88.5078 24.6719 89.5039 24.1914 90.8457 24.1914ZM90.582 25.501C89.6094 25.501 88.9121 25.7764 88.4902 26.3271C88.0684 26.8779 87.8574 27.8096 87.8574 29.1221V29.1924C87.8574 30.5107 88.0713 31.4541 88.499 32.0225C88.9326 32.585 89.6387 32.8662 90.6172 32.8662C91.4844 32.8662 92.1289 32.5498 92.5508 31.917C92.9785 31.2783 93.1924 30.3584 93.1924 29.1572C93.1924 27.9385 92.9785 27.0244 92.5508 26.415C92.123 25.8057 91.4668 25.501 90.582 25.501Z" fill="#2570B7"/>
<path d="M103.309 34L103.001 32.6289H102.931C102.45 33.2324 101.97 33.6426 101.489 33.8594C101.015 34.0703 100.414 34.1758 99.6875 34.1758C98.7383 34.1758 97.9941 33.9268 97.4551 33.4287C96.916 32.9307 96.6465 32.2275 96.6465 31.3193C96.6465 29.3623 98.1904 28.3369 101.278 28.2432L102.913 28.1816V27.6104C102.913 26.8779 102.755 26.3389 102.438 25.9932C102.122 25.6416 101.615 25.4658 100.918 25.4658C100.408 25.4658 99.9248 25.542 99.4678 25.6943C99.0166 25.8467 98.5918 26.0166 98.1934 26.2041L97.71 25.0176C98.1963 24.7598 98.7266 24.5576 99.3008 24.4111C99.875 24.2646 100.443 24.1914 101.006 24.1914C102.172 24.1914 103.039 24.4492 103.607 24.9648C104.176 25.4805 104.46 26.3008 104.46 27.4258V34H103.309ZM100.048 32.9014C100.933 32.9014 101.627 32.6641 102.131 32.1895C102.641 31.709 102.896 31.0293 102.896 30.1504V29.2803L101.472 29.3418C100.364 29.3828 99.5557 29.5586 99.0459 29.8691C98.542 30.1797 98.29 30.6689 98.29 31.3369C98.29 31.8408 98.4424 32.2275 98.7471 32.4971C99.0576 32.7666 99.4912 32.9014 100.048 32.9014Z" fill="#2570B7"/>
<path d="M111.324 34.1758C109.936 34.1758 108.854 33.751 108.081 32.9014C107.308 32.0459 106.921 30.8213 106.921 29.2275C106.921 27.6104 107.311 26.3652 108.09 25.4922C108.875 24.6133 109.991 24.1738 111.438 24.1738C111.907 24.1738 112.37 24.2236 112.827 24.3232C113.29 24.417 113.671 24.54 113.97 24.6924L113.486 26.0107C112.672 25.7061 111.978 25.5537 111.403 25.5537C110.431 25.5537 109.713 25.8613 109.25 26.4766C108.787 27.0859 108.556 27.9971 108.556 29.21C108.556 30.376 108.787 31.2695 109.25 31.8906C109.713 32.5059 110.398 32.8135 111.307 32.8135C112.156 32.8135 112.991 32.626 113.812 32.251V33.6572C113.144 34.0029 112.314 34.1758 111.324 34.1758Z" fill="#2570B7"/>
<path d="M117.67 29.0342L118.206 28.3486L118.821 27.6104L121.906 24.3496H123.752L119.85 28.4717L124.024 34H122.117L118.769 29.5L117.67 30.458V34H116.105V20.3242H117.67V27.4697L117.6 29.0342H117.67Z" fill="#2570B7"/>
<path d="M20.9258 28.3359C20.8555 28.1328 20.793 27.8711 20.7383 27.5508C20.6836 27.2227 20.6562 26.8984 20.6562 26.5781C20.6562 26.0781 20.7539 25.6289 20.9492 25.2305C21.1523 24.8242 21.4023 24.4453 21.6992 24.0938C21.9961 23.7422 22.3203 23.4062 22.6719 23.0859C23.0234 22.7578 23.3477 22.4297 23.6445 22.1016C23.9414 21.7656 24.1875 21.418 24.3828 21.0586C24.5859 20.6914 24.6875 20.2891 24.6875 19.8516C24.6875 19.4766 24.6133 19.1445 24.4648 18.8555C24.3242 18.5664 24.1289 18.3242 23.8789 18.1289C23.6289 17.9336 23.3398 17.7891 23.0117 17.6953C22.6836 17.5938 22.3359 17.543 21.9688 17.543C20.6484 17.543 19.5039 18.0625 18.5352 19.1016V17.0391C19.7305 16.2891 20.9688 15.9141 22.25 15.9141C22.8438 15.9141 23.4023 15.9922 23.9258 16.1484C24.4492 16.3047 24.9062 16.5391 25.2969 16.8516C25.6953 17.1562 26.0078 17.5391 26.2344 18C26.4609 18.4609 26.5742 18.9961 26.5742 19.6055C26.5742 20.1836 26.4727 20.6992 26.2695 21.1523C26.0664 21.6055 25.8086 22.0234 25.4961 22.4062C25.1914 22.7812 24.8594 23.1328 24.5 23.4609C24.1406 23.7891 23.8047 24.1172 23.4922 24.4453C23.1875 24.7656 22.9336 25.1016 22.7305 25.4531C22.5273 25.8047 22.4258 26.1914 22.4258 26.6133C22.4258 26.9727 22.4688 27.3008 22.5547 27.5977C22.6406 27.8867 22.7266 28.1328 22.8125 28.3359H20.9258ZM21.9805 33.2109C21.6367 33.2109 21.332 33.0859 21.0664 32.8359C20.8086 32.5859 20.6797 32.2812 20.6797 31.9219C20.6797 31.5547 20.8086 31.25 21.0664 31.0078C21.3242 30.75 21.6289 30.6211 21.9805 30.6211C22.332 30.6211 22.6367 30.75 22.8945 31.0078C23.1523 31.25 23.2812 31.5547 23.2812 31.9219C23.2812 32.2812 23.1523 32.5859 22.8945 32.8359C22.6289 33.0859 22.3242 33.2109 21.9805 33.2109Z" fill="black"/>
<path d="M222.875 17.9219C222.5 17.7109 222.074 17.6055 221.598 17.6055C220.254 17.6055 219.582 18.4531 219.582 20.1484V22H222.395V23.6406H219.582V34H217.672V23.6406H215.621V22H217.672V20.0547C217.672 18.7969 218.035 17.8047 218.762 17.0781C219.488 16.3438 220.395 15.9766 221.48 15.9766C222.066 15.9766 222.531 16.0469 222.875 16.1875V17.9219Z" fill="black"/>
<path d="M234.43 34H232.508V27.1562C232.508 24.6094 231.578 23.3359 229.719 23.3359C228.758 23.3359 227.961 23.6992 227.328 24.4258C226.703 25.1445 226.391 26.0547 226.391 27.1562V34H224.469V22H226.391V23.9922H226.438C227.344 22.4766 228.656 21.7188 230.375 21.7188C231.688 21.7188 232.691 22.1445 233.387 22.9961C234.082 23.8398 234.43 25.0625 234.43 26.6641V34Z" fill="black"/>
<rect x="233" y="122" width="10" height="20" fill="white"/>
<path d="M191.412 24.6484V24.8242C191.412 24.8828 191.415 24.9414 191.422 25V25.1758C191.422 25.2344 191.419 25.293 191.412 25.3516L193.941 26.9238L192.389 30.6641L189.488 30C189.332 30.1693 189.169 30.332 189 30.4883L189.664 33.3887L185.924 34.9414L184.352 32.4121H184.176C184.117 32.4121 184.059 32.4154 184 32.4219H183.824C183.766 32.4219 183.707 32.4186 183.648 32.4121L182.076 34.9414L178.336 33.3887L179 30.4883C178.831 30.332 178.668 30.1693 178.512 30L175.611 30.6641L174.059 26.9238L176.588 25.3516V25.1758C176.588 25.1172 176.585 25.0586 176.578 25V24.8242C176.578 24.7656 176.581 24.707 176.588 24.6484L174.059 23.0762L175.611 19.3359L178.512 20C178.668 19.8307 178.831 19.668 179 19.5117L178.336 16.6113L182.076 15.0586L183.648 17.5879H183.824C183.883 17.5879 183.941 17.5846 184 17.5781H184.176C184.234 17.5781 184.293 17.5814 184.352 17.5879L185.924 15.0586L189.664 16.6113L189 19.5117C189.169 19.668 189.332 19.8307 189.488 20L192.389 19.3359L193.941 23.0762L191.412 24.6484ZM190.27 25.918C190.283 25.7617 190.296 25.6087 190.309 25.459C190.322 25.3092 190.328 25.153 190.328 24.9902C190.328 24.8405 190.322 24.6875 190.309 24.5312C190.296 24.375 190.283 24.222 190.27 24.0723L192.574 22.6367L191.734 20.6055L189.088 21.2207C188.886 20.9733 188.681 20.7454 188.473 20.5371C188.264 20.3288 188.033 20.1204 187.779 19.9121L188.395 17.2656L186.363 16.4258L184.918 18.7305C184.768 18.7174 184.615 18.7044 184.459 18.6914C184.303 18.6784 184.15 18.6719 184 18.6719C183.844 18.6719 183.691 18.6784 183.541 18.6914C183.391 18.7044 183.235 18.7174 183.072 18.7305L181.637 16.4258L179.605 17.2656L180.221 19.9121C179.973 20.1139 179.745 20.319 179.537 20.5273C179.329 20.7357 179.12 20.9668 178.912 21.2207L176.266 20.6055L175.426 22.6367L177.73 24.082C177.717 24.2383 177.704 24.3913 177.691 24.541C177.678 24.6908 177.672 24.847 177.672 25.0098C177.672 25.1595 177.678 25.3125 177.691 25.4688C177.704 25.625 177.717 25.778 177.73 25.9277L175.426 27.3633L176.266 29.3945L178.912 28.7793C179.114 29.0267 179.319 29.2546 179.527 29.4629C179.736 29.6712 179.967 29.8796 180.221 30.0879L179.605 32.7344L181.637 33.5742L183.082 31.2695C183.232 31.2826 183.385 31.2956 183.541 31.3086C183.697 31.3216 183.85 31.3281 184 31.3281C184.156 31.3281 184.309 31.3216 184.459 31.3086C184.609 31.2956 184.765 31.2826 184.928 31.2695L186.363 33.5742L188.395 32.7344L187.779 30.0879C188.027 29.8861 188.255 29.681 188.463 29.4727C188.671 29.2643 188.88 29.0332 189.088 28.7793L191.734 29.3945L192.574 27.3633L190.27 25.918ZM184 21.3281C184.508 21.3281 184.983 21.4225 185.426 21.6113C185.868 21.8001 186.259 22.0638 186.598 22.4023C186.936 22.7409 187.197 23.1283 187.379 23.5645C187.561 24.0007 187.659 24.4792 187.672 25C187.672 25.5078 187.577 25.9831 187.389 26.4258C187.2 26.8685 186.936 27.2591 186.598 27.5977C186.259 27.9362 185.872 28.1966 185.436 28.3789C184.999 28.5612 184.521 28.6589 184 28.6719C183.492 28.6719 183.017 28.5775 182.574 28.3887C182.132 28.1999 181.741 27.9362 181.402 27.5977C181.064 27.2591 180.803 26.8717 180.621 26.4355C180.439 25.9993 180.341 25.5208 180.328 25C180.328 24.4922 180.423 24.0169 180.611 23.5742C180.8 23.1315 181.064 22.7409 181.402 22.4023C181.741 22.0638 182.128 21.8034 182.564 21.6211C183.001 21.4388 183.479 21.3411 184 21.3281ZM184 27.5781C184.358 27.5781 184.693 27.513 185.006 27.3828C185.318 27.2526 185.592 27.0671 185.826 26.8262C186.061 26.5853 186.243 26.3118 186.373 26.0059C186.503 25.6999 186.572 25.3646 186.578 25C186.578 24.6419 186.513 24.3066 186.383 23.9941C186.253 23.6816 186.067 23.4082 185.826 23.1738C185.585 22.9395 185.312 22.7572 185.006 22.627C184.7 22.4967 184.365 22.4284 184 22.4219C183.642 22.4219 183.307 22.487 182.994 22.6172C182.682 22.7474 182.408 22.9329 182.174 23.1738C181.939 23.4147 181.757 23.6882 181.627 23.9941C181.497 24.3001 181.428 24.6354 181.422 25C181.422 25.3581 181.487 25.6934 181.617 26.0059C181.747 26.3184 181.933 26.5918 182.174 26.8262C182.415 27.0605 182.688 27.2428 182.994 27.373C183.3 27.5033 183.635 27.5716 184 27.5781Z" fill="#676565"/>
</svg>
