<svg width="721" height="321" viewBox="0 0 721 321" fill="none" xmlns="http://www.w3.org/2000/svg">
<rect y="1" width="720" height="320" fill="black"/>
<rect x="1" y="4" width="719" height="43" fill="#EEEEEE"/>
<rect x="0.5" y="0.5" width="720" height="320" stroke="#C3C3C3"/>
<path d="M26.1514 102.648C24.9912 103.064 23.8984 103.272 22.873 103.272C21.0801 103.272 19.6357 102.736 18.54 101.664C17.4443 100.586 16.8965 99.1709 16.8965 97.4189C16.8965 95.6436 17.4414 94.2051 18.5312 93.1035C19.6211 92.002 21.0449 91.4512 22.8027 91.4512C23.7988 91.4512 24.8652 91.6211 26.002 91.9609V93.5518C24.8418 93.0186 23.7578 92.752 22.75 92.752C21.584 92.752 20.623 93.1797 19.8672 94.0352C19.1172 94.8906 18.7422 95.9805 18.7422 97.3047C18.7422 98.6406 19.167 99.7334 20.0166 100.583C20.8662 101.433 21.959 101.857 23.2949 101.857C24.1035 101.857 25.0557 101.646 26.1514 101.225V102.648Z" fill="white"/>
<path d="M32.2686 103.22C30.8682 103.22 29.7666 102.777 28.9639 101.893C28.167 101.002 27.7686 99.7803 27.7686 98.2275C27.7686 96.6807 28.1699 95.4648 28.9727 94.5801C29.7754 93.6895 30.874 93.2441 32.2686 93.2441C33.6689 93.2441 34.7676 93.6895 35.5645 94.5801C36.3672 95.4648 36.7686 96.6807 36.7686 98.2275C36.7686 99.7803 36.3672 101.002 35.5645 101.893C34.7676 102.777 33.6689 103.22 32.2686 103.22ZM32.2686 101.919C33.1006 101.919 33.751 101.594 34.2197 100.943C34.6885 100.293 34.9229 99.3877 34.9229 98.2275C34.9229 97.0732 34.6885 96.1709 34.2197 95.5205C33.751 94.8701 33.1006 94.5449 32.2686 94.5449C31.4365 94.5449 30.7861 94.8701 30.3174 95.5205C29.8486 96.1709 29.6143 97.0732 29.6143 98.2275C29.6143 99.3877 29.8486 100.293 30.3174 100.943C30.7861 101.594 31.4365 101.919 32.2686 101.919Z" fill="white"/>
<path d="M38.5088 103V93.4551H40.0293V95.248C40.7734 93.9121 41.4824 93.2441 42.1562 93.2441C43.0176 93.2441 43.5713 93.9121 43.8174 95.248H43.8789C44.4883 93.9121 45.2031 93.2441 46.0234 93.2441C46.6211 93.2441 47.0547 93.4639 47.3242 93.9033C47.5938 94.3369 47.7285 95.04 47.7285 96.0127V103H46.208V96.083C46.208 95.5615 46.1699 95.207 46.0938 95.0195C46.0176 94.832 45.874 94.7383 45.6631 94.7383C45.1123 94.7383 44.5176 95.4385 43.8789 96.8389V103H42.3584V96.3994C42.3584 95.7432 42.3203 95.3066 42.2441 95.0898C42.168 94.8672 42.0156 94.7559 41.7871 94.7559C41.541 94.7559 41.248 94.958 40.9082 95.3623C40.5742 95.7607 40.2812 96.2588 40.0293 96.8564V103H38.5088Z" fill="white"/>
<path d="M50.1104 106.472V93.4551H51.8418V95.248C52.6797 93.9121 53.7197 93.2441 54.9619 93.2441C56.0459 93.2441 56.8984 93.6631 57.5195 94.501C58.1465 95.333 58.46 96.4697 58.46 97.9111C58.46 99.4932 58.0908 100.773 57.3525 101.752C56.6143 102.73 55.6475 103.22 54.4521 103.22C53.4268 103.22 52.5566 102.786 51.8418 101.919V106.472H50.1104ZM51.8418 100.618C52.6445 101.485 53.4355 101.919 54.2148 101.919C54.9766 101.919 55.5654 101.585 55.9814 100.917C56.4033 100.243 56.6143 99.3027 56.6143 98.0957C56.6143 95.8457 55.9434 94.7207 54.6016 94.7207C53.623 94.7207 52.7031 95.3301 51.8418 96.5488V100.618Z" fill="white"/>
<path d="M68.6289 93.4551V103H66.8975V101.207C66.1006 102.549 65.0137 103.22 63.6367 103.22C61.832 103.22 60.9297 102.142 60.9297 99.9854V93.4551H62.6611V99.5107C62.6611 100.261 62.7754 100.794 63.0039 101.11C63.2324 101.421 63.6221 101.576 64.1729 101.576C65.04 101.576 65.9482 100.949 66.8975 99.6953V93.4551H68.6289Z" fill="white"/>
<path d="M79.9141 102.991C79.0469 103.144 78.209 103.22 77.4004 103.22C75.9883 103.22 75.0273 102.968 74.5176 102.464C74.0078 101.954 73.7529 100.993 73.7529 99.5811V94.9756H71.3711V93.6748H73.7529V91.6182H75.4932V93.6748H79.7207V94.9756H75.4932V99.8623C75.4932 100.407 75.5254 100.782 75.5898 100.987C75.6602 101.192 75.8066 101.371 76.0293 101.523C76.4277 101.787 77.0078 101.919 77.7695 101.919C78.4902 101.919 79.2051 101.837 79.9141 101.673V102.991Z" fill="white"/>
<path d="M90.7246 102.622C89.5234 103.021 88.4219 103.22 87.4199 103.22C85.7793 103.22 84.5166 102.798 83.6318 101.954C82.7529 101.11 82.3135 99.9033 82.3135 98.333C82.3135 96.8506 82.7354 95.6318 83.5791 94.6768C84.4287 93.7217 85.5068 93.2441 86.8135 93.2441C88.1318 93.2441 89.1016 93.6396 89.7227 94.4307C90.3496 95.2217 90.6631 96.4521 90.6631 98.1221V98.6758H84.1592C84.2881 100.838 85.4541 101.919 87.6572 101.919C88.5889 101.919 89.6113 101.696 90.7246 101.251V102.622ZM84.2119 97.375H88.8174V97.1289C88.8174 95.4062 88.0996 94.5449 86.6641 94.5449C85.9727 94.5449 85.4102 94.7939 84.9766 95.292C84.5488 95.79 84.2939 96.4844 84.2119 97.375Z" fill="white"/>
<path d="M94.627 103V93.4551H96.3584V95.248C97.2373 93.9121 98.418 93.2441 99.9004 93.2441C100.422 93.2441 101.014 93.3174 101.676 93.4639V96.1709H100.375V94.8438C100.117 94.7852 99.8828 94.7559 99.6719 94.7559C99.0098 94.7559 98.4268 94.9111 97.9229 95.2217C97.4248 95.5264 96.9033 96.0479 96.3584 96.7861V103H94.627Z" fill="white"/>
<path d="M118.604 103V94.7559H115.132V93.4551H120.335V103H118.604ZM118.384 91.293V89.1221H120.555V91.293H118.384Z" fill="white"/>
<path d="M126.101 102.613V101.049C127.442 101.629 128.603 101.919 129.581 101.919C130.284 101.919 130.864 101.778 131.321 101.497C131.784 101.21 132.016 100.85 132.016 100.416C132.016 99.8594 131.468 99.4053 130.372 99.0537L128.518 98.4473C127.07 97.9785 126.347 97.1523 126.347 95.9688C126.347 95.1016 126.672 94.4307 127.322 93.9561C127.979 93.4814 128.904 93.2441 130.1 93.2441C130.996 93.2441 132.036 93.3818 133.22 93.6572V95.0635C132.077 94.7178 131.034 94.5449 130.091 94.5449C129.458 94.5449 128.951 94.6592 128.57 94.8877C128.195 95.1162 128.008 95.4238 128.008 95.8105C128.008 96.2852 128.438 96.6719 129.3 96.9707L131.488 97.7354C132.285 98.0166 132.856 98.3535 133.202 98.7461C133.554 99.1328 133.729 99.6367 133.729 100.258C133.729 101.16 133.357 101.881 132.613 102.42C131.869 102.953 130.87 103.22 129.616 103.22C128.521 103.22 127.349 103.018 126.101 102.613Z" fill="white"/>
<path d="M147.669 103.105V89.1221H149.4V95.248C150.238 93.9121 151.278 93.2441 152.521 93.2441C153.604 93.2441 154.457 93.6631 155.078 94.501C155.705 95.333 156.019 96.4697 156.019 97.9111C156.019 99.4932 155.649 100.773 154.911 101.752C154.173 102.73 153.206 103.22 152.011 103.22C150.985 103.22 150.115 102.786 149.4 101.919L148.97 103.105H147.669ZM149.4 100.618C150.203 101.485 150.994 101.919 151.773 101.919C152.535 101.919 153.124 101.585 153.54 100.917C153.962 100.243 154.173 99.3027 154.173 98.0957C154.173 95.8457 153.502 94.7207 152.16 94.7207C151.182 94.7207 150.262 95.3301 149.4 96.5488V100.618Z" fill="white"/>
<path d="M162.417 103.22C161.017 103.22 159.915 102.777 159.112 101.893C158.315 101.002 157.917 99.7803 157.917 98.2275C157.917 96.6807 158.318 95.4648 159.121 94.5801C159.924 93.6895 161.022 93.2441 162.417 93.2441C163.817 93.2441 164.916 93.6895 165.713 94.5801C166.516 95.4648 166.917 96.6807 166.917 98.2275C166.917 99.7803 166.516 101.002 165.713 101.893C164.916 102.777 163.817 103.22 162.417 103.22ZM162.417 101.919C163.249 101.919 163.899 101.594 164.368 100.943C164.837 100.293 165.071 99.3877 165.071 98.2275C165.071 97.0732 164.837 96.1709 164.368 95.5205C163.899 94.8701 163.249 94.5449 162.417 94.5449C161.585 94.5449 160.935 94.8701 160.466 95.5205C159.997 96.1709 159.763 97.0732 159.763 98.2275C159.763 99.3877 159.997 100.293 160.466 100.943C160.935 101.594 161.585 101.919 162.417 101.919Z" fill="white"/>
<path d="M173.263 103.22C171.862 103.22 170.761 102.777 169.958 101.893C169.161 101.002 168.763 99.7803 168.763 98.2275C168.763 96.6807 169.164 95.4648 169.967 94.5801C170.77 93.6895 171.868 93.2441 173.263 93.2441C174.663 93.2441 175.762 93.6895 176.559 94.5801C177.361 95.4648 177.763 96.6807 177.763 98.2275C177.763 99.7803 177.361 101.002 176.559 101.893C175.762 102.777 174.663 103.22 173.263 103.22ZM173.263 101.919C174.095 101.919 174.745 101.594 175.214 100.943C175.683 100.293 175.917 99.3877 175.917 98.2275C175.917 97.0732 175.683 96.1709 175.214 95.5205C174.745 94.8701 174.095 94.5449 173.263 94.5449C172.431 94.5449 171.78 94.8701 171.312 95.5205C170.843 96.1709 170.608 97.0732 170.608 98.2275C170.608 99.3877 170.843 100.293 171.312 100.943C171.78 101.594 172.431 101.919 173.263 101.919Z" fill="white"/>
<path d="M188.371 102.991C187.504 103.144 186.666 103.22 185.857 103.22C184.445 103.22 183.484 102.968 182.975 102.464C182.465 101.954 182.21 100.993 182.21 99.5811V94.9756H179.828V93.6748H182.21V91.6182H183.95V93.6748H188.178V94.9756H183.95V99.8623C183.95 100.407 183.982 100.782 184.047 100.987C184.117 101.192 184.264 101.371 184.486 101.523C184.885 101.787 185.465 101.919 186.227 101.919C186.947 101.919 187.662 101.837 188.371 101.673V102.991Z" fill="white"/>
<path d="M194.523 103V94.7559H191.052V93.4551H196.255V103H194.523ZM194.304 91.293V89.1221H196.475V91.293H194.304Z" fill="white"/>
<path d="M201.977 103V93.4551H203.708V95.248C204.505 93.9121 205.589 93.2441 206.96 93.2441C208.771 93.2441 209.676 94.3193 209.676 96.4697V103H207.944V96.9443C207.944 96.2002 207.827 95.6729 207.593 95.3623C207.364 95.0459 206.978 94.8877 206.433 94.8877C205.565 94.8877 204.657 95.5117 203.708 96.7598V103H201.977Z" fill="white"/>
<path d="M213.086 106.19L213.271 104.731C214.308 105.171 215.271 105.391 216.162 105.391C218.014 105.391 218.939 104.509 218.939 102.745L219.019 101.022C218.292 102.341 217.24 103 215.863 103C214.773 103 213.906 102.587 213.262 101.761C212.623 100.929 212.304 99.8096 212.304 98.4033C212.304 96.874 212.676 95.6318 213.42 94.6768C214.164 93.7158 215.131 93.2354 216.32 93.2354C217.252 93.2354 218.169 93.6719 219.071 94.5449V93.4551H220.697V101.093C220.697 102.329 220.615 103.258 220.451 103.879C220.287 104.506 219.979 105.06 219.528 105.54C218.808 106.308 217.68 106.691 216.145 106.691C215.242 106.691 214.223 106.524 213.086 106.19ZM218.966 99.6162V95.8633C218.187 94.9844 217.381 94.5449 216.549 94.5449C215.793 94.5449 215.204 94.873 214.782 95.5293C214.36 96.1855 214.149 97.1055 214.149 98.2891C214.149 99.291 214.334 100.076 214.703 100.645C215.072 101.207 215.588 101.488 216.25 101.488C217.275 101.488 218.181 100.864 218.966 99.6162Z" fill="white"/>
<path d="M226.19 105.821V104.951C226.788 104.869 227.137 104.351 227.236 103.396L227.271 103H226.19V100.398H228.792V101.972C228.792 104.444 227.925 105.728 226.19 105.821Z" fill="white"/>
<path d="M252.637 91.9873V93.4902C251.365 92.998 250.234 92.752 249.244 92.752C247.68 92.752 246.897 93.2793 246.897 94.334C246.897 94.7617 247.044 95.1074 247.337 95.3711C247.63 95.6289 248.172 95.8955 248.963 96.1709L250.07 96.5576L251.125 96.918C252.76 97.4922 253.577 98.4648 253.577 99.8359C253.577 100.879 253.158 101.714 252.32 102.341C251.488 102.962 250.372 103.272 248.972 103.272C247.999 103.272 246.742 103.064 245.201 102.648V100.935C246.736 101.626 248.011 101.972 249.024 101.972C249.88 101.972 250.562 101.805 251.072 101.471C251.582 101.131 251.837 100.677 251.837 100.108C251.837 99.6748 251.685 99.332 251.38 99.0801C251.081 98.8281 250.46 98.5293 249.517 98.1836L248.356 97.7617C247.202 97.334 246.399 96.8945 245.948 96.4434C245.503 95.9922 245.28 95.3916 245.28 94.6416C245.28 93.6279 245.623 92.8428 246.309 92.2861C247 91.7295 247.97 91.4512 249.218 91.4512C250.231 91.4512 251.371 91.6299 252.637 91.9873Z" fill="white"/>
<path d="M254.711 103L259.158 91.7236H260.89L265.337 103H263.5L262.437 100.179H257.286L256.205 103H254.711ZM257.805 98.8779H261.918L259.853 93.4902L257.805 98.8779Z" fill="white"/>
<path d="M275.603 102.648C274.442 103.064 273.35 103.272 272.324 103.272C270.531 103.272 269.087 102.736 267.991 101.664C266.896 100.586 266.348 99.1709 266.348 97.4189C266.348 95.6436 266.893 94.2051 267.982 93.1035C269.072 92.002 270.496 91.4512 272.254 91.4512C273.25 91.4512 274.316 91.6211 275.453 91.9609V93.5518C274.293 93.0186 273.209 92.752 272.201 92.752C271.035 92.752 270.074 93.1797 269.318 94.0352C268.568 94.8906 268.193 95.9805 268.193 97.3047C268.193 98.6406 268.618 99.7334 269.468 100.583C270.317 101.433 271.41 101.857 272.746 101.857C273.555 101.857 274.507 101.646 275.603 101.225V102.648Z" fill="white"/>
<path d="M288.786 102.613V101.049C290.128 101.629 291.288 101.919 292.267 101.919C292.97 101.919 293.55 101.778 294.007 101.497C294.47 101.21 294.701 100.85 294.701 100.416C294.701 99.8594 294.153 99.4053 293.058 99.0537L291.203 98.4473C289.756 97.9785 289.032 97.1523 289.032 95.9688C289.032 95.1016 289.357 94.4307 290.008 93.9561C290.664 93.4814 291.59 93.2441 292.785 93.2441C293.682 93.2441 294.722 93.3818 295.905 93.6572V95.0635C294.763 94.7178 293.72 94.5449 292.776 94.5449C292.144 94.5449 291.637 94.6592 291.256 94.8877C290.881 95.1162 290.693 95.4238 290.693 95.8105C290.693 96.2852 291.124 96.6719 291.985 96.9707L294.174 97.7354C294.971 98.0166 295.542 98.3535 295.888 98.7461C296.239 99.1328 296.415 99.6367 296.415 100.258C296.415 101.16 296.043 101.881 295.299 102.42C294.555 102.953 293.556 103.22 292.302 103.22C291.206 103.22 290.034 103.018 288.786 102.613Z" fill="white"/>
<path d="M307.674 102.991C306.807 103.144 305.969 103.22 305.16 103.22C303.748 103.22 302.787 102.968 302.277 102.464C301.768 101.954 301.513 100.993 301.513 99.5811V94.9756H299.131V93.6748H301.513V91.6182H303.253V93.6748H307.48V94.9756H303.253V99.8623C303.253 100.407 303.285 100.782 303.35 100.987C303.42 101.192 303.566 101.371 303.789 101.523C304.188 101.787 304.768 101.919 305.529 101.919C306.25 101.919 306.965 101.837 307.674 101.673V102.991Z" fill="white"/>
<path d="M316.173 101.849C315.124 102.728 314.078 103.167 313.035 103.167C312.162 103.167 311.441 102.918 310.873 102.42C310.311 101.922 310.029 101.292 310.029 100.53C310.029 99.54 310.469 98.7432 311.348 98.1396C312.227 97.5361 313.387 97.2344 314.828 97.2344H315.9V96.417C315.9 95.7432 315.751 95.2627 315.452 94.9756C315.153 94.6885 314.658 94.5449 313.967 94.5449C312.965 94.5449 311.928 94.8262 310.855 95.3887V93.9033C312.086 93.4639 313.24 93.2441 314.318 93.2441C315.531 93.2441 316.387 93.4844 316.885 93.9648C317.389 94.4453 317.641 95.2744 317.641 96.4521V100.451C317.641 101.025 317.702 101.418 317.825 101.629C317.948 101.834 318.18 101.937 318.52 101.937C318.631 101.937 318.812 101.907 319.064 101.849L319.223 102.886C318.643 103.073 318.203 103.167 317.904 103.167C317.049 103.167 316.472 102.728 316.173 101.849ZM315.9 100.724V98.3154H315.382C313.009 98.3154 311.822 98.957 311.822 100.24C311.822 100.703 311.975 101.075 312.279 101.356C312.584 101.638 312.988 101.778 313.492 101.778C314.248 101.778 315.051 101.427 315.9 100.724Z" fill="white"/>
<path d="M322.387 103V93.4551H324.118V95.248C324.997 93.9121 326.178 93.2441 327.66 93.2441C328.182 93.2441 328.773 93.3174 329.436 93.4639V96.1709H328.135V94.8438C327.877 94.7852 327.643 94.7559 327.432 94.7559C326.77 94.7559 326.187 94.9111 325.683 95.2217C325.185 95.5264 324.663 96.0479 324.118 96.7861V103H322.387Z" fill="white"/>
<path d="M340.211 102.991C339.344 103.144 338.506 103.22 337.697 103.22C336.285 103.22 335.324 102.968 334.814 102.464C334.305 101.954 334.05 100.993 334.05 99.5811V94.9756H331.668V93.6748H334.05V91.6182H335.79V93.6748H340.018V94.9756H335.79V99.8623C335.79 100.407 335.822 100.782 335.887 100.987C335.957 101.192 336.104 101.371 336.326 101.523C336.725 101.787 337.305 101.919 338.066 101.919C338.787 101.919 339.502 101.837 340.211 101.673V102.991Z" fill="white"/>
<path d="M351.021 102.622C349.82 103.021 348.719 103.22 347.717 103.22C346.076 103.22 344.813 102.798 343.929 101.954C343.05 101.11 342.61 99.9033 342.61 98.333C342.61 96.8506 343.032 95.6318 343.876 94.6768C344.726 93.7217 345.804 93.2441 347.11 93.2441C348.429 93.2441 349.398 93.6396 350.02 94.4307C350.646 95.2217 350.96 96.4521 350.96 98.1221V98.6758H344.456C344.585 100.838 345.751 101.919 347.954 101.919C348.886 101.919 349.908 101.696 351.021 101.251V102.622ZM344.509 97.375H349.114V97.1289C349.114 95.4062 348.396 94.5449 346.961 94.5449C346.27 94.5449 345.707 94.7939 345.273 95.292C344.846 95.79 344.591 96.4844 344.509 97.375Z" fill="white"/>
<path d="M359.951 103V101.207C359.107 102.549 358.064 103.22 356.822 103.22C355.744 103.22 354.892 102.801 354.265 101.963C353.644 101.125 353.333 99.9854 353.333 98.5439C353.333 96.9619 353.702 95.6846 354.44 94.7119C355.179 93.7334 356.146 93.2441 357.341 93.2441C358.366 93.2441 359.236 93.6777 359.951 94.5449V89.1221H361.683V103H359.951ZM359.951 95.8457C359.143 94.9785 358.352 94.5449 357.578 94.5449C356.816 94.5449 356.225 94.8789 355.803 95.5469C355.387 96.2148 355.179 97.1553 355.179 98.3682C355.179 100.612 355.85 101.734 357.191 101.734C358.17 101.734 359.09 101.125 359.951 99.9062V95.8457Z" fill="white"/>
<path d="M381.247 101.849C380.198 102.728 379.152 103.167 378.109 103.167C377.236 103.167 376.516 102.918 375.947 102.42C375.385 101.922 375.104 101.292 375.104 100.53C375.104 99.54 375.543 98.7432 376.422 98.1396C377.301 97.5361 378.461 97.2344 379.902 97.2344H380.975V96.417C380.975 95.7432 380.825 95.2627 380.526 94.9756C380.228 94.6885 379.732 94.5449 379.041 94.5449C378.039 94.5449 377.002 94.8262 375.93 95.3887V93.9033C377.16 93.4639 378.314 93.2441 379.393 93.2441C380.605 93.2441 381.461 93.4844 381.959 93.9648C382.463 94.4453 382.715 95.2744 382.715 96.4521V100.451C382.715 101.025 382.776 101.418 382.899 101.629C383.022 101.834 383.254 101.937 383.594 101.937C383.705 101.937 383.887 101.907 384.139 101.849L384.297 102.886C383.717 103.073 383.277 103.167 382.979 103.167C382.123 103.167 381.546 102.728 381.247 101.849ZM380.975 100.724V98.3154H380.456C378.083 98.3154 376.896 98.957 376.896 100.24C376.896 100.703 377.049 101.075 377.354 101.356C377.658 101.638 378.062 101.778 378.566 101.778C379.322 101.778 380.125 101.427 380.975 100.724Z" fill="white"/>
<path d="M386.354 103V93.4551H388.085V95.248C388.882 93.9121 389.966 93.2441 391.337 93.2441C393.147 93.2441 394.053 94.3193 394.053 96.4697V103H392.321V96.9443C392.321 96.2002 392.204 95.6729 391.97 95.3623C391.741 95.0459 391.354 94.8877 390.81 94.8877C389.942 94.8877 389.034 95.5117 388.085 96.7598V103H386.354Z" fill="white"/>
<path d="M403.334 103V101.207C402.49 102.549 401.447 103.22 400.205 103.22C399.127 103.22 398.274 102.801 397.647 101.963C397.026 101.125 396.716 99.9854 396.716 98.5439C396.716 96.9619 397.085 95.6846 397.823 94.7119C398.562 93.7334 399.528 93.2441 400.724 93.2441C401.749 93.2441 402.619 93.6777 403.334 94.5449V89.1221H405.065V103H403.334ZM403.334 95.8457C402.525 94.9785 401.734 94.5449 400.961 94.5449C400.199 94.5449 399.607 94.8789 399.186 95.5469C398.77 96.2148 398.562 97.1553 398.562 98.3682C398.562 100.612 399.232 101.734 400.574 101.734C401.553 101.734 402.473 101.125 403.334 99.9062V95.8457Z" fill="white"/>
<path d="M422.283 103V94.7559H418.812V93.4551H424.015V103H422.283ZM422.063 91.293V89.1221H424.234V91.293H422.063Z" fill="white"/>
<path d="M429.736 103V93.4551H431.468V95.248C432.265 93.9121 433.349 93.2441 434.72 93.2441C436.53 93.2441 437.436 94.3193 437.436 96.4697V103H435.704V96.9443C435.704 96.2002 435.587 95.6729 435.353 95.3623C435.124 95.0459 434.737 94.8877 434.192 94.8877C433.325 94.8877 432.417 95.5117 431.468 96.7598V103H429.736Z" fill="white"/>
<path d="M443.975 103V94.7559H440.503V93.4551H445.706V103H443.975ZM443.755 91.293V89.1221H445.926V91.293H443.755Z" fill="white"/>
<path d="M459.514 102.991C458.646 103.144 457.809 103.22 457 103.22C455.588 103.22 454.627 102.968 454.117 102.464C453.607 101.954 453.353 100.993 453.353 99.5811V94.9756H450.971V93.6748H453.353V91.6182H455.093V93.6748H459.32V94.9756H455.093V99.8623C455.093 100.407 455.125 100.782 455.189 100.987C455.26 101.192 455.406 101.371 455.629 101.523C456.027 101.787 456.607 101.919 457.369 101.919C458.09 101.919 458.805 101.837 459.514 101.673V102.991Z" fill="white"/>
<path d="M465.666 103V94.7559H462.194V93.4551H467.397V103H465.666ZM465.446 91.293V89.1221H467.617V91.293H465.446Z" fill="white"/>
<path d="M478.858 101.849C477.81 102.728 476.764 103.167 475.721 103.167C474.848 103.167 474.127 102.918 473.559 102.42C472.996 101.922 472.715 101.292 472.715 100.53C472.715 99.54 473.154 98.7432 474.033 98.1396C474.912 97.5361 476.072 97.2344 477.514 97.2344H478.586V96.417C478.586 95.7432 478.437 95.2627 478.138 94.9756C477.839 94.6885 477.344 94.5449 476.652 94.5449C475.65 94.5449 474.613 94.8262 473.541 95.3887V93.9033C474.771 93.4639 475.926 93.2441 477.004 93.2441C478.217 93.2441 479.072 93.4844 479.57 93.9648C480.074 94.4453 480.326 95.2744 480.326 96.4521V100.451C480.326 101.025 480.388 101.418 480.511 101.629C480.634 101.834 480.865 101.937 481.205 101.937C481.316 101.937 481.498 101.907 481.75 101.849L481.908 102.886C481.328 103.073 480.889 103.167 480.59 103.167C479.734 103.167 479.157 102.728 478.858 101.849ZM478.586 100.724V98.3154H478.067C475.694 98.3154 474.508 98.957 474.508 100.24C474.508 100.703 474.66 101.075 474.965 101.356C475.27 101.638 475.674 101.778 476.178 101.778C476.934 101.778 477.736 101.427 478.586 100.724Z" fill="white"/>
<path d="M487.568 103V90.4229H483.886V89.1221H489.309V103H487.568Z" fill="white"/>
<path d="M498.203 103V94.7559H494.731V93.4551H499.935V103H498.203ZM497.983 91.293V89.1221H500.154V91.293H497.983Z" fill="white"/>
<path d="M505.252 103V101.699L511.501 94.7559H505.472V93.4551H513.549V94.7559L507.291 101.699H513.707V103H505.252Z" fill="white"/>
<path d="M524.553 102.622C523.352 103.021 522.25 103.22 521.248 103.22C519.607 103.22 518.345 102.798 517.46 101.954C516.581 101.11 516.142 99.9033 516.142 98.333C516.142 96.8506 516.563 95.6318 517.407 94.6768C518.257 93.7217 519.335 93.2441 520.642 93.2441C521.96 93.2441 522.93 93.6396 523.551 94.4307C524.178 95.2217 524.491 96.4521 524.491 98.1221V98.6758H517.987C518.116 100.838 519.282 101.919 521.485 101.919C522.417 101.919 523.439 101.696 524.553 101.251V102.622ZM518.04 97.375H522.646V97.1289C522.646 95.4062 521.928 94.5449 520.492 94.5449C519.801 94.5449 519.238 94.7939 518.805 95.292C518.377 95.79 518.122 96.4844 518.04 97.375Z" fill="white"/>
<path d="M533.482 103V101.207C532.639 102.549 531.596 103.22 530.354 103.22C529.275 103.22 528.423 102.801 527.796 101.963C527.175 101.125 526.864 99.9854 526.864 98.5439C526.864 96.9619 527.233 95.6846 527.972 94.7119C528.71 93.7334 529.677 93.2441 530.872 93.2441C531.897 93.2441 532.768 93.6777 533.482 94.5449V89.1221H535.214V103H533.482ZM533.482 95.8457C532.674 94.9785 531.883 94.5449 531.109 94.5449C530.348 94.5449 529.756 94.8789 529.334 95.5469C528.918 96.2148 528.71 97.1553 528.71 98.3682C528.71 100.612 529.381 101.734 530.723 101.734C531.701 101.734 532.621 101.125 533.482 99.9062V95.8457Z" fill="white"/>
<path d="M540.716 103V100.398H543.317V103H540.716Z" fill="white"/>
<path d="M17.3447 135.724H19.0762V142.57C19.0762 143.766 19.2637 144.633 19.6387 145.172C20.0195 145.705 20.6318 145.972 21.4756 145.972C22.3662 145.972 23.0078 145.705 23.4004 145.172C23.793 144.633 23.9893 143.751 23.9893 142.526V135.724H25.501V142.271C25.501 143.684 25.334 144.697 25 145.312C24.291 146.619 23.1221 147.272 21.4932 147.272C20.0811 147.272 19.0352 146.886 18.3555 146.112C17.6816 145.339 17.3447 144.149 17.3447 142.544V135.724Z" fill="white"/>
<path d="M28.4893 146.613V145.049C29.8311 145.629 30.9912 145.919 31.9697 145.919C32.6729 145.919 33.2529 145.778 33.71 145.497C34.1729 145.21 34.4043 144.85 34.4043 144.416C34.4043 143.859 33.8564 143.405 32.7607 143.054L30.9062 142.447C29.459 141.979 28.7354 141.152 28.7354 139.969C28.7354 139.102 29.0605 138.431 29.7109 137.956C30.3672 137.481 31.293 137.244 32.4883 137.244C33.3848 137.244 34.4248 137.382 35.6084 137.657V139.063C34.4658 138.718 33.4229 138.545 32.4795 138.545C31.8467 138.545 31.3398 138.659 30.959 138.888C30.584 139.116 30.3965 139.424 30.3965 139.811C30.3965 140.285 30.8271 140.672 31.6885 140.971L33.877 141.735C34.6738 142.017 35.2451 142.354 35.5908 142.746C35.9424 143.133 36.1182 143.637 36.1182 144.258C36.1182 145.16 35.7461 145.881 35.002 146.42C34.2578 146.953 33.2588 147.22 32.0049 147.22C30.9092 147.22 29.7373 147.018 28.4893 146.613Z" fill="white"/>
<path d="M47.3418 146.622C46.1406 147.021 45.0391 147.22 44.0371 147.22C42.3965 147.22 41.1338 146.798 40.249 145.954C39.3701 145.11 38.9307 143.903 38.9307 142.333C38.9307 140.851 39.3525 139.632 40.1963 138.677C41.0459 137.722 42.124 137.244 43.4307 137.244C44.749 137.244 45.7188 137.64 46.3398 138.431C46.9668 139.222 47.2803 140.452 47.2803 142.122V142.676H40.7764C40.9053 144.838 42.0713 145.919 44.2744 145.919C45.2061 145.919 46.2285 145.696 47.3418 145.251V146.622ZM40.8291 141.375H45.4346V141.129C45.4346 139.406 44.7168 138.545 43.2812 138.545C42.5898 138.545 42.0273 138.794 41.5938 139.292C41.166 139.79 40.9111 140.484 40.8291 141.375Z" fill="white"/>
<path d="M69.0684 146.991C68.2012 147.144 67.3633 147.22 66.5547 147.22C65.1426 147.22 64.1816 146.968 63.6719 146.464C63.1621 145.954 62.9072 144.993 62.9072 143.581V138.976H60.5254V137.675H62.9072V135.618H64.6475V137.675H68.875V138.976H64.6475V143.862C64.6475 144.407 64.6797 144.782 64.7441 144.987C64.8145 145.192 64.9609 145.371 65.1836 145.523C65.582 145.787 66.1621 145.919 66.9238 145.919C67.6445 145.919 68.3594 145.837 69.0684 145.673V146.991Z" fill="white"/>
<path d="M71.8281 147V133.122H73.5596V139.248C74.3564 137.912 75.4404 137.244 76.8115 137.244C78.6221 137.244 79.5273 138.319 79.5273 140.47V147H77.7959V140.944C77.7959 140.2 77.6787 139.673 77.4443 139.362C77.2158 139.046 76.8291 138.888 76.2842 138.888C75.417 138.888 74.5088 139.512 73.5596 140.76V147H71.8281Z" fill="white"/>
<path d="M90.7246 146.622C89.5234 147.021 88.4219 147.22 87.4199 147.22C85.7793 147.22 84.5166 146.798 83.6318 145.954C82.7529 145.11 82.3135 143.903 82.3135 142.333C82.3135 140.851 82.7354 139.632 83.5791 138.677C84.4287 137.722 85.5068 137.244 86.8135 137.244C88.1318 137.244 89.1016 137.64 89.7227 138.431C90.3496 139.222 90.6631 140.452 90.6631 142.122V142.676H84.1592C84.2881 144.838 85.4541 145.919 87.6572 145.919C88.5889 145.919 89.6113 145.696 90.7246 145.251V146.622ZM84.2119 141.375H88.8174V141.129C88.8174 139.406 88.0996 138.545 86.6641 138.545C85.9727 138.545 85.4102 138.794 84.9766 139.292C84.5488 139.79 84.2939 140.484 84.2119 141.375Z" fill="white"/>
<path d="M104.937 137.895V135.943C104.937 134.062 105.66 133.122 107.107 133.122V133.992C106.492 133.992 106.185 134.417 106.185 135.267V135.724H107.107V137.895H104.937ZM109.27 137.895V135.943C109.27 134.062 109.993 133.122 111.44 133.122V133.992C110.825 133.992 110.518 134.417 110.518 135.267V135.724H111.44V137.895H109.27Z" fill="white"/>
<path d="M123.306 146.692C122.28 147.044 121.258 147.22 120.238 147.22C118.574 147.22 117.291 146.786 116.389 145.919C115.492 145.052 115.044 143.821 115.044 142.228C115.044 140.663 115.486 139.441 116.371 138.562C117.262 137.684 118.498 137.244 120.08 137.244C121.088 137.244 122.104 137.396 123.13 137.701V139.151C121.999 138.747 121.035 138.545 120.238 138.545C119.195 138.545 118.375 138.873 117.777 139.529C117.186 140.186 116.89 141.085 116.89 142.228C116.89 143.382 117.206 144.287 117.839 144.943C118.478 145.594 119.356 145.919 120.476 145.919C121.313 145.919 122.257 145.723 123.306 145.33V146.692Z" fill="white"/>
<path d="M126.057 147V133.122H127.788V139.248C128.585 137.912 129.669 137.244 131.04 137.244C132.851 137.244 133.756 138.319 133.756 140.47V147H132.024V140.944C132.024 140.2 131.907 139.673 131.673 139.362C131.444 139.046 131.058 138.888 130.513 138.888C129.646 138.888 128.737 139.512 127.788 140.76V147H126.057Z" fill="white"/>
<path d="M147.994 142.228V140.927H155.148V142.228H147.994Z" fill="white"/>
<path d="M160.677 147V145.049H162.839V147H160.677ZM160.888 143.317V143.071C160.888 142.304 161.037 141.639 161.336 141.076C161.635 140.508 162.136 139.931 162.839 139.345L163.454 138.835C164.298 138.138 164.72 137.452 164.72 136.778C164.72 135.565 163.732 134.959 161.758 134.959C161.102 134.959 160.428 135.047 159.736 135.223V136.717H158.436V134.177C159.625 133.837 160.832 133.667 162.057 133.667C163.504 133.667 164.611 133.913 165.379 134.405C166.152 134.897 166.539 135.606 166.539 136.532C166.539 137.528 165.977 138.483 164.852 139.397L163.981 140.101C163.478 140.511 163.126 140.906 162.927 141.287C162.728 141.668 162.628 142.137 162.628 142.693V143.317H160.888Z" fill="white"/>
<path d="M172.182 133.122V135.073C172.182 136.954 171.458 137.895 170.011 137.895V137.024C170.626 137.024 170.934 136.6 170.934 135.75V135.293H170.011V133.122H172.182ZM176.515 133.122V135.073C176.515 136.954 175.791 137.895 174.344 137.895V137.024C174.959 137.024 175.267 136.6 175.267 135.75V135.293H174.344V133.122H176.515Z" fill="white"/>
<path d="M199.226 146.692C198.2 147.044 197.178 147.22 196.158 147.22C194.494 147.22 193.211 146.786 192.309 145.919C191.412 145.052 190.964 143.821 190.964 142.228C190.964 140.663 191.406 139.441 192.291 138.562C193.182 137.684 194.418 137.244 196 137.244C197.008 137.244 198.024 137.396 199.05 137.701V139.151C197.919 138.747 196.955 138.545 196.158 138.545C195.115 138.545 194.295 138.873 193.697 139.529C193.105 140.186 192.81 141.085 192.81 142.228C192.81 143.382 193.126 144.287 193.759 144.943C194.397 145.594 195.276 145.919 196.396 145.919C197.233 145.919 198.177 145.723 199.226 145.33V146.692Z" fill="white"/>
<path d="M205.8 147.22C204.399 147.22 203.298 146.777 202.495 145.893C201.698 145.002 201.3 143.78 201.3 142.228C201.3 140.681 201.701 139.465 202.504 138.58C203.307 137.689 204.405 137.244 205.8 137.244C207.2 137.244 208.299 137.689 209.096 138.58C209.898 139.465 210.3 140.681 210.3 142.228C210.3 143.78 209.898 145.002 209.096 145.893C208.299 146.777 207.2 147.22 205.8 147.22ZM205.8 145.919C206.632 145.919 207.282 145.594 207.751 144.943C208.22 144.293 208.454 143.388 208.454 142.228C208.454 141.073 208.22 140.171 207.751 139.521C207.282 138.87 206.632 138.545 205.8 138.545C204.968 138.545 204.317 138.87 203.849 139.521C203.38 140.171 203.146 141.073 203.146 142.228C203.146 143.388 203.38 144.293 203.849 144.943C204.317 145.594 204.968 145.919 205.8 145.919Z" fill="white"/>
<path d="M212.04 147V137.455H213.561V139.248C214.305 137.912 215.014 137.244 215.688 137.244C216.549 137.244 217.103 137.912 217.349 139.248H217.41C218.02 137.912 218.734 137.244 219.555 137.244C220.152 137.244 220.586 137.464 220.855 137.903C221.125 138.337 221.26 139.04 221.26 140.013V147H219.739V140.083C219.739 139.562 219.701 139.207 219.625 139.02C219.549 138.832 219.405 138.738 219.194 138.738C218.644 138.738 218.049 139.438 217.41 140.839V147H215.89V140.399C215.89 139.743 215.852 139.307 215.775 139.09C215.699 138.867 215.547 138.756 215.318 138.756C215.072 138.756 214.779 138.958 214.439 139.362C214.105 139.761 213.812 140.259 213.561 140.856V147H212.04Z" fill="white"/>
<path d="M222.886 147V137.455H224.406V139.248C225.15 137.912 225.859 137.244 226.533 137.244C227.395 137.244 227.948 137.912 228.194 139.248H228.256C228.865 137.912 229.58 137.244 230.4 137.244C230.998 137.244 231.432 137.464 231.701 137.903C231.971 138.337 232.105 139.04 232.105 140.013V147H230.585V140.083C230.585 139.562 230.547 139.207 230.471 139.02C230.395 138.832 230.251 138.738 230.04 138.738C229.489 138.738 228.895 139.438 228.256 140.839V147H226.735V140.399C226.735 139.743 226.697 139.307 226.621 139.09C226.545 138.867 226.393 138.756 226.164 138.756C225.918 138.756 225.625 138.958 225.285 139.362C224.951 139.761 224.658 140.259 224.406 140.856V147H222.886Z" fill="white"/>
<path d="M240.253 145.849C239.204 146.728 238.158 147.167 237.115 147.167C236.242 147.167 235.521 146.918 234.953 146.42C234.391 145.922 234.109 145.292 234.109 144.53C234.109 143.54 234.549 142.743 235.428 142.14C236.307 141.536 237.467 141.234 238.908 141.234H239.98V140.417C239.98 139.743 239.831 139.263 239.532 138.976C239.233 138.688 238.738 138.545 238.047 138.545C237.045 138.545 236.008 138.826 234.936 139.389V137.903C236.166 137.464 237.32 137.244 238.398 137.244C239.611 137.244 240.467 137.484 240.965 137.965C241.469 138.445 241.721 139.274 241.721 140.452V144.451C241.721 145.025 241.782 145.418 241.905 145.629C242.028 145.834 242.26 145.937 242.6 145.937C242.711 145.937 242.893 145.907 243.145 145.849L243.303 146.886C242.723 147.073 242.283 147.167 241.984 147.167C241.129 147.167 240.552 146.728 240.253 145.849ZM239.98 144.724V142.315H239.462C237.089 142.315 235.902 142.957 235.902 144.24C235.902 144.703 236.055 145.075 236.359 145.356C236.664 145.638 237.068 145.778 237.572 145.778C238.328 145.778 239.131 145.427 239.98 144.724Z" fill="white"/>
<path d="M245.359 147V137.455H247.091V139.248C247.888 137.912 248.972 137.244 250.343 137.244C252.153 137.244 253.059 138.319 253.059 140.47V147H251.327V140.944C251.327 140.2 251.21 139.673 250.976 139.362C250.747 139.046 250.36 138.888 249.815 138.888C248.948 138.888 248.04 139.512 247.091 140.76V147H245.359Z" fill="white"/>
<path d="M262.34 147V145.207C261.496 146.549 260.453 147.22 259.211 147.22C258.133 147.22 257.28 146.801 256.653 145.963C256.032 145.125 255.722 143.985 255.722 142.544C255.722 140.962 256.091 139.685 256.829 138.712C257.567 137.733 258.534 137.244 259.729 137.244C260.755 137.244 261.625 137.678 262.34 138.545V133.122H264.071V147H262.34ZM262.34 139.846C261.531 138.979 260.74 138.545 259.967 138.545C259.205 138.545 258.613 138.879 258.191 139.547C257.775 140.215 257.567 141.155 257.567 142.368C257.567 144.612 258.238 145.734 259.58 145.734C260.559 145.734 261.479 145.125 262.34 143.906V139.846Z" fill="white"/>
<path d="M280.199 147V138.976H277.598V137.675H280.199V136.664C280.199 135.328 280.51 134.367 281.131 133.781C281.752 133.195 282.771 132.902 284.189 132.902C285.127 132.902 286.015 133.028 286.853 133.28V134.651C285.997 134.353 285.153 134.203 284.321 134.203C283.437 134.203 282.815 134.373 282.458 134.713C282.106 135.047 281.931 135.636 281.931 136.479V137.675H286.492V138.976H281.931V147H280.199Z" fill="white"/>
<path d="M292.565 147.22C291.165 147.22 290.063 146.777 289.261 145.893C288.464 145.002 288.065 143.78 288.065 142.228C288.065 140.681 288.467 139.465 289.27 138.58C290.072 137.689 291.171 137.244 292.565 137.244C293.966 137.244 295.064 137.689 295.861 138.58C296.664 139.465 297.065 140.681 297.065 142.228C297.065 143.78 296.664 145.002 295.861 145.893C295.064 146.777 293.966 147.22 292.565 147.22ZM292.565 145.919C293.397 145.919 294.048 145.594 294.517 144.943C294.985 144.293 295.22 143.388 295.22 142.228C295.22 141.073 294.985 140.171 294.517 139.521C294.048 138.87 293.397 138.545 292.565 138.545C291.733 138.545 291.083 138.87 290.614 139.521C290.146 140.171 289.911 141.073 289.911 142.228C289.911 143.388 290.146 144.293 290.614 144.943C291.083 145.594 291.733 145.919 292.565 145.919Z" fill="white"/>
<path d="M300.695 147V137.455H302.427V139.248C303.306 137.912 304.486 137.244 305.969 137.244C306.49 137.244 307.082 137.317 307.744 137.464V140.171H306.443V138.844C306.186 138.785 305.951 138.756 305.74 138.756C305.078 138.756 304.495 138.911 303.991 139.222C303.493 139.526 302.972 140.048 302.427 140.786V147H300.695Z" fill="white"/>
<path d="M324.672 147V138.756H321.2V137.455H326.403V147H324.672ZM324.452 135.293V133.122H326.623V135.293H324.452Z" fill="white"/>
<path d="M332.125 147V137.455H333.856V139.248C334.653 137.912 335.737 137.244 337.108 137.244C338.919 137.244 339.824 138.319 339.824 140.47V147H338.093V140.944C338.093 140.2 337.976 139.673 337.741 139.362C337.513 139.046 337.126 138.888 336.581 138.888C335.714 138.888 334.806 139.512 333.856 140.76V147H332.125Z" fill="white"/>
<path d="M345.273 147V138.976H342.672V137.675H345.273V136.664C345.273 135.328 345.584 134.367 346.205 133.781C346.826 133.195 347.846 132.902 349.264 132.902C350.201 132.902 351.089 133.028 351.927 133.28V134.651C351.071 134.353 350.228 134.203 349.396 134.203C348.511 134.203 347.89 134.373 347.532 134.713C347.181 135.047 347.005 135.636 347.005 136.479V137.675H351.566V138.976H347.005V147H345.273Z" fill="white"/>
<path d="M357.64 147.22C356.239 147.22 355.138 146.777 354.335 145.893C353.538 145.002 353.14 143.78 353.14 142.228C353.14 140.681 353.541 139.465 354.344 138.58C355.146 137.689 356.245 137.244 357.64 137.244C359.04 137.244 360.139 137.689 360.936 138.58C361.738 139.465 362.14 140.681 362.14 142.228C362.14 143.78 361.738 145.002 360.936 145.893C360.139 146.777 359.04 147.22 357.64 147.22ZM357.64 145.919C358.472 145.919 359.122 145.594 359.591 144.943C360.06 144.293 360.294 143.388 360.294 142.228C360.294 141.073 360.06 140.171 359.591 139.521C359.122 138.87 358.472 138.545 357.64 138.545C356.808 138.545 356.157 138.87 355.688 139.521C355.22 140.171 354.985 141.073 354.985 142.228C354.985 143.388 355.22 144.293 355.688 144.943C356.157 145.594 356.808 145.919 357.64 145.919Z" fill="white"/>
<path d="M365.77 147V137.455H367.501V139.248C368.38 137.912 369.561 137.244 371.043 137.244C371.564 137.244 372.156 137.317 372.818 137.464V140.171H371.518V138.844C371.26 138.785 371.025 138.756 370.814 138.756C370.152 138.756 369.569 138.911 369.065 139.222C368.567 139.526 368.046 140.048 367.501 140.786V147H365.77Z" fill="white"/>
<path d="M374.726 147V137.455H376.246V139.248C376.99 137.912 377.699 137.244 378.373 137.244C379.234 137.244 379.788 137.912 380.034 139.248H380.096C380.705 137.912 381.42 137.244 382.24 137.244C382.838 137.244 383.271 137.464 383.541 137.903C383.811 138.337 383.945 139.04 383.945 140.013V147H382.425V140.083C382.425 139.562 382.387 139.207 382.311 139.02C382.234 138.832 382.091 138.738 381.88 138.738C381.329 138.738 380.734 139.438 380.096 140.839V147H378.575V140.399C378.575 139.743 378.537 139.307 378.461 139.09C378.385 138.867 378.232 138.756 378.004 138.756C377.758 138.756 377.465 138.958 377.125 139.362C376.791 139.761 376.498 140.259 376.246 140.856V147H374.726Z" fill="white"/>
<path d="M392.093 145.849C391.044 146.728 389.998 147.167 388.955 147.167C388.082 147.167 387.361 146.918 386.793 146.42C386.23 145.922 385.949 145.292 385.949 144.53C385.949 143.54 386.389 142.743 387.268 142.14C388.146 141.536 389.307 141.234 390.748 141.234H391.82V140.417C391.82 139.743 391.671 139.263 391.372 138.976C391.073 138.688 390.578 138.545 389.887 138.545C388.885 138.545 387.848 138.826 386.775 139.389V137.903C388.006 137.464 389.16 137.244 390.238 137.244C391.451 137.244 392.307 137.484 392.805 137.965C393.309 138.445 393.561 139.274 393.561 140.452V144.451C393.561 145.025 393.622 145.418 393.745 145.629C393.868 145.834 394.1 145.937 394.439 145.937C394.551 145.937 394.732 145.907 394.984 145.849L395.143 146.886C394.562 147.073 394.123 147.167 393.824 147.167C392.969 147.167 392.392 146.728 392.093 145.849ZM391.82 144.724V142.315H391.302C388.929 142.315 387.742 142.957 387.742 144.24C387.742 144.703 387.895 145.075 388.199 145.356C388.504 145.638 388.908 145.778 389.412 145.778C390.168 145.778 390.971 145.427 391.82 144.724Z" fill="white"/>
<path d="M405.285 146.991C404.418 147.144 403.58 147.22 402.771 147.22C401.359 147.22 400.398 146.968 399.889 146.464C399.379 145.954 399.124 144.993 399.124 143.581V138.976H396.742V137.675H399.124V135.618H400.864V137.675H405.092V138.976H400.864V143.862C400.864 144.407 400.896 144.782 400.961 144.987C401.031 145.192 401.178 145.371 401.4 145.523C401.799 145.787 402.379 145.919 403.141 145.919C403.861 145.919 404.576 145.837 405.285 145.673V146.991Z" fill="white"/>
<path d="M411.438 147V138.756H407.966V137.455H413.169V147H411.438ZM411.218 135.293V133.122H413.389V135.293H411.218Z" fill="white"/>
<path d="M422.714 147.22C421.313 147.22 420.212 146.777 419.409 145.893C418.612 145.002 418.214 143.78 418.214 142.228C418.214 140.681 418.615 139.465 419.418 138.58C420.221 137.689 421.319 137.244 422.714 137.244C424.114 137.244 425.213 137.689 426.01 138.58C426.812 139.465 427.214 140.681 427.214 142.228C427.214 143.78 426.812 145.002 426.01 145.893C425.213 146.777 424.114 147.22 422.714 147.22ZM422.714 145.919C423.546 145.919 424.196 145.594 424.665 144.943C425.134 144.293 425.368 143.388 425.368 142.228C425.368 141.073 425.134 140.171 424.665 139.521C424.196 138.87 423.546 138.545 422.714 138.545C421.882 138.545 421.231 138.87 420.763 139.521C420.294 140.171 420.06 141.073 420.06 142.228C420.06 143.388 420.294 144.293 420.763 144.943C421.231 145.594 421.882 145.919 422.714 145.919Z" fill="white"/>
<path d="M429.736 147V137.455H431.468V139.248C432.265 137.912 433.349 137.244 434.72 137.244C436.53 137.244 437.436 138.319 437.436 140.47V147H435.704V140.944C435.704 140.2 435.587 139.673 435.353 139.362C435.124 139.046 434.737 138.888 434.192 138.888C433.325 138.888 432.417 139.512 431.468 140.76V147H429.736Z" fill="white"/>
<path d="M457.167 145.849C456.118 146.728 455.072 147.167 454.029 147.167C453.156 147.167 452.436 146.918 451.867 146.42C451.305 145.922 451.023 145.292 451.023 144.53C451.023 143.54 451.463 142.743 452.342 142.14C453.221 141.536 454.381 141.234 455.822 141.234H456.895V140.417C456.895 139.743 456.745 139.263 456.446 138.976C456.147 138.688 455.652 138.545 454.961 138.545C453.959 138.545 452.922 138.826 451.85 139.389V137.903C453.08 137.464 454.234 137.244 455.312 137.244C456.525 137.244 457.381 137.484 457.879 137.965C458.383 138.445 458.635 139.274 458.635 140.452V144.451C458.635 145.025 458.696 145.418 458.819 145.629C458.942 145.834 459.174 145.937 459.514 145.937C459.625 145.937 459.807 145.907 460.059 145.849L460.217 146.886C459.637 147.073 459.197 147.167 458.898 147.167C458.043 147.167 457.466 146.728 457.167 145.849ZM456.895 144.724V142.315H456.376C454.003 142.315 452.816 142.957 452.816 144.24C452.816 144.703 452.969 145.075 453.273 145.356C453.578 145.638 453.982 145.778 454.486 145.778C455.242 145.778 456.045 145.427 456.895 144.724Z" fill="white"/>
<path d="M462.194 147.105V133.122H463.926V139.248C464.764 137.912 465.804 137.244 467.046 137.244C468.13 137.244 468.982 137.663 469.604 138.501C470.23 139.333 470.544 140.47 470.544 141.911C470.544 143.493 470.175 144.773 469.437 145.752C468.698 146.73 467.731 147.22 466.536 147.22C465.511 147.22 464.641 146.786 463.926 145.919L463.495 147.105H462.194ZM463.926 144.618C464.729 145.485 465.52 145.919 466.299 145.919C467.061 145.919 467.649 145.585 468.065 144.917C468.487 144.243 468.698 143.303 468.698 142.096C468.698 139.846 468.027 138.721 466.686 138.721C465.707 138.721 464.787 139.33 463.926 140.549V144.618Z" fill="white"/>
<path d="M476.942 147.22C475.542 147.22 474.44 146.777 473.638 145.893C472.841 145.002 472.442 143.78 472.442 142.228C472.442 140.681 472.844 139.465 473.646 138.58C474.449 137.689 475.548 137.244 476.942 137.244C478.343 137.244 479.441 137.689 480.238 138.58C481.041 139.465 481.442 140.681 481.442 142.228C481.442 143.78 481.041 145.002 480.238 145.893C479.441 146.777 478.343 147.22 476.942 147.22ZM476.942 145.919C477.774 145.919 478.425 145.594 478.894 144.943C479.362 144.293 479.597 143.388 479.597 142.228C479.597 141.073 479.362 140.171 478.894 139.521C478.425 138.87 477.774 138.545 476.942 138.545C476.11 138.545 475.46 138.87 474.991 139.521C474.522 140.171 474.288 141.073 474.288 142.228C474.288 143.388 474.522 144.293 474.991 144.943C475.46 145.594 476.11 145.919 476.942 145.919Z" fill="white"/>
<path d="M491.611 137.455V147H489.88V145.207C489.083 146.549 487.996 147.22 486.619 147.22C484.814 147.22 483.912 146.142 483.912 143.985V137.455H485.644V143.511C485.644 144.261 485.758 144.794 485.986 145.11C486.215 145.421 486.604 145.576 487.155 145.576C488.022 145.576 488.931 144.949 489.88 143.695V137.455H491.611Z" fill="white"/>
<path d="M502.896 146.991C502.029 147.144 501.191 147.22 500.383 147.22C498.971 147.22 498.01 146.968 497.5 146.464C496.99 145.954 496.735 144.993 496.735 143.581V138.976H494.354V137.675H496.735V135.618H498.476V137.675H502.703V138.976H498.476V143.862C498.476 144.407 498.508 144.782 498.572 144.987C498.643 145.192 498.789 145.371 499.012 145.523C499.41 145.787 499.99 145.919 500.752 145.919C501.473 145.919 502.188 145.837 502.896 145.673V146.991Z" fill="white"/>
<path d="M524.148 137.455V147H522.417V145.207C521.62 146.549 520.533 147.22 519.156 147.22C517.352 147.22 516.449 146.142 516.449 143.985V137.455H518.181V143.511C518.181 144.261 518.295 144.794 518.523 145.11C518.752 145.421 519.142 145.576 519.692 145.576C520.56 145.576 521.468 144.949 522.417 143.695V137.455H524.148Z" fill="white"/>
<path d="M527.392 146.613V145.049C528.733 145.629 529.894 145.919 530.872 145.919C531.575 145.919 532.155 145.778 532.612 145.497C533.075 145.21 533.307 144.85 533.307 144.416C533.307 143.859 532.759 143.405 531.663 143.054L529.809 142.447C528.361 141.979 527.638 141.152 527.638 139.969C527.638 139.102 527.963 138.431 528.613 137.956C529.27 137.481 530.195 137.244 531.391 137.244C532.287 137.244 533.327 137.382 534.511 137.657V139.063C533.368 138.718 532.325 138.545 531.382 138.545C530.749 138.545 530.242 138.659 529.861 138.888C529.486 139.116 529.299 139.424 529.299 139.811C529.299 140.285 529.729 140.672 530.591 140.971L532.779 141.735C533.576 142.017 534.147 142.354 534.493 142.746C534.845 143.133 535.021 143.637 535.021 144.258C535.021 145.16 534.648 145.881 533.904 146.42C533.16 146.953 532.161 147.22 530.907 147.22C529.812 147.22 528.64 147.018 527.392 146.613Z" fill="white"/>
<path d="M541.586 147V138.756H538.114V137.455H543.317V147H541.586ZM541.366 135.293V133.122H543.537V135.293H541.366Z" fill="white"/>
<path d="M549.039 147V137.455H550.771V139.248C551.567 137.912 552.651 137.244 554.022 137.244C555.833 137.244 556.738 138.319 556.738 140.47V147H555.007V140.944C555.007 140.2 554.89 139.673 554.655 139.362C554.427 139.046 554.04 138.888 553.495 138.888C552.628 138.888 551.72 139.512 550.771 140.76V147H549.039Z" fill="white"/>
<path d="M560.148 150.19L560.333 148.731C561.37 149.171 562.334 149.391 563.225 149.391C565.076 149.391 566.002 148.509 566.002 146.745L566.081 145.022C565.354 146.341 564.303 147 562.926 147C561.836 147 560.969 146.587 560.324 145.761C559.686 144.929 559.366 143.81 559.366 142.403C559.366 140.874 559.738 139.632 560.482 138.677C561.227 137.716 562.193 137.235 563.383 137.235C564.314 137.235 565.231 137.672 566.134 138.545V137.455H567.76V145.093C567.76 146.329 567.678 147.258 567.514 147.879C567.35 148.506 567.042 149.06 566.591 149.54C565.87 150.308 564.742 150.691 563.207 150.691C562.305 150.691 561.285 150.524 560.148 150.19ZM566.028 143.616V139.863C565.249 138.984 564.443 138.545 563.611 138.545C562.855 138.545 562.267 138.873 561.845 139.529C561.423 140.186 561.212 141.105 561.212 142.289C561.212 143.291 561.396 144.076 561.766 144.645C562.135 145.207 562.65 145.488 563.312 145.488C564.338 145.488 565.243 144.864 566.028 143.616Z" fill="white"/>
<path d="M589.671 146.692C588.646 147.044 587.623 147.22 586.604 147.22C584.939 147.22 583.656 146.786 582.754 145.919C581.857 145.052 581.409 143.821 581.409 142.228C581.409 140.663 581.852 139.441 582.736 138.562C583.627 137.684 584.863 137.244 586.445 137.244C587.453 137.244 588.47 137.396 589.495 137.701V139.151C588.364 138.747 587.4 138.545 586.604 138.545C585.561 138.545 584.74 138.873 584.143 139.529C583.551 140.186 583.255 141.085 583.255 142.228C583.255 143.382 583.571 144.287 584.204 144.943C584.843 145.594 585.722 145.919 586.841 145.919C587.679 145.919 588.622 145.723 589.671 145.33V146.692Z" fill="white"/>
<path d="M592.422 147V133.122H594.153V139.248C594.95 137.912 596.034 137.244 597.405 137.244C599.216 137.244 600.121 138.319 600.121 140.47V147H598.39V140.944C598.39 140.2 598.272 139.673 598.038 139.362C597.81 139.046 597.423 138.888 596.878 138.888C596.011 138.888 595.103 139.512 594.153 140.76V147H592.422Z" fill="white"/>
<path d="M609.007 145.849C607.958 146.728 606.912 147.167 605.869 147.167C604.996 147.167 604.275 146.918 603.707 146.42C603.145 145.922 602.863 145.292 602.863 144.53C602.863 143.54 603.303 142.743 604.182 142.14C605.061 141.536 606.221 141.234 607.662 141.234H608.734V140.417C608.734 139.743 608.585 139.263 608.286 138.976C607.987 138.688 607.492 138.545 606.801 138.545C605.799 138.545 604.762 138.826 603.689 139.389V137.903C604.92 137.464 606.074 137.244 607.152 137.244C608.365 137.244 609.221 137.484 609.719 137.965C610.223 138.445 610.475 139.274 610.475 140.452V144.451C610.475 145.025 610.536 145.418 610.659 145.629C610.782 145.834 611.014 145.937 611.354 145.937C611.465 145.937 611.646 145.907 611.898 145.849L612.057 146.886C611.477 147.073 611.037 147.167 610.738 147.167C609.883 147.167 609.306 146.728 609.007 145.849ZM608.734 144.724V142.315H608.216C605.843 142.315 604.656 142.957 604.656 144.24C604.656 144.703 604.809 145.075 605.113 145.356C605.418 145.638 605.822 145.778 606.326 145.778C607.082 145.778 607.885 145.427 608.734 144.724Z" fill="white"/>
<path d="M614.113 147V137.455H615.845V139.248C616.642 137.912 617.726 137.244 619.097 137.244C620.907 137.244 621.812 138.319 621.812 140.47V147H620.081V140.944C620.081 140.2 619.964 139.673 619.729 139.362C619.501 139.046 619.114 138.888 618.569 138.888C617.702 138.888 616.794 139.512 615.845 140.76V147H614.113Z" fill="white"/>
<path d="M624.959 147V137.455H626.69V139.248C627.487 137.912 628.571 137.244 629.942 137.244C631.753 137.244 632.658 138.319 632.658 140.47V147H630.927V140.944C630.927 140.2 630.81 139.673 630.575 139.362C630.347 139.046 629.96 138.888 629.415 138.888C628.548 138.888 627.64 139.512 626.69 140.76V147H624.959Z" fill="white"/>
<path d="M643.855 146.622C642.654 147.021 641.553 147.22 640.551 147.22C638.91 147.22 637.647 146.798 636.763 145.954C635.884 145.11 635.444 143.903 635.444 142.333C635.444 140.851 635.866 139.632 636.71 138.677C637.56 137.722 638.638 137.244 639.944 137.244C641.263 137.244 642.232 137.64 642.854 138.431C643.48 139.222 643.794 140.452 643.794 142.122V142.676H637.29C637.419 144.838 638.585 145.919 640.788 145.919C641.72 145.919 642.742 145.696 643.855 145.251V146.622ZM637.343 141.375H641.948V141.129C641.948 139.406 641.23 138.545 639.795 138.545C639.104 138.545 638.541 138.794 638.107 139.292C637.68 139.79 637.425 140.484 637.343 141.375Z" fill="white"/>
<path d="M650.254 147V134.423H646.571V133.122H651.994V147H650.254Z" fill="white"/>
<path d="M657.54 146.613V145.049C658.882 145.629 660.042 145.919 661.021 145.919C661.724 145.919 662.304 145.778 662.761 145.497C663.224 145.21 663.455 144.85 663.455 144.416C663.455 143.859 662.907 143.405 661.812 143.054L659.957 142.447C658.51 141.979 657.786 141.152 657.786 139.969C657.786 139.102 658.111 138.431 658.762 137.956C659.418 137.481 660.344 137.244 661.539 137.244C662.436 137.244 663.476 137.382 664.659 137.657V139.063C663.517 138.718 662.474 138.545 661.53 138.545C660.897 138.545 660.391 138.659 660.01 138.888C659.635 139.116 659.447 139.424 659.447 139.811C659.447 140.285 659.878 140.672 660.739 140.971L662.928 141.735C663.725 142.017 664.296 142.354 664.642 142.746C664.993 143.133 665.169 143.637 665.169 144.258C665.169 145.16 664.797 145.881 664.053 146.42C663.309 146.953 662.31 147.22 661.056 147.22C659.96 147.22 658.788 147.018 657.54 146.613Z" fill="white"/>
<path d="M670.864 147V144.398H673.466V147H670.864Z" fill="white"/>
<path d="M17.3447 157.724H19.0762V164.57C19.0762 165.766 19.2637 166.633 19.6387 167.172C20.0195 167.705 20.6318 167.972 21.4756 167.972C22.3662 167.972 23.0078 167.705 23.4004 167.172C23.793 166.633 23.9893 165.751 23.9893 164.526V157.724H25.501V164.271C25.501 165.684 25.334 166.697 25 167.312C24.291 168.619 23.1221 169.272 21.4932 169.272C20.0811 169.272 19.0352 168.886 18.3555 168.112C17.6816 167.339 17.3447 166.149 17.3447 164.544V157.724Z" fill="white"/>
<path d="M28.4893 168.613V167.049C29.8311 167.629 30.9912 167.919 31.9697 167.919C32.6729 167.919 33.2529 167.778 33.71 167.497C34.1729 167.21 34.4043 166.85 34.4043 166.416C34.4043 165.859 33.8564 165.405 32.7607 165.054L30.9062 164.447C29.459 163.979 28.7354 163.152 28.7354 161.969C28.7354 161.102 29.0605 160.431 29.7109 159.956C30.3672 159.481 31.293 159.244 32.4883 159.244C33.3848 159.244 34.4248 159.382 35.6084 159.657V161.063C34.4658 160.718 33.4229 160.545 32.4795 160.545C31.8467 160.545 31.3398 160.659 30.959 160.888C30.584 161.116 30.3965 161.424 30.3965 161.811C30.3965 162.285 30.8271 162.672 31.6885 162.971L33.877 163.735C34.6738 164.017 35.2451 164.354 35.5908 164.746C35.9424 165.133 36.1182 165.637 36.1182 166.258C36.1182 167.16 35.7461 167.881 35.002 168.42C34.2578 168.953 33.2588 169.22 32.0049 169.22C30.9092 169.22 29.7373 169.018 28.4893 168.613Z" fill="white"/>
<path d="M47.3418 168.622C46.1406 169.021 45.0391 169.22 44.0371 169.22C42.3965 169.22 41.1338 168.798 40.249 167.954C39.3701 167.11 38.9307 165.903 38.9307 164.333C38.9307 162.851 39.3525 161.632 40.1963 160.677C41.0459 159.722 42.124 159.244 43.4307 159.244C44.749 159.244 45.7188 159.64 46.3398 160.431C46.9668 161.222 47.2803 162.452 47.2803 164.122V164.676H40.7764C40.9053 166.838 42.0713 167.919 44.2744 167.919C45.2061 167.919 46.2285 167.696 47.3418 167.251V168.622ZM40.8291 163.375H45.4346V163.129C45.4346 161.406 44.7168 160.545 43.2812 160.545C42.5898 160.545 42.0273 160.794 41.5938 161.292C41.166 161.79 40.9111 162.484 40.8291 163.375Z" fill="white"/>
<path d="M69.0684 168.991C68.2012 169.144 67.3633 169.22 66.5547 169.22C65.1426 169.22 64.1816 168.968 63.6719 168.464C63.1621 167.954 62.9072 166.993 62.9072 165.581V160.976H60.5254V159.675H62.9072V157.618H64.6475V159.675H68.875V160.976H64.6475V165.862C64.6475 166.407 64.6797 166.782 64.7441 166.987C64.8145 167.192 64.9609 167.371 65.1836 167.523C65.582 167.787 66.1621 167.919 66.9238 167.919C67.6445 167.919 68.3594 167.837 69.0684 167.673V168.991Z" fill="white"/>
<path d="M71.8281 169V155.122H73.5596V161.248C74.3564 159.912 75.4404 159.244 76.8115 159.244C78.6221 159.244 79.5273 160.319 79.5273 162.47V169H77.7959V162.944C77.7959 162.2 77.6787 161.673 77.4443 161.362C77.2158 161.046 76.8291 160.888 76.2842 160.888C75.417 160.888 74.5088 161.512 73.5596 162.76V169H71.8281Z" fill="white"/>
<path d="M90.7246 168.622C89.5234 169.021 88.4219 169.22 87.4199 169.22C85.7793 169.22 84.5166 168.798 83.6318 167.954C82.7529 167.11 82.3135 165.903 82.3135 164.333C82.3135 162.851 82.7354 161.632 83.5791 160.677C84.4287 159.722 85.5068 159.244 86.8135 159.244C88.1318 159.244 89.1016 159.64 89.7227 160.431C90.3496 161.222 90.6631 162.452 90.6631 164.122V164.676H84.1592C84.2881 166.838 85.4541 167.919 87.6572 167.919C88.5889 167.919 89.6113 167.696 90.7246 167.251V168.622ZM84.2119 163.375H88.8174V163.129C88.8174 161.406 88.0996 160.545 86.6641 160.545C85.9727 160.545 85.4102 160.794 84.9766 161.292C84.5488 161.79 84.2939 162.484 84.2119 163.375Z" fill="white"/>
<path d="M104.937 159.895V157.943C104.937 156.062 105.66 155.122 107.107 155.122V155.992C106.492 155.992 106.185 156.417 106.185 157.267V157.724H107.107V159.895H104.937ZM109.27 159.895V157.943C109.27 156.062 109.993 155.122 111.44 155.122V155.992C110.825 155.992 110.518 156.417 110.518 157.267V157.724H111.44V159.895H109.27Z" fill="white"/>
<path d="M117.294 169V167.049H119.456V169H117.294ZM117.505 165.317V165.071C117.505 164.304 117.654 163.639 117.953 163.076C118.252 162.508 118.753 161.931 119.456 161.345L120.071 160.835C120.915 160.138 121.337 159.452 121.337 158.778C121.337 157.565 120.35 156.959 118.375 156.959C117.719 156.959 117.045 157.047 116.354 157.223V158.717H115.053V156.177C116.242 155.837 117.449 155.667 118.674 155.667C120.121 155.667 121.229 155.913 121.996 156.405C122.77 156.897 123.156 157.606 123.156 158.532C123.156 159.528 122.594 160.483 121.469 161.397L120.599 162.101C120.095 162.511 119.743 162.906 119.544 163.287C119.345 163.668 119.245 164.137 119.245 164.693V165.317H117.505Z" fill="white"/>
<path d="M128.799 155.122V157.073C128.799 158.954 128.075 159.895 126.628 159.895V159.024C127.243 159.024 127.551 158.6 127.551 157.75V157.293H126.628V155.122H128.799ZM133.132 155.122V157.073C133.132 158.954 132.408 159.895 130.961 159.895V159.024C131.576 159.024 131.884 158.6 131.884 157.75V157.293H130.961V155.122H133.132Z" fill="white"/>
<path d="M155.843 168.692C154.817 169.044 153.795 169.22 152.775 169.22C151.111 169.22 149.828 168.786 148.926 167.919C148.029 167.052 147.581 165.821 147.581 164.228C147.581 162.663 148.023 161.441 148.908 160.562C149.799 159.684 151.035 159.244 152.617 159.244C153.625 159.244 154.642 159.396 155.667 159.701V161.151C154.536 160.747 153.572 160.545 152.775 160.545C151.732 160.545 150.912 160.873 150.314 161.529C149.723 162.186 149.427 163.085 149.427 164.228C149.427 165.382 149.743 166.287 150.376 166.943C151.015 167.594 151.894 167.919 153.013 167.919C153.851 167.919 154.794 167.723 155.843 167.33V168.692Z" fill="white"/>
<path d="M162.417 169.22C161.017 169.22 159.915 168.777 159.112 167.893C158.315 167.002 157.917 165.78 157.917 164.228C157.917 162.681 158.318 161.465 159.121 160.58C159.924 159.689 161.022 159.244 162.417 159.244C163.817 159.244 164.916 159.689 165.713 160.58C166.516 161.465 166.917 162.681 166.917 164.228C166.917 165.78 166.516 167.002 165.713 167.893C164.916 168.777 163.817 169.22 162.417 169.22ZM162.417 167.919C163.249 167.919 163.899 167.594 164.368 166.943C164.837 166.293 165.071 165.388 165.071 164.228C165.071 163.073 164.837 162.171 164.368 161.521C163.899 160.87 163.249 160.545 162.417 160.545C161.585 160.545 160.935 160.87 160.466 161.521C159.997 162.171 159.763 163.073 159.763 164.228C159.763 165.388 159.997 166.293 160.466 166.943C160.935 167.594 161.585 167.919 162.417 167.919Z" fill="white"/>
<path d="M168.657 169V159.455H170.178V161.248C170.922 159.912 171.631 159.244 172.305 159.244C173.166 159.244 173.72 159.912 173.966 161.248H174.027C174.637 159.912 175.352 159.244 176.172 159.244C176.77 159.244 177.203 159.464 177.473 159.903C177.742 160.337 177.877 161.04 177.877 162.013V169H176.356V162.083C176.356 161.562 176.318 161.207 176.242 161.02C176.166 160.832 176.022 160.738 175.812 160.738C175.261 160.738 174.666 161.438 174.027 162.839V169H172.507V162.399C172.507 161.743 172.469 161.307 172.393 161.09C172.316 160.867 172.164 160.756 171.936 160.756C171.689 160.756 171.396 160.958 171.057 161.362C170.723 161.761 170.43 162.259 170.178 162.856V169H168.657Z" fill="white"/>
<path d="M179.503 169V159.455H181.023V161.248C181.768 159.912 182.477 159.244 183.15 159.244C184.012 159.244 184.565 159.912 184.812 161.248H184.873C185.482 159.912 186.197 159.244 187.018 159.244C187.615 159.244 188.049 159.464 188.318 159.903C188.588 160.337 188.723 161.04 188.723 162.013V169H187.202V162.083C187.202 161.562 187.164 161.207 187.088 161.02C187.012 160.832 186.868 160.738 186.657 160.738C186.106 160.738 185.512 161.438 184.873 162.839V169H183.353V162.399C183.353 161.743 183.314 161.307 183.238 161.09C183.162 160.867 183.01 160.756 182.781 160.756C182.535 160.756 182.242 160.958 181.902 161.362C181.568 161.761 181.275 162.259 181.023 162.856V169H179.503Z" fill="white"/>
<path d="M196.87 167.849C195.821 168.728 194.775 169.167 193.732 169.167C192.859 169.167 192.139 168.918 191.57 168.42C191.008 167.922 190.727 167.292 190.727 166.53C190.727 165.54 191.166 164.743 192.045 164.14C192.924 163.536 194.084 163.234 195.525 163.234H196.598V162.417C196.598 161.743 196.448 161.263 196.149 160.976C195.851 160.688 195.355 160.545 194.664 160.545C193.662 160.545 192.625 160.826 191.553 161.389V159.903C192.783 159.464 193.938 159.244 195.016 159.244C196.229 159.244 197.084 159.484 197.582 159.965C198.086 160.445 198.338 161.274 198.338 162.452V166.451C198.338 167.025 198.399 167.418 198.522 167.629C198.646 167.834 198.877 167.937 199.217 167.937C199.328 167.937 199.51 167.907 199.762 167.849L199.92 168.886C199.34 169.073 198.9 169.167 198.602 169.167C197.746 169.167 197.169 168.728 196.87 167.849ZM196.598 166.724V164.315H196.079C193.706 164.315 192.52 164.957 192.52 166.24C192.52 166.703 192.672 167.075 192.977 167.356C193.281 167.638 193.686 167.778 194.189 167.778C194.945 167.778 195.748 167.427 196.598 166.724Z" fill="white"/>
<path d="M201.977 169V159.455H203.708V161.248C204.505 159.912 205.589 159.244 206.96 159.244C208.771 159.244 209.676 160.319 209.676 162.47V169H207.944V162.944C207.944 162.2 207.827 161.673 207.593 161.362C207.364 161.046 206.978 160.888 206.433 160.888C205.565 160.888 204.657 161.512 203.708 162.76V169H201.977Z" fill="white"/>
<path d="M218.957 169V167.207C218.113 168.549 217.07 169.22 215.828 169.22C214.75 169.22 213.897 168.801 213.271 167.963C212.649 167.125 212.339 165.985 212.339 164.544C212.339 162.962 212.708 161.685 213.446 160.712C214.185 159.733 215.151 159.244 216.347 159.244C217.372 159.244 218.242 159.678 218.957 160.545V155.122H220.688V169H218.957ZM218.957 161.846C218.148 160.979 217.357 160.545 216.584 160.545C215.822 160.545 215.23 160.879 214.809 161.547C214.393 162.215 214.185 163.155 214.185 164.368C214.185 166.612 214.855 167.734 216.197 167.734C217.176 167.734 218.096 167.125 218.957 165.906V161.846Z" fill="white"/>
<path d="M236.816 169V160.976H234.215V159.675H236.816V158.664C236.816 157.328 237.127 156.367 237.748 155.781C238.369 155.195 239.389 154.902 240.807 154.902C241.744 154.902 242.632 155.028 243.47 155.28V156.651C242.614 156.353 241.771 156.203 240.938 156.203C240.054 156.203 239.433 156.373 239.075 156.713C238.724 157.047 238.548 157.636 238.548 158.479V159.675H243.109V160.976H238.548V169H236.816Z" fill="white"/>
<path d="M249.183 169.22C247.782 169.22 246.681 168.777 245.878 167.893C245.081 167.002 244.683 165.78 244.683 164.228C244.683 162.681 245.084 161.465 245.887 160.58C246.689 159.689 247.788 159.244 249.183 159.244C250.583 159.244 251.682 159.689 252.479 160.58C253.281 161.465 253.683 162.681 253.683 164.228C253.683 165.78 253.281 167.002 252.479 167.893C251.682 168.777 250.583 169.22 249.183 169.22ZM249.183 167.919C250.015 167.919 250.665 167.594 251.134 166.943C251.603 166.293 251.837 165.388 251.837 164.228C251.837 163.073 251.603 162.171 251.134 161.521C250.665 160.87 250.015 160.545 249.183 160.545C248.351 160.545 247.7 160.87 247.231 161.521C246.763 162.171 246.528 163.073 246.528 164.228C246.528 165.388 246.763 166.293 247.231 166.943C247.7 167.594 248.351 167.919 249.183 167.919Z" fill="white"/>
<path d="M257.312 169V159.455H259.044V161.248C259.923 159.912 261.104 159.244 262.586 159.244C263.107 159.244 263.699 159.317 264.361 159.464V162.171H263.061V160.844C262.803 160.785 262.568 160.756 262.357 160.756C261.695 160.756 261.112 160.911 260.608 161.222C260.11 161.526 259.589 162.048 259.044 162.786V169H257.312Z" fill="white"/>
<path d="M278.16 172.19L278.345 170.731C279.382 171.171 280.346 171.391 281.236 171.391C283.088 171.391 284.014 170.509 284.014 168.745L284.093 167.022C283.366 168.341 282.314 169 280.938 169C279.848 169 278.98 168.587 278.336 167.761C277.697 166.929 277.378 165.81 277.378 164.403C277.378 162.874 277.75 161.632 278.494 160.677C279.238 159.716 280.205 159.235 281.395 159.235C282.326 159.235 283.243 159.672 284.146 160.545V159.455H285.771V167.093C285.771 168.329 285.689 169.258 285.525 169.879C285.361 170.506 285.054 171.06 284.603 171.54C283.882 172.308 282.754 172.691 281.219 172.691C280.316 172.691 279.297 172.524 278.16 172.19ZM284.04 165.616V161.863C283.261 160.984 282.455 160.545 281.623 160.545C280.867 160.545 280.278 160.873 279.856 161.529C279.435 162.186 279.224 163.105 279.224 164.289C279.224 165.291 279.408 166.076 279.777 166.645C280.146 167.207 280.662 167.488 281.324 167.488C282.35 167.488 283.255 166.864 284.04 165.616Z" fill="white"/>
<path d="M296.793 168.622C295.592 169.021 294.49 169.22 293.488 169.22C291.848 169.22 290.585 168.798 289.7 167.954C288.821 167.11 288.382 165.903 288.382 164.333C288.382 162.851 288.804 161.632 289.647 160.677C290.497 159.722 291.575 159.244 292.882 159.244C294.2 159.244 295.17 159.64 295.791 160.431C296.418 161.222 296.731 162.452 296.731 164.122V164.676H290.228C290.356 166.838 291.522 167.919 293.726 167.919C294.657 167.919 295.68 167.696 296.793 167.251V168.622ZM290.28 163.375H294.886V163.129C294.886 161.406 294.168 160.545 292.732 160.545C292.041 160.545 291.479 160.794 291.045 161.292C290.617 161.79 290.362 162.484 290.28 163.375Z" fill="white"/>
<path d="M299.588 169V159.455H301.319V161.248C302.116 159.912 303.2 159.244 304.571 159.244C306.382 159.244 307.287 160.319 307.287 162.47V169H305.556V162.944C305.556 162.2 305.438 161.673 305.204 161.362C304.976 161.046 304.589 160.888 304.044 160.888C303.177 160.888 302.269 161.512 301.319 162.76V169H299.588Z" fill="white"/>
<path d="M318.484 168.622C317.283 169.021 316.182 169.22 315.18 169.22C313.539 169.22 312.276 168.798 311.392 167.954C310.513 167.11 310.073 165.903 310.073 164.333C310.073 162.851 310.495 161.632 311.339 160.677C312.188 159.722 313.267 159.244 314.573 159.244C315.892 159.244 316.861 159.64 317.482 160.431C318.109 161.222 318.423 162.452 318.423 164.122V164.676H311.919C312.048 166.838 313.214 167.919 315.417 167.919C316.349 167.919 317.371 167.696 318.484 167.251V168.622ZM311.972 163.375H316.577V163.129C316.577 161.406 315.859 160.545 314.424 160.545C313.732 160.545 313.17 160.794 312.736 161.292C312.309 161.79 312.054 162.484 311.972 163.375Z" fill="white"/>
<path d="M322.387 169V159.455H324.118V161.248C324.997 159.912 326.178 159.244 327.66 159.244C328.182 159.244 328.773 159.317 329.436 159.464V162.171H328.135V160.844C327.877 160.785 327.643 160.756 327.432 160.756C326.77 160.756 326.187 160.911 325.683 161.222C325.185 161.526 324.663 162.048 324.118 162.786V169H322.387Z" fill="white"/>
<path d="M337.864 167.849C336.815 168.728 335.77 169.167 334.727 169.167C333.854 169.167 333.133 168.918 332.564 168.42C332.002 167.922 331.721 167.292 331.721 166.53C331.721 165.54 332.16 164.743 333.039 164.14C333.918 163.536 335.078 163.234 336.52 163.234H337.592V162.417C337.592 161.743 337.442 161.263 337.144 160.976C336.845 160.688 336.35 160.545 335.658 160.545C334.656 160.545 333.619 160.826 332.547 161.389V159.903C333.777 159.464 334.932 159.244 336.01 159.244C337.223 159.244 338.078 159.484 338.576 159.965C339.08 160.445 339.332 161.274 339.332 162.452V166.451C339.332 167.025 339.394 167.418 339.517 167.629C339.64 167.834 339.871 167.937 340.211 167.937C340.322 167.937 340.504 167.907 340.756 167.849L340.914 168.886C340.334 169.073 339.895 169.167 339.596 169.167C338.74 169.167 338.163 168.728 337.864 167.849ZM337.592 166.724V164.315H337.073C334.7 164.315 333.514 164.957 333.514 166.24C333.514 166.703 333.666 167.075 333.971 167.356C334.275 167.638 334.68 167.778 335.184 167.778C335.939 167.778 336.742 167.427 337.592 166.724Z" fill="white"/>
<path d="M346.574 169V156.423H342.892V155.122H348.314V169H346.574Z" fill="white"/>
<path d="M364.662 169V155.122H366.394V161.248C367.19 159.912 368.274 159.244 369.646 159.244C371.456 159.244 372.361 160.319 372.361 162.47V169H370.63V162.944C370.63 162.2 370.513 161.673 370.278 161.362C370.05 161.046 369.663 160.888 369.118 160.888C368.251 160.888 367.343 161.512 366.394 162.76V169H364.662Z" fill="white"/>
<path d="M383.559 168.622C382.357 169.021 381.256 169.22 380.254 169.22C378.613 169.22 377.351 168.798 376.466 167.954C375.587 167.11 375.147 165.903 375.147 164.333C375.147 162.851 375.569 161.632 376.413 160.677C377.263 159.722 378.341 159.244 379.647 159.244C380.966 159.244 381.936 159.64 382.557 160.431C383.184 161.222 383.497 162.452 383.497 164.122V164.676H376.993C377.122 166.838 378.288 167.919 380.491 167.919C381.423 167.919 382.445 167.696 383.559 167.251V168.622ZM377.046 163.375H381.651V163.129C381.651 161.406 380.934 160.545 379.498 160.545C378.807 160.545 378.244 160.794 377.811 161.292C377.383 161.79 377.128 162.484 377.046 163.375Z" fill="white"/>
<path d="M389.957 169V156.423H386.274V155.122H391.697V169H389.957Z" fill="white"/>
<path d="M397.173 172.472V159.455H398.904V161.248C399.742 159.912 400.782 159.244 402.024 159.244C403.108 159.244 403.961 159.663 404.582 160.501C405.209 161.333 405.522 162.47 405.522 163.911C405.522 165.493 405.153 166.773 404.415 167.752C403.677 168.73 402.71 169.22 401.515 169.22C400.489 169.22 399.619 168.786 398.904 167.919V172.472H397.173ZM398.904 166.618C399.707 167.485 400.498 167.919 401.277 167.919C402.039 167.919 402.628 167.585 403.044 166.917C403.466 166.243 403.677 165.303 403.677 164.096C403.677 161.846 403.006 160.721 401.664 160.721C400.686 160.721 399.766 161.33 398.904 162.549V166.618Z" fill="white"/>
<path d="M410.567 169V166.398H413.169V169H410.567Z" fill="white"/>
<path d="M24.877 245.987V247.49C23.6055 246.998 22.4746 246.752 21.4844 246.752C19.9199 246.752 19.1377 247.279 19.1377 248.334C19.1377 248.762 19.2842 249.107 19.5771 249.371C19.8701 249.629 20.4121 249.896 21.2031 250.171L22.3105 250.558L23.3652 250.918C25 251.492 25.8174 252.465 25.8174 253.836C25.8174 254.879 25.3984 255.714 24.5605 256.341C23.7285 256.962 22.6123 257.272 21.2119 257.272C20.2393 257.272 18.9824 257.064 17.4414 256.648V254.935C18.9766 255.626 20.251 255.972 21.2646 255.972C22.1201 255.972 22.8027 255.805 23.3125 255.471C23.8223 255.131 24.0771 254.677 24.0771 254.108C24.0771 253.675 23.9248 253.332 23.6201 253.08C23.3213 252.828 22.7002 252.529 21.7568 252.184L20.5967 251.762C19.4424 251.334 18.6396 250.895 18.1885 250.443C17.7432 249.992 17.5205 249.392 17.5205 248.642C17.5205 247.628 17.8633 246.843 18.5488 246.286C19.2402 245.729 20.21 245.451 21.458 245.451C22.4717 245.451 23.6113 245.63 24.877 245.987Z" fill="white"/>
<path d="M26.9512 257L31.3984 245.724H33.1299L37.5771 257H35.7402L34.6768 254.179H29.5264L28.4453 257H26.9512ZM30.0449 252.878H34.1582L32.0928 247.49L30.0449 252.878Z" fill="white"/>
<path d="M47.8428 256.648C46.6826 257.064 45.5898 257.272 44.5645 257.272C42.7715 257.272 41.3271 256.736 40.2314 255.664C39.1357 254.586 38.5879 253.171 38.5879 251.419C38.5879 249.644 39.1328 248.205 40.2227 247.104C41.3125 246.002 42.7363 245.451 44.4941 245.451C45.4902 245.451 46.5566 245.621 47.6934 245.961V247.552C46.5332 247.019 45.4492 246.752 44.4414 246.752C43.2754 246.752 42.3145 247.18 41.5586 248.035C40.8086 248.891 40.4336 249.98 40.4336 251.305C40.4336 252.641 40.8584 253.733 41.708 254.583C42.5576 255.433 43.6504 255.857 44.9863 255.857C45.7949 255.857 46.7471 255.646 47.8428 255.225V256.648Z" fill="white"/>
<path d="M49.293 247.675L58.6182 252.342L49.293 257V255.541L55.709 252.342L49.293 249.134V247.675Z" fill="white"/>
<path d="M17.8984 279V267.724H25.5186V269.024H19.6299V272.443H24.6221V273.744H19.6299V277.699H25.9229V279H17.8984Z" fill="white"/>
<path d="M31.3457 279L26.9688 267.724H28.7969L32.4004 276.688L36.083 267.724H37.5596L33.0859 279H31.3457Z" fill="white"/>
<path d="M39.5898 279V267.724H47.21V269.024H41.3213V272.443H46.3135V273.744H41.3213V277.699H47.6143V279H39.5898Z" fill="white"/>
<path d="M49.8379 279V267.688H51.4727L56.6494 275.889H56.667V267.724H58.082V279H56.4824L51.2705 270.738H51.2441V279H49.8379Z" fill="white"/>
<path d="M63.9355 279V269.024H59.6025V267.724H70.0088V269.024H65.6758V279H63.9355Z" fill="white"/>
<path d="M74.3506 272.057V269.455H76.9521V272.057H74.3506ZM74.3506 279V276.398H76.9521V279H74.3506Z" fill="white"/>
<path d="M107.318 279V269.024H102.985V267.724H113.392V269.024H109.059V279H107.318Z" fill="white"/>
<path d="M115.211 279V265.122H116.942V271.248C117.739 269.912 118.823 269.244 120.194 269.244C122.005 269.244 122.91 270.319 122.91 272.47V279H121.179V272.944C121.179 272.2 121.062 271.673 120.827 271.362C120.599 271.046 120.212 270.888 119.667 270.888C118.8 270.888 117.892 271.512 116.942 272.76V279H115.211Z" fill="white"/>
<path d="M134.107 278.622C132.906 279.021 131.805 279.22 130.803 279.22C129.162 279.22 127.899 278.798 127.015 277.954C126.136 277.11 125.696 275.903 125.696 274.333C125.696 272.851 126.118 271.632 126.962 270.677C127.812 269.722 128.89 269.244 130.196 269.244C131.515 269.244 132.484 269.64 133.105 270.431C133.732 271.222 134.046 272.452 134.046 274.122V274.676H127.542C127.671 276.838 128.837 277.919 131.04 277.919C131.972 277.919 132.994 277.696 134.107 277.251V278.622ZM127.595 273.375H132.2V273.129C132.2 271.406 131.482 270.545 130.047 270.545C129.355 270.545 128.793 270.794 128.359 271.292C127.932 271.79 127.677 272.484 127.595 273.375Z" fill="white"/>
<path d="M156.3 278.648C155.14 279.064 154.047 279.272 153.021 279.272C151.229 279.272 149.784 278.736 148.688 277.664C147.593 276.586 147.045 275.171 147.045 273.419C147.045 271.644 147.59 270.205 148.68 269.104C149.77 268.002 151.193 267.451 152.951 267.451C153.947 267.451 155.014 267.621 156.15 267.961V269.552C154.99 269.019 153.906 268.752 152.898 268.752C151.732 268.752 150.771 269.18 150.016 270.035C149.266 270.891 148.891 271.98 148.891 273.305C148.891 274.641 149.315 275.733 150.165 276.583C151.015 277.433 152.107 277.857 153.443 277.857C154.252 277.857 155.204 277.646 156.3 277.225V278.648Z" fill="white"/>
<path d="M157.82 279V267.724H159.903L162.382 274.667H162.399L164.834 267.724H167.005V279H165.59V269.323H165.572L163.032 276.618H161.573L159.042 269.525H159.024V279H157.82Z" fill="white"/>
<path d="M168.982 279V267.724H172.384C176.134 267.724 178.009 269.528 178.009 273.138C178.009 274.808 177.602 276.158 176.787 277.189C176.277 277.84 175.647 278.306 174.897 278.587C174.153 278.862 173.16 279 171.918 279H168.982ZM170.714 277.699H171.584C173.236 277.699 174.411 277.371 175.108 276.715C175.812 276.059 176.163 274.957 176.163 273.41C176.163 271.84 175.847 270.718 175.214 270.044C174.581 269.364 173.526 269.024 172.05 269.024H170.714V277.699Z" fill="white"/>
<path d="M199.226 278.692C198.2 279.044 197.178 279.22 196.158 279.22C194.494 279.22 193.211 278.786 192.309 277.919C191.412 277.052 190.964 275.821 190.964 274.228C190.964 272.663 191.406 271.441 192.291 270.562C193.182 269.684 194.418 269.244 196 269.244C197.008 269.244 198.024 269.396 199.05 269.701V271.151C197.919 270.747 196.955 270.545 196.158 270.545C195.115 270.545 194.295 270.873 193.697 271.529C193.105 272.186 192.81 273.085 192.81 274.228C192.81 275.382 193.126 276.287 193.759 276.943C194.397 277.594 195.276 277.919 196.396 277.919C197.233 277.919 198.177 277.723 199.226 277.33V278.692Z" fill="white"/>
<path d="M205.8 279.22C204.399 279.22 203.298 278.777 202.495 277.893C201.698 277.002 201.3 275.78 201.3 274.228C201.3 272.681 201.701 271.465 202.504 270.58C203.307 269.689 204.405 269.244 205.8 269.244C207.2 269.244 208.299 269.689 209.096 270.58C209.898 271.465 210.3 272.681 210.3 274.228C210.3 275.78 209.898 277.002 209.096 277.893C208.299 278.777 207.2 279.22 205.8 279.22ZM205.8 277.919C206.632 277.919 207.282 277.594 207.751 276.943C208.22 276.293 208.454 275.388 208.454 274.228C208.454 273.073 208.22 272.171 207.751 271.521C207.282 270.87 206.632 270.545 205.8 270.545C204.968 270.545 204.317 270.87 203.849 271.521C203.38 272.171 203.146 273.073 203.146 274.228C203.146 275.388 203.38 276.293 203.849 276.943C204.317 277.594 204.968 277.919 205.8 277.919Z" fill="white"/>
<path d="M212.04 279V269.455H213.561V271.248C214.305 269.912 215.014 269.244 215.688 269.244C216.549 269.244 217.103 269.912 217.349 271.248H217.41C218.02 269.912 218.734 269.244 219.555 269.244C220.152 269.244 220.586 269.464 220.855 269.903C221.125 270.337 221.26 271.04 221.26 272.013V279H219.739V272.083C219.739 271.562 219.701 271.207 219.625 271.02C219.549 270.832 219.405 270.738 219.194 270.738C218.644 270.738 218.049 271.438 217.41 272.839V279H215.89V272.399C215.89 271.743 215.852 271.307 215.775 271.09C215.699 270.867 215.547 270.756 215.318 270.756C215.072 270.756 214.779 270.958 214.439 271.362C214.105 271.761 213.812 272.259 213.561 272.856V279H212.04Z" fill="white"/>
<path d="M222.886 279V269.455H224.406V271.248C225.15 269.912 225.859 269.244 226.533 269.244C227.395 269.244 227.948 269.912 228.194 271.248H228.256C228.865 269.912 229.58 269.244 230.4 269.244C230.998 269.244 231.432 269.464 231.701 269.903C231.971 270.337 232.105 271.04 232.105 272.013V279H230.585V272.083C230.585 271.562 230.547 271.207 230.471 271.02C230.395 270.832 230.251 270.738 230.04 270.738C229.489 270.738 228.895 271.438 228.256 272.839V279H226.735V272.399C226.735 271.743 226.697 271.307 226.621 271.09C226.545 270.867 226.393 270.756 226.164 270.756C225.918 270.756 225.625 270.958 225.285 271.362C224.951 271.761 224.658 272.259 224.406 272.856V279H222.886Z" fill="white"/>
<path d="M240.253 277.849C239.204 278.728 238.158 279.167 237.115 279.167C236.242 279.167 235.521 278.918 234.953 278.42C234.391 277.922 234.109 277.292 234.109 276.53C234.109 275.54 234.549 274.743 235.428 274.14C236.307 273.536 237.467 273.234 238.908 273.234H239.98V272.417C239.98 271.743 239.831 271.263 239.532 270.976C239.233 270.688 238.738 270.545 238.047 270.545C237.045 270.545 236.008 270.826 234.936 271.389V269.903C236.166 269.464 237.32 269.244 238.398 269.244C239.611 269.244 240.467 269.484 240.965 269.965C241.469 270.445 241.721 271.274 241.721 272.452V276.451C241.721 277.025 241.782 277.418 241.905 277.629C242.028 277.834 242.26 277.937 242.6 277.937C242.711 277.937 242.893 277.907 243.145 277.849L243.303 278.886C242.723 279.073 242.283 279.167 241.984 279.167C241.129 279.167 240.552 278.728 240.253 277.849ZM239.98 276.724V274.315H239.462C237.089 274.315 235.902 274.957 235.902 276.24C235.902 276.703 236.055 277.075 236.359 277.356C236.664 277.638 237.068 277.778 237.572 277.778C238.328 277.778 239.131 277.427 239.98 276.724Z" fill="white"/>
<path d="M245.359 279V269.455H247.091V271.248C247.888 269.912 248.972 269.244 250.343 269.244C252.153 269.244 253.059 270.319 253.059 272.47V279H251.327V272.944C251.327 272.2 251.21 271.673 250.976 271.362C250.747 271.046 250.36 270.888 249.815 270.888C248.948 270.888 248.04 271.512 247.091 272.76V279H245.359Z" fill="white"/>
<path d="M262.34 279V277.207C261.496 278.549 260.453 279.22 259.211 279.22C258.133 279.22 257.28 278.801 256.653 277.963C256.032 277.125 255.722 275.985 255.722 274.544C255.722 272.962 256.091 271.685 256.829 270.712C257.567 269.733 258.534 269.244 259.729 269.244C260.755 269.244 261.625 269.678 262.34 270.545V265.122H264.071V279H262.34ZM262.34 271.846C261.531 270.979 260.74 270.545 259.967 270.545C259.205 270.545 258.613 270.879 258.191 271.547C257.775 272.215 257.567 273.155 257.567 274.368C257.567 276.612 258.238 277.734 259.58 277.734C260.559 277.734 261.479 277.125 262.34 275.906V271.846Z" fill="white"/>
<path d="M281.289 279V270.756H277.817V269.455H283.021V279H281.289ZM281.069 267.293V265.122H283.24V267.293H281.069Z" fill="white"/>
<path d="M288.786 278.613V277.049C290.128 277.629 291.288 277.919 292.267 277.919C292.97 277.919 293.55 277.778 294.007 277.497C294.47 277.21 294.701 276.85 294.701 276.416C294.701 275.859 294.153 275.405 293.058 275.054L291.203 274.447C289.756 273.979 289.032 273.152 289.032 271.969C289.032 271.102 289.357 270.431 290.008 269.956C290.664 269.481 291.59 269.244 292.785 269.244C293.682 269.244 294.722 269.382 295.905 269.657V271.063C294.763 270.718 293.72 270.545 292.776 270.545C292.144 270.545 291.637 270.659 291.256 270.888C290.881 271.116 290.693 271.424 290.693 271.811C290.693 272.285 291.124 272.672 291.985 272.971L294.174 273.735C294.971 274.017 295.542 274.354 295.888 274.746C296.239 275.133 296.415 275.637 296.415 276.258C296.415 277.16 296.043 277.881 295.299 278.42C294.555 278.953 293.556 279.22 292.302 279.22C291.206 279.22 290.034 279.018 288.786 278.613Z" fill="white"/>
<path d="M310.434 279V269.455H312.165V271.248C312.962 269.912 314.046 269.244 315.417 269.244C317.228 269.244 318.133 270.319 318.133 272.47V279H316.401V272.944C316.401 272.2 316.284 271.673 316.05 271.362C315.821 271.046 315.435 270.888 314.89 270.888C314.022 270.888 313.114 271.512 312.165 272.76V279H310.434Z" fill="white"/>
<path d="M325.103 279.22C323.702 279.22 322.601 278.777 321.798 277.893C321.001 277.002 320.603 275.78 320.603 274.228C320.603 272.681 321.004 271.465 321.807 270.58C322.609 269.689 323.708 269.244 325.103 269.244C326.503 269.244 327.602 269.689 328.398 270.58C329.201 271.465 329.603 272.681 329.603 274.228C329.603 275.78 329.201 277.002 328.398 277.893C327.602 278.777 326.503 279.22 325.103 279.22ZM325.103 277.919C325.935 277.919 326.585 277.594 327.054 276.943C327.522 276.293 327.757 275.388 327.757 274.228C327.757 273.073 327.522 272.171 327.054 271.521C326.585 270.87 325.935 270.545 325.103 270.545C324.271 270.545 323.62 270.87 323.151 271.521C322.683 272.171 322.448 273.073 322.448 274.228C322.448 275.388 322.683 276.293 323.151 276.943C323.62 277.594 324.271 277.919 325.103 277.919Z" fill="white"/>
<path d="M332.371 279L330.631 269.455H332.23L333.496 276.926H333.514L335.21 270.325H336.889L338.497 277.181H338.523L339.93 269.455H341.257L339.35 279H337.645L335.966 271.863H335.948L334.094 279H332.371Z" fill="white"/>
<path d="M359.556 277.849C358.507 278.728 357.461 279.167 356.418 279.167C355.545 279.167 354.824 278.918 354.256 278.42C353.693 277.922 353.412 277.292 353.412 276.53C353.412 275.54 353.852 274.743 354.73 274.14C355.609 273.536 356.77 273.234 358.211 273.234H359.283V272.417C359.283 271.743 359.134 271.263 358.835 270.976C358.536 270.688 358.041 270.545 357.35 270.545C356.348 270.545 355.311 270.826 354.238 271.389V269.903C355.469 269.464 356.623 269.244 357.701 269.244C358.914 269.244 359.77 269.484 360.268 269.965C360.771 270.445 361.023 271.274 361.023 272.452V276.451C361.023 277.025 361.085 277.418 361.208 277.629C361.331 277.834 361.562 277.937 361.902 277.937C362.014 277.937 362.195 277.907 362.447 277.849L362.605 278.886C362.025 279.073 361.586 279.167 361.287 279.167C360.432 279.167 359.854 278.728 359.556 277.849ZM359.283 276.724V274.315H358.765C356.392 274.315 355.205 274.957 355.205 276.24C355.205 276.703 355.357 277.075 355.662 277.356C355.967 277.638 356.371 277.778 356.875 277.778C357.631 277.778 358.434 277.427 359.283 276.724Z" fill="white"/>
<path d="M367.562 279L363.607 269.455H365.383L368.556 277.102L371.825 269.455H373.363L369.303 279H367.562Z" fill="white"/>
<path d="M381.247 277.849C380.198 278.728 379.152 279.167 378.109 279.167C377.236 279.167 376.516 278.918 375.947 278.42C375.385 277.922 375.104 277.292 375.104 276.53C375.104 275.54 375.543 274.743 376.422 274.14C377.301 273.536 378.461 273.234 379.902 273.234H380.975V272.417C380.975 271.743 380.825 271.263 380.526 270.976C380.228 270.688 379.732 270.545 379.041 270.545C378.039 270.545 377.002 270.826 375.93 271.389V269.903C377.16 269.464 378.314 269.244 379.393 269.244C380.605 269.244 381.461 269.484 381.959 269.965C382.463 270.445 382.715 271.274 382.715 272.452V276.451C382.715 277.025 382.776 277.418 382.899 277.629C383.022 277.834 383.254 277.937 383.594 277.937C383.705 277.937 383.887 277.907 384.139 277.849L384.297 278.886C383.717 279.073 383.277 279.167 382.979 279.167C382.123 279.167 381.546 278.728 381.247 277.849ZM380.975 276.724V274.315H380.456C378.083 274.315 376.896 274.957 376.896 276.24C376.896 276.703 377.049 277.075 377.354 277.356C377.658 277.638 378.062 277.778 378.566 277.778C379.322 277.778 380.125 277.427 380.975 276.724Z" fill="white"/>
<path d="M389.746 279V270.756H386.274V269.455H391.478V279H389.746ZM389.526 267.293V265.122H391.697V267.293H389.526Z" fill="white"/>
<path d="M400.803 279V266.423H397.12V265.122H402.543V279H400.803Z" fill="white"/>
<path d="M413.784 277.849C412.735 278.728 411.689 279.167 410.646 279.167C409.773 279.167 409.053 278.918 408.484 278.42C407.922 277.922 407.641 277.292 407.641 276.53C407.641 275.54 408.08 274.743 408.959 274.14C409.838 273.536 410.998 273.234 412.439 273.234H413.512V272.417C413.512 271.743 413.362 271.263 413.063 270.976C412.765 270.688 412.27 270.545 411.578 270.545C410.576 270.545 409.539 270.826 408.467 271.389V269.903C409.697 269.464 410.852 269.244 411.93 269.244C413.143 269.244 413.998 269.484 414.496 269.965C415 270.445 415.252 271.274 415.252 272.452V276.451C415.252 277.025 415.313 277.418 415.437 277.629C415.56 277.834 415.791 277.937 416.131 277.937C416.242 277.937 416.424 277.907 416.676 277.849L416.834 278.886C416.254 279.073 415.814 279.167 415.516 279.167C414.66 279.167 414.083 278.728 413.784 277.849ZM413.512 276.724V274.315H412.993C410.62 274.315 409.434 274.957 409.434 276.24C409.434 276.703 409.586 277.075 409.891 277.356C410.195 277.638 410.6 277.778 411.104 277.778C411.859 277.778 412.662 277.427 413.512 276.724Z" fill="white"/>
<path d="M418.812 279.105V265.122H420.543V271.248C421.381 269.912 422.421 269.244 423.663 269.244C424.747 269.244 425.6 269.663 426.221 270.501C426.848 271.333 427.161 272.47 427.161 273.911C427.161 275.493 426.792 276.773 426.054 277.752C425.315 278.73 424.349 279.22 423.153 279.22C422.128 279.22 421.258 278.786 420.543 277.919L420.112 279.105H418.812ZM420.543 276.618C421.346 277.485 422.137 277.919 422.916 277.919C423.678 277.919 424.267 277.585 424.683 276.917C425.104 276.243 425.315 275.303 425.315 274.096C425.315 271.846 424.645 270.721 423.303 270.721C422.324 270.721 421.404 271.33 420.543 272.549V276.618Z" fill="white"/>
<path d="M433.34 279V266.423H429.657V265.122H435.08V279H433.34Z" fill="white"/>
<path d="M448.633 278.622C447.432 279.021 446.33 279.22 445.328 279.22C443.688 279.22 442.425 278.798 441.54 277.954C440.661 277.11 440.222 275.903 440.222 274.333C440.222 272.851 440.644 271.632 441.487 270.677C442.337 269.722 443.415 269.244 444.722 269.244C446.04 269.244 447.01 269.64 447.631 270.431C448.258 271.222 448.571 272.452 448.571 274.122V274.676H442.067C442.196 276.838 443.362 277.919 445.565 277.919C446.497 277.919 447.52 277.696 448.633 277.251V278.622ZM442.12 273.375H446.726V273.129C446.726 271.406 446.008 270.545 444.572 270.545C443.881 270.545 443.318 270.794 442.885 271.292C442.457 271.79 442.202 272.484 442.12 273.375Z" fill="white"/>
<path d="M453.95 279V276.398H456.552V279H453.95Z" fill="white"/>
<path d="M24.877 289.987V291.49C23.6055 290.998 22.4746 290.752 21.4844 290.752C19.9199 290.752 19.1377 291.279 19.1377 292.334C19.1377 292.762 19.2842 293.107 19.5771 293.371C19.8701 293.629 20.4121 293.896 21.2031 294.171L22.3105 294.558L23.3652 294.918C25 295.492 25.8174 296.465 25.8174 297.836C25.8174 298.879 25.3984 299.714 24.5605 300.341C23.7285 300.962 22.6123 301.272 21.2119 301.272C20.2393 301.272 18.9824 301.064 17.4414 300.648V298.935C18.9766 299.626 20.251 299.972 21.2646 299.972C22.1201 299.972 22.8027 299.805 23.3125 299.471C23.8223 299.131 24.0771 298.677 24.0771 298.108C24.0771 297.675 23.9248 297.332 23.6201 297.08C23.3213 296.828 22.7002 296.529 21.7568 296.184L20.5967 295.762C19.4424 295.334 18.6396 294.895 18.1885 294.443C17.7432 293.992 17.5205 293.392 17.5205 292.642C17.5205 291.628 17.8633 290.843 18.5488 290.286C19.2402 289.729 20.21 289.451 21.458 289.451C22.4717 289.451 23.6113 289.63 24.877 289.987Z" fill="white"/>
<path d="M26.9512 301L31.3984 289.724H33.1299L37.5771 301H35.7402L34.6768 298.179H29.5264L28.4453 301H26.9512ZM30.0449 296.878H34.1582L32.0928 291.49L30.0449 296.878Z" fill="white"/>
<path d="M47.8428 300.648C46.6826 301.064 45.5898 301.272 44.5645 301.272C42.7715 301.272 41.3271 300.736 40.2314 299.664C39.1357 298.586 38.5879 297.171 38.5879 295.419C38.5879 293.644 39.1328 292.205 40.2227 291.104C41.3125 290.002 42.7363 289.451 44.4941 289.451C45.4902 289.451 46.5566 289.621 47.6934 289.961V291.552C46.5332 291.019 45.4492 290.752 44.4414 290.752C43.2754 290.752 42.3145 291.18 41.5586 292.035C40.8086 292.891 40.4336 293.98 40.4336 295.305C40.4336 296.641 40.8584 297.733 41.708 298.583C42.5576 299.433 43.6504 299.857 44.9863 299.857C45.7949 299.857 46.7471 299.646 47.8428 299.225V300.648Z" fill="white"/>
<path d="M49.293 291.675L58.6182 296.342L49.293 301V299.541L55.709 296.342L49.293 293.134V291.675Z" fill="white"/>
<path d="M146.988 32.0117V26H148.5V33.5H130.5V15.5H138V17.0117H131.988V32.0117H146.988ZM139.5 12.5H151.5V24.5H150V15.0664L137.027 28.0273L135.973 26.9727L148.934 14H139.5V12.5Z" fill="#2570B7"/>
<path d="M47.3662 34H45.749V21.1504H52.9297V22.5742H47.3662V27.127H52.5869V28.542H47.3662V34Z" fill="#2570B7"/>
<path d="M58.9854 34.1758C57.5381 34.1758 56.4014 33.7393 55.5752 32.8662C54.7549 31.9873 54.3447 30.7803 54.3447 29.2451C54.3447 27.6982 54.7285 26.4678 55.4961 25.5537C56.2637 24.6338 57.3008 24.1738 58.6074 24.1738C59.8203 24.1738 60.7871 24.5664 61.5078 25.3516C62.2285 26.1309 62.5889 27.1885 62.5889 28.5244V29.4824H55.9795C56.0088 30.5781 56.2871 31.4102 56.8145 31.9785C57.3418 32.5469 58.0889 32.8311 59.0557 32.8311C59.5713 32.8311 60.0605 32.7871 60.5234 32.6992C60.9863 32.6055 61.5283 32.4268 62.1494 32.1631V33.5518C61.6162 33.7803 61.1152 33.9414 60.6465 34.0352C60.1777 34.1289 59.624 34.1758 58.9854 34.1758ZM58.5898 25.4658C57.834 25.4658 57.2363 25.709 56.7969 26.1953C56.3574 26.6816 56.0967 27.3584 56.0146 28.2256H60.9277C60.916 27.3232 60.708 26.6377 60.3037 26.1689C59.8994 25.7002 59.3281 25.4658 58.5898 25.4658Z" fill="#2570B7"/>
<path d="M69.1455 34.1758C67.6982 34.1758 66.5615 33.7393 65.7354 32.8662C64.915 31.9873 64.5049 30.7803 64.5049 29.2451C64.5049 27.6982 64.8887 26.4678 65.6562 25.5537C66.4238 24.6338 67.4609 24.1738 68.7676 24.1738C69.9805 24.1738 70.9473 24.5664 71.668 25.3516C72.3887 26.1309 72.749 27.1885 72.749 28.5244V29.4824H66.1396C66.1689 30.5781 66.4473 31.4102 66.9746 31.9785C67.502 32.5469 68.249 32.8311 69.2158 32.8311C69.7314 32.8311 70.2207 32.7871 70.6836 32.6992C71.1465 32.6055 71.6885 32.4268 72.3096 32.1631V33.5518C71.7764 33.7803 71.2754 33.9414 70.8066 34.0352C70.3379 34.1289 69.7842 34.1758 69.1455 34.1758ZM68.75 25.4658C67.9941 25.4658 67.3965 25.709 66.957 26.1953C66.5176 26.6816 66.2568 27.3584 66.1748 28.2256H71.0879C71.0762 27.3232 70.8682 26.6377 70.4639 26.1689C70.0596 25.7002 69.4883 25.4658 68.75 25.4658Z" fill="#2570B7"/>
<path d="M78.6201 34.1758C77.3662 34.1758 76.3936 33.7422 75.7021 32.875C75.0107 32.0078 74.665 30.7803 74.665 29.1924C74.665 27.6162 75.0107 26.3857 75.7021 25.501C76.3994 24.6162 77.3779 24.1738 78.6377 24.1738C79.9326 24.1738 80.9287 24.6484 81.626 25.5977H81.7402C81.7227 25.4805 81.6992 25.2461 81.6699 24.8945C81.6406 24.5371 81.626 24.2969 81.626 24.1738V20.3242H83.208V34H81.9336L81.6963 32.708H81.626C80.9521 33.6865 79.9502 34.1758 78.6201 34.1758ZM78.875 32.8662C79.8359 32.8662 80.5361 32.6055 80.9756 32.084C81.4209 31.5566 81.6436 30.6953 81.6436 29.5V29.21C81.6436 27.8682 81.418 26.9131 80.9668 26.3447C80.5215 25.7705 79.8184 25.4834 78.8574 25.4834C78.043 25.4834 77.4131 25.8086 76.9678 26.459C76.5225 27.1035 76.2998 28.0264 76.2998 29.2275C76.2998 30.4229 76.5195 31.3281 76.959 31.9434C77.4043 32.5586 78.043 32.8662 78.875 32.8662Z" fill="#2570B7"/>
<path d="M90.8457 24.1914C92.1172 24.1914 93.0986 24.6309 93.79 25.5098C94.4814 26.3828 94.8271 27.6045 94.8271 29.1748C94.8271 30.7686 94.4756 32.002 93.7725 32.875C93.0693 33.7422 92.0938 34.1758 90.8457 34.1758C90.1953 34.1758 89.6152 34.0586 89.1055 33.8242C88.5957 33.5898 88.1797 33.2412 87.8574 32.7783H87.7344C87.5527 33.4814 87.4443 33.8887 87.4092 34H86.2754V20.3242H87.8574V23.6465C87.8574 24.3086 87.8281 24.9707 87.7695 25.6328H87.8574C88.5078 24.6719 89.5039 24.1914 90.8457 24.1914ZM90.582 25.501C89.6094 25.501 88.9121 25.7764 88.4902 26.3271C88.0684 26.8779 87.8574 27.8096 87.8574 29.1221V29.1924C87.8574 30.5107 88.0713 31.4541 88.499 32.0225C88.9326 32.585 89.6387 32.8662 90.6172 32.8662C91.4844 32.8662 92.1289 32.5498 92.5508 31.917C92.9785 31.2783 93.1924 30.3584 93.1924 29.1572C93.1924 27.9385 92.9785 27.0244 92.5508 26.415C92.123 25.8057 91.4668 25.501 90.582 25.501Z" fill="#2570B7"/>
<path d="M103.309 34L103.001 32.6289H102.931C102.45 33.2324 101.97 33.6426 101.489 33.8594C101.015 34.0703 100.414 34.1758 99.6875 34.1758C98.7383 34.1758 97.9941 33.9268 97.4551 33.4287C96.916 32.9307 96.6465 32.2275 96.6465 31.3193C96.6465 29.3623 98.1904 28.3369 101.278 28.2432L102.913 28.1816V27.6104C102.913 26.8779 102.755 26.3389 102.438 25.9932C102.122 25.6416 101.615 25.4658 100.918 25.4658C100.408 25.4658 99.9248 25.542 99.4678 25.6943C99.0166 25.8467 98.5918 26.0166 98.1934 26.2041L97.71 25.0176C98.1963 24.7598 98.7266 24.5576 99.3008 24.4111C99.875 24.2646 100.443 24.1914 101.006 24.1914C102.172 24.1914 103.039 24.4492 103.607 24.9648C104.176 25.4805 104.46 26.3008 104.46 27.4258V34H103.309ZM100.048 32.9014C100.933 32.9014 101.627 32.6641 102.131 32.1895C102.641 31.709 102.896 31.0293 102.896 30.1504V29.2803L101.472 29.3418C100.364 29.3828 99.5557 29.5586 99.0459 29.8691C98.542 30.1797 98.29 30.6689 98.29 31.3369C98.29 31.8408 98.4424 32.2275 98.7471 32.4971C99.0576 32.7666 99.4912 32.9014 100.048 32.9014Z" fill="#2570B7"/>
<path d="M111.324 34.1758C109.936 34.1758 108.854 33.751 108.081 32.9014C107.308 32.0459 106.921 30.8213 106.921 29.2275C106.921 27.6104 107.311 26.3652 108.09 25.4922C108.875 24.6133 109.991 24.1738 111.438 24.1738C111.907 24.1738 112.37 24.2236 112.827 24.3232C113.29 24.417 113.671 24.54 113.97 24.6924L113.486 26.0107C112.672 25.7061 111.978 25.5537 111.403 25.5537C110.431 25.5537 109.713 25.8613 109.25 26.4766C108.787 27.0859 108.556 27.9971 108.556 29.21C108.556 30.376 108.787 31.2695 109.25 31.8906C109.713 32.5059 110.398 32.8135 111.307 32.8135C112.156 32.8135 112.991 32.626 113.812 32.251V33.6572C113.144 34.0029 112.314 34.1758 111.324 34.1758Z" fill="#2570B7"/>
<path d="M117.67 29.0342L118.206 28.3486L118.821 27.6104L121.906 24.3496H123.752L119.85 28.4717L124.024 34H122.117L118.769 29.5L117.67 30.458V34H116.105V20.3242H117.67V27.4697L117.6 29.0342H117.67Z" fill="#2570B7"/>
<path d="M20.9258 28.3359C20.8555 28.1328 20.793 27.8711 20.7383 27.5508C20.6836 27.2227 20.6562 26.8984 20.6562 26.5781C20.6562 26.0781 20.7539 25.6289 20.9492 25.2305C21.1523 24.8242 21.4023 24.4453 21.6992 24.0938C21.9961 23.7422 22.3203 23.4062 22.6719 23.0859C23.0234 22.7578 23.3477 22.4297 23.6445 22.1016C23.9414 21.7656 24.1875 21.418 24.3828 21.0586C24.5859 20.6914 24.6875 20.2891 24.6875 19.8516C24.6875 19.4766 24.6133 19.1445 24.4648 18.8555C24.3242 18.5664 24.1289 18.3242 23.8789 18.1289C23.6289 17.9336 23.3398 17.7891 23.0117 17.6953C22.6836 17.5938 22.3359 17.543 21.9688 17.543C20.6484 17.543 19.5039 18.0625 18.5352 19.1016V17.0391C19.7305 16.2891 20.9688 15.9141 22.25 15.9141C22.8438 15.9141 23.4023 15.9922 23.9258 16.1484C24.4492 16.3047 24.9062 16.5391 25.2969 16.8516C25.6953 17.1562 26.0078 17.5391 26.2344 18C26.4609 18.4609 26.5742 18.9961 26.5742 19.6055C26.5742 20.1836 26.4727 20.6992 26.2695 21.1523C26.0664 21.6055 25.8086 22.0234 25.4961 22.4062C25.1914 22.7812 24.8594 23.1328 24.5 23.4609C24.1406 23.7891 23.8047 24.1172 23.4922 24.4453C23.1875 24.7656 22.9336 25.1016 22.7305 25.4531C22.5273 25.8047 22.4258 26.1914 22.4258 26.6133C22.4258 26.9727 22.4688 27.3008 22.5547 27.5977C22.6406 27.8867 22.7266 28.1328 22.8125 28.3359H20.9258ZM21.9805 33.2109C21.6367 33.2109 21.332 33.0859 21.0664 32.8359C20.8086 32.5859 20.6797 32.2812 20.6797 31.9219C20.6797 31.5547 20.8086 31.25 21.0664 31.0078C21.3242 30.75 21.6289 30.6211 21.9805 30.6211C22.332 30.6211 22.6367 30.75 22.8945 31.0078C23.1523 31.25 23.2812 31.5547 23.2812 31.9219C23.2812 32.2812 23.1523 32.5859 22.8945 32.8359C22.6289 33.0859 22.3242 33.2109 21.9805 33.2109Z" fill="black"/>
<path d="M222.875 17.9219C222.5 17.7109 222.074 17.6055 221.598 17.6055C220.254 17.6055 219.582 18.4531 219.582 20.1484V22H222.395V23.6406H219.582V34H217.672V23.6406H215.621V22H217.672V20.0547C217.672 18.7969 218.035 17.8047 218.762 17.0781C219.488 16.3438 220.395 15.9766 221.48 15.9766C222.066 15.9766 222.531 16.0469 222.875 16.1875V17.9219Z" fill="black"/>
<path d="M234.43 34H232.508V27.1562C232.508 24.6094 231.578 23.3359 229.719 23.3359C228.758 23.3359 227.961 23.6992 227.328 24.4258C226.703 25.1445 226.391 26.0547 226.391 27.1562V34H224.469V22H226.391V23.9922H226.438C227.344 22.4766 228.656 21.7188 230.375 21.7188C231.688 21.7188 232.691 22.1445 233.387 22.9961C234.082 23.8398 234.43 25.0625 234.43 26.6641V34Z" fill="black"/>
<rect x="59" y="286" width="10" height="20" fill="white"/>
<path d="M191.412 24.6484V24.8242C191.412 24.8828 191.415 24.9414 191.422 25V25.1758C191.422 25.2344 191.419 25.293 191.412 25.3516L193.941 26.9238L192.389 30.6641L189.488 30C189.332 30.1693 189.169 30.332 189 30.4883L189.664 33.3887L185.924 34.9414L184.352 32.4121H184.176C184.117 32.4121 184.059 32.4154 184 32.4219H183.824C183.766 32.4219 183.707 32.4186 183.648 32.4121L182.076 34.9414L178.336 33.3887L179 30.4883C178.831 30.332 178.668 30.1693 178.512 30L175.611 30.6641L174.059 26.9238L176.588 25.3516V25.1758C176.588 25.1172 176.585 25.0586 176.578 25V24.8242C176.578 24.7656 176.581 24.707 176.588 24.6484L174.059 23.0762L175.611 19.3359L178.512 20C178.668 19.8307 178.831 19.668 179 19.5117L178.336 16.6113L182.076 15.0586L183.648 17.5879H183.824C183.883 17.5879 183.941 17.5846 184 17.5781H184.176C184.234 17.5781 184.293 17.5814 184.352 17.5879L185.924 15.0586L189.664 16.6113L189 19.5117C189.169 19.668 189.332 19.8307 189.488 20L192.389 19.3359L193.941 23.0762L191.412 24.6484ZM190.27 25.918C190.283 25.7617 190.296 25.6087 190.309 25.459C190.322 25.3092 190.328 25.153 190.328 24.9902C190.328 24.8405 190.322 24.6875 190.309 24.5312C190.296 24.375 190.283 24.222 190.27 24.0723L192.574 22.6367L191.734 20.6055L189.088 21.2207C188.886 20.9733 188.681 20.7454 188.473 20.5371C188.264 20.3288 188.033 20.1204 187.779 19.9121L188.395 17.2656L186.363 16.4258L184.918 18.7305C184.768 18.7174 184.615 18.7044 184.459 18.6914C184.303 18.6784 184.15 18.6719 184 18.6719C183.844 18.6719 183.691 18.6784 183.541 18.6914C183.391 18.7044 183.235 18.7174 183.072 18.7305L181.637 16.4258L179.605 17.2656L180.221 19.9121C179.973 20.1139 179.745 20.319 179.537 20.5273C179.329 20.7357 179.12 20.9668 178.912 21.2207L176.266 20.6055L175.426 22.6367L177.73 24.082C177.717 24.2383 177.704 24.3913 177.691 24.541C177.678 24.6908 177.672 24.847 177.672 25.0098C177.672 25.1595 177.678 25.3125 177.691 25.4688C177.704 25.625 177.717 25.778 177.73 25.9277L175.426 27.3633L176.266 29.3945L178.912 28.7793C179.114 29.0267 179.319 29.2546 179.527 29.4629C179.736 29.6712 179.967 29.8796 180.221 30.0879L179.605 32.7344L181.637 33.5742L183.082 31.2695C183.232 31.2826 183.385 31.2956 183.541 31.3086C183.697 31.3216 183.85 31.3281 184 31.3281C184.156 31.3281 184.309 31.3216 184.459 31.3086C184.609 31.2956 184.765 31.2826 184.928 31.2695L186.363 33.5742L188.395 32.7344L187.779 30.0879C188.027 29.8861 188.255 29.681 188.463 29.4727C188.671 29.2643 188.88 29.0332 189.088 28.7793L191.734 29.3945L192.574 27.3633L190.27 25.918ZM184 21.3281C184.508 21.3281 184.983 21.4225 185.426 21.6113C185.868 21.8001 186.259 22.0638 186.598 22.4023C186.936 22.7409 187.197 23.1283 187.379 23.5645C187.561 24.0007 187.659 24.4792 187.672 25C187.672 25.5078 187.577 25.9831 187.389 26.4258C187.2 26.8685 186.936 27.2591 186.598 27.5977C186.259 27.9362 185.872 28.1966 185.436 28.3789C184.999 28.5612 184.521 28.6589 184 28.6719C183.492 28.6719 183.017 28.5775 182.574 28.3887C182.132 28.1999 181.741 27.9362 181.402 27.5977C181.064 27.2591 180.803 26.8717 180.621 26.4355C180.439 25.9993 180.341 25.5208 180.328 25C180.328 24.4922 180.423 24.0169 180.611 23.5742C180.8 23.1315 181.064 22.7409 181.402 22.4023C181.741 22.0638 182.128 21.8034 182.564 21.6211C183.001 21.4388 183.479 21.3411 184 21.3281ZM184 27.5781C184.358 27.5781 184.693 27.513 185.006 27.3828C185.318 27.2526 185.592 27.0671 185.826 26.8262C186.061 26.5853 186.243 26.3118 186.373 26.0059C186.503 25.6999 186.572 25.3646 186.578 25C186.578 24.6419 186.513 24.3066 186.383 23.9941C186.253 23.6816 186.067 23.4082 185.826 23.1738C185.585 22.9395 185.312 22.7572 185.006 22.627C184.7 22.4967 184.365 22.4284 184 22.4219C183.642 22.4219 183.307 22.487 182.994 22.6172C182.682 22.7474 182.408 22.9329 182.174 23.1738C181.939 23.4147 181.757 23.6882 181.627 23.9941C181.497 24.3001 181.428 24.6354 181.422 25C181.422 25.3581 181.487 25.6934 181.617 26.0059C181.747 26.3184 181.933 26.5918 182.174 26.8262C182.415 27.0605 182.688 27.2428 182.994 27.373C183.3 27.5033 183.635 27.5716 184 27.5781Z" fill="#676565"/>
</svg>
