<svg width="450" height="350" viewBox="0 0 450 350" fill="none" xmlns="http://www.w3.org/2000/svg">
<rect width="450" height="350" fill="#666666"/>
<rect width="160" height="350" fill="#262626"/>
<rect y="56" width="160" height="150" fill="#B7472A"/>
<line x1="160" y1="55.5" x2="450" y2="55.5" stroke="white"/>
<path d="M221.453 35.7559C219.557 36.7884 217.446 37.3047 215.118 37.3047C212.427 37.3047 210.247 36.4668 208.58 34.791C206.913 33.1152 206.079 30.8978 206.079 28.1387C206.079 25.3203 206.989 23.0098 208.809 21.207C210.637 19.3958 212.956 18.4902 215.766 18.4902C217.788 18.4902 219.49 18.7865 220.869 19.3789V22.4893C219.473 21.5583 217.81 21.0928 215.88 21.0928C213.942 21.0928 212.351 21.7318 211.106 23.0098C209.871 24.2878 209.253 25.9424 209.253 27.9736C209.253 30.0641 209.786 31.7103 210.853 32.9121C211.919 34.1055 213.366 34.7021 215.194 34.7021C216.447 34.7021 217.53 34.4609 218.444 33.9785V29.6494H214.61V27.1104H221.453V35.7559Z" fill="white"/>
<path d="M230.758 37.3047C228.752 37.3047 227.148 36.6995 225.946 35.4893C224.753 34.2705 224.156 32.6582 224.156 30.6523C224.156 28.4688 224.778 26.7633 226.022 25.5361C227.275 24.3089 228.959 23.6953 231.075 23.6953C233.106 23.6953 234.689 24.292 235.823 25.4854C236.957 26.6787 237.524 28.3333 237.524 30.4492C237.524 32.5228 236.911 34.1859 235.683 35.4385C234.465 36.6826 232.823 37.3047 230.758 37.3047ZM230.897 26.0439C229.746 26.0439 228.836 26.446 228.168 27.25C227.499 28.054 227.165 29.1628 227.165 30.5762C227.165 31.9388 227.503 33.0137 228.18 33.8008C228.858 34.5794 229.763 34.9688 230.897 34.9688C232.057 34.9688 232.945 34.5837 233.563 33.8135C234.19 33.0433 234.503 31.9473 234.503 30.5254C234.503 29.0951 234.19 27.9906 233.563 27.2119C232.945 26.4333 232.057 26.0439 230.897 26.0439Z" fill="white"/>
<path d="M246.245 37.3047C244.239 37.3047 242.635 36.6995 241.433 35.4893C240.24 34.2705 239.643 32.6582 239.643 30.6523C239.643 28.4688 240.265 26.7633 241.509 25.5361C242.762 24.3089 244.446 23.6953 246.562 23.6953C248.593 23.6953 250.176 24.292 251.31 25.4854C252.444 26.6787 253.011 28.3333 253.011 30.4492C253.011 32.5228 252.398 34.1859 251.17 35.4385C249.952 36.6826 248.31 37.3047 246.245 37.3047ZM246.384 26.0439C245.233 26.0439 244.323 26.446 243.655 27.25C242.986 28.054 242.652 29.1628 242.652 30.5762C242.652 31.9388 242.99 33.0137 243.667 33.8008C244.345 34.5794 245.25 34.9688 246.384 34.9688C247.544 34.9688 248.432 34.5837 249.05 33.8135C249.677 33.0433 249.99 31.9473 249.99 30.5254C249.99 29.0951 249.677 27.9906 249.05 27.2119C248.432 26.4333 247.544 26.0439 246.384 26.0439Z" fill="white"/>
<path d="M267.787 37H264.842V34.791H264.791C263.843 36.4668 262.383 37.3047 260.411 37.3047C258.812 37.3047 257.53 36.7249 256.565 35.5654C255.608 34.3975 255.13 32.8105 255.13 30.8047C255.13 28.6549 255.659 26.9326 256.717 25.6377C257.783 24.3428 259.201 23.6953 260.97 23.6953C262.722 23.6953 263.996 24.3978 264.791 25.8027H264.842V17.7539H267.787V37ZM264.88 31.0586V29.3574C264.88 28.4349 264.58 27.652 263.979 27.0088C263.378 26.3656 262.612 26.0439 261.681 26.0439C260.581 26.0439 259.713 26.4544 259.078 27.2754C258.452 28.0964 258.139 29.2347 258.139 30.6904C258.139 32.0107 258.439 33.056 259.04 33.8262C259.65 34.5879 260.466 34.9688 261.49 34.9688C262.498 34.9688 263.314 34.6006 263.941 33.8643C264.567 33.1195 264.88 32.1842 264.88 31.0586Z" fill="white"/>
<path d="M289.697 31.2998H280.836C280.87 32.5016 281.238 33.4284 281.94 34.0801C282.651 34.7318 283.624 35.0576 284.86 35.0576C286.248 35.0576 287.522 34.6429 288.681 33.8135V36.1875C287.497 36.9323 285.931 37.3047 283.984 37.3047C282.071 37.3047 280.569 36.7165 279.477 35.54C278.394 34.3551 277.852 32.6921 277.852 30.5508C277.852 28.528 278.449 26.8818 279.642 25.6123C280.844 24.3343 282.334 23.6953 284.111 23.6953C285.888 23.6953 287.264 24.2666 288.237 25.4092C289.21 26.5518 289.697 28.1387 289.697 30.1699V31.2998ZM286.853 29.2178C286.845 28.1598 286.595 27.3389 286.104 26.7549C285.613 26.1624 284.936 25.8662 284.073 25.8662C283.227 25.8662 282.507 26.1751 281.915 26.793C281.331 27.4108 280.971 28.2191 280.836 29.2178H286.853Z" fill="white"/>
<path d="M303.648 24L298.621 37H295.434L290.648 24H293.847L296.729 33.0898C296.949 33.7585 297.084 34.3424 297.135 34.8418H297.173C297.25 34.2155 297.368 33.6484 297.529 33.1406L300.55 24H303.648Z" fill="white"/>
<path d="M316.406 31.2998H307.544C307.578 32.5016 307.946 33.4284 308.649 34.0801C309.36 34.7318 310.333 35.0576 311.569 35.0576C312.957 35.0576 314.23 34.6429 315.39 33.8135V36.1875C314.205 36.9323 312.639 37.3047 310.693 37.3047C308.78 37.3047 307.278 36.7165 306.186 35.54C305.102 34.3551 304.561 32.6921 304.561 30.5508C304.561 28.528 305.157 26.8818 306.351 25.6123C307.553 24.3343 309.042 23.6953 310.82 23.6953C312.597 23.6953 313.972 24.2666 314.946 25.4092C315.919 26.5518 316.406 28.1387 316.406 30.1699V31.2998ZM313.562 29.2178C313.553 28.1598 313.304 27.3389 312.813 26.7549C312.322 26.1624 311.645 25.8662 310.782 25.8662C309.935 25.8662 309.216 26.1751 308.623 26.793C308.039 27.4108 307.68 28.2191 307.544 29.2178H313.562Z" fill="white"/>
<path d="M330.737 37H327.792V29.6748C327.792 27.2458 326.933 26.0312 325.215 26.0312C324.318 26.0312 323.577 26.3698 322.993 27.0469C322.409 27.7155 322.117 28.5618 322.117 29.5859V37H319.159V24H322.117V26.1582H322.168C323.141 24.5163 324.546 23.6953 326.383 23.6953C327.796 23.6953 328.875 24.1566 329.62 25.0791C330.365 25.9932 330.737 27.3177 330.737 29.0527V37Z" fill="white"/>
<path d="M335.776 21.2705C335.294 21.2705 334.879 21.1139 334.532 20.8008C334.193 20.4876 334.024 20.0898 334.024 19.6074C334.024 19.125 334.193 18.723 334.532 18.4014C334.879 18.0798 335.294 17.9189 335.776 17.9189C336.275 17.9189 336.699 18.0798 337.046 18.4014C337.393 18.723 337.566 19.125 337.566 19.6074C337.566 20.0645 337.393 20.458 337.046 20.7881C336.699 21.1097 336.275 21.2705 335.776 21.2705ZM337.236 37H334.291V24H337.236V37Z" fill="white"/>
<path d="M352.622 37H349.676V29.6748C349.676 27.2458 348.817 26.0312 347.099 26.0312C346.202 26.0312 345.461 26.3698 344.877 27.0469C344.293 27.7155 344.001 28.5618 344.001 29.5859V37H341.043V24H344.001V26.1582H344.052C345.026 24.5163 346.431 23.6953 348.267 23.6953C349.681 23.6953 350.76 24.1566 351.504 25.0791C352.249 25.9932 352.622 27.3177 352.622 29.0527V37Z" fill="white"/>
<path d="M368.007 35.959C368.007 40.7324 365.608 43.1191 360.809 43.1191C359.116 43.1191 357.639 42.8356 356.378 42.2686V39.5771C357.8 40.3896 359.15 40.7959 360.428 40.7959C363.517 40.7959 365.062 39.2767 365.062 36.2383V34.8164H365.011C364.038 36.4753 362.574 37.3047 360.618 37.3047C359.036 37.3047 357.758 36.7292 356.784 35.5781C355.82 34.4186 355.337 32.8656 355.337 30.9189C355.337 28.71 355.858 26.9538 356.899 25.6504C357.94 24.347 359.37 23.6953 361.19 23.6953C362.908 23.6953 364.182 24.3978 365.011 25.8027H365.062V24H368.007V35.959ZM365.087 31.0459V29.3574C365.087 28.4434 364.782 27.6647 364.173 27.0215C363.572 26.3698 362.819 26.0439 361.913 26.0439C360.796 26.0439 359.92 26.4587 359.285 27.2881C358.659 28.109 358.346 29.2601 358.346 30.7412C358.346 32.0192 358.646 33.0433 359.247 33.8135C359.857 34.5752 360.661 34.9561 361.659 34.9561C362.675 34.9561 363.5 34.5921 364.135 33.8643C364.77 33.1279 365.087 32.1885 365.087 31.0459Z" fill="white"/>
<path d="M177 86.4615C177 86.3365 177.049 86.2284 177.148 86.137C177.247 86.0457 177.365 86 177.5 86C177.635 86 177.753 86.0457 177.852 86.137L183 90.8822L188.148 86.137C188.247 86.0457 188.365 86 188.5 86C188.635 86 188.753 86.0457 188.852 86.137C188.951 86.2284 189 86.3365 189 86.4615C189 86.5865 188.951 86.6947 188.852 86.7861L183.352 91.863C183.253 91.9543 183.135 92 183 92C182.865 92 182.747 91.9543 182.648 91.863L177.148 86.7861C177.049 86.6947 177 86.5865 177 86.4615Z" fill="white"/>
<path d="M217.243 96H214.958L208.938 86.7363C208.785 86.502 208.659 86.2588 208.56 86.0068H208.507C208.554 86.2764 208.577 86.8535 208.577 87.7383V96H206.556V83.3965H208.99L214.809 92.4404C215.055 92.8154 215.213 93.0732 215.283 93.2139H215.318C215.26 92.8799 215.23 92.3145 215.23 91.5176V83.3965H217.243V96Z" fill="white"/>
<path d="M227.728 92.0537H221.593C221.616 92.8857 221.871 93.5273 222.358 93.9785C222.85 94.4297 223.524 94.6553 224.379 94.6553C225.34 94.6553 226.222 94.3682 227.025 93.7939V95.4375C226.204 95.9531 225.12 96.2109 223.773 96.2109C222.448 96.2109 221.408 95.8037 220.652 94.9893C219.902 94.1689 219.527 93.0176 219.527 91.5352C219.527 90.1348 219.941 88.9951 220.767 88.1162C221.599 87.2314 222.63 86.7891 223.86 86.7891C225.091 86.7891 226.043 87.1846 226.717 87.9756C227.391 88.7666 227.728 89.8652 227.728 91.2715V92.0537ZM225.759 90.6123C225.753 89.8799 225.58 89.3115 225.24 88.9072C224.901 88.4971 224.432 88.292 223.834 88.292C223.248 88.292 222.75 88.5059 222.34 88.9336C221.936 89.3613 221.687 89.9209 221.593 90.6123H225.759Z" fill="white"/>
<path d="M241.737 87L239.082 96H236.947L235.312 89.9004C235.247 89.666 235.206 89.4023 235.189 89.1094H235.154C235.142 89.3086 235.089 89.5664 234.995 89.8828L233.22 96H231.128L228.483 87H230.592L232.227 93.4863C232.28 93.6797 232.315 93.9375 232.332 94.2598H232.394C232.411 94.0137 232.458 93.75 232.534 93.4688L234.354 87H236.27L237.887 93.5127C237.94 93.7178 237.978 93.9756 238.001 94.2861H238.063C238.074 94.0693 238.118 93.8115 238.195 93.5127L239.794 87H241.737Z" fill="white"/>
<path d="M74.2432 326H71.958L65.9375 316.736C65.7852 316.502 65.6592 316.259 65.5596 316.007H65.5068C65.5537 316.276 65.5771 316.854 65.5771 317.738V326H63.5557V313.396H65.9902L71.8086 322.44C72.0547 322.815 72.2129 323.073 72.2832 323.214H72.3184C72.2598 322.88 72.2305 322.314 72.2305 321.518V313.396H74.2432V326Z" fill="white"/>
<path d="M84.7277 322.054H78.5929C78.6163 322.886 78.8712 323.527 79.3576 323.979C79.8497 324.43 80.5236 324.655 81.379 324.655C82.34 324.655 83.2218 324.368 84.0245 323.794V325.438C83.2042 325.953 82.1203 326.211 80.7726 326.211C79.4484 326.211 78.4083 325.804 77.6525 324.989C76.9025 324.169 76.5275 323.018 76.5275 321.535C76.5275 320.135 76.9406 318.995 77.7667 318.116C78.5988 317.231 79.63 316.789 80.8605 316.789C82.091 316.789 83.0431 317.185 83.7169 317.976C84.3908 318.767 84.7277 319.865 84.7277 321.271V322.054ZM82.7589 320.612C82.7531 319.88 82.5802 319.312 82.2404 318.907C81.9005 318.497 81.4318 318.292 80.8341 318.292C80.2482 318.292 79.7501 318.506 79.34 318.934C78.9357 319.361 78.6867 319.921 78.5929 320.612H82.7589Z" fill="white"/>
<path d="M98.7366 317L96.0823 326H93.9466L92.3118 319.9C92.2473 319.666 92.2063 319.402 92.1887 319.109H92.1536C92.1419 319.309 92.0891 319.566 91.9954 319.883L90.22 326H88.1282L85.4827 317H87.5921L89.2268 323.486C89.2796 323.68 89.3147 323.938 89.3323 324.26H89.3938C89.4114 324.014 89.4583 323.75 89.5344 323.469L91.3538 317H93.2698L94.887 323.513C94.9397 323.718 94.9778 323.976 95.0012 324.286H95.0628C95.0745 324.069 95.1184 323.812 95.1946 323.513L96.7942 317H98.7366Z" fill="white"/>
<path d="M86.9038 260.5V260.75H87.1538H92.7885H93.3656L92.9708 260.329L87.3362 254.32L86.9038 253.859V254.491V260.5ZM94.5385 289.625H94.7885V289.375V263.125V262.875H94.5385H84.9423V252.625V252.375H84.6923H67.4615H67.2115V252.625V289.375V289.625H67.4615H94.5385ZM86.334 250.25L96.75 261.358V291.75H65.25V250.25H86.334Z" fill="white" stroke="black" stroke-width="0.5"/>
<path d="M66.6807 160H64.5801V154.533H58.6475V160H56.5557V147.396H58.6475V152.696H64.5801V147.396H66.6807V160Z" fill="white"/>
<path d="M73.5177 160.211C72.129 160.211 71.0187 159.792 70.1867 158.954C69.3605 158.11 68.9474 156.994 68.9474 155.605C68.9474 154.094 69.3781 152.913 70.2394 152.063C71.1066 151.214 72.2726 150.789 73.7374 150.789C75.1437 150.789 76.2394 151.202 77.0245 152.028C77.8097 152.854 78.2023 154 78.2023 155.465C78.2023 156.9 77.7775 158.052 76.9279 158.919C76.0841 159.78 74.9474 160.211 73.5177 160.211ZM73.6144 152.415C72.8175 152.415 72.1876 152.693 71.7247 153.25C71.2619 153.807 71.0304 154.574 71.0304 155.553C71.0304 156.496 71.2648 157.24 71.7335 157.785C72.2023 158.324 72.8292 158.594 73.6144 158.594C74.4171 158.594 75.0324 158.327 75.4601 157.794C75.8937 157.261 76.1105 156.502 76.1105 155.518C76.1105 154.527 75.8937 153.763 75.4601 153.224C75.0324 152.685 74.4171 152.415 73.6144 152.415Z" fill="white"/>
<path d="M93.7053 160H91.6663V155.096C91.6663 154.152 91.5315 153.47 91.262 153.048C90.9983 152.626 90.5501 152.415 89.9173 152.415C89.3841 152.415 88.93 152.682 88.555 153.215C88.1858 153.748 88.0012 154.387 88.0012 155.131V160H85.9534V154.929C85.9534 153.253 85.3616 152.415 84.178 152.415C83.6272 152.415 83.1731 152.667 82.8157 153.171C82.4641 153.675 82.2884 154.328 82.2884 155.131V160H80.2493V151H82.2884V152.424H82.3235C82.9739 151.334 83.9202 150.789 85.1624 150.789C85.7835 150.789 86.3255 150.962 86.7884 151.308C87.2571 151.647 87.5764 152.096 87.7464 152.652C88.4143 151.41 89.4104 150.789 90.7346 150.789C92.7151 150.789 93.7053 152.011 93.7053 154.454V160Z" fill="white"/>
<path d="M103.777 156.054H97.642C97.6654 156.886 97.9203 157.527 98.4066 157.979C98.8988 158.43 99.5727 158.655 100.428 158.655C101.389 158.655 102.271 158.368 103.074 157.794V159.438C102.253 159.953 101.169 160.211 99.8217 160.211C98.4975 160.211 97.4574 159.804 96.7016 158.989C95.9516 158.169 95.5766 157.018 95.5766 155.535C95.5766 154.135 95.9897 152.995 96.8158 152.116C97.6479 151.231 98.6791 150.789 99.9096 150.789C101.14 150.789 102.092 151.185 102.766 151.976C103.44 152.767 103.777 153.865 103.777 155.271V156.054ZM101.808 154.612C101.802 153.88 101.629 153.312 101.289 152.907C100.95 152.497 100.481 152.292 99.8832 152.292C99.2973 152.292 98.7992 152.506 98.3891 152.934C97.9848 153.361 97.7357 153.921 97.642 154.612H101.808Z" fill="white"/>
<path d="M98.6538 109.323L97.2295 110.809L95.7783 109.313L95.3488 108.87V109.487V125.75H83.2665V112.872V112.622H83.0165H77.9835H77.7335V112.872V125.75H65.6512V109.487V108.87L65.2217 109.313L63.7705 110.809L62.3462 109.323L80.5 90.3615L98.6538 109.323ZM93.0824 123.624H93.3324V123.374V106.862V106.761L93.2628 106.689L80.6805 93.5603L80.5 93.372L80.3195 93.5603L67.7372 106.689L67.6676 106.761V106.862V123.374V123.624H67.9176H75.4671H75.7171V123.374V110.496H85.2829V123.374V123.624H85.5329H93.0824Z" fill="white" stroke="#B7472A" stroke-width="0.5"/>
<rect x="205.5" y="130.5" width="199" height="199" fill="#505050" stroke="white"/>
<path d="M259.21 300V290.197H262.04C265.654 290.197 267.461 291.79 267.461 294.976C267.461 296.489 266.96 297.705 265.957 298.626C264.954 299.542 263.61 300 261.924 300H259.21ZM260.83 291.578V298.626H262.129C263.273 298.626 264.161 298.312 264.795 297.683C265.433 297.054 265.752 296.165 265.752 295.017C265.752 292.724 264.565 291.578 262.19 291.578H260.83Z" fill="white"/>
<path d="M274.98 296.931H270.208C270.227 297.578 270.425 298.077 270.803 298.428C271.186 298.779 271.71 298.954 272.375 298.954C273.123 298.954 273.809 298.731 274.433 298.284V299.562C273.795 299.964 272.952 300.164 271.904 300.164C270.874 300.164 270.065 299.847 269.477 299.214C268.894 298.576 268.602 297.68 268.602 296.527C268.602 295.438 268.923 294.552 269.566 293.868C270.213 293.18 271.015 292.836 271.972 292.836C272.929 292.836 273.67 293.144 274.194 293.759C274.718 294.374 274.98 295.229 274.98 296.322V296.931ZM273.449 295.81C273.444 295.24 273.31 294.798 273.045 294.483C272.781 294.164 272.416 294.005 271.951 294.005C271.496 294.005 271.108 294.171 270.789 294.504C270.475 294.837 270.281 295.272 270.208 295.81H273.449Z" fill="white"/>
<path d="M280.421 290.929C280.206 290.806 279.963 290.744 279.689 290.744C278.919 290.744 278.534 291.179 278.534 292.05V293H280.161V294.244H278.541V300H276.955V294.244H275.758V293H276.955V291.865C276.955 291.127 277.196 290.546 277.679 290.122C278.162 289.694 278.766 289.479 279.491 289.479C279.883 289.479 280.193 289.523 280.421 289.609V290.929Z" fill="white"/>
<path d="M286.634 300H285.096V298.906H285.068C284.585 299.745 283.877 300.164 282.942 300.164C282.254 300.164 281.714 299.977 281.322 299.604C280.935 299.23 280.741 298.735 280.741 298.12C280.741 296.799 281.502 296.028 283.024 295.81L285.103 295.516C285.103 294.518 284.629 294.019 283.681 294.019C282.847 294.019 282.095 294.306 281.425 294.88V293.492C282.163 293.055 283.015 292.836 283.981 292.836C285.75 292.836 286.634 293.706 286.634 295.447V300ZM285.103 296.562L283.633 296.767C283.177 296.826 282.833 296.938 282.601 297.102C282.373 297.261 282.259 297.544 282.259 297.949C282.259 298.245 282.364 298.489 282.573 298.681C282.787 298.868 283.072 298.961 283.428 298.961C283.911 298.961 284.31 298.792 284.624 298.455C284.943 298.113 285.103 297.685 285.103 297.17V296.562Z" fill="white"/>
<path d="M294.652 300H293.066V298.893H293.038C292.578 299.74 291.863 300.164 290.892 300.164C289.238 300.164 288.41 299.171 288.41 297.184V293H289.996V297.02C289.996 298.277 290.482 298.906 291.452 298.906C291.922 298.906 292.307 298.733 292.608 298.387C292.913 298.04 293.066 297.587 293.066 297.026V293H294.652V300Z" fill="white"/>
<path d="M298.288 300H296.695V289.637H298.288V300Z" fill="white"/>
<path d="M304.022 299.925C303.713 300.08 303.305 300.157 302.799 300.157C301.441 300.157 300.762 299.506 300.762 298.202V294.244H299.593V293H300.762V291.38L302.348 290.929V293H304.022V294.244H302.348V297.744C302.348 298.159 302.423 298.455 302.573 298.633C302.724 298.811 302.974 298.899 303.325 298.899C303.594 298.899 303.826 298.822 304.022 298.667V299.925Z" fill="white"/>
<path d="M315.656 291.578H312.839V300H311.213V291.578H308.403V290.197H315.656V291.578Z" fill="white"/>
<path d="M323.106 300H321.52V296.172C321.52 294.786 321.058 294.094 320.133 294.094C319.668 294.094 319.276 294.294 318.957 294.695C318.638 295.096 318.478 295.609 318.478 296.233V300H316.886V289.637H318.478V294.162H318.506C319.034 293.278 319.791 292.836 320.775 292.836C322.329 292.836 323.106 293.786 323.106 295.687V300Z" fill="white"/>
<path d="M330.933 296.931H326.161C326.18 297.578 326.378 298.077 326.756 298.428C327.139 298.779 327.663 298.954 328.328 298.954C329.076 298.954 329.762 298.731 330.386 298.284V299.562C329.748 299.964 328.905 300.164 327.857 300.164C326.827 300.164 326.018 299.847 325.43 299.214C324.847 298.576 324.555 297.68 324.555 296.527C324.555 295.438 324.876 294.552 325.519 293.868C326.166 293.18 326.968 292.836 327.925 292.836C328.882 292.836 329.623 293.144 330.147 293.759C330.671 294.374 330.933 295.229 330.933 296.322V296.931ZM329.402 295.81C329.397 295.24 329.263 294.798 328.998 294.483C328.734 294.164 328.369 294.005 327.905 294.005C327.449 294.005 327.061 294.171 326.742 294.504C326.428 294.837 326.234 295.272 326.161 295.81H329.402Z" fill="white"/>
<path d="M342.881 300H341.296V296.186C341.296 295.452 341.191 294.921 340.981 294.593C340.776 294.265 340.427 294.101 339.935 294.101C339.52 294.101 339.167 294.308 338.876 294.723C338.588 295.137 338.445 295.634 338.445 296.213V300H336.852V296.056C336.852 294.752 336.392 294.101 335.471 294.101C335.043 294.101 334.69 294.297 334.412 294.688C334.138 295.08 334.002 295.589 334.002 296.213V300H332.416V293H334.002V294.107H334.029C334.535 293.26 335.271 292.836 336.237 292.836C336.72 292.836 337.142 292.97 337.502 293.239C337.866 293.504 338.115 293.852 338.247 294.285C338.766 293.319 339.541 292.836 340.571 292.836C342.111 292.836 342.881 293.786 342.881 295.687V300Z" fill="white"/>
<path d="M350.715 296.931H345.943C345.962 297.578 346.16 298.077 346.538 298.428C346.921 298.779 347.445 298.954 348.11 298.954C348.858 298.954 349.544 298.731 350.168 298.284V299.562C349.53 299.964 348.687 300.164 347.639 300.164C346.609 300.164 345.8 299.847 345.212 299.214C344.629 298.576 344.337 297.68 344.337 296.527C344.337 295.438 344.658 294.552 345.301 293.868C345.948 293.18 346.75 292.836 347.707 292.836C348.664 292.836 349.405 293.144 349.929 293.759C350.453 294.374 350.715 295.229 350.715 296.322V296.931ZM349.184 295.81C349.179 295.24 349.045 294.798 348.78 294.483C348.516 294.164 348.151 294.005 347.686 294.005C347.231 294.005 346.843 294.171 346.524 294.504C346.21 294.837 346.016 295.272 345.943 295.81H349.184Z" fill="white"/>
<rect x="263.5" y="161.5" width="82" height="108" fill="white" stroke="#C4C4C4"/>
<line x1="272" y1="169.5" x2="337" y2="169.5" stroke="#91908F" stroke-opacity="0.5"/>
<line x1="272" y1="180.75" x2="337" y2="180.75" stroke="#C9C9C9" stroke-width="0.5"/>
<line x1="272" y1="182.75" x2="337" y2="182.75" stroke="#E1DFDD" stroke-width="0.5"/>
<line x1="272" y1="184.5" x2="291" y2="184.5" stroke="#F3F3F3"/>
<line x1="272" y1="195.75" x2="337" y2="195.75" stroke="#C9C9C9" stroke-width="0.5"/>
<line x1="272" y1="197.75" x2="337" y2="197.75" stroke="#C9C9C9" stroke-opacity="0.77" stroke-width="0.5"/>
<line x1="272" y1="199.75" x2="337" y2="199.75" stroke="#E1DFDD" stroke-opacity="0.63" stroke-width="0.5"/>
<line x1="272" y1="201.75" x2="291" y2="201.75" stroke="#F3F3F3" stroke-width="0.5"/>
<line x1="272" y1="210.75" x2="337" y2="210.75" stroke="#C9C9C9" stroke-width="0.5"/>
<line x1="272" y1="212.75" x2="337" y2="212.75" stroke="#E1DFDD" stroke-width="0.5"/>
<line x1="272" y1="214.5" x2="291" y2="214.5" stroke="#F3F3F3"/>
<line x1="272" y1="234.75" x2="337" y2="234.75" stroke="#C9C9C9" stroke-opacity="0.5" stroke-width="0.5"/>
<line x1="272" y1="236.75" x2="337" y2="236.75" stroke="#E1DFDD" stroke-width="0.5"/>
<line x1="272" y1="238.75" x2="291" y2="238.75" stroke="#F3F3F3" stroke-width="0.5"/>
<line x1="272" y1="224.75" x2="337" y2="224.75" stroke="#C9C9C9" stroke-width="0.5"/>
<line x1="272" y1="226.75" x2="337" y2="226.75" stroke="#C9C9C9" stroke-opacity="0.77" stroke-width="0.5"/>
<line x1="272" y1="228.75" x2="337" y2="228.75" stroke="#E1DFDD" stroke-opacity="0.63" stroke-width="0.5"/>
<line x1="272" y1="230.5" x2="291" y2="230.5" stroke="#F3F3F3"/>
<line x1="272" y1="245.75" x2="337" y2="245.75" stroke="#C9C9C9" stroke-width="0.5"/>
<line x1="272" y1="247.75" x2="337" y2="247.75" stroke="#E1DFDD" stroke-width="0.5"/>
<line x1="272" y1="249.75" x2="291" y2="249.75" stroke="#F3F3F3" stroke-width="0.5"/>
<path d="M17.2559 30.3984V37H14.2471V18.7949H19.7695C21.86 18.7949 23.4808 19.2816 24.6318 20.2549C25.7829 21.2282 26.3584 22.5993 26.3584 24.3682C26.3584 26.137 25.7575 27.5843 24.5557 28.71C23.3538 29.8356 21.7288 30.3984 19.6807 30.3984H17.2559ZM17.2559 21.2832V27.9355H19.2109C20.5059 27.9355 21.4919 27.6351 22.1689 27.0342C22.846 26.4333 23.1846 25.5869 23.1846 24.4951C23.1846 22.3538 21.9404 21.2832 19.4521 21.2832H17.2559Z" fill="white"/>
<path d="M33.949 37.3047C31.9431 37.3047 30.3393 36.6995 29.1375 35.4893C27.9441 34.2705 27.3474 32.6582 27.3474 30.6523C27.3474 28.4688 27.9695 26.7633 29.2136 25.5361C30.4662 24.3089 32.1505 23.6953 34.2664 23.6953C36.2976 23.6953 37.8803 24.292 39.0144 25.4854C40.1485 26.6787 40.7156 28.3333 40.7156 30.4492C40.7156 32.5228 40.102 34.1859 38.8748 35.4385C37.656 36.6826 36.0141 37.3047 33.949 37.3047ZM34.0886 26.0439C32.9376 26.0439 32.0278 26.446 31.3591 27.25C30.6905 28.054 30.3562 29.1628 30.3562 30.5762C30.3562 31.9388 30.6947 33.0137 31.3718 33.8008C32.0489 34.5794 32.9545 34.9688 34.0886 34.9688C35.2481 34.9688 36.1368 34.5837 36.7546 33.8135C37.3809 33.0433 37.6941 31.9473 37.6941 30.5254C37.6941 29.0951 37.3809 27.9906 36.7546 27.2119C36.1368 26.4333 35.2481 26.0439 34.0886 26.0439Z" fill="white"/>
<path d="M61.1538 24L57.3198 37H54.2349L51.8735 28.1895C51.7804 27.8509 51.7212 27.4701 51.6958 27.0469H51.645C51.6281 27.3346 51.5519 27.707 51.4165 28.1641L48.8521 37H45.8306L42.0093 24H45.0562L47.4175 33.3691C47.4937 33.6484 47.5444 34.0208 47.5698 34.4863H47.6587C47.6841 34.1309 47.7518 33.75 47.8618 33.3438L50.4897 24H53.2573L55.5933 33.4072C55.6694 33.7035 55.7245 34.0758 55.7583 34.5244H55.8472C55.8641 34.2113 55.9276 33.8389 56.0376 33.4072L58.3481 24H61.1538Z" fill="white"/>
<path d="M74.178 31.2998H65.3167C65.3505 32.5016 65.7187 33.4284 66.4212 34.0801C67.1321 34.7318 68.1054 35.0576 69.3411 35.0576C70.7291 35.0576 72.0029 34.6429 73.1624 33.8135V36.1875C71.9775 36.9323 70.4117 37.3047 68.4651 37.3047C66.5523 37.3047 65.0501 36.7165 63.9583 35.54C62.8749 34.3551 62.3333 32.6921 62.3333 30.5508C62.3333 28.528 62.9299 26.8818 64.1233 25.6123C65.3251 24.3343 66.8147 23.6953 68.592 23.6953C70.3694 23.6953 71.7447 24.2666 72.718 25.4092C73.6913 26.5518 74.178 28.1387 74.178 30.1699V31.2998ZM71.3342 29.2178C71.3258 28.1598 71.0761 27.3389 70.5852 26.7549C70.0943 26.1624 69.4172 25.8662 68.554 25.8662C67.7076 25.8662 66.9882 26.1751 66.3958 26.793C65.8118 27.4108 65.4521 28.2191 65.3167 29.2178H71.3342Z" fill="white"/>
<path d="M84.4727 26.8057C84.1172 26.5264 83.6052 26.3867 82.9365 26.3867C82.0648 26.3867 81.3369 26.7803 80.7529 27.5674C80.169 28.3545 79.877 29.4251 79.877 30.7793V37H76.9316V24H79.877V26.6787H79.9277C80.2155 25.7646 80.6556 25.0537 81.2481 24.5459C81.849 24.0296 82.5176 23.7715 83.2539 23.7715C83.7871 23.7715 84.1934 23.8519 84.4727 24.0127V26.8057Z" fill="white"/>
<path d="M89.8416 30.3984V37H86.8328V18.7949H92.3552C94.4457 18.7949 96.0665 19.2816 97.2175 20.2549C98.3686 21.2282 98.9441 22.5993 98.9441 24.3682C98.9441 26.137 98.3432 27.5843 97.1414 28.71C95.9395 29.8356 94.3145 30.3984 92.2664 30.3984H89.8416ZM89.8416 21.2832V27.9355H91.7966C93.0916 27.9355 94.0776 27.6351 94.7546 27.0342C95.4317 26.4333 95.7703 25.5869 95.7703 24.4951C95.7703 22.3538 94.5261 21.2832 92.0378 21.2832H89.8416Z" fill="white"/>
<path d="M106.535 37.3047C104.529 37.3047 102.925 36.6995 101.723 35.4893C100.53 34.2705 99.9331 32.6582 99.9331 30.6523C99.9331 28.4688 100.555 26.7633 101.799 25.5361C103.052 24.3089 104.736 23.6953 106.852 23.6953C108.883 23.6953 110.466 24.292 111.6 25.4854C112.734 26.6787 113.301 28.3333 113.301 30.4492C113.301 32.5228 112.688 34.1859 111.46 35.4385C110.242 36.6826 108.6 37.3047 106.535 37.3047ZM106.674 26.0439C105.523 26.0439 104.613 26.446 103.945 27.25C103.276 28.054 102.942 29.1628 102.942 30.5762C102.942 31.9388 103.28 33.0137 103.958 33.8008C104.635 34.5794 105.54 34.9688 106.674 34.9688C107.834 34.9688 108.723 34.5837 109.34 33.8135C109.967 33.0433 110.28 31.9473 110.28 30.5254C110.28 29.0951 109.967 27.9906 109.34 27.2119C108.723 26.4333 107.834 26.0439 106.674 26.0439Z" fill="white"/>
<path d="M117.743 21.2705C117.261 21.2705 116.846 21.1139 116.499 20.8008C116.161 20.4876 115.991 20.0898 115.991 19.6074C115.991 19.125 116.161 18.723 116.499 18.4014C116.846 18.0798 117.261 17.9189 117.743 17.9189C118.243 17.9189 118.666 18.0798 119.013 18.4014C119.36 18.723 119.533 19.125 119.533 19.6074C119.533 20.0645 119.36 20.458 119.013 20.7881C118.666 21.1097 118.243 21.2705 117.743 21.2705ZM119.203 37H116.258V24H119.203V37Z" fill="white"/>
<path d="M134.589 37H131.644V29.6748C131.644 27.2458 130.785 26.0312 129.066 26.0312C128.169 26.0312 127.429 26.3698 126.845 27.0469C126.261 27.7155 125.969 28.5618 125.969 29.5859V37H123.011V24H125.969V26.1582H126.02C126.993 24.5163 128.398 23.6953 130.234 23.6953C131.648 23.6953 132.727 24.1566 133.472 25.0791C134.216 25.9932 134.589 27.3177 134.589 29.0527V37Z" fill="white"/>
<path d="M144.998 36.8604C144.422 37.1481 143.665 37.292 142.725 37.292C140.203 37.292 138.942 36.0817 138.942 33.6611V26.3105H136.771V24H138.942V20.9912L141.887 20.1533V24H144.998V26.3105H141.887V32.8105C141.887 33.5807 142.027 34.1309 142.306 34.4609C142.586 34.791 143.051 34.9561 143.703 34.9561C144.202 34.9561 144.634 34.8122 144.998 34.5244V36.8604Z" fill="white"/>
</svg>
