<svg style="background-color: white" width="1280" height="720" xmlns="http://www.w3.org/2000/svg" xmlns:xlink="http://www.w3.org/1999/xlink" overflow="hidden"><defs><clipPath id="clip0"><rect x="0" y="0" width="1280" height="720"/></clipPath><clipPath id="clip1"><rect x="536" y="293" width="137" height="137"/></clipPath><clipPath id="clip2"><rect x="536" y="293" width="137" height="137"/></clipPath><clipPath id="clip3"><rect x="536" y="293" width="137" height="137"/></clipPath><linearGradient x1="604.5" y1="444.081" x2="604.5" y2="285.237" gradientUnits="userSpaceOnUse" spreadMethod="pad" id="fill4"><stop offset="0" stop-color="#5E9624"/><stop offset="0.02" stop-color="#5F9724"/><stop offset="1" stop-color="#76BC2D"/></linearGradient></defs><g clip-path="url(#clip0)"><rect x="0" y="0" width="1280" height="720" fill="#FFFFFF"/><rect x="27" y="283" width="128" height="154" fill="#44546A"/><text fill="#FFFFFF" font-family="Calibri,Calibri_MSFontService,sans-serif" font-weight="400" font-size="43" transform="translate(56.3001 349)">Test <tspan font-size="43" x="-5.63334" y="51">User</tspan></text><rect x="263" y="310" width="154" height="100" fill="#FFE699"/><text font-family="Calibri,Calibri_MSFontService,sans-serif" font-weight="400" font-size="27" transform="translate(290.342 353)">Incoming <tspan font-size="27" x="17.8733" y="32">traffic</tspan></text><rect x="793" y="310" width="108" height="100" fill="#C55A11"/><text font-family="Calibri,Calibri_MSFontService,sans-serif" font-weight="400" font-size="27" transform="translate(826.223 353)">AKS <tspan font-size="27" x="-6.95331" y="32">node</tspan></text><rect x="1143" y="318" width="110" height="84" fill="#B4C7E7"/><text font-family="Calibri,Calibri_MSFontService,sans-serif" font-weight="400" font-size="32" transform="translate(1173.46 371)">Pod</text><rect x="1143" y="507" width="110" height="84" fill="#B4C7E7"/><text font-family="Calibri,Calibri_MSFontService,sans-serif" font-weight="400" font-size="32" transform="translate(1173.46 560)">Pod</text><path d="M155.5 359.833 252.292 359.833 252.292 361.167 155.5 361.167ZM250.959 353.833 264.292 360.5 250.959 367.167Z"/><path d="M417.51 359.833 524.585 361.398 524.566 362.731 417.49 361.167ZM523.34 355.379 536.574 362.24 523.145 368.711Z"/><path d="M901.5 359.833 1131.28 359.833 1131.28 361.167 901.5 361.167ZM1129.94 353.833 1143.28 360.5 1129.94 367.167Z"/><text font-family="Calibri,Calibri_MSFontService,sans-serif" font-weight="400" font-size="24" transform="translate(1058.18 320)">Port 80<tspan font-size="24" x="-12.6184" y="205">Port 80</tspan><tspan font-size="24" x="-607.366" y="19">Port 80</tspan></text><rect x="793" y="499" width="108" height="100" fill="#C55A11"/><text font-family="Calibri,Calibri_MSFontService,sans-serif" font-weight="400" font-size="27" transform="translate(826.223 542)">AKS <tspan font-size="27" x="-6.95331" y="32">node</tspan></text><path d="M901.5 548.833 1131.28 548.833 1131.28 550.167 901.5 550.167ZM1129.94 542.833 1143.28 549.5 1129.94 556.167Z"/><rect x="793" y="121" width="108" height="100" fill="#C55A11"/><text font-family="Calibri,Calibri_MSFontService,sans-serif" font-weight="400" font-size="27" transform="translate(826.223 164)">AKS <tspan font-size="27" x="-6.95331" y="32">node</tspan></text><path d="M901.5 170.833 1161.7 170.833 1161.78 306.441 1160.44 306.442 1160.37 171.5 1161.04 172.167 901.5 172.167ZM1167.69 304.733 1161.79 318.422 1154.38 305.488Z" fill="#4472C4"/><g clip-path="url(#clip1)"><g clip-path="url(#clip2)"><g clip-path="url(#clip3)"><path d="M537.37 358.227 601.227 294.37C602.986 292.562 605.877 292.523 607.685 294.282 607.715 294.311 607.744 294.34 607.773 294.37L671.63 358.227C673.438 359.986 673.477 362.877 671.718 364.685 671.689 364.715 671.66 364.744 671.63 364.773L607.697 428.706C605.921 430.447 603.079 430.447 601.303 428.706L537.37 364.773C535.562 363.014 535.523 360.123 537.282 358.315 537.311 358.285 537.34 358.256 537.37 358.227Z" fill="url(#fill4)"/><path d="M621.244 323.444 605.109 307.385C604.762 307.075 604.238 307.075 603.891 307.385L587.756 323.444C587.407 323.679 587.314 324.152 587.549 324.501 587.728 324.766 588.054 324.892 588.364 324.814L597.802 324.814C598.265 324.814 598.639 325.189 598.639 325.652L598.639 340.874C598.639 341.336 599.014 341.711 599.477 341.711L609.523 341.711C609.986 341.711 610.361 341.336 610.361 340.874L610.361 325.652C610.361 325.189 610.735 324.814 611.198 324.814L620.636 324.814C621.044 324.916 621.457 324.668 621.558 324.26 621.636 323.949 621.51 323.623 621.244 323.444ZM566.444 343.309 550.461 359.521C550.161 359.843 550.161 360.341 550.461 360.663L566.444 376.722C566.761 377.059 567.291 377.075 567.628 376.758 567.805 376.591 567.901 376.356 567.891 376.113L567.891 366.752C567.891 366.289 568.265 365.914 568.728 365.914L583.95 365.914C584.37 365.917 584.713 365.578 584.715 365.157 584.715 365.13 584.714 365.104 584.711 365.077L584.711 355.031C584.927 354.67 584.809 354.202 584.448 353.987 584.365 353.937 584.274 353.904 584.178 353.889L568.956 353.889C568.538 353.931 568.165 353.626 568.123 353.208 568.12 353.181 568.119 353.154 568.119 353.128L568.119 343.918C568.287 343.456 568.048 342.945 567.586 342.777 567.124 342.609 566.613 342.847 566.444 343.309ZM643.164 376.722 659.376 360.587C659.676 360.265 659.676 359.767 659.376 359.445L643.164 343.309C642.808 343.015 642.28 343.065 641.985 343.421 641.87 343.562 641.802 343.736 641.794 343.918L641.794 353.432C641.797 353.853 641.457 354.195 641.037 354.197 641.01 354.197 640.984 354.196 640.957 354.193L625.735 354.193C625.315 354.191 624.972 354.53 624.97 354.951 624.97 354.977 624.971 355.004 624.974 355.031L624.974 365.077C624.932 365.495 625.236 365.869 625.655 365.911 625.682 365.913 625.708 365.915 625.735 365.914L640.957 365.914C641.42 365.914 641.794 366.289 641.794 366.752L641.794 376.189C641.854 376.648 642.273 376.972 642.732 376.913 642.891 376.892 643.042 376.826 643.164 376.722Z" fill="#B4EC36"/><path d="M625.735 361.5C625.807 349.772 616.36 340.206 604.632 340.134 592.904 340.061 583.339 349.509 583.266 361.237 583.206 370.814 589.566 379.247 598.792 381.822L598.792 389.052C592.406 392.352 589.904 400.204 593.204 406.59 596.504 412.975 604.355 415.477 610.741 412.177 617.127 408.878 619.629 401.026 616.329 394.64 615.091 392.244 613.138 390.291 610.741 389.052L610.741 381.441C619.558 378.782 625.628 370.709 625.735 361.5Z" fill="#FFFFFF"/><path d="M616.906 361.424C616.906 368.234 611.386 373.754 604.576 373.754 597.766 373.754 592.246 368.234 592.246 361.424 592.246 354.614 597.766 349.094 604.576 349.094 611.386 349.094 616.906 354.614 616.906 361.424Z" fill="#5EA0EF"/></g></g></g><path d="M0.00973929-0.666596 107.085 0.897834 107.066 2.23102-0.00973929 0.666596ZM105.84-5.121 119.075 1.73974 105.645 8.21091Z" transform="matrix(1 0 0 -1 673.5 362.24)"/><path d="M0.483302-0.459199 144.758 151.389 143.792 152.307-0.483302 0.459199ZM148.19 146.289 152.541 160.547 138.524 155.473Z" transform="matrix(1 0 0 -1 640.5 332.047)"/><path d="M640.964 400.021 786.53 540.783 785.603 541.742 640.037 400.979ZM789.742 535.543 794.693 549.604 780.474 545.128Z"/><text font-family="Calibri,Calibri_MSFontService,sans-serif" font-weight="400" font-size="27" transform="translate(578.773 247)">Load <tspan font-size="27" x="-21.1666" y="32">Balancer</tspan></text></g></svg>