<?xml version="1.0" encoding="UTF-8" standalone="no"?>
<!DOCTYPE svg PUBLIC "-//W3C//DTD SVG 1.1//EN" "http://www.w3.org/Graphics/SVG/1.1/DTD/svg11.dtd">
<!-- Generated by Microsoft Visio, SVG Export OOM_Graph_Tshooting.svg Page-1 -->
<svg xmlns="http://www.w3.org/2000/svg" xmlns:xlink="http://www.w3.org/1999/xlink" xmlns:ev="http://www.w3.org/2001/xml-events"
		xmlns:v="http://schemas.microsoft.com/visio/2003/SVGExtensions/" width="10.625in" height="8.5in" viewBox="0 0 765 612"
		xml:space="preserve" color-interpolation-filters="sRGB" class="st16">
	<v:documentProperties v:langID="1033" v:viewMarkup="false">
		<v:userDefs>
			<v:ud v:nameU="msvSubprocessMaster" v:prompt="" v:val="VT4(Rectangle)"/>
			<v:ud v:nameU="msvNoAutoConnect" v:val="VT0(1):26"/>
		</v:userDefs>
	</v:documentProperties>

	<style type="text/css">
	<![CDATA[
		.st1 {fill:#feffff;stroke:#000000;stroke-width:2.25}
		.st2 {fill:#feffff;font-family:Calibri;font-size:0.833336em}
		.st3 {fill:#305497;stroke:#c7c8c8;stroke-width:0.25}
		.st4 {fill:#feffff;font-family:Calibri;font-size:1.16666em}
		.st5 {fill:none;stroke:none;stroke-width:0.25}
		.st6 {fill:#000000;font-family:Calibri;font-size:1.00001em}
		.st7 {font-size:1em}
		.st8 {fill:#fff2cc;stroke:#30518f;stroke-width:0.75}
		.st9 {fill:#000000;font-family:Calibri;font-size:0.833336em}
		.st10 {fill:#e2efd9;stroke:#30518f;stroke-width:0.75}
		.st11 {fill:#deebf6;stroke:#30518f;stroke-width:0.75}
		.st12 {fill:#000000;font-family:Calibri;font-size:0.75em}
		.st13 {fill:#fff2cc;stroke:#c7c8c8;stroke-width:0.25}
		.st14 {fill:#e2efd9;stroke:#c7c8c8;stroke-width:0.25}
		.st15 {fill:#deebf6;stroke:#c7c8c8;stroke-width:0.25}
		.st16 {fill:none;fill-rule:evenodd;font-size:12px;overflow:visible;stroke-linecap:square;stroke-miterlimit:3}
	]]>
	</style>

	<g v:mID="0" v:index="1" v:groupContext="foregroundPage">
		<v:userDefs>
			<v:ud v:nameU="msvThemeOrder" v:val="VT0(0):26"/>
		</v:userDefs>
		<title>Page-1</title>
		<v:pageProperties v:drawingScale="1" v:pageScale="1" v:drawingUnits="0" v:shadowOffsetX="9" v:shadowOffsetY="-9"/>
		<v:layer v:name="Connector" v:index="0"/>
		<g id="shape2-1" v:mID="2" v:groupContext="shape" transform="translate(153,-63)">
			<title>Rectangle.2</title>
			<desc>d</desc>
			<v:userDefs>
				<v:ud v:nameU="visVersion" v:val="VT0(15):26"/>
			</v:userDefs>
			<v:textBlock v:margins="rect(4,4,4,4)"/>
			<v:textRect cx="211.5" cy="414" width="423" height="396"/>
			<rect x="0" y="216" width="423" height="396" class="st1"/>
			<text x="208.87" y="417" class="st2" v:langID="1033"><v:paragraph v:horizAlign="1"/><v:tabList/>d</text>		</g>
		<g id="shape1-4" v:mID="1" v:groupContext="shape" transform="translate(263.25,-126)">
			<title>Rectangle</title>
			<desc>SQL Server Engine memory</desc>
			<v:userDefs>
				<v:ud v:nameU="visVersion" v:val="VT0(15):26"/>
			</v:userDefs>
			<v:textBlock v:margins="rect(4,4,4,4)"/>
			<v:textRect cx="102.375" cy="481.5" width="204.75" height="261"/>
			<rect x="0" y="351" width="204.75" height="261" class="st3"/>
			<text x="25.41" y="485.7" class="st4" v:langID="1033"><v:paragraph v:horizAlign="1"/><v:tabList/>SQL Server Engine memory</text>		</g>
		<g id="shape10-7" v:mID="10" v:groupContext="shape" transform="translate(306,-405)">
			<title>Sheet.10</title>
			<desc>SQL Server process memory</desc>
			<v:textBlock v:margins="rect(4,4,4,4)"/>
			<v:textRect cx="72" cy="594" width="144" height="36"/>
			<rect x="0" y="576" width="144" height="36" class="st5"/>
			<text x="25.73" y="590.4" class="st6" v:langID="1033"><v:paragraph v:horizAlign="1"/><v:tabList/>SQL Server process <tspan
						x="51.46" dy="1.2em" class="st7">memory</tspan></text>		</g>
		<g id="shape1000-11" v:mID="1000" v:groupContext="shape" transform="translate(135,846) rotate(180)">
			<title>Simple Arrow.1000</title>
			<desc>Application</desc>
			<v:userDefs>
				<v:ud v:nameU="visVersion" v:val="VT0(15):26"/>
				<v:ud v:nameU="ArrowType" v:prompt="" v:val="VT0(2):26"/>
			</v:userDefs>
			<v:textBlock v:margins="rect(4,4,4,4)"/>
			<v:textRect cx="49.5" cy="612" width="99" height="0" transform="rotate(180)"/>
			<path d="M0 612 L12 576 L12 594 L99 594 L99 612 L99 630 L12 630 L12 648 L0 612 Z" class="st8"/>
			<text x="-72.54" y="-609" transform="rotate(180)" class="st9" v:langID="1033"><v:paragraph v:horizAlign="1"/><v:tabList/>Application</text>		</g>
		<g id="shape1001-14" v:mID="1001" v:groupContext="shape" transform="translate(135,1098) rotate(180)">
			<title>Simple Arrow.1001</title>
			<desc>Drivers</desc>
			<v:userDefs>
				<v:ud v:nameU="visVersion" v:val="VT0(15):26"/>
				<v:ud v:nameU="ArrowType" v:prompt="" v:val="VT0(2):26"/>
			</v:userDefs>
			<v:textBlock v:margins="rect(4,4,4,4)"/>
			<v:textRect cx="49.5" cy="612" width="99" height="0" transform="rotate(180)"/>
			<path d="M0 612 L12 576 L12 594 L99 594 L99 612 L99 630 L12 630 L12 648 L0 612 Z" class="st8"/>
			<text x="-63.91" y="-609" transform="rotate(180)" class="st9" v:langID="1033"><v:paragraph v:horizAlign="1"/><v:tabList/>Drivers</text>		</g>
		<g id="shape1002-17" v:mID="1002" v:groupContext="shape" transform="translate(603,-117)">
			<title>Simple Arrow.1002</title>
			<desc>OS compoments</desc>
			<v:userDefs>
				<v:ud v:nameU="visVersion" v:val="VT0(15):26"/>
				<v:ud v:nameU="ArrowType" v:prompt="" v:val="VT0(2):26"/>
			</v:userDefs>
			<v:textBlock v:margins="rect(4,4,4,4)"/>
			<v:textRect cx="40.5" cy="612" width="81" height="0"/>
			<path d="M0 612 L12 576 L12 594 L81 594 L81 612 L81 630 L12 630 L12 648 L0 612 Z" class="st8"/>
			<text x="7.01" y="615" class="st9" v:langID="1033"><v:paragraph v:horizAlign="1"/><v:tabList/>OS compoments</text>		</g>
		<g id="shape1009-20" v:mID="1009" v:groupContext="shape" transform="translate(594,-387)">
			<title>Simple Arrow.1009</title>
			<desc>Application</desc>
			<v:userDefs>
				<v:ud v:nameU="visVersion" v:val="VT0(15):26"/>
				<v:ud v:nameU="ArrowType" v:prompt="" v:val="VT0(2):26"/>
			</v:userDefs>
			<v:textBlock v:margins="rect(4,4,4,4)"/>
			<v:textRect cx="45" cy="612" width="90" height="0"/>
			<path d="M0 612 L12 576 L12 594 L90 594 L90 612 L90 630 L12 630 L12 648 L0 612 Z" class="st8"/>
			<text x="21.96" y="615" class="st9" v:langID="1033"><v:paragraph v:horizAlign="1"/><v:tabList/>Application</text>		</g>
		<g id="shape9-23" v:mID="9" v:groupContext="shape" transform="translate(252,909) rotate(180)">
			<title>Simple Double Arrow.9</title>
			<desc>Linked Servers</desc>
			<v:userDefs>
				<v:ud v:nameU="visVersion" v:val="VT0(15):26"/>
				<v:ud v:nameU="ArrowType" v:prompt="" v:val="VT0(3):26"/>
			</v:userDefs>
			<v:textBlock v:margins="rect(4,4,4,4)"/>
			<v:textRect cx="45" cy="612" width="90" height="0" transform="rotate(180)"/>
			<path d="M0 612 L19.79 576 L19.79 594 L70.21 594 L70.21 576 L90 612 L70.21 648 L70.21 630 L19.79 630 L19.79 648 L0 612
						 Z" class="st10"/>
			<text x="-74.37" y="-609" transform="rotate(180)" class="st9" v:langID="1033"><v:paragraph v:horizAlign="1"/><v:tabList/>Linked Servers</text>		</g>
		<g id="shape1010-26" v:mID="1010" v:groupContext="shape" transform="translate(252,1017) rotate(180)">
			<title>Simple Double Arrow.1010</title>
			<desc>SQL CLR</desc>
			<v:userDefs>
				<v:ud v:nameU="visVersion" v:val="VT0(15):26"/>
				<v:ud v:nameU="ArrowType" v:prompt="" v:val="VT0(3):26"/>
			</v:userDefs>
			<v:textBlock v:margins="rect(4,4,4,4)"/>
			<v:textRect cx="45" cy="612" width="90" height="0" transform="rotate(180)"/>
			<path d="M0 612 L19.79 576 L19.79 594 L70.21 594 L70.21 576 L90 612 L70.21 648 L70.21 630 L19.79 630 L19.79 648 L0 612
						 Z" class="st10"/>
			<text x="-61.38" y="-609" transform="rotate(180)" class="st9" v:langID="1033"><v:paragraph v:horizAlign="1"/><v:tabList/>SQL CLR</text>		</g>
		<g id="shape1013-29" v:mID="1013" v:groupContext="shape" transform="translate(569.25,912.25) rotate(180)">
			<title>Simple Double Arrow.9</title>
			<desc>XPs</desc>
			<v:userDefs>
				<v:ud v:nameU="visVersion" v:val="VT0(15):26"/>
				<v:ud v:nameU="ArrowType" v:prompt="" v:val="VT0(3):26"/>
			</v:userDefs>
			<v:textBlock v:margins="rect(4,4,4,4)"/>
			<v:textRect cx="45" cy="612" width="90" height="0" transform="rotate(180)"/>
			<path d="M0 612 L19.79 576 L19.79 594 L70.21 594 L70.21 576 L90 612 L70.21 648 L70.21 630 L19.79 630 L19.79 648 L0 612
						 Z" class="st10"/>
			<text x="-52.13" y="-609" transform="rotate(180)" class="st9" v:langID="1033"><v:paragraph v:horizAlign="1"/><v:tabList/>XPs</text>		</g>
		<g id="shape1014-32" v:mID="1014" v:groupContext="shape" transform="translate(569.25,1020.25) rotate(180)">
			<title>Simple Double Arrow.1010</title>
			<desc>OLE Automation</desc>
			<v:userDefs>
				<v:ud v:nameU="visVersion" v:val="VT0(15):26"/>
				<v:ud v:nameU="ArrowType" v:prompt="" v:val="VT0(3):26"/>
			</v:userDefs>
			<v:textBlock v:margins="rect(4,4,4,4)"/>
			<v:textRect cx="45" cy="612" width="90" height="0" transform="rotate(180)"/>
			<path d="M0 612 L19.79 576 L19.79 594 L70.21 594 L70.21 576 L90 612 L70.21 648 L70.21 630 L19.79 630 L19.79 648 L0 612
						 Z" class="st10"/>
			<text x="-78.29" y="-609" transform="rotate(180)" class="st9" v:langID="1033"><v:paragraph v:horizAlign="1"/><v:tabList/>OLE Automation</text>		</g>
		<g id="shape1019-35" v:mID="1019" v:groupContext="shape" transform="translate(288,-207)">
			<title>Simple Double Arrow.1019</title>
			<desc>MEMORYCLERK_*</desc>
			<v:userDefs>
				<v:ud v:nameU="visVersion" v:val="VT0(15):26"/>
				<v:ud v:nameU="ArrowType" v:prompt="" v:val="VT0(3):26"/>
			</v:userDefs>
			<v:textBlock v:margins="rect(4,4,4,4)"/>
			<v:textRect cx="74.25" cy="612" width="148.5" height="0"/>
			<path d="M0 612 L18 576 L18 594 L130.5 594 L130.5 576 L148.5 612 L130.5 648 L130.5 630 L18 630 L18 648 L0 612 Z"
					class="st11"/>
			<text x="40.99" y="614.7" class="st12" v:langID="1033"><v:paragraph v:horizAlign="1"/><v:tabList/>MEMORYCLERK_*</text>		</g>
		<g id="shape1020-38" v:mID="1020" v:groupContext="shape" transform="translate(36,-549)">
			<title>Rectangle.1020</title>
			<desc>External memory pressure</desc>
			<v:userDefs>
				<v:ud v:nameU="visVersion" v:val="VT0(15):26"/>
			</v:userDefs>
			<v:textBlock v:margins="rect(4,4,4,4)"/>
			<v:textRect cx="83.25" cy="603" width="166.5" height="18"/>
			<rect x="0" y="594" width="166.5" height="18" class="st13"/>
			<text x="29.56" y="606" class="st9" v:langID="1033"><v:paragraph v:horizAlign="1"/><v:tabList/>External memory pressure</text>		</g>
		<g id="shape1021-41" v:mID="1021" v:groupContext="shape" transform="translate(270,-549)">
			<title>Rectangle.1021</title>
			<desc>Internal non-SQL memory pressure</desc>
			<v:userDefs>
				<v:ud v:nameU="visVersion" v:val="VT0(15):26"/>
			</v:userDefs>
			<v:textBlock v:margins="rect(4,4,4,4)"/>
			<v:textRect cx="76.5" cy="603" width="153" height="18"/>
			<rect x="0" y="594" width="153" height="18" class="st14"/>
			<text x="5.22" y="606" class="st9" v:langID="1033"><v:paragraph v:horizAlign="1"/><v:tabList/>Internal non-SQL memory pressure</text>		</g>
		<g id="shape1022-44" v:mID="1022" v:groupContext="shape" transform="translate(510.75,-549)">
			<title>Rectangle.1022</title>
			<desc>Internal SQL Server memory pressure</desc>
			<v:userDefs>
				<v:ud v:nameU="visVersion" v:val="VT0(15):26"/>
			</v:userDefs>
			<v:textBlock v:margins="rect(4,4,4,4)"/>
			<v:textRect cx="83.25" cy="603" width="166.5" height="18"/>
			<rect x="0" y="594" width="166.5" height="18" class="st15"/>
			<text x="7.24" y="606" class="st9" v:langID="1033"><v:paragraph v:horizAlign="1"/><v:tabList/>Internal SQL Server memory pressure</text>		</g>
		<g id="shape1023-47" v:mID="1023" v:groupContext="shape" transform="translate(306,-183.24)">
			<title>Simple Double Arrow.1023</title>
			<desc>OBJECTSTORE_LOCK_MANAGER</desc>
			<v:userDefs>
				<v:ud v:nameU="visVersion" v:val="VT0(15):26"/>
				<v:ud v:nameU="ArrowType" v:prompt="" v:val="VT0(3):26"/>
			</v:userDefs>
			<v:textBlock v:margins="rect(4,4,4,4)"/>
			<v:textRect cx="74.25" cy="612" width="148.5" height="0"/>
			<path d="M0 612 L18 576 L18 594 L130.5 594 L130.5 576 L148.5 612 L130.5 648 L130.5 630 L18 630 L18 648 L0 612 Z"
					class="st11"/>
			<text x="15.19" y="614.7" class="st12" v:langID="1033"><v:paragraph v:horizAlign="1"/><v:tabList/>OBJECTSTORE_LOCK_MANAGER</text>		</g>
		<g id="shape1018-50" v:mID="1018" v:groupContext="shape" transform="translate(279,-338.76)">
			<title>Simple Double Arrow.1018</title>
			<desc>CACHESTORE_*</desc>
			<v:userDefs>
				<v:ud v:nameU="visVersion" v:val="VT0(15):26"/>
				<v:ud v:nameU="ArrowType" v:prompt="" v:val="VT0(3):26"/>
			</v:userDefs>
			<v:textBlock v:margins="rect(4,4,4,4)"/>
			<v:textRect cx="74.25" cy="612" width="148.5" height="0"/>
			<path d="M0 612 L18 576 L18 594 L130.5 594 L130.5 576 L148.5 612 L130.5 648 L130.5 630 L18 630 L18 648 L0 612 Z"
					class="st11"/>
			<text x="45.48" y="614.7" class="st12" v:langID="1033"><v:paragraph v:horizAlign="1"/><v:tabList/>CACHESTORE_*</text>		</g>
		<g id="shape1024-53" v:mID="1024" v:groupContext="shape" transform="translate(297,-315)">
			<title>Simple Double Arrow.1024</title>
			<desc>USERSTORE_TOKENPERM</desc>
			<v:userDefs>
				<v:ud v:nameU="visVersion" v:val="VT0(15):26"/>
				<v:ud v:nameU="ArrowType" v:prompt="" v:val="VT0(3):26"/>
			</v:userDefs>
			<v:textBlock v:margins="rect(4,4,4,4)"/>
			<v:textRect cx="74.25" cy="612" width="148.5" height="0"/>
			<path d="M0 612 L18 576 L18 594 L130.5 594 L130.5 576 L148.5 612 L130.5 648 L130.5 630 L18 630 L18 648 L0 612 Z"
					class="st11"/>
			<text x="27.11" y="614.7" class="st12" v:langID="1033"><v:paragraph v:horizAlign="1"/><v:tabList/>USERSTORE_TOKENPERM</text>		</g>
		<g id="shape1025-56" v:mID="1025" v:groupContext="shape" transform="translate(310.5,-291.24)">
			<title>Simple Double Arrow.1025</title>
			<desc>OBJECTSTORE_LOCK_MANAGER</desc>
			<v:userDefs>
				<v:ud v:nameU="visVersion" v:val="VT0(15):26"/>
				<v:ud v:nameU="ArrowType" v:prompt="" v:val="VT0(3):26"/>
			</v:userDefs>
			<v:textBlock v:margins="rect(4,4,4,4)"/>
			<v:textRect cx="74.25" cy="612" width="148.5" height="0"/>
			<path d="M0 612 L18 576 L18 594 L130.5 594 L130.5 576 L148.5 612 L130.5 648 L130.5 630 L18 630 L18 648 L0 612 Z"
					class="st11"/>
			<text x="15.19" y="614.7" class="st12" v:langID="1033"><v:paragraph v:horizAlign="1"/><v:tabList/>OBJECTSTORE_LOCK_MANAGER</text>		</g>
	</g>
</svg>
