<svg style="background-color: white" width="1280" height="720" xmlns="http://www.w3.org/2000/svg" xmlns:xlink="http://www.w3.org/1999/xlink" overflow="hidden"><defs><filter id="fx0" x="-10%" y="-10%" width="120%" height="120%" filterUnits="userSpaceOnUse" primitiveUnits="userSpaceOnUse"><feComponentTransfer color-interpolation-filters="sRGB"><feFuncR type="discrete" tableValues="0 0"/><feFuncG type="discrete" tableValues="0 0"/><feFuncB type="discrete" tableValues="0 0"/><feFuncA type="linear" slope="0.4" intercept="0"/></feComponentTransfer><feGaussianBlur stdDeviation="1.77778 1.77778"/></filter><filter id="fx1" x="-10%" y="-10%" width="120%" height="120%" filterUnits="userSpaceOnUse" primitiveUnits="userSpaceOnUse"><feComponentTransfer color-interpolation-filters="sRGB"><feFuncR type="discrete" tableValues="0 0"/><feFuncG type="discrete" tableValues="0 0"/><feFuncB type="discrete" tableValues="0 0"/><feFuncA type="linear" slope="0.4" intercept="0"/></feComponentTransfer><feGaussianBlur stdDeviation="1.77778 1.77778"/></filter><filter id="fx2" x="-10%" y="-10%" width="120%" height="120%" filterUnits="userSpaceOnUse" primitiveUnits="userSpaceOnUse"><feComponentTransfer color-interpolation-filters="sRGB"><feFuncR type="discrete" tableValues="0 0"/><feFuncG type="discrete" tableValues="0 0"/><feFuncB type="discrete" tableValues="0 0"/><feFuncA type="linear" slope="0.4" intercept="0"/></feComponentTransfer><feGaussianBlur stdDeviation="1.77778 1.77778"/></filter><filter id="fx3" x="-10%" y="-10%" width="120%" height="120%" filterUnits="userSpaceOnUse" primitiveUnits="userSpaceOnUse"><feComponentTransfer color-interpolation-filters="sRGB"><feFuncR type="discrete" tableValues="0 0"/><feFuncG type="discrete" tableValues="0 0"/><feFuncB type="discrete" tableValues="0 0"/><feFuncA type="linear" slope="0.4" intercept="0"/></feComponentTransfer><feGaussianBlur stdDeviation="1.77778 1.77778"/></filter><clipPath id="clip4"><rect x="0" y="0" width="1280" height="720"/></clipPath><clipPath id="clip5"><rect x="5" y="7" width="154" height="152"/></clipPath><clipPath id="clip6"><rect x="0" y="0" width="160" height="160"/></clipPath><clipPath id="clip7"><rect x="6" y="6" width="147" height="147"/></clipPath><clipPath id="clip8"><rect x="6" y="6" width="147" height="147"/></clipPath><clipPath id="clip9"><rect x="6" y="6" width="147" height="147"/></clipPath><clipPath id="clip10"><rect x="241" y="266" width="146" height="146"/></clipPath><clipPath id="clip11"><rect x="241" y="266" width="146" height="146"/></clipPath><clipPath id="clip12"><rect x="241" y="266" width="146" height="146"/></clipPath><linearGradient x1="344.336" y1="389.938" x2="344.336" y2="335.107" gradientUnits="userSpaceOnUse" spreadMethod="pad" id="fill13"><stop offset="0" stop-color="#0078D4"/><stop offset="0.82" stop-color="#5EA0EF"/><stop offset="1" stop-color="#5EA0EF"/></linearGradient><linearGradient x1="344.336" y1="411.108" x2="344.336" y2="389.938" gradientUnits="userSpaceOnUse" spreadMethod="pad" id="fill14"><stop offset="0" stop-color="#CCCCCC"/><stop offset="0.15" stop-color="#CCCCCC"/><stop offset="1" stop-color="#707070"/></linearGradient><clipPath id="clip15"><rect x="5" y="7" width="154" height="152"/></clipPath><clipPath id="clip16"><rect x="0" y="0" width="160" height="160"/></clipPath><clipPath id="clip17"><rect x="6" y="6" width="147" height="147"/></clipPath><clipPath id="clip18"><rect x="6" y="6" width="147" height="147"/></clipPath><clipPath id="clip19"><rect x="6" y="6" width="147" height="147"/></clipPath><clipPath id="clip20"><rect x="825" y="266" width="146" height="146"/></clipPath><clipPath id="clip21"><rect x="825" y="266" width="146" height="146"/></clipPath><clipPath id="clip22"><rect x="825" y="266" width="146" height="146"/></clipPath><linearGradient x1="928.336" y1="389.938" x2="928.336" y2="335.107" gradientUnits="userSpaceOnUse" spreadMethod="pad" id="fill23"><stop offset="0" stop-color="#0078D4"/><stop offset="0.82" stop-color="#5EA0EF"/><stop offset="1" stop-color="#5EA0EF"/></linearGradient><linearGradient x1="928.336" y1="411.108" x2="928.336" y2="389.938" gradientUnits="userSpaceOnUse" spreadMethod="pad" id="fill24"><stop offset="0" stop-color="#CCCCCC"/><stop offset="0.15" stop-color="#CCCCCC"/><stop offset="1" stop-color="#707070"/></linearGradient><clipPath id="clip25"><rect x="5" y="-2" width="78" height="91"/></clipPath><clipPath id="clip26"><rect x="0" y="0" width="90" height="89"/></clipPath><clipPath id="clip27"><rect x="6" y="6" width="77" height="76"/></clipPath><clipPath id="clip28"><rect x="6" y="6" width="77" height="76"/></clipPath><clipPath id="clip29"><rect x="6" y="6" width="77" height="76"/></clipPath><clipPath id="clip30"><rect x="1060" y="293" width="76" height="75"/></clipPath><clipPath id="clip31"><rect x="1060" y="293" width="76" height="75"/></clipPath><clipPath id="clip32"><rect x="1060" y="293" width="76" height="75"/></clipPath><linearGradient x1="37.5417" y1="3.125" x2="37.5417" y2="71.875" gradientUnits="userSpaceOnUse" spreadMethod="pad" id="fill33"><stop offset="0" stop-color="#5EA0EF"/><stop offset="0.18" stop-color="#559CEC"/><stop offset="0.47" stop-color="#3C91E5"/><stop offset="0.84" stop-color="#1380DA"/><stop offset="1" stop-color="#0078D4"/></linearGradient><clipPath id="clip34"><rect x="5" y="-2" width="78" height="93"/></clipPath><clipPath id="clip35"><rect x="0" y="0" width="90" height="90"/></clipPath><clipPath id="clip36"><rect x="6" y="6" width="77" height="77"/></clipPath><clipPath id="clip37"><rect x="6" y="6" width="77" height="77"/></clipPath><clipPath id="clip38"><rect x="6" y="6" width="77" height="77"/></clipPath><clipPath id="clip39"><rect x="492" y="301" width="76" height="76"/></clipPath><clipPath id="clip40"><rect x="492" y="301" width="76" height="76"/></clipPath><clipPath id="clip41"><rect x="492" y="301" width="76" height="76"/></clipPath><linearGradient x1="530.042" y1="304.167" x2="530.042" y2="373.833" gradientUnits="userSpaceOnUse" spreadMethod="pad" id="fill42"><stop offset="0" stop-color="#5EA0EF"/><stop offset="0.18" stop-color="#559CEC"/><stop offset="0.47" stop-color="#3C91E5"/><stop offset="0.84" stop-color="#1380DA"/><stop offset="1" stop-color="#0078D4"/></linearGradient></defs><g clip-path="url(#clip4)"><rect x="0" y="0" width="1280" height="720" fill="#FFFFFF"/><g clip-path="url(#clip5)" filter="url(#fx0)" transform="translate(237 262)"><g clip-path="url(#clip6)"><g clip-path="url(#clip7)"><g clip-path="url(#clip8)"><g clip-path="url(#clip9)"><path d="M92.4818 14.0473C94.0048 14.0473 95.2395 15.282 95.2395 16.8051L95.2395 66.0395C95.2395 67.5626 94.0048 68.7973 92.4818 68.7973L15.994 68.7973C14.4709 68.7973 13.2362 67.5626 13.2362 66.0395L13.2362 16.8051C13.2362 15.282 14.4709 14.0473 15.994 14.0473Z" fill="#005BA1"/><path d="M67.9051 33.4329 67.9051 49.4118 54.2784 57.3606 54.2784 41.4629 67.9051 33.4329Z" fill="#50E6FF"/><path d="M67.9051 33.4329 54.2784 41.4629 40.5706 33.4329 54.2784 25.4029 67.9051 33.4329Z" fill="#C3F1FF"/><path d="M54.2784 41.4629 54.2784 57.3606 40.5706 49.4118 40.5706 33.4329 54.2784 41.4629Z" fill="#9CEBFF"/><path d="M124.683 45.4373C126.206 45.4373 127.441 46.672 127.441 48.1951L127.441 97.4295C127.441 98.9526 126.206 100.187 124.683 100.187L48.1951 100.187C46.672 100.187 45.4373 98.9526 45.4373 97.4295L45.4373 48.1951C45.4373 46.672 46.672 45.4373 48.1951 45.4373Z" fill="#0078D4"/><path d="M100.106 64.904 100.106 80.8018 86.4795 88.8318 86.4795 72.8529 100.106 64.904Z" fill="#50E6FF"/><path d="M100.106 64.904 86.4795 72.8529 72.7718 64.904 86.4795 56.874 100.106 64.904Z" fill="#C3F1FF"/><path d="M86.4795 72.8529 86.4795 88.8318 72.7718 80.8018 72.7718 64.904 86.4795 72.8529Z" fill="#9CEBFF"/><path d="M148.367 75.9351C149.89 75.9351 151.125 77.1698 151.125 78.6929L151.125 127.927C151.125 129.45 149.89 130.685 148.367 130.685L71.8795 130.685C70.3565 130.685 69.1218 129.45 69.1218 127.927L69.1218 78.6929C69.1218 77.1698 70.3565 75.9351 71.8795 75.9351Z" fill="#FF0000"/><path d="M123.791 95.4018 123.791 111.3 110.164 119.33 110.164 103.351 123.791 95.4018Z" fill="#50E6FF"/><path d="M123.791 95.4018 110.164 103.432 96.4562 95.4018 110.164 87.3718 123.791 95.4018Z" fill="#C3F1FF"/><path d="M110.164 103.432 110.164 119.33 96.4562 111.3 96.4562 95.4018 110.164 103.432Z" fill="#9CEBFF"/><path d="M96.4562 111.3 110.164 103.351 110.164 119.33 96.4562 111.3Z" fill="#C3F1FF"/><path d="M123.791 111.3 110.164 103.351 110.164 119.33 123.791 111.3Z" fill="#9CEBFF"/><path d="M126.548 147.313C118.437 146.015 118.437 140.175 118.437 131.091L102.215 131.091C102.215 140.5 102.215 146.34 94.104 147.313 91.8093 147.667 90.1003 149.616 90.0484 151.936L130.604 151.936C130.552 149.616 128.843 147.667 126.548 147.313Z" fill="#FF0000"/></g></g></g></g></g><g clip-path="url(#clip10)"><g clip-path="url(#clip11)"><g clip-path="url(#clip12)"><path d="M326.653 273.219C328.176 273.219 329.411 274.454 329.411 275.977L329.411 325.211C329.411 326.734 328.176 327.969 326.653 327.969L250.166 327.969C248.642 327.969 247.408 326.734 247.408 325.211L247.408 275.977C247.408 274.454 248.642 273.219 250.166 273.219Z" fill="#005BA1"/><path d="M302.077 292.604 302.077 308.583 288.45 316.532 288.45 300.634 302.077 292.604Z" fill="#50E6FF"/><path d="M302.077 292.604 288.45 300.634 274.742 292.604 288.45 284.574 302.077 292.604Z" fill="#C3F1FF"/><path d="M288.45 300.634 288.45 316.532 274.742 308.583 274.742 292.604 288.45 300.634Z" fill="#9CEBFF"/><path d="M358.854 304.609C360.378 304.609 361.612 305.844 361.612 307.367L361.612 356.601C361.612 358.124 360.378 359.359 358.854 359.359L282.367 359.359C280.844 359.359 279.609 358.124 279.609 356.601L279.609 307.367C279.609 305.844 280.844 304.609 282.367 304.609Z" fill="#0078D4"/><path d="M334.278 324.076 334.278 339.973 320.651 348.003 320.651 332.024 334.278 324.076Z" fill="#50E6FF"/><path d="M334.278 324.076 320.651 332.024 306.943 324.076 320.651 316.046 334.278 324.076Z" fill="#C3F1FF"/><path d="M320.651 332.024 320.651 348.003 306.943 339.973 306.943 324.076 320.651 332.024Z" fill="#9CEBFF"/><path d="M382.539 335.107C384.062 335.107 385.297 336.341 385.297 337.864L385.297 387.099C385.297 388.622 384.062 389.857 382.539 389.857L306.051 389.857C304.528 389.857 303.293 388.622 303.293 387.099L303.293 337.864C303.293 336.341 304.528 335.107 306.051 335.107Z" fill="url(#fill13)"/><path d="M357.962 354.573 357.962 370.471 344.336 378.501 344.336 362.522 357.962 354.573Z" fill="#50E6FF"/><path d="M357.962 354.573 344.336 362.603 330.628 354.573 344.336 346.543 357.962 354.573Z" fill="#C3F1FF"/><path d="M344.336 362.603 344.336 378.501 330.628 370.471 330.628 354.573 344.336 362.603Z" fill="#9CEBFF"/><path d="M330.628 370.471 344.336 362.522 344.336 378.501 330.628 370.471Z" fill="#C3F1FF"/><path d="M357.962 370.471 344.336 362.522 344.336 378.501 357.962 370.471Z" fill="#9CEBFF"/><path d="M360.72 406.484C352.609 405.187 352.609 399.347 352.609 390.262L336.387 390.262C336.387 399.671 336.387 405.511 328.276 406.484 325.981 406.838 324.272 408.787 324.22 411.108L364.776 411.108C364.724 408.787 363.015 406.838 360.72 406.484Z" fill="url(#fill14)"/></g></g></g><path d="M131.5 253.501C131.5 229.752 150.752 210.5 174.501 210.5L487.499 210.5C511.248 210.5 530.5 229.752 530.5 253.501L530.5 425.499C530.5 449.248 511.248 468.5 487.499 468.5L174.501 468.5C150.752 468.5 131.5 449.248 131.5 425.499Z" stroke="#000000" stroke-width="1.33333" stroke-miterlimit="8" stroke-dasharray="4 1.33333" fill="none" fill-rule="evenodd"/><g clip-path="url(#clip15)" filter="url(#fx1)" transform="translate(821 262)"><g clip-path="url(#clip16)"><g clip-path="url(#clip17)"><g clip-path="url(#clip18)"><g clip-path="url(#clip19)"><path d="M92.4818 14.0473C94.0048 14.0473 95.2395 15.282 95.2395 16.8051L95.2395 66.0395C95.2395 67.5626 94.0048 68.7973 92.4818 68.7973L15.994 68.7973C14.4709 68.7973 13.2362 67.5626 13.2362 66.0395L13.2362 16.8051C13.2362 15.282 14.4709 14.0473 15.994 14.0473Z" fill="#005BA1"/><path d="M67.9051 33.4329 67.9051 49.4118 54.2784 57.3606 54.2784 41.4629 67.9051 33.4329Z" fill="#50E6FF"/><path d="M67.9051 33.4329 54.2784 41.4629 40.5706 33.4329 54.2784 25.4029 67.9051 33.4329Z" fill="#C3F1FF"/><path d="M54.2784 41.4629 54.2784 57.3606 40.5706 49.4118 40.5706 33.4329 54.2784 41.4629Z" fill="#9CEBFF"/><path d="M124.683 45.4373C126.206 45.4373 127.441 46.672 127.441 48.1951L127.441 97.4295C127.441 98.9526 126.206 100.187 124.683 100.187L48.1951 100.187C46.672 100.187 45.4373 98.9526 45.4373 97.4295L45.4373 48.1951C45.4373 46.672 46.672 45.4373 48.1951 45.4373Z" fill="#0078D4"/><path d="M100.106 64.904 100.106 80.8018 86.4795 88.8318 86.4795 72.8529 100.106 64.904Z" fill="#50E6FF"/><path d="M100.106 64.904 86.4795 72.8529 72.7718 64.904 86.4795 56.874 100.106 64.904Z" fill="#C3F1FF"/><path d="M86.4795 72.8529 86.4795 88.8318 72.7718 80.8018 72.7718 64.904 86.4795 72.8529Z" fill="#9CEBFF"/><path d="M148.367 75.9351C149.89 75.9351 151.125 77.1698 151.125 78.6929L151.125 127.927C151.125 129.45 149.89 130.685 148.367 130.685L71.8795 130.685C70.3565 130.685 69.1218 129.45 69.1218 127.927L69.1218 78.6929C69.1218 77.1698 70.3565 75.9351 71.8795 75.9351Z" fill="#FF0000"/><path d="M123.791 95.4018 123.791 111.3 110.164 119.33 110.164 103.351 123.791 95.4018Z" fill="#50E6FF"/><path d="M123.791 95.4018 110.164 103.432 96.4562 95.4018 110.164 87.3718 123.791 95.4018Z" fill="#C3F1FF"/><path d="M110.164 103.432 110.164 119.33 96.4562 111.3 96.4562 95.4018 110.164 103.432Z" fill="#9CEBFF"/><path d="M96.4562 111.3 110.164 103.351 110.164 119.33 96.4562 111.3Z" fill="#C3F1FF"/><path d="M123.791 111.3 110.164 103.351 110.164 119.33 123.791 111.3Z" fill="#9CEBFF"/><path d="M126.548 147.313C118.437 146.015 118.437 140.175 118.437 131.091L102.215 131.091C102.215 140.5 102.215 146.34 94.104 147.313 91.8093 147.667 90.1003 149.616 90.0484 151.936L130.604 151.936C130.552 149.616 128.843 147.667 126.548 147.313Z" fill="#FF0000"/></g></g></g></g></g><g clip-path="url(#clip20)"><g clip-path="url(#clip21)"><g clip-path="url(#clip22)"><path d="M910.653 273.219C912.176 273.219 913.411 274.454 913.411 275.977L913.411 325.211C913.411 326.734 912.176 327.969 910.653 327.969L834.166 327.969C832.642 327.969 831.408 326.734 831.408 325.211L831.408 275.977C831.408 274.454 832.642 273.219 834.166 273.219Z" fill="#005BA1"/><path d="M886.077 292.604 886.077 308.583 872.45 316.532 872.45 300.634 886.077 292.604Z" fill="#50E6FF"/><path d="M886.077 292.604 872.45 300.634 858.742 292.604 872.45 284.574 886.077 292.604Z" fill="#C3F1FF"/><path d="M872.45 300.634 872.45 316.532 858.742 308.583 858.742 292.604 872.45 300.634Z" fill="#9CEBFF"/><path d="M942.854 304.609C944.378 304.609 945.612 305.844 945.612 307.367L945.612 356.601C945.612 358.124 944.378 359.359 942.854 359.359L866.367 359.359C864.844 359.359 863.609 358.124 863.609 356.601L863.609 307.367C863.609 305.844 864.844 304.609 866.367 304.609Z" fill="#0078D4"/><path d="M918.278 324.076 918.278 339.973 904.651 348.003 904.651 332.024 918.278 324.076Z" fill="#50E6FF"/><path d="M918.278 324.076 904.651 332.024 890.943 324.076 904.651 316.046 918.278 324.076Z" fill="#C3F1FF"/><path d="M904.651 332.024 904.651 348.003 890.943 339.973 890.943 324.076 904.651 332.024Z" fill="#9CEBFF"/><path d="M966.539 335.107C968.062 335.107 969.297 336.341 969.297 337.864L969.297 387.099C969.297 388.622 968.062 389.857 966.539 389.857L890.051 389.857C888.528 389.857 887.293 388.622 887.293 387.099L887.293 337.864C887.293 336.341 888.528 335.107 890.051 335.107Z" fill="url(#fill23)"/><path d="M941.962 354.573 941.962 370.471 928.336 378.501 928.336 362.522 941.962 354.573Z" fill="#50E6FF"/><path d="M941.962 354.573 928.336 362.603 914.628 354.573 928.336 346.543 941.962 354.573Z" fill="#C3F1FF"/><path d="M928.336 362.603 928.336 378.501 914.628 370.471 914.628 354.573 928.336 362.603Z" fill="#9CEBFF"/><path d="M914.628 370.471 928.336 362.522 928.336 378.501 914.628 370.471Z" fill="#C3F1FF"/><path d="M941.962 370.471 928.336 362.522 928.336 378.501 941.962 370.471Z" fill="#9CEBFF"/><path d="M944.72 406.484C936.609 405.187 936.609 399.347 936.609 390.262L920.387 390.262C920.387 399.671 920.387 405.511 912.276 406.484 909.981 406.838 908.272 408.787 908.22 411.108L948.776 411.108C948.724 408.787 947.015 406.838 944.72 406.484Z" fill="url(#fill24)"/></g></g></g><path d="M699.5 253.501C699.5 229.752 718.752 210.5 742.501 210.5L1055.5 210.5C1079.25 210.5 1098.5 229.752 1098.5 253.501L1098.5 425.499C1098.5 449.248 1079.25 468.5 1055.5 468.5L742.501 468.5C718.752 468.5 699.5 449.248 699.5 425.499Z" stroke="#000000" stroke-width="1.33333" stroke-miterlimit="8" stroke-dasharray="4 1.33333" fill="none" fill-rule="evenodd"/><g clip-path="url(#clip25)" filter="url(#fx2)" transform="translate(1056 289)"><g clip-path="url(#clip26)"><g clip-path="url(#clip27)"><g clip-path="url(#clip28)"><g clip-path="url(#clip29)"><path d="M68.1667 35C68.1667 55.1667 43.7917 71.4167 38.5 74.7083 37.8862 75.0837 37.1138 75.0837 36.5 74.7083 31.2083 71.4167 6.83333 55.1667 6.83333 35L6.83333 10.75C6.83308 9.7075 7.66608 8.856 8.70833 8.83333 27.6667 8.33333 23.2917 0 37.5 0 51.7083 0 47.3333 8.33333 66.2917 8.83333 67.3337 8.856 68.1671 9.7075 68.1667 10.75Z" fill="#0078D4" transform="matrix(1.01333 0 0 1 6.82837 6.82843)"/><path d="M65.625 35.2083C65.625 53.7083 43.2917 68.5417 38.4167 71.625 37.8518 71.9613 37.1482 71.9613 36.5833 71.625 31.7083 68.625 9.375 53.7083 9.375 35.2083L9.375 12.9583C9.37475 12.0079 10.1331 11.231 11.0833 11.2083 28.4583 10.75 24.4583 3.125 37.5 3.125 50.5417 3.125 46.5417 10.75 63.9167 11.2083 64.8667 11.231 65.6254 12.0079 65.625 12.9583Z" fill="#6BB9F2" transform="matrix(1.01333 0 0 1 6.82837 6.82843)"/><path d="M37.5 37.5 37.5 3.125C50.5417 3.125 46.5417 10.75 63.9167 11.2083 64.8733 11.2529 65.6258 12.0421 65.625 13L65.625 35.25C65.6662 35.9994 65.6662 36.7506 65.625 37.5ZM37.5 37.5 9.5 37.5C11.1667 54.9167 31.9167 68.75 36.5833 71.625 36.809 71.7688 37.0666 71.8546 37.3333 71.875L37.5 71.875Z" fill="#FF0000" transform="matrix(1.01333 0 0 1 6.82837 6.82843)"/><path d="M11.0833 11.2083C28.4583 10.75 24.4583 3.125 37.5 3.125L37.5 37.5 9.5 37.5C9.45854 36.7506 9.45854 35.9994 9.5 35.25L9.5 13C9.49379 12.0865 10.176 11.3145 11.0833 11.2083Z" fill="#50E6FF" transform="matrix(1.01333 0 0 1 6.82837 6.82843)"/><path d="M65.5 37.5 37.5 37.5 37.5 71.875 37.5 71.875C37.7668 71.8546 38.0244 71.7688 38.25 71.625 43.0833 68.75 63.8333 54.9167 65.5 37.5Z" fill="#50E6FF" transform="matrix(1.01333 0 0 1 6.82837 6.82843)"/></g></g></g></g></g><g clip-path="url(#clip30)"><g clip-path="url(#clip31)"><g clip-path="url(#clip32)"><path d="M68.1667 35C68.1667 55.1667 43.7917 71.4167 38.5 74.7083 37.8862 75.0837 37.1138 75.0837 36.5 74.7083 31.2083 71.4167 6.83333 55.1667 6.83333 35L6.83333 10.75C6.83308 9.7075 7.66608 8.856 8.70833 8.83333 27.6667 8.33333 23.2917 0 37.5 0 51.7083 0 47.3333 8.33333 66.2917 8.83333 67.3337 8.856 68.1671 9.7075 68.1667 10.75Z" fill="#0078D4" transform="matrix(1.01333 0 0 1 1060 293)"/><path d="M65.625 35.2083C65.625 53.7083 43.2917 68.5417 38.4167 71.625 37.8518 71.9613 37.1482 71.9613 36.5833 71.625 31.7083 68.625 9.375 53.7083 9.375 35.2083L9.375 12.9583C9.37475 12.0079 10.1331 11.231 11.0833 11.2083 28.4583 10.75 24.4583 3.125 37.5 3.125 50.5417 3.125 46.5417 10.75 63.9167 11.2083 64.8667 11.231 65.6254 12.0079 65.625 12.9583Z" fill="#6BB9F2" transform="matrix(1.01333 0 0 1 1060 293)"/><path d="M37.5 37.5 37.5 3.125C50.5417 3.125 46.5417 10.75 63.9167 11.2083 64.8733 11.2529 65.6258 12.0421 65.625 13L65.625 35.25C65.6662 35.9994 65.6662 36.7506 65.625 37.5ZM37.5 37.5 9.5 37.5C11.1667 54.9167 31.9167 68.75 36.5833 71.625 36.809 71.7688 37.0666 71.8546 37.3333 71.875L37.5 71.875Z" fill="url(#fill33)" transform="matrix(1.01333 0 0 1 1060 293)"/><path d="M11.0833 11.2083C28.4583 10.75 24.4583 3.125 37.5 3.125L37.5 37.5 9.5 37.5C9.45854 36.7506 9.45854 35.9994 9.5 35.25L9.5 13C9.49379 12.0865 10.176 11.3145 11.0833 11.2083Z" fill="#50E6FF" transform="matrix(1.01333 0 0 1 1060 293)"/><path d="M65.5 37.5 37.5 37.5 37.5 71.875 37.5 71.875C37.7668 71.8546 38.0244 71.7688 38.25 71.625 43.0833 68.75 63.8333 54.9167 65.5 37.5Z" fill="#50E6FF" transform="matrix(1.01333 0 0 1 1060 293)"/></g></g></g><text fill="#000000" fill-opacity="0.74902" font-family="Calibri,Calibri_MSFontService,sans-serif" font-weight="400" font-size="16" transform="translate(272.198 201)">System NodePool Subnet<tspan font-size="16" x="551.976" y="0">User NodePool Subnet</tspan></text><path d="M1.59767e-07-0.666667 431.418-0.666563 431.418 0.66677-1.59767e-07 0.666667ZM430.084-3.9999 438.084 0.000104987 430.084 4.0001Z" fill="#C00000" transform="matrix(-1 0 0 1 825.584 339.5)"/><g clip-path="url(#clip34)" filter="url(#fx3)" transform="translate(488 297)"><g clip-path="url(#clip35)"><g clip-path="url(#clip36)"><g clip-path="url(#clip37)"><g clip-path="url(#clip38)"><path d="M75.904 42.2951C75.904 62.7307 51.204 79.1973 45.8418 82.5329 45.2197 82.9133 44.4371 82.9133 43.8151 82.5329 38.4529 79.1973 13.7529 62.7307 13.7529 42.2951L13.7529 17.7218C13.7526 16.6654 14.5967 15.8025 15.6529 15.7795 34.864 15.2729 30.4307 6.82843 44.8284 6.82843 59.2262 6.82843 54.7929 15.2729 74.004 15.7795 75.06 15.8025 75.9044 16.6654 75.904 17.7218Z" fill="#0078D4"/><path d="M73.3284 42.5062C73.3284 61.2529 50.6973 76.284 45.7573 79.4084 45.185 79.7492 44.4719 79.7492 43.8995 79.4084 38.9595 76.3684 16.3284 61.2529 16.3284 42.5062L16.3284 19.9595C16.3282 18.9964 17.0967 18.2091 18.0595 18.1862 35.6662 17.7218 31.6129 9.9951 44.8284 9.9951 58.044 9.9951 53.9907 17.7218 71.5973 18.1862 72.56 18.2091 73.3289 18.9964 73.3284 19.9595Z" fill="#6BB9F2"/><path d="M44.8284 44.8284 44.8284 9.9951C58.044 9.9951 53.9907 17.7218 71.5973 18.1862 72.5667 18.2313 73.3293 19.0311 73.3284 20.0018L73.3284 42.5484C73.3702 43.3078 73.3702 44.069 73.3284 44.8284ZM44.8284 44.8284 16.4551 44.8284C18.144 62.4773 39.1707 76.4951 43.8995 79.4084 44.1282 79.5541 44.3892 79.6411 44.6595 79.6618L44.8284 79.6618Z" fill="#FF0000"/><path d="M18.0595 18.1862C35.6662 17.7218 31.6129 9.9951 44.8284 9.9951L44.8284 44.8284 16.4551 44.8284C16.4131 44.069 16.4131 43.3078 16.4551 42.5484L16.4551 20.0018C16.4488 19.076 17.1401 18.2938 18.0595 18.1862Z" fill="#50E6FF"/><path d="M73.2018 44.8284 44.8284 44.8284 44.8284 79.6618 44.8284 79.6618C45.0987 79.6411 45.3598 79.5541 45.5884 79.4084 50.4862 76.4951 71.5129 62.4773 73.2018 44.8284Z" fill="#50E6FF"/></g></g></g></g></g><g clip-path="url(#clip39)"><g clip-path="url(#clip40)"><g clip-path="url(#clip41)"><path d="M561.076 336.467C561.076 356.902 536.376 373.369 531.013 376.704 530.391 377.085 529.609 377.085 528.987 376.704 523.624 373.369 498.924 356.902 498.924 336.467L498.924 311.893C498.924 310.837 499.768 309.974 500.824 309.951 520.036 309.444 515.602 301 530 301 544.398 301 539.964 309.444 559.176 309.951 560.232 309.974 561.076 310.837 561.076 311.893Z" fill="#0078D4"/><path d="M558.5 336.678C558.5 355.424 535.869 370.456 530.929 373.58 530.357 373.921 529.643 373.921 529.071 373.58 524.131 370.54 501.5 355.424 501.5 336.678L501.5 314.131C501.5 313.168 502.268 312.381 503.231 312.358 520.838 311.893 516.784 304.167 530 304.167 543.216 304.167 539.162 311.893 556.769 312.358 557.732 312.381 558.5 313.168 558.5 314.131Z" fill="#6BB9F2"/><path d="M530 339 530 304.167C543.216 304.167 539.162 311.893 556.769 312.358 557.738 312.403 558.501 313.203 558.5 314.173L558.5 336.72C558.542 337.479 558.542 338.241 558.5 339ZM530 339 501.627 339C503.316 356.649 524.342 370.667 529.071 373.58 529.3 373.726 529.561 373.813 529.831 373.833L530 373.833Z" fill="url(#fill42)"/><path d="M503.231 312.358C520.838 311.893 516.784 304.167 530 304.167L530 339 501.627 339C501.585 338.241 501.585 337.479 501.627 336.72L501.627 314.173C501.62 313.248 502.312 312.465 503.231 312.358Z" fill="#50E6FF"/><path d="M558.373 339 530 339 530 373.833 530 373.833C530.27 373.813 530.531 373.726 530.76 373.58 535.658 370.667 556.684 356.649 558.373 339Z" fill="#50E6FF"/></g></g></g><text fill="#000000" fill-opacity="0.74902" font-family="Calibri,Calibri_MSFontService,sans-serif" font-weight="400" font-size="16" transform="translate(543.535 382)">Blocked as System <tspan font-size="16" x="0" y="19">NodePool’s</tspan><tspan font-size="16" x="76.8733" y="19">NSG, does </tspan><tspan font-size="16" x="0" y="38">not allow </tspan><tspan font-weight="700" font-size="16" x="64.44" y="38">Inbound</tspan><tspan font-size="16" x="0" y="58">Access for UDP Port 53</tspan></text><path d="M591.151 326.894 594.425 324.045 605 336.195 615.575 324.045 618.849 326.894 607.877 339.5 618.849 352.106 615.575 354.955 605 342.805 594.425 354.955 591.151 352.106 602.123 339.5Z" stroke="#C00000" stroke-width="1.33333" stroke-linecap="round" stroke-miterlimit="8" fill="#C00000" fill-rule="evenodd"/><text fill="#000000" fill-opacity="0.74902" font-family="Calibri,Calibri_MSFontService,sans-serif" font-style="italic" font-weight="700" font-size="16" transform="translate(713.259 334)">DNS Request<tspan font-weight="400" font-size="13" x="-3.34296" y="17">(to CoreDNS pods)</tspan></text></g></svg>