<svg style="background-color: white" width="1280" height="720" xmlns="http://www.w3.org/2000/svg" xmlns:xlink="http://www.w3.org/1999/xlink" overflow="hidden"><defs><filter id="fx0" x="-10%" y="-10%" width="120%" height="120%" filterUnits="userSpaceOnUse" primitiveUnits="userSpaceOnUse"><feComponentTransfer color-interpolation-filters="sRGB"><feFuncR type="discrete" tableValues="0 0"/><feFuncG type="discrete" tableValues="0 0"/><feFuncB type="discrete" tableValues="0 0"/><feFuncA type="linear" slope="0.4" intercept="0"/></feComponentTransfer><feGaussianBlur stdDeviation="1.77778 1.77778"/></filter><filter id="fx1" x="-10%" y="-10%" width="120%" height="120%" filterUnits="userSpaceOnUse" primitiveUnits="userSpaceOnUse"><feComponentTransfer color-interpolation-filters="sRGB"><feFuncR type="discrete" tableValues="0 0"/><feFuncG type="discrete" tableValues="0 0"/><feFuncB type="discrete" tableValues="0 0"/><feFuncA type="linear" slope="0.4" intercept="0"/></feComponentTransfer><feGaussianBlur stdDeviation="1.77778 1.77778"/></filter><filter id="fx2" x="-10%" y="-10%" width="120%" height="120%" filterUnits="userSpaceOnUse" primitiveUnits="userSpaceOnUse"><feComponentTransfer color-interpolation-filters="sRGB"><feFuncR type="discrete" tableValues="0 0"/><feFuncG type="discrete" tableValues="0 0"/><feFuncB type="discrete" tableValues="0 0"/><feFuncA type="linear" slope="0.4" intercept="0"/></feComponentTransfer><feGaussianBlur stdDeviation="1.77778 1.77778"/></filter><filter id="fx3" x="-10%" y="-10%" width="120%" height="120%" filterUnits="userSpaceOnUse" primitiveUnits="userSpaceOnUse"><feComponentTransfer color-interpolation-filters="sRGB"><feFuncR type="discrete" tableValues="0 0"/><feFuncG type="discrete" tableValues="0 0"/><feFuncB type="discrete" tableValues="0 0"/><feFuncA type="linear" slope="0.4" intercept="0"/></feComponentTransfer><feGaussianBlur stdDeviation="1.77778 1.77778"/></filter><clipPath id="clip4"><rect x="0" y="0" width="1280" height="720"/></clipPath><clipPath id="clip5"><rect x="5" y="7" width="154" height="152"/></clipPath><clipPath id="clip6"><rect x="0" y="0" width="160" height="160"/></clipPath><clipPath id="clip7"><rect x="6" y="6" width="147" height="147"/></clipPath><clipPath id="clip8"><rect x="6" y="6" width="147" height="147"/></clipPath><clipPath id="clip9"><rect x="6" y="6" width="147" height="147"/></clipPath><clipPath id="clip10"><rect x="245" y="270" width="146" height="146"/></clipPath><clipPath id="clip11"><rect x="245" y="270" width="146" height="146"/></clipPath><clipPath id="clip12"><rect x="245" y="270" width="146" height="146"/></clipPath><linearGradient x1="348.336" y1="393.938" x2="348.336" y2="339.107" gradientUnits="userSpaceOnUse" spreadMethod="pad" id="fill13"><stop offset="0" stop-color="#0078D4"/><stop offset="0.82" stop-color="#5EA0EF"/><stop offset="1" stop-color="#5EA0EF"/></linearGradient><linearGradient x1="348.336" y1="415.108" x2="348.336" y2="393.938" gradientUnits="userSpaceOnUse" spreadMethod="pad" id="fill14"><stop offset="0" stop-color="#CCCCCC"/><stop offset="0.15" stop-color="#CCCCCC"/><stop offset="1" stop-color="#707070"/></linearGradient><clipPath id="clip15"><rect x="5" y="7" width="154" height="152"/></clipPath><clipPath id="clip16"><rect x="0" y="0" width="160" height="160"/></clipPath><clipPath id="clip17"><rect x="6" y="6" width="147" height="147"/></clipPath><clipPath id="clip18"><rect x="6" y="6" width="147" height="147"/></clipPath><clipPath id="clip19"><rect x="6" y="6" width="147" height="147"/></clipPath><clipPath id="clip20"><rect x="829" y="270" width="146" height="146"/></clipPath><clipPath id="clip21"><rect x="829" y="270" width="146" height="146"/></clipPath><clipPath id="clip22"><rect x="829" y="270" width="146" height="146"/></clipPath><linearGradient x1="932.336" y1="393.938" x2="932.336" y2="339.107" gradientUnits="userSpaceOnUse" spreadMethod="pad" id="fill23"><stop offset="0" stop-color="#0078D4"/><stop offset="0.82" stop-color="#5EA0EF"/><stop offset="1" stop-color="#5EA0EF"/></linearGradient><linearGradient x1="932.336" y1="415.108" x2="932.336" y2="393.938" gradientUnits="userSpaceOnUse" spreadMethod="pad" id="fill24"><stop offset="0" stop-color="#CCCCCC"/><stop offset="0.15" stop-color="#CCCCCC"/><stop offset="1" stop-color="#707070"/></linearGradient><clipPath id="clip25"><rect x="5" y="-2" width="78" height="91"/></clipPath><clipPath id="clip26"><rect x="0" y="0" width="90" height="89"/></clipPath><clipPath id="clip27"><rect x="6" y="6" width="77" height="76"/></clipPath><clipPath id="clip28"><rect x="6" y="6" width="77" height="76"/></clipPath><clipPath id="clip29"><rect x="6" y="6" width="77" height="76"/></clipPath><clipPath id="clip30"><rect x="97" y="305" width="76" height="75"/></clipPath><clipPath id="clip31"><rect x="97" y="305" width="76" height="75"/></clipPath><clipPath id="clip32"><rect x="97" y="305" width="76" height="75"/></clipPath><linearGradient x1="37.5417" y1="3.125" x2="37.5417" y2="71.875" gradientUnits="userSpaceOnUse" spreadMethod="pad" id="fill33"><stop offset="0" stop-color="#5EA0EF"/><stop offset="0.18" stop-color="#559CEC"/><stop offset="0.47" stop-color="#3C91E5"/><stop offset="0.84" stop-color="#1380DA"/><stop offset="1" stop-color="#0078D4"/></linearGradient><clipPath id="clip34"><rect x="5" y="-2" width="78" height="91"/></clipPath><clipPath id="clip35"><rect x="0" y="0" width="89" height="89"/></clipPath><clipPath id="clip36"><rect x="6" y="6" width="76" height="76"/></clipPath><clipPath id="clip37"><rect x="6" y="6" width="76" height="76"/></clipPath><clipPath id="clip38"><rect x="6" y="6" width="76" height="76"/></clipPath><clipPath id="clip39"><rect x="665" y="305" width="75" height="75"/></clipPath><clipPath id="clip40"><rect x="665" y="305" width="75" height="75"/></clipPath><clipPath id="clip41"><rect x="665" y="305" width="75" height="75"/></clipPath><linearGradient x1="702.542" y1="308.125" x2="702.542" y2="376.875" gradientUnits="userSpaceOnUse" spreadMethod="pad" id="fill42"><stop offset="0" stop-color="#5EA0EF"/><stop offset="0.18" stop-color="#559CEC"/><stop offset="0.47" stop-color="#3C91E5"/><stop offset="0.84" stop-color="#1380DA"/><stop offset="1" stop-color="#0078D4"/></linearGradient></defs><g clip-path="url(#clip4)"><rect x="0" y="0" width="1280" height="720" fill="#FFFFFF"/><g clip-path="url(#clip5)" filter="url(#fx0)" transform="translate(241 266)"><g clip-path="url(#clip6)"><g clip-path="url(#clip7)"><g clip-path="url(#clip8)"><g clip-path="url(#clip9)"><path d="M92.4818 14.0473C94.0048 14.0473 95.2395 15.282 95.2395 16.8051L95.2395 66.0395C95.2395 67.5626 94.0048 68.7973 92.4818 68.7973L15.994 68.7973C14.4709 68.7973 13.2362 67.5626 13.2362 66.0395L13.2362 16.8051C13.2362 15.282 14.4709 14.0473 15.994 14.0473Z" fill="#005BA1"/><path d="M67.9051 33.4329 67.9051 49.4118 54.2784 57.3606 54.2784 41.4629 67.9051 33.4329Z" fill="#50E6FF"/><path d="M67.9051 33.4329 54.2784 41.4629 40.5706 33.4329 54.2784 25.4029 67.9051 33.4329Z" fill="#C3F1FF"/><path d="M54.2784 41.4629 54.2784 57.3606 40.5706 49.4118 40.5706 33.4329 54.2784 41.4629Z" fill="#9CEBFF"/><path d="M124.683 45.4373C126.206 45.4373 127.441 46.672 127.441 48.1951L127.441 97.4295C127.441 98.9526 126.206 100.187 124.683 100.187L48.1951 100.187C46.672 100.187 45.4373 98.9526 45.4373 97.4295L45.4373 48.1951C45.4373 46.672 46.672 45.4373 48.1951 45.4373Z" fill="#0078D4"/><path d="M100.106 64.904 100.106 80.8018 86.4795 88.8318 86.4795 72.8529 100.106 64.904Z" fill="#50E6FF"/><path d="M100.106 64.904 86.4795 72.8529 72.7718 64.904 86.4795 56.874 100.106 64.904Z" fill="#C3F1FF"/><path d="M86.4795 72.8529 86.4795 88.8318 72.7718 80.8018 72.7718 64.904 86.4795 72.8529Z" fill="#9CEBFF"/><path d="M148.367 75.9351C149.89 75.9351 151.125 77.1698 151.125 78.6929L151.125 127.927C151.125 129.45 149.89 130.685 148.367 130.685L71.8795 130.685C70.3565 130.685 69.1218 129.45 69.1218 127.927L69.1218 78.6929C69.1218 77.1698 70.3565 75.9351 71.8795 75.9351Z" fill="#FF0000"/><path d="M123.791 95.4018 123.791 111.3 110.164 119.33 110.164 103.351 123.791 95.4018Z" fill="#50E6FF"/><path d="M123.791 95.4018 110.164 103.432 96.4562 95.4018 110.164 87.3718 123.791 95.4018Z" fill="#C3F1FF"/><path d="M110.164 103.432 110.164 119.33 96.4562 111.3 96.4562 95.4018 110.164 103.432Z" fill="#9CEBFF"/><path d="M96.4562 111.3 110.164 103.351 110.164 119.33 96.4562 111.3Z" fill="#C3F1FF"/><path d="M123.791 111.3 110.164 103.351 110.164 119.33 123.791 111.3Z" fill="#9CEBFF"/><path d="M126.548 147.313C118.437 146.015 118.437 140.175 118.437 131.091L102.215 131.091C102.215 140.5 102.215 146.34 94.104 147.313 91.8093 147.667 90.1003 149.616 90.0484 151.936L130.604 151.936C130.552 149.616 128.843 147.667 126.548 147.313Z" fill="#FF0000"/></g></g></g></g></g><g clip-path="url(#clip10)"><g clip-path="url(#clip11)"><g clip-path="url(#clip12)"><path d="M330.653 277.219C332.176 277.219 333.411 278.454 333.411 279.977L333.411 329.211C333.411 330.734 332.176 331.969 330.653 331.969L254.166 331.969C252.642 331.969 251.408 330.734 251.408 329.211L251.408 279.977C251.408 278.454 252.642 277.219 254.166 277.219Z" fill="#005BA1"/><path d="M306.077 296.604 306.077 312.583 292.45 320.532 292.45 304.634 306.077 296.604Z" fill="#50E6FF"/><path d="M306.077 296.604 292.45 304.634 278.742 296.604 292.45 288.574 306.077 296.604Z" fill="#C3F1FF"/><path d="M292.45 304.634 292.45 320.532 278.742 312.583 278.742 296.604 292.45 304.634Z" fill="#9CEBFF"/><path d="M362.854 308.609C364.378 308.609 365.612 309.844 365.612 311.367L365.612 360.601C365.612 362.124 364.378 363.359 362.854 363.359L286.367 363.359C284.844 363.359 283.609 362.124 283.609 360.601L283.609 311.367C283.609 309.844 284.844 308.609 286.367 308.609Z" fill="#0078D4"/><path d="M338.278 328.076 338.278 343.973 324.651 352.003 324.651 336.024 338.278 328.076Z" fill="#50E6FF"/><path d="M338.278 328.076 324.651 336.024 310.943 328.076 324.651 320.046 338.278 328.076Z" fill="#C3F1FF"/><path d="M324.651 336.024 324.651 352.003 310.943 343.973 310.943 328.076 324.651 336.024Z" fill="#9CEBFF"/><path d="M386.539 339.107C388.062 339.107 389.297 340.341 389.297 341.864L389.297 391.099C389.297 392.622 388.062 393.857 386.539 393.857L310.051 393.857C308.528 393.857 307.293 392.622 307.293 391.099L307.293 341.864C307.293 340.341 308.528 339.107 310.051 339.107Z" fill="url(#fill13)"/><path d="M361.962 358.573 361.962 374.471 348.336 382.501 348.336 366.522 361.962 358.573Z" fill="#50E6FF"/><path d="M361.962 358.573 348.336 366.603 334.628 358.573 348.336 350.543 361.962 358.573Z" fill="#C3F1FF"/><path d="M348.336 366.603 348.336 382.501 334.628 374.471 334.628 358.573 348.336 366.603Z" fill="#9CEBFF"/><path d="M334.628 374.471 348.336 366.522 348.336 382.501 334.628 374.471Z" fill="#C3F1FF"/><path d="M361.962 374.471 348.336 366.522 348.336 382.501 361.962 374.471Z" fill="#9CEBFF"/><path d="M364.72 410.484C356.609 409.187 356.609 403.347 356.609 394.262L340.387 394.262C340.387 403.671 340.387 409.511 332.276 410.484 329.981 410.838 328.272 412.787 328.22 415.108L368.776 415.108C368.724 412.787 367.015 410.838 364.72 410.484Z" fill="url(#fill14)"/></g></g></g><path d="M134.5 257.334C134.5 233.678 153.677 214.5 177.334 214.5L490.666 214.5C514.323 214.5 533.5 233.678 533.5 257.334L533.5 428.666C533.5 452.323 514.323 471.5 490.666 471.5L177.334 471.5C153.677 471.5 134.5 452.323 134.5 428.666Z" stroke="#000000" stroke-width="1.33333" stroke-miterlimit="8" stroke-dasharray="4 1.33333" fill="none" fill-rule="evenodd"/><g clip-path="url(#clip15)" filter="url(#fx1)" transform="translate(825 266)"><g clip-path="url(#clip16)"><g clip-path="url(#clip17)"><g clip-path="url(#clip18)"><g clip-path="url(#clip19)"><path d="M92.4818 14.0473C94.0048 14.0473 95.2395 15.282 95.2395 16.8051L95.2395 66.0395C95.2395 67.5626 94.0048 68.7973 92.4818 68.7973L15.994 68.7973C14.4709 68.7973 13.2362 67.5626 13.2362 66.0395L13.2362 16.8051C13.2362 15.282 14.4709 14.0473 15.994 14.0473Z" fill="#005BA1"/><path d="M67.9051 33.4329 67.9051 49.4118 54.2784 57.3606 54.2784 41.4629 67.9051 33.4329Z" fill="#50E6FF"/><path d="M67.9051 33.4329 54.2784 41.4629 40.5706 33.4329 54.2784 25.4029 67.9051 33.4329Z" fill="#C3F1FF"/><path d="M54.2784 41.4629 54.2784 57.3606 40.5706 49.4118 40.5706 33.4329 54.2784 41.4629Z" fill="#9CEBFF"/><path d="M124.683 45.4373C126.206 45.4373 127.441 46.672 127.441 48.1951L127.441 97.4295C127.441 98.9526 126.206 100.187 124.683 100.187L48.1951 100.187C46.672 100.187 45.4373 98.9526 45.4373 97.4295L45.4373 48.1951C45.4373 46.672 46.672 45.4373 48.1951 45.4373Z" fill="#0078D4"/><path d="M100.106 64.904 100.106 80.8018 86.4795 88.8318 86.4795 72.8529 100.106 64.904Z" fill="#50E6FF"/><path d="M100.106 64.904 86.4795 72.8529 72.7718 64.904 86.4795 56.874 100.106 64.904Z" fill="#C3F1FF"/><path d="M86.4795 72.8529 86.4795 88.8318 72.7718 80.8018 72.7718 64.904 86.4795 72.8529Z" fill="#9CEBFF"/><path d="M148.367 75.9351C149.89 75.9351 151.125 77.1698 151.125 78.6929L151.125 127.927C151.125 129.45 149.89 130.685 148.367 130.685L71.8795 130.685C70.3565 130.685 69.1218 129.45 69.1218 127.927L69.1218 78.6929C69.1218 77.1698 70.3565 75.9351 71.8795 75.9351Z" fill="#FF0000"/><path d="M123.791 95.4018 123.791 111.3 110.164 119.33 110.164 103.351 123.791 95.4018Z" fill="#50E6FF"/><path d="M123.791 95.4018 110.164 103.432 96.4562 95.4018 110.164 87.3718 123.791 95.4018Z" fill="#C3F1FF"/><path d="M110.164 103.432 110.164 119.33 96.4562 111.3 96.4562 95.4018 110.164 103.432Z" fill="#9CEBFF"/><path d="M96.4562 111.3 110.164 103.351 110.164 119.33 96.4562 111.3Z" fill="#C3F1FF"/><path d="M123.791 111.3 110.164 103.351 110.164 119.33 123.791 111.3Z" fill="#9CEBFF"/><path d="M126.548 147.313C118.437 146.015 118.437 140.175 118.437 131.091L102.215 131.091C102.215 140.5 102.215 146.34 94.104 147.313 91.8093 147.667 90.1003 149.616 90.0484 151.936L130.604 151.936C130.552 149.616 128.843 147.667 126.548 147.313Z" fill="#FF0000"/></g></g></g></g></g><g clip-path="url(#clip20)"><g clip-path="url(#clip21)"><g clip-path="url(#clip22)"><path d="M914.653 277.219C916.176 277.219 917.411 278.454 917.411 279.977L917.411 329.211C917.411 330.734 916.176 331.969 914.653 331.969L838.166 331.969C836.642 331.969 835.408 330.734 835.408 329.211L835.408 279.977C835.408 278.454 836.642 277.219 838.166 277.219Z" fill="#005BA1"/><path d="M890.077 296.604 890.077 312.583 876.45 320.532 876.45 304.634 890.077 296.604Z" fill="#50E6FF"/><path d="M890.077 296.604 876.45 304.634 862.742 296.604 876.45 288.574 890.077 296.604Z" fill="#C3F1FF"/><path d="M876.45 304.634 876.45 320.532 862.742 312.583 862.742 296.604 876.45 304.634Z" fill="#9CEBFF"/><path d="M946.854 308.609C948.378 308.609 949.612 309.844 949.612 311.367L949.612 360.601C949.612 362.124 948.378 363.359 946.854 363.359L870.367 363.359C868.844 363.359 867.609 362.124 867.609 360.601L867.609 311.367C867.609 309.844 868.844 308.609 870.367 308.609Z" fill="#0078D4"/><path d="M922.278 328.076 922.278 343.973 908.651 352.003 908.651 336.024 922.278 328.076Z" fill="#50E6FF"/><path d="M922.278 328.076 908.651 336.024 894.943 328.076 908.651 320.046 922.278 328.076Z" fill="#C3F1FF"/><path d="M908.651 336.024 908.651 352.003 894.943 343.973 894.943 328.076 908.651 336.024Z" fill="#9CEBFF"/><path d="M970.539 339.107C972.062 339.107 973.297 340.341 973.297 341.864L973.297 391.099C973.297 392.622 972.062 393.857 970.539 393.857L894.051 393.857C892.528 393.857 891.293 392.622 891.293 391.099L891.293 341.864C891.293 340.341 892.528 339.107 894.051 339.107Z" fill="url(#fill23)"/><path d="M945.962 358.573 945.962 374.471 932.336 382.501 932.336 366.522 945.962 358.573Z" fill="#50E6FF"/><path d="M945.962 358.573 932.336 366.603 918.628 358.573 932.336 350.543 945.962 358.573Z" fill="#C3F1FF"/><path d="M932.336 366.603 932.336 382.501 918.628 374.471 918.628 358.573 932.336 366.603Z" fill="#9CEBFF"/><path d="M918.628 374.471 932.336 366.522 932.336 382.501 918.628 374.471Z" fill="#C3F1FF"/><path d="M945.962 374.471 932.336 366.522 932.336 382.501 945.962 374.471Z" fill="#9CEBFF"/><path d="M948.72 410.484C940.609 409.187 940.609 403.347 940.609 394.262L924.387 394.262C924.387 403.671 924.387 409.511 916.276 410.484 913.981 410.838 912.272 412.787 912.22 415.108L952.776 415.108C952.724 412.787 951.015 410.838 948.72 410.484Z" fill="url(#fill24)"/></g></g></g><path d="M702.5 257.334C702.5 233.678 721.677 214.5 745.334 214.5L1058.67 214.5C1082.32 214.5 1101.5 233.678 1101.5 257.334L1101.5 428.666C1101.5 452.323 1082.32 471.5 1058.67 471.5L745.334 471.5C721.677 471.5 702.5 452.323 702.5 428.666Z" stroke="#000000" stroke-width="1.33333" stroke-miterlimit="8" stroke-dasharray="4 1.33333" fill="none" fill-rule="evenodd"/><g clip-path="url(#clip25)" filter="url(#fx2)" transform="translate(93 301)"><g clip-path="url(#clip26)"><g clip-path="url(#clip27)"><g clip-path="url(#clip28)"><g clip-path="url(#clip29)"><path d="M68.1667 35C68.1667 55.1667 43.7917 71.4167 38.5 74.7083 37.8862 75.0837 37.1138 75.0837 36.5 74.7083 31.2083 71.4167 6.83333 55.1667 6.83333 35L6.83333 10.75C6.83308 9.7075 7.66608 8.856 8.70833 8.83333 27.6667 8.33333 23.2917 0 37.5 0 51.7083 0 47.3333 8.33333 66.2917 8.83333 67.3337 8.856 68.1671 9.7075 68.1667 10.75Z" fill="#0078D4" transform="matrix(1.01333 0 0 1 6.82843 6.82843)"/><path d="M65.625 35.2083C65.625 53.7083 43.2917 68.5417 38.4167 71.625 37.8518 71.9613 37.1482 71.9613 36.5833 71.625 31.7083 68.625 9.375 53.7083 9.375 35.2083L9.375 12.9583C9.37475 12.0079 10.1331 11.231 11.0833 11.2083 28.4583 10.75 24.4583 3.125 37.5 3.125 50.5417 3.125 46.5417 10.75 63.9167 11.2083 64.8667 11.231 65.6254 12.0079 65.625 12.9583Z" fill="#6BB9F2" transform="matrix(1.01333 0 0 1 6.82843 6.82843)"/><path d="M37.5 37.5 37.5 3.125C50.5417 3.125 46.5417 10.75 63.9167 11.2083 64.8733 11.2529 65.6258 12.0421 65.625 13L65.625 35.25C65.6662 35.9994 65.6662 36.7506 65.625 37.5ZM37.5 37.5 9.5 37.5C11.1667 54.9167 31.9167 68.75 36.5833 71.625 36.809 71.7688 37.0666 71.8546 37.3333 71.875L37.5 71.875Z" fill="#FF0000" transform="matrix(1.01333 0 0 1 6.82843 6.82843)"/><path d="M11.0833 11.2083C28.4583 10.75 24.4583 3.125 37.5 3.125L37.5 37.5 9.5 37.5C9.45854 36.7506 9.45854 35.9994 9.5 35.25L9.5 13C9.49379 12.0865 10.176 11.3145 11.0833 11.2083Z" fill="#50E6FF" transform="matrix(1.01333 0 0 1 6.82843 6.82843)"/><path d="M65.5 37.5 37.5 37.5 37.5 71.875 37.5 71.875C37.7668 71.8546 38.0244 71.7688 38.25 71.625 43.0833 68.75 63.8333 54.9167 65.5 37.5Z" fill="#50E6FF" transform="matrix(1.01333 0 0 1 6.82843 6.82843)"/></g></g></g></g></g><g clip-path="url(#clip30)"><g clip-path="url(#clip31)"><g clip-path="url(#clip32)"><path d="M68.1667 35C68.1667 55.1667 43.7917 71.4167 38.5 74.7083 37.8862 75.0837 37.1138 75.0837 36.5 74.7083 31.2083 71.4167 6.83333 55.1667 6.83333 35L6.83333 10.75C6.83308 9.7075 7.66608 8.856 8.70833 8.83333 27.6667 8.33333 23.2917 0 37.5 0 51.7083 0 47.3333 8.33333 66.2917 8.83333 67.3337 8.856 68.1671 9.7075 68.1667 10.75Z" fill="#0078D4" transform="matrix(1.01333 0 0 1 97 305)"/><path d="M65.625 35.2083C65.625 53.7083 43.2917 68.5417 38.4167 71.625 37.8518 71.9613 37.1482 71.9613 36.5833 71.625 31.7083 68.625 9.375 53.7083 9.375 35.2083L9.375 12.9583C9.37475 12.0079 10.1331 11.231 11.0833 11.2083 28.4583 10.75 24.4583 3.125 37.5 3.125 50.5417 3.125 46.5417 10.75 63.9167 11.2083 64.8667 11.231 65.6254 12.0079 65.625 12.9583Z" fill="#6BB9F2" transform="matrix(1.01333 0 0 1 97 305)"/><path d="M37.5 37.5 37.5 3.125C50.5417 3.125 46.5417 10.75 63.9167 11.2083 64.8733 11.2529 65.6258 12.0421 65.625 13L65.625 35.25C65.6662 35.9994 65.6662 36.7506 65.625 37.5ZM37.5 37.5 9.5 37.5C11.1667 54.9167 31.9167 68.75 36.5833 71.625 36.809 71.7688 37.0666 71.8546 37.3333 71.875L37.5 71.875Z" fill="url(#fill33)" transform="matrix(1.01333 0 0 1 97 305)"/><path d="M11.0833 11.2083C28.4583 10.75 24.4583 3.125 37.5 3.125L37.5 37.5 9.5 37.5C9.45854 36.7506 9.45854 35.9994 9.5 35.25L9.5 13C9.49379 12.0865 10.176 11.3145 11.0833 11.2083Z" fill="#50E6FF" transform="matrix(1.01333 0 0 1 97 305)"/><path d="M65.5 37.5 37.5 37.5 37.5 71.875 37.5 71.875C37.7668 71.8546 38.0244 71.7688 38.25 71.625 43.0833 68.75 63.8333 54.9167 65.5 37.5Z" fill="#50E6FF" transform="matrix(1.01333 0 0 1 97 305)"/></g></g></g><text fill="#000000" fill-opacity="0.74902" font-family="Calibri,Calibri_MSFontService,sans-serif" font-weight="400" font-size="16" transform="translate(275.644 204)">System NodePool Subnet<tspan font-size="16" x="551.976" y="0">User NodePool Subnet</tspan></text><path d="M1.59767e-07-0.666667 431.418-0.666563 431.418 0.66677-1.59767e-07 0.666667ZM430.084-3.9999 438.084 0.000104987 430.084 4.0001Z" fill="#C00000" transform="matrix(-1 0 0 1 829.584 343.5)"/><g clip-path="url(#clip34)" filter="url(#fx3)" transform="translate(661 301)"><g clip-path="url(#clip35)"><g clip-path="url(#clip36)"><g clip-path="url(#clip37)"><g clip-path="url(#clip38)"><path d="M74.9951 41.8284C74.9951 61.9951 50.6201 78.2451 45.3284 81.5368 44.7146 81.9122 43.9423 81.9122 43.3284 81.5368 38.0368 78.2451 13.6618 61.9951 13.6618 41.8284L13.6618 17.5784C13.6615 16.5359 14.4945 15.6844 15.5368 15.6618 34.4951 15.1618 30.1201 6.82843 44.3284 6.82843 58.5368 6.82843 54.1618 15.1618 73.1201 15.6618 74.1622 15.6844 74.9955 16.5359 74.9951 17.5784Z" fill="#0078D4"/><path d="M72.4534 42.0368C72.4534 60.5368 50.1201 75.3701 45.2451 78.4534 44.6803 78.7897 43.9766 78.7897 43.4118 78.4534 38.5368 75.4534 16.2034 60.5368 16.2034 42.0368L16.2034 19.7868C16.2032 18.8363 16.9616 18.0594 17.9118 18.0368 35.2868 17.5784 31.2868 9.95343 44.3284 9.95343 57.3701 9.95343 53.3701 17.5784 70.7451 18.0368 71.6951 18.0594 72.4538 18.8363 72.4534 19.7868Z" fill="#6BB9F2"/><path d="M44.3284 44.3284 44.3284 9.95343C57.3701 9.95343 53.3701 17.5784 70.7451 18.0368 71.7018 18.0813 72.4543 18.8706 72.4534 19.8284L72.4534 42.0784C72.4947 42.8278 72.4947 43.579 72.4534 44.3284ZM44.3284 44.3284 16.3284 44.3284C17.9951 61.7451 38.7451 75.5784 43.4118 78.4534 43.6374 78.5972 43.895 78.683 44.1618 78.7034L44.3284 78.7034Z" fill="#FF0000"/><path d="M17.9118 18.0368C35.2868 17.5784 31.2868 9.95343 44.3284 9.95343L44.3284 44.3284 16.3284 44.3284C16.287 43.579 16.287 42.8278 16.3284 42.0784L16.3284 19.8284C16.3222 18.9149 17.0044 18.143 17.9118 18.0368Z" fill="#50E6FF"/><path d="M72.3284 44.3284 44.3284 44.3284 44.3284 78.7034 44.3284 78.7034C44.5952 78.683 44.8528 78.5972 45.0784 78.4534 49.9118 75.5784 70.6618 61.7451 72.3284 44.3284Z" fill="#50E6FF"/></g></g></g></g></g><g clip-path="url(#clip39)"><g clip-path="url(#clip40)"><g clip-path="url(#clip41)"><path d="M733.167 340C733.167 360.167 708.792 376.417 703.5 379.708 702.886 380.084 702.114 380.084 701.5 379.708 696.208 376.417 671.833 360.167 671.833 340L671.833 315.75C671.833 314.707 672.666 313.856 673.708 313.833 692.667 313.333 688.292 305 702.5 305 716.708 305 712.333 313.333 731.292 313.833 732.334 313.856 733.167 314.707 733.167 315.75Z" fill="#0078D4"/><path d="M730.625 340.208C730.625 358.708 708.292 373.542 703.417 376.625 702.852 376.961 702.148 376.961 701.583 376.625 696.708 373.625 674.375 358.708 674.375 340.208L674.375 317.958C674.375 317.008 675.133 316.231 676.083 316.208 693.458 315.75 689.458 308.125 702.5 308.125 715.542 308.125 711.542 315.75 728.917 316.208 729.867 316.231 730.625 317.008 730.625 317.958Z" fill="#6BB9F2"/><path d="M702.5 342.5 702.5 308.125C715.542 308.125 711.542 315.75 728.917 316.208 729.873 316.253 730.626 317.042 730.625 318L730.625 340.25C730.666 340.999 730.666 341.751 730.625 342.5ZM702.5 342.5 674.5 342.5C676.167 359.917 696.917 373.75 701.583 376.625 701.809 376.769 702.067 376.855 702.333 376.875L702.5 376.875Z" fill="url(#fill42)"/><path d="M676.083 316.208C693.458 315.75 689.458 308.125 702.5 308.125L702.5 342.5 674.5 342.5C674.459 341.751 674.459 340.999 674.5 340.25L674.5 318C674.494 317.086 675.176 316.315 676.083 316.208Z" fill="#50E6FF"/><path d="M730.5 342.5 702.5 342.5 702.5 376.875 702.5 376.875C702.767 376.855 703.024 376.769 703.25 376.625 708.083 373.75 728.833 359.917 730.5 342.5Z" fill="#50E6FF"/></g></g></g><text fill="#000000" fill-opacity="0.74902" font-family="Calibri,Calibri_MSFontService,sans-serif" font-weight="400" font-size="16" transform="translate(546.981 385)">Blocked as User <tspan font-size="16" x="0" y="19">NodePool’s</tspan><tspan font-size="16" x="76.8734" y="19">NSG, does </tspan><tspan font-size="16" x="0" y="38">not allow Outbound </tspan><tspan font-size="16" x="0" y="58">Access for UDP Port 53</tspan></text><path d="M594.919 330.072 598.177 327.347 608.5 339.69 618.823 327.347 622.081 330.072 611.269 343 622.081 355.928 618.823 358.653 608.5 346.31 598.177 358.653 594.919 355.928 605.731 343Z" stroke="#C00000" stroke-width="1.33333" stroke-linecap="round" stroke-miterlimit="8" fill="#C00000" fill-rule="evenodd"/><text fill="#000000" fill-opacity="0.74902" font-family="Calibri,Calibri_MSFontService,sans-serif" font-style="italic" font-weight="700" font-size="16" transform="translate(739.641 339)">DNS Request<tspan font-weight="400" font-size="13" x="-3.34302" y="17">(to CoreDNS pods)</tspan></text></g></svg>