<svg style="background-color: white" width="1280" height="720" xmlns="http://www.w3.org/2000/svg" xmlns:xlink="http://www.w3.org/1999/xlink" overflow="hidden"><defs><clipPath id="clip0"><rect x="0" y="0" width="1280" height="720"/></clipPath><clipPath id="clip1"><rect x="1118" y="268" width="96" height="96"/></clipPath><clipPath id="clip2"><rect x="1118" y="268" width="96" height="96"/></clipPath><clipPath id="clip3"><rect x="1118" y="268" width="96" height="96"/></clipPath><linearGradient x1="1165.95" y1="356.587" x2="1165.95" y2="261.227" gradientUnits="userSpaceOnUse" spreadMethod="pad" id="fill4"><stop offset="0" stop-color="#0078D4"/><stop offset="0.16" stop-color="#1380DA"/><stop offset="0.53" stop-color="#3C91E5"/><stop offset="0.82" stop-color="#559CEC"/><stop offset="1" stop-color="#5EA0EF"/></linearGradient><clipPath id="clip5"><rect x="310" y="502" width="96" height="96"/></clipPath><clipPath id="clip6"><rect x="310" y="502" width="96" height="96"/></clipPath><clipPath id="clip7"><rect x="310" y="502" width="96" height="96"/></clipPath><linearGradient x1="378.075" y1="500.565" x2="378.075" y2="589.584" gradientUnits="userSpaceOnUse" spreadMethod="pad" id="fill8"><stop offset="0" stop-color="#5EA0EF"/><stop offset="0.2" stop-color="#328DE2"/><stop offset="0.4" stop-color="#0078D4"/><stop offset="0.7" stop-color="#006ABB"/><stop offset="1" stop-color="#005BA1"/></linearGradient><linearGradient x1="359.957" y1="613.637" x2="359.957" y2="551.867" gradientUnits="userSpaceOnUse" spreadMethod="pad" id="fill9"><stop offset="0" stop-color="#198AB3"/><stop offset="0.4" stop-color="#29B8DC"/><stop offset="0.7" stop-color="#38D5F6"/><stop offset="1" stop-color="#9CEBFF"/></linearGradient><clipPath id="clip10"><rect x="579" y="284" width="96" height="96"/></clipPath><clipPath id="clip11"><rect x="579" y="284" width="96" height="96"/></clipPath><clipPath id="clip12"><rect x="579" y="284" width="96" height="96"/></clipPath><linearGradient x1="627" y1="389.867" x2="627" y2="278.56" gradientUnits="userSpaceOnUse" spreadMethod="pad" id="fill13"><stop offset="0" stop-color="#5E9624"/><stop offset="0.02" stop-color="#5F9724"/><stop offset="1" stop-color="#76BC2D"/></linearGradient><clipPath id="clip14"><rect x="867" y="52" width="48" height="48"/></clipPath><clipPath id="clip15"><rect x="867" y="52" width="48" height="48"/></clipPath><clipPath id="clip16"><rect x="867" y="52" width="48" height="48"/></clipPath><linearGradient x1="891" y1="93.8667" x2="891" y2="67.0933" gradientUnits="userSpaceOnUse" spreadMethod="pad" id="fill17"><stop offset="0" stop-color="#32BEDD"/><stop offset="0.18" stop-color="#32CAEA"/><stop offset="0.41" stop-color="#32D2F2"/><stop offset="0.78" stop-color="#32D4F5"/><stop offset="1" stop-color="#32D4F5"/></linearGradient><clipPath id="clip18"><rect x="334" y="52" width="48" height="48"/></clipPath><clipPath id="clip19"><rect x="334" y="52" width="48" height="48"/></clipPath><clipPath id="clip20"><rect x="334" y="52" width="48" height="48"/></clipPath><linearGradient x1="358" y1="93.8667" x2="358" y2="67.0933" gradientUnits="userSpaceOnUse" spreadMethod="pad" id="fill21"><stop offset="0" stop-color="#32BEDD"/><stop offset="0.18" stop-color="#32CAEA"/><stop offset="0.41" stop-color="#32D2F2"/><stop offset="0.78" stop-color="#32D4F5"/><stop offset="1" stop-color="#32D4F5"/></linearGradient><clipPath id="clip22"><rect x="843" y="502" width="96" height="96"/></clipPath><clipPath id="clip23"><rect x="843" y="502" width="96" height="96"/></clipPath><clipPath id="clip24"><rect x="843" y="502" width="96" height="96"/></clipPath><linearGradient x1="911.075" y1="500.565" x2="911.075" y2="589.584" gradientUnits="userSpaceOnUse" spreadMethod="pad" id="fill25"><stop offset="0" stop-color="#5EA0EF"/><stop offset="0.2" stop-color="#328DE2"/><stop offset="0.4" stop-color="#0078D4"/><stop offset="0.7" stop-color="#006ABB"/><stop offset="1" stop-color="#005BA1"/></linearGradient><linearGradient x1="892.957" y1="613.637" x2="892.957" y2="551.867" gradientUnits="userSpaceOnUse" spreadMethod="pad" id="fill26"><stop offset="0" stop-color="#198AB3"/><stop offset="0.4" stop-color="#29B8DC"/><stop offset="0.7" stop-color="#38D5F6"/><stop offset="1" stop-color="#9CEBFF"/></linearGradient><clipPath id="clip27"><rect x="601" y="243" width="48" height="48"/></clipPath><clipPath id="clip28"><rect x="601" y="243" width="48" height="48"/></clipPath><clipPath id="clip29"><rect x="601" y="243" width="48" height="48"/></clipPath><linearGradient x1="625" y1="284.867" x2="625" y2="258.093" gradientUnits="userSpaceOnUse" spreadMethod="pad" id="fill30"><stop offset="0" stop-color="#32BEDD"/><stop offset="0.18" stop-color="#32CAEA"/><stop offset="0.41" stop-color="#32D2F2"/><stop offset="0.78" stop-color="#32D4F5"/><stop offset="1" stop-color="#32D4F5"/></linearGradient></defs><g clip-path="url(#clip0)"><rect x="0" y="0" width="1280" height="720" fill="#FFFFFF"/><path d="M123.5 564.5C123.5 483.314 346.238 417.5 621 417.5 895.762 417.5 1118.5 483.314 1118.5 564.5 1118.5 645.686 895.762 711.5 621 711.5 346.238 711.5 123.5 645.686 123.5 564.5Z" stroke="#2F528F" stroke-width="1.33333" stroke-miterlimit="8" fill="#F4B183" fill-rule="evenodd" fill-opacity="0.4"/><g clip-path="url(#clip1)"><g clip-path="url(#clip2)"><g clip-path="url(#clip3)"><path d="M1214 324.267C1213.83 313.53 1205.9 304.5 1195.28 302.933 1194.87 287.855 1182.36 275.938 1167.28 276.267 1155.36 276.145 1144.67 283.566 1140.61 294.773 1127.74 296.453 1118.08 307.387 1118 320.373 1118.41 334.905 1130.51 346.362 1145.04 345.973L1147.39 345.973 1191.17 345.973C1191.56 346.003 1191.96 346.003 1192.35 345.973 1204.24 345.773 1213.83 336.163 1214 324.267Z" fill="url(#fill4)"/><path d="M1149.73 319.467C1149.73 321.558 1148.04 323.253 1145.95 323.253 1143.86 323.253 1142.16 321.558 1142.16 319.467 1142.16 317.375 1143.86 315.68 1145.95 315.68 1148.04 315.68 1149.73 317.375 1149.73 319.467Z" fill="#E3E3E3"/><path d="M1159.28 320.907 1159.28 317.867 1158.85 317.867 1155.6 316.8 1154.75 314.72 1156.4 311.2 1154.27 309.067 1153.84 309.067 1150.8 310.667 1148.72 309.813 1147.39 306.133 1144.35 306.133 1144.35 306.56 1143.28 309.813 1141.04 310.667 1137.57 309.013 1135.44 311.147 1135.44 311.573 1136.99 314.613 1136.13 316.693 1132.4 318.027 1132.4 321.333 1132.83 321.333 1136.08 322.4 1136.93 324.48 1135.28 328 1137.41 330.133 1137.84 330.133 1140.88 328.587 1142.96 329.44 1144.29 333.12 1147.33 333.12 1147.33 332.693 1148.4 329.44 1150.48 328.587 1154 330.24 1156.13 328.107 1156.13 327.68 1154.59 324.64 1155.44 322.56ZM1145.95 325.333C1142.71 325.333 1140.08 322.707 1140.08 319.467 1140.08 316.227 1142.71 313.6 1145.95 313.6 1149.19 313.6 1151.81 316.227 1151.81 319.467 1151.84 322.677 1149.26 325.304 1146.05 325.333 1146.02 325.334 1145.98 325.334 1145.95 325.333Z" fill="#FFFFFF"/><path d="M1175.81 303.147C1175.81 305.621 1173.81 307.627 1171.33 307.627 1168.86 307.627 1166.85 305.621 1166.85 303.147 1166.85 300.672 1168.86 298.667 1171.33 298.667 1173.81 298.667 1175.81 300.672 1175.81 303.147Z" fill="#E3E3E3"/><path d="M1187.33 304.853 1187.33 301.227 1186.85 301.227 1182.91 300 1182 297.28 1183.97 293.013 1181.41 290.453 1180.93 290.453 1177.25 292.32 1174.8 291.307 1173.2 286.88 1169.41 286.88 1169.41 287.413 1168.13 291.307 1165.63 292.32 1161.47 290.347 1158.91 292.907 1159.17 293.387 1160.67 297.333 1159.81 300 1155.33 301.44 1155.33 305.333 1155.87 305.333 1159.76 306.613 1160.67 309.013 1158.69 313.28 1161.36 316 1161.89 315.733 1165.52 313.867 1168.03 314.88 1169.63 319.307 1173.25 319.307 1173.25 318.773 1174.53 314.88 1177.04 313.867 1181.25 315.84 1183.81 313.28 1183.55 312.8 1182 308.96 1183.01 306.453ZM1171.33 310.187C1167.45 310.187 1164.29 307.035 1164.29 303.147 1164.29 299.259 1167.45 296.107 1171.33 296.107 1175.22 296.107 1178.37 299.259 1178.37 303.147 1178.4 307.005 1175.3 310.157 1171.44 310.187 1171.4 310.187 1171.37 310.187 1171.33 310.187Z" fill="#FFFFFF"/></g></g></g><g clip-path="url(#clip5)"><g clip-path="url(#clip6)"><g clip-path="url(#clip7)"><path d="M402.837 502.293 353.371 502.293C351.618 502.293 350.191 503.703 350.171 505.456L350.171 576.224 351.125 576.224C352.572 572.856 355.856 570.647 359.52 570.576L359.589 570.576C364.714 570.63 368.825 574.829 368.77 579.954 368.716 585.079 364.517 589.189 359.392 589.135 358 589.12 356.629 588.792 355.381 588.176 353.618 587.323 352.174 585.929 351.259 584.197L350.192 584.197 350.192 588.128C350.212 589.881 351.639 591.291 353.392 591.291L402.859 591.291C404.592 591.282 405.994 589.877 406 588.144L406 505.456C406.003 503.712 404.592 502.296 402.848 502.293 402.844 502.293 402.841 502.293 402.837 502.293Z" fill="url(#fill8)"/><path d="M357.547 512.176 366.64 512.176C367.076 512.176 367.429 512.529 367.429 512.965L367.429 512.965 367.429 524.699C367.429 525.135 367.076 525.488 366.64 525.488L357.573 525.488C357.137 525.488 356.784 525.135 356.784 524.699L356.784 524.699 356.784 512.965C356.784 512.529 357.137 512.176 357.573 512.176ZM373.547 512.176 382.64 512.176C383.076 512.176 383.429 512.529 383.429 512.965L383.429 512.965 383.429 524.699C383.429 525.135 383.076 525.488 382.64 525.488L373.573 525.488C373.137 525.488 372.784 525.135 372.784 524.699L372.784 524.699 372.784 512.965C372.784 512.529 373.137 512.176 373.573 512.176ZM389.584 512.176 398.651 512.176C399.087 512.176 399.44 512.529 399.44 512.965L399.44 512.965 399.44 524.699C399.44 525.135 399.087 525.488 398.651 525.488L389.584 525.488C389.148 525.488 388.795 525.135 388.795 524.699L388.795 524.699 388.795 512.965C388.795 512.529 389.148 512.176 389.584 512.176ZM357.584 533.408 366.64 533.408C367.076 533.408 367.429 533.761 367.429 534.197L367.429 534.197 367.429 546.053C367.429 546.49 367.077 546.845 366.64 546.848L357.573 546.848C357.137 546.845 356.784 546.49 356.784 546.053L356.784 546.053 356.784 534.32C356.724 533.887 357.024 533.487 357.456 533.424ZM373.584 533.408 382.677 533.408C383.113 533.408 383.467 533.761 383.467 534.197L383.467 534.197 383.467 546.053C383.467 546.49 383.114 546.845 382.677 546.848L373.611 546.848C373.174 546.845 372.821 546.49 372.821 546.053L372.821 546.053 372.821 534.32C372.758 533.889 373.056 533.488 373.487 533.424 373.488 533.424 373.488 533.424 373.488 533.424ZM389.621 533.408 398.688 533.408C399.124 533.408 399.477 533.761 399.477 534.197L399.477 534.197 399.477 546.053C399.477 546.49 399.125 546.845 398.688 546.848L389.621 546.848C389.185 546.845 388.832 546.49 388.832 546.053L388.832 546.053 388.832 534.32C388.761 533.895 389.043 533.492 389.467 533.413ZM357.621 551.909 366.64 551.909C367.076 551.909 367.429 552.263 367.429 552.699L367.429 552.699 367.429 564.56C367.429 564.996 367.076 565.349 366.64 565.349L357.573 565.349C357.137 565.349 356.784 564.996 356.784 564.56L356.784 564.56 356.784 552.827C356.724 552.395 357.025 551.997 357.456 551.936ZM373.621 551.909 382.715 551.909C383.151 551.909 383.504 552.263 383.504 552.699L383.504 552.699 383.504 564.56C383.504 564.996 383.151 565.349 382.715 565.349L373.648 565.349C373.212 565.349 372.859 564.996 372.859 564.56L372.859 564.56 372.859 552.827C372.793 552.402 373.084 552.004 373.509 551.938 373.515 551.938 373.52 551.937 373.525 551.936ZM389.659 551.909 398.725 551.909C399.161 551.909 399.515 552.263 399.515 552.699L399.515 552.699 399.515 564.56C399.515 564.996 399.161 565.349 398.725 565.349L389.659 565.349C389.223 565.349 388.869 564.996 388.869 564.56L388.869 564.56 388.869 552.827C388.79 552.413 389.055 552.011 389.467 551.92Z" fill="#F2F2F2" fill-opacity="0.4"/><path d="M390.965 560.667 328.949 560.667C327.22 560.664 325.816 562.063 325.813 563.792 325.813 563.794 325.813 563.796 325.813 563.797L325.813 576.208 351.104 576.208C352.551 572.84 355.834 570.631 359.499 570.56L359.568 570.56C364.693 570.614 368.803 574.813 368.749 579.938 368.694 585.063 364.496 589.173 359.371 589.119 357.979 589.104 356.608 588.776 355.36 588.16 353.597 587.307 352.152 585.913 351.237 584.181L325.813 584.181 325.813 594.544C325.813 596.273 327.215 597.675 328.944 597.675 328.946 597.675 328.948 597.675 328.949 597.675L390.965 597.675C392.695 597.675 394.098 596.274 394.101 594.544L394.101 563.813C394.107 562.081 392.708 560.673 390.976 560.667 390.972 560.667 390.969 560.667 390.965 560.667Z" fill="url(#fill9)"/><path d="M383.056 565.424C383.757 565.424 384.325 565.992 384.325 566.693L384.325 591.707C384.325 592.408 383.757 592.976 383.056 592.976L375.643 592.976C374.942 592.976 374.373 592.408 374.373 591.707L374.373 566.693C374.373 565.992 374.942 565.424 375.643 565.424Z" fill="#FFFFFF" fill-opacity="0.8"/><path d="M345.2 576.224 345.2 566.693C345.2 565.992 344.632 565.424 343.931 565.424L336.523 565.424C335.825 565.421 335.256 565.985 335.253 566.683 335.253 566.686 335.253 566.69 335.253 566.693L335.253 576.224Z" fill="#FFFFFF" fill-opacity="0.8"/><path d="M335.253 584.213 335.253 591.707C335.253 592.405 335.819 592.971 336.517 592.971 336.519 592.971 336.521 592.971 336.523 592.971L343.936 592.971C344.633 592.968 345.197 592.404 345.2 591.707L345.2 584.213Z" fill="#FFFFFF" fill-opacity="0.8"/><path d="M359.499 570.576 359.568 570.576C361.435 570.615 363.247 571.215 364.768 572.299L364.768 566.693C364.768 565.992 364.2 565.424 363.499 565.424L356.08 565.424C355.379 565.424 354.811 565.992 354.811 566.693L354.811 572C356.218 571.115 357.837 570.623 359.499 570.576Z" fill="#FFFFFF" fill-opacity="0.8"/><path d="M362.443 588.624C360.118 589.426 357.57 589.271 355.36 588.192 355.152 588.091 355.008 588.011 354.827 587.899L354.827 591.707C354.83 592.406 355.397 592.971 356.096 592.971L363.515 592.971C364.214 592.971 364.781 592.406 364.784 591.707L364.784 587.381C364.067 587.905 363.278 588.323 362.443 588.624Z" fill="#FFFFFF" fill-opacity="0.8"/><path d="M366.379 577.792C365.241 573.975 361.226 571.803 357.409 572.941 354.898 573.689 352.991 575.74 352.427 578.299L326.971 578.299C326.072 578.284 325.178 578.171 324.304 577.963 317.357 576.656 312.784 569.965 314.09 563.017 315.162 557.317 319.933 553.05 325.717 552.619L326.96 552.619 327.355 551.488C329.426 545.601 335.035 541.703 341.275 541.813 344.443 541.787 347.537 542.771 350.107 544.624L350.107 539.952C347.434 538.551 344.462 537.819 341.445 537.819 333.928 537.607 327.028 541.955 323.973 548.827 314.902 550.297 308.74 558.843 310.21 567.915 311.279 574.507 316.185 579.822 322.672 581.413 323.994 581.893 325.394 582.122 326.8 582.091L352.427 582.091C353.698 585.918 357.83 587.99 361.657 586.719 365.367 585.487 367.448 581.552 366.379 577.792Z" fill="#32BEDD"/></g></g></g><g clip-path="url(#clip10)"><g clip-path="url(#clip11)"><g clip-path="url(#clip12)"><path d="M579.96 329.707 624.707 284.96C625.939 283.693 627.965 283.666 629.232 284.898 629.253 284.919 629.273 284.939 629.293 284.96L674.04 329.707C675.307 330.939 675.334 332.965 674.102 334.232 674.081 334.253 674.061 334.273 674.04 334.293L629.24 379.093C627.996 380.313 626.004 380.313 624.76 379.093L579.96 334.293C578.693 333.061 578.666 331.035 579.898 329.768 579.919 329.747 579.939 329.727 579.96 329.707Z" fill="url(#fill13)"/><path d="M638.733 305.333 627.427 294.08C627.184 293.863 626.816 293.863 626.573 294.08L615.267 305.333C615.022 305.498 614.958 305.829 615.122 306.074 615.247 306.26 615.476 306.348 615.693 306.293L622.307 306.293C622.631 306.293 622.893 306.556 622.893 306.88L622.893 317.547C622.893 317.871 623.156 318.133 623.48 318.133L630.52 318.133C630.844 318.133 631.107 317.871 631.107 317.547L631.107 306.88C631.107 306.556 631.369 306.293 631.693 306.293L638.307 306.293C638.592 306.365 638.882 306.191 638.953 305.905 639.007 305.687 638.919 305.459 638.733 305.333Z" fill="#B4EC36"/><path d="M600.333 319.253 589.133 330.613C588.923 330.839 588.923 331.188 589.133 331.413L600.333 342.667C600.555 342.903 600.927 342.914 601.163 342.692 601.287 342.575 601.354 342.41 601.347 342.24L601.347 335.68C601.347 335.356 601.609 335.093 601.933 335.093L612.6 335.093C612.895 335.095 613.135 334.857 613.136 334.563 613.136 334.544 613.135 334.525 613.133 334.507L613.133 327.467C613.284 327.214 613.202 326.886 612.949 326.735 612.891 326.701 612.827 326.677 612.76 326.667L602.093 326.667C601.8 326.696 601.539 326.482 601.509 326.189 601.507 326.171 601.507 326.152 601.507 326.133L601.507 319.68C601.625 319.356 601.457 318.998 601.133 318.88 600.809 318.762 600.451 318.929 600.333 319.253Z" fill="#B4EC36"/><path d="M654.093 342.667 665.453 331.36C665.663 331.135 665.663 330.785 665.453 330.56L654.093 319.253C653.844 319.047 653.474 319.082 653.267 319.332 653.186 319.43 653.139 319.552 653.133 319.68L653.133 326.347C653.135 326.641 652.897 326.881 652.603 326.883 652.584 326.883 652.565 326.882 652.547 326.88L641.88 326.88C641.585 326.879 641.345 327.116 641.344 327.411 641.344 327.429 641.345 327.448 641.347 327.467L641.347 334.507C641.317 334.8 641.531 335.061 641.824 335.091 641.843 335.093 641.861 335.093 641.88 335.093L652.547 335.093C652.871 335.093 653.133 335.356 653.133 335.68L653.133 342.293C653.175 342.615 653.469 342.841 653.79 342.8 653.902 342.786 654.007 342.739 654.093 342.667Z" fill="#B4EC36"/><path d="M641.88 332C641.931 323.782 635.31 317.079 627.092 317.028 618.875 316.977 612.172 323.598 612.121 331.816 612.079 338.527 616.535 344.436 623 346.24L623 351.307C618.525 353.619 616.772 359.121 619.084 363.596 621.397 368.07 626.899 369.823 631.373 367.511 635.848 365.199 637.601 359.697 635.289 355.222 634.421 353.543 633.053 352.174 631.373 351.307L631.373 345.973C637.551 344.11 641.805 338.453 641.88 332Z" fill="#FFFFFF"/><path d="M635.693 331.947C635.693 336.718 631.825 340.587 627.053 340.587 622.282 340.587 618.413 336.718 618.413 331.947 618.413 327.175 622.282 323.307 627.053 323.307 631.825 323.307 635.693 327.175 635.693 331.947Z" fill="#5EA0EF"/></g></g></g><g clip-path="url(#clip14)"><g clip-path="url(#clip15)"><g clip-path="url(#clip16)"><path d="M868.333 67.0933 913.667 67.0933 913.667 67.0933 913.667 92.3733C913.667 93.2128 912.986 93.8933 912.147 93.8933L869.853 93.8933C869.014 93.8933 868.333 93.2128 868.333 92.3733L868.333 67.0933 868.333 67.0933Z" fill="url(#fill17)"/><path d="M869.853 57.3333 912.147 57.3333C912.986 57.3333 913.667 58.0139 913.667 58.8533L913.667 67.0933 913.667 67.0933 868.333 67.0933 868.333 67.0933 868.333 58.9333C868.289 58.095 868.933 57.3796 869.771 57.3354 869.799 57.334 869.826 57.3333 869.853 57.3333Z" fill="#0078D4"/><path d="M904.867 78.8267C904.867 80.8591 903.219 82.5067 901.187 82.5067 899.154 82.5067 897.507 80.8591 897.507 78.8267 897.507 76.7943 899.154 75.1467 901.187 75.1467 903.219 75.1467 904.867 76.7943 904.867 78.8267Z" fill="#F2F2F2"/><path d="M894.84 78.8267C894.84 80.8591 893.192 82.5067 891.16 82.5067 889.128 82.5067 887.48 80.8591 887.48 78.8267 887.48 76.7943 889.128 75.1467 891.16 75.1467 893.192 75.1467 894.84 76.7943 894.84 78.8267Z" fill="#F2F2F2"/><path d="M884.493 78.8267C884.493 80.8591 882.846 82.5067 880.813 82.5067 878.781 82.5067 877.133 80.8591 877.133 78.8267 877.133 76.7943 878.781 75.1467 880.813 75.1467 882.846 75.1467 884.493 76.7943 884.493 78.8267Z" fill="#F2F2F2"/><path d="M906.84 60.32C907.252 60.32 907.587 60.6543 907.587 61.0667L907.587 63.4667C907.587 63.879 907.252 64.2133 906.84 64.2133L875.187 64.2133C874.774 64.2133 874.44 63.879 874.44 63.4667L874.44 61.0667C874.44 60.6543 874.774 60.32 875.187 60.32Z" fill="#F2F2F2"/></g></g></g><path d="M66.5001 263.502C66.5001 213.243 107.243 172.5 157.502 172.5L1085.5 172.5C1135.76 172.5 1176.5 213.243 1176.5 263.502L1176.5 627.498C1176.5 677.757 1135.76 718.5 1085.5 718.5L157.502 718.5C107.243 718.5 66.5001 677.757 66.5001 627.498Z" stroke="#000000" stroke-width="1.33333" stroke-miterlimit="8" stroke-dasharray="5.33333 4" fill="none" fill-rule="evenodd"/><path d="M480 50.7285C475.811 33.1497 497.38 16.9608 528.177 14.5696 540.656 13.6007 553.343 15.0491 564.209 18.6831 575.724 6.294 602.63 1.5855 624.306 8.16641 628.096 9.31715 631.575 10.7757 634.633 12.4965 643.601 2.22682 665.444-1.94549 683.42 3.17736 688.396 4.59524 692.736 6.64584 696.108 9.17162 710.562-0.540191 736.102-1.73984 753.154 6.49213 760.321 9.952 765.152 14.7241 766.817 19.9902 790.5 23.6789 804.47 37.6511 798.022 51.1979 797.48 52.3368 796.8 53.4527 795.987 54.5375 814.98 68.6531 810.33 88.885 785.601 99.7267 777.904 103.102 768.812 105.287 759.203 106.071 758.989 121.257 737.233 133.469 710.609 133.348 701.714 133.307 693.012 131.863 685.467 129.176 676.462 146.202 645.051 155.825 615.309 150.67 602.845 148.51 592.075 143.941 584.837 137.743 554.385 148.229 514.86 142.588 496.555 125.145 496.324 124.925 496.097 124.703 495.875 124.481 475.945 125.813 457.893 117.694 455.554 106.348 454.307 100.3 457.804 94.2464 465.113 89.8006 447.857 84.0011 442.06 71.2714 452.166 61.3682 457.996 55.6548 468.221 51.8779 479.697 51.1988Z" fill="#E7E6E6" fill-rule="evenodd"/><path d="M548.563 136.98C548.563 139.297 546.685 141.174 544.369 141.174 542.052 141.174 540.174 139.297 540.174 136.98 540.174 134.663 542.052 132.785 544.369 132.785 546.685 132.785 548.563 134.663 548.563 136.98Z" fill="#E7E6E6" fill-rule="evenodd"/><path d="M552.939 136.846C552.939 141.48 549.184 145.235 544.55 145.235 539.917 145.235 536.161 141.48 536.161 136.846 536.161 132.213 539.917 128.458 544.55 128.458 549.184 128.458 552.939 132.213 552.939 136.846Z" fill="#E7E6E6" fill-rule="evenodd"/><path d="M550.552 141.675C550.552 148.624 544.918 154.258 537.968 154.258 531.018 154.258 525.385 148.624 525.385 141.675 525.385 134.725 531.018 129.091 537.968 129.091 544.918 129.091 550.552 134.725 550.552 141.675Z" fill="#E7E6E6" fill-rule="evenodd"/><path d="M480 50.7285C475.811 33.1497 497.38 16.9608 528.177 14.5696 540.656 13.6007 553.343 15.0491 564.209 18.6831 575.724 6.294 602.63 1.5855 624.306 8.16641 628.096 9.31715 631.575 10.7757 634.633 12.4965 643.601 2.22682 665.444-1.94549 683.42 3.17736 688.396 4.59524 692.736 6.64584 696.108 9.17162 710.562-0.540191 736.102-1.73984 753.154 6.49213 760.321 9.952 765.152 14.7241 766.817 19.9902 790.5 23.6789 804.47 37.6511 798.022 51.1979 797.48 52.3368 796.8 53.4527 795.987 54.5375 814.98 68.6531 810.33 88.885 785.601 99.7267 777.904 103.102 768.812 105.287 759.203 106.071 758.989 121.257 737.233 133.469 710.609 133.348 701.714 133.307 693.012 131.863 685.467 129.176 676.462 146.202 645.051 155.825 615.309 150.67 602.845 148.51 592.075 143.941 584.837 137.743 554.385 148.229 514.86 142.588 496.555 125.145 496.324 124.925 496.097 124.703 495.875 124.481 475.945 125.813 457.893 117.694 455.554 106.348 454.307 100.3 457.804 94.2464 465.113 89.8006 447.857 84.0011 442.06 71.2714 452.166 61.3682 457.996 55.6548 468.221 51.8779 479.697 51.1988Z" stroke="#2F528F" stroke-width="1.33333" stroke-miterlimit="8" fill="none" fill-rule="evenodd"/><path d="M548.563 136.98C548.563 139.297 546.685 141.174 544.369 141.174 542.052 141.174 540.174 139.297 540.174 136.98 540.174 134.663 542.052 132.785 544.369 132.785 546.685 132.785 548.563 134.663 548.563 136.98Z" stroke="#2F528F" stroke-width="1.33333" stroke-miterlimit="8" fill="none" fill-rule="evenodd"/><path d="M552.939 136.846C552.939 141.48 549.184 145.235 544.55 145.235 539.917 145.235 536.161 141.48 536.161 136.846 536.161 132.213 539.917 128.458 544.55 128.458 549.184 128.458 552.939 132.213 552.939 136.846Z" stroke="#2F528F" stroke-width="1.33333" stroke-miterlimit="8" fill="none" fill-rule="evenodd"/><path d="M550.552 141.675C550.552 148.624 544.918 154.258 537.968 154.258 531.018 154.258 525.385 148.624 525.385 141.675 525.385 134.725 531.018 129.091 537.968 129.091 544.918 129.091 550.552 134.725 550.552 141.675Z" stroke="#2F528F" stroke-width="1.33333" stroke-miterlimit="8" fill="none" fill-rule="evenodd"/><path d="M486.608 91.9984C479.241 92.3277 471.875 91.3555 465.499 89.2125M505.233 122.485C502.271 123.158 499.166 123.607 495.998 123.818M584.817 137.134C582.589 135.226 580.723 133.187 579.252 131.052M687.725 121.968C687.397 124.231 686.653 126.468 685.503 128.641M731.908 80.7328C748.612 85.3738 759.153 95.077 759.004 105.674M795.817 54.168C793.112 57.7766 788.982 60.9778 783.752 63.5205M766.867 19.4659C767.328 20.9232 767.541 22.4023 767.504 23.8829M689.817 14.3138C691.389 12.276 693.47 10.3787 695.997 8.6808M632.008 16.9982C632.65 15.3142 633.655 13.6823 635.002 12.1402M564.167 18.648C568.098 19.9629 571.736 21.5455 574.999 23.3611M481.892 55.6885C481.033 54.0666 480.401 52.4085 480.001 50.7297" stroke="#2F528F" stroke-width="1.33333" stroke-miterlimit="8" fill="none" fill-rule="evenodd"/><text font-family="Calibri,Calibri_MSFontService,sans-serif" font-weight="700" font-size="24" transform="translate(573.933 80)">Internet</text><text font-family="Calibri,Calibri_MSFontService,sans-serif" font-weight="700" font-size="24" transform="translate(1061.87 378)">Microsoft</text><text font-family="Calibri,Calibri_MSFontService,sans-serif" font-weight="700" font-size="24" transform="translate(1081.5 407)">Azure</text><text font-family="Calibri,Calibri_MSFontService,sans-serif" font-weight="700" font-size="24" transform="translate(935.767 69)">Public IP</text><text font-family="Calibri,Calibri_MSFontService,sans-serif" font-weight="700" font-size="24" transform="translate(930.981 98)">address 2</text><g clip-path="url(#clip18)"><g clip-path="url(#clip19)"><g clip-path="url(#clip20)"><path d="M335.333 67.0933 380.667 67.0933 380.667 67.0933 380.667 92.3733C380.667 93.2128 379.986 93.8933 379.147 93.8933L336.853 93.8933C336.014 93.8933 335.333 93.2128 335.333 92.3733L335.333 67.0933 335.333 67.0933Z" fill="url(#fill21)"/><path d="M336.853 57.3333 379.147 57.3333C379.986 57.3333 380.667 58.0139 380.667 58.8533L380.667 67.0933 380.667 67.0933 335.333 67.0933 335.333 67.0933 335.333 58.9333C335.289 58.095 335.933 57.3796 336.771 57.3354 336.799 57.334 336.826 57.3333 336.853 57.3333Z" fill="#0078D4"/><path d="M371.867 78.8267C371.867 80.8591 370.219 82.5067 368.187 82.5067 366.154 82.5067 364.507 80.8591 364.507 78.8267 364.507 76.7943 366.154 75.1467 368.187 75.1467 370.219 75.1467 371.867 76.7943 371.867 78.8267Z" fill="#F2F2F2"/><path d="M361.84 78.8267C361.84 80.8591 360.192 82.5067 358.16 82.5067 356.128 82.5067 354.48 80.8591 354.48 78.8267 354.48 76.7943 356.128 75.1467 358.16 75.1467 360.192 75.1467 361.84 76.7943 361.84 78.8267Z" fill="#F2F2F2"/><path d="M351.493 78.8267C351.493 80.8591 349.846 82.5067 347.813 82.5067 345.781 82.5067 344.133 80.8591 344.133 78.8267 344.133 76.7943 345.781 75.1467 347.813 75.1467 349.846 75.1467 351.493 76.7943 351.493 78.8267Z" fill="#F2F2F2"/><path d="M373.84 60.32C374.252 60.32 374.587 60.6543 374.587 61.0667L374.587 63.4667C374.587 63.879 374.252 64.2133 373.84 64.2133L342.187 64.2133C341.774 64.2133 341.44 63.879 341.44 63.4667L341.44 61.0667C341.44 60.6543 341.774 60.32 342.187 60.32Z" fill="#F2F2F2"/></g></g></g><text font-family="Calibri,Calibri_MSFontService,sans-serif" font-weight="700" font-size="24" transform="translate(228.67 69)">Public IP</text><text font-family="Calibri,Calibri_MSFontService,sans-serif" font-weight="700" font-size="24" transform="translate(223.883 98)">address 1</text><text font-family="Calibri,Calibri_MSFontService,sans-serif" font-weight="700" font-size="24" transform="translate(309.07 630)">Datacenter</text><text font-family="Calibri,Calibri_MSFontService,sans-serif" font-weight="700" font-size="24" transform="translate(304.47 659)">IP address 1</text><path d="M806.5 75.1667 855.527 75.1668 855.527 77.8335 806.5 77.8334ZM854.194 69.8335 867.527 76.5002 854.194 83.1668Z"/><path d="M2.09469e-06-1.33333 54.8274-1.33325 54.8274 1.33342-2.09469e-06 1.33333ZM53.4941-6.66658 66.8274 0.000104987 53.4941 6.66675Z" transform="matrix(-1 0 0 1 449.327 76.5001)"/><path d="M359.833 100.5 359.833 490.627 357.167 490.627 357.167 100.5ZM365.167 489.293 358.5 502.627 351.833 489.293Z"/><g clip-path="url(#clip22)"><g clip-path="url(#clip23)"><g clip-path="url(#clip24)"><path d="M935.837 502.293 886.371 502.293C884.618 502.293 883.191 503.703 883.171 505.456L883.171 576.224 884.125 576.224C885.572 572.856 888.856 570.647 892.52 570.576L892.589 570.576C897.714 570.63 901.825 574.829 901.77 579.954 901.716 585.079 897.517 589.189 892.392 589.135 891 589.12 889.629 588.792 888.381 588.176 886.618 587.323 885.174 585.929 884.259 584.197L883.192 584.197 883.192 588.128C883.212 589.881 884.639 591.291 886.392 591.291L935.859 591.291C937.592 591.282 938.994 589.877 939 588.144L939 505.456C939.003 503.712 937.592 502.296 935.848 502.293 935.844 502.293 935.841 502.293 935.837 502.293Z" fill="url(#fill25)"/><path d="M890.547 512.176 899.64 512.176C900.076 512.176 900.429 512.529 900.429 512.965L900.429 512.965 900.429 524.699C900.429 525.135 900.076 525.488 899.64 525.488L890.573 525.488C890.137 525.488 889.784 525.135 889.784 524.699L889.784 524.699 889.784 512.965C889.784 512.529 890.137 512.176 890.573 512.176ZM906.547 512.176 915.64 512.176C916.076 512.176 916.429 512.529 916.429 512.965L916.429 512.965 916.429 524.699C916.429 525.135 916.076 525.488 915.64 525.488L906.573 525.488C906.137 525.488 905.784 525.135 905.784 524.699L905.784 524.699 905.784 512.965C905.784 512.529 906.137 512.176 906.573 512.176ZM922.584 512.176 931.651 512.176C932.087 512.176 932.44 512.529 932.44 512.965L932.44 512.965 932.44 524.699C932.44 525.135 932.087 525.488 931.651 525.488L922.584 525.488C922.148 525.488 921.795 525.135 921.795 524.699L921.795 524.699 921.795 512.965C921.795 512.529 922.148 512.176 922.584 512.176ZM890.584 533.408 899.64 533.408C900.076 533.408 900.429 533.761 900.429 534.197L900.429 534.197 900.429 546.053C900.429 546.49 900.077 546.845 899.64 546.848L890.573 546.848C890.137 546.845 889.784 546.49 889.784 546.053L889.784 546.053 889.784 534.32C889.724 533.887 890.024 533.487 890.456 533.424ZM906.584 533.408 915.677 533.408C916.113 533.408 916.467 533.761 916.467 534.197L916.467 534.197 916.467 546.053C916.467 546.49 916.114 546.845 915.677 546.848L906.611 546.848C906.174 546.845 905.821 546.49 905.821 546.053L905.821 546.053 905.821 534.32C905.758 533.889 906.056 533.488 906.487 533.424 906.487 533.424 906.488 533.424 906.488 533.424ZM922.621 533.408 931.688 533.408C932.124 533.408 932.477 533.761 932.477 534.197L932.477 534.197 932.477 546.053C932.477 546.49 932.125 546.845 931.688 546.848L922.621 546.848C922.185 546.845 921.832 546.49 921.832 546.053L921.832 546.053 921.832 534.32C921.761 533.895 922.043 533.492 922.467 533.413ZM890.621 551.909 899.64 551.909C900.076 551.909 900.429 552.263 900.429 552.699L900.429 552.699 900.429 564.56C900.429 564.996 900.076 565.349 899.64 565.349L890.573 565.349C890.137 565.349 889.784 564.996 889.784 564.56L889.784 564.56 889.784 552.827C889.724 552.395 890.025 551.997 890.456 551.936ZM906.621 551.909 915.715 551.909C916.151 551.909 916.504 552.263 916.504 552.699L916.504 552.699 916.504 564.56C916.504 564.996 916.151 565.349 915.715 565.349L906.648 565.349C906.212 565.349 905.859 564.996 905.859 564.56L905.859 564.56 905.859 552.827C905.793 552.402 906.084 552.004 906.509 551.938 906.515 551.938 906.52 551.937 906.525 551.936ZM922.659 551.909 931.725 551.909C932.161 551.909 932.515 552.263 932.515 552.699L932.515 552.699 932.515 564.56C932.515 564.996 932.161 565.349 931.725 565.349L922.659 565.349C922.223 565.349 921.869 564.996 921.869 564.56L921.869 564.56 921.869 552.827C921.79 552.413 922.055 552.011 922.467 551.92Z" fill="#F2F2F2" fill-opacity="0.4"/><path d="M923.965 560.667 861.949 560.667C860.22 560.664 858.816 562.063 858.813 563.792 858.813 563.794 858.813 563.796 858.813 563.797L858.813 576.208 884.104 576.208C885.551 572.84 888.834 570.631 892.499 570.56L892.568 570.56C897.693 570.614 901.803 574.813 901.749 579.938 901.694 585.063 897.496 589.173 892.371 589.119 890.979 589.104 889.608 588.776 888.36 588.16 886.597 587.307 885.152 585.913 884.237 584.181L858.813 584.181 858.813 594.544C858.813 596.273 860.215 597.675 861.944 597.675 861.946 597.675 861.948 597.675 861.949 597.675L923.965 597.675C925.695 597.675 927.098 596.274 927.101 594.544L927.101 563.813C927.107 562.081 925.708 560.673 923.976 560.667 923.972 560.667 923.969 560.667 923.965 560.667Z" fill="url(#fill26)"/><path d="M916.056 565.424C916.757 565.424 917.325 565.992 917.325 566.693L917.325 591.707C917.325 592.408 916.757 592.976 916.056 592.976L908.643 592.976C907.942 592.976 907.373 592.408 907.373 591.707L907.373 566.693C907.373 565.992 907.942 565.424 908.643 565.424Z" fill="#FFFFFF" fill-opacity="0.8"/><path d="M878.2 576.224 878.2 566.693C878.2 565.992 877.632 565.424 876.931 565.424L869.523 565.424C868.825 565.421 868.256 565.985 868.253 566.683 868.253 566.686 868.253 566.69 868.253 566.693L868.253 576.224Z" fill="#FFFFFF" fill-opacity="0.8"/><path d="M868.253 584.213 868.253 591.707C868.253 592.405 868.819 592.971 869.517 592.971 869.519 592.971 869.521 592.971 869.523 592.971L876.936 592.971C877.633 592.968 878.197 592.404 878.2 591.707L878.2 584.213Z" fill="#FFFFFF" fill-opacity="0.8"/><path d="M892.499 570.576 892.568 570.576C894.435 570.615 896.247 571.215 897.768 572.299L897.768 566.693C897.768 565.992 897.2 565.424 896.499 565.424L889.08 565.424C888.379 565.424 887.811 565.992 887.811 566.693L887.811 572C889.218 571.115 890.837 570.623 892.499 570.576Z" fill="#FFFFFF" fill-opacity="0.8"/><path d="M895.443 588.624C893.118 589.426 890.57 589.271 888.36 588.192 888.152 588.091 888.008 588.011 887.827 587.899L887.827 591.707C887.83 592.406 888.397 592.971 889.096 592.971L896.515 592.971C897.214 592.971 897.781 592.406 897.784 591.707L897.784 587.381C897.067 587.905 896.278 588.323 895.443 588.624Z" fill="#FFFFFF" fill-opacity="0.8"/><path d="M899.379 577.792C898.241 573.975 894.226 571.803 890.409 572.941 887.898 573.689 885.991 575.74 885.427 578.299L859.971 578.299C859.072 578.284 858.178 578.171 857.304 577.963 850.357 576.656 845.784 569.965 847.09 563.017 848.162 557.317 852.933 553.05 858.717 552.619L859.96 552.619 860.355 551.488C862.426 545.601 868.035 541.703 874.275 541.813 877.443 541.787 880.537 542.771 883.107 544.624L883.107 539.952C880.434 538.551 877.462 537.819 874.445 537.819 866.928 537.607 860.028 541.955 856.973 548.827 847.902 550.297 841.74 558.843 843.21 567.915 844.279 574.507 849.185 579.822 855.672 581.413 856.994 581.893 858.394 582.122 859.8 582.091L885.427 582.091C886.698 585.918 890.83 587.99 894.657 586.719 898.367 585.487 900.448 581.552 899.379 577.792Z" fill="#32BEDD"/></g></g></g><path d="M892.833 100.5 892.833 490.627 890.167 490.627 890.167 100.5ZM898.167 489.293 891.5 502.627 884.833 489.293Z"/><text font-family="Calibri,Calibri_MSFontService,sans-serif" font-weight="700" font-size="24" transform="translate(856.338 630)">Datacenter</text><text font-family="Calibri,Calibri_MSFontService,sans-serif" font-weight="700" font-size="24" transform="translate(851.738 659)">IP address 2</text><path d="M1.33294-0.0325414 1.52818 7.96508-1.13769 8.03016-1.33294 0.0325414ZM1.59327 10.6309 1.78852 18.6286-0.877357 18.6936-1.07261 10.696ZM1.8536 21.2944 2.04885 29.292-0.617026 29.3571-0.812274 21.3595ZM2.11393 31.9579 2.30918 39.9555-0.356695 40.0206-0.551943 32.023ZM2.37426 42.6214 2.56951 50.619-0.0963638 50.6841-0.291612 42.6865ZM2.63459 53.2849 2.82984 61.2825 0.163967 61.3476-0.0312811 53.35ZM2.89492 63.9484 3.09017 71.946 0.424298 72.0111 0.22905 64.0135ZM3.15525 74.6119 3.28416 79.8919 0.618285 79.957 0.489381 74.677ZM8.58336 78.4289 2.24409 91.9209-4.746 78.7543Z" transform="matrix(-1 0 0 1 627.744 151.5)"/><path d="M628.324 379.452 634.612 384.398 632.964 386.494 626.676 381.548ZM636.709 386.046 642.997 390.992 641.348 393.088 635.06 388.142ZM645.093 392.64 651.381 397.586 649.732 399.682 643.444 394.736ZM653.477 399.234 659.765 404.18 658.117 406.276 651.828 401.331ZM661.861 405.829 668.149 410.774 666.501 412.87 660.213 407.925ZM670.245 412.423 676.534 417.368 674.885 419.465 668.597 414.519ZM678.63 419.017 684.918 423.963 683.269 426.059 676.981 421.113ZM687.014 425.611 693.302 430.557 691.653 432.653 685.365 427.707ZM695.398 432.205 701.686 437.151 700.038 439.247 693.749 434.301ZM703.782 438.799 710.07 443.745 708.422 445.841 702.134 440.896ZM712.166 445.394 718.455 450.339 716.806 452.435 710.518 447.49ZM720.551 451.988 726.839 456.933 725.19 459.029 718.902 454.084ZM728.935 458.582 735.223 463.528 733.574 465.624 727.286 460.678ZM737.319 465.176 743.607 470.122 741.959 472.218 735.67 467.272ZM745.703 471.77 751.991 476.716 750.343 478.812 744.055 473.866ZM754.087 478.364 760.375 483.31 758.727 485.406 752.439 480.46ZM762.472 484.959 768.76 489.904 767.111 492 760.823 487.055ZM770.856 491.553 777.144 496.498 775.495 498.594 769.207 493.649ZM779.24 498.147 785.528 503.092 783.88 505.189 777.591 500.243ZM787.624 504.741 793.912 509.687 792.264 511.783 785.976 506.837ZM796.008 511.335 802.297 516.281 800.648 518.377 794.36 513.431ZM804.393 517.929 810.681 522.875 809.032 524.971 802.744 520.025ZM812.777 524.523 819.065 529.469 817.416 531.565 811.128 526.62ZM821.161 531.118 827.449 536.063 825.801 538.159 819.512 533.214ZM829.545 537.712 835.257 542.204 833.608 544.3 827.897 539.808ZM837.505 537.187 843.864 550.67 829.263 547.667Z"/><path d="M0.812651-1.05706 7.15501 3.81885 5.52971 5.93297-0.812651 1.05706ZM9.26913 5.44415 15.6115 10.3201 13.9862 12.4342 7.64383 7.55827ZM17.7256 11.9454 24.068 16.8213 22.4427 18.9354 16.1003 14.0595ZM26.1821 18.4466 32.5244 23.3225 30.8991 25.4366 24.5568 20.5607ZM34.6386 24.9478 40.9809 29.8237 39.3556 31.9378 33.0133 27.0619ZM43.095 31.449 49.4374 36.3249 47.8121 38.439 41.4697 33.5631ZM51.5515 37.9502 57.8939 42.8261 56.2686 44.9402 49.9262 40.0643ZM60.008 44.4514 66.3504 49.3273 64.7251 51.4414 58.3827 46.5655ZM68.4645 50.9526 74.8068 55.8285 73.1815 57.9427 66.8392 53.0667ZM76.921 57.4538 83.2633 62.3298 81.638 64.4439 75.2957 59.568ZM85.3774 63.9551 91.7198 68.831 90.0945 70.9451 83.7521 66.0692ZM93.8339 70.4563 100.176 75.3322 98.551 77.4463 92.2086 72.5704ZM102.29 76.9575 108.633 81.8334 107.007 83.9475 100.665 79.0716ZM110.747 83.4587 117.089 88.3346 115.464 90.4487 109.122 85.5728ZM119.203 89.9599 125.546 94.8358 123.92 96.9499 117.578 92.074ZM127.66 96.4611 134.002 101.337 132.377 103.451 126.035 98.5752ZM136.116 102.962 142.459 107.838 140.833 109.952 134.491 105.076ZM144.573 109.464 150.915 114.339 149.29 116.454 142.947 111.578ZM153.029 115.965 159.372 120.841 157.746 122.955 151.404 118.079ZM161.486 122.466 167.828 127.342 166.203 129.456 159.86 124.58ZM169.942 128.967 176.285 133.843 174.659 135.957 168.317 131.081ZM178.399 135.468 184.741 140.344 183.116 142.458 176.773 137.582ZM186.855 141.97 193.198 146.845 191.572 148.96 185.23 144.084ZM195.312 148.471 201.654 153.347 200.029 155.461 193.686 150.585ZM203.768 154.972 210.11 159.848 208.485 161.962 202.143 157.086ZM212.225 161.473 212.648 161.799 211.023 163.913 210.599 163.587ZM214.842 156.758 221.349 170.17 206.715 167.329Z" transform="matrix(-1 0 0 1 627.849 380.5)"/><text font-family="Calibri,Calibri_MSFontService,sans-serif" font-weight="700" font-size="24" transform="translate(695.88 332)">Load</text><text font-family="Calibri,Calibri_MSFontService,sans-serif" font-weight="700" font-size="24" transform="translate(676.88 361)">balancer</text><g clip-path="url(#clip27)"><g clip-path="url(#clip28)"><g clip-path="url(#clip29)"><path d="M602.333 258.093 647.667 258.093 647.667 258.093 647.667 283.373C647.667 284.213 646.986 284.893 646.147 284.893L603.853 284.893C603.014 284.893 602.333 284.213 602.333 283.373L602.333 258.093 602.333 258.093Z" fill="url(#fill30)"/><path d="M603.853 248.333 646.147 248.333C646.986 248.333 647.667 249.014 647.667 249.853L647.667 258.093 647.667 258.093 602.333 258.093 602.333 258.093 602.333 249.933C602.289 249.095 602.933 248.38 603.771 248.335 603.799 248.334 603.826 248.333 603.853 248.333Z" fill="#0078D4"/><path d="M638.867 269.827C638.867 271.859 637.219 273.507 635.187 273.507 633.154 273.507 631.507 271.859 631.507 269.827 631.507 267.794 633.154 266.147 635.187 266.147 637.219 266.147 638.867 267.794 638.867 269.827Z" fill="#F2F2F2"/><path d="M628.84 269.827C628.84 271.859 627.192 273.507 625.16 273.507 623.128 273.507 621.48 271.859 621.48 269.827 621.48 267.794 623.128 266.147 625.16 266.147 627.192 266.147 628.84 267.794 628.84 269.827Z" fill="#F2F2F2"/><path d="M618.493 269.827C618.493 271.859 616.846 273.507 614.813 273.507 612.781 273.507 611.133 271.859 611.133 269.827 611.133 267.794 612.781 266.147 614.813 266.147 616.846 266.147 618.493 267.794 618.493 269.827Z" fill="#F2F2F2"/><path d="M640.84 251.32C641.252 251.32 641.587 251.654 641.587 252.067L641.587 254.467C641.587 254.879 641.252 255.213 640.84 255.213L609.187 255.213C608.774 255.213 608.44 254.879 608.44 254.467L608.44 252.067C608.44 251.654 608.774 251.32 609.187 251.32Z" fill="#F2F2F2"/></g></g></g><text font-family="Calibri,Calibri_MSFontService,sans-serif" font-weight="700" font-size="24" transform="translate(503.067 234)">Virtual IP</text><text font-family="Calibri,Calibri_MSFontService,sans-serif" font-weight="700" font-size="24" transform="translate(510.7 263)">address</text><text font-family="Calibri,Calibri_MSFontService,sans-serif" font-style="italic" font-weight="400" font-size="24" transform="translate(601.123 446)">Load</text><text font-family="Calibri,Calibri_MSFontService,sans-serif" font-style="italic" font-weight="400" font-size="24" transform="translate(580.45 475)">balanced</text></g></svg>