<svg width="133" height="78" viewBox="0 0 133 78" version="1.1" xmlns="http://www.w3.org/2000/svg" xmlns:xlink="http://www.w3.org/1999/xlink">
<title>netframework</title>
<desc>Created using Figma</desc>
<g id="Canvas" transform="translate(-4058 -406)">
<g id="netframework">
<g id="Vector">
<use xlink:href="#path0_fill" transform="translate(4058 447.877)" fill="#621EE5"/>
</g>
<g id="Vector">
<use xlink:href="#path1_fill" transform="translate(4075.55 406)" fill="#621EE5"/>
</g>
<g id="Vector">
<use xlink:href="#path2_fill" transform="translate(4127.17 406)" fill="#621EE5"/>
</g>
<g id="Vector">
<use xlink:href="#path3_fill" transform="translate(4157.3 406)" fill="#621EE5"/>
</g>
<g id="Vector">
<use xlink:href="#path4_fill" transform="translate(4064.7 464.757)" fill="#621EE5"/>
</g>
<g id="Vector">
<use xlink:href="#path5_fill" transform="translate(4077.44 469.981)" fill="#621EE5"/>
</g>
<g id="Vector">
<use xlink:href="#path6_fill" transform="translate(4086.22 469.895)" fill="#621EE5"/>
</g>
<g id="Vector">
<use xlink:href="#path7_fill" transform="translate(4100.76 469.926)" fill="#621EE5"/>
</g>
<g id="Vector">
<use xlink:href="#path8_fill" transform="translate(4122.28 469.813)" fill="#621EE5"/>
</g>
<g id="Vector">
<use xlink:href="#path9_fill" transform="translate(4135.74 470.303)" fill="#621EE5"/>
</g>
<g id="Vector">
<use xlink:href="#path10_fill" transform="translate(4155.01 469.921)" fill="#621EE5"/>
</g>
<g id="Vector">
<use xlink:href="#path11_fill" transform="translate(4171.58 470.061)" fill="#621EE5"/>
</g>
<g id="Vector">
<use xlink:href="#path12_fill" transform="translate(4181.08 463.819)" fill="#621EE5"/>
</g>
</g>
</g>
<defs>
<path id="path0_fill" d="M 3.75015 7.63622C 3.25372 7.6441 2.76107 7.54817 2.30332 7.35448C 1.84556 7.16079 1.43266 6.87356 1.0907 6.51093C 0.739355 6.16123 0.461688 5.74367 0.274328 5.28329C 0.0869693 4.82291 -0.00622722 4.32917 0.000322113 3.83164C -0.00322529 3.33454 0.0913438 2.84168 0.278531 2.38172C 0.465718 1.92176 0.74179 1.50388 1.0907 1.15236C 1.4293 0.78356 1.84097 0.490452 2.29907 0.291998C 2.75718 0.0935436 3.25152 -0.00583876 3.75015 0.000269502C 4.24805 -0.000957722 4.74092 0.100632 5.19833 0.298784C 5.65573 0.496936 6.06797 0.787446 6.4096 1.15236C 6.76452 1.50074 7.0463 1.91743 7.23818 2.37771C 7.43007 2.83798 7.52814 3.33243 7.52657 3.83164C 7.53121 4.33132 7.43454 4.82667 7.24248 5.28738C 7.05041 5.74809 6.767 6.16445 6.4096 6.51093C 6.06473 6.86973 5.65129 7.15442 5.19421 7.34782C 4.73713 7.54123 4.2459 7.63934 3.75015 7.63622Z"/>
<path id="path1_fill" d="M 39.0407 48.8433L 32.073 48.8433L 7.15392 9.88655C 6.53321 8.9267 6.01611 7.90276 5.61144 6.83217L 5.39869 6.83217C 5.6355 9.05643 5.72435 11.2942 5.66463 13.5304L 5.66463 48.8433L 4.058e-07 48.8433L 4.058e-07 1.22648e-06L 7.36668 1.22648e-06L 31.6209 38.2601C 32.6315 39.8499 33.2875 40.9394 33.5889 41.5289L 33.7218 41.5289C 33.4412 39.1464 33.3257 36.7471 33.3761 34.3484L 33.3761 1.22648e-06L 39.0407 1.22648e-06L 39.0407 48.8433Z"/>
<path id="path2_fill" d="M 25.7701 48.8433L 0 48.8433L 0 1.22648e-06L 24.5733 1.22648e-06L 24.5733 5.17102L 5.79761 5.17102L 5.79761 21.4075L 23.2968 21.4075L 23.2968 26.5517L 5.79761 26.5517L 5.79761 43.4847L 25.7967 43.4847L 25.7701 48.8433Z"/>
<path id="path3_fill" d="M 33.6952 5.17102L 19.6267 5.17102L 19.6267 48.8433L 13.9355 48.8433L 13.9355 5.17102L 4.8696e-06 5.17102L 4.8696e-06 1.22648e-06L 33.6952 1.22648e-06L 33.6952 5.17102Z"/>
<path id="path4_fill" d="M 1.30313 1.31284L 1.30313 8.84163L 8.19111 8.84163L 8.19111 10.0205L 1.30313 10.0205L 1.30313 18.755L 6.087e-07 18.755L 6.087e-07 2.04413e-06L 8.6964 2.04413e-06L 8.6964 1.17888L 1.30313 1.31284Z"/>
<path id="path5_fill" d="M 6.3029 1.52755C 5.89108 1.2356 5.39677 1.08527 4.89339 1.09886C 4.34664 1.11179 3.81292 1.26968 3.34603 1.5566C 2.87914 1.84353 2.49556 2.24936 2.23394 2.73322C 1.44549 4.14353 1.07623 5.75253 1.17016 7.36838L 1.17016 13.6647L 5.0725e-07 13.6647L 5.0725e-07 0.268281L 1.17016 0.268281L 1.17016 3.24229C 1.4082 2.32352 1.90732 1.49476 2.60626 0.857727C 3.23726 0.296994 4.05204 -0.0084383 4.89339 0.000357249C 5.3479 -0.0060896 5.79937 0.0757826 6.22312 0.241493L 6.3029 1.52755Z"/>
<path id="path6_fill" d="M 8.64386 13.7509L 8.64386 11.0717C 8.23465 11.9619 7.59071 12.7218 6.78225 13.2687C 5.99845 13.8078 5.07188 14.0972 4.12279 14.0992C 3.57648 14.1291 3.0297 14.0497 2.51395 13.8658C 1.99819 13.6819 1.52364 13.397 1.11762 13.0275C 0.756365 12.684 0.470387 12.2682 0.278031 11.8068C 0.0856757 11.3454 -0.00880719 10.8486 0.000646492 10.3482C 0.000646492 8.00834 1.53426 6.59725 4.6015 6.11498L 8.69705 5.49874C 8.69705 2.62298 7.62441 1.1851 5.47911 1.1851C 3.84722 1.18438 2.27348 1.79565 1.06443 2.89984L 1.06443 1.45303C 1.66637 1.00085 2.34108 0.656446 3.05901 0.434897C 3.82899 0.164093 4.63708 0.0193629 5.45252 0.00621267C 6.04141 -0.0267105 6.63026 0.0714573 7.17724 0.29373C 7.72421 0.516002 8.21587 0.856921 8.61727 1.29227C 9.43955 2.34885 9.83817 3.67794 9.73424 5.01648L 9.73424 13.7241L 8.64386 13.7509ZM 4.97382 7.07952C 3.93518 7.15578 2.93085 7.48693 2.04843 8.04406C 1.52293 8.60582 1.23027 9.34859 1.23027 10.1205C 1.23027 10.8924 1.52293 11.6352 2.04843 12.1969C 2.34295 12.4652 2.68732 12.6719 3.06162 12.8053C 3.43593 12.9387 3.83275 12.996 4.22917 12.9739C 4.83182 12.9867 5.42991 12.8662 5.98131 12.6208C 6.5327 12.3755 7.02398 12.0113 7.42051 11.5539C 8.29365 10.5277 8.74962 9.20706 8.69705 7.85651L 8.69705 6.54367L 4.97382 7.07952Z"/>
<path id="path7_fill" d="M 16.6216 13.7193L 16.6216 5.68142C 16.7276 4.44761 16.4487 3.21123 15.8237 2.14477C 15.5173 1.78723 15.1306 1.5084 14.6959 1.33135C 14.2612 1.1543 13.7909 1.08412 13.3238 1.12664C 12.8074 1.13975 12.3004 1.2693 11.8402 1.50576C 11.38 1.74223 10.9782 2.0796 10.6644 2.49308C 9.88758 3.45082 9.48134 4.65958 9.52083 5.89577L 9.52083 13.7461L 8.32408 13.7461L 8.32408 5.70821C 8.32408 2.72527 7.19825 1.23381 4.94658 1.23381C 4.42824 1.23692 3.9178 1.3621 3.45604 1.59935C 2.99428 1.83661 2.59398 2.17936 2.28713 2.60024C 1.53023 3.61743 1.14508 4.86668 1.19675 6.13689L 1.19675 13.8532L -8.116e-07 13.8532L -8.116e-07 0.456818L 1.19675 0.456818L 1.19675 2.68063C 1.54029 1.88187 2.10895 1.20223 2.83224 0.725969C 3.55553 0.249706 4.40164 -0.00224177 5.26571 0.00134481C 6.17391 -0.0228687 7.0607 0.281269 7.7656 0.858714C 8.4545 1.42861 8.94004 2.20938 9.14851 3.08251C 9.51775 2.17676 10.1359 1.39598 10.9303 0.831916C 11.6702 0.308132 12.5526 0.0274066 13.4568 0.0281331C 16.3645 0.0281331 17.8183 1.81432 17.8183 5.3867L 17.8183 13.6657L 16.6216 13.7193Z"/>
<path id="path8_fill" d="M 1.24471 7.18776C 1.15686 8.73174 1.60852 10.258 2.52125 11.5014C 2.94214 12.0154 3.47615 12.4234 4.08091 12.6932C 4.68566 12.9629 5.3445 13.0869 6.00513 13.0554C 7.60352 13.0141 9.14092 12.4286 10.3666 11.3942L 10.3666 12.6803C 9.02738 13.6515 7.41586 14.1676 5.76579 14.1539C 4.98174 14.1729 4.20321 14.0171 3.48597 13.6975C 2.76872 13.3779 2.13051 12.9024 1.61704 12.3052C 0.447748 10.7782 -0.120506 8.8699 0.0213687 6.94662C -0.032623 5.15744 0.552454 3.40814 1.67023 2.01674C 2.18482 1.36851 2.84184 0.849583 3.58949 0.500865C 4.33715 0.152147 5.15499 -0.0168235 5.97854 0.00727895C 6.70502 -0.0342681 7.43066 0.102514 8.09309 0.405864C 8.75552 0.709214 9.33494 1.17007 9.78155 1.74882C 10.7369 3.15635 11.2043 4.84219 11.1113 6.54472L 11.1113 7.08058L 1.24471 7.18776ZM 9.83475 6.08925C 9.85977 4.80199 9.46763 3.54159 8.71777 2.49901C 8.39188 2.05749 7.96608 1.70073 7.47577 1.45841C 6.98545 1.21608 6.44479 1.09519 5.89876 1.10578C 5.32611 1.08973 4.75637 1.19334 4.22543 1.41006C 3.69448 1.62679 3.21384 1.95195 2.81379 2.36505C 1.92376 3.36764 1.39041 4.64024 1.2979 5.98208L 9.83475 6.08925Z"/>
<path id="path9_fill" d="M 12.8717 13.3428L 11.7548 13.3428L 8.85597 3.29552C 8.75951 2.92578 8.68843 2.5498 8.64322 2.17022L 8.64322 2.17022C 8.58534 2.54326 8.49637 2.91073 8.37727 3.26873L 5.13274 13.3964L 4.01577 13.3964L 3.2464e-06 1.22648e-06L 1.32973 1.22648e-06L 4.41469 10.7171C 4.50918 11.086 4.57147 11.4626 4.60085 11.8424L 4.60085 11.8424C 4.6428 11.4602 4.72299 11.0831 4.8402 10.7171L 8.21771 1.22648e-06L 9.04213 1.22648e-06L 12.0473 10.7171C 12.1373 11.087 12.1996 11.4631 12.2335 11.8424L 12.2335 11.8424C 12.255 11.4595 12.3266 11.0812 12.4462 10.7171L 15.611 1.22648e-06L 16.8343 1.22648e-06L 12.8717 13.3428Z"/>
<path id="path10_fill" d="M 6.33736 14.0463C 5.4768 14.0858 4.6182 13.9334 3.82288 13.5999C 3.02755 13.2665 2.31513 12.7602 1.73651 12.1172C 0.610814 10.6524 -4.65004e-06 8.85233 -4.65004e-06 6.99979C -4.65004e-06 5.14725 0.610814 3.3472 1.73651 1.88236C 2.3378 1.25771 3.06309 0.767809 3.86503 0.444643C 4.66696 0.121477 5.52752 -0.0276913 6.39055 0.00686188C 7.23072 -0.0345762 8.06956 0.112128 8.84671 0.436426C 9.62386 0.760723 10.32 1.25455 10.885 1.88236C 12.0541 3.33931 12.642 5.18305 12.5339 7.05337C 12.6207 8.8926 12.0232 10.6983 10.8584 12.1172C 10.2908 12.7524 9.59178 13.2544 8.8106 13.5877C 8.02941 13.921 7.18514 14.0776 6.33736 14.0463L 6.33736 14.0463ZM 6.33736 1.10537C 5.63294 1.07508 4.93071 1.20369 4.28195 1.48181C 3.63319 1.75994 3.05428 2.18056 2.58753 2.71293C 1.5858 3.9677 1.08337 5.55311 1.17802 7.16054C 1.09884 8.69154 1.58162 10.1984 2.53434 11.3938C 2.99457 11.9271 3.56852 12.3487 4.21326 12.6271C 4.85799 12.9055 5.55684 13.0334 6.25758 13.0014C 6.95274 13.0406 7.64756 12.9184 8.28847 12.6443C 8.92938 12.3703 9.49927 11.9516 9.95421 11.4206C 10.7955 10.1168 11.2432 8.59506 11.2432 7.03998C 11.2432 5.48489 10.7955 3.96319 9.95421 2.65935C 9.52396 2.13535 8.98333 1.71443 8.37154 1.4271C 7.75974 1.13978 7.09213 0.993266 6.41715 0.998193L 6.33736 1.10537Z"/>
<path id="path11_fill" d="M 6.27631 1.44717C 5.86449 1.15522 5.37017 1.00489 4.86679 1.01848C 4.31943 1.02867 3.78463 1.18542 3.31727 1.47264C 2.8499 1.75986 2.46682 2.16719 2.20734 2.65284C 1.41889 4.06315 1.04963 5.67215 1.14357 7.288L 1.14357 13.5843L 2.029e-06 13.5843L 2.029e-06 0.187903L 1.17016 0.187903L 1.17016 3.16191C 1.43692 2.26582 1.95391 1.46596 2.65945 0.857723C 3.29046 0.29699 4.10523 -0.00844157 4.94658 0.000353978C 5.40109 -0.00609287 5.85256 0.0757794 6.27631 0.24149L 6.27631 1.44717Z"/>
<path id="path12_fill" d="M 7.55284 19.8267L 1.19676 13.2089L 1.19676 19.8267L 1.2174e-06 19.8267L 1.2174e-06 -4.08826e-06L 1.19676 -4.08826e-06L 1.19676 12.7802L 7.2603 6.43028L 8.80279 6.43028L 2.47329 12.9141L 9.28148 19.8267L 7.55284 19.8267Z"/>
</defs>
</svg>
