<svg width="133" height="78" viewBox="0 0 133 78" version="1.1" xmlns="http://www.w3.org/2000/svg" xmlns:xlink="http://www.w3.org/1999/xlink">
<title>net</title>
<desc>Created using Figma</desc>
<g id="Canvas" transform="translate(-4058 -406)">
<g id="dotnet">
<g id="Vector">
<use xlink:href="#path0_fill" transform="translate(4058 447.877)" fill="#621EE5"/>
</g>
<g id="Vector">
<use xlink:href="#path1_fill" transform="translate(4075.55 406)" fill="#621EE5"/>
</g>
<g id="Vector">
<use xlink:href="#path2_fill" transform="translate(4127.17 406)" fill="#621EE5"/>
</g>
<g id="Vector">
<use xlink:href="#path3_fill" transform="translate(4157.3 406)" fill="#621EE5"/>
</g>
</g>
</g>
<defs>
<path id="path0_fill" d="M 3.75015 7.63622C 3.25372 7.6441 2.76107 7.54817 2.30332 7.35448C 1.84556 7.16079 1.43266 6.87356 1.0907 6.51093C 0.739355 6.16123 0.461688 5.74367 0.274328 5.28329C 0.0869693 4.82291 -0.00622722 4.32917 0.000322113 3.83164C -0.00322529 3.33454 0.0913438 2.84168 0.278531 2.38172C 0.465718 1.92176 0.74179 1.50388 1.0907 1.15236C 1.4293 0.78356 1.84097 0.490452 2.29907 0.291998C 2.75718 0.0935436 3.25152 -0.00583876 3.75015 0.000269502C 4.24805 -0.000957722 4.74092 0.100632 5.19833 0.298784C 5.65573 0.496936 6.06797 0.787446 6.4096 1.15236C 6.76452 1.50074 7.0463 1.91743 7.23818 2.37771C 7.43007 2.83798 7.52814 3.33243 7.52657 3.83164C 7.53121 4.33132 7.43454 4.82667 7.24248 5.28738C 7.05041 5.74809 6.767 6.16445 6.4096 6.51093C 6.06473 6.86973 5.65129 7.15442 5.19421 7.34782C 4.73713 7.54123 4.2459 7.63934 3.75015 7.63622Z"/>
<path id="path1_fill" d="M 39.0407 48.8433L 32.073 48.8433L 7.15392 9.88655C 6.53321 8.9267 6.01611 7.90276 5.61144 6.83217L 5.39869 6.83217C 5.6355 9.05643 5.72435 11.2942 5.66463 13.5304L 5.66463 48.8433L 4.058e-07 48.8433L 4.058e-07 1.22648e-06L 7.36668 1.22648e-06L 31.6209 38.2601C 32.6315 39.8499 33.2875 40.9394 33.5889 41.5289L 33.7218 41.5289C 33.4412 39.1464 33.3257 36.7471 33.3761 34.3484L 33.3761 1.22648e-06L 39.0407 1.22648e-06L 39.0407 48.8433Z"/>
<path id="path2_fill" d="M 25.7701 48.8433L 0 48.8433L 0 1.22648e-06L 24.5733 1.22648e-06L 24.5733 5.17102L 5.79761 5.17102L 5.79761 21.4075L 23.2968 21.4075L 23.2968 26.5517L 5.79761 26.5517L 5.79761 43.4847L 25.7967 43.4847L 25.7701 48.8433Z"/>
<path id="path3_fill" d="M 33.6952 5.17102L 19.6267 5.17102L 19.6267 48.8433L 13.9355 48.8433L 13.9355 5.17102L 4.8696e-06 5.17102L 4.8696e-06 1.22648e-06L 33.6952 1.22648e-06L 33.6952 5.17102Z"/>
</defs>
</svg>
