<svg width="64" height="64" xmlns="http://www.w3.org/2000/svg">
 <defs>
  <style>.cls-1{fill:#5c2d91;}.cls-2,.cls-3{fill:#fff;}.cls-2{opacity:0.1;}.cls-4{fill:#f2f2f2;}</style>
 </defs>
 <title>logo_NET</title>
 <g>
  <title>background</title>
  <rect x="-1" y="-1" width="66" height="66" id="canvas_background" fill="none"/>
 </g>
 <g>
  <title>Layer 1</title>
  <circle class="cls-1" cx="32" cy="32" r="32" id="svg_1"/>
  <path class="cls-2" d="m9.82,9a32,32 0 1 0 45.18,45.18l-45.18,-45.18z" id="svg_2"/>
  <path class="cls-3" d="m7.4,41.25a1.35,1.35 0 0 1 -1,-0.42a1.38,1.38 0 0 1 -0.41,-1a1.4,1.4 0 0 1 0.41,-1a1.34,1.34 0 0 1 1,-0.43a1.37,1.37 0 0 1 1,0.43a1.39,1.39 0 0 1 0.42,1a1.37,1.37 0 0 1 -0.42,1a1.38,1.38 0 0 1 -1,0.42z" id="svg_3"/>
  <path class="cls-3" d="m27.27,41l-2.62,0l-9.37,-14.54a6,6 0 0 1 -0.58,-1.14l-0.08,0a18.72,18.72 0 0 1 0.1,2.5l0,13.18l-2.13,0l0,-18.23l2.77,0l9.12,14.28q0.57,0.89 0.74,1.22l0.05,0a19.28,19.28 0 0 1 -0.13,-2.68l0,-12.82l2.13,0l0,18.23z" id="svg_4"/>
  <path class="cls-3" d="m41.69,41l-9.69,0l0,-18.23l9.24,0l0,1.93l-7.06,0l0,6.06l6.58,0l0,1.92l-6.58,0l0,6.32l7.52,0l-0.01,2z" id="svg_5"/>
  <path class="cls-3" d="m56,24.7l-5.3,0l0,16.3l-2.13,0l0,-16.3l-5.24,0l0,-1.93l12.67,0l0,1.93z" id="svg_6"/>
 </g>
</svg>