<?xml version="1.0" encoding="UTF-8"?>
<svg width="100px" height="100px" viewBox="0 0 100 100" version="1.1" xmlns="http://www.w3.org/2000/svg" xmlns:xlink="http://www.w3.org/1999/xlink">
    <!-- Generator: Sketch 52.6 (67491) - http://www.bohemiancoding.com/sketch -->
    <title>Business Applications SFA Generalist/dynamics-365-for-marketing</title>
    <desc>Created with Sketch.</desc>
    <defs>
        <rect id="path-1" x="0" y="0" width="96" height="96" rx="48"></rect>
        <filter x="-6.2%" y="-6.7%" width="112.3%" height="113.3%" filterUnits="objectBoundingBox" id="filter-3">
            <feOffset dx="0" dy="2" in="SourceAlpha" result="shadowOffsetOuter1"></feOffset>
            <feColorMatrix values="0 0 0 0 0   0 0 0 0 0   0 0 0 0 0  0 0 0 0.102128623 0" type="matrix" in="shadowOffsetOuter1" result="shadowMatrixOuter1"></feColorMatrix>
            <feMerge>
                <feMergeNode in="shadowMatrixOuter1"></feMergeNode>
                <feMergeNode in="SourceGraphic"></feMergeNode>
            </feMerge>
        </filter>
        <filter x="-18.5%" y="-17.6%" width="138.4%" height="136.5%" filterUnits="objectBoundingBox" id="filter-4">
            <feOffset dx="0" dy="2" in="SourceAlpha" result="shadowOffsetOuter1"></feOffset>
            <feColorMatrix values="0 0 0 0 0   0 0 0 0 0   0 0 0 0 0  0 0 0 0.0984488225 0" type="matrix" in="shadowOffsetOuter1" result="shadowMatrixOuter1"></feColorMatrix>
            <feMerge>
                <feMergeNode in="shadowMatrixOuter1"></feMergeNode>
                <feMergeNode in="SourceGraphic"></feMergeNode>
            </feMerge>
        </filter>
    </defs>
    <g id="Badges" stroke="none" stroke-width="1" fill="none" fill-rule="evenodd">
        <g id="Business-Applications-SFA-Generalist-1" transform="translate(-50.000000, -1060.000000)">
            <g id="Business-Applications-SFA-Generalist/dynamics-365-for-marketing" transform="translate(50.000000, 1060.000000)">
                <g id="Mask" transform="translate(2.000000, 2.000000)">
                    <mask id="mask-2" fill="white">
                        <use xlink:href="#path-1"></use>
                    </mask>
                    <use id="BG" fill="#55A2FF" xlink:href="#path-1"></use>
                    <g id="Megaphone" filter="url(#filter-3)" mask="url(#mask-2)">
                        <g transform="translate(48.000000, 49.098626) rotate(-15.000000) translate(-48.000000, -49.098626) translate(15.500000, 19.098626)">
                            <path d="M55.001,18.051 L55.001,37.949 C60.047,37.445 64.001,33.176 64.001,28 C64.001,22.824 60.047,18.555 55.001,18.051" id="Fill-476" fill="#C5CCCD" fill-rule="evenodd"></path>
                            <path d="M8.001,32 L8.001,20 L2.001,20 C0.896,20 0.001,20.896 0.001,22 L0.001,34 C0.001,35.104 0.896,36 2.001,36 L8.001,36 L8.001,32" id="Fill-477" fill="#30404D" fill-rule="evenodd"></path>
                            <path d="M54.025,0 L52.001,0 C49.208,0.001 48.032,0.766 47.661,1.093 L31.732,14.169 C31.27,14.549 31.001,15.116 31.001,15.715 L31.001,40.285 C31.001,40.884 31.27,41.451 31.732,41.831 L47.611,54.865 C48.032,55.234 49.208,55.999 52.001,56 L54.025,56 C55.12,55.985 56.001,55.095 56.001,54 L56.001,2 C56.001,0.905 55.12,0.015 54.025,0" id="Fill-478" fill="#E1E4E1" fill-rule="evenodd"></path>
                            <path d="M32.001,32 L32.001,42.052 L47.611,54.865 C48.032,55.234 49.208,55.999 52.001,56 L52.001,38 L32.001,32" id="Fill-479" fill="none"></path>
                            <path d="M22.001,58 C22.001,59.1 21.101,60 20.001,60 L16.001,60 C14.901,60 14.001,59.1 14.001,58 L14.001,42 C14.001,40.9 14.901,40 16.001,40 L20.001,40 C21.101,40 22.001,40.9 22.001,42 L22.001,58" id="Fill-480" fill="#C5CCCD" fill-rule="evenodd"></path>
                            <path d="M54.001,0 C52.896,0 52.001,0 52.001,0 L52.001,56 C52.001,56 52.896,56 54.001,56 C55.105,56 56.001,55.104 56.001,54 L56.001,2 C56.001,0.896 55.105,0 54.001,0" id="Fill-481" fill="#546670" fill-rule="evenodd"></path>
                            <polygon id="Fill-482" fill="#182A37" fill-rule="evenodd" points="5.001 36 6.001 36 6.001 20 5.001 20"></polygon>
                            <path d="M22.001,42 L22.001,48 C23.101,48 24.001,47.1 24.001,46 L24.001,42 L22.001,42" id="Fill-483" fill="#30404D" fill-rule="evenodd"></path>
                            <polygon id="Fill-484" fill="#AAB0B1" fill-rule="evenodd" points="14.001 44 22.001 44 22.001 42 14.001 42"></polygon>
                            <polygon id="Fill-485" fill="#182A37" fill-rule="evenodd" points="22.001 44 24.001 44 24.001 42 22.001 42"></polygon>
                            <path d="M12.001,14 C8.692,14 6.001,16.691 6.001,20 L6.001,36 C6.001,39.309 8.692,42 12.001,42 L32.001,42 L32.001,14 L12.001,14" id="Fill-486" fill="#DF5142" fill-rule="evenodd"></path>
                            <path d="M6.001,32 L6.001,36 C6.001,39.309 8.692,42 12.001,42 L32.001,42 L32.001,32 L6.001,32" id="Fill-487" fill="#C2423D" fill-rule="evenodd"></path>
                        </g>
                    </g>
                    <g id="Group-2" filter="url(#filter-4)" mask="url(#mask-2)">
                        <g transform="translate(37.162005, 35.407549)">
                            <path d="M21.4695529,11.3919813 C21.4695529,17.3109719 16.653767,22.1267578 10.7347764,22.1267578 C4.81578586,22.1267578 -9.9475983e-14,17.3109719 -9.9475983e-14,11.3919813 C-9.9475983e-14,5.47299074 4.81578586,0.657204884 10.7347764,0.657204884 C16.653767,0.657204884 21.4695529,5.47299074 21.4695529,11.3919813 Z" id="Fill-3" fill="#EFB252"></path>
                            <path d="M18.9922968,8.91472522 C18.9922968,14.8337158 14.1765109,19.6495017 8.25752034,19.6495017 C5.92972535,19.6495017 3.77864131,18.8964158 2.01731222,17.6321894 C3.96691277,20.3480879 7.14358084,22.1267578 10.7347764,22.1267578 C16.653767,22.1267578 21.4695529,17.3109719 21.4695529,11.3919813 C21.4695529,7.80078573 19.690883,4.62411765 16.9749846,2.6745171 C18.2392109,4.43502044 18.9922968,6.58693024 18.9922968,8.91472522 Z" id="Fill-4" fill="#E6A33C"></path>
                            <g id="Dynamics-365-logo" stroke-width="1" fill="none" transform="translate(6.433731, 3.211857)">
                                <polygon id="Path" fill="#FFFFFF" points="0 0 0 4.43229351 6.3316553 7.59812116 9.49770762 5.3819744"></polygon>
                                <polygon id="Path" fill="#FFFFFF" points="10.1308282 5.6985347 10.1308282 10.7639488 0 16.1459232 0 5.06541411 3.16582765 7.28156086 0.949680893 14.5631217"></polygon>
                            </g>
                        </g>
                    </g>
                </g>
                <g id="Azure-Border" stroke="#0078D4" stroke-width="4">
                    <rect x="2" y="2" width="96" height="96" rx="48"></rect>
                </g>
            </g>
        </g>
    </g>
</svg>