<?xml version="1.0" encoding="UTF-8"?>
<svg width="100px" height="118px" viewBox="0 0 100 118" version="1.1" xmlns="http://www.w3.org/2000/svg" xmlns:xlink="http://www.w3.org/1999/xlink">
    <!-- Generator: Sketch 52.6 (67491) - http://www.bohemiancoding.com/sketch -->
    <title>Sales Management/sales-management</title>
    <desc>Created with Sketch.</desc>
    <defs>
        <path d="M42.7425,1.49663266 C44.3745,0.498877554 46.1865,0 48,0 C49.8135,0 51.627,0.498877554 53.256,1.49663266 L90.591,24.3316189 C93.933,26.3773408 96,30.2031485 96,34.3529027 L96,79.6470973 C96,83.7952317 93.933,87.6242789 90.591,89.6683811 L53.256,112.504987 C51.627,113.501122 49.8135,114 48,114 C46.1865,114 44.3745,113.501122 42.7425,112.504987 L5.409,89.6683811 C2.0655,87.6242789 0,83.7952317 0,79.6470973 L0,34.3529027 C0,30.2031485 2.0655,26.3773408 5.409,24.3316189 L42.7425,1.49663266 Z" id="path-1"></path>
        <path d="M2.0996122,36.7840419 L30.1738416,8.48648161 C31.7463574,6.90145642 33.9097077,6.0457036 36.1409973,6.12606394 L55.7739916,6.83315022 C58.3447417,6.9257363 60.4257353,8.95380665 60.5845004,11.5213194 L61.8759893,32.406987 C62.0185287,34.7121023 61.1579203,36.9663494 59.5154839,38.590011 L31.4873884,66.2977151 C30.3119334,67.4597334 28.4180142,67.4520676 27.2520043,66.280572 L2.10302716,41.0132777 C0.939417434,39.8441936 0.937891979,37.9550036 2.0996122,36.7840419 Z" id="path-3"></path>
        <filter x="-2.9%" y="-1.4%" width="104.1%" height="104.2%" filterUnits="objectBoundingBox" id="filter-4">
            <feOffset dx="-2" dy="2" in="SourceAlpha" result="shadowOffsetOuter1"></feOffset>
            <feColorMatrix values="0 0 0 0 0   0 0 0 0 0   0 0 0 0 0  0 0 0 0.1 0" type="matrix" in="shadowOffsetOuter1"></feColorMatrix>
        </filter>
        <path d="M24.8171985,24.6608389 L43.9620738,43.8057142 C44.8431924,44.6868328 44.8431924,46.1154082 43.9620738,46.9965268 L31.9965268,58.9620738 C31.1154082,59.8431924 29.6868328,59.8431924 28.8057142,58.9620738 L9.66083892,39.8171985 C8.77972036,38.93608 8.77972036,37.5075045 9.66083892,36.626386 L21.626386,24.6608389 C22.5075045,23.7797204 23.93608,23.7797204 24.8171985,24.6608389 Z" id="path-5"></path>
        <filter x="-8.4%" y="-2.8%" width="111.2%" height="111.2%" filterUnits="objectBoundingBox" id="filter-6">
            <feOffset dx="-2" dy="2" in="SourceAlpha" result="shadowOffsetOuter1"></feOffset>
            <feColorMatrix values="0 0 0 0 0   0 0 0 0 0   0 0 0 0 0  0 0 0 0.1 0" type="matrix" in="shadowOffsetOuter1"></feColorMatrix>
        </filter>
        <path d="M19.6343316,15.7150489 C19.6343316,18.2942665 17.5367305,20.3926289 14.9594907,20.3926289 C12.3817835,20.3926289 10.2846499,18.2942665 10.2846499,15.7150489 C10.2846499,13.1358313 12.3817835,11.0374689 14.9594907,11.0374689 C17.5367305,11.0374689 19.6343316,13.1358313 19.6343316,15.7150489 Z M26.100104,12.7120425 C25.9219925,12.6727509 25.6447745,12.4201615 25.5891439,12.2461556 C25.5821316,12.2222999 25.5732494,12.198912 25.5634323,12.1759919 L24.9636502,10.7175224 C24.9533655,10.6922635 24.9416784,10.6670045 24.9290564,10.6426811 C24.8449092,10.4813046 24.8612712,10.109437 24.9589753,9.95648014 L26.1547996,8.07609297 C26.6620199,7.27856557 26.5357992,6.13021968 25.8682319,5.46179349 L25.2067419,4.79991592 C24.5546016,4.14692575 23.3742043,4.01642126 22.5939733,4.51318026 L20.7142198,5.70923747 C20.651577,5.74993242 20.5033845,5.79343392 20.3276105,5.79343392 C20.1836254,5.79343392 20.0765715,5.76443292 20.0288882,5.73964174 C20.0050465,5.72654452 19.9793349,5.71531833 19.9536232,5.70502765 L18.4964753,5.10442638 C18.4735686,5.09507122 18.4501944,5.08618381 18.4263527,5.07916744 C18.2529161,5.02350424 18.0000072,4.74612375 17.9607386,4.56744019 L17.4778275,2.39283323 C17.272602,1.46994669 16.3717602,0.746792822 15.4269748,0.746792822 L14.4920067,0.746792822 C13.5467538,0.746792822 12.6463795,1.46994669 12.4416215,2.39236548 L11.9582429,4.56837571 C11.9185068,4.74612375 11.6660654,5.02350424 11.4926288,5.07916744 C11.4687871,5.08618381 11.4454129,5.09507122 11.4220387,5.10442638 L9.96489077,5.70502765 C9.93917914,5.71531833 9.913935,5.72654452 9.88962583,5.73964174 C9.84240994,5.76443292 9.73535608,5.79343392 9.5909035,5.79343392 C9.41512948,5.79343392 9.26693703,5.74946466 9.20382668,5.70923747 L7.32500814,4.51364802 C6.5447772,4.01688902 5.3639124,4.14786126 4.71223958,4.80038368 L4.0507496,5.46179349 C3.38271484,6.13068744 3.25696162,7.27903333 3.76418186,8.07656073 L4.96000615,9.95648014 C5.05724284,10.1099048 5.07360478,10.4808369 4.98992513,10.6422134 C4.97730306,10.6670045 4.96514847,10.6922635 4.95486382,10.7175224 L4.35508174,12.1759919 C4.34573206,12.198912 4.33684986,12.2222999 4.32937012,12.2461556 C4.27373951,12.4201615 3.99698893,12.6727509 3.81841001,12.7125103 L1.6450765,13.1952366 C0.722730396,13.4005823 -1.13686838e-13,14.3014842 -1.13686838e-13,15.2472909 L-1.13686838e-13,16.1828069 C-1.13686838e-13,17.1281458 0.722730396,18.0295155 1.64460901,18.2343935 L3.8188775,18.7175875 C3.99698893,18.757347 4.27373951,19.0099363 4.32937012,19.1839423 C4.33684986,19.2077979 4.34573206,19.2311858 4.35508174,19.254106 L4.95486382,20.7125754 C4.96514847,20.7378343 4.97683558,20.7626255 4.98992513,20.7874167 C5.07360478,20.9483255 5.05724284,21.3201931 4.95953866,21.4736177 L3.76418186,23.3535371 C3.25649414,24.1510645 3.38271484,25.2998782 4.0507496,25.9683043 L4.71223958,26.6301819 C5.36344491,27.2813011 6.54290726,27.4141443 7.32547562,26.9169176 L9.20335919,25.7208604 C9.26693703,25.6801654 9.41512948,25.6366639 9.5909035,25.6366639 C9.73535608,25.6366639 9.84240994,25.6651972 9.88962583,25.6904561 C9.91440249,25.7026178 9.93917914,25.7147795 9.96489077,25.7250702 L11.4220387,26.3256715 C11.4454129,26.3350266 11.4687871,26.3434463 11.4926288,26.3509304 C11.6660654,26.4065936 11.9185068,26.6839741 11.9582429,26.8621899 L12.4416215,29.0372646 C12.6463795,29.9601511 13.5467538,30.683305 14.4920067,30.683305 L15.4269748,30.683305 C16.3717602,30.683305 17.2721345,29.9601511 17.47736,29.0372646 L17.9607386,26.8621899 C18.0000072,26.6839741 18.2529161,26.4065936 18.4263527,26.3509304 C18.4501944,26.3434463 18.4735686,26.3350266 18.4964753,26.3256715 L19.9536232,25.7250702 C19.9793349,25.7147795 20.004579,25.7026178 20.0288882,25.6904561 C20.0765715,25.6651972 20.1836254,25.6366639 20.327143,25.6366639 C20.502917,25.6366639 20.651577,25.6801654 20.7142198,25.7208604 L22.5935059,26.9164498 C23.3732693,27.4141443 24.5546016,27.2822366 25.2067419,26.6301819 L25.8677644,25.9687721 C26.5357992,25.3003459 26.6620199,24.1515323 26.1547996,23.3535371 L24.9589753,21.4736177 C24.8612712,21.3201931 24.8449092,20.9487932 24.9290564,20.7878845 C24.9416784,20.7630933 24.9533655,20.7383021 24.9636502,20.7130432 L25.5634323,19.254106 C25.5732494,19.2311858 25.5821316,19.2077979 25.5891439,19.1839423 C25.6447745,19.0099363 25.9219925,18.757347 26.1005715,18.7175875 L28.2734375,18.2343935 C29.1962511,18.0295155 29.9189815,17.1281458 29.9189815,16.1828069 L29.9189815,15.2472909 C29.9189815,14.3014842 29.1962511,13.4005823 28.273905,13.1957043 L26.100104,12.7120425 Z" id="path-7"></path>
        <filter x="-3.3%" y="-3.3%" width="106.7%" height="113.4%" filterUnits="objectBoundingBox" id="filter-8">
            <feOffset dx="0" dy="2" in="SourceAlpha" result="shadowOffsetOuter1"></feOffset>
            <feColorMatrix values="0 0 0 0 0   0 0 0 0 0   0 0 0 0 0  0 0 0 0.1 0" type="matrix" in="shadowOffsetOuter1"></feColorMatrix>
        </filter>
        <path d="M0.416386815,10.5 C2.72195149,10.5 4.58943383,8.262 4.58943383,5.5 C4.58943383,2.738 2.72195149,0.5 0.416386815,0.5 L0.416386815,10.5 Z" id="path-9"></path>
    </defs>
    <g id="Badges" stroke="none" stroke-width="1" fill="none" fill-rule="evenodd">
        <g id="Sales-Management-1" transform="translate(-50.000000, -50.000000)">
            <g id="Sales-Management/sales-management" transform="translate(50.000000, 50.000000)">
                <g id="Mask" transform="translate(2.000000, 2.000000)">
                    <mask id="mask-2" fill="white">
                        <use xlink:href="#path-1"></use>
                    </mask>
                    <use id="Trophy-1" fill="#55A2FF" xlink:href="#path-1"></use>
                    <g id="Price-Tag" mask="url(#mask-2)">
                        <g transform="translate(47.436815, 60.436815) rotate(-45.000000) translate(-47.436815, -60.436815) translate(13.436815, 25.936815)">
                            <g id="Path-28" fill="none" fill-rule="nonzero">
                                <use fill="black" fill-opacity="1" filter="url(#filter-4)" xlink:href="#path-3"></use>
                                <use fill="#EFB252" xlink:href="#path-3"></use>
                            </g>
                            <circle id="Oval" fill="#F7CB64" fill-rule="nonzero" cx="49" cy="19" r="8"></circle>
                            <circle id="Oval" fill="#FFFFFF" fill-rule="nonzero" cx="49" cy="19" r="5"></circle>
                            <path d="M30.8439194,8 L27.3132419,66.1263628 L1.88176632,40.7687348 C0.708491216,39.5988666 0.705729348,37.6993737 1.87559752,36.5260986 C1.8820571,36.5196202 1.88854628,36.5131714 1.89506486,36.5067524 L30.8439194,8 Z" id="Path-29" fill="#F7CB64" fill-rule="nonzero"></path>
                            <g id="Rectangle" fill="none" fill-rule="nonzero">
                                <use fill="black" fill-opacity="1" filter="url(#filter-6)" xlink:href="#path-5"></use>
                                <use fill="#E6E6E6" xlink:href="#path-5"></use>
                            </g>
                            <path d="M29.365229,29.2190598 L27.6313038,57.7845673 L9.47988724,39.6444754 C8.69859497,38.8636706 8.69819981,37.5973407 9.47900463,36.8160484 C9.47952528,36.8155275 9.48004622,36.8150068 9.48056745,36.8144864 L21.8367056,24.4779237 C22.6183731,23.6974946 23.8847027,23.6984985 24.6651318,24.480166 C24.6666952,24.4817319 24.6682561,24.4833003 24.6698142,24.4848714 L29.365229,29.2190598 Z" id="Path-30" fill="#FFFFFF" fill-rule="nonzero"></path>
                            <g id="Group-9" stroke-width="1" fill="none" fill-rule="evenodd" transform="translate(45.000000, 0.000000)">
                                <path d="M11.3119478,-1.18917708 L11.8833764,-1.18917708 C12.9879459,-1.18917708 13.8833764,-0.293746582 13.8833764,0.810822918 L13.8833764,22.2393943 C13.8833764,23.3439638 12.9879459,24.2393943 11.8833764,24.2393943 L11.3119478,24.2393943 C10.2073783,24.2393943 9.31194782,23.3439638 9.31194782,22.2393943 L9.31194782,0.810822918 C9.31194782,-0.293746582 10.2073783,-1.18917708 11.3119478,-1.18917708 Z" id="Rectangle" fill="#546670" fill-rule="nonzero" transform="translate(11.597662, 11.525109) rotate(-315.000000) translate(-11.597662, -11.525109) "></path>
                                <path d="M11.262927,-0.381055047 L11.262927,-0.381055047 C12.5252921,-0.381055047 13.5486413,0.642294097 13.5486413,1.90465924 L13.5486413,22.7618021 C13.5486413,24.0241672 12.5252921,25.0475164 11.262927,25.0475164 L11.262927,-0.381055047 Z" id="Rectangle" fill="#30404D" fill-rule="nonzero" transform="translate(12.405784, 12.333231) rotate(-315.000000) translate(-12.405784, -12.333231) "></path>
                            </g>
                        </g>
                    </g>
                    <g id="Gear" mask="url(#mask-2)">
                        <g transform="translate(59.776197, 80.776197) rotate(-42.000000) translate(-59.776197, -80.776197) translate(37.276197, 58.276197)">
                            <g id="Group-10" stroke-width="1" fill="none" fill-rule="evenodd" transform="translate(22.851076, 22.918219) rotate(-45.000000) translate(-22.851076, -22.918219) translate(7.351076, 7.418219)">
                                <path d="M18.3843316,15.7150489 C18.3843316,13.8262041 16.8463913,12.2874689 14.9594907,12.2874689 C13.0723034,12.2874689 11.5346499,13.8260234 11.5346499,15.7150489 C11.5346499,17.6040745 13.0723034,19.1426289 14.9594907,19.1426289 C16.8463913,19.1426289 18.3843316,17.6038937 18.3843316,15.7150489 Z M28.5451992,11.9754996 C30.039628,12.3075775 31.1689815,13.7158844 31.1689815,15.2472909 L31.1689815,16.1828069 C31.1689815,17.714112 30.0392101,19.1228024 28.5447798,19.4545875 L26.6602349,19.8736657 L26.1744075,21.0553991 L27.2097325,22.6830026 C28.0309571,23.9750118 27.8339114,25.7697579 26.7519067,26.8523967 L26.0905673,27.5141234 C25.0231488,28.5814018 23.19446,28.7829301 21.9225393,27.971108 L20.2957243,26.9360813 L19.1168274,27.4219885 L18.6975547,29.3086036 C18.3651947,30.8032063 16.9576911,31.933305 15.4269748,31.933305 L14.4920067,31.933305 C12.9607225,31.933305 11.5529885,30.8030214 11.221391,29.308443 L10.8022014,27.4222 L9.62251275,26.9359028 L7.9958297,27.9719652 C6.72041667,28.7823346 4.89480225,28.5803704 3.82809727,27.5138065 L3.16660729,26.8519289 C2.08439055,25.7690781 1.88749549,23.9738958 2.70936222,22.6828244 L3.7442335,21.0552986 L3.25822932,19.8734882 L1.37342565,19.4546228 C-0.120582137,19.122595 -1.25,17.7137892 -1.25,16.1828069 L-1.25,15.2472909 C-1.25,13.716014 -0.120818404,12.307781 1.3740401,11.9749746 L3.25828743,11.5564584 L3.74439654,10.3744198 L2.709427,8.74737531 C1.88799846,7.45580268 2.0845901,5.66157763 3.16691969,4.57785645 L3.8277805,3.91707618 C4.89423816,2.84922815 6.72214018,2.64796224 7.99609358,3.45906548 L9.62260431,4.49409879 L10.8022713,4.0079255 L11.2213249,2.1214847 C11.5530921,0.626899677 12.9608838,-0.503207178 14.4920067,-0.503207178 L15.4269748,-0.503207178 C16.9577017,-0.503207178 18.3656646,0.626902195 18.6981011,2.12184927 L19.1169921,4.00817794 L20.2955861,4.49402394 L21.9226401,3.45875548 C23.1969856,2.64740259 25.0243967,2.84841391 26.0908842,3.91629135 L26.7526834,4.57847845 C27.8340475,5.66123387 28.0308891,7.45548255 27.2095761,8.7468736 L26.1742809,10.3748309 L26.6599228,11.5560334 L28.5451992,11.9754996 Z M28.5451992,11.9754996 L28.5453862,11.9755412 L28.5449574,11.9754459 C28.545038,11.9754638 28.5451186,11.9754817 28.5451992,11.9754996 Z" id="Fill-376" stroke="#55A2FF" stroke-width="2.5"></path>
                                <g id="Fill-376">
                                    <use fill="black" fill-opacity="1" filter="url(#filter-8)" xlink:href="#path-7"></use>
                                    <use fill="#546670" fill-rule="evenodd" xlink:href="#path-7"></use>
                                </g>
                                <path d="M9.24571958,25.8297559 C9.30956527,25.7888902 9.45838206,25.7452062 9.63489661,25.7452062 C9.77995777,25.7452062 9.88746264,25.7738592 9.93487745,25.7992241 C9.95975849,25.8114368 9.98463953,25.8236495 10.0104595,25.8339833 L11.4737463,26.4371039 C11.497219,26.4464983 11.5206917,26.4549533 11.5446338,26.4624688 C11.7188011,26.5183655 11.972306,26.7969095 12.0122096,26.9758728 L12.4976246,29.1600711 C12.7032453,30.0868288 13.6074129,30.813016 14.556648,30.813016 L15.4955552,30.813016 C16.4443209,30.813016 17.3484885,30.0868288 17.5545787,29.1600711 L18.0399937,26.9758728 C18.0794278,26.7969095 18.3334022,26.5183655 18.5075695,26.4624688 C18.5315116,26.4549533 18.5549843,26.4464983 18.5779875,26.4371039 L20.0412743,25.8339833 C20.0670943,25.8236495 20.0924448,25.8114368 20.1168564,25.7992241 C20.1647406,25.7738592 20.2722455,25.7452062 20.4163678,25.7452062 C20.5928823,25.7452062 20.7421685,25.7888902 20.8050753,25.8297559 L22.6922788,27.0303603 C23.4753274,27.5301425 24.6616366,27.3976814 25.3165243,26.7428917 L25.9803317,26.0787075 C26.6511809,25.4074775 26.7779334,24.253845 26.2685762,23.4525026 L25.0677139,21.5646977 C24.9695981,21.4106295 24.9531673,21.0376718 25.0376689,20.8760881 C25.0503441,20.8511929 25.0620805,20.8262978 25.0724085,20.8009329 L25.6747174,19.335876 C25.6845759,19.3128597 25.6934956,19.2893737 25.7005374,19.265418 C25.7564023,19.0906821 26.0347883,18.8370333 26.2141196,18.7971071 L28.3961399,18.3118863 C29.3228413,18.1061489 30.0486165,17.2009983 30.0486165,16.2516941 L30.0486165,15.3122539 C30.0486165,14.36248 29.3228413,13.4577991 28.3966093,13.2520617 L26.2136501,12.7663712 C26.0347883,12.7269147 25.7564023,12.4732659 25.7005374,12.29853 C25.6934956,12.2745743 25.6845759,12.2510883 25.6747174,12.228072 L25.0724085,10.7634848 C25.0620805,10.73812 25.0503441,10.7127551 25.0376689,10.6883296 C24.9531673,10.5262762 24.9695981,10.1528488 25.0677139,9.99925031 L26.2685762,8.11097565 C26.7779334,7.31010295 26.5999336,6.20821754 25.9295538,5.53698757 L25.3092689,4.91634532 L18.1382476,12.0915684 C18.9884281,12.9422315 19.7206375,14.4869558 19.7206375,15.781974 C19.7206375,18.3720104 17.6141993,20.4791746 15.0261016,20.4791746 C13.7318181,20.4791746 12.3250367,19.6090574 11.4748563,18.7588641 L4.11559154,26.1224409 L4.73567894,26.7428917 C5.38962779,27.396742 6.5740592,27.5301425 7.35992451,27.0308301 L9.24571958,25.8297559 Z" id="Fill-377" fill="#30404D"></path>
                            </g>
                            <circle id="Oval" fill="#55A2FF" fill-rule="nonzero" cx="22" cy="23" r="5"></circle>
                            <g id="Group-11" stroke-width="1" fill="none" fill-rule="evenodd" transform="translate(18.000000, 18.000000)">
                                <path d="M5.00665509,10 C7.77233137,10 10.0133102,7.762 10.0133102,5 C10.0133102,2.238 7.77233137,0 5.00665509,0 C2.24198015,0 0,2.238 0,5 C0,7.762 2.24198015,10 5.00665509,10 Z" id="Stroke-4" stroke="#30404D" stroke-width="2"></path>
                                <g id="Group-8" transform="translate(5.006655, 0.000000)">
                                    <mask id="mask-10" fill="white">
                                        <use xlink:href="#path-9"></use>
                                    </mask>
                                    <g id="Clip-7"></g>
                                    <polygon id="Stroke-6" stroke="#C4C4C4" mask="url(#mask-10)" points="-7.9272039 15.5 8.76164641 15.5 8.76164641 -4.5 -7.9272039 -4.5"></polygon>
                                </g>
                                <path d="M5.00665509,10 C7.77233137,10 10.0133102,7.762 10.0133102,5 C10.0133102,2.238 7.77233137,0 5.00665509,0" id="Stroke-9" stroke="#546670" stroke-width="2"></path>
                            </g>
                        </g>
                    </g>
                </g>
                <g id="Azure-Hex-Border" stroke="#0078D4" stroke-width="4">
                    <path d="M45.5620146,3.25834407 L6.67338401,26.8942953 C3.79673288,28.6432593 2,31.9508238 2,35.5582677 L2,82.4417323 C2,86.0486597 3.79764663,89.3586805 6.67318764,91.1055853 L45.560618,114.742485 C46.9289662,115.572418 48.4546283,116 50,116 C51.5458817,116 53.0723633,115.572188 54.4362178,114.743457 L93.3268764,91.1055464 C96.2016145,89.3583456 98,86.0476286 98,82.4417323 L98,35.5582677 C98,31.9518547 96.202529,28.6435953 93.3268966,26.8944659 L54.4351916,3.25759524 C53.0721095,2.42798656 51.5462432,2 50,2 C48.4543284,2 46.9293388,2.42772325 45.5620146,3.25834407 Z M45.5620146,3.25834407 C45.5619597,3.25837737 45.5619049,3.25841067 45.5618501,3.25844398 L45.5621963,3.25823359 L45.5620146,3.25834407 Z"></path>
                </g>
            </g>
        </g>
    </g>
</svg>