<svg width="96" height="96" viewBox="0 0 96 96" fill="none" xmlns="http://www.w3.org/2000/svg">
<g clip-path="url(#clip0)">
<mask id="mask0" mask-type="alpha" maskUnits="userSpaceOnUse" x="6" y="0" width="84" height="96">
<path fill-rule="evenodd" clip-rule="evenodd" d="M8.44579 16.6795C6.96359 17.3045 6 18.7566 6 20.3652V42V66C6 80.5702 36.8517 92.2021 45.6712 95.2296C47.1968 95.7533 48.8032 95.7533 50.3288 95.2296C59.1483 92.2021 90 80.5702 90 66V42V41.999V20.3652C90 18.7566 89.0364 17.3045 87.5542 16.6795L49.5542 0.65542C48.5604 0.236361 47.4396 0.236361 46.4458 0.65542L8.44579 16.6795ZM17.4599 37.1675L6.05344 41.9775L17.4586 37.1689C17.4591 37.1684 17.4595 37.168 17.4599 37.1675Z" fill="url(#paint0_linear)"/>
</mask>
<g mask="url(#mask0)">
<path d="M90 66C90 80.5702 59.1483 92.202 50.3288 95.2295C48.8032 95.7532 47.1968 95.7532 45.6712 95.2295C36.8517 92.202 6 80.5702 6 66C6 42.804 24.804 24 48 24C71.196 24 90 42.804 90 66Z" fill="url(#paint1_linear)"/>
<g filter="url(#filter0_f)">
<path d="M6 43.9987L46.4479 26.9452C47.4415 26.5263 48.5622 26.5263 49.5559 26.9453L90 43.9976V67.9987L49.5542 50.9432C48.5604 50.5242 47.4396 50.5242 46.4458 50.9432L6 67.9987V43.9987Z" fill="black" fill-opacity="0.32"/>
</g>
<g filter="url(#filter1_f)">
<path d="M6 42.3787L46.4479 25.3252C47.4415 24.9063 48.5622 24.9063 49.5559 25.3253L90 42.3776V66.3787L49.5542 49.3232C48.5604 48.9042 47.4396 48.9042 46.4458 49.3232L6 66.3787V42.3787Z" fill="black" fill-opacity="0.24"/>
</g>
<path d="M6 42L46.4479 24.9466C47.4415 24.5276 48.5622 24.5276 49.5559 24.9466L90 41.999V66L49.5542 48.9446C48.5604 48.5255 47.4396 48.5255 46.4458 48.9446L6 66V42Z" fill="url(#paint2_linear)"/>
<g filter="url(#filter2_f)">
<path d="M6 22.3652C6 20.7566 6.96359 19.3045 8.44579 18.6795L46.4458 2.65539C47.4396 2.23633 48.5604 2.23633 49.5542 2.65539L87.5542 18.6795C89.0364 19.3045 90 20.7566 90 22.3652V44L49.5542 26.9445C48.5604 26.5255 47.4396 26.5255 46.4458 26.9445L6 44V22.3652Z" fill="black" fill-opacity="0.32"/>
</g>
<g filter="url(#filter3_f)">
<path d="M6 20.7452C6 19.1366 6.96359 17.6845 8.44579 17.0595L46.4458 1.0354C47.4396 0.616336 48.5604 0.616336 49.5542 1.0354L87.5542 17.0595C89.0364 17.6845 90 19.1366 90 20.7452V42.38L49.5542 25.3246C48.5604 24.9055 47.4396 24.9055 46.4458 25.3246L6 42.38V20.7452Z" fill="black" fill-opacity="0.24"/>
</g>
<path d="M6 20.3652C6 18.7566 6.96359 17.3045 8.44579 16.6795L46.4458 0.655391C47.4396 0.236331 48.5604 0.236331 49.5542 0.655391L87.5542 16.6795C89.0364 17.3045 90 18.7566 90 20.3652V42L49.5542 24.9445C48.5604 24.5255 47.4396 24.5255 46.4458 24.9445L6 42V20.3652Z" fill="url(#paint3_linear)"/>
</g>
</g>
<defs>
<filter id="filter0_f" x="-2" y="18.631" width="100" height="57.3676" filterUnits="userSpaceOnUse" color-interpolation-filters="sRGB">
<feFlood flood-opacity="0" result="BackgroundImageFix"/>
<feBlend mode="normal" in="SourceGraphic" in2="BackgroundImageFix" result="shape"/>
<feGaussianBlur stdDeviation="4" result="effect1_foregroundBlur"/>
</filter>
<filter id="filter1_f" x="5.24" y="24.251" width="85.52" height="42.8876" filterUnits="userSpaceOnUse" color-interpolation-filters="sRGB">
<feFlood flood-opacity="0" result="BackgroundImageFix"/>
<feBlend mode="normal" in="SourceGraphic" in2="BackgroundImageFix" result="shape"/>
<feGaussianBlur stdDeviation="0.38" result="effect1_foregroundBlur"/>
</filter>
<filter id="filter2_f" x="-2" y="-5.65887" width="100" height="57.6589" filterUnits="userSpaceOnUse" color-interpolation-filters="sRGB">
<feFlood flood-opacity="0" result="BackgroundImageFix"/>
<feBlend mode="normal" in="SourceGraphic" in2="BackgroundImageFix" result="shape"/>
<feGaussianBlur stdDeviation="4" result="effect1_foregroundBlur"/>
</filter>
<filter id="filter3_f" x="5.24" y="-0.0388696" width="85.52" height="43.1789" filterUnits="userSpaceOnUse" color-interpolation-filters="sRGB">
<feFlood flood-opacity="0" result="BackgroundImageFix"/>
<feBlend mode="normal" in="SourceGraphic" in2="BackgroundImageFix" result="shape"/>
<feGaussianBlur stdDeviation="0.38" result="effect1_foregroundBlur"/>
</filter>
<linearGradient id="paint0_linear" x1="7" y1="-19.2289" x2="31.9014" y2="62.779" gradientUnits="userSpaceOnUse">
<stop stop-color="#FFED80"/>
<stop offset="0.961333" stop-color="#FFDB00"/>
</linearGradient>
<linearGradient id="paint1_linear" x1="6" y1="24" x2="102.908" y2="53.2825" gradientUnits="userSpaceOnUse">
<stop stop-color="#EA8200"/>
<stop offset="1" stop-color="#C46A08"/>
</linearGradient>
<linearGradient id="paint2_linear" x1="6" y1="24.2914" x2="89.1358" y2="67.6568" gradientUnits="userSpaceOnUse">
<stop stop-color="#FAC240"/>
<stop offset="1" stop-color="#F29800"/>
</linearGradient>
<linearGradient id="paint3_linear" x1="7" y1="-19.2289" x2="31.9014" y2="62.779" gradientUnits="userSpaceOnUse">
<stop stop-color="#FFED80"/>
<stop offset="0.961333" stop-color="#FFDB00"/>
</linearGradient>
<clipPath id="clip0">
<rect width="96" height="96" fill="white"/>
</clipPath>
</defs>
</svg>
