<svg width="106" height="106" viewBox="0 0 106 106" fill="none" xmlns="http://www.w3.org/2000/svg">
<g filter="url(#filter0_d)">
<circle cx="53" cy="53" r="49" fill="#5197D5"/>
<circle cx="53" cy="53" r="50.75" stroke="#F2F1F0" stroke-width="3.5"/>
</g>
<circle cx="53" cy="53" r="48" stroke="#0078D4" stroke-width="4"/>
<path d="M93.5465 59.6788C93.25 50.6232 86.4639 43.1024 77.4863 41.8799C76.9168 29.1344 66.2169 19.209 53.4647 19.5969C43.3066 19.4368 34.1462 25.6842 30.5869 35.1996C19.7415 36.4697 11.4764 45.5145 11.1865 56.4302C11.658 68.7796 22.0339 78.4188 34.3846 77.981H36.3978H73.9631C74.2982 78.0063 74.6347 78.0063 74.9698 77.981C85.0832 77.8853 93.3003 69.7897 93.5465 59.6788Z" fill="url(#paint0_linear)"/>
<g filter="url(#filter1_d)">
<path fill-rule="evenodd" clip-rule="evenodd" d="M46.5465 33.5873C46.1512 32.7215 45.6072 31.9318 44.9391 31.254C51.9246 28.5489 59.8084 29.6053 65.8353 34.054L65.5242 34.2873C64.9303 34.7786 64.4448 35.3877 64.0983 36.0762C60.833 33.7152 56.9018 32.4532 52.8724 32.4725C50.7166 32.4908 48.5788 32.8676 46.5465 33.5873ZM37.706 40.0946C33.6051 45.422 32.6196 52.5179 35.1134 58.7612C34.2837 59.1232 33.5211 59.6228 32.8579 60.2389C29.7009 52.8134 30.8652 44.2551 35.8912 37.9428C36.279 38.8181 36.9086 39.5647 37.706 40.0946ZM70.6318 44.5277C73.1264 50.7623 72.1405 57.8511 68.0392 63.1684C68.4598 63.4573 68.8355 63.8067 69.154 64.2054C69.4352 64.5447 69.6706 64.9195 69.854 65.3202C74.88 59.0079 76.0444 50.4496 72.8874 43.024C72.2251 43.6482 71.4627 44.1565 70.6318 44.5277ZM52.8724 70.7911C55.0234 70.8185 57.1631 70.4765 59.1983 69.78C59.6243 70.6243 60.1947 71.3876 60.8835 72.0355C53.8689 74.7419 45.9577 73.676 39.9096 69.2096L40.2207 68.9763C40.8202 68.4905 41.3068 67.8801 41.6466 67.1874C44.911 69.55 48.8428 70.8121 52.8724 70.7911Z" fill="#0078D4"/>
<path d="M42.9687 33.1473C45.0378 35.2798 45.0035 38.6807 42.892 40.7711C40.7804 42.8615 37.3793 42.8615 35.2678 40.7711C33.1562 38.6807 33.122 35.2798 35.191 33.1473C36.2115 32.0955 37.6144 31.502 39.0799 31.502C40.5453 31.502 41.9483 32.0955 42.9687 33.1473Z" fill="#32BEDD"/>
<path d="M40.9987 38.8503C41.5139 38.3609 41.8056 37.6814 41.8056 36.9707C41.8056 36.2601 41.5139 35.5806 40.9987 35.0911C40.5119 34.6003 39.8492 34.3242 39.1579 34.3242C38.4666 34.3242 37.804 34.6003 37.3172 35.0911C36.802 35.5806 36.5103 36.2601 36.5103 36.9707C36.5103 37.6814 36.802 38.3609 37.3172 38.8503C37.8059 39.3573 38.4797 39.6437 39.1839 39.6437C39.888 39.6437 40.5619 39.3573 41.0505 38.8503" fill="white"/>
<path d="M63.7095 33.1478C65.842 31.0787 69.243 31.113 71.3334 33.2245C73.4238 35.3361 73.4238 38.7372 71.3334 40.8488C69.243 42.9603 65.842 42.9946 63.7095 40.9255C61.6033 38.8112 61.6033 35.3918 63.7095 33.2774V33.1478Z" fill="#32BEDD"/>
<path d="M69.4131 35.0909C68.3876 34.1166 66.7703 34.1443 65.7787 35.153C64.787 36.1618 64.787 37.7792 65.7787 38.788C66.7703 39.7968 68.3876 39.8244 69.4131 38.8501C69.9284 38.3607 70.2201 37.6812 70.2201 36.9705C70.2201 36.2599 69.9284 35.5804 69.4131 35.0909Z" fill="white"/>
<path d="M62.776 70.1165C60.7069 67.984 60.7412 64.583 62.8527 62.4926C64.9643 60.4022 68.3654 60.4022 70.4769 62.4926C72.5885 64.583 72.6227 67.984 70.5537 70.1165C69.5332 71.1682 68.1303 71.7618 66.6648 71.7618C65.1994 71.7618 63.7964 71.1682 62.776 70.1165Z" fill="#32BEDD"/>
<path d="M64.7469 64.4135C64.2317 64.903 63.9399 65.5825 63.9399 66.2931C63.9399 67.0038 64.2317 67.6833 64.7469 68.1728C65.2355 68.6797 65.9094 68.9661 66.6135 68.9661C67.3177 68.9661 67.9915 68.6797 68.4802 68.1728C68.9954 67.6833 69.2871 67.0038 69.2871 66.2931C69.2871 65.5825 68.9954 64.903 68.4802 64.4135C67.9915 63.9065 67.3177 63.6201 66.6135 63.6201C65.9094 63.6201 65.2355 63.9065 64.7469 64.4135Z" fill="white"/>
<path d="M42.0354 70.1148C40.4874 71.6688 38.1551 72.1362 36.1278 71.2987C34.1005 70.4613 32.7781 68.4842 32.7781 66.2907C32.7781 64.0972 34.1005 62.1201 36.1278 61.2827C38.1551 60.4452 40.4874 60.9127 42.0354 62.4667C44.1416 64.581 44.1416 68.0004 42.0354 70.1148Z" fill="#32BEDD"/>
<path d="M36.3318 68.1734C37.3574 69.1477 38.9746 69.12 39.9663 68.1113C40.958 67.1025 40.958 65.485 39.9663 64.4763C38.9746 63.4675 37.3574 63.4399 36.3318 64.4141C35.8166 64.9036 35.5249 65.5831 35.5249 66.2938C35.5249 67.0044 35.8166 67.6839 36.3318 68.1734Z" fill="white"/>
</g>
<g filter="url(#filter2_d)">
<path d="M64.8089 52.1955C64.8089 59.5768 55.7517 65.5206 53.7695 66.732C53.5431 66.8756 53.2545 66.8756 53.0281 66.732C51.0459 65.5368 41.9888 59.593 41.9888 52.1955V43.3121C41.9887 42.9258 42.2964 42.6102 42.6818 42.6014C49.7405 42.4238 48.1128 39.3711 53.3988 39.3711C58.6848 39.3711 57.0571 42.4238 64.1159 42.6014C64.5012 42.6102 64.809 42.9258 64.8089 43.3121V52.1955Z" fill="#0078D4"/>
<path d="M63.9637 52.0762C63.9637 58.6838 55.5807 63.9856 53.7449 65.0554C53.5358 65.1804 53.2717 65.1804 53.0626 65.0554C51.2268 63.9856 42.8438 58.6838 42.8438 52.0762V44.2099C42.8104 44.0235 42.8633 43.8322 42.9884 43.6868C43.1135 43.5415 43.2982 43.4566 43.4936 43.4548C50.0245 43.3447 48.5299 40.6387 53.4037 40.6387C58.2776 40.6387 56.7829 43.3447 63.3139 43.4548C63.6691 43.4631 63.9551 43.74 63.9637 44.0841V52.0762Z" fill="url(#paint1_linear)"/>
</g>
<g filter="url(#filter3_d)">
<path fill-rule="evenodd" clip-rule="evenodd" d="M55.3049 64.2885H55.616C55.6861 64.2861 55.754 64.3148 55.8029 64.3677C55.8518 64.4206 55.8771 64.4926 55.8727 64.5662V67.5715C55.8727 67.6423 55.8454 67.71 55.7971 67.7593C55.7487 67.8085 55.6834 67.8351 55.616 67.8329H51.1823C51.1149 67.8351 51.0496 67.8085 51.0012 67.7593C50.9529 67.71 50.9256 67.6423 50.9256 67.5715V64.5662C50.9207 64.4896 50.9481 64.4147 51.0005 64.3612C51.0529 64.3077 51.1251 64.2811 51.1979 64.2885H51.509V63.1288C51.5028 62.581 51.6978 62.0516 52.0535 61.6507C52.4024 61.2545 52.893 61.0293 53.4069 61.0293C53.9209 61.0293 54.4114 61.2545 54.7604 61.6507C55.1154 62.0521 55.3103 62.5811 55.3049 63.1288V64.2885ZM52.3877 63.1123V64.2883H54.4101V63.1041C54.4088 62.8734 54.341 62.6484 54.2156 62.4589C54.1785 62.401 54.1369 62.3464 54.0912 62.2956C53.9155 62.0878 53.6635 61.9689 53.3989 61.9689C53.1343 61.9689 52.8823 62.0878 52.7066 62.2956C52.5027 62.5135 52.3882 62.8067 52.3877 63.1123Z" fill="#FFBD02"/>
<path d="M51.1872 64.3273H55.7067C55.768 64.3276 55.8272 64.3511 55.8732 64.3934L51.0207 67.8321C50.9635 67.783 50.9289 67.7109 50.9256 67.6337V64.6083C50.921 64.5339 50.9469 64.461 50.9967 64.4074C51.0465 64.3539 51.1157 64.3248 51.1872 64.3273Z" fill="#FFE452"/>
<path opacity="0.5" d="M55.611 64.3273H51.0916C51.0302 64.3276 50.9711 64.3511 50.925 64.3934L55.7775 67.8321C55.8374 67.7852 55.8727 67.7118 55.8727 67.6337V64.6083C55.8772 64.5339 55.8514 64.461 55.8015 64.4074C55.7517 64.3539 55.6825 64.3248 55.611 64.3273Z" fill="#FFD400"/>
</g>
<defs>
<filter id="filter0_d" x="0.5" y="0.5" width="105.5" height="105.5" filterUnits="userSpaceOnUse" color-interpolation-filters="sRGB">
<feFlood flood-opacity="0" result="BackgroundImageFix"/>
<feColorMatrix in="SourceAlpha" type="matrix" values="0 0 0 0 0 0 0 0 0 0 0 0 0 0 0 0 0 0 127 0"/>
<feOffset dx="0.5" dy="0.5"/>
<feColorMatrix type="matrix" values="0 0 0 0 0.823529 0 0 0 0 0.831373 0 0 0 0 0.835294 0 0 0 1 0"/>
<feBlend mode="normal" in2="BackgroundImageFix" result="effect1_dropShadow"/>
<feBlend mode="normal" in="SourceGraphic" in2="effect1_dropShadow" result="shape"/>
</filter>
<filter id="filter1_d" x="27.105" y="27.7773" width="51.5353" height="51.732" filterUnits="userSpaceOnUse" color-interpolation-filters="sRGB">
<feFlood flood-opacity="0" result="BackgroundImageFix"/>
<feColorMatrix in="SourceAlpha" type="matrix" values="0 0 0 0 0 0 0 0 0 0 0 0 0 0 0 0 0 0 127 0"/>
<feOffset dy="2"/>
<feGaussianBlur stdDeviation="2"/>
<feColorMatrix type="matrix" values="0 0 0 0 0 0 0 0 0 0 0 0 0 0 0 0 0 0 0.15 0"/>
<feBlend mode="normal" in2="BackgroundImageFix" result="effect1_dropShadow"/>
<feBlend mode="normal" in="SourceGraphic" in2="effect1_dropShadow" result="shape"/>
</filter>
<filter id="filter2_d" x="37.9888" y="37.3711" width="30.8201" height="35.4686" filterUnits="userSpaceOnUse" color-interpolation-filters="sRGB">
<feFlood flood-opacity="0" result="BackgroundImageFix"/>
<feColorMatrix in="SourceAlpha" type="matrix" values="0 0 0 0 0 0 0 0 0 0 0 0 0 0 0 0 0 0 127 0"/>
<feOffset dy="2"/>
<feGaussianBlur stdDeviation="2"/>
<feColorMatrix type="matrix" values="0 0 0 0 0 0 0 0 0 0 0 0 0 0 0 0 0 0 0.15 0"/>
<feBlend mode="normal" in2="BackgroundImageFix" result="effect1_dropShadow"/>
<feBlend mode="normal" in="SourceGraphic" in2="effect1_dropShadow" result="shape"/>
</filter>
<filter id="filter3_d" x="46.925" y="59.0293" width="12.9481" height="14.8037" filterUnits="userSpaceOnUse" color-interpolation-filters="sRGB">
<feFlood flood-opacity="0" result="BackgroundImageFix"/>
<feColorMatrix in="SourceAlpha" type="matrix" values="0 0 0 0 0 0 0 0 0 0 0 0 0 0 0 0 0 0 127 0"/>
<feOffset dy="2"/>
<feGaussianBlur stdDeviation="2"/>
<feColorMatrix type="matrix" values="0 0 0 0 0 0 0 0 0 0 0 0 0 0 0 0 0 0 0.15 0"/>
<feBlend mode="normal" in2="BackgroundImageFix" result="effect1_dropShadow"/>
<feBlend mode="normal" in="SourceGraphic" in2="effect1_dropShadow" result="shape"/>
</filter>
<linearGradient id="paint0_linear" x1="114.976" y1="95.0936" x2="114.976" y2="6.28207" gradientUnits="userSpaceOnUse">
<stop stop-color="#00345B"/>
<stop offset="0.885417" stop-color="#3B80D1"/>
</linearGradient>
<linearGradient id="paint1_linear" x1="63.9689" y1="65.1498" x2="63.9689" y2="40.6387" gradientUnits="userSpaceOnUse">
<stop stop-color="#0078D4"/>
<stop offset="0.06" stop-color="#0A7CD7"/>
<stop offset="0.34" stop-color="#2E8CE1"/>
<stop offset="0.59" stop-color="#4897E9"/>
<stop offset="0.82" stop-color="#589EED"/>
<stop offset="1" stop-color="#5EA0EF"/>
</linearGradient>
</defs>
</svg>
