<svg width="256" height="256" viewBox="0 0 256 256" fill="none" xmlns="http://www.w3.org/2000/svg">
<path d="M90.5167 90.4767C111.215 111.174 144.772 111.174 165.47 90.4766C186.168 69.7789 186.168 36.2211 165.47 15.5233C144.772 -5.17444 111.215 -5.17445 90.5167 15.5233C69.819 36.2211 69.819 69.7789 90.5167 90.4767Z" fill="url(#paint0_linear_561:36654)"/>
<path d="M192 222.43L253.714 146.095C256.788 142.261 256.823 136.817 253.447 133.234C217.339 94.9169 163.092 97.0349 128.983 139.574L64 222.43C99.8898 267.19 156.11 267.19 192 222.43Z" fill="url(#paint1_linear_561:36654)"/>
<path d="M64 222.43L2.28595 146.094C-0.787876 142.26 -0.823055 136.816 2.55311 133.234C38.6604 94.9174 92.9077 97.035 127.017 139.573L192 222.43C156.11 267.189 99.8898 267.189 64 222.43Z" fill="url(#paint2_linear_561:36654)"/>
<defs>
<linearGradient id="paint0_linear_561:36654" x1="161.122" y1="92.7516" x2="126.306" y2="1.56046" gradientUnits="userSpaceOnUse">
<stop stop-color="#5077CB"/>
<stop offset="1" stop-color="#72E4ED"/>
</linearGradient>
<linearGradient id="paint1_linear_561:36654" x1="126.333" y1="191.528" x2="215.893" y2="73.3661" gradientUnits="userSpaceOnUse">
<stop stop-color="#213781"/>
<stop offset="0.667497" stop-color="#6C7EE5"/>
<stop offset="0.980043" stop-color="#B7A1ED"/>
</linearGradient>
<linearGradient id="paint2_linear_561:36654" x1="41.0167" y1="117.84" x2="89.8303" y2="266.783" gradientUnits="userSpaceOnUse">
<stop stop-color="#4AA5D9"/>
<stop offset="0.562399" stop-color="#436DCD"/>
<stop offset="0.999411" stop-color="#213781"/>
</linearGradient>
</defs>
</svg>
