<?xml version="1.0" encoding="UTF-8" standalone="no"?>
<svg xmlns="http://www.w3.org/2000/svg" viewBox="0 0 49 49" data-slug-id="sql-database-blue">
  <path fill="#0078d4" d="m 6.40421 7.40442 v 34.1958 c 0 3.5243 7.88969 6.4772 17.6804 6.4772 v -40.673 Z" />
  <path fill="#0072c5" d="m 23.8946 48.0774 h 0.2852 c 9.7907 0 17.6804 -2.8576 17.6804 -6.4772 v -34.1958 h -17.9656 Z" />
  <path fill="#0078d4" d="m 23.7043 48.0779 h 0.2852 c 9.8858 0 17.9656 -2.8576 17.9656 -6.4772 v -34.291 h -18.1557 Z" />
  <path fill="#fff" d="m 41.8584 7.40553 c 0 3.52437 -7.8897 6.47717 -17.6805 6.47717 c -9.7907 0 -17.6804 -2.8576 -17.6804 -6.47717 c 0 -3.6196 7.88969 -6.47718 17.6804 -6.47718 c 9.7908 0 17.6805 2.95284 17.6805 6.47718 Z" />
  <path fill="#50e6ff" d="m 38.2481 7.0238 c 0 2.38132 -6.2737 4.2864 -14.0683 4.2864 s -14.0683 -1.90508 -14.0683 -4.2864 s 6.2737 -4.28637 14.0683 -4.28637 s 14.0683 1.90505 14.0683 4.28637 Z" />
  <path fill="#50e6ff" d="m 35.3013 9.59563 c 1.8061 -0.76202 2.9468 -1.6193 2.9468 -2.57183 c 0 -2.38132 -6.2737 -4.28637 -14.0683 -4.28637 s -14.0683 1.90505 -14.0683 4.28637 c 0 0.95253 1.1407 1.90506 2.9467 2.57183 c 2.5665 -1.04778 6.654 -1.6193 11.1216 -1.6193 s 8.555 0.66677 11.1215 1.6193 Z" />
  <g fill="#fff">
    <path d="m 18.4752 31.122 c 0 1.0478 -0.3803 1.9051 -1.1407 2.4766 c -0.7605 0.5715 -1.8061 0.8573 -3.2319 0.8573 c -1.1407 0 -2.0913 -0.1905 -2.8517 -0.6668 v -2.4766 c 0.8555 0.7621 1.9011 1.1431 2.9467 1.1431 c 0.4753 0 0.9506 -0.0953 1.2358 -0.2858 c 0.2851 -0.1905 0.3802 -0.4762 0.3802 -0.8573 c 0 -0.381 -0.0951 -0.6667 -0.3802 -0.8572 c -0.2852 -0.2858 -0.8555 -0.5715 -1.711 -0.9526 c -1.7111 -0.762 -2.5666 -1.905 -2.5666 -3.2386 c 0 -1.0477 0.3803 -1.8098 1.1407 -2.3813 c 0.7605 -0.5715 1.711 -0.9525 2.9467 -0.9525 c 1.0457 0 1.9962 0.1905 2.7567 0.4763 v 2.3813 c -0.7605 -0.4763 -1.616 -0.762 -2.5665 -0.762 c -0.4753 0 -0.8555 0.0952 -1.1407 0.2857 s -0.3802 0.4763 -0.3802 0.8573 s 0.095 0.6668 0.3802 0.8573 c 0.1901 0.1905 0.6654 0.4762 1.4258 0.8572 c 1.0456 0.4763 1.8061 0.9526 2.2814 1.5241 c 0.2851 0.381 0.4753 0.9525 0.4753 1.7145 Z" />
    <path d="m 27.8868 28.7412 c 0 -1.143 -0.2852 -2.0003 -0.7604 -2.6671 c -0.4753 -0.6667 -1.1407 -0.9525 -1.9962 -0.9525 s -1.616 0.2858 -2.0913 0.9525 c -0.5703 0.6668 -0.7604 1.5241 -0.7604 2.6671 c 0 1.0478 0.2852 2.0003 0.7604 2.6671 c 0.4753 0.6668 1.2358 0.9525 2.0913 0.9525 s 1.5209 -0.2857 2.0912 -0.9525 c 0.3802 -0.6668 0.6654 -1.5241 0.6654 -2.6671 Z m 2.6616 -0.0952 c 0 1.3335 -0.2852 2.4765 -0.8555 3.4291 c -0.5704 0.9525 -1.4259 1.6193 -2.5665 2.0003 l 3.2319 3.0481 h -3.2319 l -2.2814 -2.5719 c -0.9506 0 -1.9011 -0.2857 -2.6616 -0.762 c -0.7604 -0.4763 -1.4258 -1.143 -1.806 -2.0003 c -0.4753 -0.8573 -0.6654 -1.8098 -0.6654 -2.8576 c 0 -1.143 0.1901 -2.1908 0.6654 -3.1433 c 0.4753 -0.9526 1.1406 -1.6193 1.9962 -2.0956 c 0.8555 -0.4763 1.806 -0.762 2.9467 -0.762 c 1.0456 0 1.9962 0.1905 2.7566 0.6668 c 0.8555 0.4762 1.4259 1.143 1.9011 2.0003 c 0.3803 0.9525 0.5704 1.905 0.5704 3.0481 Z" />
    <path d="m 39.1036 34.2653 h -6.749 v -11.1446 h 2.5666 v 9.1443 h 4.1824 Z" />
  </g>
</svg>