<svg id="ICONS" xmlns="http://www.w3.org/2000/svg" viewBox="0 0 400 140"><defs><clipPath id="clip-path"><path class="cls-1" d="M322 120H53.47s49-14.13 71-36.86c41.39-42.73 88.09-35.56 115.8-3.59S322 120 322 120z"/></clipPath><clipPath id="clip-path-2"><path class="cls-1" d="M76.91 37c21.31-14.92 38.36-17 63.94 22S251 117.32 274.4 118.74 74.07 123 74.07 123z"/></clipPath><style>.cls-1{fill:none}.cls-3{fill:#55a5e4}</style></defs><path d="M313.73 37a1.36 1.36 0 00.08-1.79l-2.4-2.63a1.6 1.6 0 00-1.79-.08l-4.08 2.69c-.87-.58-1.92-1.35-2.79-1.93l1.31-5a1.22 1.22 0 00-.65-1.47l-3-1.39a1.13 1.13 0 00-1.64.46l-2.9 4.36a10.47 10.47 0 00-3.2-.86l-.49-5.06A1.23 1.23 0 00291 23h-3.42c-.53-.2-1.09.31-1.3.84L285.14 29a10.57 10.57 0 00-3.26.57L279.39 25a1.81 1.81 0 00-1.59-.61l-3.3 1.29a1.22 1.22 0 00-.78 1.4l1 4.9c-.92.5-1.86 1.35-2.78 1.85l-4-3.24a1.16 1.16 0 00-1.62.11l-2.44 2.23a1.16 1.16 0 00-.25 1.61l2.86 4.27a14.68 14.68 0 00-2.12 3l-5-1.66a1.57 1.57 0 00-1.66.82l-1.4 3a1.55 1.55 0 00.64 1.83l4.19 2.71c-.41 1.06-.46 2.14-.87 3.2l-5.06.49a1.57 1.57 0 00-1.14 1.39l-.07 3.19a1.56 1.56 0 001 1.48l5.18.77a21.19 21.19 0 00.55 3.62l-4.61 2.49a1.13 1.13 0 00-.61 1.59l1.12 3.11a1.68 1.68 0 001.57 1l5.09-1.21 1.49 2.76-3.24 4a1.69 1.69 0 00.11 1.62l2.4 2.63a1.37 1.37 0 001.61.25l4.27-2.89c.87.58 1.92 1.35 2.79 1.93l-1.31 5a1.22 1.22 0 00.65 1.47l3.17 1.6a1.54 1.54 0 001.64-.47l2.71-4.19c1.08 0 2.14.46 3.22.5l.3 5.23a1.56 1.56 0 001.39 1.14l3.4.33a2.17 2.17 0 001.31-1.2l.95-5c1.26-.12 2.36-.43 3.62-.56l2.32 4.42a1.23 1.23 0 001.59.61l3.11-1.12a1.46 1.46 0 001-1.58l-1-4.9a12.91 12.91 0 002.78-1.85l4 3.24a1.2 1.2 0 001.79.08l2.44-2.23a1.2 1.2 0 00.08-1.79l-2.86-4.27a9 9 0 002.11-3l5 1.66a1.22 1.22 0 001.47-.65l1.58-3.17a1.81 1.81 0 00-.46-1.64l-4.36-2.89a9.17 9.17 0 00.68-3l5.25-.66c.55-.15 1.11-.67 1.13-1l.17-3.59a1.23 1.23 0 00-1.2-1.31l-5-.94a19.58 19.58 0 00-.38-3.44l4.25-2.51a1.31 1.31 0 00.8-1.76l-1.12-3.11a1.13 1.13 0 00-1.59-.61l-5.08.85-1.49-2.77 2.95-3.85m-22.15 16.08a5.21 5.21 0 01-.35 7.54 5.16 5.16 0 01-7.35-.51 5.21 5.21 0 117.7-7" fill="#bad80a"/><path class="cls-3" d="M282.59 63.8c-1.17-14-12.52-24.94-26.36-24.94a26.38 26.38 0 00-23.54 14.83 26.4 26.4 0 00-14.06-4 27.3 27.3 0 00-26.16 20.54 24.87 24.87 0 00-18.12 46.21 23.56 23.56 0 007.74 2.17l.62.06c3.58.32 8.5.37 15.91.37H279a22.22 22.22 0 005.21-.62c12.36-2.46 21.7-13.68 21.7-27.15.09-14.12-10.14-25.73-23.32-27.47z"/><g clip-path="url(#clip-path)"><path d="M86.5 119V23m12 96V23m12 96V23m12 96V23m12 96V23m12 96V23m12 96V23m12 96V23m12 96V23m12 96V23m12 96V23m12 96V23m12 96V23m12 96V23m12 96V23m12 96V23m12 96V23" stroke="#bad80a" stroke-miterlimit="10" stroke-width="3" fill="none"/></g><g clip-path="url(#clip-path-2)"><path d="M81 23h3v96h-3zm12 0h3v96h-3zm12 0h3v96h-3zm12 0h3v96h-3zm12 0h3v96h-3zm12 0h3v96h-3zm12 0h3v96h-3zm12 0h3v96h-3zm12 0h3v96h-3zm12 0h3v96h-3zm12 0h3v96h-3zm12 0h3v96h-3zm12 0h3v96h-3zm12 0h3v96h-3zm12 0h3v96h-3zm12 0h3v96h-3zm12 0h3v96h-3z" fill="#333"/></g><path d="M258.38 73.18a1 1 0 00.95.7l2.13-.07a1.09 1.09 0 00.87-1.11l.12-2.61a1.51 1.51 0 011.05-1.59c.34-.31.84-.45 1.18-.76a1.83 1.83 0 011.79.24l2.38 1.58a1.24 1.24 0 001.15-.11l1.55-1.73a1.13 1.13 0 00-.27-1.32l-1.87-2a1.33 1.33 0 01-.25-1.65l-.16-.17a1.77 1.77 0 00.54-1.12c0-.65.39-1.29 1.54-1.4l2.47-.38a1.29 1.29 0 00.87-1.1l-.22-2.3a.8.8 0 00-.95-.7l-2.61-.12a1.56 1.56 0 01-1.59-1.05c-.31-.34-.45-.84-.76-1.18a2.62 2.62 0 01.09-2l1.62-2.05a1.18 1.18 0 00-.1-1.48l-1.74-1.22a1 1 0 00-1.31-.06l-1.89 2a1.67 1.67 0 01-1.82.41 5.05 5.05 0 00-1.29-.39l-.16-.17a1.72 1.72 0 01-1.24-1.36l-.36-2.8a1 1 0 00-.95-.7l-2.3.22a.8.8 0 00-.7.95l-.29 2.77c0 1-.39 1.29-.88 1.43-.34.31-.84.45-1.18.77a1.72 1.72 0 01-2-.09l-2.21-1.73a1.27 1.27 0 00-1.32.27l-1.55 1.73a1.44 1.44 0 00.27 1.32l1.87 2c.62.68.76 1.18.25 1.65 0 .33-.2.81-.23 1.46-.19.48-.37 1-1.52 1.07l-2.64.53a1 1 0 00-.7.95l.22 2.3a1 1 0 00.78.85h2.78c1 0 1.29.38 1.43.88a14.6 14.6 0 01.78 1.56 1.46 1.46 0 01.08 1.8l-1.74 2.21a1.27 1.27 0 00.27 1.32l1.53 1.37a1 1 0 001.31.06l1.89-2a1.66 1.66 0 011.82-.41l1.45.56c.65 0 1 .37 1.24 1.36l.53 2.64m6.41-14.92a5.75 5.75 0 01-5.18 6 5.33 5.33 0 01-6-5.18 5.49 5.49 0 015-5.82 5.56 5.56 0 016.15 5" fill="#aad2f2"/><path d="M282.63 70.61a.68.68 0 01-.8.16c-.1.09-.28-.31-.37-.61l-.34-1.2c-.18-.4-.57-.42-.69-.13l-.93.85a1.06 1.06 0 01-.82.56l-.47-.52-.85-.93c-.28-.31-.58-.22-.7.07l-.55 1.26a2.89 2.89 0 01-.43.77 5.79 5.79 0 01-.68-.33l-1.17-.45c-.39-.22-.59 0-.61.37v1.29a1 1 0 01-.23.78 2.42 2.42 0 01-.7.07l-1.18-.05c-.39 0-.6.17-.42.57l.54 1.21c.09.3.16.8.16.8a2.36 2.36 0 01-.7.27l-1.21.54c-.3.09-.41.38-.13.69l1 .83a4.92 4.92 0 01.46.71 5 5 0 01-.53.67l-.93.85c-.21.19-.12.49.17.6l1.17.45c.29.11.68.33.67.52a2.59 2.59 0 01-.13.69l-.65 1.16c-.11.29.08.5.37.61h1.29a1.94 1.94 0 01.88.14.75.75 0 01.07.7l-.06 1.38c0 .39.27.51.57.42l1.12-.64a1 1 0 01.89-.06c.1-.09.19.21.37.61l.34 1.2c.18.4.48.32.69.13l.93-.85a1.06 1.06 0 01.82-.56l.47.52.85.93c.28.31.58.22.69-.07l.46-1.36a2.07 2.07 0 01.52-.67 5.85 5.85 0 01.68.33l1.17.45c.39.21.59 0 .61-.37l-.14-1.19a2.11 2.11 0 01.24-1h.79l1.18.05c.39 0 .51-.27.42-.57l-.55-1.26c-.09-.3-.16-.8-.16-.8a1.52 1.52 0 01.61-.37l1.31-.44c.3-.09.41-.38.13-.69l-.95-.83a3.05 3.05 0 01-.46-.71c-.09-.1.22-.39.42-.57l1-.94c.21-.19.12-.49-.17-.6l-1.17-.45c-.29-.11-.77-.43-.67-.53-.09-.1 0-.39.13-.69l.65-1.16c.11-.29-.08-.5-.47-.52l-1.18-.05a5.48 5.48 0 01-.88-.14 1.28 1.28 0 01-.16-.8l.16-1.28c0-.39-.27-.51-.57-.42z" fill="#4d4d4d"/><circle class="cls-3" cx="278.77" cy="78.2" r="2"/></svg>