<svg id="ICONS" xmlns="http://www.w3.org/2000/svg" viewBox="0 0 400 140"><defs><style>.cls-1{fill:#bad80a}.cls-4{fill:#2e2e2e}.cls-13{fill:#515150}.cls-14{fill:#d1d3d4}</style></defs><path class="cls-1" d="M129.26 43l-5.21-1a20.86 20.86 0 00-.4-3.59l4.44-2.62a1.37 1.37 0 00.84-1.84l-1.17-3.25a1.18 1.18 0 00-1.66-.64l-5.3.89-1.56-2.89 3.19-4a1.41 1.41 0 00.08-1.87L120 19.44a1.69 1.69 0 00-1.88-.08l-4.27 2.81c-.91-.6-2-1.4-2.91-2l1.37-5.2a1.29 1.29 0 00-.68-1.54L108.51 12a1.19 1.19 0 00-1.72.48l-3 4.57a10.81 10.81 0 00-3.34-.91l-.51-5.28a1.29 1.29 0 00-1.25-1.38h-3.57c-.56-.21-1.15.33-1.36.88l-1.19 5.4a11.12 11.12 0 00-3.41.59l-2.6-4.81a1.9 1.9 0 00-1.66-.64l-3.45 1.35a1.27 1.27 0 00-.82 1.46l1.08 5.13c-1 .52-1.94 1.41-2.91 1.94l-4.2-3.39a1.22 1.22 0 00-1.69.11L71.27 19l-.91.84a1.21 1.21 0 00-.24 1.65l3 4.46a15.48 15.48 0 00-2.21 3.1l-5.18-1.74a1.67 1.67 0 00-1.74.86l-1.46 3.13a1.63 1.63 0 00.67 1.91l4.38 2.83c-.43 1.11-.48 2.24-.91 3.35l-5.28.51a1.65 1.65 0 00-1.2 1.45L60 44.74a1.64 1.64 0 001 1.56l5.42.81a21.72 21.72 0 00.58 3.78l-4.82 2.6a1.19 1.19 0 00-.64 1.67l1.17 3.25a1.76 1.76 0 001.65 1l5.32-1.26 1.6 2.85-3.39 4.17a1.77 1.77 0 00.11 1.7l2.51 2.74a1.42 1.42 0 001.67.27l4.47-3c.91.61 2 1.41 2.91 2l-1.36 5.27a1.26 1.26 0 00.68 1.53l3.3 1.66a1.62 1.62 0 001.72-.49l2.83-4.39c1.13.05 2.24.48 3.36.53l.31 5.47a1.64 1.64 0 001.45 1.19l3.56.35a2.26 2.26 0 001.37-1.25l1-5.22c1.32-.13 2.46-.46 3.78-.58l2.44 4.62a1.29 1.29 0 001.67.64l3.22-1.21a1.53 1.53 0 001-1.65l-1.08-5.12a13.15 13.15 0 002.91-1.94l4.17 3.39a1.26 1.26 0 001.88.08l2.34-2.14.21-.19a1.33 1.33 0 00.46-1 1.29 1.29 0 00-.38-.92l-3-4.47a9.25 9.25 0 002.24-3.04l5.19 1.74a1.28 1.28 0 001.53-.68l1.64-3.27a1.9 1.9 0 00-.49-1.72L123 53a9.44 9.44 0 00.71-3.17l5.49-.69c.57-.16 1.16-.7 1.18-1.08l.17-3.75a1.28 1.28 0 00-1.29-1.31zM95 53a9 9 0 119-9 9 9 0 01-9 9z"/><path d="M282.63 73.8c-1.17-14-12.52-24.94-26.36-24.94a26.38 26.38 0 00-23.54 14.83 26.4 26.4 0 00-14.06-4 27.3 27.3 0 00-26.16 20.54 24.84 24.84 0 00-7.6-1.19C171.17 79 156 90.14 156 103.87c0 10 9.92 18.57 18.39 22.53a23.56 23.56 0 007.74 2.17l.62.06c3.58.32 8.5.37 15.91.37h80.43a22.22 22.22 0 005.21-.62c12.36-2.46 21.7-13.68 21.7-27.15 0-14.08-10.19-25.69-23.37-27.43z" fill="#80bceb"/><path fill="gray" d="M202.2 115h-93.6l6-7h82l5.6 7z"/><path class="cls-4" d="M193.4 113h-76l3-4h70l3 4z"/><path d="M198.5 117h-86c-4 0-4-2-4-2h94s.16 2-4 2zm-36.7-13.2h-16l1.6-11.2h12.8l1.6 11.2z" fill="#1a1a1a"/><path fill="#333" d="M161.8 103.8H154V92.6h6.2l1.6 11.2z"/><rect x="94" y="27" width="122" height="67" rx="4" ry="4" fill="#221f1f"/><path fill="#ccc" d="M97 30h116v61H97z"/><path class="cls-4" d="M177.63 107h-46.86a1.69 1.69 0 01-1.77-1.59s3-2.39 3.14-2.41h43.33c1.8 0 3.94 2.41 3.94 2.41a1.69 1.69 0 01-1.78 1.59z"/><path fill="#e6e6e6" d="M212.9 30.1v31l-31-31h31z"/><path d="M155 59l21-12-21-11-21 11 21 12zm-1 2l-20-12v25l20 11V61zm2 0l20-12v25l-20 11V61z" fill="#0078d7"/><path d="M297.26 72.19a1.25 1.25 0 001.16.81l2.54-.14a1.25 1.25 0 001-1.35l.08-3.12a1.81 1.81 0 011.15-1.93c.4-.39 1-.57 1.39-.93a2.19 2.19 0 012.15.24l2.89 1.83a1.47 1.47 0 001.34-.18l1.84-2.1a1.3 1.3 0 00-.35-1.58l-2.24-2.38a1.59 1.59 0 01-.35-2s.84-3.11 2.18-3.28l2.94-.52a1.55 1.55 0 001-1.34l-.33-2.75a1 1 0 00-1.09-.82h-.07l-3.13-.07a1.86 1.86 0 01-1.93-1.22c-.39-.4-.57-1-.93-1.38a3.13 3.13 0 01.12-2.35l1.82-2.5a1.41 1.41 0 00-.16-1.76L308.17 40a1.25 1.25 0 00-1.57 0l-2.19 2.48c-.55.6-1.59 1.51-3.73.12 0 0-1.59-1-1.74-1.83l-.46-3.31a1.25 1.25 0 00-1.16-.81l-2.75.33a1 1 0 00-.76 1.13l-.27 3.31c0 1.17-.41 1.56-1 1.74-.4.39-1 .57-1.39.93a2 2 0 01-2.35-.06l-2.69-2a1.52 1.52 0 00-1.58.35l-1.84 2.1a1.73 1.73 0 00.35 1.58l2.29 2.4c.76.79 1.13 1.54.1 3.72-.16.59-.43 1.18-1.79 1.33l-3.15.71a1.25 1.25 0 00-.81 1.16l.33 2.75a1.25 1.25 0 001 1l3.32-.11c1.17 0 1.56.41 1.74 1a17.5 17.5 0 01.93 1.78 1.75 1.75 0 01.13 2.1l-2 2.69a1.51 1.51 0 00.35 1.57l1.92 1.61a1.25 1.25 0 001.57 0l2.21-2.48a2 2 0 012.15-.51s3.14.27 3.27 2.22l.7 3.14m7.29-18a6.88 6.88 0 01-6 7.28 6.39 6.39 0 01-7.23-5.42q0-.31-.06-.62a6.56 6.56 0 015.83-7.09 6.65 6.65 0 017.5 5.68v.16" fill="#2b8fde"/><path class="cls-1" d="M221 96h72v8h-72z"/><path d="M293 101v16.64a2.33 2.33 0 01-.94 1.88 2.21 2.21 0 01-1 .49H223c-1.08 0-2-1.28-2-2.36V101z" fill="#414042"/><path class="cls-13" d="M293 86.12V97h-72V86.12c0-3.59 2.95-6.12 6.55-6.12h58.91c3.59 0 6.54 2.53 6.54 6.12z"/><rect class="cls-14" x="238" y="92" width="10" height="17" rx="1" ry="1"/><path class="cls-13" transform="rotate(90 243 100)" d="M237 97h12v6h-12z"/><rect class="cls-14" x="266" y="92" width="10" height="17" rx="1" ry="1"/><path class="cls-13" transform="rotate(90 271 100)" d="M265 97h12v6h-12z"/><path fill="none" d="M271.51 97.59l-18.46-18.46"/><path class="cls-13" d="M267.88 70h-21.76a3.12 3.12 0 00-3.12 2.76v9.67c0 1.57 1.62 2.57 3.12 2.57h21.76c1.5 0 3.12-1 3.12-2.56v-9.68a3.12 3.12 0 00-3.12-2.76zM267 83h-20V73h20z"/></svg>