<svg id="ICONS" xmlns="http://www.w3.org/2000/svg" viewBox="0 0 400 140"><defs><style>.cls-10{fill:none}.cls-4{fill:#2b8fde}.cls-7{fill:#ffb900}.cls-9{fill:#414042}.cls-10{stroke:#4d4e4e;stroke-linejoin:bevel}.cls-11{fill:#4d4e4e}</style></defs><path d="M308 70.15a32 32 0 11-32-32 32 32 0 0132 32z" fill-rule="evenodd" fill="#bad80a"/><path d="M308 70.15A32 32 0 01298.38 93L253.1 47.77A32 32 0 01308 70.15z" fill="#c6df33" fill-rule="evenodd"/><path stroke="#2a6dcf" stroke-linecap="round" stroke-linejoin="round" stroke-width="5" fill="none" fill-rule="evenodd" d="M260 71.15l12 12 24-24"/><path class="cls-4" d="M169 70a46 46 0 11-46-46 45.92 45.92 0 0146 46z"/><path d="M169 70a45.92 45.92 0 01-13.36 32.42l-65-65A46 46 0 01169 70z" fill="#55a5e4"/><path fill="#bad80a" d="M183.41 14l-15.2 26 15.2 26h30.39L229 40l-15.2-26h-30.39z"/><path class="cls-7" d="M229 125h-58l28.98-51.98.02.04L229 125z"/><path fill="#ffd055" d="M229 125h-29V73.06L229 125z"/><path class="cls-9" d="M198.5 113h3l1-28h-5l1 28z"/><circle class="cls-9" cx="200" cy="117" r="3"/><path class="cls-7" d="M126.4 67l18.7-26h-20.9L97.8 78h17.6l-14.16 24.2 45-35.2z"/><path class="cls-10" d="M275 24.16a45.93 45.93 0 00-44.84 45.91"/><path class="cls-11" d="M271.47 20.28l-.64.77 3.78 3.17-3.44 3.53.72.7 4.18-4.31-4.6-3.86z"/><path class="cls-10" d="M303.91 106.6A45.93 45.93 0 00279 24.24"/><path class="cls-11" d="M309.03 107.71l.08-1-4.92-.37.73-4.88-.99-.15-.89 5.94 5.99.46z"/><path class="cls-10" d="M230.47 75.53a45.94 45.94 0 0070.39 33.22"/><path class="cls-11" d="M226.92 79.38l.82.57 2.82-4.05 3.83 3.1.63-.78-4.67-3.77-3.43 4.93z"/><path class="cls-4" d="M217.26 43.56c-1-.39-2.54-.9-3.37-1.32a2.08 2.08 0 01-1.22-2v-2.17a1.85 1.85 0 011-1.8c.8-.57 2.31-1.58 3.06-2.09a1.17 1.17 0 00.42-1.78c-.37-.73-.95-1.81-1.27-2.35a1.11 1.11 0 00-1.57-.5c-.85.3-2.8 1-3.42 1.25a2 2 0 01-2.18-.17c-.72-.67-1.47-1.33-1.84-1.7a2.05 2.05 0 01-.46-2.08c.26-1.07.61-2.94.73-3.62a1.18 1.18 0 00-1-1.48c-.88-.25-1.45-.46-2.37-.66s-1.29 0-1.77.91-1 2-1.39 2.74-.67 1.2-1.49 1.31c-1.26.17-2.32.31-2.79.36-.82.09-1.32-.07-2-1.11s-1.34-2.49-1.62-2.95a1.33 1.33 0 00-2-.53c-.8.39-1.62.82-2.3 1.2a1.26 1.26 0 00-.61 1.9c.47 1 1 2.22 1.36 3a1.68 1.68 0 01-.39 2c-.57.62-1.22 1.33-1.73 1.91a1.85 1.85 0 01-2.12.66c-1.11-.26-2.33-.55-3.36-.85a1.08 1.08 0 00-1.47.76c-.35.85-.71 2-1 2.7a1.09 1.09 0 00.54 1.57c.75.44 3.47 1.55 3.92 1.79a1.57 1.57 0 01.9 1.58c0 .95 0 1.49-.12 2.3a1.81 1.81 0 01-1 1.77c-1 .61-2.64 1.72-3.21 2.09s-.67.94-.27 1.68 1 1.91 1.25 2.38a1.27 1.27 0 001.78.63c1-.43 2.75-1.12 3.5-1.41a1.89 1.89 0 012.09.42c.6.57 1.09 1.06 1.57 1.53a1.89 1.89 0 01.55 2c-.2 1.19-.4 2.54-.52 3.5a1.29 1.29 0 001 1.65c.77.25 1.83.67 2.36.84s1.32.26 1.82-1 1.07-2.81 1.24-3.28.62-.84 1.57-1 1.94-.27 2.61-.34a1.71 1.71 0 011.72.84c.38.52 1.39 2.44 1.72 3a1.37 1.37 0 002 .8c1.31-.48 2.08-.81 2.75-1.1s.87-1 .45-1.89-1.09-2.47-1.47-3.26-.15-1.36.52-2a19.4 19.4 0 011.72-1.75 2.24 2.24 0 012.14-.51c1 .19 2 .43 2.71.53s1.77.47 2.21-.71.67-1.8.92-2.58.22-1.17-.8-1.61zm-18.64 4a7.39 7.39 0 117.46-7.39 7.43 7.43 0 01-7.46 7.42z"/></svg>