<svg id="ICONS" xmlns="http://www.w3.org/2000/svg" viewBox="0 0 400 140"><defs><style>.cls-2,.cls-6{fill:none}.cls-2{stroke:#666;stroke-miterlimit:10}.cls-4{fill:#666}.cls-7{fill:#333}.cls-8{fill:#d4e8f8}.cls-9{fill:#fff}.cls-10{fill:#55a5e4}.cls-16{fill:#2a6dcf}</style></defs><path d="M320.26 63a1.36 1.36 0 00.08-1.79l-2.4-2.63a1.6 1.6 0 00-1.79-.08l-4.08 2.69c-.87-.58-1.92-1.35-2.79-1.93l1.31-5a1.22 1.22 0 00-.65-1.47l-3-1.39a1.13 1.13 0 00-1.64.46l-2.9 4.36a10.47 10.47 0 00-3.2-.86l-.49-5.06a1.23 1.23 0 00-1.2-1.31h-3.42c-.53-.2-1.09.31-1.3.84l-1.14 5.16a10.57 10.57 0 00-3.26.57L285.92 51a1.81 1.81 0 00-1.59-.61l-3.33 1.3a1.22 1.22 0 00-.78 1.4l1 4.9c-.92.5-1.86 1.35-2.78 1.85l-4-3.24a1.16 1.16 0 00-1.62.11l-2.44 2.23a1.16 1.16 0 00-.25 1.61l2.86 4.27a14.68 14.68 0 00-2.12 3l-5-1.66a1.57 1.57 0 00-1.66.82l-1.4 3a1.55 1.55 0 00.64 1.83l4.19 2.71c-.41 1.06-.46 2.14-.87 3.2l-5.06.49a1.57 1.57 0 00-1.14 1.39l-.15 3.23a1.56 1.56 0 001 1.48l5.18.77a21.19 21.19 0 00.55 3.62l-4.61 2.49a1.13 1.13 0 00-.61 1.59l1.12 3.11a1.68 1.68 0 001.57 1l5.09-1.21 1.49 2.76-3.24 4a1.69 1.69 0 00.11 1.62l2.4 2.63a1.37 1.37 0 001.61.25l4.27-2.87c.87.58 1.92 1.35 2.79 1.93l-1.31 5a1.22 1.22 0 00.65 1.47l3.16 1.58a1.54 1.54 0 001.64-.47l2.71-4.19c1.08 0 2.14.46 3.22.5l.3 5.23a1.56 1.56 0 001.39 1.14l3.4.33a2.17 2.17 0 001.31-1.2l.95-5c1.26-.12 2.36-.43 3.62-.56l2.32 4.42a1.23 1.23 0 001.59.61l3.11-1.12a1.46 1.46 0 001-1.58l-1-4.9a12.91 12.91 0 002.78-1.85l4 3.24a1.2 1.2 0 001.79.08l2.44-2.23a1.2 1.2 0 00.08-1.79l-2.86-4.27a9 9 0 002.11-3l5 1.66a1.22 1.22 0 001.47-.65l1.58-3.17a1.81 1.81 0 00-.46-1.64l-4.36-2.89a9.17 9.17 0 00.68-3l5.25-.66c.55-.15 1.11-.67 1.13-1l.17-3.59a1.23 1.23 0 00-1.2-1.31l-5-.94a19.58 19.58 0 00-.38-3.44l4.25-2.51a1.31 1.31 0 00.8-1.76l-1.12-3.11a1.13 1.13 0 00-1.59-.61l-5.08.85-1.49-2.77 3.07-3.9m-22.14 16.08a5.21 5.21 0 01-.35 7.54 5.16 5.16 0 01-7.35-.51 5.21 5.21 0 117.7-7" fill="#bad80a"/><path class="cls-2" d="M232 125.5h-2"/><path d="M227 125.5H89.19c-28.84 0-52.19-24.18-52.19-54s23.38-54 52.23-54H136" stroke-dasharray="2.99 2.99" stroke-miterlimit="10" stroke="#666" fill="none"/><path class="cls-2" d="M137 17.5h2"/><path class="cls-4" d="M228.6 120.91l-.68.73 3.61 3.36-3.61 3.36.68.73L233 125l-4.4-4.09z"/><path class="cls-2" d="M147 17.5h2"/><path d="M152 17.5h157.77c28.84 0 52.23 24.18 52.23 54s-23.38 54-52.23 54H245" stroke-dasharray="3.01 3.01" stroke-miterlimit="10" stroke="#666" fill="none"/><path class="cls-2" d="M243 125.5h-1"/><path class="cls-4" d="M150.4 21.09l.68-.73-3.61-3.36 3.61-3.36-.68-.73L146 17l4.4 4.09zM98 32v19h16v61h30V32H98z"/><path class="cls-6" d="M129.54 40.92H98.78v2.5h30.76v-2.5z"/><path class="cls-6" d="M129.54 40.92H98.78v2.5h30.76v-2.5"/><path d="M126 41h16v2h-16z"/><path class="cls-7" d="M100 41h17v2h-17z"/><path class="cls-8" d="M127 43h-10v-2h10v2z"/><path class="cls-9" d="M98 41h2v2h-2z"/><path d="M126 47h16v2h-16z"/><path class="cls-7" d="M100 47h17v2h-17z"/><path class="cls-8" d="M127 49h-10v-2h10v2z"/><path class="cls-9" d="M98 47h2v2h-2z"/><path d="M126 53h16v2h-16z"/><path class="cls-7" d="M114 53h4v2h-4z"/><path class="cls-8" d="M127 55h-10v-2h10v2z"/><path class="cls-9" d="M98 53h2v2h-2zm0 6h2v2h-2zm0 6h2v2h-2z"/><path class="cls-10" d="M329.37 28.06a.6.6 0 000-.8l-1.07-1.17a.71.71 0 00-.8 0l-1.82 1.2c-.39-.26-.85-.6-1.24-.86l.58-2.22a.55.55 0 00-.29-.65l-1.33-.62a.5.5 0 00-.73.21l-1.29 1.94a4.67 4.67 0 00-1.42-.38l-.22-2.25a.55.55 0 00-.53-.59h-1.52c-.24-.09-.49.14-.58.37l-.51 2.3a4.71 4.71 0 00-1.45.25l-1.11-2.05a.81.81 0 00-.71-.27l-1.47.57a.54.54 0 00-.35.63l.46 2.18c-.41.22-.83.6-1.24.83L309 25.22a.52.52 0 00-.72 0l-1.09 1a.52.52 0 00-.11.72l1.27 1.9a6.54 6.54 0 00-.94 1.32l-2.21-.74a.7.7 0 00-.74.37l-.62 1.33a.69.69 0 00.28.81l1.88 1.24c-.18.47-.2 1-.39 1.42l-2.25.22a.7.7 0 00-.51.62l-.07 1.44a.7.7 0 00.45.66l2.31.34a9.44 9.44 0 00.25 1.61l-2.05 1.11a.51.51 0 00-.27.71l.5 1.38a.75.75 0 00.7.43l2.27-.54.66 1.23-1.44 1.78a.75.75 0 000 .72l1.07 1.17a.61.61 0 00.72.11l1.9-1.28c.39.26.85.6 1.24.86l-.58 2.22a.54.54 0 00.29.65l1.41.71a.69.69 0 00.73-.21l1.21-1.87c.48 0 1 .2 1.43.22l.13 2.33a.7.7 0 00.62.51l1.51.15a1 1 0 00.59-.53l.42-2.22c.56-.06 1.05-.19 1.61-.25l1 2a.55.55 0 00.71.27l1.38-.5a.65.65 0 00.43-.7l-.46-2.18a5.75 5.75 0 001.24-.83l1.78 1.44a.53.53 0 00.8 0l1.09-1a.53.53 0 000-.8l-1.27-1.9a4 4 0 00.94-1.32l2.21.74a.54.54 0 00.65-.29l.71-1.41a.81.81 0 00-.21-.73l-1.94-1.29a4.08 4.08 0 00.3-1.35l2.34-.3c.24-.07.49-.3.5-.46l.07-1.6a.55.55 0 00-.53-.59l-2.22-.42a8.72 8.72 0 00-.17-1.53L331.7 33a.58.58 0 00.36-.78l-.5-1.38a.5.5 0 00-.71-.27l-2.26.38-.59-1.19 1.36-1.7m-9.75 7.07a2.47 2.47 0 11-3.61 3.32 2.51 2.51 0 010-3.45 2.55 2.55 0 013.57.16"/><path fill="#1a1a1a" d="M218.8 107.8h-16l1.6-11.2h12.8l1.6 11.2z"/><path class="cls-7" d="M218.8 107.8H211V96.6h6.2l1.6 11.2z"/><rect class="cls-7" x="176.5" y="1.5" width="71" height="126" rx="6" ry="6" transform="rotate(-90 212 64.5)"/><rect class="cls-7" x="151" y="31" width="122" height="67" rx="4" ry="4"/><path fill="#80bceb" d="M154 34h116v61H154z"/><path d="M234.63 111h-46.86a1.69 1.69 0 01-1.77-1.59s3-2.39 3.14-2.41h43.33c1.8 0 3.94 2.41 3.94 2.41a1.69 1.69 0 01-1.78 1.59z" fill="#2e2e2e"/><path d="M190.35 77.07A24.51 24.51 0 10189.12 55" stroke="#333" stroke-width="2" stroke-miterlimit="10" fill="none"/><path class="cls-7" d="M188 39h2v15h-2z"/><path class="cls-7" transform="rotate(-90 195.5 55)" d="M194.5 47.5h2v15h-2z"/><path fill="#aad2f2" d="M270 34v26l-26-26h26z"/><path class="cls-10" d="M76 53h36v62H76z"/><path class="cls-16" d="M99 53h13v62H99z"/><path d="M97 69h13v2H97z"/><path class="cls-7" d="M77.04 69H93v2H77.04z"/><path class="cls-6" d="M101.23 59.14h-24.6v1.99h24.6v-1.99z"/><path class="cls-6" d="M101.23 59.14h-24.6v1.99h24.6v-1.99"/><path class="cls-8" d="M99 71h-7v-2h7v2z"/><path d="M97 64h13v2H97z"/><path class="cls-7" d="M77.04 64H93v2H77.04z"/><path class="cls-8" d="M99 66h-7v-2h7v2z"/><path d="M97 59h13v2H97z"/><path class="cls-7" d="M77.04 59H93v2H77.04z"/><path class="cls-8" d="M99 60.99h-7V59h7v1.99z"/><path class="cls-9" d="M76 59h2v2h-2zm0 5h2v2h-2zm0 5h2v2h-2zm0 5h2v2h-2zm0 5h2v2h-2z"/><path class="cls-16" d="M355.3 69.1c-.66-.26-1.65-.58-2.18-.85a1.35 1.35 0 01-.79-1.31v-1.41a1.2 1.2 0 01.63-1.17c.52-.37 1.5-1 2-1.36a.76.76 0 00.27-1.15c-.24-.47-.61-1.17-.82-1.52a.72.72 0 00-1-.32l-2.21.81a1.29 1.29 0 01-1.41-.11c-.47-.43-1-.86-1.19-1.1a1.33 1.33 0 01-.3-1.35c.17-.7.39-1.9.47-2.34a.76.76 0 00-.64-1c-.57-.16-.94-.3-1.54-.43s-.84 0-1.14.59-.66 1.31-.9 1.78-.44.78-1 .85l-1.81.23c-.53.06-.85 0-1.26-.72s-.87-1.62-1-1.91a.86.86 0 00-1.3-.34c-.52.26-1 .53-1.49.78a.82.82 0 00-.39 1.23c.31.67.65 1.44.88 2a1.09 1.09 0 01-.25 1.32c-.37.4-.79.86-1.12 1.24a1.2 1.2 0 01-1.37.43c-.72-.17-1.51-.36-2.18-.55a.7.7 0 00-.95.49c-.23.55-.46 1.32-.63 1.75a.71.71 0 00.35 1c.48.29 2.25 1 2.54 1.16a1 1 0 01.58 1c0 .61 0 1-.08 1.49a1.17 1.17 0 01-.68 1.15c-.62.4-1.71 1.12-2.08 1.36s-.44.61-.18 1.09.64 1.24.81 1.54a.82.82 0 001.15.41l2.21-.86a1.23 1.23 0 011.35.27l1 1a1.22 1.22 0 01.35 1.32c-.13.77-.26 1.65-.34 2.27a.83.83 0 00.63 1.07c.5.16 1.19.44 1.53.55s.86.17 1.18-.64.69-1.82.81-2.12.4-.54 1-.64 1.26-.18 1.69-.22a1.11 1.11 0 011.11.54c.24.34.9 1.58 1.11 2a.89.89 0 001.29.52c.85-.31 1.35-.52 1.78-.71s.56-.63.29-1.22-.71-1.6-1-2.11-.1-.88.34-1.33a12.57 12.57 0 011.11-1.13A1.45 1.45 0 01352 72c.64.12 1.27.28 1.76.35s1.14.3 1.43-.46.43-1.17.6-1.67.21-.87-.49-1.12zm-12.08 2.61a4.79 4.79 0 114.84-4.79 4.81 4.81 0 01-4.84 4.79z"/><path class="cls-7" d="M127 32h17v80h-17z"/></svg>