<svg id="ICONS" xmlns="http://www.w3.org/2000/svg" viewBox="0 0 400 140"><defs><style>.cls-6{fill:none}.cls-2,.cls-7{fill:#bad80a}.cls-2,.cls-3{fill-rule:evenodd}.cls-3{fill:#c6df33}.cls-4{fill:#0078d7}.cls-5{fill:#80bceb}.cls-8{fill:#333}.cls-9{fill:#fff}.cls-10{fill:#d4e8f8}.cls-11{fill:#4d4d4d}.cls-13{fill:#2b8fde}</style></defs><path d="M213 34l85.92 34.39L212 110l-1 2m-44-43.5h111m-169 0h41" stroke="#666" stroke-miterlimit="10" stroke-dasharray="3 3" fill="none"/><path class="cls-2" d="M234.39 32a23 23 0 11-23-23 22.88 22.88 0 0123 23z"/><path class="cls-3" d="M234.39 32a22.88 22.88 0 01-6.85 16.36L195 15.85A23 23 0 01234.39 32z"/><path class="cls-2" d="M234.46 110a23 23 0 11-23-23 22.88 22.88 0 0123 23z"/><path class="cls-3" d="M234.37 110a22.88 22.88 0 01-6.85 16.36L195 93.85A23 23 0 01234.37 110z"/><path class="cls-4" d="M328.11 81.52a1.21 1.21 0 001.47-.63l1.19-2.89a1.42 1.42 0 00-.63-1.47l-3.75-2.23c.13-.92.34-2.06.47-3l4.51-.87a1.09 1.09 0 00.93-1.09V66.4a1 1 0 00-1-1.14l-4.63-.64a9.29 9.29 0 00-.54-2.9l3.87-2.35a1.09 1.09 0 00.59-1.47l-1.34-2.73c0-.5-.67-.76-1.18-.71l-4.59 1.08a9.4 9.4 0 00-1.72-2.39l2.74-3.77a1.61 1.61 0 00-.12-1.51L322 45.72a1.09 1.09 0 00-1.43-.09L317 48.35c-.76-.55-1.81-1-2.57-1.52l1.06-4.45a1 1 0 00-.71-1.26L312.09 40a1 1 0 00-1.39.42l-2.32 3.94a13.13 13.13 0 00-3.2-.55l-.58-4.62a1.4 1.4 0 00-1.3-1h-2.95a1.38 1.38 0 00-1.22 1.21l-.55 4.41c-1 .08-1.9.46-2.91.54l-2.35-3.86a1.4 1.4 0 00-1.56-.38l-2.65 1.13a1.39 1.39 0 00-.8 1.38l1.38 4.45A18.9 18.9 0 00287 49l-3.78-2.74a1 1 0 00-1.52.12l-2.07 2.09a1.49 1.49 0 00-.17 1.64l2.92 3.59-1.48 2.3-4.62-1.1a1.5 1.5 0 00-1.26.71l-1.18 2.94c-.17.42 0 1.22.42 1.38l4 2.32c-.13.92-.34 2.06-.47 3l-4.51.87a1.09 1.09 0 00-.93 1.09v3.15a1.37 1.37 0 001 1.13l4.42.55c.38.88.46 1.89.84 2.77l-4.09 2.26a1.39 1.39 0 00-.38 1.55l1 2.85a1.94 1.94 0 001.47.59l4.39-1.17c.59 1 1.26 1.72 1.85 2.69l-2.66 3.56a1.09 1.09 0 00.12 1.51l2.1 2.06a1.31 1.31 0 001.64.17l3.54-2.72a11.52 11.52 0 002.57 1.51l-1.06 4.45a1.07 1.07 0 00.63 1.47l2.74 1.1a1.07 1.07 0 001.47-.63l2.32-3.94a8 8 0 003.2.55l.58 4.62a1.09 1.09 0 001.09.93h3.16a1.61 1.61 0 001.14-1l.64-4.61a8.2 8.2 0 002.7-.62l2.52 4.01a1.43 1.43 0 001.26.51l2.95-1.25a1.09 1.09 0 00.59-1.47l-1.17-4.37a17.47 17.47 0 002.61-1.63l3.66 2.44a1.17 1.17 0 001.73 0l2.08-2.17a1 1 0 00-.12-1.51l-2.63-3.71 1.55-2.31 4.33 1"/><circle class="cls-5" cx="302.5" cy="68.5" r="18.5"/><path class="cls-6" d="M271 37h80v80h-80z"/><path class="cls-7" d="M347 101.65v-.81l4-2.46-2.43-5.84-4.53 1q-.37-.4-.76-.76l1-4.53-5.84-2.43-2.46 4h-1.1l-2.46-4-5.84 2.43 1 4.53q-.4.37-.76.76l-4.53-1-2.43 5.84 4 2.46v1.08l-4 2.46 2.43 5.84 4.53-1q.37.4.76.76l-1 4.53 5.84 2.43 2.46-4h1.1l2.46 4 5.84-2.43-1-4.53q.4-.37.76-.76l4.53 1 2.43-5.84-4-2.46v-.27zm-6.3 2a5.74 5.74 0 01-3.05 3.05 5.77 5.77 0 01-4.47 0 5.74 5.74 0 01-3.05-3.05 5.77 5.77 0 010-4.47 5.74 5.74 0 013.05-3.05 5.77 5.77 0 014.47 0 5.74 5.74 0 013.05 3.05 5.77 5.77 0 010 4.47z"/><path class="cls-8" d="M314.93 59.61l-3.54 3.54h-2.83v-2.84l3.54-3.54a6.14 6.14 0 00-6.19 1.23 5.41 5.41 0 00-1.06 6L290.8 78.08a2 2 0 002.83 2.83l14.05-14.05a5.41 5.41 0 006-1.06 6.14 6.14 0 001.25-6.19z"/><circle class="cls-9" cx="292.96" cy="78.74" r="1.5" transform="rotate(-45 292.965 78.74)"/><path class="cls-6" transform="rotate(45 302.203 68.797)" d="M293.7 49.3h17v39h-17z"/><path class="cls-10" d="M301.23 68l-6.36-6.36-.71-2.12-4.55-2.52-.88.88 2.61 4.46 2.12.71 6.36 6.36a3 3 0 00.18 3l8.31 8.31a2.44 2.44 0 002.83 0l1.41-1.41a2.44 2.44 0 000-2.83L304.06 68a2.67 2.67 0 00-2.83 0z"/><path class="cls-9" transform="rotate(-45 305.125 75.433)" d="M304.62 69.43h1v12h-1z"/><path class="cls-9" transform="rotate(-45 307.248 73.314)" d="M306.75 67.31h1v12h-1z"/><path class="cls-6" transform="rotate(-45 302.551 71.44)" d="M297.05 49.45h11v44h-11z"/><path class="cls-11" d="M208.5 41.25L198 51h-3l4.5-12.75 4.96-2.25 4.04 5.25zm7 0L226 51h3l-4.5-12.75-4.96-2.25-4.04 5.25z"/><path fill="#4d4e4e" d="M215 47h-6l1.5-3h3l1.5 3z"/><path class="cls-13" d="M222 28.53A23.56 23.56 0 01216 44h-8a23.56 23.56 0 01-6-15.47 31.49 31.49 0 011.41-8.53A20.63 20.63 0 01212 8.07h.07c.7.37 6.1 3.49 8.52 12a31.49 31.49 0 011.41 8.46z"/><path class="cls-4" d="M208.95 35h-11a21.4 21.4 0 01-.95-6.47 32 32 0 01.52-5.53h11a32 32 0 00-.52 5.53 21.4 21.4 0 00.95 6.47z"/><path class="cls-11" d="M208.57 23h-6a32 32 0 00-.52 5.53A21.4 21.4 0 00203 35h6a21.4 21.4 0 01-.95-6.47 32 32 0 01.52-5.53z"/><path d="M222 28.53A23.56 23.56 0 01216 44h-4V8.07h.07c.7.37 6.1 3.49 8.52 12a31.49 31.49 0 011.41 8.46z" fill="#55a5e4"/><path class="cls-4" d="M220.59 20h-17.18c2.41-8.47 7.81-11.59 8.51-12h.15c.7.41 6.1 3.53 8.52 12zm9.11 90c0 3.76-8.17 13-18.24 13s-18.24-9.22-18.24-13c0-4.12 8.17-12 18.24-12s18.24 8.26 18.24 12z"/><circle class="cls-9" cx="211.46" cy="110.52" r="8.64"/><circle class="cls-13" cx="211.46" cy="110.52" r="5.76"/><circle class="cls-9" cx="213.38" cy="107.64" r="2.88"/><path class="cls-7" d="M126 71a41.79 41.79 0 01-5.07 20 41.37 41.37 0 01-3.66 5.62 42 42 0 01-66.54 0A41.36 41.36 0 0147.07 91 42 42 0 11126 71z"/><path d="M120.93 91a41.37 41.37 0 01-3.66 5.62 42 42 0 01-66.54 0A41.36 41.36 0 0147.07 91z" fill="#c6df33"/><path fill="#666" d="M64 40h36v62H64z"/><path class="cls-11" d="M87 40h13v62H87z"/><path d="M85 56.01h13V58H85z"/><path class="cls-8" d="M65.04 56.01H81V58H65.04z"/><path class="cls-9" d="M64 56h2v2h-2z"/><path class="cls-6" d="M89.23 46.14h-24.6v1.99h24.6v-1.99z"/><path class="cls-6" d="M89.23 46.14h-24.6v1.99h24.6v-1.99"/><path class="cls-10" d="M87 57.99h-7V56h7v1.99z"/><path d="M85 51.01h13V53H85z"/><path class="cls-8" d="M65.04 51.01H81V53H65.04z"/><path class="cls-10" d="M87 52.99h-7V51h7v1.99z"/><path d="M85 46.01h13V48H85z"/><path class="cls-8" d="M65.04 46.01H81V48H65.04z"/><path class="cls-9" d="M64 46h2v2h-2zm0 5h2v2h-2z"/><path class="cls-10" d="M87 47.99h-7V46h7v1.99z"/><path class="cls-9" d="M64 61h2v2h-2zm0 5h2v2h-2z"/><path class="cls-5" d="M170.12 68.74v-.81l4-2.46-2.43-5.84-4.53 1q-.37-.4-.76-.76l1-4.53-5.84-2.43-2.46 4H158l-2.46-4-5.84 2.43 1 4.53q-.4.37-.76.76l-4.53-1-2.41 5.83 4 2.46V69l-4 2.46 2.43 5.84 4.53-1q.37.4.76.76l-1 4.53 5.81 2.41 2.47-4h1.1l2.46 4 5.84-2.43-1-4.53q.4-.37.76-.76l4.53 1 2.43-5.84-4-2.46v-.24zm-6.3 2a5.74 5.74 0 01-3.05 3.05 5.77 5.77 0 01-4.47 0 5.74 5.74 0 01-3.05-3.05 5.77 5.77 0 010-4.47 5.74 5.74 0 013.05-3.05 5.77 5.77 0 014.47 0 5.74 5.74 0 013.05 3.05 5.77 5.77 0 010 4.47z"/></svg>