<?xml version="1.0" encoding="UTF-8" standalone="no"?>
<!DOCTYPE svg PUBLIC "-//W3C//DTD SVG 1.1//EN" "http://www.w3.org/Graphics/SVG/1.1/DTD/svg11.dtd">
<!-- Generated by Microsoft Visio, SVG Export OOM_Graph_Tshooting.svg Page-1 -->
<svg xmlns="http://www.w3.org/2000/svg" xmlns:xlink="http://www.w3.org/1999/xlink" xmlns:ev="http://www.w3.org/2001/xml-events"
		xmlns:v="http://schemas.microsoft.com/visio/2003/SVGExtensions/" width="9.5in" height="7.5in" viewBox="0 0 684 540"
		xml:space="preserve" color-interpolation-filters="sRGB" class="st17">
	<v:documentProperties v:langID="1033" v:viewMarkup="false">
		<v:userDefs>
			<v:ud v:nameU="msvSubprocessMaster" v:prompt="" v:val="VT4(Rectangle)"/>
			<v:ud v:nameU="msvNoAutoConnect" v:val="VT0(1):26"/>
		</v:userDefs>
	</v:documentProperties>

	<style type="text/css">
	<![CDATA[
		.st1 {fill:#ffffff;stroke:none;stroke-width:0.25}
		.st2 {fill:#feffff;stroke:#000000;stroke-width:2.25}
		.st3 {fill:#feffff;font-family:Calibri;font-size:0.833336em}
		.st4 {fill:#305497;stroke:#c7c8c8;stroke-width:0.25}
		.st5 {fill:#feffff;font-family:Calibri;font-size:1.16666em}
		.st6 {fill:none;stroke:none;stroke-width:0.25}
		.st7 {fill:#000000;font-family:Calibri;font-size:1.00001em}
		.st8 {font-size:1em}
		.st9 {fill:#fff2cc;stroke:#30518f;stroke-width:0.75}
		.st10 {fill:#000000;font-family:Calibri;font-size:0.833336em}
		.st11 {fill:#e2efd9;stroke:#30518f;stroke-width:0.75}
		.st12 {fill:#deebf6;stroke:#30518f;stroke-width:0.75}
		.st13 {fill:#000000;font-family:Calibri;font-size:0.75em}
		.st14 {fill:#fff2cc;stroke:#c7c8c8;stroke-width:0.25}
		.st15 {fill:#e2efd9;stroke:#c7c8c8;stroke-width:0.25}
		.st16 {fill:#deebf6;stroke:#c7c8c8;stroke-width:0.25}
		.st17 {fill:none;fill-rule:evenodd;font-size:12px;overflow:visible;stroke-linecap:square;stroke-miterlimit:3}
	]]>
	</style>

	<g v:mID="4" v:index="1" v:groupContext="backgroundPage">
		<v:userDefs>
			<v:ud v:nameU="msvThemeOrder" v:val="VT0(0):26"/>
			<v:ud v:nameU="msvVisioCreated" v:prompt="" v:val="VT0(0):26"/>
		</v:userDefs>
		<title>VBackground-1</title>
		<v:pageProperties width="9.5" height="7.5" v:drawingScale="1" v:pageScale="1" v:drawingUnits="0" v:shadowOffsetX="9"
				v:shadowOffsetY="-9"/>
		<g id="shape1000-1" v:mID="1000" v:groupContext="shape">
			<title>Solid.1000</title>
			<v:userDefs>
				<v:ud v:nameU="Background" v:val="VT0(0):26"/>
				<v:ud v:nameU="visVersion" v:val="VT0(15):26"/>
				<v:ud v:nameU="msvShapeCategories" v:prompt="" v:val="VT4(DoNotContain)"/>
				<v:ud v:nameU="msvVisioCreated" v:prompt="" v:val="VT0(0):26"/>
			</v:userDefs>
			<rect x="0" y="0" width="684" height="540" class="st1"/>
		</g>
	</g>
	<g v:mID="0" v:index="2" v:groupContext="foregroundPage">
		<v:userDefs>
			<v:ud v:nameU="msvThemeOrder" v:val="VT0(0):26"/>
		</v:userDefs>
		<title>Page-1</title>
		<v:pageProperties v:drawingScale="1" v:pageScale="1" v:drawingUnits="0" v:shadowOffsetX="9" v:shadowOffsetY="-9"/>
		<v:layer v:name="Connector" v:index="0"/>
		<g id="shape2-3" v:mID="2" v:groupContext="shape" transform="translate(135,-18)">
			<title>Rectangle.2</title>
			<desc>d</desc>
			<v:userDefs>
				<v:ud v:nameU="visVersion" v:val="VT0(15):26"/>
			</v:userDefs>
			<v:textBlock v:margins="rect(4,4,4,4)"/>
			<v:textRect cx="211.5" cy="342" width="423" height="396"/>
			<rect x="0" y="144" width="423" height="396" class="st2"/>
			<text x="208.87" y="345" class="st3" v:langID="1033"><v:paragraph v:horizAlign="1"/><v:tabList/>d</text>		</g>
		<g id="shape1-6" v:mID="1" v:groupContext="shape" transform="translate(245.25,-81)">
			<title>Rectangle</title>
			<desc>SQL Server Engine memory</desc>
			<v:userDefs>
				<v:ud v:nameU="visVersion" v:val="VT0(15):26"/>
			</v:userDefs>
			<v:textBlock v:margins="rect(4,4,4,4)"/>
			<v:textRect cx="102.375" cy="409.5" width="204.75" height="261"/>
			<rect x="0" y="279" width="204.75" height="261" class="st4"/>
			<text x="25.41" y="413.7" class="st5" v:langID="1033"><v:paragraph v:horizAlign="1"/><v:tabList/>SQL Server Engine memory</text>		</g>
		<g id="shape10-9" v:mID="10" v:groupContext="shape" transform="translate(288,-360)">
			<title>Sheet.10</title>
			<desc>SQL Server process memory</desc>
			<v:textBlock v:margins="rect(4,4,4,4)"/>
			<v:textRect cx="72" cy="522" width="144" height="36"/>
			<rect x="0" y="504" width="144" height="36" class="st6"/>
			<text x="25.73" y="518.4" class="st7" v:langID="1033"><v:paragraph v:horizAlign="1"/><v:tabList/>SQL Server process <tspan
						x="51.46" dy="1.2em" class="st8">memory</tspan></text>		</g>
		<g id="shape1000-13" v:mID="1000" v:groupContext="shape" transform="translate(117,747) rotate(180)">
			<title>Simple Arrow.1000</title>
			<desc>Application</desc>
			<v:userDefs>
				<v:ud v:nameU="visVersion" v:val="VT0(15):26"/>
				<v:ud v:nameU="ArrowType" v:prompt="" v:val="VT0(2):26"/>
			</v:userDefs>
			<v:textBlock v:margins="rect(4,4,4,4)"/>
			<v:textRect cx="49.5" cy="540" width="99" height="0" transform="rotate(180)"/>
			<path d="M0 540 L12 504 L12 522 L99 522 L99 540 L99 558 L12 558 L12 576 L0 540 Z" class="st9"/>
			<text x="-72.54" y="-537" transform="rotate(180)" class="st10" v:langID="1033"><v:paragraph v:horizAlign="1"/><v:tabList/>Application</text>		</g>
		<g id="shape1001-16" v:mID="1001" v:groupContext="shape" transform="translate(117,999) rotate(180)">
			<title>Simple Arrow.1001</title>
			<desc>Drivers</desc>
			<v:userDefs>
				<v:ud v:nameU="visVersion" v:val="VT0(15):26"/>
				<v:ud v:nameU="ArrowType" v:prompt="" v:val="VT0(2):26"/>
			</v:userDefs>
			<v:textBlock v:margins="rect(4,4,4,4)"/>
			<v:textRect cx="49.5" cy="540" width="99" height="0" transform="rotate(180)"/>
			<path d="M0 540 L12 504 L12 522 L99 522 L99 540 L99 558 L12 558 L12 576 L0 540 Z" class="st9"/>
			<text x="-63.91" y="-537" transform="rotate(180)" class="st10" v:langID="1033"><v:paragraph v:horizAlign="1"/><v:tabList/>Drivers</text>		</g>
		<g id="shape1002-19" v:mID="1002" v:groupContext="shape" transform="translate(585,-72)">
			<title>Simple Arrow.1002</title>
			<desc>OS compoments</desc>
			<v:userDefs>
				<v:ud v:nameU="visVersion" v:val="VT0(15):26"/>
				<v:ud v:nameU="ArrowType" v:prompt="" v:val="VT0(2):26"/>
			</v:userDefs>
			<v:textBlock v:margins="rect(4,4,4,4)"/>
			<v:textRect cx="40.5" cy="540" width="81" height="0"/>
			<path d="M0 540 L12 504 L12 522 L81 522 L81 540 L81 558 L12 558 L12 576 L0 540 Z" class="st9"/>
			<text x="7.01" y="543" class="st10" v:langID="1033"><v:paragraph v:horizAlign="1"/><v:tabList/>OS compoments</text>		</g>
		<g id="shape1009-22" v:mID="1009" v:groupContext="shape" transform="translate(576,-342)">
			<title>Simple Arrow.1009</title>
			<desc>Application</desc>
			<v:userDefs>
				<v:ud v:nameU="visVersion" v:val="VT0(15):26"/>
				<v:ud v:nameU="ArrowType" v:prompt="" v:val="VT0(2):26"/>
			</v:userDefs>
			<v:textBlock v:margins="rect(4,4,4,4)"/>
			<v:textRect cx="45" cy="540" width="90" height="0"/>
			<path d="M0 540 L12 504 L12 522 L90 522 L90 540 L90 558 L12 558 L12 576 L0 540 Z" class="st9"/>
			<text x="21.96" y="543" class="st10" v:langID="1033"><v:paragraph v:horizAlign="1"/><v:tabList/>Application</text>		</g>
		<g id="shape9-25" v:mID="9" v:groupContext="shape" transform="translate(234,810) rotate(180)">
			<title>Simple Double Arrow.9</title>
			<desc>Linked Servers</desc>
			<v:userDefs>
				<v:ud v:nameU="visVersion" v:val="VT0(15):26"/>
				<v:ud v:nameU="ArrowType" v:prompt="" v:val="VT0(3):26"/>
			</v:userDefs>
			<v:textBlock v:margins="rect(4,4,4,4)"/>
			<v:textRect cx="45" cy="540" width="90" height="0" transform="rotate(180)"/>
			<path d="M0 540 L19.79 504 L19.79 522 L70.21 522 L70.21 504 L90 540 L70.21 576 L70.21 558 L19.79 558 L19.79 576 L0 540
						 Z" class="st11"/>
			<text x="-74.37" y="-537" transform="rotate(180)" class="st10" v:langID="1033"><v:paragraph v:horizAlign="1"/><v:tabList/>Linked Servers</text>		</g>
		<g id="shape1010-28" v:mID="1010" v:groupContext="shape" transform="translate(234,918) rotate(180)">
			<title>Simple Double Arrow.1010</title>
			<desc>SQL CLR</desc>
			<v:userDefs>
				<v:ud v:nameU="visVersion" v:val="VT0(15):26"/>
				<v:ud v:nameU="ArrowType" v:prompt="" v:val="VT0(3):26"/>
			</v:userDefs>
			<v:textBlock v:margins="rect(4,4,4,4)"/>
			<v:textRect cx="45" cy="540" width="90" height="0" transform="rotate(180)"/>
			<path d="M0 540 L19.79 504 L19.79 522 L70.21 522 L70.21 504 L90 540 L70.21 576 L70.21 558 L19.79 558 L19.79 576 L0 540
						 Z" class="st11"/>
			<text x="-61.38" y="-537" transform="rotate(180)" class="st10" v:langID="1033"><v:paragraph v:horizAlign="1"/><v:tabList/>SQL CLR</text>		</g>
		<g id="shape1013-31" v:mID="1013" v:groupContext="shape" transform="translate(551.25,813.25) rotate(180)">
			<title>Simple Double Arrow.1013</title>
			<desc>XPs</desc>
			<v:userDefs>
				<v:ud v:nameU="visVersion" v:val="VT0(15):26"/>
				<v:ud v:nameU="ArrowType" v:prompt="" v:val="VT0(3):26"/>
			</v:userDefs>
			<v:textBlock v:margins="rect(4,4,4,4)"/>
			<v:textRect cx="45" cy="540" width="90" height="0" transform="rotate(180)"/>
			<path d="M0 540 L19.79 504 L19.79 522 L70.21 522 L70.21 504 L90 540 L70.21 576 L70.21 558 L19.79 558 L19.79 576 L0 540
						 Z" class="st11"/>
			<text x="-52.13" y="-537" transform="rotate(180)" class="st10" v:langID="1033"><v:paragraph v:horizAlign="1"/><v:tabList/>XPs</text>		</g>
		<g id="shape1014-34" v:mID="1014" v:groupContext="shape" transform="translate(551.25,921.25) rotate(180)">
			<title>Simple Double Arrow.1014</title>
			<desc>OLE Automation</desc>
			<v:userDefs>
				<v:ud v:nameU="visVersion" v:val="VT0(15):26"/>
				<v:ud v:nameU="ArrowType" v:prompt="" v:val="VT0(3):26"/>
			</v:userDefs>
			<v:textBlock v:margins="rect(4,4,4,4)"/>
			<v:textRect cx="45" cy="540" width="90" height="0" transform="rotate(180)"/>
			<path d="M0 540 L19.79 504 L19.79 522 L70.21 522 L70.21 504 L90 540 L70.21 576 L70.21 558 L19.79 558 L19.79 576 L0 540
						 Z" class="st11"/>
			<text x="-78.29" y="-537" transform="rotate(180)" class="st10" v:langID="1033"><v:paragraph v:horizAlign="1"/><v:tabList/>OLE Automation</text>		</g>
		<g id="shape1019-37" v:mID="1019" v:groupContext="shape" transform="translate(270,-162)">
			<title>Simple Double Arrow.1019</title>
			<desc>MEMORYCLERK_*</desc>
			<v:userDefs>
				<v:ud v:nameU="visVersion" v:val="VT0(15):26"/>
				<v:ud v:nameU="ArrowType" v:prompt="" v:val="VT0(3):26"/>
			</v:userDefs>
			<v:textBlock v:margins="rect(4,4,4,4)"/>
			<v:textRect cx="74.25" cy="540" width="148.5" height="0"/>
			<path d="M0 540 L18 504 L18 522 L130.5 522 L130.5 504 L148.5 540 L130.5 576 L130.5 558 L18 558 L18 576 L0 540 Z"
					class="st12"/>
			<text x="40.99" y="542.7" class="st13" v:langID="1033"><v:paragraph v:horizAlign="1"/><v:tabList/>MEMORYCLERK_*</text>		</g>
		<g id="shape1020-40" v:mID="1020" v:groupContext="shape" transform="translate(42.75,-504)">
			<title>Rectangle.1020</title>
			<desc>External memory pressure</desc>
			<v:userDefs>
				<v:ud v:nameU="visVersion" v:val="VT0(15):26"/>
			</v:userDefs>
			<v:textBlock v:margins="rect(4,4,4,4)"/>
			<v:textRect cx="83.25" cy="531" width="166.5" height="18"/>
			<rect x="0" y="522" width="166.5" height="18" class="st14"/>
			<text x="29.56" y="534" class="st10" v:langID="1033"><v:paragraph v:horizAlign="1"/><v:tabList/>External memory pressure</text>		</g>
		<g id="shape1021-43" v:mID="1021" v:groupContext="shape" transform="translate(252,-504)">
			<title>Rectangle.1021</title>
			<desc>Internal non-SQL memory pressure</desc>
			<v:userDefs>
				<v:ud v:nameU="visVersion" v:val="VT0(15):26"/>
			</v:userDefs>
			<v:textBlock v:margins="rect(4,4,4,4)"/>
			<v:textRect cx="76.5" cy="531" width="153" height="18"/>
			<rect x="0" y="522" width="153" height="18" class="st15"/>
			<text x="5.22" y="534" class="st10" v:langID="1033"><v:paragraph v:horizAlign="1"/><v:tabList/>Internal non-SQL memory pressure</text>		</g>
		<g id="shape1022-46" v:mID="1022" v:groupContext="shape" transform="translate(447.75,-504)">
			<title>Rectangle.1022</title>
			<desc>Internal SQL Server memory pressure</desc>
			<v:userDefs>
				<v:ud v:nameU="visVersion" v:val="VT0(15):26"/>
			</v:userDefs>
			<v:textBlock v:margins="rect(4,4,4,4)"/>
			<v:textRect cx="83.25" cy="531" width="166.5" height="18"/>
			<rect x="0" y="522" width="166.5" height="18" class="st16"/>
			<text x="7.24" y="534" class="st10" v:langID="1033"><v:paragraph v:horizAlign="1"/><v:tabList/>Internal SQL Server memory pressure</text>		</g>
		<g id="shape1023-49" v:mID="1023" v:groupContext="shape" transform="translate(288,-138.24)">
			<title>Simple Double Arrow.1023</title>
			<desc>OBJECTSTORE_LOCK_MANAGER</desc>
			<v:userDefs>
				<v:ud v:nameU="visVersion" v:val="VT0(15):26"/>
				<v:ud v:nameU="ArrowType" v:prompt="" v:val="VT0(3):26"/>
			</v:userDefs>
			<v:textBlock v:margins="rect(4,4,4,4)"/>
			<v:textRect cx="74.25" cy="540" width="148.5" height="0"/>
			<path d="M0 540 L18 504 L18 522 L130.5 522 L130.5 504 L148.5 540 L130.5 576 L130.5 558 L18 558 L18 576 L0 540 Z"
					class="st12"/>
			<text x="15.19" y="542.7" class="st13" v:langID="1033"><v:paragraph v:horizAlign="1"/><v:tabList/>OBJECTSTORE_LOCK_MANAGER</text>		</g>
		<g id="shape1018-52" v:mID="1018" v:groupContext="shape" transform="translate(261,-293.76)">
			<title>Simple Double Arrow.1018</title>
			<desc>CACHESTORE_*</desc>
			<v:userDefs>
				<v:ud v:nameU="visVersion" v:val="VT0(15):26"/>
				<v:ud v:nameU="ArrowType" v:prompt="" v:val="VT0(3):26"/>
			</v:userDefs>
			<v:textBlock v:margins="rect(4,4,4,4)"/>
			<v:textRect cx="74.25" cy="540" width="148.5" height="0"/>
			<path d="M0 540 L18 504 L18 522 L130.5 522 L130.5 504 L148.5 540 L130.5 576 L130.5 558 L18 558 L18 576 L0 540 Z"
					class="st12"/>
			<text x="45.48" y="542.7" class="st13" v:langID="1033"><v:paragraph v:horizAlign="1"/><v:tabList/>CACHESTORE_*</text>		</g>
		<g id="shape1024-55" v:mID="1024" v:groupContext="shape" transform="translate(279,-270)">
			<title>Simple Double Arrow.1024</title>
			<desc>USERSTORE_TOKENPERM</desc>
			<v:userDefs>
				<v:ud v:nameU="visVersion" v:val="VT0(15):26"/>
				<v:ud v:nameU="ArrowType" v:prompt="" v:val="VT0(3):26"/>
			</v:userDefs>
			<v:textBlock v:margins="rect(4,4,4,4)"/>
			<v:textRect cx="74.25" cy="540" width="148.5" height="0"/>
			<path d="M0 540 L18 504 L18 522 L130.5 522 L130.5 504 L148.5 540 L130.5 576 L130.5 558 L18 558 L18 576 L0 540 Z"
					class="st12"/>
			<text x="27.11" y="542.7" class="st13" v:langID="1033"><v:paragraph v:horizAlign="1"/><v:tabList/>USERSTORE_TOKENPERM</text>		</g>
		<g id="shape1025-58" v:mID="1025" v:groupContext="shape" transform="translate(292.5,-246.24)">
			<title>Simple Double Arrow.1025</title>
			<desc>OBJECTSTORE_LOCK_MANAGER</desc>
			<v:userDefs>
				<v:ud v:nameU="visVersion" v:val="VT0(15):26"/>
				<v:ud v:nameU="ArrowType" v:prompt="" v:val="VT0(3):26"/>
			</v:userDefs>
			<v:textBlock v:margins="rect(4,4,4,4)"/>
			<v:textRect cx="74.25" cy="540" width="148.5" height="0"/>
			<path d="M0 540 L18 504 L18 522 L130.5 522 L130.5 504 L148.5 540 L130.5 576 L130.5 558 L18 558 L18 576 L0 540 Z"
					class="st12"/>
			<text x="15.19" y="542.7" class="st13" v:langID="1033"><v:paragraph v:horizAlign="1"/><v:tabList/>OBJECTSTORE_LOCK_MANAGER</text>		</g>
	</g>
</svg>
