<svg style="background-color: white" width="1280" height="720" xmlns="http://www.w3.org/2000/svg" xmlns:xlink="http://www.w3.org/1999/xlink" overflow="hidden"><defs><clipPath id="clip0"><rect x="0" y="0" width="1280" height="720"/></clipPath></defs><g clip-path="url(#clip0)"><rect x="0" y="0" width="1280" height="720" fill="#FFFFFF"/><rect x="514.5" y="23.5001" width="759" height="680" stroke="#2F528F" stroke-width="1.33333" stroke-miterlimit="8" fill="#FBE5D6"/><text font-family="Calibri,Calibri_MSFontService,sans-serif" font-weight="700" font-size="24" transform="translate(860.004 50)">Tenant</text><rect x="14.5001" y="70.5001" width="148" height="46" stroke="#2F528F" stroke-width="1.33333" stroke-miterlimit="8" fill="none"/><text font-family="Calibri,Calibri_MSFontService,sans-serif" font-weight="700" font-size="24" transform="translate(59.4424 101)">Client</text><rect x="143.5" y="356.5" width="171" height="47" stroke="#2F528F" stroke-width="1.33333" stroke-miterlimit="8" fill="none"/><text font-family="Calibri,Calibri_MSFontService,sans-serif" font-weight="700" font-size="24" transform="translate(158.456 387)">Load Balancer</text><path d="M540.5 147.501C540.5 118.23 564.23 94.5001 593.501 94.5001L805.499 94.5001C834.771 94.5001 858.5 118.23 858.5 147.501L858.5 592.499C858.5 621.771 834.771 645.5 805.499 645.5L593.501 645.5C564.23 645.5 540.5 621.771 540.5 592.499Z" stroke="#2F528F" stroke-width="1.33333" stroke-miterlimit="8" fill="#FFFFFF" fill-rule="evenodd"/><text font-family="Calibri,Calibri_MSFontService,sans-serif" font-weight="700" font-size="24" transform="translate(667.343 136)">Role A</text><rect x="557.5" y="163.5" width="284" height="191" stroke="#2F528F" stroke-width="1.33333" stroke-miterlimit="8" fill="none"/><text font-family="Calibri,Calibri_MSFontService,sans-serif" font-weight="700" font-size="24" transform="translate(566.795 190)">RoleA_IN_0</text><path d="M610.5 230.333C610.5 226.007 614.007 222.5 618.333 222.5L824.667 222.5C828.993 222.5 832.5 226.007 832.5 230.333L832.5 261.667C832.5 265.993 828.993 269.5 824.667 269.5L618.333 269.5C614.007 269.5 610.5 265.993 610.5 261.667Z" stroke="#2F528F" stroke-width="1.33333" stroke-miterlimit="8" fill="none" fill-rule="evenodd"/><text font-family="Calibri,Calibri_MSFontService,sans-serif" font-weight="400" font-size="24" transform="translate(631.524 251)">Remote forwarder</text><path d="M610.5 290.333C610.5 286.007 614.007 282.5 618.333 282.5L824.667 282.5C828.993 282.5 832.5 286.007 832.5 290.333L832.5 321.667C832.5 325.993 828.993 329.5 824.667 329.5L618.333 329.5C614.007 329.5 610.5 325.993 610.5 321.667Z" stroke="#2F528F" stroke-width="1.33333" stroke-miterlimit="8" fill="none" fill-rule="evenodd"/><text font-family="Calibri,Calibri_MSFontService,sans-serif" font-weight="400" font-size="24" transform="translate(648.954 311)">Remote access</text><path d="M587.5 246C587.5 239.649 592.649 234.5 599 234.5 605.351 234.5 610.5 239.649 610.5 246 610.5 252.351 605.351 257.5 599 257.5 592.649 257.5 587.5 252.351 587.5 246Z" stroke="#2F528F" stroke-width="1.33333" stroke-miterlimit="8" fill="#4472C4" fill-rule="evenodd"/><path d="M587.5 306C587.5 299.649 592.649 294.5 599 294.5 605.351 294.5 610.5 299.649 610.5 306 610.5 312.351 605.351 317.5 599 317.5 592.649 317.5 587.5 312.351 587.5 306Z" stroke="#2F528F" stroke-width="1.33333" stroke-miterlimit="8" fill="#4472C4" fill-rule="evenodd"/><rect x="557.5" y="422.5" width="284" height="191" stroke="#2F528F" stroke-width="1.33333" stroke-miterlimit="8" fill="none"/><text font-family="Calibri,Calibri_MSFontService,sans-serif" font-weight="700" font-size="24" transform="translate(566.795 449)">RoleA_IN_1</text><path d="M610.5 489.333C610.5 485.007 614.007 481.5 618.333 481.5L824.667 481.5C828.993 481.5 832.5 485.007 832.5 489.333L832.5 520.667C832.5 524.993 828.993 528.5 824.667 528.5L618.333 528.5C614.007 528.5 610.5 524.993 610.5 520.667Z" stroke="#2F528F" stroke-width="1.33333" stroke-miterlimit="8" fill="none" fill-rule="evenodd"/><text font-family="Calibri,Calibri_MSFontService,sans-serif" font-weight="400" font-size="24" transform="translate(631.524 510)">Remote forwarder</text><path d="M610.5 549.167C610.5 544.933 613.933 541.5 618.167 541.5L824.833 541.5C829.068 541.5 832.5 544.933 832.5 549.167L832.5 579.833C832.5 584.068 829.068 587.5 824.833 587.5L618.167 587.5C613.933 587.5 610.5 584.068 610.5 579.833Z" stroke="#2F528F" stroke-width="1.33333" stroke-miterlimit="8" fill="none" fill-rule="evenodd"/><text font-family="Calibri,Calibri_MSFontService,sans-serif" font-weight="400" font-size="24" transform="translate(648.954 570)">Remote access</text><path d="M587.5 505C587.5 498.649 592.649 493.5 599 493.5 605.351 493.5 610.5 498.649 610.5 505 610.5 511.351 605.351 516.5 599 516.5 592.649 516.5 587.5 511.351 587.5 505Z" stroke="#2F528F" stroke-width="1.33333" stroke-miterlimit="8" fill="#4472C4" fill-rule="evenodd"/><path d="M587.5 565C587.5 558.649 592.649 553.5 599 553.5 605.351 553.5 610.5 558.649 610.5 565 610.5 571.351 605.351 576.5 599 576.5 592.649 576.5 587.5 571.351 587.5 565Z" stroke="#2F528F" stroke-width="1.33333" stroke-miterlimit="8" fill="#4472C4" fill-rule="evenodd"/><path d="M468.5 93.5001C468.5 80.7975 478.798 70.5001 491.5 70.5001 504.203 70.5001 514.5 80.7975 514.5 93.5001 514.5 106.203 504.203 116.5 491.5 116.5 478.798 116.5 468.5 106.203 468.5 93.5001Z" stroke="#2F528F" stroke-width="1.33333" stroke-miterlimit="8" fill="#4472C4" fill-rule="evenodd"/><path d="M0-1.33333 137.807-1.33333 137.807 134.104 136.474 132.77 260.948 132.77 260.948 135.437 135.141 135.437 135.141 0 136.474 1.33333 0 1.33333ZM259.615 127.437 272.948 134.104 259.615 140.77Z" fill="#FF0000" transform="matrix(1 0 0 -1 314.5 379.604)"/><path d="M314.5 379.167 452.307 379.167 452.307 505.201 450.974 503.867 575.448 503.867 575.448 506.534 449.641 506.534 449.641 380.5 450.974 381.833 314.5 381.833ZM574.115 498.534 587.448 505.201 574.115 511.867Z" fill="#FF0000"/><path d="M832.5 245.5 925.799 245.5 925.799 504.304 985.449 504.304" stroke="#7F7F7F" stroke-width="2.66667" stroke-miterlimit="8" fill="none" fill-rule="evenodd"/><text font-family="Calibri,Calibri_MSFontService,sans-serif" font-weight="400" font-size="24" transform="translate(297.9 52)">VIP <tspan font-size="24" x="-73.0933" y="29">RoleB#RoleB_In_1</tspan></text><path d="M938.5 147.501C938.5 118.23 962.23 94.5001 991.501 94.5001L1203.5 94.5001C1232.77 94.5001 1256.5 118.23 1256.5 147.501L1256.5 592.499C1256.5 621.771 1232.77 645.5 1203.5 645.5L991.501 645.5C962.23 645.5 938.5 621.771 938.5 592.499Z" stroke="#2F528F" stroke-width="1.33333" stroke-miterlimit="8" fill="#FFFFFF" fill-rule="evenodd"/><text font-family="Calibri,Calibri_MSFontService,sans-serif" font-weight="700" font-size="24" transform="translate(1065.7 136)">Role B</text><rect x="955.5" y="163.5" width="284" height="191" stroke="#2F528F" stroke-width="1.33333" stroke-miterlimit="8" fill="none"/><text font-family="Calibri,Calibri_MSFontService,sans-serif" font-weight="700" font-size="24" transform="translate(964.651 190)">RoleB_IN_0</text><path d="M1008.5 230.333C1008.5 226.007 1012.01 222.5 1016.33 222.5L1222.67 222.5C1226.99 222.5 1230.5 226.007 1230.5 230.333L1230.5 261.667C1230.5 265.993 1226.99 269.5 1222.67 269.5L1016.33 269.5C1012.01 269.5 1008.5 265.993 1008.5 261.667Z" stroke="#2F528F" stroke-width="1.33333" stroke-miterlimit="8" fill="none" fill-rule="evenodd"/><text font-family="Calibri,Calibri_MSFontService,sans-serif" font-weight="400" font-size="24" transform="translate(1029.38 251)">Remote forwarder</text><path d="M1008.5 290.333C1008.5 286.007 1012.01 282.5 1016.33 282.5L1222.67 282.5C1226.99 282.5 1230.5 286.007 1230.5 290.333L1230.5 321.667C1230.5 325.993 1226.99 329.5 1222.67 329.5L1016.33 329.5C1012.01 329.5 1008.5 325.993 1008.5 321.667Z" stroke="#2F528F" stroke-width="1.33333" stroke-miterlimit="8" fill="none" fill-rule="evenodd"/><text font-family="Calibri,Calibri_MSFontService,sans-serif" font-weight="400" font-size="24" transform="translate(1046.81 311)">Remote access</text><path d="M985.5 246C985.5 239.649 990.649 234.5 997 234.5 1003.35 234.5 1008.5 239.649 1008.5 246 1008.5 252.351 1003.35 257.5 997 257.5 990.649 257.5 985.5 252.351 985.5 246Z" stroke="#2F528F" stroke-width="1.33333" stroke-miterlimit="8" fill="#4472C4" fill-rule="evenodd"/><path d="M985.5 306C985.5 299.649 990.649 294.5 997 294.5 1003.35 294.5 1008.5 299.649 1008.5 306 1008.5 312.351 1003.35 317.5 997 317.5 990.649 317.5 985.5 312.351 985.5 306Z" stroke="#2F528F" stroke-width="1.33333" stroke-miterlimit="8" fill="#4472C4" fill-rule="evenodd"/><rect x="955" y="422" width="284" height="191" stroke="#000000" stroke-width="4" stroke-miterlimit="8" fill="none"/><text font-family="Calibri,Calibri_MSFontService,sans-serif" font-weight="700" font-size="24" transform="translate(964.651 449)">RoleB_IN_1</text><path d="M1008.5 489.333C1008.5 485.007 1012.01 481.5 1016.33 481.5L1222.67 481.5C1226.99 481.5 1230.5 485.007 1230.5 489.333L1230.5 520.667C1230.5 524.993 1226.99 528.5 1222.67 528.5L1016.33 528.5C1012.01 528.5 1008.5 524.993 1008.5 520.667Z" stroke="#2F528F" stroke-width="1.33333" stroke-miterlimit="8" fill="none" fill-rule="evenodd"/><text font-family="Calibri,Calibri_MSFontService,sans-serif" font-weight="400" font-size="24" transform="translate(1029.38 510)">Remote forwarder</text><path d="M1008.5 549.167C1008.5 544.933 1011.93 541.5 1016.17 541.5L1222.83 541.5C1227.07 541.5 1230.5 544.933 1230.5 549.167L1230.5 579.833C1230.5 584.068 1227.07 587.5 1222.83 587.5L1016.17 587.5C1011.93 587.5 1008.5 584.068 1008.5 579.833Z" stroke="#2F528F" stroke-width="1.33333" stroke-miterlimit="8" fill="none" fill-rule="evenodd"/><text font-family="Calibri,Calibri_MSFontService,sans-serif" font-weight="400" font-size="24" transform="translate(1046.81 570)">Remote access</text><path d="M985.5 505C985.5 498.649 990.649 493.5 997 493.5 1003.35 493.5 1008.5 498.649 1008.5 505 1008.5 511.351 1003.35 516.5 997 516.5 990.649 516.5 985.5 511.351 985.5 505Z" stroke="#2F528F" stroke-width="1.33333" stroke-miterlimit="8" fill="#4472C4" fill-rule="evenodd"/><path d="M985.5 565C985.5 558.649 990.649 553.5 997 553.5 1003.35 553.5 1008.5 558.649 1008.5 565 1008.5 571.351 1003.35 576.5 997 576.5 990.649 576.5 985.5 571.351 985.5 565Z" stroke="#2F528F" stroke-width="1.33333" stroke-miterlimit="8" fill="#4472C4" fill-rule="evenodd"/><text font-family="Calibri,Calibri_MSFontService,sans-serif" font-style="italic" font-weight="400" font-size="24" transform="translate(1041.55 408)">Target role instance</text><path d="M492.679 116.5 492.679 181.379 228.5 181.379 229.833 180.046 229.833 344.995 227.167 344.995 227.167 178.713 491.345 178.713 490.012 180.046 490.012 116.5ZM235.167 343.662 228.5 356.995 221.833 343.662Z"/><path d="M162.5 92.1667 316.576 92.1667 316.576 94.8334 315.242 93.5001 455.984 93.5001 455.984 96.1667 313.909 96.1667 313.909 93.5001 315.242 94.8334 162.5 94.8334ZM454.651 88.1667 467.984 94.8334 454.651 101.5Z"/><path d="M314.5 380.5 449.912 380.5 449.912 676.912 873.221 676.912" stroke="#FF0000" stroke-width="2.66667" stroke-miterlimit="8" fill="none" fill-rule="evenodd"/><path d="M832.5 503.167 910.308 503.167 910.308 505.833 908.974 504.5 973.449 504.5 973.449 507.167 907.641 507.167 907.641 504.5 908.974 505.833 832.5 505.833ZM972.115 499.167 985.449 505.833 972.115 512.5Z" fill="#7F7F7F"/><text font-family="Calibri,Calibri_MSFontService,sans-serif" font-style="italic" font-weight="400" font-size="24" transform="translate(397.744 374)">Port <tspan font-size="24" x="-4.15997" y="29">3389</tspan><tspan font-size="24" x="481.392" y="125">Port </tspan><tspan font-size="24" x="471.152" y="154">20000</tspan></text><path d="M1.08913-0.769143 109.644 152.947 107.465 154.485-1.08913 0.769143ZM113.231 148.781 115.477 163.518 102.34 156.472Z" fill="#FF0000" transform="matrix(1 0 0 -1 873.5 676.018)"/></g></svg>