<svg style="background-color: white" width="1280" height="720" xmlns="http://www.w3.org/2000/svg" xmlns:xlink="http://www.w3.org/1999/xlink" overflow="hidden"><defs><clipPath id="clip0"><rect x="0" y="0" width="1280" height="720"/></clipPath><clipPath id="clip1"><rect x="511" y="27" width="48" height="48"/></clipPath><clipPath id="clip2"><rect x="511" y="27" width="48" height="48"/></clipPath><clipPath id="clip3"><rect x="511" y="27" width="48" height="48"/></clipPath><linearGradient x1="534.973" y1="71.2933" x2="534.973" y2="23.6133" gradientUnits="userSpaceOnUse" spreadMethod="pad" id="fill4"><stop offset="0" stop-color="#0078D4"/><stop offset="0.16" stop-color="#1380DA"/><stop offset="0.53" stop-color="#3C91E5"/><stop offset="0.82" stop-color="#559CEC"/><stop offset="1" stop-color="#5EA0EF"/></linearGradient><clipPath id="clip5"><rect x="64" y="27" width="48" height="48"/></clipPath><clipPath id="clip6"><rect x="64" y="27" width="48" height="48"/></clipPath><clipPath id="clip7"><rect x="64" y="27" width="48" height="48"/></clipPath><linearGradient x1="88" y1="68.8667" x2="88" y2="42.0933" gradientUnits="userSpaceOnUse" spreadMethod="pad" id="fill8"><stop offset="0" stop-color="#32BEDD"/><stop offset="0.18" stop-color="#32CAEA"/><stop offset="0.41" stop-color="#32D2F2"/><stop offset="0.78" stop-color="#32D4F5"/><stop offset="1" stop-color="#32D4F5"/></linearGradient><clipPath id="clip9"><rect x="64" y="144" width="48" height="48"/></clipPath><clipPath id="clip10"><rect x="64" y="144" width="48" height="48"/></clipPath><clipPath id="clip11"><rect x="64" y="144" width="48" height="48"/></clipPath><linearGradient x1="88" y1="185.867" x2="88" y2="159.093" gradientUnits="userSpaceOnUse" spreadMethod="pad" id="fill12"><stop offset="0" stop-color="#32BEDD"/><stop offset="0.18" stop-color="#32CAEA"/><stop offset="0.41" stop-color="#32D2F2"/><stop offset="0.78" stop-color="#32D4F5"/><stop offset="1" stop-color="#32D4F5"/></linearGradient><clipPath id="clip13"><rect x="511" y="272" width="48" height="48"/></clipPath><clipPath id="clip14"><rect x="511" y="272" width="48" height="48"/></clipPath><clipPath id="clip15"><rect x="511" y="272" width="48" height="48"/></clipPath><linearGradient x1="534.973" y1="316.293" x2="534.973" y2="268.613" gradientUnits="userSpaceOnUse" spreadMethod="pad" id="fill16"><stop offset="0" stop-color="#0078D4"/><stop offset="0.16" stop-color="#1380DA"/><stop offset="0.53" stop-color="#3C91E5"/><stop offset="0.82" stop-color="#559CEC"/><stop offset="1" stop-color="#5EA0EF"/></linearGradient><clipPath id="clip17"><rect x="64" y="272" width="48" height="48"/></clipPath><clipPath id="clip18"><rect x="64" y="272" width="48" height="48"/></clipPath><clipPath id="clip19"><rect x="64" y="272" width="48" height="48"/></clipPath><linearGradient x1="88" y1="313.867" x2="88" y2="287.093" gradientUnits="userSpaceOnUse" spreadMethod="pad" id="fill20"><stop offset="0" stop-color="#32BEDD"/><stop offset="0.18" stop-color="#32CAEA"/><stop offset="0.41" stop-color="#32D2F2"/><stop offset="0.78" stop-color="#32D4F5"/><stop offset="1" stop-color="#32D4F5"/></linearGradient><clipPath id="clip21"><rect x="511" y="389" width="48" height="48"/></clipPath><clipPath id="clip22"><rect x="511" y="389" width="48" height="48"/></clipPath><clipPath id="clip23"><rect x="511" y="389" width="48" height="48"/></clipPath><linearGradient x1="534.973" y1="433.293" x2="534.973" y2="385.613" gradientUnits="userSpaceOnUse" spreadMethod="pad" id="fill24"><stop offset="0" stop-color="#0078D4"/><stop offset="0.16" stop-color="#1380DA"/><stop offset="0.53" stop-color="#3C91E5"/><stop offset="0.82" stop-color="#559CEC"/><stop offset="1" stop-color="#5EA0EF"/></linearGradient><clipPath id="clip25"><rect x="64" y="389" width="48" height="48"/></clipPath><clipPath id="clip26"><rect x="64" y="389" width="48" height="48"/></clipPath><clipPath id="clip27"><rect x="64" y="389" width="48" height="48"/></clipPath><linearGradient x1="88" y1="430.867" x2="88" y2="404.093" gradientUnits="userSpaceOnUse" spreadMethod="pad" id="fill28"><stop offset="0" stop-color="#32BEDD"/><stop offset="0.18" stop-color="#32CAEA"/><stop offset="0.41" stop-color="#32D2F2"/><stop offset="0.78" stop-color="#32D4F5"/><stop offset="1" stop-color="#32D4F5"/></linearGradient><clipPath id="clip29"><rect x="511" y="517" width="48" height="48"/></clipPath><clipPath id="clip30"><rect x="511" y="517" width="48" height="48"/></clipPath><clipPath id="clip31"><rect x="511" y="517" width="48" height="48"/></clipPath><linearGradient x1="534.973" y1="561.293" x2="534.973" y2="513.613" gradientUnits="userSpaceOnUse" spreadMethod="pad" id="fill32"><stop offset="0" stop-color="#0078D4"/><stop offset="0.16" stop-color="#1380DA"/><stop offset="0.53" stop-color="#3C91E5"/><stop offset="0.82" stop-color="#559CEC"/><stop offset="1" stop-color="#5EA0EF"/></linearGradient><clipPath id="clip33"><rect x="64" y="517" width="48" height="48"/></clipPath><clipPath id="clip34"><rect x="64" y="517" width="48" height="48"/></clipPath><clipPath id="clip35"><rect x="64" y="517" width="48" height="48"/></clipPath><linearGradient x1="88" y1="558.867" x2="88" y2="532.093" gradientUnits="userSpaceOnUse" spreadMethod="pad" id="fill36"><stop offset="0" stop-color="#32BEDD"/><stop offset="0.18" stop-color="#32CAEA"/><stop offset="0.41" stop-color="#32D2F2"/><stop offset="0.78" stop-color="#32D4F5"/><stop offset="1" stop-color="#32D4F5"/></linearGradient><clipPath id="clip37"><rect x="511" y="634" width="48" height="48"/></clipPath><clipPath id="clip38"><rect x="511" y="634" width="48" height="48"/></clipPath><clipPath id="clip39"><rect x="511" y="634" width="48" height="48"/></clipPath><linearGradient x1="534.973" y1="678.293" x2="534.973" y2="630.613" gradientUnits="userSpaceOnUse" spreadMethod="pad" id="fill40"><stop offset="0" stop-color="#0078D4"/><stop offset="0.16" stop-color="#1380DA"/><stop offset="0.53" stop-color="#3C91E5"/><stop offset="0.82" stop-color="#559CEC"/><stop offset="1" stop-color="#5EA0EF"/></linearGradient><clipPath id="clip41"><rect x="64" y="634" width="48" height="48"/></clipPath><clipPath id="clip42"><rect x="64" y="634" width="48" height="48"/></clipPath><clipPath id="clip43"><rect x="64" y="634" width="48" height="48"/></clipPath><linearGradient x1="88" y1="675.867" x2="88" y2="649.093" gradientUnits="userSpaceOnUse" spreadMethod="pad" id="fill44"><stop offset="0" stop-color="#32BEDD"/><stop offset="0.18" stop-color="#32CAEA"/><stop offset="0.41" stop-color="#32D2F2"/><stop offset="0.78" stop-color="#32D4F5"/><stop offset="1" stop-color="#32D4F5"/></linearGradient><clipPath id="clip45"><rect x="1140" y="27" width="48" height="48"/></clipPath><clipPath id="clip46"><rect x="1140" y="27" width="48" height="48"/></clipPath><clipPath id="clip47"><rect x="1140" y="27" width="48" height="48"/></clipPath><linearGradient x1="1163.97" y1="71.2933" x2="1163.97" y2="23.6133" gradientUnits="userSpaceOnUse" spreadMethod="pad" id="fill48"><stop offset="0" stop-color="#0078D4"/><stop offset="0.16" stop-color="#1380DA"/><stop offset="0.53" stop-color="#3C91E5"/><stop offset="0.82" stop-color="#559CEC"/><stop offset="1" stop-color="#5EA0EF"/></linearGradient><clipPath id="clip49"><rect x="693" y="27" width="48" height="48"/></clipPath><clipPath id="clip50"><rect x="693" y="27" width="48" height="48"/></clipPath><clipPath id="clip51"><rect x="693" y="27" width="48" height="48"/></clipPath><linearGradient x1="717" y1="68.8667" x2="717" y2="42.0933" gradientUnits="userSpaceOnUse" spreadMethod="pad" id="fill52"><stop offset="0" stop-color="#32BEDD"/><stop offset="0.18" stop-color="#32CAEA"/><stop offset="0.41" stop-color="#32D2F2"/><stop offset="0.78" stop-color="#32D4F5"/><stop offset="1" stop-color="#32D4F5"/></linearGradient><clipPath id="clip53"><rect x="693" y="144" width="48" height="48"/></clipPath><clipPath id="clip54"><rect x="693" y="144" width="48" height="48"/></clipPath><clipPath id="clip55"><rect x="693" y="144" width="48" height="48"/></clipPath><linearGradient x1="717" y1="185.867" x2="717" y2="159.093" gradientUnits="userSpaceOnUse" spreadMethod="pad" id="fill56"><stop offset="0" stop-color="#32BEDD"/><stop offset="0.18" stop-color="#32CAEA"/><stop offset="0.41" stop-color="#32D2F2"/><stop offset="0.78" stop-color="#32D4F5"/><stop offset="1" stop-color="#32D4F5"/></linearGradient><clipPath id="clip57"><rect x="1140" y="272" width="48" height="48"/></clipPath><clipPath id="clip58"><rect x="1140" y="272" width="48" height="48"/></clipPath><clipPath id="clip59"><rect x="1140" y="272" width="48" height="48"/></clipPath><linearGradient x1="1163.97" y1="316.293" x2="1163.97" y2="268.613" gradientUnits="userSpaceOnUse" spreadMethod="pad" id="fill60"><stop offset="0" stop-color="#0078D4"/><stop offset="0.16" stop-color="#1380DA"/><stop offset="0.53" stop-color="#3C91E5"/><stop offset="0.82" stop-color="#559CEC"/><stop offset="1" stop-color="#5EA0EF"/></linearGradient><clipPath id="clip61"><rect x="693" y="272" width="48" height="48"/></clipPath><clipPath id="clip62"><rect x="693" y="272" width="48" height="48"/></clipPath><clipPath id="clip63"><rect x="693" y="272" width="48" height="48"/></clipPath><linearGradient x1="717" y1="313.867" x2="717" y2="287.093" gradientUnits="userSpaceOnUse" spreadMethod="pad" id="fill64"><stop offset="0" stop-color="#32BEDD"/><stop offset="0.18" stop-color="#32CAEA"/><stop offset="0.41" stop-color="#32D2F2"/><stop offset="0.78" stop-color="#32D4F5"/><stop offset="1" stop-color="#32D4F5"/></linearGradient><clipPath id="clip65"><rect x="1140" y="389" width="48" height="48"/></clipPath><clipPath id="clip66"><rect x="1140" y="389" width="48" height="48"/></clipPath><clipPath id="clip67"><rect x="1140" y="389" width="48" height="48"/></clipPath><linearGradient x1="1163.97" y1="433.293" x2="1163.97" y2="385.613" gradientUnits="userSpaceOnUse" spreadMethod="pad" id="fill68"><stop offset="0" stop-color="#0078D4"/><stop offset="0.16" stop-color="#1380DA"/><stop offset="0.53" stop-color="#3C91E5"/><stop offset="0.82" stop-color="#559CEC"/><stop offset="1" stop-color="#5EA0EF"/></linearGradient><clipPath id="clip69"><rect x="693" y="389" width="48" height="48"/></clipPath><clipPath id="clip70"><rect x="693" y="389" width="48" height="48"/></clipPath><clipPath id="clip71"><rect x="693" y="389" width="48" height="48"/></clipPath><linearGradient x1="717" y1="430.867" x2="717" y2="404.093" gradientUnits="userSpaceOnUse" spreadMethod="pad" id="fill72"><stop offset="0" stop-color="#32BEDD"/><stop offset="0.18" stop-color="#32CAEA"/><stop offset="0.41" stop-color="#32D2F2"/><stop offset="0.78" stop-color="#32D4F5"/><stop offset="1" stop-color="#32D4F5"/></linearGradient><clipPath id="clip73"><rect x="1140" y="517" width="48" height="48"/></clipPath><clipPath id="clip74"><rect x="1140" y="517" width="48" height="48"/></clipPath><clipPath id="clip75"><rect x="1140" y="517" width="48" height="48"/></clipPath><linearGradient x1="1163.97" y1="561.293" x2="1163.97" y2="513.613" gradientUnits="userSpaceOnUse" spreadMethod="pad" id="fill76"><stop offset="0" stop-color="#0078D4"/><stop offset="0.16" stop-color="#1380DA"/><stop offset="0.53" stop-color="#3C91E5"/><stop offset="0.82" stop-color="#559CEC"/><stop offset="1" stop-color="#5EA0EF"/></linearGradient><clipPath id="clip77"><rect x="693" y="517" width="48" height="48"/></clipPath><clipPath id="clip78"><rect x="693" y="517" width="48" height="48"/></clipPath><clipPath id="clip79"><rect x="693" y="517" width="48" height="48"/></clipPath><linearGradient x1="717" y1="558.867" x2="717" y2="532.093" gradientUnits="userSpaceOnUse" spreadMethod="pad" id="fill80"><stop offset="0" stop-color="#32BEDD"/><stop offset="0.18" stop-color="#32CAEA"/><stop offset="0.41" stop-color="#32D2F2"/><stop offset="0.78" stop-color="#32D4F5"/><stop offset="1" stop-color="#32D4F5"/></linearGradient><clipPath id="clip81"><rect x="1140" y="634" width="48" height="48"/></clipPath><clipPath id="clip82"><rect x="1140" y="634" width="48" height="48"/></clipPath><clipPath id="clip83"><rect x="1140" y="634" width="48" height="48"/></clipPath><linearGradient x1="1163.97" y1="678.293" x2="1163.97" y2="630.613" gradientUnits="userSpaceOnUse" spreadMethod="pad" id="fill84"><stop offset="0" stop-color="#0078D4"/><stop offset="0.16" stop-color="#1380DA"/><stop offset="0.53" stop-color="#3C91E5"/><stop offset="0.82" stop-color="#559CEC"/><stop offset="1" stop-color="#5EA0EF"/></linearGradient><clipPath id="clip85"><rect x="693" y="634" width="48" height="48"/></clipPath><clipPath id="clip86"><rect x="693" y="634" width="48" height="48"/></clipPath><clipPath id="clip87"><rect x="693" y="634" width="48" height="48"/></clipPath><linearGradient x1="717" y1="675.867" x2="717" y2="649.093" gradientUnits="userSpaceOnUse" spreadMethod="pad" id="fill88"><stop offset="0" stop-color="#32BEDD"/><stop offset="0.18" stop-color="#32CAEA"/><stop offset="0.41" stop-color="#32D2F2"/><stop offset="0.78" stop-color="#32D4F5"/><stop offset="1" stop-color="#32D4F5"/></linearGradient></defs><g clip-path="url(#clip0)"><rect x="0" y="0" width="1280" height="720" fill="#FFFFFF"/><rect x="0" y="0" width="614" height="230" stroke="#000000" stroke-width="4" stroke-miterlimit="8" fill="#FFFFFF"/><g clip-path="url(#clip1)"><g clip-path="url(#clip2)"><g clip-path="url(#clip3)"><path d="M559 55.1333C558.914 49.7651 554.951 45.2498 549.64 44.4667 549.436 36.9274 543.18 30.9692 535.64 31.1333 529.681 31.0723 524.334 34.7831 522.307 40.3867 515.868 41.2266 511.039 46.6933 511 53.1867 511.203 60.4528 517.254 66.1808 524.52 65.9867L525.693 65.9867 547.587 65.9867C547.782 66.0013 547.978 66.0013 548.173 65.9867 554.121 65.8864 558.914 61.0813 559 55.1333Z" fill="url(#fill4)"/><path d="M526.867 52.7333C526.867 53.779 526.019 54.6267 524.973 54.6267 523.928 54.6267 523.08 53.779 523.08 52.7333 523.08 51.6877 523.928 50.84 524.973 50.84 526.019 50.84 526.867 51.6877 526.867 52.7333Z" fill="#E3E3E3"/><path d="M531.64 53.4533 531.64 51.9333 531.427 51.9333 529.8 51.4 529.373 50.36 530.2 48.6 529.133 47.5333 528.92 47.5333 527.4 48.3333 526.36 47.9067 525.693 46.0667 524.173 46.0667 524.173 46.28 523.64 47.9067 522.52 48.3333 520.787 47.5067 519.72 48.5733 519.72 48.7867 520.493 50.3067 520.067 51.3467 518.2 52.0133 518.2 53.6667 518.413 53.6667 520.04 54.2 520.467 55.24 519.64 57 520.707 58.0667 520.92 58.0667 522.44 57.2933 523.48 57.72 524.147 59.56 525.667 59.56 525.667 59.3467 526.2 57.72 527.24 57.2933 529 58.12 530.067 57.0533 530.067 56.84 529.293 55.32 529.72 54.28ZM524.973 55.6667C523.353 55.6667 522.04 54.3533 522.04 52.7333 522.04 51.1133 523.353 49.8 524.973 49.8 526.593 49.8 527.907 51.1133 527.907 52.7333 527.921 54.3387 526.632 55.652 525.027 55.6667 525.009 55.6669 524.991 55.6669 524.973 55.6667Z" fill="#FFFFFF"/><path d="M539.907 44.5733C539.907 45.8105 538.904 46.8133 537.667 46.8133 536.43 46.8133 535.427 45.8105 535.427 44.5733 535.427 43.3362 536.43 42.3333 537.667 42.3333 538.904 42.3333 539.907 43.3362 539.907 44.5733Z" fill="#E3E3E3"/><path d="M545.667 45.4267 545.667 43.6133 545.427 43.6133 543.453 43 543 41.64 543.987 39.5067 542.707 38.2267 542.467 38.2267 540.627 39.16 539.4 38.6533 538.6 36.44 536.707 36.44 536.707 36.7067 536.067 38.6533 534.813 39.16 532.733 38.1733 531.453 39.4533 531.587 39.6933 532.333 41.6667 531.907 43 529.667 43.72 529.667 45.6667 529.933 45.6667 531.88 46.3067 532.333 47.5067 531.347 49.64 532.68 51 532.947 50.8667 534.76 49.9333 536.013 50.44 536.813 52.6533 538.627 52.6533 538.627 52.3867 539.267 50.44 540.52 49.9333 542.627 50.92 543.907 49.64 543.773 49.4 543 47.48 543.507 46.2267ZM537.667 48.0933C535.723 48.0933 534.147 46.5174 534.147 44.5733 534.147 42.6293 535.723 41.0533 537.667 41.0533 539.611 41.0533 541.187 42.6293 541.187 44.5733 541.201 46.5026 539.649 48.0786 537.72 48.0933 537.702 48.0935 537.685 48.0935 537.667 48.0933Z" fill="#FFFFFF"/></g></g></g><g clip-path="url(#clip5)"><g clip-path="url(#clip6)"><g clip-path="url(#clip7)"><path d="M65.3333 42.0933 110.667 42.0933 110.667 42.0933 110.667 67.3733C110.667 68.2128 109.986 68.8933 109.147 68.8933L66.8533 68.8933C66.0139 68.8933 65.3333 68.2128 65.3333 67.3733L65.3333 42.0933 65.3333 42.0933Z" fill="url(#fill8)"/><path d="M66.8533 32.3333 109.147 32.3333C109.986 32.3333 110.667 33.0139 110.667 33.8533L110.667 42.0933 110.667 42.0933 65.3333 42.0933 65.3333 42.0933 65.3333 33.9333C65.2891 33.095 65.9329 32.3796 66.7712 32.3354 66.7986 32.334 66.8259 32.3333 66.8533 32.3333Z" fill="#0078D4"/><path d="M101.867 53.8267C101.867 55.8591 100.219 57.5067 98.1867 57.5067 96.1543 57.5067 94.5067 55.8591 94.5067 53.8267 94.5067 51.7943 96.1543 50.1467 98.1867 50.1467 100.219 50.1467 101.867 51.7943 101.867 53.8267Z" fill="#F2F2F2"/><path d="M91.84 53.8267C91.84 55.8591 90.1924 57.5067 88.16 57.5067 86.1276 57.5067 84.48 55.8591 84.48 53.8267 84.48 51.7943 86.1276 50.1467 88.16 50.1467 90.1924 50.1467 91.84 51.7943 91.84 53.8267Z" fill="#F2F2F2"/><path d="M81.4933 53.8267C81.4933 55.8591 79.8457 57.5067 77.8133 57.5067 75.7809 57.5067 74.1333 55.8591 74.1333 53.8267 74.1333 51.7943 75.7809 50.1467 77.8133 50.1467 79.8457 50.1467 81.4933 51.7943 81.4933 53.8267Z" fill="#F2F2F2"/><path d="M103.84 35.32C104.252 35.32 104.587 35.6543 104.587 36.0667L104.587 38.4667C104.587 38.879 104.252 39.2133 103.84 39.2133L72.1867 39.2133C71.7743 39.2133 71.44 38.879 71.44 38.4667L71.44 36.0667C71.44 35.6543 71.7743 35.32 72.1867 35.32Z" fill="#F2F2F2"/></g></g></g><rect x="0.500053" y="0.500053" width="48" height="48" stroke="#2F528F" stroke-width="1.33333" stroke-miterlimit="8" fill="#E91C1C"/><text fill="#FFFFFF" font-family="Calibri,Calibri_MSFontService,sans-serif" font-weight="700" font-size="32" transform="translate(15.9166 35)">1</text><text font-family="Calibri,Calibri_MSFontService,sans-serif" font-weight="400" font-size="21" transform="translate(63.8352 94)">cses</text><text font-family="Calibri,Calibri_MSFontService,sans-serif" font-weight="400" font-size="21" transform="translate(100.169 94)">-</text><text font-family="Calibri,Calibri_MSFontService,sans-serif" font-weight="400" font-size="21" transform="translate(106.669 94)">prod.eastus.cloudapp.azure.com</text><path d="M281.5 45.4381 449.5 45.4381 449.5 27.5001 473.5 51.5001 449.5 75.5001 449.5 57.562 281.5 57.562Z" stroke="#2F528F" stroke-width="1.33333" stroke-miterlimit="8" fill="#4472C4" fill-rule="evenodd" fill-opacity="0.2"/><text font-family="Calibri,Calibri_MSFontService,sans-serif" font-weight="400" font-size="21" transform="translate(485.143 94)">testcsesv1</text><g clip-path="url(#clip9)"><g clip-path="url(#clip10)"><g clip-path="url(#clip11)"><path d="M65.3333 159.093 110.667 159.093 110.667 159.093 110.667 184.373C110.667 185.213 109.986 185.893 109.147 185.893L66.8533 185.893C66.0139 185.893 65.3333 185.213 65.3333 184.373L65.3333 159.093 65.3333 159.093Z" fill="url(#fill12)"/><path d="M66.8533 149.333 109.147 149.333C109.986 149.333 110.667 150.014 110.667 150.853L110.667 159.093 110.667 159.093 65.3333 159.093 65.3333 159.093 65.3333 150.933C65.2891 150.095 65.9329 149.38 66.7712 149.335 66.7986 149.334 66.8259 149.333 66.8533 149.333Z" fill="#0078D4"/><path d="M101.867 170.827C101.867 172.859 100.219 174.507 98.1867 174.507 96.1543 174.507 94.5067 172.859 94.5067 170.827 94.5067 168.794 96.1543 167.147 98.1867 167.147 100.219 167.147 101.867 168.794 101.867 170.827Z" fill="#F2F2F2"/><path d="M91.84 170.827C91.84 172.859 90.1924 174.507 88.16 174.507 86.1276 174.507 84.48 172.859 84.48 170.827 84.48 168.794 86.1276 167.147 88.16 167.147 90.1924 167.147 91.84 168.794 91.84 170.827Z" fill="#F2F2F2"/><path d="M81.4933 170.827C81.4933 172.859 79.8457 174.507 77.8133 174.507 75.7809 174.507 74.1333 172.859 74.1333 170.827 74.1333 168.794 75.7809 167.147 77.8133 167.147 79.8457 167.147 81.4933 168.794 81.4933 170.827Z" fill="#F2F2F2"/><path d="M103.84 152.32C104.252 152.32 104.587 152.654 104.587 153.067L104.587 155.467C104.587 155.879 104.252 156.213 103.84 156.213L72.1867 156.213C71.7743 156.213 71.44 155.879 71.44 155.467L71.44 153.067C71.44 152.654 71.7743 152.32 72.1867 152.32Z" fill="#F2F2F2"/></g></g></g><text font-family="Calibri,Calibri_MSFontService,sans-serif" font-weight="400" font-size="21" transform="translate(63.8352 210)">cses</text><text font-family="Calibri,Calibri_MSFontService,sans-serif" font-weight="400" font-size="21" transform="translate(100.169 210)">-</text><text font-family="Calibri,Calibri_MSFontService,sans-serif" font-weight="400" font-size="21" transform="translate(106.669 210)">stag.eastus.cloudapp.azure.com</text><path d="M281.5 162.438 449.5 162.438 449.5 144.5 473.5 168.5 449.5 192.5 449.5 174.562 281.5 174.562Z" stroke="#2F528F" stroke-width="1.33333" stroke-miterlimit="8" fill="#4472C4" fill-rule="evenodd" fill-opacity="0.2"/><rect x="0" y="245" width="614" height="230" stroke="#000000" stroke-width="4" stroke-miterlimit="8" fill="#FFFFFF"/><g clip-path="url(#clip13)"><g clip-path="url(#clip14)"><g clip-path="url(#clip15)"><path d="M559 300.133C558.914 294.765 554.951 290.25 549.64 289.467 549.436 281.927 543.18 275.969 535.64 276.133 529.681 276.072 524.334 279.783 522.307 285.387 515.868 286.227 511.039 291.693 511 298.187 511.203 305.453 517.254 311.181 524.52 310.987L525.693 310.987 547.587 310.987C547.782 311.001 547.978 311.001 548.173 310.987 554.121 310.886 558.914 306.081 559 300.133Z" fill="url(#fill16)"/><path d="M526.867 297.733C526.867 298.779 526.019 299.627 524.973 299.627 523.928 299.627 523.08 298.779 523.08 297.733 523.08 296.688 523.928 295.84 524.973 295.84 526.019 295.84 526.867 296.688 526.867 297.733Z" fill="#E3E3E3"/><path d="M531.64 298.453 531.64 296.933 531.427 296.933 529.8 296.4 529.373 295.36 530.2 293.6 529.133 292.533 528.92 292.533 527.4 293.333 526.36 292.907 525.693 291.067 524.173 291.067 524.173 291.28 523.64 292.907 522.52 293.333 520.787 292.507 519.72 293.573 519.72 293.787 520.493 295.307 520.067 296.347 518.2 297.013 518.2 298.667 518.413 298.667 520.04 299.2 520.467 300.24 519.64 302 520.707 303.067 520.92 303.067 522.44 302.293 523.48 302.72 524.147 304.56 525.667 304.56 525.667 304.347 526.2 302.72 527.24 302.293 529 303.12 530.067 302.053 530.067 301.84 529.293 300.32 529.72 299.28ZM524.973 300.667C523.353 300.667 522.04 299.353 522.04 297.733 522.04 296.113 523.353 294.8 524.973 294.8 526.593 294.8 527.907 296.113 527.907 297.733 527.921 299.339 526.632 300.652 525.027 300.667 525.009 300.667 524.991 300.667 524.973 300.667Z" fill="#FFFFFF"/><path d="M539.907 289.573C539.907 290.81 538.904 291.813 537.667 291.813 536.43 291.813 535.427 290.81 535.427 289.573 535.427 288.336 536.43 287.333 537.667 287.333 538.904 287.333 539.907 288.336 539.907 289.573Z" fill="#E3E3E3"/><path d="M545.667 290.427 545.667 288.613 545.427 288.613 543.453 288 543 286.64 543.987 284.507 542.707 283.227 542.467 283.227 540.627 284.16 539.4 283.653 538.6 281.44 536.707 281.44 536.707 281.707 536.067 283.653 534.813 284.16 532.733 283.173 531.453 284.453 531.587 284.693 532.333 286.667 531.907 288 529.667 288.72 529.667 290.667 529.933 290.667 531.88 291.307 532.333 292.507 531.347 294.64 532.68 296 532.947 295.867 534.76 294.933 536.013 295.44 536.813 297.653 538.627 297.653 538.627 297.387 539.267 295.44 540.52 294.933 542.627 295.92 543.907 294.64 543.773 294.4 543 292.48 543.507 291.227ZM537.667 293.093C535.723 293.093 534.147 291.517 534.147 289.573 534.147 287.629 535.723 286.053 537.667 286.053 539.611 286.053 541.187 287.629 541.187 289.573 541.201 291.503 539.649 293.079 537.72 293.093 537.702 293.093 537.685 293.093 537.667 293.093Z" fill="#FFFFFF"/></g></g></g><g clip-path="url(#clip17)"><g clip-path="url(#clip18)"><g clip-path="url(#clip19)"><path d="M65.3333 287.093 110.667 287.093 110.667 287.093 110.667 312.373C110.667 313.213 109.986 313.893 109.147 313.893L66.8533 313.893C66.0139 313.893 65.3333 313.213 65.3333 312.373L65.3333 287.093 65.3333 287.093Z" fill="url(#fill20)"/><path d="M66.8533 277.333 109.147 277.333C109.986 277.333 110.667 278.014 110.667 278.853L110.667 287.093 110.667 287.093 65.3333 287.093 65.3333 287.093 65.3333 278.933C65.2891 278.095 65.9329 277.38 66.7712 277.335 66.7986 277.334 66.8259 277.333 66.8533 277.333Z" fill="#0078D4"/><path d="M101.867 298.827C101.867 300.859 100.219 302.507 98.1867 302.507 96.1543 302.507 94.5067 300.859 94.5067 298.827 94.5067 296.794 96.1543 295.147 98.1867 295.147 100.219 295.147 101.867 296.794 101.867 298.827Z" fill="#F2F2F2"/><path d="M91.84 298.827C91.84 300.859 90.1924 302.507 88.16 302.507 86.1276 302.507 84.48 300.859 84.48 298.827 84.48 296.794 86.1276 295.147 88.16 295.147 90.1924 295.147 91.84 296.794 91.84 298.827Z" fill="#F2F2F2"/><path d="M81.4933 298.827C81.4933 300.859 79.8457 302.507 77.8133 302.507 75.7809 302.507 74.1333 300.859 74.1333 298.827 74.1333 296.794 75.7809 295.147 77.8133 295.147 79.8457 295.147 81.4933 296.794 81.4933 298.827Z" fill="#F2F2F2"/><path d="M103.84 280.32C104.252 280.32 104.587 280.654 104.587 281.067L104.587 283.467C104.587 283.879 104.252 284.213 103.84 284.213L72.1867 284.213C71.7743 284.213 71.44 283.879 71.44 283.467L71.44 281.067C71.44 280.654 71.7743 280.32 72.1867 280.32Z" fill="#F2F2F2"/></g></g></g><rect x="0.500053" y="245.5" width="48" height="48" stroke="#2F528F" stroke-width="1.33333" stroke-miterlimit="8" fill="#E91C1C"/><text fill="#FFFFFF" font-family="Calibri,Calibri_MSFontService,sans-serif" font-weight="700" font-size="32" transform="translate(15.9166 280)">2</text><text font-family="Calibri,Calibri_MSFontService,sans-serif" font-weight="400" font-size="21" transform="translate(63.8352 338)">cses</text><text font-family="Calibri,Calibri_MSFontService,sans-serif" font-weight="400" font-size="21" transform="translate(100.169 338)">-</text><text font-family="Calibri,Calibri_MSFontService,sans-serif" font-weight="400" font-size="21" transform="translate(106.669 338)">prod.eastus.cloudapp.azure.com</text><path d="M281.5 290.438 449.5 290.438 449.5 272.5 473.5 296.5 449.5 320.5 449.5 302.562 281.5 302.562Z" stroke="#2F528F" stroke-width="1.33333" stroke-miterlimit="8" fill="#4472C4" fill-rule="evenodd" fill-opacity="0.2"/><text font-family="Calibri,Calibri_MSFontService,sans-serif" font-weight="400" font-size="21" transform="translate(485.143 338)">testcsesv1</text><g clip-path="url(#clip21)"><g clip-path="url(#clip22)"><g clip-path="url(#clip23)"><path d="M559 417.133C558.914 411.765 554.951 407.25 549.64 406.467 549.436 398.927 543.18 392.969 535.64 393.133 529.681 393.072 524.334 396.783 522.307 402.387 515.868 403.227 511.039 408.693 511 415.187 511.203 422.453 517.254 428.181 524.52 427.987L525.693 427.987 547.587 427.987C547.782 428.001 547.978 428.001 548.173 427.987 554.121 427.886 558.914 423.081 559 417.133Z" fill="url(#fill24)"/><path d="M526.867 414.733C526.867 415.779 526.019 416.627 524.973 416.627 523.928 416.627 523.08 415.779 523.08 414.733 523.08 413.688 523.928 412.84 524.973 412.84 526.019 412.84 526.867 413.688 526.867 414.733Z" fill="#E3E3E3"/><path d="M531.64 415.453 531.64 413.933 531.427 413.933 529.8 413.4 529.373 412.36 530.2 410.6 529.133 409.533 528.92 409.533 527.4 410.333 526.36 409.907 525.693 408.067 524.173 408.067 524.173 408.28 523.64 409.907 522.52 410.333 520.787 409.507 519.72 410.573 519.72 410.787 520.493 412.307 520.067 413.347 518.2 414.013 518.2 415.667 518.413 415.667 520.04 416.2 520.467 417.24 519.64 419 520.707 420.067 520.92 420.067 522.44 419.293 523.48 419.72 524.147 421.56 525.667 421.56 525.667 421.347 526.2 419.72 527.24 419.293 529 420.12 530.067 419.053 530.067 418.84 529.293 417.32 529.72 416.28ZM524.973 417.667C523.353 417.667 522.04 416.353 522.04 414.733 522.04 413.113 523.353 411.8 524.973 411.8 526.593 411.8 527.907 413.113 527.907 414.733 527.921 416.339 526.632 417.652 525.027 417.667 525.009 417.667 524.991 417.667 524.973 417.667Z" fill="#FFFFFF"/><path d="M539.907 406.573C539.907 407.81 538.904 408.813 537.667 408.813 536.43 408.813 535.427 407.81 535.427 406.573 535.427 405.336 536.43 404.333 537.667 404.333 538.904 404.333 539.907 405.336 539.907 406.573Z" fill="#E3E3E3"/><path d="M545.667 407.427 545.667 405.613 545.427 405.613 543.453 405 543 403.64 543.987 401.507 542.707 400.227 542.467 400.227 540.627 401.16 539.4 400.653 538.6 398.44 536.707 398.44 536.707 398.707 536.067 400.653 534.813 401.16 532.733 400.173 531.453 401.453 531.587 401.693 532.333 403.667 531.907 405 529.667 405.72 529.667 407.667 529.933 407.667 531.88 408.307 532.333 409.507 531.347 411.64 532.68 413 532.947 412.867 534.76 411.933 536.013 412.44 536.813 414.653 538.627 414.653 538.627 414.387 539.267 412.44 540.52 411.933 542.627 412.92 543.907 411.64 543.773 411.4 543 409.48 543.507 408.227ZM537.667 410.093C535.723 410.093 534.147 408.517 534.147 406.573 534.147 404.629 535.723 403.053 537.667 403.053 539.611 403.053 541.187 404.629 541.187 406.573 541.201 408.503 539.649 410.079 537.72 410.093 537.702 410.093 537.685 410.093 537.667 410.093Z" fill="#FFFFFF"/></g></g></g><g clip-path="url(#clip25)"><g clip-path="url(#clip26)"><g clip-path="url(#clip27)"><path d="M65.3333 404.093 110.667 404.093 110.667 404.093 110.667 429.373C110.667 430.213 109.986 430.893 109.147 430.893L66.8533 430.893C66.0139 430.893 65.3333 430.213 65.3333 429.373L65.3333 404.093 65.3333 404.093Z" fill="url(#fill28)"/><path d="M66.8533 394.333 109.147 394.333C109.986 394.333 110.667 395.014 110.667 395.853L110.667 404.093 110.667 404.093 65.3333 404.093 65.3333 404.093 65.3333 395.933C65.2891 395.095 65.9329 394.38 66.7712 394.335 66.7986 394.334 66.8259 394.333 66.8533 394.333Z" fill="#0078D4"/><path d="M101.867 415.827C101.867 417.859 100.219 419.507 98.1867 419.507 96.1543 419.507 94.5067 417.859 94.5067 415.827 94.5067 413.794 96.1543 412.147 98.1867 412.147 100.219 412.147 101.867 413.794 101.867 415.827Z" fill="#F2F2F2"/><path d="M91.84 415.827C91.84 417.859 90.1924 419.507 88.16 419.507 86.1276 419.507 84.48 417.859 84.48 415.827 84.48 413.794 86.1276 412.147 88.16 412.147 90.1924 412.147 91.84 413.794 91.84 415.827Z" fill="#F2F2F2"/><path d="M81.4933 415.827C81.4933 417.859 79.8457 419.507 77.8133 419.507 75.7809 419.507 74.1333 417.859 74.1333 415.827 74.1333 413.794 75.7809 412.147 77.8133 412.147 79.8457 412.147 81.4933 413.794 81.4933 415.827Z" fill="#F2F2F2"/><path d="M103.84 397.32C104.252 397.32 104.587 397.654 104.587 398.067L104.587 400.467C104.587 400.879 104.252 401.213 103.84 401.213L72.1867 401.213C71.7743 401.213 71.44 400.879 71.44 400.467L71.44 398.067C71.44 397.654 71.7743 397.32 72.1867 397.32Z" fill="#F2F2F2"/></g></g></g><text font-family="Calibri,Calibri_MSFontService,sans-serif" font-weight="400" font-size="21" transform="translate(63.8352 455)">cses</text><text font-family="Calibri,Calibri_MSFontService,sans-serif" font-weight="400" font-size="21" transform="translate(100.169 455)">-</text><text font-family="Calibri,Calibri_MSFontService,sans-serif" font-weight="400" font-size="21" transform="translate(106.669 455)">stag.eastus.cloudapp.azure.com</text><path d="M281.5 407.438 449.5 407.438 449.5 389.5 473.5 413.5 449.5 437.5 449.5 419.562 281.5 419.562Z" stroke="#2F528F" stroke-width="1.33333" stroke-miterlimit="8" fill="#4472C4" fill-rule="evenodd" fill-opacity="0.2"/><text font-family="Calibri,Calibri_MSFontService,sans-serif" font-weight="400" font-size="21" transform="translate(485.143 455)">testcsesv2</text><rect x="0" y="490" width="614" height="230" stroke="#000000" stroke-width="4" stroke-miterlimit="8" fill="#FFFFFF"/><g clip-path="url(#clip29)"><g clip-path="url(#clip30)"><g clip-path="url(#clip31)"><path d="M559 545.133C558.914 539.765 554.951 535.25 549.64 534.467 549.436 526.927 543.18 520.969 535.64 521.133 529.681 521.072 524.334 524.783 522.307 530.387 515.868 531.227 511.039 536.693 511 543.187 511.203 550.453 517.254 556.181 524.52 555.987L525.693 555.987 547.587 555.987C547.782 556.001 547.978 556.001 548.173 555.987 554.121 555.886 558.914 551.081 559 545.133Z" fill="url(#fill32)"/><path d="M526.867 542.733C526.867 543.779 526.019 544.627 524.973 544.627 523.928 544.627 523.08 543.779 523.08 542.733 523.08 541.688 523.928 540.84 524.973 540.84 526.019 540.84 526.867 541.688 526.867 542.733Z" fill="#E3E3E3"/><path d="M531.64 543.453 531.64 541.933 531.427 541.933 529.8 541.4 529.373 540.36 530.2 538.6 529.133 537.533 528.92 537.533 527.4 538.333 526.36 537.907 525.693 536.067 524.173 536.067 524.173 536.28 523.64 537.907 522.52 538.333 520.787 537.507 519.72 538.573 519.72 538.787 520.493 540.307 520.067 541.347 518.2 542.013 518.2 543.667 518.413 543.667 520.04 544.2 520.467 545.24 519.64 547 520.707 548.067 520.92 548.067 522.44 547.293 523.48 547.72 524.147 549.56 525.667 549.56 525.667 549.347 526.2 547.72 527.24 547.293 529 548.12 530.067 547.053 530.067 546.84 529.293 545.32 529.72 544.28ZM524.973 545.667C523.353 545.667 522.04 544.353 522.04 542.733 522.04 541.113 523.353 539.8 524.973 539.8 526.593 539.8 527.907 541.113 527.907 542.733 527.921 544.339 526.632 545.652 525.027 545.667 525.009 545.667 524.991 545.667 524.973 545.667Z" fill="#FFFFFF"/><path d="M539.907 534.573C539.907 535.81 538.904 536.813 537.667 536.813 536.43 536.813 535.427 535.81 535.427 534.573 535.427 533.336 536.43 532.333 537.667 532.333 538.904 532.333 539.907 533.336 539.907 534.573Z" fill="#E3E3E3"/><path d="M545.667 535.427 545.667 533.613 545.427 533.613 543.453 533 543 531.64 543.987 529.507 542.707 528.227 542.467 528.227 540.627 529.16 539.4 528.653 538.6 526.44 536.707 526.44 536.707 526.707 536.067 528.653 534.813 529.16 532.733 528.173 531.453 529.453 531.587 529.693 532.333 531.667 531.907 533 529.667 533.72 529.667 535.667 529.933 535.667 531.88 536.307 532.333 537.507 531.347 539.64 532.68 541 532.947 540.867 534.76 539.933 536.013 540.44 536.813 542.653 538.627 542.653 538.627 542.387 539.267 540.44 540.52 539.933 542.627 540.92 543.907 539.64 543.773 539.4 543 537.48 543.507 536.227ZM537.667 538.093C535.723 538.093 534.147 536.517 534.147 534.573 534.147 532.629 535.723 531.053 537.667 531.053 539.611 531.053 541.187 532.629 541.187 534.573 541.201 536.503 539.649 538.079 537.72 538.093 537.702 538.093 537.685 538.093 537.667 538.093Z" fill="#FFFFFF"/></g></g></g><g clip-path="url(#clip33)"><g clip-path="url(#clip34)"><g clip-path="url(#clip35)"><path d="M65.3333 532.093 110.667 532.093 110.667 532.093 110.667 557.373C110.667 558.213 109.986 558.893 109.147 558.893L66.8533 558.893C66.0139 558.893 65.3333 558.213 65.3333 557.373L65.3333 532.093 65.3333 532.093Z" fill="url(#fill36)"/><path d="M66.8533 522.333 109.147 522.333C109.986 522.333 110.667 523.014 110.667 523.853L110.667 532.093 110.667 532.093 65.3333 532.093 65.3333 532.093 65.3333 523.933C65.2891 523.095 65.9329 522.38 66.7712 522.335 66.7986 522.334 66.8259 522.333 66.8533 522.333Z" fill="#0078D4"/><path d="M101.867 543.827C101.867 545.859 100.219 547.507 98.1867 547.507 96.1543 547.507 94.5067 545.859 94.5067 543.827 94.5067 541.794 96.1543 540.147 98.1867 540.147 100.219 540.147 101.867 541.794 101.867 543.827Z" fill="#F2F2F2"/><path d="M91.84 543.827C91.84 545.859 90.1924 547.507 88.16 547.507 86.1276 547.507 84.48 545.859 84.48 543.827 84.48 541.794 86.1276 540.147 88.16 540.147 90.1924 540.147 91.84 541.794 91.84 543.827Z" fill="#F2F2F2"/><path d="M81.4933 543.827C81.4933 545.859 79.8457 547.507 77.8133 547.507 75.7809 547.507 74.1333 545.859 74.1333 543.827 74.1333 541.794 75.7809 540.147 77.8133 540.147 79.8457 540.147 81.4933 541.794 81.4933 543.827Z" fill="#F2F2F2"/><path d="M103.84 525.32C104.252 525.32 104.587 525.654 104.587 526.067L104.587 528.467C104.587 528.879 104.252 529.213 103.84 529.213L72.1867 529.213C71.7743 529.213 71.44 528.879 71.44 528.467L71.44 526.067C71.44 525.654 71.7743 525.32 72.1867 525.32Z" fill="#F2F2F2"/></g></g></g><rect x="0.500053" y="490.5" width="48" height="48" stroke="#2F528F" stroke-width="1.33333" stroke-miterlimit="8" fill="#E91C1C"/><text fill="#FFFFFF" font-family="Calibri,Calibri_MSFontService,sans-serif" font-weight="700" font-size="32" transform="translate(15.9166 524)">3</text><text font-family="Calibri,Calibri_MSFontService,sans-serif" font-weight="400" font-size="21" transform="translate(63.8352 583)">cses</text><text font-family="Calibri,Calibri_MSFontService,sans-serif" font-weight="400" font-size="21" transform="translate(100.169 583)">-</text><text font-family="Calibri,Calibri_MSFontService,sans-serif" font-weight="400" font-size="21" transform="translate(106.669 583)">prod.eastus.cloudapp.azure.com</text><path d="M281.5 535.438 449.5 535.438 449.5 517.5 473.5 541.5 449.5 565.5 449.5 547.562 281.5 547.562Z" stroke="#2F528F" stroke-width="1.33333" stroke-miterlimit="8" fill="#4472C4" fill-rule="evenodd" fill-opacity="0.2"/><text font-family="Calibri,Calibri_MSFontService,sans-serif" font-weight="400" font-size="21" transform="translate(485.143 583)">testcsesv2</text><g clip-path="url(#clip37)"><g clip-path="url(#clip38)"><g clip-path="url(#clip39)"><path d="M559 662.133C558.914 656.765 554.951 652.25 549.64 651.467 549.436 643.927 543.18 637.969 535.64 638.133 529.681 638.072 524.334 641.783 522.307 647.387 515.868 648.227 511.039 653.693 511 660.187 511.203 667.453 517.254 673.181 524.52 672.987L525.693 672.987 547.587 672.987C547.782 673.001 547.978 673.001 548.173 672.987 554.121 672.886 558.914 668.081 559 662.133Z" fill="url(#fill40)"/><path d="M526.867 659.733C526.867 660.779 526.019 661.627 524.973 661.627 523.928 661.627 523.08 660.779 523.08 659.733 523.08 658.688 523.928 657.84 524.973 657.84 526.019 657.84 526.867 658.688 526.867 659.733Z" fill="#E3E3E3"/><path d="M531.64 660.453 531.64 658.933 531.427 658.933 529.8 658.4 529.373 657.36 530.2 655.6 529.133 654.533 528.92 654.533 527.4 655.333 526.36 654.907 525.693 653.067 524.173 653.067 524.173 653.28 523.64 654.907 522.52 655.333 520.787 654.507 519.72 655.573 519.72 655.787 520.493 657.307 520.067 658.347 518.2 659.013 518.2 660.667 518.413 660.667 520.04 661.2 520.467 662.24 519.64 664 520.707 665.067 520.92 665.067 522.44 664.293 523.48 664.72 524.147 666.56 525.667 666.56 525.667 666.347 526.2 664.72 527.24 664.293 529 665.12 530.067 664.053 530.067 663.84 529.293 662.32 529.72 661.28ZM524.973 662.667C523.353 662.667 522.04 661.353 522.04 659.733 522.04 658.113 523.353 656.8 524.973 656.8 526.593 656.8 527.907 658.113 527.907 659.733 527.921 661.339 526.632 662.652 525.027 662.667 525.009 662.667 524.991 662.667 524.973 662.667Z" fill="#FFFFFF"/><path d="M539.907 651.573C539.907 652.81 538.904 653.813 537.667 653.813 536.43 653.813 535.427 652.81 535.427 651.573 535.427 650.336 536.43 649.333 537.667 649.333 538.904 649.333 539.907 650.336 539.907 651.573Z" fill="#E3E3E3"/><path d="M545.667 652.427 545.667 650.613 545.427 650.613 543.453 650 543 648.64 543.987 646.507 542.707 645.227 542.467 645.227 540.627 646.16 539.4 645.653 538.6 643.44 536.707 643.44 536.707 643.707 536.067 645.653 534.813 646.16 532.733 645.173 531.453 646.453 531.587 646.693 532.333 648.667 531.907 650 529.667 650.72 529.667 652.667 529.933 652.667 531.88 653.307 532.333 654.507 531.347 656.64 532.68 658 532.947 657.867 534.76 656.933 536.013 657.44 536.813 659.653 538.627 659.653 538.627 659.387 539.267 657.44 540.52 656.933 542.627 657.92 543.907 656.64 543.773 656.4 543 654.48 543.507 653.227ZM537.667 655.093C535.723 655.093 534.147 653.517 534.147 651.573 534.147 649.629 535.723 648.053 537.667 648.053 539.611 648.053 541.187 649.629 541.187 651.573 541.201 653.503 539.649 655.079 537.72 655.093 537.702 655.093 537.685 655.093 537.667 655.093Z" fill="#FFFFFF"/></g></g></g><g clip-path="url(#clip41)"><g clip-path="url(#clip42)"><g clip-path="url(#clip43)"><path d="M65.3333 649.093 110.667 649.093 110.667 649.093 110.667 674.373C110.667 675.213 109.986 675.893 109.147 675.893L66.8533 675.893C66.0139 675.893 65.3333 675.213 65.3333 674.373L65.3333 649.093 65.3333 649.093Z" fill="url(#fill44)"/><path d="M66.8533 639.333 109.147 639.333C109.986 639.333 110.667 640.014 110.667 640.853L110.667 649.093 110.667 649.093 65.3333 649.093 65.3333 649.093 65.3333 640.933C65.2891 640.095 65.9329 639.38 66.7712 639.335 66.7986 639.334 66.8259 639.333 66.8533 639.333Z" fill="#0078D4"/><path d="M101.867 660.827C101.867 662.859 100.219 664.507 98.1867 664.507 96.1543 664.507 94.5067 662.859 94.5067 660.827 94.5067 658.794 96.1543 657.147 98.1867 657.147 100.219 657.147 101.867 658.794 101.867 660.827Z" fill="#F2F2F2"/><path d="M91.84 660.827C91.84 662.859 90.1924 664.507 88.16 664.507 86.1276 664.507 84.48 662.859 84.48 660.827 84.48 658.794 86.1276 657.147 88.16 657.147 90.1924 657.147 91.84 658.794 91.84 660.827Z" fill="#F2F2F2"/><path d="M81.4933 660.827C81.4933 662.859 79.8457 664.507 77.8133 664.507 75.7809 664.507 74.1333 662.859 74.1333 660.827 74.1333 658.794 75.7809 657.147 77.8133 657.147 79.8457 657.147 81.4933 658.794 81.4933 660.827Z" fill="#F2F2F2"/><path d="M103.84 642.32C104.252 642.32 104.587 642.654 104.587 643.067L104.587 645.467C104.587 645.879 104.252 646.213 103.84 646.213L72.1867 646.213C71.7743 646.213 71.44 645.879 71.44 645.467L71.44 643.067C71.44 642.654 71.7743 642.32 72.1867 642.32Z" fill="#F2F2F2"/></g></g></g><text font-family="Calibri,Calibri_MSFontService,sans-serif" font-weight="400" font-size="21" transform="translate(63.8352 700)">cses</text><text font-family="Calibri,Calibri_MSFontService,sans-serif" font-weight="400" font-size="21" transform="translate(100.169 700)">-</text><text font-family="Calibri,Calibri_MSFontService,sans-serif" font-weight="400" font-size="21" transform="translate(106.669 700)">stag.eastus.cloudapp.azure.com</text><path d="M281.5 652.438 449.5 652.438 449.5 634.5 473.5 658.5 449.5 682.5 449.5 664.562 281.5 664.562Z" stroke="#2F528F" stroke-width="1.33333" stroke-miterlimit="8" fill="#4472C4" fill-rule="evenodd" fill-opacity="0.2"/><text font-family="Calibri,Calibri_MSFontService,sans-serif" font-weight="400" font-size="21" transform="translate(485.143 700)">testcsesv1</text><text fill="#E91C1C" font-family="Amasis MT Pro Black,Amasis MT Pro Black_MSFontService,sans-serif" font-weight="900" font-size="24" transform="translate(535.147 392)">New</text><path d="M2-5.27161e-06 2.00007 27.8311-1.99993 27.8311-2 5.27161e-06ZM7.33572e-05 27.8311 10.0001 19.831 0.000104987 39.8311-9.99995 19.8311Z" fill="#E91C1C" transform="matrix(1 0 0 -1 535 633.831)"/><text fill="#E91C1C" font-family="Amasis MT Pro Black,Amasis MT Pro Black_MSFontService,sans-serif" font-weight="900" font-size="24" transform="translate(539.081 632)">Swap</text><rect x="629" y="0" width="615" height="230" stroke="#000000" stroke-width="4" stroke-miterlimit="8" fill="#FFFFFF"/><g clip-path="url(#clip45)"><g clip-path="url(#clip46)"><g clip-path="url(#clip47)"><path d="M1188 55.1333C1187.91 49.7651 1183.95 45.2498 1178.64 44.4667 1178.44 36.9274 1172.18 30.9692 1164.64 31.1333 1158.68 31.0723 1153.33 34.7831 1151.31 40.3867 1144.87 41.2266 1140.04 46.6933 1140 53.1867 1140.2 60.4528 1146.25 66.1808 1153.52 65.9867L1154.69 65.9867 1176.59 65.9867C1176.78 66.0013 1176.98 66.0013 1177.17 65.9867 1183.12 65.8864 1187.91 61.0813 1188 55.1333Z" fill="url(#fill48)"/><path d="M1155.87 52.7333C1155.87 53.779 1155.02 54.6267 1153.97 54.6267 1152.93 54.6267 1152.08 53.779 1152.08 52.7333 1152.08 51.6877 1152.93 50.84 1153.97 50.84 1155.02 50.84 1155.87 51.6877 1155.87 52.7333Z" fill="#E3E3E3"/><path d="M1160.64 53.4533 1160.64 51.9333 1160.43 51.9333 1158.8 51.4 1158.37 50.36 1159.2 48.6 1158.13 47.5333 1157.92 47.5333 1156.4 48.3333 1155.36 47.9067 1154.69 46.0667 1153.17 46.0667 1153.17 46.28 1152.64 47.9067 1151.52 48.3333 1149.79 47.5067 1148.72 48.5733 1148.72 48.7867 1149.49 50.3067 1149.07 51.3467 1147.2 52.0133 1147.2 53.6667 1147.41 53.6667 1149.04 54.2 1149.47 55.24 1148.64 57 1149.71 58.0667 1149.92 58.0667 1151.44 57.2933 1152.48 57.72 1153.15 59.56 1154.67 59.56 1154.67 59.3467 1155.2 57.72 1156.24 57.2933 1158 58.12 1159.07 57.0533 1159.07 56.84 1158.29 55.32 1158.72 54.28ZM1153.97 55.6667C1152.35 55.6667 1151.04 54.3533 1151.04 52.7333 1151.04 51.1133 1152.35 49.8 1153.97 49.8 1155.59 49.8 1156.91 51.1133 1156.91 52.7333 1156.92 54.3387 1155.63 55.652 1154.03 55.6667 1154.01 55.6669 1153.99 55.6669 1153.97 55.6667Z" fill="#FFFFFF"/><path d="M1168.91 44.5733C1168.91 45.8105 1167.9 46.8133 1166.67 46.8133 1165.43 46.8133 1164.43 45.8105 1164.43 44.5733 1164.43 43.3362 1165.43 42.3333 1166.67 42.3333 1167.9 42.3333 1168.91 43.3362 1168.91 44.5733Z" fill="#E3E3E3"/><path d="M1174.67 45.4267 1174.67 43.6133 1174.43 43.6133 1172.45 43 1172 41.64 1172.99 39.5067 1171.71 38.2267 1171.47 38.2267 1169.63 39.16 1168.4 38.6533 1167.6 36.44 1165.71 36.44 1165.71 36.7067 1165.07 38.6533 1163.81 39.16 1161.73 38.1733 1160.45 39.4533 1160.59 39.6933 1161.33 41.6667 1160.91 43 1158.67 43.72 1158.67 45.6667 1158.93 45.6667 1160.88 46.3067 1161.33 47.5067 1160.35 49.64 1161.68 51 1161.95 50.8667 1163.76 49.9333 1165.01 50.44 1165.81 52.6533 1167.63 52.6533 1167.63 52.3867 1168.27 50.44 1169.52 49.9333 1171.63 50.92 1172.91 49.64 1172.77 49.4 1172 47.48 1172.51 46.2267ZM1166.67 48.0933C1164.72 48.0933 1163.15 46.5174 1163.15 44.5733 1163.15 42.6293 1164.72 41.0533 1166.67 41.0533 1168.61 41.0533 1170.19 42.6293 1170.19 44.5733 1170.2 46.5026 1168.65 48.0786 1166.72 48.0933 1166.7 48.0935 1166.68 48.0935 1166.67 48.0933Z" fill="#FFFFFF"/></g></g></g><g clip-path="url(#clip49)"><g clip-path="url(#clip50)"><g clip-path="url(#clip51)"><path d="M694.333 42.0933 739.667 42.0933 739.667 42.0933 739.667 67.3733C739.667 68.2128 738.986 68.8933 738.147 68.8933L695.853 68.8933C695.014 68.8933 694.333 68.2128 694.333 67.3733L694.333 42.0933 694.333 42.0933Z" fill="url(#fill52)"/><path d="M695.853 32.3333 738.147 32.3333C738.986 32.3333 739.667 33.0139 739.667 33.8533L739.667 42.0933 739.667 42.0933 694.333 42.0933 694.333 42.0933 694.333 33.9333C694.289 33.095 694.933 32.3796 695.771 32.3354 695.799 32.334 695.826 32.3333 695.853 32.3333Z" fill="#0078D4"/><path d="M730.867 53.8267C730.867 55.8591 729.219 57.5067 727.187 57.5067 725.154 57.5067 723.507 55.8591 723.507 53.8267 723.507 51.7943 725.154 50.1467 727.187 50.1467 729.219 50.1467 730.867 51.7943 730.867 53.8267Z" fill="#F2F2F2"/><path d="M720.84 53.8267C720.84 55.8591 719.192 57.5067 717.16 57.5067 715.128 57.5067 713.48 55.8591 713.48 53.8267 713.48 51.7943 715.128 50.1467 717.16 50.1467 719.192 50.1467 720.84 51.7943 720.84 53.8267Z" fill="#F2F2F2"/><path d="M710.493 53.8267C710.493 55.8591 708.846 57.5067 706.813 57.5067 704.781 57.5067 703.133 55.8591 703.133 53.8267 703.133 51.7943 704.781 50.1467 706.813 50.1467 708.846 50.1467 710.493 51.7943 710.493 53.8267Z" fill="#F2F2F2"/><path d="M732.84 35.32C733.252 35.32 733.587 35.6543 733.587 36.0667L733.587 38.4667C733.587 38.879 733.252 39.2133 732.84 39.2133L701.187 39.2133C700.774 39.2133 700.44 38.879 700.44 38.4667L700.44 36.0667C700.44 35.6543 700.774 35.32 701.187 35.32Z" fill="#F2F2F2"/></g></g></g><rect x="629.5" y="0.500053" width="48" height="48" stroke="#2F528F" stroke-width="1.33333" stroke-miterlimit="8" fill="#E91C1C"/><text fill="#FFFFFF" font-family="Calibri,Calibri_MSFontService,sans-serif" font-weight="700" font-size="32" transform="translate(645.063 35)">4</text><text font-family="Calibri,Calibri_MSFontService,sans-serif" font-weight="400" font-size="21" transform="translate(692.981 94)">cses</text><text font-family="Calibri,Calibri_MSFontService,sans-serif" font-weight="400" font-size="21" transform="translate(729.315 94)">-</text><text font-family="Calibri,Calibri_MSFontService,sans-serif" font-weight="400" font-size="21" transform="translate(735.815 94)">prod.eastus.cloudapp.azure.com</text><path d="M910.5 45.4381 1078.5 45.4381 1078.5 27.5001 1102.5 51.5001 1078.5 75.5001 1078.5 57.562 910.5 57.562Z" stroke="#2F528F" stroke-width="1.33333" stroke-miterlimit="8" fill="#4472C4" fill-rule="evenodd" fill-opacity="0.2"/><text font-family="Calibri,Calibri_MSFontService,sans-serif" font-weight="400" font-size="21" transform="translate(1114.29 94)">testcsesv2</text><g clip-path="url(#clip53)"><g clip-path="url(#clip54)"><g clip-path="url(#clip55)"><path d="M694.333 159.093 739.667 159.093 739.667 159.093 739.667 184.373C739.667 185.213 738.986 185.893 738.147 185.893L695.853 185.893C695.014 185.893 694.333 185.213 694.333 184.373L694.333 159.093 694.333 159.093Z" fill="url(#fill56)"/><path d="M695.853 149.333 738.147 149.333C738.986 149.333 739.667 150.014 739.667 150.853L739.667 159.093 739.667 159.093 694.333 159.093 694.333 159.093 694.333 150.933C694.289 150.095 694.933 149.38 695.771 149.335 695.799 149.334 695.826 149.333 695.853 149.333Z" fill="#0078D4"/><path d="M730.867 170.827C730.867 172.859 729.219 174.507 727.187 174.507 725.154 174.507 723.507 172.859 723.507 170.827 723.507 168.794 725.154 167.147 727.187 167.147 729.219 167.147 730.867 168.794 730.867 170.827Z" fill="#F2F2F2"/><path d="M720.84 170.827C720.84 172.859 719.192 174.507 717.16 174.507 715.128 174.507 713.48 172.859 713.48 170.827 713.48 168.794 715.128 167.147 717.16 167.147 719.192 167.147 720.84 168.794 720.84 170.827Z" fill="#F2F2F2"/><path d="M710.493 170.827C710.493 172.859 708.846 174.507 706.813 174.507 704.781 174.507 703.133 172.859 703.133 170.827 703.133 168.794 704.781 167.147 706.813 167.147 708.846 167.147 710.493 168.794 710.493 170.827Z" fill="#F2F2F2"/><path d="M732.84 152.32C733.252 152.32 733.587 152.654 733.587 153.067L733.587 155.467C733.587 155.879 733.252 156.213 732.84 156.213L701.187 156.213C700.774 156.213 700.44 155.879 700.44 155.467L700.44 153.067C700.44 152.654 700.774 152.32 701.187 152.32Z" fill="#F2F2F2"/></g></g></g><text font-family="Calibri,Calibri_MSFontService,sans-serif" font-weight="400" font-size="21" transform="translate(692.981 210)">cses</text><text font-family="Calibri,Calibri_MSFontService,sans-serif" font-weight="400" font-size="21" transform="translate(729.315 210)">-</text><text font-family="Calibri,Calibri_MSFontService,sans-serif" font-weight="400" font-size="21" transform="translate(735.815 210)">stag.eastus.cloudapp.azure.com</text><path d="M910.5 162.438 1078.5 162.438 1078.5 144.5 1102.5 168.5 1078.5 192.5 1078.5 174.562 910.5 174.562Z" stroke="#2F528F" stroke-width="1.33333" stroke-miterlimit="8" fill="#4472C4" fill-rule="evenodd" fill-opacity="0.2"/><rect x="629" y="245" width="615" height="230" stroke="#000000" stroke-width="4" stroke-miterlimit="8" fill="#FFFFFF"/><g clip-path="url(#clip57)"><g clip-path="url(#clip58)"><g clip-path="url(#clip59)"><path d="M1188 300.133C1187.91 294.765 1183.95 290.25 1178.64 289.467 1178.44 281.927 1172.18 275.969 1164.64 276.133 1158.68 276.072 1153.33 279.783 1151.31 285.387 1144.87 286.227 1140.04 291.693 1140 298.187 1140.2 305.453 1146.25 311.181 1153.52 310.987L1154.69 310.987 1176.59 310.987C1176.78 311.001 1176.98 311.001 1177.17 310.987 1183.12 310.886 1187.91 306.081 1188 300.133Z" fill="url(#fill60)"/><path d="M1155.87 297.733C1155.87 298.779 1155.02 299.627 1153.97 299.627 1152.93 299.627 1152.08 298.779 1152.08 297.733 1152.08 296.688 1152.93 295.84 1153.97 295.84 1155.02 295.84 1155.87 296.688 1155.87 297.733Z" fill="#E3E3E3"/><path d="M1160.64 298.453 1160.64 296.933 1160.43 296.933 1158.8 296.4 1158.37 295.36 1159.2 293.6 1158.13 292.533 1157.92 292.533 1156.4 293.333 1155.36 292.907 1154.69 291.067 1153.17 291.067 1153.17 291.28 1152.64 292.907 1151.52 293.333 1149.79 292.507 1148.72 293.573 1148.72 293.787 1149.49 295.307 1149.07 296.347 1147.2 297.013 1147.2 298.667 1147.41 298.667 1149.04 299.2 1149.47 300.24 1148.64 302 1149.71 303.067 1149.92 303.067 1151.44 302.293 1152.48 302.72 1153.15 304.56 1154.67 304.56 1154.67 304.347 1155.2 302.72 1156.24 302.293 1158 303.12 1159.07 302.053 1159.07 301.84 1158.29 300.32 1158.72 299.28ZM1153.97 300.667C1152.35 300.667 1151.04 299.353 1151.04 297.733 1151.04 296.113 1152.35 294.8 1153.97 294.8 1155.59 294.8 1156.91 296.113 1156.91 297.733 1156.92 299.339 1155.63 300.652 1154.03 300.667 1154.01 300.667 1153.99 300.667 1153.97 300.667Z" fill="#FFFFFF"/><path d="M1168.91 289.573C1168.91 290.81 1167.9 291.813 1166.67 291.813 1165.43 291.813 1164.43 290.81 1164.43 289.573 1164.43 288.336 1165.43 287.333 1166.67 287.333 1167.9 287.333 1168.91 288.336 1168.91 289.573Z" fill="#E3E3E3"/><path d="M1174.67 290.427 1174.67 288.613 1174.43 288.613 1172.45 288 1172 286.64 1172.99 284.507 1171.71 283.227 1171.47 283.227 1169.63 284.16 1168.4 283.653 1167.6 281.44 1165.71 281.44 1165.71 281.707 1165.07 283.653 1163.81 284.16 1161.73 283.173 1160.45 284.453 1160.59 284.693 1161.33 286.667 1160.91 288 1158.67 288.72 1158.67 290.667 1158.93 290.667 1160.88 291.307 1161.33 292.507 1160.35 294.64 1161.68 296 1161.95 295.867 1163.76 294.933 1165.01 295.44 1165.81 297.653 1167.63 297.653 1167.63 297.387 1168.27 295.44 1169.52 294.933 1171.63 295.92 1172.91 294.64 1172.77 294.4 1172 292.48 1172.51 291.227ZM1166.67 293.093C1164.72 293.093 1163.15 291.517 1163.15 289.573 1163.15 287.629 1164.72 286.053 1166.67 286.053 1168.61 286.053 1170.19 287.629 1170.19 289.573 1170.2 291.503 1168.65 293.079 1166.72 293.093 1166.7 293.093 1166.68 293.093 1166.67 293.093Z" fill="#FFFFFF"/></g></g></g><g clip-path="url(#clip61)"><g clip-path="url(#clip62)"><g clip-path="url(#clip63)"><path d="M694.333 287.093 739.667 287.093 739.667 287.093 739.667 312.373C739.667 313.213 738.986 313.893 738.147 313.893L695.853 313.893C695.014 313.893 694.333 313.213 694.333 312.373L694.333 287.093 694.333 287.093Z" fill="url(#fill64)"/><path d="M695.853 277.333 738.147 277.333C738.986 277.333 739.667 278.014 739.667 278.853L739.667 287.093 739.667 287.093 694.333 287.093 694.333 287.093 694.333 278.933C694.289 278.095 694.933 277.38 695.771 277.335 695.799 277.334 695.826 277.333 695.853 277.333Z" fill="#0078D4"/><path d="M730.867 298.827C730.867 300.859 729.219 302.507 727.187 302.507 725.154 302.507 723.507 300.859 723.507 298.827 723.507 296.794 725.154 295.147 727.187 295.147 729.219 295.147 730.867 296.794 730.867 298.827Z" fill="#F2F2F2"/><path d="M720.84 298.827C720.84 300.859 719.192 302.507 717.16 302.507 715.128 302.507 713.48 300.859 713.48 298.827 713.48 296.794 715.128 295.147 717.16 295.147 719.192 295.147 720.84 296.794 720.84 298.827Z" fill="#F2F2F2"/><path d="M710.493 298.827C710.493 300.859 708.846 302.507 706.813 302.507 704.781 302.507 703.133 300.859 703.133 298.827 703.133 296.794 704.781 295.147 706.813 295.147 708.846 295.147 710.493 296.794 710.493 298.827Z" fill="#F2F2F2"/><path d="M732.84 280.32C733.252 280.32 733.587 280.654 733.587 281.067L733.587 283.467C733.587 283.879 733.252 284.213 732.84 284.213L701.187 284.213C700.774 284.213 700.44 283.879 700.44 283.467L700.44 281.067C700.44 280.654 700.774 280.32 701.187 280.32Z" fill="#F2F2F2"/></g></g></g><rect x="629.5" y="245.5" width="48" height="48" stroke="#2F528F" stroke-width="1.33333" stroke-miterlimit="8" fill="#E91C1C"/><text fill="#FFFFFF" font-family="Calibri,Calibri_MSFontService,sans-serif" font-weight="700" font-size="32" transform="translate(645.063 280)">5</text><text font-family="Calibri,Calibri_MSFontService,sans-serif" font-weight="400" font-size="21" transform="translate(692.981 338)">cses</text><text font-family="Calibri,Calibri_MSFontService,sans-serif" font-weight="400" font-size="21" transform="translate(729.315 338)">-</text><text font-family="Calibri,Calibri_MSFontService,sans-serif" font-weight="400" font-size="21" transform="translate(735.815 338)">prod.eastus.cloudapp.azure.com</text><path d="M910.5 290.438 1078.5 290.438 1078.5 272.5 1102.5 296.5 1078.5 320.5 1078.5 302.562 910.5 302.562Z" stroke="#2F528F" stroke-width="1.33333" stroke-miterlimit="8" fill="#4472C4" fill-rule="evenodd" fill-opacity="0.2"/><text font-family="Calibri,Calibri_MSFontService,sans-serif" font-weight="400" font-size="21" transform="translate(1114.29 338)">testcsesv2</text><g clip-path="url(#clip65)"><g clip-path="url(#clip66)"><g clip-path="url(#clip67)"><path d="M1188 417.133C1187.91 411.765 1183.95 407.25 1178.64 406.467 1178.44 398.927 1172.18 392.969 1164.64 393.133 1158.68 393.072 1153.33 396.783 1151.31 402.387 1144.87 403.227 1140.04 408.693 1140 415.187 1140.2 422.453 1146.25 428.181 1153.52 427.987L1154.69 427.987 1176.59 427.987C1176.78 428.001 1176.98 428.001 1177.17 427.987 1183.12 427.886 1187.91 423.081 1188 417.133Z" fill="url(#fill68)"/><path d="M1155.87 414.733C1155.87 415.779 1155.02 416.627 1153.97 416.627 1152.93 416.627 1152.08 415.779 1152.08 414.733 1152.08 413.688 1152.93 412.84 1153.97 412.84 1155.02 412.84 1155.87 413.688 1155.87 414.733Z" fill="#E3E3E3"/><path d="M1160.64 415.453 1160.64 413.933 1160.43 413.933 1158.8 413.4 1158.37 412.36 1159.2 410.6 1158.13 409.533 1157.92 409.533 1156.4 410.333 1155.36 409.907 1154.69 408.067 1153.17 408.067 1153.17 408.28 1152.64 409.907 1151.52 410.333 1149.79 409.507 1148.72 410.573 1148.72 410.787 1149.49 412.307 1149.07 413.347 1147.2 414.013 1147.2 415.667 1147.41 415.667 1149.04 416.2 1149.47 417.24 1148.64 419 1149.71 420.067 1149.92 420.067 1151.44 419.293 1152.48 419.72 1153.15 421.56 1154.67 421.56 1154.67 421.347 1155.2 419.72 1156.24 419.293 1158 420.12 1159.07 419.053 1159.07 418.84 1158.29 417.32 1158.72 416.28ZM1153.97 417.667C1152.35 417.667 1151.04 416.353 1151.04 414.733 1151.04 413.113 1152.35 411.8 1153.97 411.8 1155.59 411.8 1156.91 413.113 1156.91 414.733 1156.92 416.339 1155.63 417.652 1154.03 417.667 1154.01 417.667 1153.99 417.667 1153.97 417.667Z" fill="#FFFFFF"/><path d="M1168.91 406.573C1168.91 407.81 1167.9 408.813 1166.67 408.813 1165.43 408.813 1164.43 407.81 1164.43 406.573 1164.43 405.336 1165.43 404.333 1166.67 404.333 1167.9 404.333 1168.91 405.336 1168.91 406.573Z" fill="#E3E3E3"/><path d="M1174.67 407.427 1174.67 405.613 1174.43 405.613 1172.45 405 1172 403.64 1172.99 401.507 1171.71 400.227 1171.47 400.227 1169.63 401.16 1168.4 400.653 1167.6 398.44 1165.71 398.44 1165.71 398.707 1165.07 400.653 1163.81 401.16 1161.73 400.173 1160.45 401.453 1160.59 401.693 1161.33 403.667 1160.91 405 1158.67 405.72 1158.67 407.667 1158.93 407.667 1160.88 408.307 1161.33 409.507 1160.35 411.64 1161.68 413 1161.95 412.867 1163.76 411.933 1165.01 412.44 1165.81 414.653 1167.63 414.653 1167.63 414.387 1168.27 412.44 1169.52 411.933 1171.63 412.92 1172.91 411.64 1172.77 411.4 1172 409.48 1172.51 408.227ZM1166.67 410.093C1164.72 410.093 1163.15 408.517 1163.15 406.573 1163.15 404.629 1164.72 403.053 1166.67 403.053 1168.61 403.053 1170.19 404.629 1170.19 406.573 1170.2 408.503 1168.65 410.079 1166.72 410.093 1166.7 410.093 1166.68 410.093 1166.67 410.093Z" fill="#FFFFFF"/></g></g></g><g clip-path="url(#clip69)"><g clip-path="url(#clip70)"><g clip-path="url(#clip71)"><path d="M694.333 404.093 739.667 404.093 739.667 404.093 739.667 429.373C739.667 430.213 738.986 430.893 738.147 430.893L695.853 430.893C695.014 430.893 694.333 430.213 694.333 429.373L694.333 404.093 694.333 404.093Z" fill="url(#fill72)"/><path d="M695.853 394.333 738.147 394.333C738.986 394.333 739.667 395.014 739.667 395.853L739.667 404.093 739.667 404.093 694.333 404.093 694.333 404.093 694.333 395.933C694.289 395.095 694.933 394.38 695.771 394.335 695.799 394.334 695.826 394.333 695.853 394.333Z" fill="#0078D4"/><path d="M730.867 415.827C730.867 417.859 729.219 419.507 727.187 419.507 725.154 419.507 723.507 417.859 723.507 415.827 723.507 413.794 725.154 412.147 727.187 412.147 729.219 412.147 730.867 413.794 730.867 415.827Z" fill="#F2F2F2"/><path d="M720.84 415.827C720.84 417.859 719.192 419.507 717.16 419.507 715.128 419.507 713.48 417.859 713.48 415.827 713.48 413.794 715.128 412.147 717.16 412.147 719.192 412.147 720.84 413.794 720.84 415.827Z" fill="#F2F2F2"/><path d="M710.493 415.827C710.493 417.859 708.846 419.507 706.813 419.507 704.781 419.507 703.133 417.859 703.133 415.827 703.133 413.794 704.781 412.147 706.813 412.147 708.846 412.147 710.493 413.794 710.493 415.827Z" fill="#F2F2F2"/><path d="M732.84 397.32C733.252 397.32 733.587 397.654 733.587 398.067L733.587 400.467C733.587 400.879 733.252 401.213 732.84 401.213L701.187 401.213C700.774 401.213 700.44 400.879 700.44 400.467L700.44 398.067C700.44 397.654 700.774 397.32 701.187 397.32Z" fill="#F2F2F2"/></g></g></g><text font-family="Calibri,Calibri_MSFontService,sans-serif" font-weight="400" font-size="21" transform="translate(692.981 455)">cses</text><text font-family="Calibri,Calibri_MSFontService,sans-serif" font-weight="400" font-size="21" transform="translate(729.315 455)">-</text><text font-family="Calibri,Calibri_MSFontService,sans-serif" font-weight="400" font-size="21" transform="translate(735.815 455)">stag.eastus.cloudapp.azure.com</text><path d="M910.5 407.438 1078.5 407.438 1078.5 389.5 1102.5 413.5 1078.5 437.5 1078.5 419.562 910.5 419.562Z" stroke="#2F528F" stroke-width="1.33333" stroke-miterlimit="8" fill="#4472C4" fill-rule="evenodd" fill-opacity="0.2"/><text font-family="Calibri,Calibri_MSFontService,sans-serif" font-weight="400" font-size="21" transform="translate(1114.29 455)">testcsesv3</text><rect x="629" y="490" width="615" height="230" stroke="#000000" stroke-width="4" stroke-miterlimit="8" fill="#FFFFFF"/><g clip-path="url(#clip73)"><g clip-path="url(#clip74)"><g clip-path="url(#clip75)"><path d="M1188 545.133C1187.91 539.765 1183.95 535.25 1178.64 534.467 1178.44 526.927 1172.18 520.969 1164.64 521.133 1158.68 521.072 1153.33 524.783 1151.31 530.387 1144.87 531.227 1140.04 536.693 1140 543.187 1140.2 550.453 1146.25 556.181 1153.52 555.987L1154.69 555.987 1176.59 555.987C1176.78 556.001 1176.98 556.001 1177.17 555.987 1183.12 555.886 1187.91 551.081 1188 545.133Z" fill="url(#fill76)"/><path d="M1155.87 542.733C1155.87 543.779 1155.02 544.627 1153.97 544.627 1152.93 544.627 1152.08 543.779 1152.08 542.733 1152.08 541.688 1152.93 540.84 1153.97 540.84 1155.02 540.84 1155.87 541.688 1155.87 542.733Z" fill="#E3E3E3"/><path d="M1160.64 543.453 1160.64 541.933 1160.43 541.933 1158.8 541.4 1158.37 540.36 1159.2 538.6 1158.13 537.533 1157.92 537.533 1156.4 538.333 1155.36 537.907 1154.69 536.067 1153.17 536.067 1153.17 536.28 1152.64 537.907 1151.52 538.333 1149.79 537.507 1148.72 538.573 1148.72 538.787 1149.49 540.307 1149.07 541.347 1147.2 542.013 1147.2 543.667 1147.41 543.667 1149.04 544.2 1149.47 545.24 1148.64 547 1149.71 548.067 1149.92 548.067 1151.44 547.293 1152.48 547.72 1153.15 549.56 1154.67 549.56 1154.67 549.347 1155.2 547.72 1156.24 547.293 1158 548.12 1159.07 547.053 1159.07 546.84 1158.29 545.32 1158.72 544.28ZM1153.97 545.667C1152.35 545.667 1151.04 544.353 1151.04 542.733 1151.04 541.113 1152.35 539.8 1153.97 539.8 1155.59 539.8 1156.91 541.113 1156.91 542.733 1156.92 544.339 1155.63 545.652 1154.03 545.667 1154.01 545.667 1153.99 545.667 1153.97 545.667Z" fill="#FFFFFF"/><path d="M1168.91 534.573C1168.91 535.81 1167.9 536.813 1166.67 536.813 1165.43 536.813 1164.43 535.81 1164.43 534.573 1164.43 533.336 1165.43 532.333 1166.67 532.333 1167.9 532.333 1168.91 533.336 1168.91 534.573Z" fill="#E3E3E3"/><path d="M1174.67 535.427 1174.67 533.613 1174.43 533.613 1172.45 533 1172 531.64 1172.99 529.507 1171.71 528.227 1171.47 528.227 1169.63 529.16 1168.4 528.653 1167.6 526.44 1165.71 526.44 1165.71 526.707 1165.07 528.653 1163.81 529.16 1161.73 528.173 1160.45 529.453 1160.59 529.693 1161.33 531.667 1160.91 533 1158.67 533.72 1158.67 535.667 1158.93 535.667 1160.88 536.307 1161.33 537.507 1160.35 539.64 1161.68 541 1161.95 540.867 1163.76 539.933 1165.01 540.44 1165.81 542.653 1167.63 542.653 1167.63 542.387 1168.27 540.44 1169.52 539.933 1171.63 540.92 1172.91 539.64 1172.77 539.4 1172 537.48 1172.51 536.227ZM1166.67 538.093C1164.72 538.093 1163.15 536.517 1163.15 534.573 1163.15 532.629 1164.72 531.053 1166.67 531.053 1168.61 531.053 1170.19 532.629 1170.19 534.573 1170.2 536.503 1168.65 538.079 1166.72 538.093 1166.7 538.093 1166.68 538.093 1166.67 538.093Z" fill="#FFFFFF"/></g></g></g><g clip-path="url(#clip77)"><g clip-path="url(#clip78)"><g clip-path="url(#clip79)"><path d="M694.333 532.093 739.667 532.093 739.667 532.093 739.667 557.373C739.667 558.213 738.986 558.893 738.147 558.893L695.853 558.893C695.014 558.893 694.333 558.213 694.333 557.373L694.333 532.093 694.333 532.093Z" fill="url(#fill80)"/><path d="M695.853 522.333 738.147 522.333C738.986 522.333 739.667 523.014 739.667 523.853L739.667 532.093 739.667 532.093 694.333 532.093 694.333 532.093 694.333 523.933C694.289 523.095 694.933 522.38 695.771 522.335 695.799 522.334 695.826 522.333 695.853 522.333Z" fill="#0078D4"/><path d="M730.867 543.827C730.867 545.859 729.219 547.507 727.187 547.507 725.154 547.507 723.507 545.859 723.507 543.827 723.507 541.794 725.154 540.147 727.187 540.147 729.219 540.147 730.867 541.794 730.867 543.827Z" fill="#F2F2F2"/><path d="M720.84 543.827C720.84 545.859 719.192 547.507 717.16 547.507 715.128 547.507 713.48 545.859 713.48 543.827 713.48 541.794 715.128 540.147 717.16 540.147 719.192 540.147 720.84 541.794 720.84 543.827Z" fill="#F2F2F2"/><path d="M710.493 543.827C710.493 545.859 708.846 547.507 706.813 547.507 704.781 547.507 703.133 545.859 703.133 543.827 703.133 541.794 704.781 540.147 706.813 540.147 708.846 540.147 710.493 541.794 710.493 543.827Z" fill="#F2F2F2"/><path d="M732.84 525.32C733.252 525.32 733.587 525.654 733.587 526.067L733.587 528.467C733.587 528.879 733.252 529.213 732.84 529.213L701.187 529.213C700.774 529.213 700.44 528.879 700.44 528.467L700.44 526.067C700.44 525.654 700.774 525.32 701.187 525.32Z" fill="#F2F2F2"/></g></g></g><rect x="629.5" y="490.5" width="48" height="48" stroke="#2F528F" stroke-width="1.33333" stroke-miterlimit="8" fill="#E91C1C"/><text fill="#FFFFFF" font-family="Calibri,Calibri_MSFontService,sans-serif" font-weight="700" font-size="32" transform="translate(645.063 524)">6</text><text font-family="Calibri,Calibri_MSFontService,sans-serif" font-weight="400" font-size="21" transform="translate(692.981 583)">cses</text><text font-family="Calibri,Calibri_MSFontService,sans-serif" font-weight="400" font-size="21" transform="translate(729.315 583)">-</text><text font-family="Calibri,Calibri_MSFontService,sans-serif" font-weight="400" font-size="21" transform="translate(735.815 583)">prod.eastus.cloudapp.azure.com</text><path d="M910.5 535.438 1078.5 535.438 1078.5 517.5 1102.5 541.5 1078.5 565.5 1078.5 547.562 910.5 547.562Z" stroke="#2F528F" stroke-width="1.33333" stroke-miterlimit="8" fill="#4472C4" fill-rule="evenodd" fill-opacity="0.2"/><text font-family="Calibri,Calibri_MSFontService,sans-serif" font-weight="400" font-size="21" transform="translate(1114.29 583)">testcsesv3</text><g clip-path="url(#clip81)"><g clip-path="url(#clip82)"><g clip-path="url(#clip83)"><path d="M1188 662.133C1187.91 656.765 1183.95 652.25 1178.64 651.467 1178.44 643.927 1172.18 637.969 1164.64 638.133 1158.68 638.072 1153.33 641.783 1151.31 647.387 1144.87 648.227 1140.04 653.693 1140 660.187 1140.2 667.453 1146.25 673.181 1153.52 672.987L1154.69 672.987 1176.59 672.987C1176.78 673.001 1176.98 673.001 1177.17 672.987 1183.12 672.886 1187.91 668.081 1188 662.133Z" fill="url(#fill84)"/><path d="M1155.87 659.733C1155.87 660.779 1155.02 661.627 1153.97 661.627 1152.93 661.627 1152.08 660.779 1152.08 659.733 1152.08 658.688 1152.93 657.84 1153.97 657.84 1155.02 657.84 1155.87 658.688 1155.87 659.733Z" fill="#E3E3E3"/><path d="M1160.64 660.453 1160.64 658.933 1160.43 658.933 1158.8 658.4 1158.37 657.36 1159.2 655.6 1158.13 654.533 1157.92 654.533 1156.4 655.333 1155.36 654.907 1154.69 653.067 1153.17 653.067 1153.17 653.28 1152.64 654.907 1151.52 655.333 1149.79 654.507 1148.72 655.573 1148.72 655.787 1149.49 657.307 1149.07 658.347 1147.2 659.013 1147.2 660.667 1147.41 660.667 1149.04 661.2 1149.47 662.24 1148.64 664 1149.71 665.067 1149.92 665.067 1151.44 664.293 1152.48 664.72 1153.15 666.56 1154.67 666.56 1154.67 666.347 1155.2 664.72 1156.24 664.293 1158 665.12 1159.07 664.053 1159.07 663.84 1158.29 662.32 1158.72 661.28ZM1153.97 662.667C1152.35 662.667 1151.04 661.353 1151.04 659.733 1151.04 658.113 1152.35 656.8 1153.97 656.8 1155.59 656.8 1156.91 658.113 1156.91 659.733 1156.92 661.339 1155.63 662.652 1154.03 662.667 1154.01 662.667 1153.99 662.667 1153.97 662.667Z" fill="#FFFFFF"/><path d="M1168.91 651.573C1168.91 652.81 1167.9 653.813 1166.67 653.813 1165.43 653.813 1164.43 652.81 1164.43 651.573 1164.43 650.336 1165.43 649.333 1166.67 649.333 1167.9 649.333 1168.91 650.336 1168.91 651.573Z" fill="#E3E3E3"/><path d="M1174.67 652.427 1174.67 650.613 1174.43 650.613 1172.45 650 1172 648.64 1172.99 646.507 1171.71 645.227 1171.47 645.227 1169.63 646.16 1168.4 645.653 1167.6 643.44 1165.71 643.44 1165.71 643.707 1165.07 645.653 1163.81 646.16 1161.73 645.173 1160.45 646.453 1160.59 646.693 1161.33 648.667 1160.91 650 1158.67 650.72 1158.67 652.667 1158.93 652.667 1160.88 653.307 1161.33 654.507 1160.35 656.64 1161.68 658 1161.95 657.867 1163.76 656.933 1165.01 657.44 1165.81 659.653 1167.63 659.653 1167.63 659.387 1168.27 657.44 1169.52 656.933 1171.63 657.92 1172.91 656.64 1172.77 656.4 1172 654.48 1172.51 653.227ZM1166.67 655.093C1164.72 655.093 1163.15 653.517 1163.15 651.573 1163.15 649.629 1164.72 648.053 1166.67 648.053 1168.61 648.053 1170.19 649.629 1170.19 651.573 1170.2 653.503 1168.65 655.079 1166.72 655.093 1166.7 655.093 1166.68 655.093 1166.67 655.093Z" fill="#FFFFFF"/></g></g></g><g clip-path="url(#clip85)"><g clip-path="url(#clip86)"><g clip-path="url(#clip87)"><path d="M694.333 649.093 739.667 649.093 739.667 649.093 739.667 674.373C739.667 675.213 738.986 675.893 738.147 675.893L695.853 675.893C695.014 675.893 694.333 675.213 694.333 674.373L694.333 649.093 694.333 649.093Z" fill="url(#fill88)"/><path d="M695.853 639.333 738.147 639.333C738.986 639.333 739.667 640.014 739.667 640.853L739.667 649.093 739.667 649.093 694.333 649.093 694.333 649.093 694.333 640.933C694.289 640.095 694.933 639.38 695.771 639.335 695.799 639.334 695.826 639.333 695.853 639.333Z" fill="#0078D4"/><path d="M730.867 660.827C730.867 662.859 729.219 664.507 727.187 664.507 725.154 664.507 723.507 662.859 723.507 660.827 723.507 658.794 725.154 657.147 727.187 657.147 729.219 657.147 730.867 658.794 730.867 660.827Z" fill="#F2F2F2"/><path d="M720.84 660.827C720.84 662.859 719.192 664.507 717.16 664.507 715.128 664.507 713.48 662.859 713.48 660.827 713.48 658.794 715.128 657.147 717.16 657.147 719.192 657.147 720.84 658.794 720.84 660.827Z" fill="#F2F2F2"/><path d="M710.493 660.827C710.493 662.859 708.846 664.507 706.813 664.507 704.781 664.507 703.133 662.859 703.133 660.827 703.133 658.794 704.781 657.147 706.813 657.147 708.846 657.147 710.493 658.794 710.493 660.827Z" fill="#F2F2F2"/><path d="M732.84 642.32C733.252 642.32 733.587 642.654 733.587 643.067L733.587 645.467C733.587 645.879 733.252 646.213 732.84 646.213L701.187 646.213C700.774 646.213 700.44 645.879 700.44 645.467L700.44 643.067C700.44 642.654 700.774 642.32 701.187 642.32Z" fill="#F2F2F2"/></g></g></g><text font-family="Calibri,Calibri_MSFontService,sans-serif" font-weight="400" font-size="21" transform="translate(692.981 700)">cses</text><text font-family="Calibri,Calibri_MSFontService,sans-serif" font-weight="400" font-size="21" transform="translate(729.315 700)">-</text><text font-family="Calibri,Calibri_MSFontService,sans-serif" font-weight="400" font-size="21" transform="translate(735.815 700)">stag.eastus.cloudapp.azure.com</text><path d="M910.5 652.438 1078.5 652.438 1078.5 634.5 1102.5 658.5 1078.5 682.5 1078.5 664.562 910.5 664.562Z" stroke="#2F528F" stroke-width="1.33333" stroke-miterlimit="8" fill="#4472C4" fill-rule="evenodd" fill-opacity="0.2"/><text font-family="Calibri,Calibri_MSFontService,sans-serif" font-weight="400" font-size="21" transform="translate(1114.29 700)">testcsesv2</text><text fill="#E91C1C" font-family="Amasis MT Pro Black,Amasis MT Pro Black_MSFontService,sans-serif" font-weight="900" font-size="24" transform="translate(1164.29 392)">New</text><text fill="#E91C1C" font-family="Amasis MT Pro Black,Amasis MT Pro Black_MSFontService,sans-serif" font-weight="900" font-size="24" transform="translate(1139.77 181)">Delete</text><path d="M1114 140 1148.84 206.66" stroke="#E91C1C" stroke-width="4" stroke-miterlimit="8" fill="none" fill-rule="evenodd"/><path d="M0 0 34.8366 65.8761" stroke="#E91C1C" stroke-width="4" stroke-miterlimit="8" fill="none" fill-rule="evenodd" transform="matrix(-1 0 0 1 1148.84 139)"/><path d="M2-5.27161e-06 2.00007 27.8311-1.99993 27.8311-2 5.27161e-06ZM7.33572e-05 27.8311 10.0001 19.831 0.000104987 39.8311-9.99995 19.8311Z" fill="#E91C1C" transform="matrix(1 0 0 -1 1164 633.831)"/><text fill="#E91C1C" font-family="Amasis MT Pro Black,Amasis MT Pro Black_MSFontService,sans-serif" font-weight="900" font-size="24" transform="translate(1168.23 632)">Swap</text></g></svg>